
<svg xmlns="http://www.w3.org/2000/svg" version="1.1" xmlns:xlink="http://www.w3.org/1999/xlink" preserveAspectRatio="none" x="0px" y="0px" width="47px" height="46px" viewBox="0 0 47 46">
<defs>
<g id="_______34_________0_Layer0_0_FILL">
<path fill="#000000" fill-opacity="0.4980392156862745" stroke="none" d="
M 29.7 18.55
Q 32.3 14.4 34.45 9.85 36.65 5.4 38.5 0.5 35.15 -0.15 31.65 0.05 28.2 0.3 25 1.4 24.05 4.25 22.9 7.15 21.75 10.05 20.35 12.8 18.45 10.25 16.95 7.55 15.4 4.8 14.15 2.1 10.65 1.4 6.95 1.65 3.3 1.9 0 3 2.55 7.75 5.35 12 8.15 16.3 11.35 20.25 8.45 25.05 5.9 30.2 3.4 35.25 1.25 40.85 4.6 41.45 8.1 41.25 11.6 41 14.75 39.95 16 36.4 17.55 32.95 19 29.55 20.8 26.05 23 29.3 24.95 32.45 26.9 35.7 28.55 39.05 32.1 39.7 35.7 39.45 39.4 39.2 42.7 38.15 39.75 32.8 36.55 27.95 33.3 23.1 29.7 18.55 Z"/>
</g>

<g id="_______34_0_Layer0_0_FILL">
<path fill="#FFFFFF" stroke="none" d="
M 29.7 18.55
Q 32.3 14.4 34.45 9.85 36.65 5.4 38.5 0.5 35.15 -0.15 31.65 0.05 28.2 0.3 25 1.4 24.05 4.25 22.9 7.15 21.75 10.05 20.35 12.8 18.45 10.25 16.95 7.55 15.4 4.8 14.15 2.1 10.65 1.4 6.95 1.65 3.3 1.9 0 3 2.55 7.75 5.35 12 8.15 16.3 11.35 20.25 8.45 25.05 5.9 30.2 3.4 35.25 1.25 40.85 4.6 41.45 8.1 41.25 11.6 41 14.75 39.95 16 36.4 17.55 32.95 19 29.55 20.8 26.05 23 29.3 24.95 32.45 26.9 35.7 28.55 39.05 32.1 39.7 35.7 39.45 39.4 39.2 42.7 38.15 39.75 32.8 36.55 27.95 33.3 23.1 29.7 18.55 Z"/>
</g>
</defs>

<g transform="matrix( 1, 0, 0, 1, 0,0) ">
<g transform="matrix( 1, 0, 0, 1, 0,4) ">
<g transform="matrix( 1, 0, 0, 1, 0,0) ">
<use xlink:href="#_______34_________0_Layer0_0_FILL"/>
</g>
</g>

<g transform="matrix( 1, 0, 0, 1, 3.6,0) ">
<g transform="matrix( 1, 0, 0, 1, 0,0) ">
<use xlink:href="#_______34_0_Layer0_0_FILL"/>
</g>
</g>
</g>
</svg>
