
<svg xmlns="http://www.w3.org/2000/svg" version="1.1" xmlns:xlink="http://www.w3.org/1999/xlink" preserveAspectRatio="none" x="0px" y="0px" width="50px" height="52px" viewBox="0 0 50 52">
<defs>
<g id="_______25_0_Layer0_0_FILL">
<path fill="#000000" fill-opacity="0.4980392156862745" stroke="none" d="
M 1400.3 1118.6
Q 1396.7 1118.6 1394.1 1121.15 1391.55 1123.75 1391.55 1127.35
L 1391.55 1155.8
Q 1391.55 1159.4 1394.1 1161.95 1396.7 1164.55 1400.3 1164.55
L 1400.35 1164.55
Q 1403.95 1164.55 1406.5 1161.95 1409.1 1159.4 1409.1 1155.8
L 1409.1 1127.35
Q 1409.1 1123.75 1406.5 1121.15 1403.95 1118.6 1400.35 1118.6
L 1400.3 1118.6 Z"/>
</g>

<g id="_______25_0_Layer0_1_FILL">
<path fill="#000000" fill-opacity="0.4980392156862745" stroke="none" d="
M 1400.3 1118.6
Q 1396.7 1118.6 1394.1 1121.15 1391.55 1123.75 1391.55 1127.35
L 1391.55 1155.8
Q 1391.55 1159.4 1394.1 1161.95 1396.7 1164.55 1400.3 1164.55
L 1400.35 1164.55
Q 1403.95 1164.55 1406.5 1161.95 1409.1 1159.4 1409.1 1155.8
L 1409.1 1127.35
Q 1409.1 1123.75 1406.5 1121.15 1403.95 1118.6 1400.35 1118.6
L 1400.3 1118.6 Z"/>
</g>

<g id="_______25_0_Layer0_2_FILL">
<path fill="#FFFFFF" stroke="none" d="
M 1400.3 1118.6
Q 1396.7 1118.6 1394.1 1121.15 1391.55 1123.75 1391.55 1127.35
L 1391.55 1155.8
Q 1391.55 1159.4 1394.1 1161.95 1396.7 1164.55 1400.3 1164.55
L 1400.35 1164.55
Q 1403.95 1164.55 1406.5 1161.95 1409.1 1159.4 1409.1 1155.8
L 1409.1 1127.35
Q 1409.1 1123.75 1406.5 1121.15 1403.95 1118.6 1400.35 1118.6
L 1400.3 1118.6 Z"/>
</g>

<g id="_______25_0_Layer0_3_FILL">
<path fill="#FFFFFF" stroke="none" d="
M 1400.3 1118.6
Q 1396.7 1118.6 1394.1 1121.15 1391.55 1123.75 1391.55 1127.35
L 1391.55 1155.8
Q 1391.55 1159.4 1394.1 1161.95 1396.7 1164.55 1400.3 1164.55
L 1400.35 1164.55
Q 1403.95 1164.55 1406.5 1161.95 1409.1 1159.4 1409.1 1155.8
L 1409.1 1127.35
Q 1409.1 1123.75 1406.5 1121.15 1403.95 1118.6 1400.35 1118.6
L 1400.3 1118.6 Z"/>
</g>
</defs>

<g transform="matrix( 1, 0, 0, 1, 0,0) ">
<g transform="matrix( 1, 0, 0.0261383056640625, 1, -1393.9,-1112.85) ">
<use xlink:href="#_______25_0_Layer0_0_FILL"/>
</g>

<g transform="matrix( 1, 0, 0.0261383056640625, 1, -1421,-1112.85) ">
<use xlink:href="#_______25_0_Layer0_1_FILL"/>
</g>

<g transform="matrix( 1, 0, 0.0261383056640625, 1, -1390.05,-1118.6) ">
<use xlink:href="#_______25_0_Layer0_2_FILL"/>
</g>

<g transform="matrix( 1, 0, 0.0261383056640625, 1, -1416.95,-1118.6) ">
<use xlink:href="#_______25_0_Layer0_3_FILL"/>
</g>
</g>
</svg>
