
<svg xmlns="http://www.w3.org/2000/svg" version="1.1" xmlns:xlink="http://www.w3.org/1999/xlink" preserveAspectRatio="none" x="0px" y="0px" width="44px" height="44px" viewBox="0 0 44 44">
<defs>
<g id="_______89_0_Layer1_0_FILL">
<path fill="#176FA1" stroke="none" d="
M 37.3 6.5
Q 30.8 0 21.9 0 12.8 0 6.5 6.5 0 12.8 0 21.7 0 30.8 6.5 37.3 12.8 43.6 21.9 43.6 30.8 43.6 37.3 37.3 43.75 30.8 43.75 21.7 43.75 12.8 37.3 6.5
M 21.7 3
Q 29.25 3 34.5 8.35 39.85 13.6 39.85 21.15 39.85 28.65 34.5 33.9 29.25 39.1 21.7 39.1 14.35 39.1 9.15 33.9 3.9 28.65 3.9 21.15 3.9 13.6 9.15 8.35 14.35 3 21.7 3 Z"/>

<path fill="#B6E4FF" stroke="none" d="
M 34.5 8.35
Q 29.25 3 21.7 3 14.35 3 9.15 8.35 3.9 13.6 3.9 21.15 3.9 28.65 9.15 33.9 14.35 39.1 21.7 39.1 29.25 39.1 34.5 33.9 39.85 28.65 39.85 21.15 39.85 13.6 34.5 8.35 Z"/>
</g>

<g id="_______89_0_Layer0_0_FILL">
<path fill="#176FA1" stroke="none" d="
M 37.3 6.5
Q 30.8 0 21.9 0 12.8 0 6.5 6.5 0 12.8 0 21.7 0 30.8 6.5 37.3 12.8 43.6 21.9 43.6 30.8 43.6 37.3 37.3 43.75 30.8 43.75 21.7 43.75 12.8 37.3 6.5
M 21.7 1.95
Q 29.65 1.95 35.2 7.6 40.85 13.15 40.85 21.1 40.85 29 35.2 34.55 29.65 40.05 21.7 40.05 13.95 40.05 8.45 34.55 2.9 29 2.9 21.1 2.9 13.15 8.45 7.6 13.95 1.95 21.7 1.95 Z"/>

<path fill="#B6E4FF" stroke="none" d="
M 35.2 7.6
Q 29.65 1.95 21.7 1.95 13.95 1.95 8.45 7.6 2.9 13.15 2.9 21.1 2.9 29 8.45 34.55 13.95 40.05 21.7 40.05 29.65 40.05 35.2 34.55 40.85 29 40.85 21.1 40.85 13.15 35.2 7.6
M 30.65 6.5
Q 34.2 8.75 35.85 11.85 37.45 15.1 36.3 17.5
L 34.85 18.95 34.85 20.6
Q 34.85 26.75 30.5 31.3
L 30.95 33.05
Q 30.95 35.2 28.35 36.8 25.8 38.25 22.2 38.25 18.5 38.25 16.05 36.8
L 13.8 34.85 9.1 31.3
Q 4.4 26.75 4.4 20.6 4.4 14.45 9.1 9.9 13.3 5.5 19.45 5.35
L 22.85 4.55
Q 26.75 4.2 30.65 6.5 Z"/>

<path fill="#42B1F0" stroke="none" d="
M 13.8 34.85
L 16.05 36.8
Q 18.5 38.25 22.2 38.25 25.8 38.25 28.35 36.8 30.95 35.2 30.95 33.05
L 30.5 31.3 28.35 29.5
Q 25.8 27.9 22.2 27.9 18.5 27.9 16.05 29.5 13.3 30.8 13.3 33.05
L 13.8 34.85 Z"/>

<path fill="#83D1FF" stroke="none" d="
M 34.85 20.6
L 34.85 18.95 31.3 19.95
Q 27.55 20.45 24 18.15 19.95 15.9 18.3 12.65 16.55 9.4 18 6.95
L 19.45 5.35
Q 13.3 5.5 9.1 9.9 4.4 14.45 4.4 20.6 4.4 26.75 9.1 31.3
L 13.8 34.85 13.3 33.05
Q 13.3 30.8 16.05 29.5 18.5 27.9 22.2 27.9 25.8 27.9 28.35 29.5
L 30.5 31.3
Q 34.85 26.75 34.85 20.6 Z"/>

<path fill="#E5F5FF" stroke="none" d="
M 35.85 11.85
Q 34.2 8.75 30.65 6.5 26.75 4.2 22.85 4.55
L 19.45 5.35 18 6.95
Q 16.55 9.4 18.3 12.65 19.95 15.9 24 18.15 27.55 20.45 31.3 19.95
L 34.85 18.95 36.3 17.5
Q 37.45 15.1 35.85 11.85 Z"/>
</g>
</defs>

<g transform="matrix( 1, 0, 0, 1, 0,0) ">
<g transform="matrix( 1, 0, 0, 1, 0,0) ">
<use xlink:href="#_______89_0_Layer1_0_FILL"/>
</g>

<g transform="matrix( 1, 0, 0, 1, 0,0) ">
<use xlink:href="#_______89_0_Layer0_0_FILL"/>
</g>
</g>
</svg>
