
<svg xmlns="http://www.w3.org/2000/svg" version="1.1" xmlns:xlink="http://www.w3.org/1999/xlink" preserveAspectRatio="none" x="0px" y="0px" width="372px" height="372px" viewBox="0 0 372 372">
<defs>
<radialGradient id="Gradient_1" gradientUnits="userSpaceOnUse" cx="0" cy="0" r="128.22500000000002" fx="0" fy="0" gradientTransform="matrix( 0.9999999999999999, 0, 0, 0.9999999999999999, 154,154.35) " spreadMethod="pad">
<stop  offset="0%" stop-color="#FFFFFF"/>

<stop  offset="100%" stop-color="#FFFFFF" stop-opacity="0"/>
</radialGradient>

<g id="_____________________________________51_________0_Layer0_0_FILL">
<path fill="url(#Gradient_1)" stroke="none" d="
M 300.25 98.3
L 274.85 54.3 158.35 147.3 252.7 32.15 208.7 6.75 154.75 149.8 178.6 0 127.75 0 152.15 148 98.75 6.55 54.75 31.95 144.85 146.85 32.6 54.9 7.2 98.9
Q 77.5033203125 125.341796875 147.8 151.85
L 0.05 129.35 0 180.15 151.4 155.2 151.45 155.25 151.55 155.4 151.7 155.2 151.7 155.15 152.1 155.1 151.7 155.2 151.65 155.4 7.6 209.75 33 253.75 151.05 156.95 54.15 275.3 98.15 300.7 150.85 160.85 128.6 308.7 179.45 308.7 154.3 155.95
Q 154.3611328125 155.96796875 154.4 155.95
L 208.9 300.25 252.9 274.85 155.2 155.7
Q 155.2482421875 155.6767578125 155.3 155.65
L 155.4 155.55 274.1 252.8 299.5 208.8 159.65 156.1 307.95 177.7 307.9 126.9 160 151.2 300.25 98.3 Z"/>
</g>
</defs>

<g transform="matrix( 1.2066650390625, 0, 0, 1.2066650390625, 0,0) ">
<g transform="matrix( 1, 0, 0, 1, 0,0) ">
<use xlink:href="#_____________________________________51_________0_Layer0_0_FILL"/>
</g>
</g>
</svg>
