
<svg xmlns="http://www.w3.org/2000/svg" version="1.1" xmlns:xlink="http://www.w3.org/1999/xlink" preserveAspectRatio="none" x="0px" y="0px" width="97px" height="75px" viewBox="0 0 97 75">
<defs>
<linearGradient id="Gradient_1" gradientUnits="userSpaceOnUse" x1="6.25" y1="69.1" x2="97.75" y2="44.6" spreadMethod="pad">
<stop  offset="0%" stop-color="#C44B04"/>

<stop  offset="100%" stop-color="#F4A12B"/>
</linearGradient>

<linearGradient id="Gradient_2" gradientUnits="userSpaceOnUse" x1="111.9" y1="5.424999999999997" x2="0.5999999999999943" y2="34.875" spreadMethod="pad">
<stop  offset="0%" stop-color="#FBEC95"/>

<stop  offset="100%" stop-color="#F4A12B"/>
</linearGradient>

<linearGradient id="Gradient_3" gradientUnits="userSpaceOnUse" x1="72.975" y1="20.7125" x2="-38.275" y2="50.487500000000004" spreadMethod="pad">
<stop  offset="0%" stop-color="#FBEC95"/>

<stop  offset="100%" stop-color="#F4A12B"/>
</linearGradient>

<linearGradient id="Gradient_4" gradientUnits="userSpaceOnUse" x1="119.6875" y1="0.8874999999999993" x2="114.7125" y2="52.5125" spreadMethod="pad">
<stop  offset="0%" stop-color="#FBEC95"/>

<stop  offset="100%" stop-color="#F4A12B"/>
</linearGradient>

<linearGradient id="Gradient_5" gradientUnits="userSpaceOnUse" x1="122.83749999999999" y1="-10.8625" x2="117.8625" y2="40.3625" spreadMethod="pad">
<stop  offset="0%" stop-color="#FBEC95"/>

<stop  offset="100%" stop-color="#F4A12B"/>
</linearGradient>

<linearGradient id="Gradient_6" gradientUnits="userSpaceOnUse" x1="117.9625" y1="118.35" x2="165.13750000000002" y2="36.65" spreadMethod="pad">
<stop  offset="0%" stop-color="#C17418"/>

<stop  offset="100%" stop-color="#F4A12B"/>
</linearGradient>

<linearGradient id="Gradient_7" gradientUnits="userSpaceOnUse" x1="35.45" y1="90.45" x2="35.45" y2="50.45" spreadMethod="pad">
<stop  offset="0%" stop-color="#C17418"/>

<stop  offset="100%" stop-color="#F4A12B"/>
</linearGradient>

<linearGradient id="Gradient_8" gradientUnits="userSpaceOnUse" x1="72.83749999999999" y1="32.02499999999999" x2="62.262499999999996" y2="91.575" spreadMethod="pad">
<stop  offset="0%" stop-color="#C44B04"/>

<stop  offset="100%" stop-color="#F4A12B"/>
</linearGradient>

<linearGradient id="Gradient_9" gradientUnits="userSpaceOnUse" x1="94.4125" y1="-7.450000000000003" x2="45.5875" y2="76.95" spreadMethod="pad">
<stop  offset="0%" stop-color="#FBEC95"/>

<stop  offset="100%" stop-color="#F4A12B"/>
</linearGradient>

<linearGradient id="Gradient_10" gradientUnits="userSpaceOnUse" x1="78.4" y1="4.112499999999997" x2="39.5" y2="71.4875" spreadMethod="pad">
<stop  offset="0%" stop-color="#FBEC95"/>

<stop  offset="100%" stop-color="#F4A12B"/>
</linearGradient>

<linearGradient id="Gradient_11" gradientUnits="userSpaceOnUse" x1="173.9875" y1="52.8" x2="131.0125" y2="41.3" spreadMethod="pad">
<stop  offset="0%" stop-color="#C44B04"/>

<stop  offset="100%" stop-color="#F4A12B"/>
</linearGradient>

<linearGradient id="Gradient_12" gradientUnits="userSpaceOnUse" x1="79.75" y1="106.05" x2="79.75" y2="159.65" spreadMethod="pad">
<stop  offset="0%" stop-color="#C44B04"/>

<stop  offset="100%" stop-color="#F4A12B"/>
</linearGradient>

<linearGradient id="Gradient_13" gradientUnits="userSpaceOnUse" x1="20.05" y1="79.5" x2="20.05" y2="156.1" spreadMethod="pad">
<stop  offset="0%" stop-color="#C17418"/>

<stop  offset="100%" stop-color="#F4A12B"/>
</linearGradient>

<linearGradient id="Gradient_14" gradientUnits="userSpaceOnUse" x1="85.9375" y1="-7.287499999999994" x2="51.26249999999999" y2="124.1875" spreadMethod="pad">
<stop  offset="0%" stop-color="#FBEC95"/>

<stop  offset="100%" stop-color="#F4A12B"/>
</linearGradient>

<linearGradient id="Gradient_15" gradientUnits="userSpaceOnUse" x1="84.2" y1="24.3125" x2="43.8" y2="175.0875" spreadMethod="pad">
<stop  offset="0%" stop-color="#FBEC95"/>

<stop  offset="100%" stop-color="#F4A12B"/>
</linearGradient>

<linearGradient id="Gradient_16" gradientUnits="userSpaceOnUse" x1="140.65" y1="0" x2="140.65" y2="56.1" spreadMethod="pad">
<stop  offset="0%" stop-color="#C44B04"/>

<stop  offset="100%" stop-color="#F4A12B"/>
</linearGradient>

<linearGradient id="Gradient_17" gradientUnits="userSpaceOnUse" x1="131.9" y1="48.474999999999994" x2="131.9" y2="137.125" spreadMethod="pad">
<stop  offset="0%" stop-color="#C17418"/>

<stop  offset="100%" stop-color="#F4A12B"/>
</linearGradient>

<g id="_____________________________________194_0_Layer1_0_FILL">
<path fill="#1B1C23" stroke="none" d="
M 143.35 -5.65
Q 143.3 -5.7 113.05 -1.4 82.85 2.9 82.8 2.8 82.75 2.75 53.05 19 23.3 35.25 23.1 41.2 22.45 60.15 22.35 60
L 27.95 71.25
Q 27.90234375 71.2017578125 20.35 76.9 12.792578125 82.644140625 13.45 82.35 14.1072265625 82.1056640625 3.45 101.1 -7.2025390625 120.148046875 -7.25 120.05 -4.3 161 -4.4 160.85 4.6 187.25 4.5 187.1 36 203.65 35.9 203.5 70.25 208.35 70.15 208.2 70.1 208.15 88 201.9 105.85 195.65 105.8 195.55 105.75 195.5 125.25 185.5 144.75 175.5 144.7 175.4 144.65 175.35 149.65 176.55 154.6 177.8 154.55 177.7 154.50234375 177.6515625 190.9 177.7 227.3458984375 177.8041015625 227.2 177.9 227.055078125 178.0474609375 244.15 172.85 261.294140625 167.693359375 262.35 165.95 263.39765625 164.2064453125 270.25 152.3
L 263.9 124.2
Q 262.8 124.55 222.55 101.3 222.5 101.25 225.4 97.1 228.25 92.95 228.2 92.85 228.1 92.7 227.7 71.7
L 211.3 27.65
Q 211.2 27.5 143.35 -5.65 Z"/>
</g>

<g id="_____________________________________192_________0_Layer1_0_FILL">
<path fill="#DE932D" stroke="none" d="
M 64.4 28.95
L 1.75 39.35 0 58.2 30.7 104.45 93.65 124.75 97 46.85 64.4 28.95 Z"/>

<path fill="#D89A2B" stroke="none" d="
M 116.4 31.85
L 132.55 91.05 141.4 113.5 166.85 107.45 151 70.45 124.75 25.35 116.4 31.85 Z"/>

<path fill="#BF4C09" stroke="none" d="
M 116.4 31.85
L 99.5 44.9 93.65 124.75 141.4 113.5 132.55 91.05 116.4 31.85 Z"/>

<path fill="#FBEE9E" stroke="none" d="
M 99.5 44.9
L 116.4 31.85 124.75 25.35 166.25 29.45 123.6 24.4 97.35 43.6 66.95 26.3 1.75 39.35 64.4 28.95 97 46.85 93.65 124.75 99.5 44.9 Z"/>

<path fill="#A23806" stroke="none" d="
M 175.5 30.4
L 166.25 29.45 124.75 25.35 151 70.45 166.85 107.45 189.6 89.2 189.6 71.9 175.5 30.4 Z"/>

<path fill="#FFEF61" stroke="none" d="
M 166.25 29.45
L 175.5 30.4 110.5 0 55.2 10.1 1.75 39.35 66.95 26.3 97.35 43.6 123.6 24.4 166.25 29.45 Z"/>
</g>

<g id="_____________________________________192_________0_Layer0_0_FILL">
<path fill="url(#Gradient_1)" stroke="none" d="
M 1.75 39.35
L 0 58.2 30.7 104.45 93.65 124.75 104.15 51.5 58.25 30 1.75 39.35 Z"/>

<path fill="url(#Gradient_2)" stroke="none" d="
M 58.25 30
L 79.4 13.7 110.5 0 55.2 10.1 1.75 39.35 58.25 30
M 73.45 15.25
L 57.75 27.35 15.8 34.3 55.45 12.6 96.5 5.1 73.45 15.25 Z"/>

<path fill="url(#Gradient_3)" stroke="none" d="
M 57.75 27.35
L 73.45 15.25 96.5 5.1 55.45 12.6 15.8 34.3 57.75 27.35 Z"/>

<path fill="url(#Gradient_4)" stroke="none" d="
M 104.15 51.5
L 144.15 40.5 175.5 30.4 110.5 0 79.4 13.7 58.25 30 104.15 51.5
M 85.85 15.8
L 111.6 4.45 141.5 18.45 165.4 29.6 139.45 37.95 106.35 47.05 68.35 29.3 75.35 23.9 85.85 15.8 Z"/>

<path fill="url(#Gradient_5)" stroke="none" d="
M 106.35 47.05
L 139.45 37.95 165.4 29.6 141.5 18.45 75.35 23.9 68.35 29.3 106.35 47.05 Z"/>

<path fill="#FFFFFF" stroke="none" d="
M 111.6 4.45
L 85.85 15.8 75.35 23.9 141.5 18.45 111.6 4.45 Z"/>

<path fill="url(#Gradient_6)" stroke="none" d="
M 189.6 89.2
L 189.6 71.9 175.5 30.4 144.15 40.5 104.15 51.5 93.65 124.75 166.85 107.45 189.6 89.2 Z"/>
</g>

<g id="_____________________________________191_________0_Layer1_0_FILL">
<path fill="#DD8E29" stroke="none" d="
M 6.15 51.55
L 0 73.85 5 83.8 36.35 91.55 38.6 75.7 31.8 68.4
Q 15.25 60.8 6.15 51.55 Z"/>

<path fill="#FDC937" stroke="none" d="
M 131.4 24.5
L 105.3 0 63.6 11.55 29.5 36.2 6.15 51.55
Q 17.35 58.7 31.7 65.85
L 99.75 55.45
Q 118.6 40.35 131.4 24.5 Z"/>

<path fill="#CC5406" stroke="none" d="
M 103.35 63.45
L 101.25 57.2 34.45 68.05 39.9 75.35 40 75.45 39.9 75.45 36.35 91.55 103.9 91.55 111.3 75.95 114.9 66.35 103.35 63.45 Z"/>

<path fill="#FBEE9E" stroke="none" d="
M 107.6 0.25
L 105.3 0 131.4 24.5
Q 118.6 40.35 99.75 55.45
L 31.7 65.85
Q 17.35 58.7 6.15 51.55 15.25 60.8 31.8 68.4
L 38.6 75.7 36.35 91.55 39.9 75.45 39.9 75.35 34.45 68.05 101.25 57.2 103.35 63.45 114.9 66.35 104 61.5 104 55.15
Q 122.65 40.45 134.2 24.15 148.4 25.8 164 24.15 146.3 23.95 131.4 21.6
L 107.6 0.25 Z"/>

<path fill="#F7A831" stroke="none" d="
M 157.65 12.85
L 140.3 3 107.6 0.25 131.4 21.6
Q 146.3 23.95 164 24.15
L 157.65 12.85 Z"/>

<path fill="#FF7F0A" stroke="none" d="
M 168.75 35
L 164 24.15
Q 148.4 25.8 134.2 24.15 122.65 40.45 104 55.15
L 104 61.5 114.9 66.35 111.3 75.95 103.9 91.55 138 81.15 157.4 70.85 165.5 53.4 168.75 35 Z"/>
</g>

<g id="_____________________________________191_________0_Layer0_0_FILL">
<path fill="url(#Gradient_7)" stroke="none" d="
M 31.8 68.4
Q 26.0421875 65.7560546875 21.15 62.9 12.0841796875 57.5818359375 6.15 51.55
L 0 73.85 5 83.8 36.35 91.55 31.8 79.6 31.8 68.4 Z"/>

<path fill="#F7A831" stroke="none" d="
M 116 66.1
L 103.9 91.55 138 81.15 157.4 70.85 165.4 53.65 115.95 66.05 116 66.1
M 157.65 12.85
L 140.3 3 107.6 0.25 131.4 21.6 164 24.15 157.65 12.85 Z"/>

<path fill="url(#Gradient_8)" stroke="none" d="
M 115.95 66.05
L 104 55.15 31.8 68.4 31.8 79.6 36.35 91.55 103.9 91.55 116 66.1 115.95 66.05 Z"/>

<path fill="url(#Gradient_9)" stroke="none" d="
M 126.8 30.15
Q 129.3630859375 25.9880859375 131.4 21.6
L 107.6 0.25 105.3 0 63.6 11.55 29.5 36.2 6.15 51.55
Q 12.0841796875 57.5818359375 21.15 62.9 26.0421875 65.7560546875 31.8 68.4
L 104 55.15
Q 118.30859375 43.8720703125 126.8 30.15
M 99.8 5.2
L 101.75 5.4 112.4 14.95 121.95 23.55
Q 119.59296875 28.6462890625 116.35 33.35 109.5015625 43.5154296875 98.7 52
L 37.45 63.25
Q 35.9591796875 62.565625 34.55 61.85 32.5994140625 60.9125 30.75 59.9 21.4490234375 54.823828125 15.65 48.95
L 35.5 35.9 44.9 29.1 64.4 15 99.8 5.2 Z"/>

<path fill="#FFFFFF" stroke="none" d="
M 116.35 33.35
Q 119.59296875 28.6462890625 121.95 23.55
L 112.4 14.95 44.9 29.1 35.5 35.9 15.65 48.95
Q 21.4490234375 54.823828125 30.75 59.9
L 116.35 33.35 Z"/>

<path fill="url(#Gradient_10)" stroke="none" d="
M 98.7 52
Q 109.5015625 43.5154296875 116.35 33.35
L 30.75 59.9
Q 32.5994140625 60.9125 34.55 61.85 35.9591796875 62.565625 37.45 63.25
L 98.7 52
M 101.75 5.4
L 99.8 5.2 64.4 15 44.9 29.1 112.4 14.95 101.75 5.4 Z"/>

<path fill="url(#Gradient_11)" stroke="none" d="
M 168.75 35
L 164 24.15 131.4 21.6
Q 129.3630859375 25.9880859375 126.8 30.15 118.30859375 43.8720703125 104 55.15
L 115.95 66.05 165.4 53.65 165.5 53.4 168.75 35 Z"/>
</g>

<g id="_____________________________________193_________0_Layer1_0_FILL">
<path fill="#DB902B" stroke="none" d="
M 29.3 136.6
L 33.1 119.4 0 79.5 0.5 119.1 17.1 136.6 29.3 136.6 Z"/>

<path fill="#D55808" stroke="none" d="
M 0.5 119.1
L 9.6 141.05 39.2 156.1 40.05 137.3 33.1 119.4 29.3 136.6 17.1 136.6 0.5 119.1 Z"/>

<path fill="#E55704" stroke="none" d="
M 42.05 137.6
L 42.1 137.7 39.2 156.1 70 159.65 111.05 144.15 124.3 137.15 98.3 119.4 94.25 106.05 35.2 118.95 42.05 137.6 Z"/>

<path fill="#FBEE9E" stroke="none" d="
M 113.65 0
L 129.7 49.25 111.25 76.1 92.1 103.85 33.25 115 0 79.5 33.1 119.4 40.05 137.3 39.2 156.1 42.1 137.7 42.05 137.6 35.2 118.95 94.25 106.05 98.3 119.4 96.2 103.2 133.2 48.5 156.15 51.85 134.9 46.5 113.65 0 Z"/>

<path fill="#FECA39" stroke="none" d="
M 111.25 76.1
L 120.1 50.4 103.15 53.5 106.25 34.4 69.95 38 69.95 25.6 19.35 45.6 0 79.5 33.25 115 92.1 103.85 111.25 76.1 Z"/>

<path fill="#FBE456" stroke="none" d="
M 120.1 50.4
L 111.25 76.1 129.7 49.25 113.65 0 65.9 6.65 19.35 45.6 69.95 25.6 69.95 38 106.25 34.4 103.15 53.5 120.1 50.4 Z"/>

<path fill="#EDA831" stroke="none" d="
M 158.9 35.7
L 147.55 9.05 113.65 0 134.9 46.5 156.15 51.85 158.9 35.7 Z"/>

<path fill="#D56A08" stroke="none" d="
M 164.05 70.65
L 167.6 56.1 158.9 35.7 156.15 51.85 133.2 48.5 96.2 103.2 98.3 119.4 124.3 137.15 137.55 130.1 164.05 70.65 Z"/>
</g>

<g id="_____________________________________193_________0_Layer0_0_FILL">
<path fill="url(#Gradient_12)" stroke="none" d="
M 33.1 119.4
L 39.2 140.25 39.2 156.1 70 159.65 111.05 144.15 124.3 137.15 96.2 103.2 33.1 119.4 Z"/>

<path fill="url(#Gradient_13)" stroke="none" d="
M 0.5 119.1
L 9.6 141.05 39.2 156.1 39.2 140.25 33.1 119.4 0 79.5 0.5 119.1 Z"/>

<path fill="url(#Gradient_14)" stroke="none" d="
M 134.9 46.5
L 113.65 0 65.9 6.65 19.35 45.6 0 79.5 33.1 119.4 96.2 103.2 134.9 46.5
M 122 31.65
L 129.35 47.65 118.8 63.1 118.75 63.15 93.85 99.65 36 114.5 5.65 77.9 18.95 54.55 23.4 46.8 66.1 11.1 109.85 5 122 31.65 Z"/>

<path fill="#FFFFFF" stroke="none" d="
M 122 31.65
L 109.85 5 66.1 11.1 23.4 46.8 18.95 54.55 122 31.65 Z"/>

<path fill="url(#Gradient_15)" stroke="none" d="
M 129.35 47.65
L 122 31.65 18.95 54.55 5.65 77.9 36 114.5 93.85 99.65 118.75 63.15 118.8 63.1 129.35 47.65 Z"/>

<path fill="url(#Gradient_16)" stroke="none" d="
M 147.55 9.05
L 113.65 0 134.9 46.5 167.6 56.1 147.55 9.05 Z"/>

<path fill="url(#Gradient_17)" stroke="none" d="
M 164.05 70.65
L 167.6 56.1 134.9 46.5 96.2 103.2 124.3 137.15 137.55 130.1 164.05 70.65 Z"/>
</g>
</defs>

<g transform="matrix( 0.346282958984375, 0, 0, 0.346282958984375, 2.5,1.95) ">
<g transform="matrix( 1, 0, 0, 1, 0,0) ">
<use xlink:href="#_____________________________________194_0_Layer1_0_FILL"/>
</g>

<g transform="matrix( 1, 0, 0, 1, 30.15,0) ">
<g transform="matrix( 1, 0, 0, 1, 0,0) ">
<use xlink:href="#_____________________________________192_________0_Layer1_0_FILL"/>
</g>

<g transform="matrix( 1, 0, 0, 1, 0,0) ">
<use xlink:href="#_____________________________________192_________0_Layer0_0_FILL"/>
</g>
</g>

<g transform="matrix( -1, 0, 0, 1, 263.9,78.45) ">
<g transform="matrix( 1, 0, 0, 1, 0,0) ">
<use xlink:href="#_____________________________________191_________0_Layer1_0_FILL"/>
</g>

<g transform="matrix( 1, 0, 0, 1, 0,0) ">
<use xlink:href="#_____________________________________191_________0_Layer0_0_FILL"/>
</g>
</g>

<g transform="matrix( 1, 0, 0, 1, 0,41.65) ">
<g transform="matrix( 1, 0, 0, 1, 0,0) ">
<use xlink:href="#_____________________________________193_________0_Layer1_0_FILL"/>
</g>

<g transform="matrix( 1, 0, 0, 1, 0,0) ">
<use xlink:href="#_____________________________________193_________0_Layer0_0_FILL"/>
</g>
</g>
</g>
</svg>
