
<svg xmlns="http://www.w3.org/2000/svg" version="1.1" xmlns:xlink="http://www.w3.org/1999/xlink" preserveAspectRatio="none" x="0px" y="0px" width="238px" height="246px" viewBox="0 0 238 246">
<defs>
<g id="Layer0_0_MEMBER_0_MEMBER_0_MEMBER_0_FILL">
<path fill="#000000" stroke="none" d="
M 202.45 35.6
L 202.45 35.55
Q 185.95 18.75 164.75 9.55 142.75 0 118.55 0 94.35 0 72.35 9.55 51.1 18.8 34.7 35.6
L 34.65 35.65
Q 18.3 52.3 9.3 74.1 0 96.6 0 121.15 -0.05 128.9 2.05 138.1
L 2.05 138.2
Q 3.35 143.65 6.15 153
L 6.2 153.05
Q 7.9 158.65 9 162.55 10.35 167.65 10.95 171.5
L 10.95 171.45
Q 11.5 175.45 13.75 204.5
L 13.8 204.65
Q 14.4 211.15 18.85 215.95 23.45 220.85 30 221.8
L 29.9 221.8 41.05 223.5 42.3 229.85 42.3 229.8
Q 43.55 236.5 48.9 240.9
L 48.75 240.8
Q 53.85 245.15 60.95 245.25
L 173.95 245.2
Q 180.35 245.25 185.7 241.15 185.8 241 185.95 240.95 191.2 236.65 192.55 230.15
L 192.5 230.2 193.95 223.55 208.35 221.45 208.3 221.45
Q 214.95 220.5 219.55 215.6 219.6 215.5 219.7 215.45 224.1 210.55 224.6 203.9 224.6 203.8 224.6 203.75 226.3 173.95 226.85 169.8 227.35 166.1 228.65 161.15
L 228.65 161.1
Q 229.6 157.55 231.35 151.75
L 231.3 151.75
Q 234.3 141.85 235.25 137.3
L 235.2 137.45
Q 237.15 128.65 237.15 121.1 237.1 96.55 227.85 74.05 218.85 52.4 202.45 35.6
M 188.25 49.45
L 188.3 49.45
Q 201.95 63.55 209.5 81.65 217.3 100.55 217.3 121.1 217.25 126.65 215.85 133.1
L 215.8 133.25
Q 214.9 137.25 212.3 146.05
L 212.3 146.1
Q 210.4 152.35 209.45 156.1 207.75 162.5 207.15 167.2
L 207.15 167.25
Q 206.6 171.5 204.85 201.9
L 187.7 204.4 187.8 204.4
Q 183.5 204.9 180 208 179.85 208.15 179.65 208.3 176.55 211.25 175.45 215.3 175.35 215.6 175.3 215.85
L 173.25 225.35 61.7 225.4 59.9 216.25 59.9 216.35
Q 59 211.65 55.7 208.5 52.35 205.1 47.5 204.35
L 47.45 204.35 33.5 202.25
Q 31.2 172.7 30.6 168.6
L 30.6 168.55
Q 29.85 163.75 28.15 157.4
L 28.15 157.35
Q 27 153.2 25.15 147.25 25.15 147.2 25.15 147.15 22.6 138.7 21.4 133.75 21.35 133.65 21.35 133.6 19.85 126.85 19.85 121.15 19.8 100.6 27.65 81.7 35.2 63.45 48.85 49.5 62.55 35.45 80.3 27.75
L 80.25 27.75
Q 98.45 19.8 118.55 19.85 138.65 19.8 156.85 27.75 174.55 35.45 188.25 49.45
M 70.65 123.35
Q 56.35 123.9 49.2 128.85 40.85 134.65 41.3 146.95 41.6 153.55 44.25 159.1 46.85 164.7 51.45 168.9 55.85 173.05 61.7 175.25 67.65 177.5 74.1 177.25 80.4 177.05 86.25 174.3 91.85 171.65 96.05 167.15 100.3 162.45 102.4 156.85 104.65 150.9 104.4 144.45 103.9 132.35 93.8 127.1 85.4 122.75 70.65 123.35
M 118.3 176.4
Q 115.6 176.4 114.1 178.65
L 102.8 195.4
Q 102.05 196.5 101.95 197.85 101.85 199.25 102.45 200.4
L 104.1 203.75
Q 104.7 205.05 105.9 205.8 107.25 206.6 108.6 206.6
L 127.95 206.6
Q 129.3 206.6 130.65 205.8 131.9 205 132.5 203.75
L 134.1 200.4
Q 134.7 199.25 134.6 197.85 134.55 196.5 133.75 195.4
L 122.45 178.65
Q 120.95 176.4 118.3 176.4
M 195.8 146.95
Q 196.25 134.65 187.9 128.85 180.75 123.85 166.4 123.35 151.7 122.75 143.3 127.1 133.15 132.35 132.7 144.45 132.4 150.75 134.7 156.8 136.9 162.6 141.05 167.15 145.35 171.75 150.8 174.25 156.6 177.05 163 177.25 169.5 177.5 175.35 175.25 181.2 173.05 185.65 168.9 190.15 164.75 192.8 159.1 195.5 153.6 195.8 146.95 Z"/>

<path fill="#FFFFFF" stroke="none" d="
M 188.3 49.45
L 188.25 49.45
Q 174.55 35.45 156.85 27.75 138.65 19.8 118.55 19.85 98.45 19.8 80.25 27.75
L 80.3 27.75
Q 62.55 35.45 48.85 49.5 35.2 63.45 27.65 81.7 19.8 100.6 19.85 121.15 19.85 126.85 21.35 133.6 21.35 133.65 21.4 133.75 22.6 138.7 25.15 147.15 25.15 147.2 25.15 147.25 27 153.2 28.15 157.35
L 28.15 157.4
Q 29.85 163.75 30.6 168.55
L 30.6 168.6
Q 31.2 172.7 33.5 202.25
L 47.45 204.35 47.5 204.35
Q 52.35 205.1 55.7 208.5 59 211.65 59.9 216.35
L 59.9 216.25 61.7 225.4 173.25 225.35 175.3 215.85
Q 175.35 215.6 175.45 215.3 176.55 211.25 179.65 208.3 179.85 208.15 180 208 183.5 204.9 187.8 204.4
L 187.7 204.4 204.85 201.9
Q 206.6 171.5 207.15 167.25
L 207.15 167.2
Q 207.75 162.5 209.45 156.1 210.4 152.35 212.3 146.1
L 212.3 146.05
Q 214.9 137.25 215.8 133.25
L 215.85 133.1
Q 217.25 126.65 217.3 121.1 217.3 100.55 209.5 81.65 201.95 63.55 188.3 49.45
M 187.9 128.85
Q 196.25 134.65 195.8 146.95 195.5 153.6 192.8 159.1 190.15 164.75 185.65 168.9 181.2 173.05 175.35 175.25 169.5 177.5 163 177.25 156.6 177.05 150.8 174.25 145.35 171.75 141.05 167.15 136.9 162.6 134.7 156.8 132.4 150.75 132.7 144.45 133.15 132.35 143.3 127.1 151.7 122.75 166.4 123.35 180.75 123.85 187.9 128.85
M 114.1 178.65
Q 115.6 176.4 118.3 176.4 120.95 176.4 122.45 178.65
L 133.75 195.4
Q 134.55 196.5 134.6 197.85 134.7 199.25 134.1 200.4
L 132.5 203.75
Q 131.9 205 130.65 205.8 129.3 206.6 127.95 206.6
L 108.6 206.6
Q 107.25 206.6 105.9 205.8 104.7 205.05 104.1 203.75
L 102.45 200.4
Q 101.85 199.25 101.95 197.85 102.05 196.5 102.8 195.4
L 114.1 178.65
M 49.2 128.85
Q 56.35 123.9 70.65 123.35 85.4 122.75 93.8 127.1 103.9 132.35 104.4 144.45 104.65 150.9 102.4 156.85 100.3 162.45 96.05 167.15 91.85 171.65 86.25 174.3 80.4 177.05 74.1 177.25 67.65 177.5 61.7 175.25 55.85 173.05 51.45 168.9 46.85 164.7 44.25 159.1 41.6 153.55 41.3 146.95 40.85 134.65 49.2 128.85 Z"/>
</g>
</defs>

<g transform="matrix( 1, 0, 0, 1, 0,0) ">
<use xlink:href="#Layer0_0_MEMBER_0_MEMBER_0_MEMBER_0_FILL"/>
</g>
</svg>
