
<svg xmlns="http://www.w3.org/2000/svg" version="1.1" xmlns:xlink="http://www.w3.org/1999/xlink" preserveAspectRatio="none" x="0px" y="0px" width="106px" height="67px" viewBox="0 0 106 67">
<defs>
<g id="Sprite_sprite_27_0_Layer1_0_FILL">
<path fill="#EC0000" stroke="none" d="
M 293.5 139.75
L 293.5 141.3 308.2 139.1 293.5 139.75
M 372.2 136.15
L 374 138.05 383.55 136.05 384.75 147.6 367.65 146.3 368.2 229.15 384 211.2 393.25 218.3 398.2 217.15 411.1 228.3 403.55 148.35 388.8 147.9 388.65 150.35 388.3 135.4 372.2 136.15
M -60.85 95.15
Q -55.430859375 96.9908203125 -48.8 98.8
L -42.45 100.5 -60.85 95.15
M 8 202.25
L 8.4 119.1 -7.65 120.7 -8 110.7 -11.8 109.55 -12.15 121.55 -27.35 122.15 -28.1 122.85 -33.9 201.05 -21 190.05 -15.9 191.35 -8.7 183.4 8 202.25 Z"/>

<path fill="#F09100" stroke="none" d="
M 329.55 137.65
L 329.4 137.65 328.4 136.05 308.2 139.1 293.5 141.3 293.5 142.55 293.2 143.3 293.2 143.7 289 154.55
Q 284.8 163.25 278.85 172.25
L 273.8 179.2
Q 267.1 188.2 258.85 196.6 250.75 204.85 241.05 212.35 224.65 225.4 208.15 234.95 198.3 240.75 188.45 245.1 171.2 253.2 153.55 257.55
L 137.75 260.9
Q 96.05 264.5 69.85 239.6
L 69.7 239.45
Q 74.2 251.75 86.8 258.7 99.4 265.65 117.5 267.1
L 146 268.3 174.1 264.65 190.2 260.45 212.8 252.05 212.95 252.05
Q 223.1 247.7 232.95 242.5
L 233.05 242.5 252.75 230.45 252.75 230.6
Q 260.45 225.55 267.55 219.9
L 271.3 216.7 271.45 216.7 287.4 200.65
Q 295.05 191.95 301.45 182.4
L 309.7 168.9 309.7 168.75 315.65 157.05 315.65 156.75 315.95 156.75 325.35 174.4
Q 326.05 180.35 333.15 175.45
L 352.7 162.1
Q 356.65 158.05 352.7 156
L 346.35 150.5
Q 341.25 146.45 335.65 142.1
L 335.75 142.1 329.55 137.65
M 50 127.9
L 33 122.85 45.2 167.2 50 127.9 Z"/>

<path fill="#D4D4D4" stroke="none" d="
M 211.95 -31.55
L 211.8 -31.55 56.8 21.9 52 12.75 42 16.55 48.25 24.8 19.7 34.5 9.7 28.7 0.75 33.35 9.85 37.95 -67.5 64.6
Q -79.8 68.8 -82.55 70.85 -85.45 72.45 -85.3 74.35
L -85 77.5
Q -85.3685546875 86.75546875 -60.85 95.15
L -42.45 100.5 -37.5 101.85 -37.35 101.85 -11.7 107.5 -11.8 109.55 -8 110.7 -8.1 108.1 7.85 111.1 8 111.1 13.65 111.85 9.55 115.15 21.75 118.2 21.9 118.2 26.8 113.85 30.7 114.45 33 122.85 50 127.9 50.4 124.9 50.3 125 50.85 118.8 50.85 118.65 51 117.5 51.15 117.65 51.15 117.2 116.75 124.75 182.95 129.65 181.8 135.45 194.7 137.65 195.25 130.4 264.8 133.15 293.5 133.15 293.5 139.75 308.2 139.1 328.4 136.05 326.5 133 368.2 131.85 372.2 136.15 388.3 135.4 388.2 130.65 420.35 127.5 442.1 123.3 444.25 122.7
Q 455 119.5 460.05 115.6 465.1 111.55 464.95 108.35 464.85 106.35 462.2 104.9
L 306.8 20 315.2 12.2 308.55 6.4 300.15 16.4 211.95 -31.7 211.95 -31.55
M 383.15 130.95
L 383.3 132.85 381.55 131.1 383.15 130.95 Z"/>
</g>

<g id="Sprite_sprite_27_0_Layer0_0_FILL">
<path fill="#120202" stroke="none" d="
M -8.1 108.1
L -8.1 107.65 -11.7 107.2 -11.7 107.5 -12.15 121.55 -12.15 125 -8.25 124.3 -7.65 120.7 -8.1 108.1
M 383.3 132.85
L 383.55 136.05 384.75 147.6 384.75 149.65 388.65 150.35 388.2 130.65 388.2 130.1 383 129.95 383.15 130.95 383.3 132.85 Z"/>

<path fill="#F3F3F3" stroke="none" d="
M 127.05 107.8
L 132.7 108.1 147.05 74.75 127.05 107.8
M 198 -19.7
L 165.15 -6.95 -17.1 88.95 27.95 96.65 159.35 0.9 150.65 7.85 159.95 0.9 44.5 98.95 57.5 100.85 198 -19.7 Z"/>

<path fill="#CC3300" stroke="none" d="
M 3.65 192.5
L 4.35 123.15 -8.25 124.3 -12.15 125 -24.45 125.75
Q -27.35 176.15 -30.4 193.85
L -20.25 185.85 -17.1 187.3 -7.25 179.05 3.65 192.5
M 1.3 125.45
L 1.9 143.55
Q 2.6 152.1 1.6 161.4
L 1.15 164.4 -23.9 146.9 -23.75 134.45 -23.45 132.4
Q -23.15 129.8 -21.7 127.9
L -20.7 127.05 -19.85 126.75 1.3 125.45
M -23.6 160.1
L -24.9 154.45
Q -14.6 167.9 -0.4 178.6 -19.85 181.65 -23.6 160.1
M 388.65 150.35
L 384.75 149.65 372.25 148.5 371.25 220.05 383.85 204.4 393.7 212.65 396.9 211.2 406.9 219.05 401.25 151.1 388.65 150.35
M 396.45 152.1
L 397.35 152.4 398.35 153.25 400.1 157.6 400.5 172.4 394 176.9
Q 392.85 181.25 393.4 186.3
L 393.7 189.05 401.55 179.65 400.1 185.45
Q 399.2 190.95 397.35 194.85
L 393.25 200.2 392.4 196.7
Q 391.85 199.5 390.65 200.65
L 388.5 201.5
Q 385.9 201.8 384.15 200.05
L 383.3 198.9 382.4 197.45 382.25 196.7
Q 382 195.15 384.75 195.7
L 386.9 195.85 388.2 195.15 387.9 194.85 385 191.8
Q 385 190.95 388.05 190.95
L 388.2 191.05 389.2 191.05
Q 390.95 186.15 390.95 181.25
L 390.8 179.2 387.35 181.5 386.2 182.25 386.2 184.4 384.45 192.8 380.4 196.3
Q 383 191.05 382.85 184.55
L 375.45 189.75 375 186.6
Q 374 177.45 374.6 168.6
L 375.45 150.8 396.45 152.1
M 401.55 200.35
L 400.8 200.8 400.1 197.3
Q 401.55 198.9 401.55 200.35 Z"/>

<path fill="#AD2600" stroke="none" d="
M -24.9 154.45
L -23.6 160.1
Q -19.85 181.65 -0.4 178.6 -14.6 167.9 -24.9 154.45
M 1.9 143.55
L 1.3 125.45 -19.85 126.75 -20.7 127.05 -21.7 127.9
Q -23.15 129.8 -23.45 132.4
L -23.75 134.45 -23.9 146.9 1.15 164.4 1.6 161.4
Q 2.6 152.1 1.9 143.55
M 390.8 179.2
Q 390.5 176.75 389.2 177.3 387.75 178.05 387.35 181.5
L 390.8 179.2
M 400.1 185.45
L 401.55 179.65 393.7 189.05 394 192.65 397.35 194.85
Q 399.2 190.95 400.1 185.45
M 397.35 152.4
L 396.45 152.1 375.45 150.8 374.6 168.6
Q 374 177.45 375 186.6
L 375.45 189.75 382.85 184.55 382.85 182.8
Q 382.25 175 381.25 172.1
L 377.35 172.1 376.2 171.95 375 171.5 375.9 170.65 376.6 170.2 380.4 168.35 379.2 162.1 379.1 161.8 379.35 159.35
Q 379.65 158.35 380.95 157.6
L 384 156.9 385.15 156.75 386.75 156.75
Q 388.95 157.35 387.75 158.75
L 386.2 160.95 385.9 162.4 386.05 166.3 386.9 166 387.05 166
Q 388.8 165.45 388.5 164.15
L 387.9 162.4 387.9 161.4 389.2 161.65 391.7 163.4 391.95 163.7
Q 394.85 166.3 394.85 168.2 394.7 169.8 391.25 170.5
L 386.05 171.4 386.2 172.95 386.2 182.25 387.35 181.5
Q 387.35 174.4 388.8 172.95 390.4 171.25 392.85 171.8 395.15 172.25 394 176.75
L 394 176.9 400.5 172.4 400.1 157.6 398.35 153.25 397.35 152.4 Z"/>

<path fill="#8A1E00" stroke="none" d="
M 4.35 123.15
L 3.65 192.5 -7.25 179.05 -17.1 187.3 -20.25 185.85 -30.4 193.85
Q -27.35 176.15 -24.45 125.75
L -12.15 125 -12.15 121.55 -27.35 122.15 -28.1 122.85 -33.9 201.05 -21 190.05 -15.9 191.35 -8.7 183.4 8 202.25 8.4 119.1 -7.65 120.7 -8.25 124.3 4.35 123.15
M 403.55 148.35
L 388.8 147.9 388.65 150.35 401.25 151.1 406.9 219.05 396.9 211.2 393.7 212.65 383.85 204.4 371.25 220.05 372.25 148.5 384.75 149.65 384.75 147.6 367.65 146.3 368.2 229.15 384 211.2 393.25 218.3 398.2 217.15 411.1 228.3 403.55 148.35 Z"/>

<path fill="#6D6D6D" stroke="none" d="
M 7.85 111.1
L 8 111.1 13.65 111.85 19.4 107.5 19.3 107.5 -33.15 97.35 -40.25 101.1 -37.5 101.85 -37.35 101.85 -11.7 107.5 -11.7 107.2 -8.1 107.65 -8.1 108.1 7.85 111.1
M 41.15 110.85
L 41 110.85 32.05 109.4 26.8 113.85 30.7 114.45 30 111.85 35.65 112.4 42.9 113.45 45.2 111.4 41.15 110.85
M 195.85 125.15
L 195.25 130.4 201.65 130.8 201.95 125.45 195.85 125.15
M 182.95 129.65
L 183.95 124.45 119.65 119.8 116.75 124.75 182.95 129.65
M 326.5 133
L 336.95 133 333 127.8 263.2 127.8 264.8 133.15 293.5 133.15 326.5 133
M 221.65 -26.5
L 236.7 -12.6 296.95 20.45 295.5 22.05 291.3 27.1 296.65 29.55 301.45 25.2 303.05 23.65 455.4 106.75
Q 456 110.55 453.4 112.15 451.05 114.75 445.7 116.5
L 438.45 118.8 414.55 123 420.35 127.5 442.1 123.3 444.25 122.7
Q 455 119.5 460.05 115.6 465.1 111.55 464.95 108.35 464.85 106.35 462.2 104.9
L 306.8 20 315.2 12.2 308.55 6.4 300.15 16.4 221.65 -26.5 Z"/>

<path fill="#BD0000" stroke="none" d="
M 57.5 100.85
L 45.2 111.4 119.65 119.8 127.05 107.8 57.5 100.85
M 26.65 46.5
L 16.1 41.15 -75.45 72.9
Q -77.05 73.75 -77.2 73.9
L -78.05 75.35
Q -80.95 84.45 -46.5 94.05
L -36.65 96.65 -35.2 96.8 -33.15 97.35 -17.1 88.95
Q -49.8 82.15 -50.1 76.2
L 26.65 46.5
M 55.95 35.2
L 51.3 28.85 25.35 37.85 34.65 43.5 55.95 35.2
M 160.35 52.9
L 137.6 53.2 154.55 58.85 147.05 74.75 160.35 52.9
M 238.15 50.15
L 235.1 50.7 207.15 43.35 201.95 125.45 202.5 125.6 263.2 127.8 238.15 50.15
M 333 127.8
L 363.75 126.75 358.95 121.7 329.4 123 333 127.8
M 382.25 119.8
L 381.85 119.8 287.7 40.15 279.3 33.35 376.35 126.05 414.55 123 407.35 117.5 382.25 119.8
M 218.75 -22.3
L 221.65 -18.5 222.8 -18.25 246.7 -4.9 236.7 -12.6 218.75 -22.3
M 211.5 -26.35
L 211.5 -25.9 207.75 35.65 232.95 34.05 213.95 -25.05 211.5 -26.35
M 198 -19.7
L 199.2 -20.25 199.2 -19.95 198.75 -19.55 198.15 -17.95 162.4 40.7 147.6 40.85 141.8 41.45
Q 143.85 42.45 145.45 43.35
L 161.35 51.15 208.3 -25.75 202.8 -23.9 198 -19.7
M 165.15 -6.95
L 185.85 -17.95 59.1 26.1 62.6 32.6 165.15 -6.95 Z"/>

<path fill="#6B2F00" stroke="none" d="
M 45.95 113.75
L 45.95 115.15 45.65 116.5 45.65 122.55
Q 45.2 126.2 45.8 129.8 45.5 141.1 44.5 152.4
L 35.65 112.4 30 111.85 30.7 114.45 45.2 167.2 50.4 124.9 50.3 125 50.85 118.8 50.85 118.65 51 117.5 51.15 117.65 51.15 117.2 51.3 114.45 45.95 113.75
M 329.4 137.65
L 326.5 133 293.5 133.15 293.5 142.55 293.2 143.3 293.2 143.7 289 154.55
Q 284.8 163.25 278.85 172.25
L 273.8 179.2
Q 267.1 188.2 258.85 196.6 250.75 204.85 241.05 212.35 224.65 225.4 208.15 234.95 198.3 240.75 188.45 245.1 171.2 253.2 153.55 257.55
L 137.75 260.9
Q 96.05 264.5 69.85 239.6
L 69.7 239.45
Q 74.2 251.75 86.8 258.7 99.4 265.65 117.5 267.1
L 146 268.3 174.1 264.65 190.2 260.45 212.8 252.05 212.95 252.05
Q 223.1 247.7 232.95 242.5
L 233.05 242.5 252.75 230.45 252.75 230.6
Q 260.45 225.55 267.55 219.9
L 271.3 216.7 271.45 216.7 287.4 200.65
Q 295.05 191.95 301.45 182.4
L 309.7 168.9 309.7 168.75 315.65 157.05 315.65 156.75 315.95 156.75 325.35 174.4
Q 326.05 180.35 333.15 175.45
L 352.7 162.1
Q 356.65 158.05 352.7 156
L 346.35 150.5
Q 341.25 146.45 335.65 142.1
L 335.75 142.1 329.55 137.65 329.4 137.65
M 349.4 158.05
L 329.55 171.25 320.15 153.7 315.05 144.45 305.2 165.85 297.25 178.9
Q 291 188.2 283.65 196.85
L 264.2 215.55 230.45 237.55
Q 220.9 242.65 210.9 247
L 188.45 255.25
Q 178.75 258.45 168.75 260.15
L 149.8 262.75 138.35 262.9
Q 163.7 259.45 188.45 248.7 198 244.5 207.6 239.3 226 229 244.25 214.55
L 262.35 198.45
Q 274.2 186.6 283.2 173.4 289.15 164.3 293.5 155.15
L 297.1 145.45 299.85 136.05 321.3 136.05 343.15 152.7 349.4 158.05 Z"/>

<path fill="#A35100" stroke="none" d="
M 45.95 113.75
L 42.9 113.45 35.65 112.4 44.5 152.4
Q 45.5 141.1 45.8 129.8 45.2 126.2 45.65 122.55
L 45.65 116.5 45.95 115.15 45.95 113.75
M 321.3 136.05
L 299.85 136.05 297.1 145.45 305.2 165.85 315.05 144.45 320.15 153.7 343.15 152.7 321.3 136.05 Z"/>

<path fill="#6B1100" stroke="none" d="
M 45.2 111.4
L 42.9 113.45 45.95 113.75 51.3 114.45 51.15 117.2 116.75 124.75 119.65 119.8 45.2 111.4
M 16.1 41.15
L 9.85 37.95 -67.5 64.6
Q -79.8 68.8 -82.55 70.85 -85.45 72.45 -85.3 74.35
L -85 77.5
Q -85.45 88.8 -48.8 98.8
L -40.25 101.1 -33.15 97.35 -35.2 96.8 -36.65 96.65 -46.5 94.05
Q -80.95 84.45 -78.05 75.35
L -77.2 73.9
Q -77.05 73.75 -75.45 72.9
L 16.1 41.15
M 51.3 28.85
L 48.25 24.8 19.7 34.5 25.35 37.85 51.3 28.85
M 201.95 125.45
L 201.65 130.8 264.8 133.15 263.2 127.8 202.5 125.6 201.95 125.45
M 300.45 84.9
L 312.9 81 294.65 77.35 300.45 84.9
M 383.3 132.85
L 381.55 131.1 383.15 130.95 383 129.95 388.2 130.1 388.2 130.65 420.35 127.5 414.55 123 376.35 126.05 279.3 33.35 287.7 40.15 300.3 35.95 294.65 31.6 278 32.05 265.95 20.45 276.55 32.2 260.45 32.45 269.15 43.9 284.5 40.7 358.95 121.7 363.75 126.75 333 127.8 336.95 133 368.2 131.85 374 138.05 383.55 136.05 383.3 132.85
M 211.95 -31.7
L 211.95 -31.55 211.8 -31.55 56.8 21.9 59.1 26.1 185.85 -17.95 202.8 -23.9 208.3 -25.75 210.2 -26.5 210.9 -26.65 211.5 -26.35 213.95 -25.05 218.75 -22.3 236.7 -12.6 221.65 -26.5 211.95 -31.7 Z"/>

<path fill="#D4D4D4" stroke="none" d="
M 41 110.85
L 41.15 110.85 45.2 111.4 57.5 100.85 44.5 98.95 32.05 109.4 41 110.85
M 150.65 7.85
L 159.35 0.9 27.95 96.65 -17.1 88.95 -33.15 97.35 19.3 107.5 19.4 107.5 150.65 7.85
M 207.15 43.35
L 203.95 42.45 195.85 125.15 201.95 125.45 207.15 43.35
M 453.4 112.15
Q 456 110.55 455.4 106.75
L 303.05 23.65 301.45 25.2 441.35 102.7 442.1 103.3 442.4 103.75 442.65 104
Q 444.85 106.65 442.1 109.1
L 437.9 111.7 430.95 113.85 407.35 117.5 414.55 123 438.45 118.8 445.7 116.5
Q 451.05 114.75 453.4 112.15
M 333 127.8
L 329.4 123 320.7 123 296.1 86.2 300.45 84.9 294.65 77.35 289.4 76.35 266.8 44.35 238.15 50.15 263.2 127.8 333 127.8
M 236.7 -12.6
L 246.7 -4.9 295.5 22.05 296.95 20.45 236.7 -12.6
M 219.45 -19.25
L 221.65 -18.5 218.75 -22.3 213.95 -25.05 232.95 34.05 258.4 32.6 257.55 31.3 256.95 30.75 221.2 -16.65 223.1 -15.75 218.45 -19.4 219.45 -19.25
M 210.2 -26.5
L 208.3 -25.75 161.35 51.15 164.55 52.75 160.35 52.9 147.05 74.75 132.7 108.1 127.05 107.8 119.65 119.8 183.95 124.45 199.75 40.15 185.55 37.4 184.1 36.8 200.2 35.95 208.9 -8.4 204.85 35.8 207.75 35.65 211.5 -25.9 211.05 -26.35 210.9 -26.65 210.2 -26.5 Z"/>

<path fill="#910700" stroke="none" d="
M 0.75 33.35
L 9.85 37.95 16.1 41.15 26.65 46.5 30.6 48.7 37.7 45.2 34.65 43.5 25.35 37.85 19.7 34.5 9.7 28.7 0.75 33.35
M 52 12.75
L 42 16.55 48.25 24.8 51.3 28.85 55.95 35.2 57.8 37.55 64.35 35.8 62.6 32.6 59.1 26.1 56.8 21.9 52 12.75
M 207.75 35.65
L 207.15 43.35 235.1 50.7 238.15 50.15 232.95 34.05 207.75 35.65
M 329.4 123
L 358.95 121.7 284.5 40.7 269.15 43.9 294.65 77.35 312.9 81 300.45 84.9 329.4 123
M 381.85 119.8
L 382.25 119.8 407.35 117.5 300.3 35.95 287.7 40.15 381.85 119.8
M 222.8 -18.25
L 221.65 -18.5 260.45 32.45 276.55 32.2 265.95 20.45 278 32.05 294.65 31.6 246.7 -4.9 222.8 -18.25 Z"/>

<path fill="#EC0000" stroke="none" d="
M 57.8 37.55
L 55.95 35.2 34.65 43.5 37.7 45.2 30.6 48.7 26.65 46.5 -50.1 76.2
Q -49.8 82.15 -17.1 88.95
L 165.15 -6.95 62.6 32.6 64.35 35.8 57.8 37.55
M 199.2 -20.25
L 198 -19.7 57.5 100.85 127.05 107.8 147.05 74.75 154.55 58.85 137.6 53.2 160.35 52.9 161.35 51.15 145.45 43.35
Q 143.85 42.45 141.8 41.45
L 147.6 40.85 162.4 40.7 198.15 -17.95 198.75 -19.55 199.2 -19.95 199.2 -20.25 Z"/>

<path fill="#06B174" stroke="none" d="
M 161.35 51.15
L 160.35 52.9 164.55 52.75 161.35 51.15 Z"/>

<path fill="#9C9C9C" stroke="none" d="
M 159.95 0.9
L 150.65 7.85 19.4 107.5 13.65 111.85 9.55 115.15 21.75 118.2 21.9 118.2 26.8 113.85 32.05 109.4 44.5 98.95 159.95 0.9
M 207.15 43.35
L 207.75 35.65 204.85 35.8 208.9 -8.4 200.2 35.95 184.1 36.8 185.55 37.4 199.75 40.15 200.35 37.1 204.55 36.95 204.1 41 199.75 40.15 183.95 124.45 182.95 129.65 181.8 135.45 194.7 137.65 195.25 130.4 195.85 125.15 203.95 42.45 207.15 43.35
M 300.45 84.9
L 296.1 86.2 320.7 123 329.4 123 300.45 84.9
M 269.15 43.9
L 266.8 44.35 289.4 76.35 294.65 77.35 269.15 43.9
M 262.35 37.7
L 258.4 32.6 232.95 34.05 238.15 50.15 266.8 44.35 264.5 40.85 263.8 40 262.35 37.7
M 442.1 103.3
L 441.35 102.7 301.45 25.2 296.65 29.55 291.3 27.1 295.5 22.05 246.7 -4.9 294.65 31.6 306.5 31.15
Q 311.45 31 308.95 32.75
L 308.25 33.2 300.3 35.95 407.35 117.5 430.95 113.85 437.9 111.7 442.1 109.1
Q 444.85 106.65 442.65 104
L 442.4 103.75 442.1 103.3
M 221.65 -18.5
L 219.45 -19.25 218.45 -19.4 223.1 -15.75 221.2 -16.65 256.95 30.75 257.55 31.3 258.4 32.6 260.45 32.45 221.65 -18.5 Z"/>

<path fill="#838383" stroke="none" d="
M 204.1 41
L 204.55 36.95 200.35 37.1 199.75 40.15 204.1 41
M 260.45 32.45
L 258.4 32.6 262.35 37.7 263.8 40 264.5 40.85 266.8 44.35 269.15 43.9 260.45 32.45
M 294.65 31.6
L 300.3 35.95 308.25 33.2 308.95 32.75
Q 311.45 31 306.5 31.15
L 294.65 31.6 Z"/>

<path fill="#000000" stroke="none" d="
M 400.8 200.8
L 401.55 200.35
Q 401.55 198.9 400.1 197.3
L 400.8 200.8
M 387.9 194.85
L 388.2 195.15 386.9 195.85 384 198.15 383.3 198.9 384.15 200.05
Q 385.9 201.8 388.5 201.5
L 390.65 200.65
Q 391.85 199.5 392.4 196.7
L 393.25 200.2 397.35 194.85 394 192.65 393.7 189.05 387.9 194.85
M 392.85 171.8
Q 390.4 171.25 388.8 172.95 387.35 174.4 387.35 181.5 387.75 178.05 389.2 177.3 390.5 176.75 390.8 179.2
L 394 176.9 394 176.75
Q 395.15 172.25 392.85 171.8
M 386.75 156.75
L 385.15 156.75 384 156.9 380.95 157.6
Q 379.65 158.35 379.35 159.35
L 379.1 161.8 379.2 162.1 380.4 168.35 376.6 170.2 375.9 170.65 375 171.5 376.2 171.95 377.35 172.1 381.25 172.1
Q 382.25 175 382.85 182.8
L 382.85 184.55 386.2 182.25 386.2 172.95 386.05 171.4 391.25 170.5
Q 394.7 169.8 394.85 168.2 394.85 166.3 391.95 163.7
L 391.7 163.4 389.2 161.65 387.9 161.4 387.9 162.4 388.5 164.15
Q 388.8 165.45 387.05 166
L 386.9 166 386.05 166.3 385.9 162.4 386.2 160.95 387.75 158.75
Q 388.95 157.35 386.75 156.75 Z"/>

<path fill="#333333" stroke="none" d="
M 390.8 179.2
L 390.95 181.25
Q 390.95 186.15 389.2 191.05
L 388.2 191.05 388.05 190.95
Q 385 190.95 385 191.8
L 387.9 194.85 393.7 189.05 393.4 186.3
Q 392.85 181.25 394 176.9
L 390.8 179.2
M 382.85 184.55
Q 383 191.05 380.4 196.3
L 384.45 192.8 386.2 184.4 386.2 182.25 382.85 184.55
M 382.4 197.45
L 382.85 197.6 384 198.15 386.9 195.85 384.75 195.7
Q 382 195.15 382.25 196.7
L 382.4 197.45 Z"/>

<path fill="#515151" stroke="none" d="
M 382.85 197.6
L 382.4 197.45 383.3 198.9 384 198.15 382.85 197.6 Z"/>

<path fill="#F09100" stroke="none" d="
M 138.35 262.9
L 149.8 262.75 168.75 260.15
Q 178.75 258.45 188.45 255.25
L 210.9 247
Q 220.9 242.65 230.45 237.55
L 264.2 215.55 262.35 198.45 244.25 214.55
Q 226 229 207.6 239.3 198 244.5 188.45 248.7 163.7 259.45 138.35 262.9 Z"/>

<path fill="#CB7B00" stroke="none" d="
M 283.65 196.85
Q 291 188.2 297.25 178.9
L 305.2 165.85 297.1 145.45 293.5 155.15
Q 289.15 164.3 283.2 173.4 274.2 186.6 262.35 198.45
L 264.2 215.55 283.65 196.85
M 329.55 171.25
L 349.4 158.05 343.15 152.7 320.15 153.7 329.55 171.25 Z"/>

<path fill="#009366" stroke="none" d="
M 211.5 -26.35
L 210.9 -26.65 211.05 -26.35 211.5 -25.9 211.5 -26.35 Z"/>

<path fill="#C4C4C4" stroke="none" d="
M 165.15 -6.95
L 198 -19.7 202.8 -23.9 185.85 -17.95 165.15 -6.95 Z"/>
</g>

<path id="Sprite_sprite_27_0_Layer1_0_1_STROKES" stroke="#12121C" stroke-width="14.25" stroke-linejoin="round" stroke-linecap="round" fill="none" d="
M 388.3 135.4
L 388.2 130.65 420.35 127.5 442.1 123.3 444.25 122.7
Q 455 119.5 460.05 115.6 465.1 111.55 464.95 108.35 464.85 106.35 462.2 104.9
L 306.8 20 315.2 12.2 308.55 6.4 300.15 16.4 211.95 -31.7 211.95 -31.55 211.8 -31.55 56.8 21.9 52 12.75 42 16.55 48.25 24.8 19.7 34.5 9.7 28.7 0.75 33.35 9.85 37.95 -67.5 64.6
Q -79.8 68.8 -82.55 70.85 -85.45 72.45 -85.3 74.35
L -85 77.5
Q -85.3685546875 86.75546875 -60.85 95.15
M -42.45 100.5
L -37.5 101.85 -37.35 101.85 -11.7 107.5 -11.775 109.575
M -8 110.7
L -8.1 108.1 7.85 111.1 8 111.1 13.65 111.85 9.55 115.15 21.75 118.2 21.9 118.2 26.8 113.85 30.7 114.45 33.025 122.875
M 50.025 127.925
L 50.4 124.9 50.3 125 50.85 118.8 50.85 118.65 51 117.5 51.15 117.65 51.15 117.2 116.75 124.75 182.95 129.65 181.8 135.45 194.7 137.65 195.25 130.4 264.8 133.15 293.5 133.15 293.5 139.775
M 328.4 136.05
L 326.5 133 368.2 131.85 372.225 136.15
M 388.3 135.4
L 388.65 150.35 388.8 147.9 403.55 148.35 411.1 228.3 398.2 217.15 393.25 218.3 384 211.2 368.2 229.15 367.65 146.3 384.75 147.6 383.55 136.05 374 138.05 372.225 136.15
M 383.15 130.95
L 383.3 132.85 381.55 131.1 383.15 130.95 Z
M 293.5 141.325
L 293.5 142.55 293.2 143.3 293.2 143.7 289 154.55
Q 284.8 163.25 278.85 172.25
L 273.8 179.2
Q 267.1 188.2 258.85 196.6 250.75 204.85 241.05 212.35 224.65 225.4 208.15 234.95 198.3 240.75 188.45 245.1 171.2 253.2 153.55 257.55
L 137.75 260.9
Q 96.05 264.5 69.85 239.6
L 69.7 239.45
Q 74.2 251.75 86.8 258.7 99.4 265.65 117.5 267.1
L 146 268.3 174.1 264.65 190.2 260.45 212.8 252.05 212.95 252.05
Q 223.1 247.7 232.95 242.5
L 233.05 242.5 252.75 230.45 252.75 230.6
Q 260.45 225.55 267.55 219.9
L 271.3 216.7 271.45 216.7 287.4 200.65
Q 295.05 191.95 301.45 182.4
L 309.7 168.9 309.7 168.75 315.65 157.05 315.65 156.75 315.95 156.75 325.35 174.4
Q 326.05 180.35 333.15 175.45
L 352.7 162.1
Q 356.65 158.05 352.7 156
L 346.35 150.5
Q 341.25 146.45 335.65 142.1
L 335.75 142.1 329.55 137.65 329.4 137.65 328.4 136.05
M 293.5 139.775
L 293.5 141.325
M 33.025 122.875
L 45.2 167.2 50.025 127.925
M -11.775 109.575
L -12.15 121.55 -27.35 122.15 -28.1 122.85 -33.9 201.05 -21 190.05 -15.9 191.35 -8.7 183.4 8 202.25 8.4 119.1 -7.65 120.7 -8 110.7
M -60.85 95.15
Q -55.430859375 96.9908203125 -48.8 98.8
L -42.45 100.5"/>

<path id="Sprite_sprite_27_0_Layer1_0_2_STROKES" stroke="#000000" stroke-width="1" stroke-linejoin="round" stroke-linecap="round" fill="none" d="
M -42.45 100.5
L -60.85 95.15"/>
</defs>

<g transform="matrix( -0.1782989501953125, -0.0241241455078125, -0.0241241455078125, 0.1782989501953125, 89.35,16.85) ">
<g transform="matrix( 1, 0, 0, 1, 0,0) ">
<use xlink:href="#Sprite_sprite_27_0_Layer1_0_FILL"/>

<use xlink:href="#Sprite_sprite_27_0_Layer1_0_1_STROKES"/>

<use xlink:href="#Sprite_sprite_27_0_Layer1_0_2_STROKES"/>
</g>

<g transform="matrix( 1, 0, 0, 1, 0,0) ">
<use xlink:href="#Sprite_sprite_27_0_Layer0_0_FILL"/>
</g>
</g>
</svg>
