
<svg xmlns="http://www.w3.org/2000/svg" version="1.1" xmlns:xlink="http://www.w3.org/1999/xlink" preserveAspectRatio="none" x="0px" y="0px" width="73px" height="48px" viewBox="0 0 73 48">
<defs>
<g id="_____________________________________250_________0_Layer1_0_FILL">
<path fill="#1E2B5B" stroke="none" d="
M 83.75 129.5
L 83.95 129.35 83.85 129.35 83.75 129.5 Z"/>

<path fill="#24448E" stroke="none" d="
M 84.1 115.8
Q 83.85 115.95 94.5 119.15
L 82.65 104.1 74 105.15 84.1 115.8
M 96.55 106.2
Q 96.95 112.7 94.8 119.2
L 103.2 121.65
Q 78.3 120.6 59.2 124.05 77.2 123.1 109.4 125.25
L 110.9 125.35 96.55 106.2
M 79.35 99.9
L 78.75 99.1 74 99.85 79.35 99.9
M 199.35 100.7
Q 198.25 100.25 197.05 99.95
L 196.65 99.85
Q 192.7 98.75 187.65 97.85 189.55 98.75 189.95 100.5
L 195.4 101.45
Q 191.85 101.8 190.05 102.35 190.15 103.85 190.15 105.45 191.65 106.35 194.45 107.35
L 190.15 107 190.05 111 195.55 111.35
Q 195.65 116.65 189.4 119.7
L 189.3 120.5
Q 188.8 124.1 184.95 124.35 159.2 125.15 132.55 124.65
L 132.6 126.75 139.7 127.3 140.55 127.3
Q 180.65 127.95 198.05 126.75
L 199.25 126.7 199.35 100.7 Z"/>

<path fill="#172F66" stroke="none" d="
M 140.55 127.3
L 139.7 127.3 132.6 126.75 132.65 127.65 139.7 127.55 140.9 127.4 140.55 127.3
M 63.25 103.55
L 62.35 103.85
Q 57.9 104.8 53.75 106
L 51.95 106.7
Q 48.25 107.8 44.75 109.3 44.5 109.3 44.2 109.5
L 43.8 109.75 40.1 111.35 41.6 116.8 42.7 116.8 43.65 116.65
Q 47.35 116.45 51.5 116.55 63.1 116.9 79.85 119.8 63.8 119.4 51.5 119.8
L 40.2 120.6
Q 37.15 122.1 39 125.45 41.15 125.35 43.25 125.45 47.05 125.35 51.4 125.45
L 112.45 127.5 110.9 125.35 109.4 125.25
Q 77.2 123.1 59.2 124.05 78.3 120.6 103.2 121.65
L 94.8 119.2 94.7 119.4 94.5 119.15
Q 83.85 115.95 84.1 115.8
L 74 105.15 82.65 104.1 79.35 99.9 74 99.85 78.75 99.1 75.9 95.45 51.5 99.35
Q 45.6 100.35 44.1 101.05
L 43.45 101.15
Q 43.25 101.35 42.9 101.45 42.7 101.45 40.75 102.55
L 40.3 103.3 40.2 103.4 39.65 105.6 44 104.6
Q 47.7 103.65 51.7 103.4
L 52.05 103.4 66.15 102.3 68.35 102.45 68.75 102.55 63.25 103.55
M 125.7 92.3
L 125.95 92.95 126.35 92.95 125.7 92.3
M 178.65 94.45
L 179.05 96.1 186.95 97.55 187.65 97.85
Q 192.7 98.75 196.65 99.85
L 197.05 99.95
Q 198.25 100.25 199.35 100.7
L 199.35 99.3
Q 199.45 99.1 199.35 98.95
L 197.2 98.45
Q 188.9 96.25 180.35 94.6
L 178.65 94.45
M 171.45 94.95
L 169.95 93.55 142.85 92 135.2 92 135.45 92.8
Q 154.55 92.7 171.45 94.95 Z"/>

<path fill="#989898" stroke="none" d="
M 154.9 110.6
Q 155.45 109.75 154 108.75 152.2 107.95 150.6 110.5 147 116.3 153.45 117.35 162.35 118.8 163.15 110.7 163.5 107.15 160.9 105.4 154.65 101.35 147.65 104.6 148.15 106.45 148.5 108.1 150.4 105.9 154.8 106.65 160.25 107.6 158.55 112.15
L 158.15 112.65
Q 156.05 114.45 153.2 114.35
L 151.6 111.9 153.8 111.35 154.35 111.1 154.6 110.9 154.9 110.6
M 162.7 100.25
Q 169.55 104.05 173.4 110.3 171.9 103.45 171.9 96.7 158.6 94.95 143.85 94.8
L 145.1 97.6 147.45 99.9
Q 154.45 95.65 162.7 100.25
M 177.05 122.15
L 175.7 118.45
Q 164.95 120.4 154 119.6 150.1 119.55 148.4 117.35 146.85 121.5 141.7 122.3 159.6 122.55 177.05 122.15
M 167.4 108.15
L 167.65 109.8
Q 168 112.35 167.35 114.9
L 166.85 116.5 173.7 115.65
Q 170.85 111.25 167.4 108.15 Z"/>

<path fill="#131F4A" stroke="none" d="
M 51.4 125.45
Q 47.05 125.35 43.25 125.45 41.15 125.35 39 125.45
L 38.9 125.8 48.1 127.3
Q 57.7 128.65 79.85 129.35
L 83.85 129.35 83.95 129.35 113.7 129.1 112.45 127.5 51.4 125.45
M 199.25 126.7
L 198.05 126.75
Q 180.65 127.95 140.55 127.3
L 140.9 127.4 139.7 127.55 132.65 127.65 132.65 128.8 199.25 128.1 199.25 126.7 Z"/>

<path fill="#0D1E43" stroke="none" d="
M 43.65 116.65
L 42.7 116.8 41.6 116.8 39.25 117.1
Q 38.45 117.1 38.15 117.35
L 37.35 118.1 38 119.25 40.2 120.6 51.5 119.8
Q 63.8 119.4 79.85 119.8 63.1 116.9 51.5 116.55 47.35 116.45 43.65 116.65
M 62.35 103.85
L 63.25 103.55 68.75 102.55 68.35 102.45 66.15 102.3 52.05 103.4 51.7 103.4
Q 47.7 103.65 44 104.6
L 39.65 105.6
Q 40.1 106.15 40.65 106.55
L 41.9 107.85 40.85 109.2 40.1 111.35 43.8 109.75 44.2 109.5
Q 44.5 109.3 44.75 109.3 48.25 107.8 51.95 106.7
L 53.75 106
Q 57.9 104.8 62.35 103.85 Z"/>

<path fill="#0C233F" stroke="none" d="
M 75.9 95.45
L 74.45 93.6 38 100.5
Q 35.2 103.55 36.75 108.4
L 35.95 109.95
Q 35.5 110.8 35.75 112.35
L 36.2 113.75
Q 34.65 115.7 34.45 117.85 34.3 119.7 35.1 121.15
L 35.1 121.35
Q 33.75 123.55 34.75 126 34.8 126.95 35.75 127.8 46.5 130.85 75.95 132.35 97.4 133.3 117 133.55
L 113.7 129.1 83.95 129.35 83.75 129.5 83.85 129.35 79.85 129.35
Q 57.7 128.65 48.1 127.3
L 38.9 125.8 39 125.45
Q 37.15 122.1 40.2 120.6
L 38 119.25 37.35 118.1 38.15 117.35
Q 38.45 117.1 39.25 117.1
L 41.6 116.8 40.1 111.35 40.85 109.2 41.9 107.85 40.65 106.55
Q 40.1 106.15 39.65 105.6
L 40.2 103.4 40.3 103.3 40.75 102.55
Q 42.7 101.45 42.9 101.45 43.25 101.35 43.45 101.15
L 44.1 101.05
Q 45.6 100.35 51.5 99.35
L 75.9 95.45
M 178.65 94.45
L 180.35 94.6
Q 188.9 96.25 197.2 98.45
L 199.35 98.95
Q 199.45 99.1 199.35 99.3
L 199.35 100.7 199.25 126.7 199.25 128.1 132.65 128.8 132.6 133.6
Q 171.35 133.55 202.5 130.6
L 202.6 101.35
Q 203.3 99.3 202.6 98
L 202.35 98.3
Q 194 94.6 182.35 92.45
L 177.65 91.65
Q 178.25 92.95 178.65 94.45
M 169.95 93.55
Q 168.05 91.85 166 90.35 151.8 89.15 134.05 89.7 134.7 90.75 135.2 92
L 142.85 92 169.95 93.55 Z"/>

<path fill="#858585" stroke="none" d="
M 143.75 96.5
L 145.1 97.6 143.85 94.8 136.05 94.8
Q 136.85 98.2 136.95 102.75
L 136 101.85
Q 137.85 113.8 132.15 118.8
L 132.4 122.15 141.7 122.3
Q 146.85 121.5 148.4 117.35 146.9 115.45 147.2 111.9 147.35 109.4 148.5 108.1 148.15 106.45 147.65 104.6
L 146.75 105.05 141.05 95.7 141.75 95.75
Q 142.8 95.85 143.75 96.5
M 179.55 97.85
L 179.35 97.8
Q 179.75 101.05 179.4 105.05 176.7 100.6 173.35 96.9
L 171.9 96.7
Q 171.9 103.45 173.4 110.3 175.6 113.85 176.85 118.2
L 175.7 118.45 177.05 122.15 183.65 122 184.55 121.85 183.55 119.15 182.9 119.25
Q 181.85 119.25 181.15 118.25 180.35 117.2 180.35 115.7 180.35 114.25 181.15 113.2
L 181.6 112.7
Q 179.7 105.2 179.55 97.85 Z"/>

<path fill="#5D5D5D" stroke="none" d="
M 128.55 95
L 126.75 95.1
Q 130.95 106.25 132.15 118.8 137.85 113.8 136 101.85
L 128.55 95
M 185.45 98.9
L 179.55 97.85
Q 179.7 105.2 181.6 112.7 182.2 112.15 182.9 112.15 183.9 112.15 184.65 113.2 185.4 114.25 185.4 115.7 185.4 117.2 184.65 118.25 184.2 118.9 183.55 119.15
L 184.55 121.85
Q 187.15 121.3 187.5 118.65 188.6 110.65 188.2 102.65 188.4 99.9 185.45 98.9
M 185.7 101.35
Q 186.35 102.2 186.35 103.45 186.35 104.7 185.7 105.55 185.1 106.45 184.2 106.45 183.25 106.45 182.6 105.55 181.95 104.7 181.95 103.45 181.95 102.2 182.6 101.35 183.25 100.45 184.2 100.45 185.1 100.45 185.7 101.35 Z"/>

<path fill="#2A2A2A" stroke="none" d="
M 125.95 92.95
L 126.75 95.1 128.55 95 126.35 92.95 125.95 92.95
M 171.9 96.7
L 173.35 96.9
Q 172.45 95.85 171.45 94.95 154.55 92.7 135.45 92.8
L 136.05 94.8 143.85 94.8
Q 158.6 94.95 171.9 96.7
M 179.35 97.8
L 179.55 97.85 185.45 98.9
Q 188.4 99.9 188.2 102.65 188.6 110.65 187.5 118.65 187.15 121.3 184.55 121.85
L 183.65 122 177.05 122.15
Q 159.6 122.55 141.7 122.3
L 132.4 122.15 132.55 124.65
Q 159.2 125.15 184.95 124.35 188.8 124.1 189.3 120.5
L 189.4 119.7
Q 189.9 115.15 190.05 111
L 190.15 107 190.15 105.45
Q 190.15 103.85 190.05 102.35
L 190.05 101.9
Q 190.1 101.15 189.95 100.5 189.55 98.75 187.65 97.85
L 186.95 97.55 179.05 96.1
Q 179.25 96.9 179.35 97.8 Z"/>

<path fill="#4F4F4F" stroke="none" d="
M 175.7 118.45
L 176.85 118.2
Q 175.6 113.85 173.4 110.3 169.55 104.05 162.7 100.25 154.45 95.65 147.45 99.9
L 145.1 97.6 143.75 96.5
Q 142.8 95.85 141.75 95.75
L 141.05 95.7 146.75 105.05 147.65 104.6
Q 154.65 101.35 160.9 105.4 163.5 107.15 163.15 110.7 162.35 118.8 153.45 117.35 147 116.3 150.6 110.5 152.2 107.95 154 108.75 155.45 109.75 154.9 110.6
L 154.6 110.9 154.35 111.1 153.8 111.35 151.6 111.9 153.2 114.35
Q 156.05 114.45 158.15 112.65
L 158.55 112.15
Q 160.25 107.6 154.8 106.65 150.4 105.9 148.5 108.1 147.35 109.4 147.2 111.9 146.9 115.45 148.4 117.35 150.1 119.55 154 119.6 164.95 120.4 175.7 118.45
M 167.65 109.8
L 167.4 108.15
Q 170.85 111.25 173.7 115.65
L 166.85 116.5 167.35 114.9
Q 168 112.35 167.65 109.8 Z"/>

<path fill="#305CC2" stroke="none" d="
M 190.05 111
Q 189.9 115.15 189.4 119.7 195.65 116.65 195.55 111.35
L 190.05 111
M 190.15 105.45
L 190.15 107 194.45 107.35
Q 191.65 106.35 190.15 105.45
M 189.95 100.5
Q 190.1 101.15 190.05 101.9
L 190.05 102.35
Q 191.85 101.8 195.4 101.45
L 189.95 100.5 Z"/>

<path fill="#707070" stroke="none" d="
M 182.9 119.25
L 183.55 119.15
Q 182.4 115.9 181.6 112.7
L 181.15 113.2
Q 180.35 114.25 180.35 115.7 180.35 117.2 181.15 118.25 181.85 119.25 182.9 119.25 Z"/>

<path fill="#383838" stroke="none" d="
M 185.4 115.7
Q 185.4 114.25 184.65 113.2 183.9 112.15 182.9 112.15 182.2 112.15 181.6 112.7 182.4 115.9 183.55 119.15 184.2 118.9 184.65 118.25 185.4 117.2 185.4 115.7 Z"/>

<path fill="#232323" stroke="none" d="
M 186.35 103.45
Q 186.35 102.2 185.7 101.35 185.1 100.45 184.2 100.45 183.25 100.45 182.6 101.35 181.95 102.2 181.95 103.45 181.95 104.7 182.6 105.55 183.25 106.45 184.2 106.45 185.1 106.45 185.7 105.55 186.35 104.7 186.35 103.45 Z"/>

<path fill="#804A09" stroke="none" d="
M 169.95 93.55
L 171.45 94.95
Q 172.45 95.85 173.35 96.9 176.7 100.6 179.4 105.05 179.75 101.05 179.35 97.8 179.25 96.9 179.05 96.1
L 178.65 94.45
Q 178.25 92.95 177.65 91.65
L 182.35 92.45
Q 194 94.6 202.35 98.3
L 202.6 98 208 90.95 233.2 135.3
Q 232.9 101.25 217.3 71.7 213.2 63.9 205.6 68.65 196.75 70.8 188.4 75.35 200.55 56.3 229 38.55 184 41.2 161.2 46.7 171.2 21.7 196.75 0 146.65 5.35 113.65 32
L 121.1 16.4 121.3 4.85 97.55 37.2
Q 95.85 26.25 88.3 15.25 83.95 33.3 76.05 48.85
L 59.05 30.4 67.2 46.35 57.25 39.15 61.35 49.1
Q 40.15 30.3 10 25
L 40.4 78.55
Q 20.2 72.35 0 79.45
L 25.35 95.4
Q 16.15 104 17.2 117.65
L 38 100.5 74.45 93.6 75.9 95.45 78.75 99.1 79.35 99.9 82.65 104.1 94.5 119.15 94.7 119.4 94.8 119.2
Q 96.95 112.7 96.55 106.2
L 110.9 125.35 112.45 127.5 113.7 129.1 117 133.55 130.6 151.7
Q 132.25 142.35 132.6 133.6
L 132.65 128.8 132.65 127.65 132.6 126.75 132.55 124.65 132.4 122.15 132.15 118.8
Q 130.95 106.25 126.75 95.1
L 125.95 92.95 125.7 92.3 126.35 92.95 128.55 95 136 101.85 136.95 102.75
Q 136.85 98.2 136.05 94.8
L 135.45 92.8 135.2 92
Q 134.7 90.75 134.05 89.7 151.8 89.15 166 90.35 168.05 91.85 169.95 93.55
M 170.5 7.7
Q 178.05 5.4 186.2 3.45 162.15 27.05 149.5 52.4 162.85 48.4 179.85 45.75 167 49.95 159.35 54.25 155.9 56.2 153.45 58.15 162.5 53.85 174.5 50.05 185.6 46.45 199.3 43.25
L 199 43.25 218.1 41.65
Q 197.2 53.6 180.85 79.85 194.2 74.1 212.5 69.75 224.4 90.15 230.8 126.25 230.75 126.15 230.7 126.05 218.6 102 206.5 83.85
L 201.8 94.7
Q 197.9 93.45 193.9 92.45
L 187.85 90.95 191.7 83.9 192.6 82.25 190.45 84.95 186 90.5 184.55 90.2 175.5 88.5 174.95 88.45
Q 175.9 88.95 176.9 91.1
L 177.65 94.45 177.65 97.9 177.4 97.95 174.25 93.25
Q 172.1 90.05 171.3 88.15
L 172.9 88.1 168.95 87.55 150.75 86.25
Q 141.3 86 131.7 86.8
L 131.95 87.2 132.4 88.15
Q 133.15 89.75 133.55 92
L 134.05 96.6 121.9 85.2 124.7 95.2
Q 127.75 107.4 128.9 120.8
L 129.55 133.6
Q 129.65 139.05 129.45 144.7
L 94.85 99.25 94.25 98.4 93.55 112.15 78.1 92.9 81.05 89.45 64.45 92.55 54.85 94.35 36.6 97.7 21.25 110.45 20.3 111.25
Q 20.2 101 29.45 94.15
L 5.2 80.3
Q 24.7 75.85 45.05 82
L 44.7 81.1
Q 34.3 55.1 16.5 29.15 22.3 31 27.75 33.15
L 42.45 46.25 28.8 33.55
Q 51.4 42.55 67.2 56.65
L 62.95 46.15 71 53 70.05 45.85 77.3 54.4 89.55 21.35
Q 94.85 33.1 95.3 45.65 104.45 29.75 118.25 13.9
L 108.5 38.55
Q 111.8 35.85 115.4 33.35 119.15 30.75 123.35 28.15
L 121.5 30.1
Q 118.2 33.7 115.9 37.45
L 135.6 21.35 135.55 21.35
Q 145.85 16.2 157.6 11.95
L 157.5 12
Q 134.85 24.8 120.35 44.3 137.95 24.3 170.5 7.7 Z"/>

<path fill="#FFB80B" stroke="none" d="
M 129.45 144.7
Q 127 139.15 124.35 133.6
L 115.05 115.3
Q 111.9 109.4 108.55 103.6
L 94.25 80.2 94.85 99.25 129.45 144.7
M 153.45 58.15
Q 155.9 56.2 159.35 54.25 138.05 61.8 121.55 72.05 126.15 76.8 131.7 86.8 141.3 86 150.75 86.25 154.55 76 166.7 65.7 147.25 74.8 137.35 83.85 148.3 64.55 174.5 50.05 162.5 53.85 153.45 58.15
M 176.9 91.1
Q 175.9 88.95 174.95 88.45
L 174.85 88.35 172.9 88.1 171.3 88.15
Q 172.1 90.05 174.25 93.25
L 177.4 97.95 177.65 97.9 177.65 94.45 176.9 91.1 Z"/>

<path fill="#CD7000" stroke="none" d="
M 63.5 78.65
L 61.1 86.45
Q 55.35 71.25 43.6 56.8
L 51.4 78.1 28.3 43.15 54.85 94.35 64.45 92.55
Q 66.55 85.55 63.5 78.65
M 44.7 81.1
L 45.05 82
Q 24.7 75.85 5.2 80.3 24.85 81.05 51.15 90.75
L 44.7 81.1
M 37.5 92
L 29.45 94.15
Q 20.2 101 20.3 111.25
L 21.25 110.45
Q 26.45 100.8 37.5 92 Z"/>

<path fill="#EC9B00" stroke="none" d="
M 5.2 80.3
L 29.45 94.15 37.5 92
Q 26.45 100.8 21.25 110.45
L 36.6 97.7 54.85 94.35 28.3 43.15 51.4 78.1 43.6 56.8
Q 55.35 71.25 61.1 86.45
L 63.5 78.65
Q 66.55 85.55 64.45 92.55
L 81.05 89.45 78.1 92.9 93.55 112.15 80.85 80.5 73.55 88.1
Q 73.75 69.5 49.35 47.95 58 60.05 62.35 74.35 40.4 46.8 16.5 29.15 34.3 55.1 44.7 81.1
L 51.15 90.75
Q 24.85 81.05 5.2 80.3 Z"/>

<path fill="#F5BC00" stroke="none" d="
M 95.3 45.65
Q 94.85 33.1 89.55 21.35 92.1 37.7 88.4 57.15
L 95.3 45.65
M 115.4 33.35
Q 111.8 35.85 108.5 38.55
L 118.25 13.9
Q 107.35 31.25 100 48.65 104.55 41.2 115.4 33.35
M 135.55 21.35
L 135.6 21.35 115.9 37.45
Q 118.2 33.7 121.5 30.1 102.95 44.15 98.35 59.75 104.55 50.55 112.6 41.55 106.6 53 104.45 64.45 125.8 25.35 157.5 12
L 157.6 11.95
Q 145.85 16.2 135.55 21.35
M 144.95 35.8
L 159.35 15.85
Q 128.9 44.25 125.8 61.8
L 125.75 61.85 126.05 61.7
Q 131.9 50.45 144.5 39.25
L 137.35 54.45 147 44.5 142.1 54.85 149.5 52.4
Q 162.15 27.05 186.2 3.45 162.8 16 144.95 35.8
M 193.9 92.45
Q 197.9 93.45 201.8 94.7
L 206.5 83.85
Q 218.6 102 230.7 126.05
L 229.05 120.95
Q 218.75 89.75 214.1 81.55
L 214.65 88.25
Q 211.85 83.05 208.8 78.1
L 193.9 92.45
M 167.55 84.4
L 180.85 79.85
Q 197.2 53.6 218.1 41.65 197.55 48.3 182.2 64.6
L 183.55 56.1
Q 174.85 67.4 167.55 84.4
M 174.95 88.45
L 175.5 88.5 184.55 90.2
Q 187.25 87.55 190.45 84.95
L 192.6 82.25 191.7 83.9
Q 196.1 80.35 201.5 76.85 182.1 81.8 168.95 87.55
L 172.9 88.1 174.85 88.35 174.95 88.45 Z"/>

<path fill="#FFDE10" stroke="none" d="
M 184.55 90.2
L 186 90.5 190.45 84.95
Q 187.25 87.55 184.55 90.2
M 199 43.25
L 199.3 43.25
Q 185.6 46.45 174.5 50.05 148.3 64.55 137.35 83.85 147.25 74.8 166.7 65.7 154.55 76 150.75 86.25
L 168.95 87.55
Q 182.1 81.8 201.5 76.85 196.1 80.35 191.7 83.9
L 187.85 90.95 193.9 92.45 208.8 78.1
Q 211.85 83.05 214.65 88.25
L 214.1 81.55
Q 218.75 89.75 229.05 120.95
L 230.7 126.05
Q 230.75 126.15 230.8 126.25 224.4 90.15 212.5 69.75 194.2 74.1 180.85 79.85
L 167.55 84.4
Q 174.85 67.4 183.55 56.1
L 182.2 64.6
Q 197.55 48.3 218.1 41.65
L 199 43.25
M 186.2 3.45
Q 178.05 5.4 170.5 7.7 137.95 24.3 120.35 44.3 134.85 24.8 157.5 12 125.8 25.35 104.45 64.45 106.6 53 112.6 41.55 104.55 50.55 98.35 59.75 102.95 44.15 121.5 30.1
L 123.35 28.15
Q 119.15 30.75 115.4 33.35 104.55 41.2 100 48.65 107.35 31.25 118.25 13.9 104.45 29.75 95.3 45.65
L 88.4 57.15
Q 92.1 37.7 89.55 21.35
L 77.3 54.4 70.05 45.85 71 53 62.95 46.15 67.2 56.65
Q 51.4 42.55 28.8 33.55
L 42.45 46.25 27.75 33.15
Q 22.3 31 16.5 29.15 40.4 46.8 62.35 74.35 58 60.05 49.35 47.95 73.75 69.5 73.55 88.1
L 80.85 80.5 93.55 112.15 94.25 98.4 94.85 99.25 94.25 80.2 108.55 103.6
Q 111.9 109.4 115.05 115.3
L 124.35 133.6
Q 127 139.15 129.45 144.7 129.65 139.05 129.55 133.6
L 128.9 120.8
Q 127.75 107.4 124.7 95.2
L 121.9 85.2 134.05 96.6 133.55 92
Q 133.15 89.75 132.4 88.15
L 131.95 87.2 131.7 86.8
Q 126.15 76.8 121.55 72.05 138.05 61.8 159.35 54.25 167 49.95 179.85 45.75 162.85 48.4 149.5 52.4
L 142.1 54.85 147 44.5 137.35 54.45 144.5 39.25
Q 131.9 50.45 126.05 61.7
L 125.75 61.85 125.8 61.8
Q 128.9 44.25 159.35 15.85
L 144.95 35.8
Q 162.8 16 186.2 3.45 Z"/>
</g>

<g id="_____________________________________250_________0_Layer0_0_FILL">
<path fill="#1E2B5B" stroke="none" d="
M 83.95 129.35
L 83.85 129.35 83.75 129.5 83.95 129.35 Z"/>

<path fill="#24448E" stroke="none" d="
M 84.1 115.8
Q 83.85 115.95 94.5 119.15
L 82.65 104.1 74 105.15 84.1 115.8
M 96.55 106.2
Q 96.95 112.7 94.8 119.2
L 103.2 121.65
Q 78.3 120.6 59.2 124.05 77.2 123.1 109.4 125.25
L 110.9 125.35 96.55 106.2
M 74 99.85
L 79.35 99.9 78.75 99.1 74 99.85
M 199.35 100.7
Q 198.25 100.25 197.05 99.95
L 196.65 99.85
Q 192.7 98.75 187.65 97.85 189.55 98.75 189.95 100.5
L 195.4 101.45
Q 191.85 101.8 190.05 102.35 190.15 103.85 190.15 105.45 191.65 106.35 194.45 107.35
L 190.15 107 190.05 111 195.55 111.35
Q 195.65 116.65 189.4 119.7
L 189.3 120.5
Q 188.8 124.1 184.95 124.35 159.2 125.15 132.55 124.65
L 132.6 126.75 139.7 127.3 140.55 127.3
Q 180.65 127.95 198.05 126.75
L 199.25 126.7 199.35 100.7 Z"/>

<path fill="#172F66" stroke="none" d="
M 139.7 127.55
L 140.9 127.4 140.55 127.3 139.7 127.3 132.6 126.75 132.65 127.65 139.7 127.55
M 79.35 99.9
L 74 99.85 78.75 99.1 75.9 95.45 51.5 99.35
Q 45.6 100.35 44.1 101.05
L 43.45 101.15
Q 43.25 101.35 42.9 101.45 42.7 101.45 40.75 102.55
L 40.3 103.3 40.2 103.4 39.65 105.6 44 104.6
Q 47.7 103.65 51.7 103.4
L 52.05 103.4 66.15 102.3 68.35 102.45 68.75 102.55 63.25 103.55 62.35 103.85
Q 57.9 104.8 53.75 106
L 51.95 106.7
Q 48.25 107.8 44.75 109.3 44.5 109.3 44.2 109.5
L 43.8 109.75 40.1 111.35 41.6 116.8 42.7 116.8 43.65 116.65
Q 47.35 116.45 51.5 116.55 63.1 116.9 79.85 119.8 63.8 119.4 51.5 119.8
L 40.2 120.6
Q 37.15 122.1 39 125.45 41.15 125.35 43.25 125.45 47.05 125.35 51.4 125.45
L 112.45 127.5 110.9 125.35 109.4 125.25
Q 77.2 123.1 59.2 124.05 78.3 120.6 103.2 121.65
L 94.8 119.2 94.7 119.4 94.5 119.15
Q 83.85 115.95 84.1 115.8
L 74 105.15 82.65 104.1 79.35 99.9
M 125.7 92.3
L 125.95 92.95 126.35 92.95 125.7 92.3
M 180.35 94.6
L 178.65 94.45 179.05 96.1 186.95 97.55 187.65 97.85
Q 192.7 98.75 196.65 99.85
L 197.05 99.95
Q 198.25 100.25 199.35 100.7
L 199.35 99.3
Q 199.45 99.1 199.35 98.95
L 197.2 98.45
Q 188.9 96.25 180.35 94.6
M 171.45 94.95
L 169.95 93.55 142.85 92 135.2 92 135.45 92.8
Q 154.55 92.7 171.45 94.95 Z"/>

<path fill="#989898" stroke="none" d="
M 154.9 110.6
Q 155.45 109.75 154 108.75 152.2 107.95 150.6 110.5 147 116.3 153.45 117.35 162.35 118.8 163.15 110.7 163.5 107.15 160.9 105.4 154.65 101.35 147.65 104.6 148.15 106.45 148.5 108.1 150.4 105.9 154.8 106.65 160.25 107.6 158.55 112.15
L 158.15 112.65
Q 156.05 114.45 153.2 114.35
L 151.6 111.9 153.8 111.35 154.35 111.1 154.6 110.9 154.9 110.6
M 162.7 100.25
Q 169.55 104.05 173.4 110.3 171.9 103.45 171.9 96.7 158.6 94.95 143.85 94.8
L 145.1 97.6 147.45 99.9
Q 154.45 95.65 162.7 100.25
M 167.4 108.15
L 167.65 109.8
Q 168 112.35 167.35 114.9
L 166.85 116.5 173.7 115.65
Q 170.85 111.25 167.4 108.15
M 177.05 122.15
L 175.7 118.45
Q 164.95 120.4 154 119.6 150.1 119.55 148.4 117.35 146.85 121.5 141.7 122.3 159.6 122.55 177.05 122.15 Z"/>

<path fill="#131F4A" stroke="none" d="
M 51.4 125.45
Q 47.05 125.35 43.25 125.45 41.15 125.35 39 125.45
L 38.9 125.8 48.1 127.3
Q 57.7 128.65 79.85 129.35
L 83.85 129.35 83.95 129.35 113.7 129.1 112.45 127.5 51.4 125.45
M 199.25 128.1
L 199.25 126.7 198.05 126.75
Q 180.65 127.95 140.55 127.3
L 140.9 127.4 139.7 127.55 132.65 127.65 132.65 128.8 199.25 128.1 Z"/>

<path fill="#0D1E43" stroke="none" d="
M 43.65 116.65
L 42.7 116.8 41.6 116.8 39.25 117.1
Q 38.45 117.1 38.15 117.35
L 37.35 118.1 38 119.25 40.2 120.6 51.5 119.8
Q 63.8 119.4 79.85 119.8 63.1 116.9 51.5 116.55 47.35 116.45 43.65 116.65
M 68.35 102.45
L 66.15 102.3 52.05 103.4 51.7 103.4
Q 47.7 103.65 44 104.6
L 39.65 105.6
Q 40.1 106.15 40.65 106.55
L 41.9 107.85 40.85 109.2 40.1 111.35 43.8 109.75 44.2 109.5
Q 44.5 109.3 44.75 109.3 48.25 107.8 51.95 106.7
L 53.75 106
Q 57.9 104.8 62.35 103.85
L 63.25 103.55 68.75 102.55 68.35 102.45 Z"/>

<path fill="#0C233F" stroke="none" d="
M 75.9 95.45
L 74.45 93.6 38 100.5
Q 35.2 103.55 36.75 108.4
L 35.95 109.95
Q 35.5 110.8 35.75 112.35
L 36.2 113.75
Q 34.65 115.7 34.45 117.85 34.3 119.7 35.1 121.15
L 35.1 121.35
Q 33.75 123.55 34.75 126 34.8 126.95 35.75 127.8 46.5 130.85 75.95 132.35 97.4 133.3 117 133.55
L 113.7 129.1 83.95 129.35 83.75 129.5 83.85 129.35 79.85 129.35
Q 57.7 128.65 48.1 127.3
L 38.9 125.8 39 125.45
Q 37.15 122.1 40.2 120.6
L 38 119.25 37.35 118.1 38.15 117.35
Q 38.45 117.1 39.25 117.1
L 41.6 116.8 40.1 111.35 40.85 109.2 41.9 107.85 40.65 106.55
Q 40.1 106.15 39.65 105.6
L 40.2 103.4 40.3 103.3 40.75 102.55
Q 42.7 101.45 42.9 101.45 43.25 101.35 43.45 101.15
L 44.1 101.05
Q 45.6 100.35 51.5 99.35
L 75.9 95.45
M 178.65 94.45
L 180.35 94.6
Q 188.9 96.25 197.2 98.45
L 199.35 98.95
Q 199.45 99.1 199.35 99.3
L 199.35 100.7 199.25 126.7 199.25 128.1 132.65 128.8 132.6 133.6
Q 171.35 133.55 202.5 130.6
L 202.6 101.35
Q 203.3 99.3 202.6 98
L 202.35 98.3
Q 194 94.6 182.35 92.45
L 177.65 91.65
Q 178.25 92.95 178.65 94.45
M 169.95 93.55
Q 168.05 91.85 166 90.35 151.8 89.15 134.05 89.7 134.7 90.75 135.2 92
L 142.85 92 169.95 93.55 Z"/>

<path fill="#858585" stroke="none" d="
M 145.1 97.6
L 143.85 94.8 136.05 94.8
Q 136.85 98.2 136.95 102.75
L 136 101.85
Q 137.85 113.8 132.15 118.8
L 132.4 122.15 141.7 122.3
Q 146.85 121.5 148.4 117.35 146.9 115.45 147.2 111.9 147.35 109.4 148.5 108.1 148.15 106.45 147.65 104.6
L 146.75 105.05 141.05 95.7 141.75 95.75
Q 142.8 95.85 143.75 96.5
L 145.1 97.6
M 179.55 97.85
L 179.35 97.8
Q 179.75 101.05 179.4 105.05 176.7 100.6 173.35 96.9
L 171.9 96.7
Q 171.9 103.45 173.4 110.3 175.6 113.85 176.85 118.2
L 175.7 118.45 177.05 122.15 183.65 122 184.55 121.85 183.55 119.15 182.9 119.25
Q 181.85 119.25 181.15 118.25 180.35 117.2 180.35 115.7 180.35 114.25 181.15 113.2
L 181.6 112.7
Q 179.7 105.2 179.55 97.85 Z"/>

<path fill="#5D5D5D" stroke="none" d="
M 128.55 95
L 126.75 95.1
Q 130.95 106.25 132.15 118.8 137.85 113.8 136 101.85
L 128.55 95
M 185.45 98.9
L 179.55 97.85
Q 179.7 105.2 181.6 112.7 182.2 112.15 182.9 112.15 183.9 112.15 184.65 113.2 185.4 114.25 185.4 115.7 185.4 117.2 184.65 118.25 184.2 118.9 183.55 119.15
L 184.55 121.85
Q 187.15 121.3 187.5 118.65 188.6 110.65 188.2 102.65 188.4 99.9 185.45 98.9
M 185.7 101.35
Q 186.35 102.2 186.35 103.45 186.35 104.7 185.7 105.55 185.1 106.45 184.2 106.45 183.25 106.45 182.6 105.55 181.95 104.7 181.95 103.45 181.95 102.2 182.6 101.35 183.25 100.45 184.2 100.45 185.1 100.45 185.7 101.35 Z"/>

<path fill="#2A2A2A" stroke="none" d="
M 126.75 95.1
L 128.55 95 126.35 92.95 125.95 92.95 126.75 95.1
M 173.35 96.9
Q 172.45 95.85 171.45 94.95 154.55 92.7 135.45 92.8
L 136.05 94.8 143.85 94.8
Q 158.6 94.95 171.9 96.7
L 173.35 96.9
M 179.05 96.1
Q 179.25 96.9 179.35 97.8
L 179.55 97.85 185.45 98.9
Q 188.4 99.9 188.2 102.65 188.6 110.65 187.5 118.65 187.15 121.3 184.55 121.85
L 183.65 122 177.05 122.15
Q 159.6 122.55 141.7 122.3
L 132.4 122.15 132.55 124.65
Q 159.2 125.15 184.95 124.35 188.8 124.1 189.3 120.5
L 189.4 119.7
Q 189.9 115.15 190.05 111
L 190.15 107 190.15 105.45
Q 190.15 103.85 190.05 102.35
L 190.05 101.9
Q 190.1 101.15 189.95 100.5 189.55 98.75 187.65 97.85
L 186.95 97.55 179.05 96.1 Z"/>

<path fill="#4F4F4F" stroke="none" d="
M 175.7 118.45
L 176.85 118.2
Q 175.6 113.85 173.4 110.3 169.55 104.05 162.7 100.25 154.45 95.65 147.45 99.9
L 145.1 97.6 143.75 96.5
Q 142.8 95.85 141.75 95.75
L 141.05 95.7 146.75 105.05 147.65 104.6
Q 154.65 101.35 160.9 105.4 163.5 107.15 163.15 110.7 162.35 118.8 153.45 117.35 147 116.3 150.6 110.5 152.2 107.95 154 108.75 155.45 109.75 154.9 110.6
L 154.6 110.9 154.35 111.1 153.8 111.35 151.6 111.9 153.2 114.35
Q 156.05 114.45 158.15 112.65
L 158.55 112.15
Q 160.25 107.6 154.8 106.65 150.4 105.9 148.5 108.1 147.35 109.4 147.2 111.9 146.9 115.45 148.4 117.35 150.1 119.55 154 119.6 164.95 120.4 175.7 118.45
M 167.65 109.8
L 167.4 108.15
Q 170.85 111.25 173.7 115.65
L 166.85 116.5 167.35 114.9
Q 168 112.35 167.65 109.8 Z"/>

<path fill="#305CC2" stroke="none" d="
M 189.4 119.7
Q 195.65 116.65 195.55 111.35
L 190.05 111
Q 189.9 115.15 189.4 119.7
M 190.15 105.45
L 190.15 107 194.45 107.35
Q 191.65 106.35 190.15 105.45
M 189.95 100.5
Q 190.1 101.15 190.05 101.9
L 190.05 102.35
Q 191.85 101.8 195.4 101.45
L 189.95 100.5 Z"/>

<path fill="#707070" stroke="none" d="
M 182.9 119.25
L 183.55 119.15
Q 182.4 115.9 181.6 112.7
L 181.15 113.2
Q 180.35 114.25 180.35 115.7 180.35 117.2 181.15 118.25 181.85 119.25 182.9 119.25 Z"/>

<path fill="#383838" stroke="none" d="
M 185.4 115.7
Q 185.4 114.25 184.65 113.2 183.9 112.15 182.9 112.15 182.2 112.15 181.6 112.7 182.4 115.9 183.55 119.15 184.2 118.9 184.65 118.25 185.4 117.2 185.4 115.7 Z"/>

<path fill="#232323" stroke="none" d="
M 186.35 103.45
Q 186.35 102.2 185.7 101.35 185.1 100.45 184.2 100.45 183.25 100.45 182.6 101.35 181.95 102.2 181.95 103.45 181.95 104.7 182.6 105.55 183.25 106.45 184.2 106.45 185.1 106.45 185.7 105.55 186.35 104.7 186.35 103.45 Z"/>

<path fill="#804A09" stroke="none" d="
M 166 90.35
Q 168.05 91.85 169.95 93.55
L 171.45 94.95
Q 172.45 95.85 173.35 96.9 176.7 100.6 179.4 105.05 179.75 101.05 179.35 97.8 179.25 96.9 179.05 96.1
L 178.65 94.45
Q 178.25 92.95 177.65 91.65
L 182.35 92.45
Q 194 94.6 202.35 98.3
L 202.6 98 208 90.95 233.2 135.3
Q 232.9 101.25 217.3 71.7 213.2 63.9 205.6 68.65 196.75 70.8 188.4 75.35 200.55 56.3 229 38.55 184 41.2 161.2 46.7 171.2 21.7 196.75 0 146.65 5.35 113.65 32
L 121.1 16.4 121.3 4.85 97.55 37.2
Q 95.85 26.25 88.3 15.25 83.95 33.3 76.05 48.85
L 59.05 30.4 67.2 46.35 57.25 39.15 61.35 49.1
Q 40.15 30.3 10 25
L 40.4 78.55
Q 20.2 72.35 0 79.45
L 25.35 95.4
Q 16.15 104 17.2 117.65
L 38 100.5 74.45 93.6 75.9 95.45 78.75 99.1 79.35 99.9 82.65 104.1 94.5 119.15 94.7 119.4 94.8 119.2
Q 96.95 112.7 96.55 106.2
L 110.9 125.35 112.45 127.5 113.7 129.1 117 133.55 130.6 151.7
Q 132.25 142.35 132.6 133.6
L 132.65 128.8 132.65 127.65 132.6 126.75 132.55 124.65 132.4 122.15 132.15 118.8
Q 130.95 106.25 126.75 95.1
L 125.95 92.95 125.7 92.3 126.35 92.95 128.55 95 136 101.85 136.95 102.75
Q 136.85 98.2 136.05 94.8
L 135.45 92.8 135.2 92
Q 134.7 90.75 134.05 89.7 151.8 89.15 166 90.35
M 199.3 43.25
L 199 43.25 218.1 41.65
Q 197.2 53.6 180.85 79.85 194.2 74.1 212.5 69.75 224.4 90.15 230.8 126.25 230.75 126.15 230.7 126.05 218.6 102 206.5 83.85
L 201.8 94.7
Q 197.9 93.45 193.9 92.45
L 187.85 90.95 191.7 83.9 192.6 82.25 190.45 84.95 186 90.5 184.55 90.2 175.5 88.5 174.95 88.45
Q 175.9 88.95 176.9 91.1
L 177.65 94.45 177.65 97.9 177.4 97.95 174.25 93.25
Q 172.1 90.05 171.3 88.15
L 172.9 88.1 168.95 87.55 150.75 86.25
Q 141.3 86 131.7 86.8
L 131.95 87.2 132.4 88.15
Q 133.15 89.75 133.55 92
L 134.05 96.6 121.9 85.2 124.7 95.2
Q 127.75 107.4 128.9 120.8
L 129.55 133.6
Q 129.65 139.05 129.45 144.7
L 94.85 99.25 94.25 98.4 93.55 112.15 78.1 92.9 81.05 89.45 64.45 92.55 54.85 94.35 36.6 97.7 21.25 110.45 20.3 111.25
Q 20.2 101 29.45 94.15
L 5.2 80.3
Q 24.7 75.85 45.05 82
L 44.7 81.1
Q 34.3 55.1 16.5 29.15 22.3 31 27.75 33.15
L 42.45 46.25 28.8 33.55
Q 51.4 42.55 67.2 56.65
L 62.95 46.15 71 53 70.05 45.85 77.3 54.4 89.55 21.35
Q 94.85 33.1 95.3 45.65 104.45 29.75 118.25 13.9
L 108.5 38.55
Q 111.8 35.85 115.4 33.35 119.15 30.75 123.35 28.15
L 121.5 30.1
Q 118.2 33.7 115.9 37.45
L 135.6 21.35 135.55 21.35
Q 145.85 16.2 157.6 11.95
L 157.5 12
Q 134.85 24.8 120.35 44.3 137.95 24.3 170.5 7.7 178.05 5.4 186.2 3.45 162.15 27.05 149.5 52.4 162.85 48.4 179.85 45.75 167 49.95 159.35 54.25 155.9 56.2 153.45 58.15 162.5 53.85 174.5 50.05 185.6 46.45 199.3 43.25 Z"/>

<path fill="#FFB80B" stroke="none" d="
M 129.45 144.7
Q 127 139.15 124.35 133.6
L 115.05 115.3
Q 111.9 109.4 108.55 103.6
L 94.25 80.2 94.85 99.25 129.45 144.7
M 153.45 58.15
Q 155.9 56.2 159.35 54.25 138.05 61.8 121.55 72.05 126.15 76.8 131.7 86.8 141.3 86 150.75 86.25 154.55 76 166.7 65.7 147.25 74.8 137.35 83.85 148.3 64.55 174.5 50.05 162.5 53.85 153.45 58.15
M 174.95 88.45
L 174.85 88.35 172.9 88.1 171.3 88.15
Q 172.1 90.05 174.25 93.25
L 177.4 97.95 177.65 97.9 177.65 94.45 176.9 91.1
Q 175.9 88.95 174.95 88.45 Z"/>

<path fill="#CD7000" stroke="none" d="
M 63.5 78.65
L 61.1 86.45
Q 55.35 71.25 43.6 56.8
L 51.4 78.1 28.3 43.15 54.85 94.35 64.45 92.55
Q 66.55 85.55 63.5 78.65
M 51.15 90.75
L 44.7 81.1 45.05 82
Q 24.7 75.85 5.2 80.3 24.85 81.05 51.15 90.75
M 37.5 92
L 29.45 94.15
Q 20.2 101 20.3 111.25
L 21.25 110.45
Q 26.45 100.8 37.5 92 Z"/>

<path fill="#EC9B00" stroke="none" d="
M 29.45 94.15
L 37.5 92
Q 26.45 100.8 21.25 110.45
L 36.6 97.7 54.85 94.35 28.3 43.15 51.4 78.1 43.6 56.8
Q 55.35 71.25 61.1 86.45
L 63.5 78.65
Q 66.55 85.55 64.45 92.55
L 81.05 89.45 78.1 92.9 93.55 112.15 80.85 80.5 73.55 88.1
Q 73.75 69.5 49.35 47.95 58 60.05 62.35 74.35 40.4 46.8 16.5 29.15 34.3 55.1 44.7 81.1
L 51.15 90.75
Q 24.85 81.05 5.2 80.3
L 29.45 94.15 Z"/>

<path fill="#F5BC00" stroke="none" d="
M 95.3 45.65
Q 94.85 33.1 89.55 21.35 92.1 37.7 88.4 57.15
L 95.3 45.65
M 115.4 33.35
Q 111.8 35.85 108.5 38.55
L 118.25 13.9
Q 107.35 31.25 100 48.65 104.55 41.2 115.4 33.35
M 135.55 21.35
L 135.6 21.35 115.9 37.45
Q 118.2 33.7 121.5 30.1 102.95 44.15 98.35 59.75 104.55 50.55 112.6 41.55 106.6 53 104.45 64.45 125.8 25.35 157.5 12
L 157.6 11.95
Q 145.85 16.2 135.55 21.35
M 144.95 35.8
L 159.35 15.85
Q 128.9 44.25 125.8 61.8
L 125.75 61.85 126.05 61.7
Q 131.9 50.45 144.5 39.25
L 137.35 54.45 147 44.5 142.1 54.85 149.5 52.4
Q 162.15 27.05 186.2 3.45 162.8 16 144.95 35.8
M 193.9 92.45
Q 197.9 93.45 201.8 94.7
L 206.5 83.85
Q 218.6 102 230.7 126.05
L 229.05 120.95
Q 218.75 89.75 214.1 81.55
L 214.65 88.25
Q 211.85 83.05 208.8 78.1
L 193.9 92.45
M 167.55 84.4
L 180.85 79.85
Q 197.2 53.6 218.1 41.65 197.55 48.3 182.2 64.6
L 183.55 56.1
Q 174.85 67.4 167.55 84.4
M 174.85 88.35
L 174.95 88.45 175.5 88.5 184.55 90.2
Q 187.25 87.55 190.45 84.95
L 192.6 82.25 191.7 83.9
Q 196.1 80.35 201.5 76.85 182.1 81.8 168.95 87.55
L 172.9 88.1 174.85 88.35 Z"/>

<path fill="#FFDE10" stroke="none" d="
M 184.55 90.2
L 186 90.5 190.45 84.95
Q 187.25 87.55 184.55 90.2
M 186.2 3.45
Q 178.05 5.4 170.5 7.7 137.95 24.3 120.35 44.3 134.85 24.8 157.5 12 125.8 25.35 104.45 64.45 106.6 53 112.6 41.55 104.55 50.55 98.35 59.75 102.95 44.15 121.5 30.1
L 123.35 28.15
Q 119.15 30.75 115.4 33.35 104.55 41.2 100 48.65 107.35 31.25 118.25 13.9 104.45 29.75 95.3 45.65
L 88.4 57.15
Q 92.1 37.7 89.55 21.35
L 77.3 54.4 70.05 45.85 71 53 62.95 46.15 67.2 56.65
Q 51.4 42.55 28.8 33.55
L 42.45 46.25 27.75 33.15
Q 22.3 31 16.5 29.15 40.4 46.8 62.35 74.35 58 60.05 49.35 47.95 73.75 69.5 73.55 88.1
L 80.85 80.5 93.55 112.15 94.25 98.4 94.85 99.25 94.25 80.2 108.55 103.6
Q 111.9 109.4 115.05 115.3
L 124.35 133.6
Q 127 139.15 129.45 144.7 129.65 139.05 129.55 133.6
L 128.9 120.8
Q 127.75 107.4 124.7 95.2
L 121.9 85.2 134.05 96.6 133.55 92
Q 133.15 89.75 132.4 88.15
L 131.95 87.2 131.7 86.8
Q 126.15 76.8 121.55 72.05 138.05 61.8 159.35 54.25 167 49.95 179.85 45.75 162.85 48.4 149.5 52.4
L 142.1 54.85 147 44.5 137.35 54.45 144.5 39.25
Q 131.9 50.45 126.05 61.7
L 125.75 61.85 125.8 61.8
Q 128.9 44.25 159.35 15.85
L 144.95 35.8
Q 162.8 16 186.2 3.45
M 199 43.25
L 199.3 43.25
Q 185.6 46.45 174.5 50.05 148.3 64.55 137.35 83.85 147.25 74.8 166.7 65.7 154.55 76 150.75 86.25
L 168.95 87.55
Q 182.1 81.8 201.5 76.85 196.1 80.35 191.7 83.9
L 187.85 90.95 193.9 92.45 208.8 78.1
Q 211.85 83.05 214.65 88.25
L 214.1 81.55
Q 218.75 89.75 229.05 120.95
L 230.7 126.05
Q 230.75 126.15 230.8 126.25 224.4 90.15 212.5 69.75 194.2 74.1 180.85 79.85
L 167.55 84.4
Q 174.85 67.4 183.55 56.1
L 182.2 64.6
Q 197.55 48.3 218.1 41.65
L 199 43.25 Z"/>
</g>

<path id="_____________________________________250_________0_Layer1_0_1_STROKES" stroke="#FFDE10" stroke-width="1" stroke-linejoin="miter" stroke-linecap="round" stroke-miterlimit="3" fill="none" d="
M 186.2 3.45
Q 178.05 5.4 170.5 7.7 137.95 24.3 120.35 44.3 134.85 24.8 157.5 12 125.8 25.35 104.45 64.45 106.6 53 112.6 41.55 104.55 50.55 98.35 59.75 102.95 44.15 121.5 30.1
L 123.35 28.15
Q 119.15 30.75 115.4 33.35 104.55 41.2 100 48.65 107.35 31.25 118.25 13.9 104.45 29.75 95.3 45.65
L 88.4 57.15
Q 92.1 37.7 89.55 21.35
L 77.3 54.4 70.05 45.85 71 53 62.95 46.15 67.2 56.65
Q 51.4 42.55 28.8 33.55
L 42.45 46.25 27.75 33.15
Q 22.3 31 16.5 29.15 40.4 46.8 62.35 74.35 58 60.05 49.35 47.95 73.75 69.5 73.55 88.1
L 80.85 80.5 93.55 112.15 94.25 98.4 94.85 99.25 94.25 80.2 108.55 103.6
Q 111.9 109.4 115.05 115.3
L 124.35 133.6
Q 127 139.15 129.45 144.7 129.65 139.05 129.55 133.6
L 128.9 120.8
Q 127.75 107.4 124.7 95.2
L 121.9 85.2 134.05 96.6 133.55 92
Q 133.15 89.75 132.4 88.15
L 131.95 87.2 131.7 86.8
Q 126.15 76.8 121.55 72.05 138.05 61.8 159.35 54.25 167 49.95 179.85 45.75 162.85 48.4 149.5 52.4
L 142.1 54.85 147 44.5 137.35 54.45 144.5 39.25
Q 131.9 50.45 126.05 61.7
L 125.75 61.85 125.8 61.8
Q 128.9 44.25 159.35 15.85
L 144.95 35.8
Q 162.8 16 186.2 3.45 162.15 27.05 149.5 52.4
M 218.1 41.65
L 199 43.25 199.3 43.25
Q 185.6 46.45 174.5 50.05
M 150.75 86.25
L 168.95 87.55
M 191.7 83.9
L 187.85 90.95 193.9 92.45
M 230.7 126.05
Q 230.75 126.15 230.8 126.25 224.4 90.15 212.5 69.75 194.2 74.1 180.85 79.85 197.2 53.6 218.1 41.65
M 172.9 88.1
L 171.3 88.15
Q 172.1 90.05 174.25 93.25
L 177.4 97.95 177.65 97.9 177.65 94.45 176.9 91.1
Q 175.9 88.95 174.95 88.45
M 168.95 87.55
L 172.9 88.1
M 174.95 88.45
L 175.5 88.5 184.55 90.2
M 190.45 84.95
L 192.6 82.25 191.7 83.9
M 184.55 90.2
L 186 90.5 190.45 84.95
M 193.9 92.45
Q 197.9 93.45 201.8 94.7
L 206.5 83.85
Q 218.6 102 230.7 126.05
M 157.5 12
L 157.6 11.95
Q 145.85 16.2 135.55 21.35
L 135.6 21.35 115.9 37.45
Q 118.2 33.7 121.5 30.1
M 115.4 33.35
Q 111.8 35.85 108.5 38.55
L 118.25 13.9
M 95.3 45.65
Q 94.85 33.1 89.55 21.35
M 174.5 50.05
Q 162.5 53.85 153.45 58.15 155.9 56.2 159.35 54.25
M 131.7 86.8
Q 141.3 86 150.75 86.25
M 5.2 80.3
L 29.45 94.15
M 21.25 110.45
L 36.6 97.7 54.85 94.35
M 64.45 92.55
L 81.05 89.45 78.1 92.9 93.55 112.15
M 44.7 81.1
L 45.05 82
Q 24.7 75.85 5.2 80.3
M 16.5 29.15
Q 34.3 55.1 44.7 81.1
M 54.85 94.35
L 64.45 92.55
M 29.45 94.15
Q 20.2 101 20.3 111.25
L 21.25 110.45
M 94.85 99.25
L 129.45 144.7"/>
</defs>

<g transform="matrix( 0.310882568359375, 0, 0, 0.310882568359375, -0.35,1.4) ">
<g transform="matrix( 1, 0, 0, 1, 0,0) ">
<use xlink:href="#_____________________________________250_________0_Layer1_0_FILL"/>

<use xlink:href="#_____________________________________250_________0_Layer1_0_1_STROKES"/>
</g>

<g transform="matrix( 1, 0, 0, 1, 0,0) ">
<use xlink:href="#_____________________________________250_________0_Layer0_0_FILL"/>
</g>
</g>
</svg>
