
<svg xmlns="http://www.w3.org/2000/svg" version="1.1" xmlns:xlink="http://www.w3.org/1999/xlink" preserveAspectRatio="none" x="0px" y="0px" width="77px" height="67px" viewBox="0 0 77 67">
<defs>
<g id="_______227_0_Layer1_0_FILL">
<path fill="#201E1B" stroke="none" d="
M 24.45 -2.55
L 24.45 -2.6
Q 6.7 6.5 -8.4 16.5
L -8.45 16.5 -9.75 17.45 -9.75 19.9 5.5 22.2
Q 4.65 25.45 2.25 29.85 -0.55 34.85 -4.8 38.7
L -5.7 39.5 -4.75 40.25
Q -3.25 41.45 -1.55 42.25
L -1.6 42.25 -1.25 42.45
Q -0.8 42.7 -0.3 42.9 -0.3 42.95 -0.3 43 -0.45 44.2 0.8 45
L 0.9 45.1 1 45.15
Q 1.105859375 45.2173828125 1.2 45.3 1.655859375 45.5865234375 2.1 45.95
L 2.15 46
Q 2.3994140625 46.1677734375 2.65 46.3 6.783984375 49.0763671875 9.35 50.1 10.012890625 50.392578125 10.55 50.55 11.3 50.8 11.9 50.9 13.25 52.85 14.75 54.85 15.0224609375 55.247265625 15.3 55.65 16.222265625 56.8646484375 17.35 58.15 17.5349609375 58.3208984375 17.7 58.5 17.75 58.55 17.85 58.7 17.9 58.8 18.1 59 18.55 59.55 19.15 60.4
L 19.25 60.55 19.4 60.65
Q 19.7 60.85 20.15 61.05 21.1 61.9 22.6 62.6 28.45 67.55 47.85 66.9
L 48.2 66.9 48.5 66.6
Q 48.75 66.35 49.2 66.2
L 49.3 66.15
Q 51.15 65.15 52.85 63.75
L 52.8 63.75
Q 53.25 63.45 53.65 63.05
L 53.7 63 53.75 63
Q 55.7 60.8 57.8 58.8
L 58 58.5
Q 58.65 57.25 59.6 56.15
L 59.85 55.9 59.85 55.5
Q 59.85 55.2 60.1 54.85
L 60.45 54.35 60.3 54.1 60.3 53.95
Q 60.75 50.7 61.15 47.65
L 61.15 47.5
Q 61.15 46.3 61.15 45.45 61.15 44.8 61.1 42.75
L 61.1 41.3 59.75 41.85
Q 58.8 42.2 58.65 42.35
L 58.6 42.35
Q 58.55 42.4 58.45 42.45 58.1 42.5 57.7 42.75
L 57.65 42.8
Q 56.3 43.45 54.75 44.25 53.2 44.6 51.5 45.1 51 45.15 50.55 45.3 40 46.3 34.6 40.75 33.9 39.15 33.55 37.75
L 33.5 37.75
Q 32 32.4 33.9 28
L 46 31.5 45.95 31.5
Q 48.65 32.35 51.3 33.3 53.8 34.3 56.4 35.3
L 56.35 35.3
Q 57.95 35.95 59.5 36.8
L 59.55 36.8
Q 60.35 37.2 61.25 37.25
L 61.3 37.25
Q 61.85 37.25 62.45 36.85
L 62.4 36.9 63.1 36.35 63.1 36.3
Q 63.15 36.25 63.25 36.2 65.05 34.15 66.1 31 66.7 29.2 67.05 27.05 67.25 25.55 66.95 24.5 59.7 9.55 47.85 -1.7 44.6 -4.8 41.05 -7.6 41 -7.65 40.95 -7.65
L 40.85 -7.7 40.85 -7.75 39.5 -8.55 39.45 -8.55
Q 38.15 -9.45 36.15 -8.4
L 35.9 -8.35 35.8 -8.3
Q 29.95 -5.5 24.45 -2.55
M 36.2 -7.4
L 36.55 -7.5
Q 38 -8.25 38.95 -7.7
L 39.6 -7.3
Q 39.9 -7.125 40.2 -6.95
L 40.25 -6.9
Q 40.75 -6.45 41.25 -5.95 41.45 -5.75 41.65 -5.6 48.05 -0.45 53.65 6.4 54.3 7.15 54.9 8 55.7 8.95 56.45 10 58.3 12.5 60 15.3 60.4 15.85 60.8 16.5 60.9 16.65 61.05 16.85 61.9 18.25 62.8 19.8 62.85 19.9 62.9 20.1 64.1 22.15 65.25 24.35 65.55 25 65.9 25.6 65.9 26.3 65.8 27 65.55 30.3 64.55 32.55 64.25 33.1 63.95 33.7 63.55 34.3 63.15 34.8 62.35 35.45 61.55 35.95
L 61.35 36 61.1 36
Q 60.45 35.9 59.9 35.65 58.3 34.8 56.7 34.1 56.2 33.85 55.6 33.7 54 33 52.3 32.3 51.9 32.1 51.5 32 48.9 30.95 46.15 30.1
L 43.9 29.35
Q 42.75 28.95 41.55 28.6 41.45 28.5 41.25 28.5 39.05 27.75 36.85 27.15
L 33.6 26.3
Q 30.7169921875 31.4931640625 32.55 38 32.95 39.55 33.75 41.3 39.45 47.4 50.75 46.3 51.25 46.1 51.75 46.05 53.55 45.55 55.1 45.2 56.75 44.35 58.15 43.65 58.5 43.45 58.8 43.2 58.95 43 59.3 42.8 59.37578125 42.534375 59.5 42.45 59.57578125 42.4525390625 59.6 42.45
L 59.65 42.45
Q 59.95 43.15 60.2 43.2 60.1 43.45 60.35 43.7
L 60.35 43.75
Q 60.15 44.6 60.15 45.45 60.15 46.3 60.15 47.5 59.75 50.55 59.3 53.8 59 53.85 59.25 54.3 58.85 54.9 58.85 55.5 57.8 56.7 57.1 58.05 54.95 60.1 53 62.3 52.6 62.65 52.2 62.95 50.6 64.3 48.8 65.25 48.2 65.5 47.8 65.9 28.9 66.55 23.2 61.8 21.65 61.1 20.7 60.2 20.25 60 19.95 59.8 19.3 58.9 18.85 58.35 18.55 58 18.6 58 18.048046875 57.401953125 17.55 56.8 16.4166015625 55.498046875 15.55 54.25 13.93984375 52.1029296875 12.45 49.9 11.7984375 49.923828125 10.85 49.6 10.3205078125 49.4392578125 9.7 49.15 7.176171875 48.1263671875 3.15 45.45 2.9248046875 45.301171875 2.7 45.15 2.1609375 44.708984375 1.5 44.3
L 1.35 44.15
Q 0.65 43.7 0.7 43.05 0.7 42.85 0.8 42.7
L 0.8 42.5 0.9 42.25
Q 0 41.95 -0.8 41.55
L -1.15 41.35
Q -2.7 40.6 -4.15 39.45 0.25 35.5 3.1 30.3 6 25.05 6.7 21.35
L -8.75 19.05 -8.75 18.4 -8.75 17.95 -7.85 17.3
Q 7.2 7.35 24.9 -1.7 30.4 -4.6 36.2 -7.4
M 20.3 23.75
Q 21.0994140625 23.83984375 21.9 23.9 24.3978515625 24.2005859375 26.9 24.5
L 26.5 24.4 8.25 20.95 8.15 22.45 8.4 21.6 14.45 22.6 19.5 23.65
Q 19.9109375 23.715234375 20.3 23.75
M 44.95 29.25
L 44.2 29
Q 43.4580078125 28.7953125 42.7 28.55 43.425 28.8 44.15 29
L 46.4 29.75
Q 49.45 30.8 52.3 31.85 49.5 30.7 46.5 29.75
L 44.95 29.25
M 54.3 32.6
Q 53.79453125 32.423046875 53.3 32.2 53.775 32.425 54.25 32.6 55.7 33.1 57.05 33.7 57.7 33.95 58.4 34.25 59.1 34.55 59.85 34.9
L 59.9 34.95
Q 60.4 35.25 60.85 35.3
L 60.9 35.3
Q 60.45 35.25 59.95 34.95
L 59.9 34.9
Q 59.15 34.55 58.45 34.25 57.75 33.95 57.15 33.7 55.75 33.1 54.3 32.6 Z"/>

<path fill="#606686" stroke="none" d="
M 20.7 60.2
Q 21.65 61.1 23.2 61.8 28.9 66.55 47.8 65.9 47.55 65.7 47.3 65.85 30.4 64.65 25.9 62.2 23.45 60.85 21.2 59.65 20.95 59.5 20.7 59.15 20.45 58.85 20.2 58.55 20 58.35 19.8 58.15 19.35 57.65 19.25 57.35 18.505078125 56.5001953125 17.7 55.5 16.77578125 54.2642578125 15.75 52.8 14.7044921875 51.21875 13.55 49.35 13.5560546875 49.44609375 13.55 49.5 13.20078125 49.9298828125 12.45 49.9 13.93984375 52.1029296875 15.55 54.25 16.4166015625 55.498046875 17.55 56.8 18.048046875 57.401953125 18.6 58 18.55 58 18.85 58.35 19.3 58.9 19.95 59.8 20.25 60 20.7 60.2
M 36.55 -7.5
L 36.2 -7.4
Q 30.4 -4.6 24.9 -1.7 7.2 7.35 -7.85 17.3
L -8.75 17.95 -8.75 18.4 8.25 20.95 26.5 24.4 28.9 24.95 29.35 25 29.4 25
Q 29.790625 25.090625 30.15 25.2
L 42.7 28.55
Q 43.4580078125 28.7953125 44.2 29
L 44.95 29.25 46.05 28.05 46 28.05 44.95 29.2 44.3 28.95
Q 42.75 28.45 41.25 28 37.6416015625 26.914453125 33.8 25.9 33.0083984375 25.7048828125 32.2 25.5 30.887890625 25.1611328125 29.55 24.8
L 29.5 24.8
Q 29.4546875 24.8130859375 29.4 24.8 26.85 24.15 24.15 23.55
L 6 20.2 -4.65 18.55 -5.65 18.4 -6.75 18.2
Q 7.8 8.25 24.75 -1.1 30.5 -4.25 36.55 -7.4 38 -8.2 38.95 -7.65
L 39 -7.65 39.6 -7.3 38.95 -7.7
Q 38 -8.25 36.55 -7.5 Z"/>

<path fill="#2E2B27" stroke="none" d="
M 15 48
L 14.15 47.45
Q 13.6658203125 48.8583984375 13.55 49.35 14.7044921875 51.21875 15.75 52.8 16.77578125 54.2642578125 17.7 55.5 18.505078125 56.5001953125 19.25 57.35 19.35 57.65 19.8 58.15 20 58.35 20.2 58.55 20.45 58.85 20.7 59.15 20.95 59.5 21.2 59.65 23.45 60.85 25.9 62.2 30.4 64.65 47.3 65.85 48 65.35 48.85 65 50.45 63.95 51.85 62.9 53.4 61.6 54.7 60.25 55.2 59.5 55.7 59.15 55.6 59 55.9 59 57.2 57.05 58.45 55.25 58.4 54.65 58.1 54.4 57.9 54.2 57.9 53.95 57.8 53.9 57.85 53.85 57.4 53.05 57.15 52.6 56.9 52.6 56.8 53 56.5 53 56.15 53.55 55.7 53.7 55.65 54 55.3 54.2 54.95 54.6 54.8 54.7 54.65 54.8 53.45 55.5 52.45 56.2 49.3 57.75 44.3 58.65 39.7 59.35 33.85 59 30.5 58.6 26.7 57.75 25.9 57.3 25.65 54.45 25.15 52.3 25.05 50.1
L 25.1 49.85
Q 24.7 48.55 24.85 47.45 25.05 42.5 26.25 38.1 26.8 35.7 27.55 33.45 27.25 32.45 27.3 31.2 26.881640625 31.1798828125 26.45 31.15 23.1544921875 37.4470703125 20.65 50.3 20.221875 50.966015625 18.4 50.15 18.34453125 50.09609375 18.25 50.05 18.2 50.3 18.2 50.05
L 16.35 48.9 15 48
M 39.4 62.95
Q 38 62.8 36.15 62.4 51.2 61.9 55.2 56.6 54.35 57.8 53.85 58.95 51.5 62.55 49.95 63.1 48.303125 63.584375 41 63.05
L 40.55 63.05
Q 39.9 63 39.4 62.95
M 28.05 39.7
Q 27.1 48.3 34.95 51.3 28.8 46 28.05 39.7
M 59.3 42.8
Q 58.95 43 58.8 43.2 58.5 43.45 58.15 43.65 56.75 44.35 55.1 45.2 53.55 45.55 51.75 46.05 51.25 46.1 50.75 46.3 39.45 47.4 33.75 41.3 32.95 39.55 32.55 38 30.7169921875 31.4931640625 33.6 26.3
L 32 25.85
Q 29.4005859375 31.358203125 31.05 38.05 31.45 39.95 32.45 42.45 36.85 49.3 50.6 48.35
L 50.65 48.35
Q 55.65 47.3 58 44.65 58.3 44.2 58.75 43.75 59.05 43.1 59.3 42.8
M 59.6 42.45
Q 59.628515625 42.4853515625 59.7 42.7 59.6 43.05 59.85 43.4 59.8 43.45 59.9 43.85 60.05 44.4 60.35 43.75
L 60.35 43.7
Q 60.1 43.45 60.2 43.2 59.95 43.15 59.65 42.45
L 59.6 42.45 Z"/>

<path fill="#3F3B35" stroke="none" d="
M 41 63.05
Q 48.303125 63.584375 49.95 63.1 51.5 62.55 53.85 58.95 49.7125 63.476953125 41 63.05 Z"/>

<path fill="#4D4A46" stroke="none" d="
M 36.15 62.4
Q 38 62.8 39.4 62.95 39.9 63 40.55 63.05
L 41 63.05
Q 49.7125 63.476953125 53.85 58.95 54.35 57.8 55.2 56.6 51.2 61.9 36.15 62.4
M 49.15 49.3
Q 49.8 48.55 50.65 48.35
L 50.6 48.35
Q 36.85 49.3 32.45 42.45 31.45 39.95 31.05 38.05 29.4005859375 31.358203125 32 25.85
L 26.9 24.5
Q 24.3978515625 24.2005859375 21.9 23.9 21.0994140625 23.83984375 20.3 23.75 19.9109375 23.715234375 19.5 23.65
L 20.25 23.8 21.85 24.15 29.55 25.8 29.35 26.1 26.85 30.45
Q 26.655078125 30.793359375 26.45 31.15 26.881640625 31.1798828125 27.3 31.2 27.25 32.45 27.55 33.45 26.8 35.7 26.25 38.1 25.05 42.5 24.85 47.45 24.7 48.55 25.1 49.85
L 25.05 50.1
Q 25.15 50 25.25 50.1 26.85 50.65 28.6 51.2 30.6 51.95 32.75 52.5 33.7 52.75 34.65 52.95 37.6 52.65 40.5 52.35 43.4 51.55 45.85 50.75 47.5 49.85 49.15 49.3
M 28.05 39.7
Q 32.1 44 34.95 51.3 27.1 48.3 28.05 39.7
M 29.35 25
Q 29.764453125 25.09609375 30.15 25.2 29.790625 25.090625 29.4 25
L 29.35 25 Z"/>

<path fill="#A9A5AF" stroke="none" d="
M 3.1 34.7
Q 5.65 29.75 6.8 25.5 7.9 22.7 8.25 20.95
L -8.75 18.4 -8.75 19.05 6.7 21.35
Q 6 25.05 3.1 30.3 0.25 35.5 -4.15 39.45 -2.7 40.6 -1.15 41.35
L -0.8 41.55 0.25 39.55
Q 1.75 37.35 3.1 34.7 Z"/>

<path fill="#8E8898" stroke="none" d="
M 8.15 22.45
L 8.25 20.95
Q 7.9 22.7 6.8 25.5 5.65 29.75 3.1 34.7 1.75 37.35 0.25 39.55
L -0.8 41.55
Q 0 41.95 0.9 42.25
L 0.8 42.5 1.2 41.75 1.25 41.75 7.25 25.85 8.15 22.45 Z"/>

<path fill="#F3F3F3" stroke="none" d="
M 21.8 24.55
L 21.85 24.15 20.25 23.8 16.35 48.9 18.2 50.05
Q 18.2 50.3 18.25 50.05 18.34453125 50.09609375 18.4 50.15 20.221875 50.966015625 20.65 50.3 23.1544921875 37.4470703125 26.45 31.15 26.655078125 30.793359375 26.85 30.45
L 29.35 26.1 21.8 24.55
M 17.9 28.7
Q 16.75 28.7 15.4 30.7 14.4 32.2 13.9 33.7 12.3 37.75 11.7 40 11.55 40.4 11.45 41.75 11.3 43.25 11.2 43.75
L 10.25 47.4
Q 10.0626953125 48.055859375 9.7 49.15 10.3205078125 49.4392578125 10.85 49.6 11.7984375 49.923828125 12.45 49.9 13.20078125 49.9298828125 13.55 49.5 13.5560546875 49.44609375 13.55 49.35 13.6658203125 48.8583984375 14.15 47.45
L 15 48
Q 15.0875 46.6755859375 15.2 43.75 15.3 40.6 16.35 39.05 17.25 37.65 17.95 34.9 18.6 32.1 18.6 29.6 18.6 28.9 18.5 28.8 18.4 28.7 17.9 28.7
M 58.9 29.45
L 58.85 29.45
Q 59.2578125 31.189453125 59.6 32.9
L 59.65 33.25
Q 55.85 31.65 52.3 30.35 49.25 29.2 46.3 28.2
L 46.05 28.05 44.95 29.25 46.5 29.75
Q 49.5 30.7 52.3 31.85 52.8 32.0375 53.3 32.2 53.79453125 32.423046875 54.3 32.6 55.75 33.1 57.15 33.7 57.75 33.95 58.45 34.25 58.85 34.35 60 34.7 61.3 34.95 62.55 34.05 62.85 33.85 63.1 33.7 63.19375 33.6375 63.3 33.55 63.34375 33.5375 63.4 33.5 63.6 33.35 63.8 33.2
L 64 33.05 64.2 32.85
Q 64.25 32.8 64.3 32.75
L 64.55 32.55
Q 65.55 30.3 65.8 27 65.9 26.3 65.9 25.6 65.55 25 65.25 24.35 65.2 25 65.1 25.55
L 61.6 21.9
Q 61.8 24.35 61.8 27 61.8 27.2490234375 61.8 27.5 63.4 29.4 65.5 28.65
L 64.05 30.8
Q 62.8775390625 30.4091796875 61.75 29.4 61.7021484375 30.6728515625 61.6 32 61.2189453125 30.4337890625 60.65 27.9
L 59.9 26.75
Q 59.45 28.2 58.9 29.45
M 49.05 24.55
L 49.2 24.65 55.55 17.85
Q 57.2 22.4 58.3 27 58.3701171875 27.2453125 58.4 27.5
L 58.45 27.45
Q 59.6 24.3 57.75 20.95
L 58.65 20.75
Q 59.15 22.45 59.65 23.75 59.20859375 21.9115234375 58.7 19.75
L 58.45 18.55 56.5 16.35
Q 56.35 16.3 56.25 16.25
L 56.1 16.25 55.3 17.2 49.05 24.55 Z"/>

<path fill="#CFCBD7" stroke="none" d="
M 21.85 24.15
L 21.8 24.55 29.35 26.1 29.55 25.8 21.85 24.15
M 19.5 23.65
L 14.45 22.6
Q 13.865234375 24.37421875 13.2 26.75 12.95 27.65 11.85 30.35 11.6 30.85 10.95 31.9 10.1 33.25 9.85 33.25 9.65 33.25 9.6 32.3 9.6 31.25 9.6 31.15 9.5 30.55 9.15 30.45 8.5 30.15 8.4 30.15 7.65 30.15 5.85 33.6 4.95 35.35 4.15 37.25 3 40 2.55 41.45 2.25 42.45 1.6 44.1 1.5623046875 44.208984375 1.5 44.3 2.1609375 44.708984375 2.7 45.15 2.9248046875 45.301171875 3.15 45.45 7.176171875 48.1263671875 9.7 49.15 10.0626953125 48.055859375 10.25 47.4
L 11.2 43.75
Q 11.3 43.25 11.45 41.75 11.55 40.4 11.7 40 12.3 37.75 13.9 33.7 14.4 32.2 15.4 30.7 16.75 28.7 17.9 28.7 18.4 28.7 18.5 28.8 18.6 28.9 18.6 29.6 18.6 32.1 17.95 34.9 17.25 37.65 16.35 39.05 15.3 40.6 15.2 43.75 15.0875 46.6755859375 15 48
L 16.35 48.9 20.25 23.8 19.5 23.65
M 59.65 33.25
L 59.6 32.9
Q 59.2578125 31.189453125 58.85 29.45 58.4419921875 30.464453125 57.9 31.45
L 56.7 31
Q 58.23046875 32.2009765625 59.65 33.25
M 55.55 17.85
L 49.2 24.65
Q 50.75 26.1 52.3 27.45 54.391796875 29.1931640625 56.35 30.7 57.803515625 29.1130859375 58.4 27.5 58.3701171875 27.2453125 58.3 27 57.2 22.4 55.55 17.85
M 53.3 22.4
L 53.8 20.5 56.6 22.7 56.45 23.35
Q 55.6 23.05 53.3 22.4 Z"/>

<path fill="#830202" stroke="none" d="
M 23.75 6.15
Q 24 5.4 24.55 4.25 24.7 3.95 24.75 3.65
L 24.7 3.7
Q 16 5.2 5.3 11.7 0.05 14.9 -4.65 18.55
L 6 20.2 12.6 20.65
Q 13.8189453125 20.7552734375 15.05 20.9 17.81171875 21.2025390625 20.6 21.65 20.70859375 21.6845703125 20.8 21.7
L 20.8 21.45
Q 20.968359375 19.80859375 21.15 18.2 21.2103515625 17.9005859375 21.25 17.6 22.3 9.85 23.75 6.15
M 49 24.55
L 48.7 24.15 45.35 27.8 46 28.05 46.05 28.05 49.05 24.55 49 24.55 Z"/>

<path fill="#706D69" stroke="none" d="
M 34.95 51.3
Q 32.1 44 28.05 39.7 28.8 46 34.95 51.3
M 59.5 42.45
Q 59.37578125 42.534375 59.3 42.8 59.2 43 59.1 43.55 58.9 44.15 58.7 45.1 58.45 45.55 58.35 46 58.05 47 57.75 48.15 57.6 48.45 57.45 48.95 57.4 49.1 57.3 49.4 57.25 49.5 57.2 49.8 56.05 50.5 55.1 51.4 54.25 51.65 53.6 52.1 52.4 52.5 51.4 52.9 49.15 53.4 46.5 53.7 41.7 53.65 34.65 52.95 33.7 52.75 32.75 52.5 30.6 51.95 28.6 51.2 26.85 50.65 25.25 50.1
L 25.3 50.2
Q 26.95 50.85 28.6 51.65 30.7 52.35 33 53.2 32.9 53.05 33.15 53.3 41.8 54.85 47.6 54.8 48.1 54.8 48.75 54.8 50.8 54.6 52.65 54.2 53.85 53.6 55.25 53.15 55.5 52.8 55.9 52.6 56.35 52.3 56.8 51.95 56.8 51.9 56.95 51.85 57.1 51.5 57.8 51.15 57.75 49.95 58.25 48.75 58.25 48.2 58.4 47.8 58.4 46.55 59 45.1 59 44.3 59.35 43.5 59.35 43.1 59.5 42.9 59.429296875 42.546484375 59.5 42.45 Z"/>

<path fill="#B80000" stroke="none" d="
M 44.3 28.95
L 45.35 27.8
Q 43.25 27.15 41.25 26.55 40.5 26.3 39.75 26.05 30.72265625 23.411328125 22.15 21.9 21.48203125 21.8111328125 20.8 21.7 20.70859375 21.6845703125 20.6 21.65 17.81171875 21.2025390625 15.05 20.9 13.8189453125 20.7552734375 12.6 20.65
L 6 20.2 24.15 23.55
Q 26.85 24.15 29.4 24.8 29.4546875 24.8130859375 29.5 24.8
L 29.55 24.8
Q 30.887890625 25.1611328125 32.2 25.5 33.0083984375 25.7048828125 33.8 25.9 37.6416015625 26.914453125 41.25 28 42.75 28.45 44.3 28.95
M 39 -7.65
L 38.95 -7.65
Q 38 -8.2 36.55 -7.4 30.5 -4.25 24.75 -1.1 7.8 8.25 -6.75 18.2
L -5.65 18.4
Q -3.7 16.95 0.9 14.1 3.65 12.45 7.45 10.25 9.45 9.05 11.4 8 19.85 3.3 26.65 0.6
L 28.8 3.3
Q 29.3705078125 3.9943359375 29.95 4.7
L 32 4.7 35.6 1.55 38.85 -1.35 38.25 -0.25 35.45 4.45 37.55 5.45 34.9 5.45 33.9 7.3 33.3 7.85 32.95 8.15
Q 35.46484375 10.9822265625 38.3 13.95 39.8 15.55 41.25 17.05 45.1 20.9 48.7 24.15
L 55.3 17.2 54.8 15.8
Q 53.8 13.25 52.7 10.95 51.9 9.25 51.1 7.6 49.8 5.2 48.45 3
L 47.3 1.25
Q 46.25 -0.25 45.1 -1.7 43.4 -3.85 41.65 -5.6 41.45 -5.75 41.25 -5.95 40.75 -6.45 40.25 -6.9
L 40.2 -6.95
Q 39.9 -7.125 39.6 -7.3
L 39 -7.65
M 58.45 27.45
L 58.4 27.5
Q 57.803515625 29.1130859375 56.35 30.7 56.3025390625 30.7923828125 56.25 30.85
L 56.7 31 57.9 31.45
Q 58.4419921875 30.464453125 58.85 29.45
L 58.9 29.45 58.45 27.45
M 53.8 20.5
L 53.3 22.4
Q 55.6 23.05 56.45 23.35
L 56.6 22.7 53.8 20.5 Z"/>

<path fill="#D4D4D4" stroke="none" d="
M 52.3 32.3
Q 54 33 55.6 33.7 56.2 33.85 56.7 34.1 58.3 34.8 59.9 35.65 60.45 35.9 61.1 36
L 61.35 36 61.55 35.95
Q 62.35 35.45 63.15 34.8 63.55 34.3 63.95 33.7 64.25 33.1 64.55 32.55
L 64.3 32.75
Q 64.25 32.8 64.2 32.85
L 64 33.05 63.8 33.2
Q 63.6 33.35 63.4 33.5 63.34375 33.5375 63.3 33.55 63.225 33.625 63.15 33.7 62.6 34.1 62.05 34.6 61.65 35.15 61.3 35.25 61.15 35.25 61.1 35.25
L 60.9 35.3 60.85 35.3
Q 60.4 35.25 59.9 34.95
L 59.85 34.9
Q 59.1 34.55 58.4 34.25 57.7 33.95 57.05 33.7 55.7 33.1 54.25 32.6 53.775 32.425 53.3 32.2 52.8 32.0375 52.3 31.85 49.45 30.8 46.4 29.75
L 44.15 29
Q 43.425 28.8 42.7 28.55
L 30.15 25.2
Q 29.764453125 25.09609375 29.35 25
L 28.9 24.95 26.5 24.4 26.9 24.5 32 25.85 33.6 26.3 36.85 27.15
Q 39.05 27.75 41.25 28.5 41.45 28.5 41.55 28.6 42.75 28.95 43.9 29.35
L 46.15 30.1
Q 48.9 30.95 51.5 32 51.9 32.1 52.3 32.3 Z"/>

<path fill="#8E0000" stroke="none" d="
M 48.7 24.15
Q 45.1 20.9 41.25 17.05 39.8 15.55 38.3 13.95 35.46484375 10.9822265625 32.95 8.15
L 24.05 16.5 23.85 16.65 28.1 9.45 27.95 9.05 27.2 7.1 29.3 7.1 27.15 4.7 29.95 4.7
Q 29.3705078125 3.9943359375 28.8 3.3
L 26.65 0.6
Q 19.85 3.3 11.4 8 9.45 9.05 7.45 10.25 3.65 12.45 0.9 14.1 -3.7 16.95 -5.65 18.4
L -4.65 18.55
Q 0.05 14.9 5.3 11.7 16 5.2 24.7 3.7
L 24.75 3.65
Q 24.7 3.95 24.55 4.25 24 5.4 23.75 6.15 22.3 9.85 21.25 17.6 21.2103515625 17.9005859375 21.15 18.2 20.968359375 19.80859375 20.8 21.45
L 20.8 21.7
Q 21.48203125 21.8111328125 22.15 21.9 30.72265625 23.411328125 39.75 26.05 40.5 26.3 41.25 26.55 43.25 27.15 45.35 27.8
L 48.7 24.15
M 37.55 5.45
L 35.45 4.45 38.25 -0.25 31.35 7.85 33.3 7.85 33.9 7.3 34.9 5.45 37.55 5.45
M 44.3 28.95
L 44.95 29.2 46 28.05 45.35 27.8 44.3 28.95
M 48.7 24.15
L 49 24.55 49.05 24.55 55.3 17.2 48.7 24.15 Z"/>

<path fill="#BFBAC9" stroke="none" d="
M 8.4 21.6
L 8.15 22.45 7.25 25.85 1.25 41.75 1.2 41.75 0.8 42.5 0.8 42.7
Q 0.7 42.85 0.7 43.05 0.65 43.7 1.35 44.15
L 1.5 44.3
Q 1.5623046875 44.208984375 1.6 44.1 2.25 42.45 2.55 41.45 3 40 4.15 37.25 4.95 35.35 5.85 33.6 7.65 30.15 8.4 30.15 8.5 30.15 9.15 30.45 9.5 30.55 9.6 31.15 9.6 31.25 9.6 32.3 9.65 33.25 9.85 33.25 10.1 33.25 10.95 31.9 11.6 30.85 11.85 30.35 12.95 27.65 13.2 26.75 13.865234375 24.37421875 14.45 22.6
L 8.4 21.6
M 49.2 24.65
L 49.05 24.55 46.05 28.05 46.3 28.2
Q 49.25 29.2 52.3 30.35 55.85 31.65 59.65 33.25 58.23046875 32.2009765625 56.7 31
L 56.25 30.85
Q 56.3025390625 30.7923828125 56.35 30.7 54.391796875 29.1931640625 52.3 27.45 50.75 26.1 49.2 24.65
M 60 34.7
Q 58.85 34.35 58.45 34.25 59.15 34.55 59.9 34.9
L 59.95 34.95
Q 60.45 35.25 60.9 35.3
L 61.1 35.25
Q 61.15 35.25 61.3 35.25 61.65 35.15 62.05 34.6 62.6 34.1 63.15 33.7 63.225 33.625 63.3 33.55 63.19375 33.6375 63.1 33.7 62.85 33.85 62.55 34.05 61.3 34.95 60 34.7 Z"/>

<path fill="#FC3030" stroke="none" d="
M 35.6 1.55
L 32 4.7 29.95 4.7 27.15 4.7 29.3 7.1 27.2 7.1 27.95 9.05 35.6 1.55 Z"/>

<path fill="#4F0000" stroke="none" d="
M 33.3 7.85
L 31.35 7.85 24.05 16.5 32.95 8.15 33.3 7.85 Z"/>

<path fill="#E20000" stroke="none" d="
M 38.25 -0.25
L 38.85 -1.35 35.6 1.55 27.95 9.05 28.1 9.45 23.85 16.65 24.05 16.5 31.35 7.85 38.25 -0.25
M 61.8 27.5
L 61.7 29.35
Q 61.7263671875 29.3740234375 61.75 29.4 62.8775390625 30.4091796875 64.05 30.8
L 65.5 28.65
Q 63.4 29.4 61.8 27.5
M 59.65 23.75
Q 59.15 22.45 58.65 20.75
L 57.75 20.95
Q 59.6 24.3 58.45 27.45
L 58.9 29.45
Q 59.45 28.2 59.9 26.75
L 60.65 27.9 60.7 28 60.45 27
Q 60.0814453125 25.52578125 59.65 23.75
M 61.05 16.85
Q 60.9 16.65 60.8 16.5 60.4 15.85 60 15.3 60.843359375 17.2796875 61.3 19.9
L 61.4 19.8 61.55 21.5
Q 61.5767578125 21.6982421875 61.6 21.9
L 65.1 25.55
Q 65.2 25 65.25 24.35 64.1 22.15 62.9 20.1 62.85 19.9 62.8 19.8 61.9 18.25 61.05 16.85
M 41.65 -5.6
Q 43.4 -3.85 45.1 -1.7 46.25 -0.25 47.3 1.25
L 48.45 3
Q 49.8 5.2 51.1 7.6 51.9 9.25 52.7 10.95 53.8 13.25 54.8 15.8
L 55.3 17.2 56.1 16.25 56.25 16.25
Q 56.35 16.3 56.5 16.35
L 58.45 18.55 58.15 17.35
Q 56.85 12.45 54.4 8 54 7.25 53.65 6.4 48.05 -0.45 41.65 -5.6 Z"/>

<path fill="#FF5454" stroke="none" d="
M 60.45 27
L 60.7 28
Q 61.15 28.75 61.7 29.35
L 61.8 27.5
Q 60.65 26.25 59.65 23.75 60.0814453125 25.52578125 60.45 27
M 61.4 19.8
L 61.3 19.9 60.55 20.75 60 21.4 60.1 21.65 61.25 21.5 61.55 21.5 61.4 19.8 Z"/>

<path fill="#FFFFFF" stroke="none" d="
M 60.7 28
L 60.65 27.9
Q 61.2189453125 30.4337890625 61.6 32 61.7021484375 30.6728515625 61.75 29.4 61.7263671875 29.3740234375 61.7 29.35 61.15 28.75 60.7 28
M 61.6 21.9
L 61.25 21.5 60.1 21.65 60 21.4 60.55 20.75 58.45 18.55 58.7 19.75
Q 59.20859375 21.9115234375 59.65 23.75 60.65 26.25 61.8 27.5 61.8 27.2490234375 61.8 27 61.8 24.35 61.6 21.9 Z"/>

<path fill="#FF3A3A" stroke="none" d="
M 53.65 6.4
Q 54 7.25 54.4 8 56.85 12.45 58.15 17.35
L 58.45 18.55 60.55 20.75 61.3 19.9
Q 60.843359375 17.2796875 60 15.3 58.3 12.5 56.45 10 55.7 8.95 54.9 8 54.3 7.15 53.65 6.4
M 61.55 21.5
L 61.25 21.5 61.6 21.9
Q 61.5767578125 21.6982421875 61.55 21.5 Z"/>

<path fill="#585652" stroke="none" d="
M 58.35 46
Q 58.45 45.55 58.7 45.1 58.9 44.15 59.1 43.55 59.2 43 59.3 42.8 59.05 43.1 58.75 43.75 58.3 44.2 58 44.65 55.65 47.3 50.65 48.35 49.8 48.55 49.15 49.3 47.5 49.85 45.85 50.75 43.4 51.55 40.5 52.35 37.6 52.65 34.65 52.95 41.7 53.65 46.5 53.7 49.15 53.4 51.4 52.9 52.4 52.5 53.6 52.1 54.25 51.65 55.1 51.4 56.05 50.5 57.2 49.8 57.25 49.5 57.3 49.4 57.4 49.1 57.45 48.95 57.6 48.45 57.75 48.15 58.05 47 58.35 46 Z"/>

<path fill="#3C3935" stroke="none" d="
M 59.6 42.45
Q 59.57578125 42.4525390625 59.5 42.45 59.429296875 42.546484375 59.5 42.9 59.35 43.1 59.35 43.5 59 44.3 59 45.1 58.4 46.55 58.4 47.8 58.25 48.2 58.25 48.75 57.75 49.95 57.8 51.15 57.1 51.5 56.95 51.85 56.8 51.9 56.8 51.95 56.35 52.3 55.9 52.6 55.5 52.8 55.25 53.15 53.85 53.6 52.65 54.2 50.8 54.6 48.75 54.8 48.1 54.8 47.6 54.8 41.8 54.85 33.15 53.3 32.9 53.05 33 53.2 30.7 52.35 28.6 51.65 26.95 50.85 25.3 50.2
L 25.25 50.1
Q 25.15 50 25.05 50.1 25.15 52.3 25.65 54.45 25.9 57.3 26.7 57.75 30.5 58.6 33.85 59 39.7 59.35 44.3 58.65 49.3 57.75 52.45 56.2 53.45 55.5 54.65 54.8 54.8 54.7 54.95 54.6 55.3 54.2 55.65 54 55.7 53.7 56.15 53.55 56.5 53 56.8 53 56.9 52.6 57.15 52.6 57.4 53.05 57.85 53.85 57.8 53.9 57.9 53.95 57.9 54.2 58.1 54.4 58.4 54.65 58.45 55.25 57.2 57.05 55.9 59 55.6 59 55.7 59.15 55.2 59.5 54.7 60.25 53.4 61.6 51.85 62.9 50.45 63.95 48.85 65 48 65.35 47.3 65.85 47.55 65.7 47.8 65.9 48.2 65.5 48.8 65.25 50.6 64.3 52.2 62.95 52.6 62.65 53 62.3 54.95 60.1 57.1 58.05 57.8 56.7 58.85 55.5 58.85 54.9 59.25 54.3 59 53.85 59.3 53.8 59.75 50.55 60.15 47.5 60.15 46.3 60.15 45.45 60.15 44.6 60.35 43.75 60.05 44.4 59.9 43.85 59.8 43.45 59.85 43.4 59.6 43.05 59.7 42.7 59.628515625 42.4853515625 59.6 42.45 Z"/>
</g>

<g id="_______227_0_Layer0_0_FILL">
<path fill="#201E1B" stroke="none" d="
M 39.45 -8.55
Q 38.15 -9.45 36.15 -8.4
L 35.9 -8.35 35.8 -8.3
Q 29.95 -5.5 24.45 -2.55
L 24.45 -2.6
Q 6.7 6.5 -8.4 16.5
L -8.45 16.5 -9.75 17.45 -9.75 19.9 5.5 22.2
Q 4.65 25.45 2.25 29.85 -0.55 34.85 -4.8 38.7
L -5.7 39.5 -4.75 40.25
Q -3.25 41.45 -1.55 42.25
L -1.6 42.25 -1.25 42.45
Q -0.8 42.7 -0.3 42.9 -0.3 42.95 -0.3 43 -0.45 44.2 0.8 45
L 0.9 45.1 1 45.15
Q 1.55 45.5 2.1 45.95
L 2.15 46
Q 7.65 49.7 10.55 50.55 11.3 50.8 11.9 50.9 13.25 52.85 14.75 54.85 15.95 56.6 17.7 58.5 17.75 58.55 17.85 58.7 17.9 58.8 18.1 59 18.55 59.55 19.15 60.4
L 19.25 60.55 19.4 60.65
Q 19.7 60.85 20.15 61.05 21.1 61.9 22.6 62.6 28.45 67.55 47.85 66.9
L 48.2 66.9 48.5 66.6
Q 48.75 66.35 49.2 66.2
L 49.3 66.15
Q 51.15 65.15 52.85 63.75
L 52.8 63.75
Q 53.25 63.45 53.65 63.05
L 53.7 63 53.75 63
Q 55.7 60.8 57.8 58.8
L 58 58.5
Q 58.65 57.25 59.6 56.15
L 59.85 55.9 59.85 55.5
Q 59.85 55.2 60.1 54.85
L 60.45 54.35 60.3 54.1 60.3 53.95
Q 60.75 50.7 61.15 47.65
L 61.15 47.5
Q 61.15 46.3 61.15 45.45 61.15 44.8 61.1 42.75
L 61.1 41.3 59.75 41.85
Q 58.8 42.2 58.65 42.35
L 58.6 42.35
Q 58.55 42.4 58.45 42.45 58.1 42.5 57.7 42.75
L 57.65 42.8
Q 56.3 43.45 54.75 44.25 53.2 44.6 51.5 45.1 51 45.15 50.55 45.3 40 46.3 34.6 40.75 33.9 39.15 33.55 37.75
L 33.5 37.75
Q 32 32.4 33.9 28
L 46 31.5 45.95 31.5
Q 48.65 32.35 51.3 33.3 53.8 34.3 56.4 35.3
L 56.35 35.3
Q 57.95 35.95 59.5 36.8
L 59.55 36.8
Q 60.35 37.2 61.25 37.25
L 61.3 37.25
Q 61.85 37.25 62.45 36.85
L 62.4 36.9 63.1 36.35 63.1 36.3
Q 63.15 36.25 63.25 36.2 65.05 34.15 66.1 31 66.7 29.2 67.05 27.05 67.25 25.55 66.95 24.5 59.7 9.55 47.85 -1.7 44.6 -4.8 41.05 -7.6 41 -7.65 40.95 -7.65
L 40.85 -7.7 40.85 -7.75 39.5 -8.55 39.45 -8.55
M 36.2 -7.4
L 36.55 -7.5
Q 38 -8.25 38.95 -7.7
L 39.6 -7.3
Q 39.9009765625 -7.126953125 40.2 -6.95
L 40.25 -6.9
Q 40.75 -6.45 41.25 -5.95 41.45 -5.75 41.65 -5.6 48.05 -0.45 53.65 6.4 54.3 7.15 54.9 8 55.7 8.95 56.45 10 58.3 12.5 60 15.3 60.4 15.85 60.8 16.5 60.9 16.65 61.05 16.85 61.9 18.25 62.8 19.8 62.85 19.9 62.9 20.1 64.1 22.15 65.25 24.35 65.55 25 65.9 25.6 65.9 26.3 65.8 27 65.55 30.3 64.55 32.55 64.25 33.1 63.95 33.7 63.55 34.3 63.15 34.8 62.35 35.45 61.55 35.95
L 61.35 36 61.1 36
Q 60.45 35.9 59.9 35.65 58.3 34.8 56.7 34.1 56.2 33.85 55.6 33.7 54 33 52.3 32.3 51.9 32.1 51.5 32 48.9 30.95 46.15 30.1
L 43.9 29.35
Q 42.75 28.95 41.55 28.6 41.45 28.5 41.25 28.5 39.05 27.75 36.85 27.15
L 33.6 26.3
Q 30.7169921875 31.4931640625 32.55 38 32.95 39.55 33.75 41.3 39.45 47.4 50.75 46.3 51.25 46.1 51.75 46.05 53.55 45.55 55.1 45.2 56.75 44.35 58.15 43.65 58.5 43.45 58.8 43.2 58.95 43 59.3 42.8 59.37578125 42.534375 59.5 42.45 59.57578125 42.4525390625 59.6 42.45
L 59.65 42.45
Q 59.95 43.15 60.2 43.2 60.1 43.45 60.35 43.7
L 60.35 43.75
Q 60.15 44.6 60.15 45.45 60.15 46.3 60.15 47.5 59.75 50.55 59.3 53.8 59 53.85 59.25 54.3 58.85 54.9 58.85 55.5 57.8 56.7 57.1 58.05 54.95 60.1 53 62.3 52.6 62.65 52.2 62.95 50.6 64.3 48.8 65.25 48.2 65.5 47.8 65.9 28.9 66.55 23.2 61.8 21.65 61.1 20.7 60.2 20.25 60 19.95 59.8 19.3 58.9 18.85 58.35 18.55 58 18.6 58 16.8 56.05 15.55 54.25 13.93984375 52.1029296875 12.45 49.9 11.7984375 49.923828125 10.85 49.6 8.05 48.75 2.7 45.15 2.15 44.7 1.5 44.3
L 1.35 44.15
Q 0.65 43.7 0.7 43.05 0.7 42.85 0.8 42.7
L 0.8 42.5 0.9 42.25
Q 0 41.95 -0.8 41.55
L -1.15 41.35
Q -2.7 40.6 -4.15 39.45 0.25 35.5 3.1 30.3 6 25.05 6.7 21.35
L -8.75 19.05 -8.75 18.4 -8.75 17.95 -7.85 17.3
Q 7.2 7.35 24.9 -1.7 30.4 -4.6 36.2 -7.4
M 26.9 24.5
L 26.5 24.4 8.25 20.95 8.15 22.45 8.4 21.6 14.7 22.65 19.5 23.65
Q 23.19921875 24.05703125 26.9 24.5
M 44.95 29.25
L 44.2 29
Q 43.4580078125 28.7953125 42.7 28.55 43.425 28.8 44.15 29
L 46.4 29.75
Q 49.45 30.8 52.3 31.85 49.5 30.7 46.5 29.75
L 44.95 29.25
M 54.3 32.6
Q 53.79453125 32.423046875 53.3 32.2 53.775 32.425 54.25 32.6 55.7 33.1 57.05 33.7 57.7 33.95 58.4 34.25 59.1 34.55 59.85 34.9
L 59.9 34.95
Q 60.4 35.25 60.85 35.3
L 60.9 35.3
Q 60.45 35.25 59.95 34.95
L 59.9 34.9
Q 59.15 34.55 58.45 34.25 57.75 33.95 57.15 33.7 55.75 33.1 54.3 32.6 Z"/>

<path fill="#FC3030" stroke="none" d="
M 35.6 1.55
L 32 4.7 29.95 4.7 27.15 4.7 29.3 7.1 27.2 7.1 27.95 9.05 35.6 1.55 Z"/>

<path fill="#4F0000" stroke="none" d="
M 33.3 7.85
L 31.35 7.85 24.05 16.5 32.95 8.15 33.3 7.85 Z"/>

<path fill="#8E0000" stroke="none" d="
M 37.55 5.45
L 35.45 4.45 38.25 -0.25 31.35 7.85 33.3 7.85 33.9 7.3 34.9 5.45 37.55 5.45
M 48.7 24.15
Q 45.1 20.9 41.25 17.05 39.8 15.55 38.3 13.95 35.46484375 10.9822265625 32.95 8.15
L 24.05 16.5 23.85 16.65 28.1 9.45 27.95 9.05 27.2 7.1 29.3 7.1 27.15 4.7 29.95 4.7
Q 29.3705078125 3.9943359375 28.8 3.3
L 26.65 0.6
Q 19.85 3.3 11.4 8 9.45 9.05 7.45 10.25 3.65 12.45 0.9 14.1 -3.7 16.95 -5.65 18.4
L -4.65 18.55
Q 0.05 14.9 5.3 11.7 16 5.2 24.7 3.7
L 24.75 3.65
Q 24.7 3.95 24.55 4.25 24 5.4 23.75 6.15 22.3 9.85 21.25 17.6 21 19.5 20.8 21.45
L 20.8 21.7
Q 30 23.2 39.75 26.05 40.5 26.3 41.25 26.55 43.25 27.15 45.35 27.8
L 48.7 24.15
M 44.3 28.95
L 44.95 29.2 46 28.05 45.35 27.8 44.3 28.95
M 48.7 24.15
L 49 24.55 49.05 24.55 55.3 17.2 48.7 24.15 Z"/>

<path fill="#E20000" stroke="none" d="
M 38.25 -0.25
L 38.85 -1.35 35.6 1.55 27.95 9.05 28.1 9.45 23.85 16.65 24.05 16.5 31.35 7.85 38.25 -0.25
M 61.8 27.5
L 61.7 29.35
Q 61.7263671875 29.3740234375 61.75 29.4 62.8775390625 30.4091796875 64.05 30.8
L 65.5 28.65
Q 63.4 29.4 61.8 27.5
M 59.65 23.75
Q 59.15 22.45 58.65 20.75
L 57.75 20.95
Q 59.6 24.3 58.45 27.45
L 58.9 29.45
Q 59.45 28.2 59.9 26.75
L 60.65 27.9 60.7 28 60.45 27
Q 60.0814453125 25.52578125 59.65 23.75
M 61.05 16.85
Q 60.9 16.65 60.8 16.5 60.4 15.85 60 15.3 60.843359375 17.2796875 61.3 19.9
L 61.4 19.8 61.55 21.5
Q 61.5767578125 21.6982421875 61.6 21.9
L 65.1 25.55
Q 65.2 25 65.25 24.35 64.1 22.15 62.9 20.1 62.85 19.9 62.8 19.8 61.9 18.25 61.05 16.85
M 41.65 -5.6
Q 43.4 -3.85 45.1 -1.7 46.25 -0.25 47.3 1.25
L 48.45 3
Q 49.8 5.2 51.1 7.6 51.9 9.25 52.7 10.95 53.8 13.25 54.8 15.8
L 55.3 17.2 56.1 16.25 56.25 16.25
Q 56.35 16.3 56.5 16.35
L 58.45 18.55 58.15 17.35
Q 56.85 12.45 54.4 8 54 7.25 53.65 6.4 48.05 -0.45 41.65 -5.6 Z"/>

<path fill="#B80000" stroke="none" d="
M 39 -7.65
L 38.95 -7.65
Q 38 -8.2 36.55 -7.4 30.5 -4.25 24.75 -1.1 7.8 8.25 -6.75 18.2
L -5.65 18.4
Q -3.7 16.95 0.9 14.1 3.65 12.45 7.45 10.25 9.45 9.05 11.4 8 19.85 3.3 26.65 0.6
L 28.8 3.3
Q 29.3705078125 3.9943359375 29.95 4.7
L 32 4.7 35.6 1.55 38.85 -1.35 38.25 -0.25 35.45 4.45 37.55 5.45 34.9 5.45 33.9 7.3 33.3 7.85 32.95 8.15
Q 35.46484375 10.9822265625 38.3 13.95 39.8 15.55 41.25 17.05 45.1 20.9 48.7 24.15
L 55.3 17.2 54.8 15.8
Q 53.8 13.25 52.7 10.95 51.9 9.25 51.1 7.6 49.8 5.2 48.45 3
L 47.3 1.25
Q 46.25 -0.25 45.1 -1.7 43.4 -3.85 41.65 -5.6 41.45 -5.75 41.25 -5.95 40.75 -6.45 40.25 -6.9
L 40.2 -6.95
Q 39.9009765625 -7.126953125 39.6 -7.3
L 39 -7.65
M 58.45 27.45
L 58.4 27.5
Q 57.803515625 29.1130859375 56.35 30.7 56.3025390625 30.7923828125 56.25 30.85
L 56.7 31 57.9 31.45
Q 58.4419921875 30.464453125 58.85 29.45
L 58.9 29.45 58.45 27.45
M 53.8 20.5
L 53.3 22.4
Q 55.6 23.05 56.45 23.35
L 56.6 22.7 53.8 20.5
M 44.3 28.95
L 45.35 27.8
Q 43.25 27.15 41.25 26.55 40.5 26.3 39.75 26.05 30 23.2 20.8 21.7 16.65 21 12.6 20.65
L 6 20.2 24.15 23.55
Q 26.85 24.15 29.4 24.8 29.4546875 24.81328125 29.5 24.8
L 29.55 24.8
Q 30.8884765625 25.161328125 32.2 25.5 33.0109375 25.70546875 33.8 25.9 37.6443359375 26.9150390625 41.25 28 42.75 28.45 44.3 28.95 Z"/>

<path fill="#CFCBD7" stroke="none" d="
M 59.65 33.25
L 59.6 32.9
Q 59.2578125 31.189453125 58.85 29.45 58.4419921875 30.464453125 57.9 31.45
L 56.7 31
Q 58.23046875 32.2009765625 59.65 33.25
M 55.55 17.85
L 49.2 24.65
Q 50.75 26.1 52.3 27.45 54.391796875 29.1931640625 56.35 30.7 57.803515625 29.1130859375 58.4 27.5 58.3701171875 27.2453125 58.3 27 57.2 22.4 55.55 17.85
M 53.3 22.4
L 53.8 20.5 56.6 22.7 56.45 23.35
Q 55.6 23.05 53.3 22.4
M 19.5 23.65
L 14.7 22.65 10.9 34
Q 10.0349609375 36.6791015625 9.45 38.3 7.5642578125 43.419921875 8.4 37.95
L 8.4 36.65
Q 9.5 29.5 6.7 35.8
L 6.7 35.7 5.35 38.9
Q 3.85 42.45 2.7 45.15 8.05 48.75 10.85 49.6
L 15.5 34.55
Q 15.8 33.45 16.75 30.8 16.78828125 30.693359375 16.8 30.6 17.0796875 29.9560546875 17.05 30.6 16.9626953125 31.99453125 15.6 39.1
L 14.15 46.85 14.15 47.45 17.45 49.6 18 46.3
Q 19.65 37.35 20.35 30.95
L 20.35 30.65
Q 20.7 27.05 20.85 24.35
L 29.35 26.1 29.55 25.8 19.5 23.65 Z"/>

<path fill="#FF5454" stroke="none" d="
M 60.45 27
L 60.7 28
Q 61.15 28.75 61.7 29.35
L 61.8 27.5
Q 60.65 26.25 59.65 23.75 60.0814453125 25.52578125 60.45 27
M 61.4 19.8
L 61.3 19.9 60.55 20.75 60 21.4 60.1 21.65 61.25 21.5 61.55 21.5 61.4 19.8 Z"/>

<path fill="#FFFFFF" stroke="none" d="
M 60.7 28
L 60.65 27.9
Q 61.2189453125 30.4337890625 61.6 32 61.7021484375 30.6728515625 61.75 29.4 61.7263671875 29.3740234375 61.7 29.35 61.15 28.75 60.7 28
M 61.6 21.9
L 61.25 21.5 60.1 21.65 60 21.4 60.55 20.75 58.45 18.55 58.7 19.75
Q 59.20859375 21.9115234375 59.65 23.75 60.65 26.25 61.8 27.5 61.8 27.2490234375 61.8 27 61.8 24.35 61.6 21.9 Z"/>

<path fill="#F3F3F3" stroke="none" d="
M 58.9 29.45
L 58.85 29.45
Q 59.2578125 31.189453125 59.6 32.9
L 59.65 33.25
Q 55.85 31.65 52.3 30.35 49.25 29.2 46.3 28.2
L 46.05 28.05 44.95 29.25 46.5 29.75
Q 49.5 30.7 52.3 31.85 52.797265625 32.048828125 53.3 32.2 53.79453125 32.423046875 54.3 32.6 55.75 33.1 57.15 33.7 57.75 33.95 58.45 34.25 58.85 34.35 60 34.7 61.3 34.95 62.55 34.05 62.85 33.85 63.1 33.7 63.19375 33.6375 63.3 33.55 63.34375 33.5375 63.4 33.5 63.6 33.35 63.8 33.2
L 64 33.05 64.2 32.85
Q 64.25 32.8 64.3 32.75
L 64.55 32.55
Q 65.55 30.3 65.8 27 65.9 26.3 65.9 25.6 65.55 25 65.25 24.35 65.2 25 65.1 25.55
L 61.6 21.9
Q 61.8 24.35 61.8 27 61.8 27.2490234375 61.8 27.5 63.4 29.4 65.5 28.65
L 64.05 30.8
Q 62.8775390625 30.4091796875 61.75 29.4 61.7021484375 30.6728515625 61.6 32 61.2189453125 30.4337890625 60.65 27.9
L 59.9 26.75
Q 59.45 28.2 58.9 29.45
M 49.05 24.55
L 49.2 24.65 55.55 17.85
Q 57.2 22.4 58.3 27 58.3701171875 27.2453125 58.4 27.5
L 58.45 27.45
Q 59.6 24.3 57.75 20.95
L 58.65 20.75
Q 59.15 22.45 59.65 23.75 59.20859375 21.9115234375 58.7 19.75
L 58.45 18.55 56.5 16.35
Q 56.35 16.3 56.25 16.25
L 56.1 16.25 55.3 17.2 49.05 24.55
M 26.85 30.45
L 29.35 26.1 20.85 24.35
Q 20.7 27.05 20.35 30.65
L 20.35 30.95
Q 19.65 37.35 18 46.3
L 17.45 49.6 18.2 50.05
Q 18.2 50.3 18.25 50.05 20.2 51 20.65 50.3 23.1544921875 37.4470703125 26.45 31.15 26.655078125 30.793359375 26.85 30.45
M 16.8 30.6
Q 16.78828125 30.693359375 16.75 30.8 15.8 33.45 15.5 34.55
L 10.85 49.6
Q 11.7984375 49.923828125 12.45 49.9 13.20078125 49.9298828125 13.55 49.5 13.5560546875 49.44609375 13.55 49.35 13.6658203125 48.8583984375 14.15 47.45
L 14.15 46.85 15.6 39.1
Q 16.9626953125 31.99453125 17.05 30.6 17.0796875 29.9560546875 16.8 30.6 Z"/>

<path fill="#BFBAC9" stroke="none" d="
M 49.2 24.65
L 49.05 24.55 46.05 28.05 46.3 28.2
Q 49.25 29.2 52.3 30.35 55.85 31.65 59.65 33.25 58.23046875 32.2009765625 56.7 31
L 56.25 30.85
Q 56.3025390625 30.7923828125 56.35 30.7 54.391796875 29.1931640625 52.3 27.45 50.75 26.1 49.2 24.65
M 14.7 22.65
L 8.4 21.6 8.15 22.45 7.25 25.85 1.25 41.75 1.2 41.75 0.8 42.5 0.8 42.7
Q 0.7 42.85 0.7 43.05 0.65 43.7 1.35 44.15
L 1.5 44.3
Q 2.15 44.7 2.7 45.15 3.85 42.45 5.35 38.9
L 6.7 35.7 6.7 35.8
Q 9.5 29.5 8.4 36.65
L 8.4 37.95
Q 7.5642578125 43.419921875 9.45 38.3 10.0349609375 36.6791015625 10.9 34
L 14.7 22.65
M 60 34.7
Q 58.85 34.35 58.45 34.25 59.15 34.55 59.9 34.9
L 59.95 34.95
Q 60.45 35.25 60.9 35.3
L 61.1 35.25
Q 61.15 35.25 61.3 35.25 61.65 35.15 62.05 34.6 62.6 34.1 63.15 33.7 63.225 33.625 63.3 33.55 63.19375 33.6375 63.1 33.7 62.85 33.85 62.55 34.05 61.3 34.95 60 34.7 Z"/>

<path fill="#FF3A3A" stroke="none" d="
M 53.65 6.4
Q 54 7.25 54.4 8 56.85 12.45 58.15 17.35
L 58.45 18.55 60.55 20.75 61.3 19.9
Q 60.843359375 17.2796875 60 15.3 58.3 12.5 56.45 10 55.7 8.95 54.9 8 54.3 7.15 53.65 6.4
M 61.55 21.5
L 61.25 21.5 61.6 21.9
Q 61.5767578125 21.6982421875 61.55 21.5 Z"/>

<path fill="#606686" stroke="none" d="
M 20.7 60.2
Q 21.65 61.1 23.2 61.8 28.9 66.55 47.8 65.9 47.55 65.7 47.3 65.85 30.4 64.65 25.9 62.2 23.45 60.85 21.2 59.65 20.95 59.5 20.7 59.15 20.45 58.85 20.2 58.55 20 58.35 19.8 58.15 19.35 57.65 19.25 57.35 16.6279296875 54.35859375 13.55 49.35 13.5560546875 49.44609375 13.55 49.5 13.20078125 49.9298828125 12.45 49.9 13.93984375 52.1029296875 15.55 54.25 16.8 56.05 18.6 58 18.55 58 18.85 58.35 19.3 58.9 19.95 59.8 20.25 60 20.7 60.2
M 36.55 -7.5
L 36.2 -7.4
Q 30.4 -4.6 24.9 -1.7 7.2 7.35 -7.85 17.3
L -8.75 17.95 -8.75 18.4 8.25 20.95 26.5 24.4 28.9 24.95 29.35 25 29.4 25
Q 29.790625 25.090625 30.15 25.2 31.154296875 25.4291015625 32.1 25.65 32.9271484375 25.86796875 33.7 26.05 37.6181640625 27.05234375 41.25 28.15 41.9787109375 28.372265625 42.7 28.55 43.4580078125 28.7953125 44.2 29
L 44.95 29.25 46.05 28.05 46 28.05 44.95 29.2 44.3 28.95
Q 42.75 28.45 41.25 28 37.6443359375 26.9150390625 33.8 25.9 33.0109375 25.70546875 32.2 25.5 30.8884765625 25.161328125 29.55 24.8
L 29.5 24.8
Q 29.4546875 24.81328125 29.4 24.8 26.85 24.15 24.15 23.55
L 6 20.2 -4.65 18.55 -5.65 18.4 -6.75 18.2
Q 7.8 8.25 24.75 -1.1 30.5 -4.25 36.55 -7.4 38 -8.2 38.95 -7.65
L 39 -7.65 39.6 -7.3 38.95 -7.7
Q 38 -8.25 36.55 -7.5 Z"/>

<path fill="#2E2B27" stroke="none" d="
M 14.15 47.45
Q 13.6658203125 48.8583984375 13.55 49.35 16.6279296875 54.35859375 19.25 57.35 19.35 57.65 19.8 58.15 20 58.35 20.2 58.55 20.45 58.85 20.7 59.15 20.95 59.5 21.2 59.65 23.45 60.85 25.9 62.2 30.4 64.65 47.3 65.85 48 65.35 48.85 65 50.45 63.95 51.85 62.9 53.4 61.6 54.7 60.25 55.2 59.5 55.7 59.15 55.6 59 55.9 59 57.2 57.05 58.45 55.25 58.4 54.65 58.1 54.4 57.9 54.2 57.9 53.95 57.8 53.9 57.85 53.85 57.4 53.05 57.15 52.6 56.9 52.6 56.8 53 56.5 53 56.15 53.55 55.7 53.7 55.65 54 55.3 54.2 54.95 54.6 54.8 54.7 54.65 54.8 53.45 55.5 52.45 56.2 49.3 57.75 44.3 58.65 39.7 59.35 33.85 59 30.5 58.6 26.7 57.75 25.9 57.3 25.65 54.45 25.15 52.3 25.05 50.1
L 25.1 49.85
Q 24.7 48.55 24.85 47.45 25.05 42.5 26.25 38.1 26.8 35.7 27.55 33.45 27.25 32.45 27.3 31.2 26.881640625 31.1798828125 26.45 31.15 23.1544921875 37.4470703125 20.65 50.3 20.2 51 18.25 50.05 18.2 50.3 18.2 50.05
L 17.45 49.6 14.15 47.45
M 39.4 62.95
Q 38 62.8 36.15 62.4 51.2 61.9 55.2 56.6 54.35 57.8 53.85 58.95 51.5 62.55 49.95 63.1 48.303125 63.584375 41 63.05
L 40.55 63.05
Q 39.9 63 39.4 62.95
M 28.05 39.7
Q 27.1 48.3 34.95 51.3 28.8 46 28.05 39.7
M 59.3 42.8
Q 58.95 43 58.8 43.2 58.5 43.45 58.15 43.65 56.75 44.35 55.1 45.2 53.55 45.55 51.75 46.05 51.25 46.1 50.75 46.3 39.45 47.4 33.75 41.3 32.95 39.55 32.55 38 30.7169921875 31.4931640625 33.6 26.3
L 32 25.85
Q 29.4005859375 31.358203125 31.05 38.05 31.45 39.95 32.45 42.45 36.85 49.3 50.6 48.35
L 50.65 48.35
Q 55.65 47.3 58 44.65 58.3 44.2 58.75 43.75 59.05 43.1 59.3 42.8
M 59.6 42.45
Q 59.628515625 42.4853515625 59.7 42.7 59.6 43.05 59.85 43.4 59.8 43.45 59.9 43.85 60.05 44.4 60.35 43.75
L 60.35 43.7
Q 60.1 43.45 60.2 43.2 59.95 43.15 59.65 42.45
L 59.6 42.45 Z"/>

<path fill="#3F3B35" stroke="none" d="
M 41 63.05
Q 48.303125 63.584375 49.95 63.1 51.5 62.55 53.85 58.95 49.7125 63.476953125 41 63.05 Z"/>

<path fill="#4D4A46" stroke="none" d="
M 36.15 62.4
Q 38 62.8 39.4 62.95 39.9 63 40.55 63.05
L 41 63.05
Q 49.7125 63.476953125 53.85 58.95 54.35 57.8 55.2 56.6 51.2 61.9 36.15 62.4
M 49.15 49.3
Q 49.8 48.55 50.65 48.35
L 50.6 48.35
Q 36.85 49.3 32.45 42.45 31.45 39.95 31.05 38.05 29.4005859375 31.358203125 32 25.85
L 26.9 24.5
Q 23.19921875 24.05703125 19.5 23.65
L 29.55 25.8 29.35 26.1 26.85 30.45
Q 26.655078125 30.793359375 26.45 31.15 26.881640625 31.1798828125 27.3 31.2 27.25 32.45 27.55 33.45 26.8 35.7 26.25 38.1 25.05 42.5 24.85 47.45 24.7 48.55 25.1 49.85
L 25.05 50.1
Q 25.15 50 25.25 50.1 26.85 50.65 28.6 51.2 30.6 51.95 32.75 52.5 33.7 52.75 34.65 52.95 37.6 52.65 40.5 52.35 43.4 51.55 45.85 50.75 47.5 49.85 49.15 49.3
M 28.05 39.7
Q 32.1 44 34.95 51.3 27.1 48.3 28.05 39.7
M 29.35 25
Q 29.764453125 25.09609375 30.15 25.2 29.790625 25.090625 29.4 25
L 29.35 25 Z"/>

<path fill="#706D69" stroke="none" d="
M 34.95 51.3
Q 32.1 44 28.05 39.7 28.8 46 34.95 51.3
M 59.5 42.45
Q 59.37578125 42.534375 59.3 42.8 59.2 43 59.1 43.55 58.9 44.15 58.7 45.1 58.45 45.55 58.35 46 58.05 47 57.75 48.15 57.6 48.45 57.45 48.95 57.4 49.1 57.3 49.4 57.25 49.5 57.2 49.8 56.05 50.5 55.1 51.4 54.25 51.65 53.6 52.1 52.4 52.5 51.4 52.9 49.15 53.4 46.5 53.7 41.7 53.65 34.65 52.95 33.7 52.75 32.75 52.5 30.6 51.95 28.6 51.2 26.85 50.65 25.25 50.1
L 25.3 50.2
Q 26.95 50.85 28.6 51.65 30.7 52.35 33 53.2 32.9 53.05 33.15 53.3 41.8 54.85 47.6 54.8 48.1 54.8 48.75 54.8 50.8 54.6 52.65 54.2 53.85 53.6 55.25 53.15 55.5 52.8 55.9 52.6 56.35 52.3 56.8 51.95 56.8 51.9 56.95 51.85 57.1 51.5 57.8 51.15 57.75 49.95 58.25 48.75 58.25 48.2 58.4 47.8 58.4 46.55 59 45.1 59 44.3 59.35 43.5 59.35 43.1 59.5 42.9 59.429296875 42.546484375 59.5 42.45 Z"/>

<path fill="#D4D4D4" stroke="none" d="
M 52.3 32.3
Q 54 33 55.6 33.7 56.2 33.85 56.7 34.1 58.3 34.8 59.9 35.65 60.45 35.9 61.1 36
L 61.35 36 61.55 35.95
Q 62.35 35.45 63.15 34.8 63.55 34.3 63.95 33.7 64.25 33.1 64.55 32.55
L 64.3 32.75
Q 64.25 32.8 64.2 32.85
L 64 33.05 63.8 33.2
Q 63.6 33.35 63.4 33.5 63.34375 33.5375 63.3 33.55 63.225 33.625 63.15 33.7 62.6 34.1 62.05 34.6 61.65 35.15 61.3 35.25 61.15 35.25 61.1 35.25
L 60.9 35.3 60.85 35.3
Q 60.4 35.25 59.9 34.95
L 59.85 34.9
Q 59.1 34.55 58.4 34.25 57.7 33.95 57.05 33.7 55.7 33.1 54.25 32.6 53.775 32.425 53.3 32.2 52.797265625 32.048828125 52.3 31.85 49.45 30.8 46.4 29.75
L 44.15 29
Q 43.425 28.8 42.7 28.55 41.9787109375 28.372265625 41.25 28.15 37.6181640625 27.05234375 33.7 26.05 32.9271484375 25.86796875 32.1 25.65 31.154296875 25.4291015625 30.15 25.2 29.764453125 25.09609375 29.35 25
L 28.9 24.95 26.5 24.4 26.9 24.5 32 25.85 33.6 26.3 36.85 27.15
Q 39.05 27.75 41.25 28.5 41.45 28.5 41.55 28.6 42.75 28.95 43.9 29.35
L 46.15 30.1
Q 48.9 30.95 51.5 32 51.9 32.1 52.3 32.3 Z"/>

<path fill="#A9A5AF" stroke="none" d="
M 3.1 34.7
Q 5.65 29.75 6.8 25.5 7.9 22.7 8.25 20.95
L -8.75 18.4 -8.75 19.05 6.7 21.35
Q 6 25.05 3.1 30.3 0.25 35.5 -4.15 39.45 -2.7 40.6 -1.15 41.35
L -0.8 41.55 0.25 39.55
Q 1.75 37.35 3.1 34.7 Z"/>

<path fill="#8E8898" stroke="none" d="
M 8.15 22.45
L 8.25 20.95
Q 7.9 22.7 6.8 25.5 5.65 29.75 3.1 34.7 1.75 37.35 0.25 39.55
L -0.8 41.55
Q 0 41.95 0.9 42.25
L 0.8 42.5 1.2 41.75 1.25 41.75 7.25 25.85 8.15 22.45 Z"/>

<path fill="#830202" stroke="none" d="
M 24.75 3.65
L 24.7 3.7
Q 16 5.2 5.3 11.7 0.05 14.9 -4.65 18.55
L 6 20.2 12.6 20.65
Q 16.65 21 20.8 21.7
L 20.8 21.45
Q 21 19.5 21.25 17.6 22.3 9.85 23.75 6.15 24 5.4 24.55 4.25 24.7 3.95 24.75 3.65
M 49 24.55
L 48.7 24.15 45.35 27.8 46 28.05 46.05 28.05 49.05 24.55 49 24.55 Z"/>

<path fill="#585652" stroke="none" d="
M 58.35 46
Q 58.45 45.55 58.7 45.1 58.9 44.15 59.1 43.55 59.2 43 59.3 42.8 59.05 43.1 58.75 43.75 58.3 44.2 58 44.65 55.65 47.3 50.65 48.35 49.8 48.55 49.15 49.3 47.5 49.85 45.85 50.75 43.4 51.55 40.5 52.35 37.6 52.65 34.65 52.95 41.7 53.65 46.5 53.7 49.15 53.4 51.4 52.9 52.4 52.5 53.6 52.1 54.25 51.65 55.1 51.4 56.05 50.5 57.2 49.8 57.25 49.5 57.3 49.4 57.4 49.1 57.45 48.95 57.6 48.45 57.75 48.15 58.05 47 58.35 46 Z"/>

<path fill="#3C3935" stroke="none" d="
M 59.6 42.45
Q 59.57578125 42.4525390625 59.5 42.45 59.429296875 42.546484375 59.5 42.9 59.35 43.1 59.35 43.5 59 44.3 59 45.1 58.4 46.55 58.4 47.8 58.25 48.2 58.25 48.75 57.75 49.95 57.8 51.15 57.1 51.5 56.95 51.85 56.8 51.9 56.8 51.95 56.35 52.3 55.9 52.6 55.5 52.8 55.25 53.15 53.85 53.6 52.65 54.2 50.8 54.6 48.75 54.8 48.1 54.8 47.6 54.8 41.8 54.85 33.15 53.3 32.9 53.05 33 53.2 30.7 52.35 28.6 51.65 26.95 50.85 25.3 50.2
L 25.25 50.1
Q 25.15 50 25.05 50.1 25.15 52.3 25.65 54.45 25.9 57.3 26.7 57.75 30.5 58.6 33.85 59 39.7 59.35 44.3 58.65 49.3 57.75 52.45 56.2 53.45 55.5 54.65 54.8 54.8 54.7 54.95 54.6 55.3 54.2 55.65 54 55.7 53.7 56.15 53.55 56.5 53 56.8 53 56.9 52.6 57.15 52.6 57.4 53.05 57.85 53.85 57.8 53.9 57.9 53.95 57.9 54.2 58.1 54.4 58.4 54.65 58.45 55.25 57.2 57.05 55.9 59 55.6 59 55.7 59.15 55.2 59.5 54.7 60.25 53.4 61.6 51.85 62.9 50.45 63.95 48.85 65 48 65.35 47.3 65.85 47.55 65.7 47.8 65.9 48.2 65.5 48.8 65.25 50.6 64.3 52.2 62.95 52.6 62.65 53 62.3 54.95 60.1 57.1 58.05 57.8 56.7 58.85 55.5 58.85 54.9 59.25 54.3 59 53.85 59.3 53.8 59.75 50.55 60.15 47.5 60.15 46.3 60.15 45.45 60.15 44.6 60.35 43.75 60.05 44.4 59.9 43.85 59.8 43.45 59.85 43.4 59.6 43.05 59.7 42.7 59.628515625 42.4853515625 59.6 42.45 Z"/>
</g>
</defs>

<g transform="matrix( 1, 0, 0, 0.876708984375, 9.75,7.85) ">
<g transform="matrix( 1, 0, 0, 1, 0,0) ">
<use xlink:href="#_______227_0_Layer1_0_FILL"/>
</g>

<g transform="matrix( 1, 0, 0, 1, 0,0) ">
<use xlink:href="#_______227_0_Layer0_0_FILL"/>
</g>
</g>
</svg>
