
<svg xmlns="http://www.w3.org/2000/svg" version="1.1" xmlns:xlink="http://www.w3.org/1999/xlink" preserveAspectRatio="none" x="0px" y="0px" width="73px" height="60px" viewBox="0 0 73 60">
<defs>
<g id="_______466_0_Layer1_0_FILL">
<path fill="#515356" stroke="none" d="
M 0.05 148.8
L 0.05 148.7 0 148.7 0.05 148.8
M 31.7 240.25
L 31.95 239.3 35.15 220.15 30.65 241.35 30.7 241.2 31.7 240.25
M 37.4 206.15
L 37.4 206.05 28.15 204.85 28.15 205.05 37.05 206.15 37.4 206.15
M 43.4 216.6
L 43.4 216.65 41 231.7 42 230.75 44.05 219.3 43.4 216.6
M 86.35 281.95
L 86.05 282.05
Q 88.45 282.1 90.85 285.45 91.35 286.3 91.65 287.25 91.85 287.85 91.95 288.55
L 91.95 290.45
Q 91.75 291.95 90.9 293.25 90.55 293.7 90.15 294.15
L 88.25 295.6 90.95 294.6 91.45 294.15
Q 91.8 293.75 92.1 293.45 93.15 292.1 93.45 290.45
L 93.45 288.55 93.35 288.05
Q 93.2 287.55 93.05 287.05 92.7 286.25 92.2 285.45
L 90.6 283.7
Q 88.75 282.1 86.9 282.05
L 86.35 281.95
M 79.5 145.85
Q 79.6 145.75 79.7 145.65 76.8 146.2 73.6 146.8 71.9 148.95 70.2 151.25 62.6 161.6 59.15 169.7 55.8 177.45 56.2 183.3 56.3 184.8 56.7 186.25 56.95 186.95 57.4 187.65 58.75 189.6 61.85 191.05 66.55 193.25 75.3 194.3 84.2 194.65 91.85 194.1 102.05 193.35 110.05 190.95 112.25 190.25 114.35 189.5 122.4 186.35 127.85 181.35 129.55 179.75 131.05 178 131.7 177.15 132.35 176.25 135.15 172.35 136.8 167.6 137.5 164.9 138.05 162.3 138.4 160.5 138.75 158.8 138.2 161.2 137.6 163.65 137.45 164.3 137.3 164.95 136.7 166.55 135.95 168.15 134.7 170.8 133 173.1 132.5 173.75 132 174.35 130.65 176 129.1 177.45 124.1 182.05 116.75 184.9 114.85 185.6 112.8 186.25 105.5 188.45 96.2 189.1 89.2 189.65 81.05 189.3 67.75 187.7 64.7 183.25 64.3 182.55 64.05 181.9 63.2 178.8 63.85 174.9 65.1 166.6 72.95 154.85 74.05 153.25 75.25 151.5 75.8 150.75 76.4 150 76.75 149.5 77.1 149.05 78.3 147.4 79.5 145.85 Z"/>

<path fill="#000000" stroke="none" d="
M 373.85 246.4
Q 373.5 245.45 372.9 244.7
L 293.7 143.95 293.6 137.8
Q 293.6 137.7 293.6 137.65 293.15 123.65 291.5 111.15
L 291.5 111.05 289.95 101.3 289.9 101.25
Q 288.75 94.5 287.2 88.25 287.2 88.2 287.2 88.15
L 285.05 80.45
Q 285 80.35 285 80.3 284.4 78.4 283.85 76.65 283.8 76.6 283.8 76.55 282 71.25 279.95 66.4
L 279.95 66.35
Q 278.75 63.6 277.55 61.05 277.5 61 277.5 60.95 273.55 52.85 268.7 45.95
L 268.7 46
Q 264.9 40.65 260.6 35.95 257.05 32.05 253.15 28.65
L 253.1 28.65
Q 241.65 18.85 227.1 12.65
L 227.05 12.65
Q 221.85 10.45 216.45 8.8
L 216.4 8.75 210.35 6.9
Q 210.2 6.85 210.1 6.8 198.85 3.7 186.5 2.3 186.25 2.25 186 2.25
L 167.15 1.05
Q 166.75 1 166.35 1
L 159.9 1.2
Q 159.5 1.2 159.05 1.3
L 152.05 2.1
Q 151.9 2.05 151.75 2 149.35 0.9 145.5 0.5 145.25 0.45 145.1 0.45
L 140.15 0.05
Q 139.65 0 139.15 0
L 127.3 0.4
Q 126.95 0.4 126.6 0.5
L 115.85 1.7
Q 115.35 1.75 114.85 1.9
L 107.45 3.6
Q 106.8 3.75 106.25 3.95 98.85 6.9 91.85 11.2 91.6 11.4 91.35 11.55
L 79.4 20.25
Q 78.95 20.6 78.55 20.95
L 66.9 32.35
Q 66.8 32.45 66.65 32.6 63.4 36.1 60.3 40
L 60.35 39.95
Q 58.35 42.45 56.45 45.05 52.5 50.35 49.05 56 49 56.05 49 56.1 44.5 63.35 40.75 71 35.05 82.65 31 95.3 27.6 106 25.4 117.4 25.4 117.5 25.4 117.55
L 23.95 126
Q 23.9 126.35 23.85 126.65
L 21.5 139.8
Q 21.5 139.85 21.45 140.05
L 15.7 161.1
Q 15.25 162.55 15.6 164.05
L 19.75 183.15 14.85 208.05
Q 13.85 212.15 12.8 216.25 12.8 216.35 12.75 216.45
L 12.45 217.65
Q 12.35 217.95 12.25 218.25 12.25 218.35 12.2 218.5 12.15 218.65 12.1 218.85
L 12.05 219.05
Q 12 219.15 12 219.25
L 1 265.95
Q 0.8 266.65 0.8 267.35
L 0.8 270.5
Q 0.55 272 1.15 273.55 1.95 275.7 4.05 277.05 5.55 278.05 7.35 278.35
L 51.05 285.5
Q 51.35 287.25 52.75 288.75 54.85 291 58.15 291.3
L 70.2 292.4 70.35 292.95
Q 70.4 293.3 70.55 293.65 71.65 296.55 74.1 298.95 77.85 302.5 82.75 303.1
L 82.65 303.1 83.85 303.2
Q 84.5 303.3 85.15 303.3
L 85.6 303.3
Q 86.65 303.3 87.7 303.1
L 90.3 302.45 89.9 302.5
Q 90.6 302.4 91.3 302.1
L 93.5 301.3 231.95 281.05
Q 233.05 281.9 234.35 282.7 239.1 285.55 244.6 286.45 244.7 286.45 244.8 286.5
L 247.75 286.9
Q 248.55 287.05 249.4 287
L 254.5 286.8
Q 255.25 286.75 256.05 286.65
L 264 284.9 365.55 266.9 365.5 266.9
Q 372.8 265.65 375.05 261 377.65 257.4 375.7 251.2 375.65 251 375.55 250.75
L 373.85 246.4
M 366.3 248.7
L 368 253.05
Q 369.85 258.95 363.95 260
L 262.4 278 254.15 279.75 249.05 279.9 246.1 279.55
Q 242.2 278.85 238.8 276.85 236.95 275.75 235.85 274.1
L 235.35 273.3 235.25 273.35 91.25 294.5 90.95 294.6 88.25 295.6 88.2 295.65 85.6 296.25 85.15 296.25 83.95 296.1
Q 81.7 295.8 79.95 294.15 78.7 292.95 78.15 291.45
L 77.65 289.45 77.65 289.25 77.6 289.05
Q 77.55 288 77.8 287.05
L 77.85 286.8 78.1 286 58.95 284.3 59.45 279.65 8.8 271.35 8.75 271.35
Q 8.8 271.25 8.8 271.15
L 8.8 267.35 10.9 258.75 19.8 220.7 19.9 220.45
Q 19.9 220.3 20 220.1 20.05 219.8 20.15 219.55
L 20.6 217.8
Q 21.7 213.55 22.7 209.25
L 23.35 206.5
Q 25.3 197.45 26.8 188.05 27.05 186.35 27.3 184.75 26.35 185 25.5 185.45
L 27.45 183.65
Q 27.45 183.6 27.45 183.55
L 27.9 182.85 28 182.75 27.75 182.6 23.45 162.7 29.45 140.9 29.4 140.85 31.85 127.2 31.85 127.05 33.3 118.55
Q 35.4 107.55 38.7 97.2 42.6 85.05 48.1 73.8 51.7 66.4 56.05 59.4 59.35 54 63.15 48.9 64.95 46.4 66.85 44.05 69.8 40.35 72.85 37.05
L 84.5 25.65 96.45 17
Q 102.8 13.05 109.5 10.4
L 116.9 8.7 127.65 7.45 139.5 7.05 140.45 7.1 144.45 7.45
Q 146.8 7.7 148.25 8.35
L 149.5 8.95 149.5 9.3 149.5 9.55 160.15 8.25 166.6 8.05 185.45 9.25
Q 197.1 10.65 207.7 13.55
L 208.2 13.7 213.75 15.4
Q 218.8 17 223.6 19 237 24.7 247.5 33.7 251.1 36.85 254.4 40.4 258.4 44.75 261.9 49.7 266.5 56.2 270.15 63.8 271.35 66.2 272.45 68.8 274.4 73.5 276.15 78.55 276.7 80.3 277.25 82.1
L 279.4 89.75
Q 280.9 95.75 282 102.25
L 283.55 111.95
Q 285.15 124.15 285.6 137.85
L 285.75 146.2 366.3 248.7
M 69.85 286.7
Q 69.85 286.75 69.85 286.8
L 69.8 287.05 69.85 286.7
M 88.7 302.65
L 88.2 302.7 88.25 302.65
Q 88.45 302.65 88.7 302.65
M 219.8 247.1
L 219.45 246.55 220.2 248 218.4 248.15 213.65 248.65 134.95 278.1 228.4 262.3 227.75 261.2 227.75 261.25 220 247.35 219.8 247.1
M 209.7 230.5
L 207.65 227.5 127.7 255.6 162.4 245 209.7 230.5
M 205 223.55
L 205 223.5 204.9 223.55 205 223.55
M 39.15 206.35
L 38.35 206.25 38.5 206.4 39.15 206.35
M 113.7 272.2
L 113.2 272.45 166.8 253.35 130.6 257.05 129.4 257.1 123.8 257.7 123.5 257.75 127.3 267.4 113.7 272.2
M 80.1 145.55
Q 79.9 145.6 79.7 145.65 79.6 145.75 79.5 145.85 78.3 147.4 77.1 149.05 76.75 149.5 76.4 150 75.8 150.75 75.25 151.5 74.05 153.25 72.95 154.85 65.1 166.6 63.85 174.9 63.2 178.8 64.05 181.9 64.3 182.55 64.7 183.25 67.75 187.7 81.05 189.3 89.2 189.65 96.2 189.1 105.5 188.45 112.8 186.25 114.85 185.6 116.75 184.9 124.1 182.05 129.1 177.45 130.65 176 132 174.35 132.5 173.75 133 173.1 134.7 170.8 135.95 168.15 136.7 166.55 137.3 164.95 137.45 164.3 137.6 163.65 138.2 161.2 138.75 158.8
L 138.75 158.65
Q 138.75 158.6 138.8 158.45
L 138.8 158.4
Q 138.8 158.35 138.8 158.3 138.85 158.15 138.85 158 138.9 157.55 139 157.1 139 157 139.05 156.9 138 156.25 136.95 155.6
L 129.75 151.5
Q 122.3 147.45 115.35 145.35 110.6 143.9 106.1 143.25
L 103 143.05
Q 95.1 142.85 80.1 145.55
M 79.8 158.55
Q 79.8 158.45 79.85 158.4 80.85 156.95 82 155.35 82 155.25 82.1 155.2 82.55 154.55 83.05 153.9 83.1 153.8 83.15 153.75 83.4 153.4 83.65 153.1 83.75 153 83.8 152.9 84.15 152.45 84.5 152 96 150 102.5 150.1
L 105.35 150.35
Q 108.95 150.85 112.75 152 118.85 153.9 125.4 157.4
L 130.25 160.2
Q 130 161.2 129.8 162.2
L 129.75 162.3
Q 129.65 162.7 129.55 163.15 129.1 164.3 128.6 165.45 127.65 167.45 126.35 169.15 126.35 169.2 126.3 169.25 125.95 169.75 125.55 170.2 125.5 170.2 125.5 170.25 124.45 171.5 123.3 172.65
L 123.35 172.55
Q 119.4 176.15 113.65 178.45 113.6 178.45 113.55 178.45 111.95 179.05 110.25 179.55
L 110.2 179.55
Q 103.75 181.45 95.55 182.1 89.15 182.55 81.7 182.3 74.1 181.3 71.75 179.7 71.4 178 71.8 175.9
L 71.8 175.8
Q 73 168.7 79.8 158.55
M 251.9 47.3
L 245.1 41.55
Q 244.85 41.35 244.55 41.15 237.45 35.9 229.9 32.6 221.75 29.05 213.05 27.8
L 206.45 27.15 200.75 27.75
Q 195.65 28.55 190.95 30.3
L 186.55 32.2
Q 183 33.95 179.7 36.3 177.65 37.7 175.7 39.45
L 171.7 43.25
Q 167.35 47.7 163.55 53.35 157.95 61.8 154.5 71.35
L 131.95 85.95 149.25 94.95
Q 148.55 103 149 111.75
L 149.15 115 149.2 115.2 149.45 117.85 149.5 117.85 156.45 119.85
Q 166.65 123.25 176.35 129.4
L 183.1 133.8
Q 179.5 122.75 177.25 112.5 175 101.7 174.15 91.65
L 173.8 85.9 174.05 86.9 174.05 86.95
Q 180.4 113 199.95 131.5 219.5 149.95 240.9 149.95 249.25 149.95 256 147.1 259.45 145.65 262.5 143.45 268.6 139 272.9 131.5 275.2 127.5 276.75 123.2 277.3 121.5 277.8 119.7 278.95 115.2 279.4 110.35
L 279.5 109.05 277.8 96.9 274.95 84.1 271.15 71.25 267.3 65.2
Q 263.1 59 257.9 53.35
L 257 52.4 251.9 47.3 Z"/>

<path fill="#3F3F3F" stroke="none" d="
M 167.15 182.7
L 126.5 194.9 132.15 198 167.15 182.7
M 20.3 250.75
L 24.65 251.3 26 245.5 20.3 250.75
M 36.6 235.75
L 31.7 240.25 29.3 251.85 33.25 252.35 33.3 252.2 36.6 235.75
M 49.25 241.05
L 48.6 238.35 46.15 253.9 51.65 254.5 55.5 267.35 50.15 244.95 50.1 244.7 50 244.35 49.25 241.05
M 45.85 227.2
L 42 230.75 38.1 252.95 41.8 253.35 45.85 227.2
M 84.4 281.85
Q 82.8 281.85 81.5 282.55 80.3 283 79.4 284 78.7 284.7 78.35 285.55
L 78.1 286 77.85 286.8 77.8 287.05
Q 77.55 288 77.6 289.05
L 77.65 289.25 77.65 289.45 78.15 291.45
Q 78.7 292.95 79.95 294.15 81.7 295.8 83.95 296.1
L 85.15 296.25 85.6 296.25 88.2 295.65 88.25 295.6 90.15 294.15
Q 90.55 293.7 90.9 293.25 91.75 291.95 91.95 290.45
L 91.95 288.55
Q 91.85 287.85 91.65 287.25 91.35 286.3 90.85 285.45 88.45 282.1 86.05 282.05
L 84.75 281.85 84.4 281.85
M 57.4 187.65
L 57.4 194.55 63.5 196.65
Q 67.8 198.3 71.85 200.2 81.4 204.8 89.6 211.1 106.85 224.4 117.85 245.35 120.9 251.25 123.5 257.75
L 123.8 257.7 124.1 255.4
Q 123.6 245.1 120 235 115 220.95 104.05 207.2
L 100.35 202.75
Q 97.35 199.4 94.25 196.35 93.05 195.2 91.85 194.1 84.2 194.65 75.3 194.3 66.55 193.25 61.85 191.05 58.75 189.6 57.4 187.65 Z"/>

<path fill="#141415" stroke="none" d="
M 213.65 248.65
L 218.4 248.15 217.8 247.1 213.65 248.65
M 212.5 237.15
L 209.45 231.5 130.6 257.05 166.8 253.35 212.5 237.15
M 37.4 206.15
L 37.05 206.15 28.15 205.05 28.1 205.05 20.3 250.75 27.95 236.1 27.75 236.4 28.5 234.9 26 245.5 30.65 241.35 35.15 220.15 37.75 206.25 37.8 206.2 37.65 206.15 37.4 206.15
M 50 244.35
L 50.1 244.7 61.45 239.9 62.1 239.65 52.95 235.35 50 244.35
M 41.15 212.7
L 41.15 212.75 36.6 235.75 41 231.7 43.4 216.65 41.75 209.75 41.15 212.7
M 69.15 147.75
Q 68.8 147.8 68.4 147.9 66.6 148.25 64.7 148.7
L 56.4 169.95 55.4 171.2 42.95 191.35 47 205.05 57.4 194.55 57.4 187.65
Q 56.95 186.95 56.7 186.25 56.3 184.8 56.2 183.3 55.8 177.45 59.15 169.7 62.6 161.6 70.2 151.25 71.9 148.95 73.6 146.8 71.45 147.25 69.15 147.75 Z"/>

<path fill="#7D7D7E" stroke="none" d="
M 224.3 240.6
L 227.9 246.4 224.3 240.3 224.05 240.05 220.35 234.35 224.05 240.35 224.3 240.6
M 254.15 279.75
L 262.4 278 257.3 278.15 254.35 277.75
Q 250.4 277.1 246.95 275.05 245.1 273.95 243.95 272.4
L 242.55 270.7 241.45 268.7 241.35 268.55 241.25 268.3 239.1 264.8 236.1 259.95 236.6 260.8 207.35 227.05 207.65 227.5 209.7 230.5 213.65 236.75 214.8 238.6 217.35 242.85 219.4 246.45 219.45 246.5 219.45 246.55 219.8 247.1 220 247.35 227.75 261.25 227.75 261.2 228.4 262.3 230.1 265.05 234 271.25 235.35 273.3 235.85 274.1
Q 236.95 275.75 238.8 276.85 242.2 278.85 246.1 279.55
L 249.05 279.9 254.15 279.75
M 31.7 240.25
L 30.7 241.2 28.5 251.8 29.3 251.85 31.7 240.25
M 50.1 244.7
L 56.45 244.7 61.45 239.9 50.1 244.7
M 42 230.75
L 41 231.7 37.35 252 37.3 252.85 38.1 252.95 42 230.75
M 82.95 246
L 81.7 246.25 79.35 248.1 82.95 246
M 110.05 190.95
Q 112.55 191.9 115.1 193.05 116.75 193.8 118.4 194.55
L 127.75 199.55 124.8 250.7 132.15 198 126.5 194.9
Q 123 193.1 119.5 191.55 116.9 190.45 114.35 189.5 112.25 190.25 110.05 190.95
M 25.5 185.45
Q 26.35 185 27.3 184.75 27.35 184.15 27.45 183.65
L 25.5 185.45
M 32.45 184.3
L 31.5 184.8 30.15 186.15
Q 29.55 186.8 28.8 188.35 28.25 189.5 27.65 191.1
L 26.45 199.3
Q 25.2 207.25 23.6 215.1 23.25 216.65 22.95 218.15 22.65 219.3 22.4 220.5 21.25 225.35 20.05 230.15
L 11.7 269.05 59.6 279.15
Q 59.75 278.35 60.15 277.65 60.65 276.65 61.3 276.15 62.05 275.5 62.95 275.5
L 63.1 275.5 63.85 275.7 55.05 246.3 50.15 244.95 55.5 267.35 56.3 270.25 14.2 262.95 16 256.15 28.1 205.05 28.15 205.05 28.15 204.85 37.4 206.05 37.4 206 37.45 206.05 37.8 206.15 40.95 206.4 41.75 209.75 43.4 216.65 43.4 216.6 44.05 219.3 45.85 227 48.15 236.5 45.35 253.75 46.15 253.9 48.6 238.35 49.25 241.05 51.65 234.8 42.55 204.5 39.5 186.15
Q 38.4 185.25 37.4 184.75 36.6 184.3 35.85 184.1 35.25 183.9 34.65 183.9
L 32.5 184.25 32.45 184.3
M 39.75 154.95
L 39.4 154.45 38.7 154.8 39.5 155 39.75 154.95
M 68.4 147.9
Q 68.8 147.8 69.15 147.75 71.45 147.25 73.6 146.8 76.8 146.2 79.7 145.65 79.9 145.6 80.1 145.55 95.1 142.85 103 143.05
L 93.8 142.55 81.65 142.9
Q 78.95 143.1 76.3 143.45 73.95 143.7 71.65 144.1 71.4 144.15 71.15 144.2 68.6 144.6 66.1 145.15 57.95 146.9 50.15 149.8
L 44.9 153.65 64.7 148.7
Q 66.6 148.25 68.4 147.9
M 171.2 174.7
Q 177.35 180.3 184.9 188.55
L 194 198.85
Q 202.7 208.9 210.9 220.45
L 218.05 230.85 211.15 220.4
Q 202.8 208.55 194 198.3
L 184.9 187.95
Q 177.35 179.6 171.2 173.95
L 166.05 169.45 146.1 153.85
Q 143.75 152.25 141.3 150.75 140.6 150.3 139.95 149.85 139.85 149.8 139.8 149.75 138.95 149.25 138.15 148.8 137.95 148.65 137.8 148.55
L 130.4 144.4
Q 129.95 144.2 129.5 144 127.65 143 125.9 142.15
L 124.35 141.5
Q 123.2 140.75 122.15 140.1 118.25 137.6 116 136.3 104.25 129.3 95 128.45 93.7 128.3 92.45 128.3 91.1 128.3 89.8 128.4 86.55 128.55 83.55 129.15 76.8 130.45 71.15 133.85 70.8 134.05 70.4 134.3 67.85 135.95 63.4 139.25
L 60.9 141.1 59.45 143.05 56.45 145.25 78.35 140.3
Q 78.65 140.25 78.95 140.25 82.15 139.55 85.05 139.1 89.2 138.35 92.7 137.95 98.05 137.25 101.9 137.25
L 106.45 137.45
Q 115.8 138.65 126.2 143.4 128.25 144.35 130.4 145.5
L 142.95 152.7 156.3 162.35 171.2 174.7
M 207.7 14.4
L 208.2 13.7 207.7 13.55
Q 197.1 10.65 185.45 9.25
L 166.6 8.05 160.15 8.25 149.5 9.55 149.5 9.3 147 9.55 137.85 11 137.7 11
Q 131.7 12.3 126.1 14.6 125.85 14.7 125.6 14.8 123.3 15.8 121.1 16.9 117.15 18.8 113.4 21.2 108.6 24.3 104.1 28.2 92.5 38.15 82.85 53.4 77.4 62.1 73.25 71.5
L 70.5 78.1
Q 64.45 93.45 61.75 110.7 60.65 117.45 60.1 124.5
L 59.45 143.05 66.9 130.05 66.95 129.75
Q 67.05 127.2 67.3 124.75
L 67.3 124.5 67.6 120.85
Q 69.35 103.8 74.15 88.35 79.85 69.65 90.05 53.4 97.75 41.2 106.75 32.4
L 111.3 28.2
Q 115.8 24.3 120.6 21.25 126.1 17.7 132 15.2
L 138 14.25 160.15 10.75 166.6 10.3 185.45 10.9
Q 197.1 11.8 207.7 14.4
M 250.55 37.55
Q 254.6 41.7 258.15 46.55 262.7 52.7 266.3 60
L 271.15 71.25 274.95 84.1 277.8 96.9 279.5 109.05 279.8 111.95
Q 280.95 124.15 280.9 137.85
L 280.65 160.6 277.1 161.7 266 164.15 259.85 164.25
Q 259 164.25 258.15 164.25 255.3 164.15 252.45 163.9 243.25 163.1 233.8 160.65 225.4 158.45 216.9 154.95 216.5 154.8 216.15 154.65
L 219.45 156.35
Q 226.7 159.95 233.85 162.6 242.9 165.95 251.65 167.7 254.45 168.3 257.2 168.7 258.6 168.85 259.95 169.05
L 266.1 169.55 278.05 168.25 286.9 166.2 286.35 158.3 285.85 150.05 285.75 146.2 285.6 137.85
Q 285.15 124.15 283.55 111.95
L 282 102.25
Q 280.9 95.75 279.4 89.75
L 277.25 82.1
Q 276.7 80.3 276.15 78.55 274.4 73.5 272.45 68.8 271.35 66.2 270.15 63.8 266.5 56.2 261.9 49.7 258.4 44.75 254.4 40.4 251.1 36.85 247.5 33.7 237 24.7 223.6 19 218.8 17 213.75 15.4 218.6 17.05 223.2 19 236.4 24.7 246.55 33.7
L 250.55 37.55 Z"/>

<path fill="#171717" stroke="none" d="
M 219.45 246.5
L 217.8 247.1 218.4 248.15 220.2 248 219.45 246.55 219.45 246.5
M 129.4 257.1
L 130.6 257.05 209.45 231.5 212.5 237.15 213.65 236.75 209.7 230.5 162.4 245 129.4 257.1
M 162.2 178.3
L 167.3 182.65
Q 176.5 190.65 184.8 199.3
L 188.4 203.15
Q 195.6 211 201.65 219.6
L 201.95 220
Q 202.1 220.2 202.8 220.4 197.15 212.5 191.3 205.35
L 182.6 195
Q 175.35 186.7 169.4 181
L 164.6 176.6 162.8 177.85 162.2 178.3 Z"/>

<path fill="#717172" stroke="none" d="
M 217.35 242.85
L 214.8 238.6 153.45 260.9
Q 169.45 258.5 186.1 254.25
L 217.35 242.85 Z"/>

<path fill="#3B3C3F" stroke="none" d="
M 257.3 278.15
L 262.4 278 265.1 277.4 257.15 277.6
Q 250.85 277 247.5 275.05 245.25 273.65 243.95 272.4 245.1 273.95 246.95 275.05 250.4 277.1 254.35 277.75
L 257.3 278.15 Z"/>

<path fill="#C6C6C6" stroke="none" d="
M 14.75 261.35
L 16 256.15 14.2 262.95 56.3 270.25 55.5 267.35 14.75 261.35
M 50.1 244.7
L 50.15 244.95 55.05 246.3 56.6 246.65 61.45 239.9 56.45 244.7 50.1 244.7
M 27.45 183.65
Q 27.35 184.15 27.3 184.75 27.05 186.35 26.8 188.05 25.3 197.45 23.35 206.5
L 22.7 209.25
Q 21.7 213.55 20.6 217.8
L 20.15 219.55
Q 20.05 219.8 20 220.1 19.9 220.3 19.9 220.45
L 19.8 220.7 10.9 258.75 13.1 250.4 13.1 250.35 24.2 206.4 27.9 182.95 27.9 182.85 27.45 183.55
Q 27.45 183.6 27.45 183.65 Z"/>

<path fill="#27282A" stroke="none" d="
M 8.8 267.35
L 8.8 271.15
Q 8.95 270.35 9 269.45
L 8.8 267.35
M 26 245.5
L 28.5 234.9 27.75 236.4 27.95 236.1 20.3 250.75 26 245.5
M 42 230.75
L 45.85 227.2 45.85 227 44.05 219.3 42 230.75
M 41.75 209.75
L 40.95 206.4 37.8 206.15 37.45 206.05 37.4 206 37.4 206.05 37.4 206.15 37.65 206.15 37.8 206.2 37.75 206.25 35.15 220.15 31.95 239.3 31.7 240.25 36.6 235.75 41.15 212.75 41.15 212.7 41.75 209.75
M 38.35 206.25
L 39.15 206.35 38.5 206.4 38.35 206.25
M 39.75 154.95
L 39.5 155 38.7 154.8 39.4 154.45 29.45 140.9 23.45 162.7 27.75 182.6 28 182.75 29.8 179.9 29.75 179.9 29.8 179.85 30.3 179.1
Q 31.75 177.75 33.5 177.85 33.95 177.85 34.45 178
L 35.75 178.45
Q 36.2 178.7 36.65 179 37.45 179.5 38.35 180.3 38.8 180.7 39.35 181.25
L 39.35 181.4 42.45 200.2 52.8 235.35 52.95 235.35 62.1 239.65 61.45 239.9 56.6 246.65 55.05 246.3 63.85 275.7 63.1 275.5 62.95 275.5
Q 62.05 275.5 61.3 276.15 60.65 276.65 60.15 277.65 59.75 278.35 59.6 279.15
L 59.45 279.65 58.95 284.3 78.1 286 78.35 285.55
Q 78.7 284.7 79.4 284 80.3 283 81.5 282.55 82.8 281.85 84.4 281.85
L 84.75 281.85 86.05 282.05 70.2 252.65 70.35 252.7 52.65 216.7 52.35 216.15 47.4 206.55 47 205.05 42.95 191.35 55.4 171.2 56.4 169.95 64.7 148.7 44.9 153.65 40.95 156.5 40.9 156.5 39.75 154.95
M 162.8 177.85
L 164.6 176.6 158.95 171.85 158.2 172.35 162.8 177.85
M 162.6 152.2
L 164.75 159.9 153.1 155.95 162.05 163.7
Q 173.55 173.65 177.9 178.1 193.95 194.6 211.5 220.25
L 226.75 243.75 239.1 264.8 241.25 268.3 241.35 268.55 241.45 268.7 242.55 270.7 243.95 272.4
Q 245.25 273.65 247.5 275.05 250.85 277 257.15 277.6
L 265.1 277.4 274.55 275.6
Q 262.85 277.5 256.2 272.05 254.4 270.6 253 268.7 251.85 267.1 250.95 265.2
L 176.65 144.95 158 124.5
Q 155.25 123.25 152.5 122.2
L 144.55 119.5 148.55 123.55 149.6 124.9 149.65 124.95
Q 157.3 134.75 162.6 152.2
M 243.25 38.1
Q 248.2 42.6 253 47.85
L 257 52.4 257.9 53.35
Q 263.1 59 267.3 65.2
L 271.15 71.25 266.3 60
Q 262.7 52.7 258.15 46.55 254.6 41.7 250.55 37.55
L 246.55 33.7
Q 236.4 24.7 223.2 19 218.6 17.05 213.75 15.4
L 208.2 13.7 207.7 14.4
Q 197.1 11.8 185.45 10.9
L 166.6 10.3 160.15 10.75 138 14.25
Q 114.5 26.15 99.1 51.45 85.45 73.7 78.1 106.35
L 78 106.9
Q 76.3 114.4 74.95 122.55
L 84.75 119.95
Q 90.05 118.6 94.4 117.8 96.55 117.3 98.5 117 102.2 116.3 105.05 116.1 104.45 115.15 106.5 112.2
L 107.55 110.7
Q 109.25 108.45 111.2 106.35
L 115 102.6 114.95 102.6 106.65 95.45
Q 108.35 85.55 111.3 76.3
L 111.45 75.9
Q 116.3 60.9 125 47.85 133.85 34.65 144.6 26.4
L 148.1 23.9
Q 154.75 19.35 162.15 16.6
L 165.15 15.55
Q 165.75 15.3 166.4 15.15 170.8 13.8 175.45 13.1
L 183.2 12.3 192.15 13.15
Q 199.1 14.15 205.8 16.25
L 206.3 16.4
Q 211.55 18.1 216.65 20.4 222.2 23 227.65 26.35
L 235.65 31.85
Q 239.45 34.75 243.25 38.1
M 109.2 100.6
L 100 106.35 79.2 106.35 100 97.5 109.2 100.6 Z"/>

<path fill="#212123" stroke="none" d="
M 33.25 252.35
L 37.3 252.85 37.35 252 41 231.7 36.6 235.75 33.3 252.2 33.25 252.35
M 30.7 241.2
L 30.65 241.35 26 245.5 24.65 251.3 28.5 251.8 30.7 241.2
M 45.85 227
L 45.85 227.2 41.8 253.35 45.35 253.75 48.15 236.5 45.85 227 Z"/>

<path fill="#4A4A4A" stroke="none" d="
M 28.5 251.8
L 24.65 251.3 20.3 250.75 28.1 205.05 16 256.15 14.75 261.35 55.5 267.35 51.65 254.5 46.15 253.9 45.35 253.75 41.8 253.35 38.1 252.95 37.3 252.85 33.25 252.35 29.3 251.85 28.5 251.8 Z"/>

<path fill="#1E1E20" stroke="none" d="
M 118.65 288.35
L 147.8 278.85 230.1 265.05 228.4 262.3 134.95 278.1 91.25 294.5 235.25 273.35 235.35 273.3 234 271.25 118.65 288.35
M 113.7 272.2
L 104.75 261.3
Q 95.7 250.8 86.2 241.95 78.3 234.6 70.15 228.3 61.4 221.6 52.4 216.2
L 52.35 216.15 52.65 216.7 61.55 233.95 66.15 241.7 66.4 241.7 82.95 246 79.35 248.1 72.95 253 89.55 280.85 113.2 272.45 113.7 272.2 Z"/>

<path fill="#343538" stroke="none" d="
M 147.8 278.85
L 118.65 288.35 234 271.25 230.1 265.05 147.8 278.85 Z"/>

<path fill="#181819" stroke="none" d="
M 124.1 255.4
L 123.8 257.7 129.4 257.1 162.4 245 127.7 255.6 207.65 227.5 207.35 227.05 205 223.55 204.9 223.55 205 223.5 202.8 220.4
Q 202.1 220.2 201.95 220
L 201.65 219.6
Q 195.6 211 188.4 203.15
L 184.8 199.3
Q 148.45 204.85 124.1 255.4 Z"/>

<path fill="#323335" stroke="none" d="
M 92.1 293.45
Q 91.8 293.75 91.45 294.15
L 90.95 294.6 91.25 294.5 134.95 278.1 213.65 248.65 217.8 247.1 219.45 246.5 219.4 246.45 217.35 242.85 186.1 254.25 93.35 288.05 93.45 288.55 93.45 290.45
Q 93.15 292.1 92.1 293.45
M 86.9 282.05
Q 88.75 282.1 90.6 283.7
L 153.45 260.9 214.8 238.6 213.65 236.75 212.5 237.15 166.8 253.35 113.2 272.45 89.55 280.85 86.35 281.95 86.9 282.05 Z"/>

<path fill="#555556" stroke="none" d="
M 93.05 287.05
Q 93.2 287.55 93.35 288.05
L 186.1 254.25
Q 169.45 258.5 153.45 260.9
L 90.6 283.7 92.2 285.45
Q 92.7 286.25 93.05 287.05 Z"/>

<path fill="#919191" stroke="none" d="
M 81.7 246.25
L 82.95 246 66.4 241.7 66.15 241.7 61.55 233.95 52.65 216.7 70.35 252.7 70.2 252.65 86.05 282.05 86.35 281.95 89.55 280.85 72.95 253 79.35 248.1 81.7 246.25
M 36.65 179
Q 36.2 178.7 35.75 178.45
L 34.45 178
Q 33.95 177.85 33.5 177.85 31.75 177.75 30.3 179.1
L 29.8 179.85 29.75 179.9 29.8 179.9 28 182.75 27.9 182.85 27.9 182.95 24.2 206.4 13.1 250.35 13.1 250.4 10.9 258.75 8.8 267.35 9 269.45
Q 8.95 270.35 8.8 271.15 8.8 271.25 8.75 271.35
L 8.8 271.35 59.45 279.65 59.6 279.15 11.7 269.05 20.05 230.15
Q 21.25 225.35 22.4 220.5 22.65 219.3 22.95 218.15 23.25 216.65 23.6 215.1 25.2 207.25 26.45 199.3
L 27.65 191.1
Q 28.25 189.5 28.8 188.35 29.55 186.8 30.15 186.15
L 31.5 184.8 32.45 184.3 32.5 184.25 34.65 183.9
Q 35.25 183.9 35.85 184.1 36.6 184.3 37.4 184.75 38.4 185.25 39.5 186.15
L 42.55 204.5 51.65 234.8 49.25 241.05 50 244.35 52.95 235.35 52.8 235.35 42.45 200.2 39.35 181.4 39.35 181.25
Q 38.8 180.7 38.35 180.3 37.45 179.5 36.65 179 Z"/>

<path fill="#565656" stroke="none" d="
M 91.85 194.1
Q 93.05 195.2 94.25 196.35 97.35 199.4 100.35 202.75
L 104.05 207.2
Q 115 220.95 120 235 123.6 245.1 124.1 255.4
L 124.8 250.7 127.75 199.55 118.4 194.55
Q 116.75 193.8 115.1 193.05 112.55 191.9 110.05 190.95 102.05 193.35 91.85 194.1 Z"/>

<path fill="#151517" stroke="none" d="
M 63.5 196.65
L 57.4 194.55 47 205.05 47.4 206.55 52.35 216.15 52.4 216.2
Q 61.4 221.6 70.15 228.3 78.3 234.6 86.2 241.95 95.7 250.8 104.75 261.3
L 113.7 272.2 127.3 267.4 123.5 257.75
Q 120.9 251.25 117.85 245.35 106.85 224.4 89.6 211.1 81.4 204.8 71.85 200.2 67.8 198.3 63.5 196.65 Z"/>

<path fill="#515256" stroke="none" d="
M 75 130.05
Q 74.1 130.6 72.7 131.65 71.3 132.7 69.35 134.15 66.25 136.5 61.8 139.9
L 60.9 141.1 63.4 139.25
Q 67.85 135.95 70.4 134.3 70.8 134.05 71.15 133.85 76.8 130.45 83.55 129.15 86.55 128.55 89.8 128.4 91.1 128.3 92.45 128.3 93.7 128.3 95 128.45 104.25 129.3 116 136.3 118.25 137.6 122.15 140.1 123.2 140.75 124.35 141.5
L 125.9 142.15
Q 127.65 143 129.5 144 129.95 144.2 130.4 144.4
L 137.8 148.55
Q 137.95 148.65 138.15 148.8 138.95 149.25 139.8 149.75 139.85 149.8 139.95 149.85 140.6 150.3 141.3 150.75 143.75 152.25 146.1 153.85
L 145.8 153.25
Q 145.7 153.05 145.65 152.9 143.95 149.15 142.05 145.85 141.05 144.05 140 142.5 139.85 142.25 139.75 142.05 135.8 135.95 131.05 131.35 125.05 125.5 118.45 122.55 117.15 121.95 115.9 121.5
L 112.1 120.4 104.1 119.95
Q 101.7 119.95 99.2 120.3 94.4 120.9 89.3 122.8 82.45 125.25 75 130.05
M 360.5 259.15
Q 364.75 257.7 363.1 252.4
L 361.35 247.95 285.85 150.05 286.35 158.3 340.15 231.5 360.5 259.15 Z"/>

<path fill="#9F9F9F" stroke="none" d="
M 48.8 74.45
L 48.1 73.8
Q 42.6 85.05 38.7 97.2 35.4 107.55 33.3 118.55
L 31.85 127.05 31.85 127.2 29.4 140.85 29.45 140.9 39.4 154.45 39.75 154.95 40.9 156.5 40.95 156.5 44.9 153.65 50.15 149.8 56.1 145.5 56.15 145.35 56.2 144.45 40.85 154.05 32.8 140.9 35.6 139.4 32.95 137.7 32.9 137.65 35.1 123.5
Q 35.65 119.3 36.35 115.25 40.1 93.45 48.8 74.45 Z"/>

<path fill="#5B5B5B" stroke="none" d="
M 58.1 89
L 57.65 87.75
Q 56.15 83.85 53.7 80.35 51.6 77.25 48.8 74.45 40.1 93.45 36.35 115.25 35.65 119.3 35.1 123.5
L 32.9 137.65 32.95 137.7 35.6 139.4 32.8 140.9 40.85 154.05 56.2 144.45 58 127.5 58 127.4
Q 59.9 109.9 61 102 60 94.5 58.1 89 Z"/>

<path fill="#707070" stroke="none" d="
M 64.3 47.85
Q 66.1 45.4 67.95 43.05 70.35 39.9 72.85 37.05 69.8 40.35 66.85 44.05 64.95 46.4 63.15 48.9 59.35 54 56.05 59.4 51.7 66.4 48.1 73.8
L 48.8 74.45
Q 52.6 66.05 57.4 58.2 60.6 52.9 64.3 47.85 Z"/>

<path fill="#090909" stroke="none" d="
M 111.3 28.2
L 106.75 32.4
Q 97.75 41.2 90.05 53.4 79.85 69.65 74.15 88.35 69.35 103.8 67.6 120.85
L 67.3 124.5 67.3 124.75
Q 67.05 127.2 66.95 129.75
L 66.9 130.05 59.45 143.05 60.9 141.1 61.8 139.9 71.35 126.95 71.4 126.7 72.05 117.8
Q 73.8 100.7 78.6 85.25 84.3 66.55 94.5 50.35 102.2 38.1 111.2 29.3
L 120.6 21.25
Q 115.8 24.3 111.3 28.2 Z"/>

<path fill="#484848" stroke="none" d="
M 147 9.55
L 147 9.3 135.2 11 132.75 11.6
Q 128.75 12.6 124.9 14.1
L 123.6 14.6
Q 122.9 14.9 122.25 15.2 119.85 16.25 117.5 17.4 109.15 21.7 101.6 28.2 90 38.15 80.35 53.4 75.65 60.9 71.9 69 70.7 71.5 69.6 74.1
L 69.1 75.2
Q 67.55 72.1 65.85 69.5 64 66.8 62 64.6 60.65 63.1 59.2 61.8
L 58.85 61.5 60.2 59.4
Q 63.75 54 67.75 48.9 72.3 43 77.1 38
L 85.8 29.4 90.95 25 91 25 92.65 23.65 103.25 16.5
Q 109.35 12.9 115.75 10.4 123 8.4 130.6 7.7
L 140.15 7.1 140.45 7.1 139.5 7.05 127.65 7.45 116.9 8.7 109.5 10.4
Q 102.8 13.05 96.45 17
L 84.5 25.65 72.85 37.05
Q 70.35 39.9 67.95 43.05 66.1 45.4 64.3 47.85 60.6 52.9 57.4 58.2 52.6 66.05 48.8 74.45 51.6 77.25 53.7 80.35 56.15 83.85 57.65 87.75
L 58.1 89
Q 60 94.5 61 102 59.9 109.9 58 127.4
L 58 127.5 56.2 144.45 56.15 145.35 56.1 145.5 56.45 145.25 59.45 143.05 60.1 124.5
Q 60.65 117.45 61.75 110.7 64.45 93.45 70.5 78.1
L 73.25 71.5
Q 77.4 62.1 82.85 53.4 92.5 38.15 104.1 28.2 108.6 24.3 113.4 21.2 117.15 18.8 121.1 16.9 123.3 15.8 125.6 14.8 125.85 14.7 126.1 14.6 131.7 12.3 137.7 11
L 137.85 11 147 9.55 Z"/>

<path fill="#383838" stroke="none" d="
M 147 9.55
L 149.5 9.3 149.5 8.95 148.25 8.35
Q 146.8 7.7 144.45 7.45
L 140.45 7.1 140.15 7.1 130.6 7.7
Q 123 8.4 115.75 10.4 109.35 12.9 103.25 16.5
L 92.65 23.65 91 25 90.95 25 85.8 29.4 77.1 38
Q 72.3 43 67.75 48.9 63.75 54 60.2 59.4
L 58.85 61.5 59.2 61.8
Q 60.65 63.1 62 64.6 64 66.8 65.85 69.5 67.55 72.1 69.1 75.2
L 69.6 74.1
Q 70.7 71.5 71.9 69 75.65 60.9 80.35 53.4 90 38.15 101.6 28.2 109.15 21.7 117.5 17.4 119.85 16.25 122.25 15.2 122.9 14.9 123.6 14.6
L 124.9 14.1
Q 128.75 12.6 132.75 11.6
L 135.2 11 147 9.3 147 9.55 Z"/>

<path fill="#58595D" stroke="none" d="
M 164.6 176.6
L 169.4 181
Q 175.35 186.7 182.6 195
L 191.3 205.35
Q 197.15 212.5 202.8 220.4
L 205 223.5 205 223.55 207.35 227.05 236.6 260.8 236.1 259.95 232.55 254.15 232.55 254.2 227.9 246.4 224.3 240.6 224.05 240.35 220.35 234.35 218.05 230.85 210.9 220.45
Q 202.7 208.9 194 198.85
L 184.9 188.55
Q 177.35 180.3 171.2 174.7
L 156.3 162.35 142.95 152.7 130.4 145.5
Q 128.25 144.35 126.2 143.4 115.8 138.65 106.45 137.45
L 101.9 137.25
Q 98.05 137.25 92.7 137.95 89.2 138.35 85.05 139.1 82.15 139.55 78.95 140.25 78.65 140.25 78.35 140.3
L 56.45 145.25 56.1 145.5 50.15 149.8
Q 57.95 146.9 66.1 145.15 68.6 144.6 71.15 144.2 71.4 144.15 71.65 144.1 73.95 143.7 76.3 143.45 78.95 143.1 81.65 142.9
L 93.8 142.55 103 143.05 106.1 143.25
Q 110.6 143.9 115.35 145.35 122.3 147.45 129.75 151.5
L 136.95 155.6
Q 138 156.25 139.05 156.9 139.45 157.1 139.85 157.4 143.1 159.5 146.25 161.75 148.25 163.2 150.2 164.7
L 158.95 171.85 164.6 176.6 Z"/>

<path fill="#0B0B0B" stroke="none" d="
M 167.3 182.65
L 167.15 182.7 132.15 198 124.8 250.7 124.1 255.4
Q 148.45 204.85 184.8 199.3 176.5 190.65 167.3 182.65 Z"/>

<path fill="#303133" stroke="none" d="
M 167.15 182.7
L 167.3 182.65 162.2 178.3 162.8 177.85 158.2 172.35 158.95 171.85 150.2 164.7
Q 148.25 163.2 146.25 161.75 143.1 159.5 139.85 157.4 139.45 157.1 139.05 156.9 139 157 139 157.1 138.9 157.55 138.85 158 138.85 158.15 138.8 158.3 138.8 158.35 138.8 158.4
L 138.8 158.45
Q 138.75 158.6 138.75 158.65
L 138.75 158.8
Q 138.4 160.5 138.05 162.3 137.5 164.9 136.8 167.6 135.15 172.35 132.35 176.25 131.7 177.15 131.05 178 129.55 179.75 127.85 181.35 122.4 186.35 114.35 189.5 116.9 190.45 119.5 191.55 123 193.1 126.5 194.9
L 167.15 182.7 Z"/>

<path fill="#040404" stroke="none" d="
M 166.85 129
L 176.65 144.95 243.1 217.75 246.9 220.2
Q 278.05 240.5 308.2 240.5 328.35 240.5 340.15 231.5
L 286.35 158.3 286.9 166.2 278.05 168.25 266.1 169.55 259.95 169.05
Q 258.6 168.85 257.2 168.7 254.45 168.3 251.65 167.7 242.9 165.95 233.85 162.6 226.7 159.95 219.45 156.35 203.4 148.85 199.8 146.85
L 191.55 142.15
Q 189.65 141 184.6 138.35
L 166.85 129 Z"/>

<path fill="#161617" stroke="none" d="
M 166.85 129
L 165.2 128.15
Q 161.6 126.15 158 124.5
L 176.65 144.95 166.85 129 Z"/>

<path fill="#131315" stroke="none" d="
M 174.05 86.95
L 174.05 86.9 173.8 85.9 174.15 91.65
Q 175 101.7 177.25 112.5 179.5 122.75 183.1 133.8
L 194.3 140.85 194.4 140.95 208 150.15 216.15 154.65
Q 216.5 154.8 216.9 154.95 225.4 158.45 233.8 160.65 243.25 163.1 252.45 163.9 255.3 164.15 258.15 164.25 259 164.25 259.85 164.25
L 266 164.15 277.1 161.7 280.65 160.6 280.9 137.85
Q 280.95 124.15 279.8 111.95
L 279.5 109.05 279.4 110.35
Q 278.95 115.2 277.8 119.7 277.3 121.5 276.75 123.2 275.2 127.5 272.9 131.5 268.6 139 262.5 143.45 259.45 145.65 256 147.1 249.25 149.95 240.9 149.95 219.5 149.95 199.95 131.5 180.4 113 174.05 86.95 Z"/>

<path fill="#1D1D20" stroke="none" d="
M 253 47.85
Q 248.2 42.6 243.25 38.1 239.45 34.75 235.65 31.85
L 227.65 26.35
Q 222.2 23 216.65 20.4 211.55 18.1 206.3 16.4
L 205.8 16.25
Q 199.1 14.15 192.15 13.15
L 183.2 12.3 175.45 13.1
Q 170.8 13.8 166.4 15.15 165.75 15.3 165.15 15.55
L 162.15 16.6
Q 154.75 19.35 148.1 23.9
L 144.6 26.4
Q 133.85 34.65 125 47.85 116.3 60.9 111.45 75.9
L 111.3 76.3
Q 108.35 85.55 106.65 95.45
L 114.95 102.6 115 102.6 111.2 106.35
Q 109.25 108.45 107.55 110.7
L 106.5 112.2
Q 104.45 115.15 105.05 116.1 102.2 116.3 98.5 117 96.55 117.3 94.4 117.8 90.05 118.6 84.75 119.95
L 74.95 122.55
Q 76.3 114.4 78 106.9
L 78.1 106.35
Q 85.45 73.7 99.1 51.45 114.5 26.15 138 14.25
L 132 15.2
Q 126.1 17.7 120.6 21.25
L 111.2 29.3
Q 102.2 38.1 94.5 50.35 84.3 66.55 78.6 85.25 73.8 100.7 72.05 117.8
L 71.4 126.7 71.35 126.95 61.8 139.9
Q 66.25 136.5 69.35 134.15 71.3 132.7 72.7 131.65 74.1 130.6 75 130.05 82.45 125.25 89.3 122.8 94.4 120.9 99.2 120.3 101.7 119.95 104.1 119.95
L 112.1 120.4 115.9 121.5
Q 117.15 121.95 118.45 122.55 125.05 125.5 131.05 131.35 135.8 135.95 139.75 142.05 139.85 142.25 140 142.5 141.05 144.05 142.05 145.85 143.95 149.15 145.65 152.9 145.7 153.05 145.8 153.25
L 146.1 153.85 166.05 169.45 171.2 173.95
Q 177.35 179.6 184.9 187.95
L 194 198.3
Q 202.8 208.55 211.15 220.4
L 218.05 230.85 220.35 234.35 224.05 240.05 224.3 240.3 227.9 246.4 232.55 254.2 232.55 254.15 236.1 259.95 239.1 264.8 226.75 243.75 211.5 220.25
Q 193.95 194.6 177.9 178.1 173.55 173.65 162.05 163.7
L 153.1 155.95 164.75 159.9 162.6 152.2
Q 157.3 134.75 149.65 124.95
L 149.6 124.9 148.55 123.55 144.55 119.5 152.5 122.2
Q 155.25 123.25 158 124.5 161.6 126.15 165.2 128.15
L 166.85 129 184.6 138.35
Q 189.65 141 191.55 142.15
L 199.8 146.85
Q 203.4 148.85 219.45 156.35
L 216.15 154.65 208 150.15 194.4 140.95 194.3 140.85 183.1 133.8 176.35 129.4
Q 166.65 123.25 156.45 119.85
L 149.5 117.85 149.45 117.85 149.2 115.2 149.15 115 149 111.75
Q 148.55 103 149.25 94.95
L 131.95 85.95 154.5 71.35
Q 157.95 61.8 163.55 53.35 167.35 47.7 171.7 43.25
L 175.7 39.45
Q 177.65 37.7 179.7 36.3 183 33.95 186.55 32.2
L 190.95 30.3
Q 195.65 28.55 200.75 27.75
L 206.45 27.15 213.05 27.8
Q 221.75 29.05 229.9 32.6 237.45 35.9 244.55 41.15 244.85 41.35 245.1 41.55
L 251.9 47.3 257 52.4 253 47.85
M 100 106.35
L 109.2 100.6 100 97.5 79.2 106.35 100 106.35 Z"/>

<path fill="#1A1A1C" stroke="none" d="
M 360.5 259.15
L 340.15 231.5
Q 328.35 240.5 308.2 240.5 278.05 240.5 246.9 220.2
L 243.1 217.75 176.65 144.95 250.95 265.2
Q 251.85 267.1 253 268.7 254.4 270.6 256.2 272.05 262.85 277.5 274.55 275.6
L 360.5 259.15 Z"/>

<path fill="#8A8A8A" stroke="none" d="
M 363.1 252.4
Q 364.75 257.7 360.5 259.15
L 274.55 275.6 265.1 277.4 262.4 278 363.95 260
Q 369.85 258.95 368 253.05
L 366.3 248.7 285.75 146.2 285.85 150.05 361.35 247.95 363.1 252.4 Z"/>
</g>

<g id="_______466_0_Layer0_0_FILL">
<path fill="#515356" stroke="none" d="
M 0.05 148.8
L 0.05 148.7 0 148.7 0.05 148.8
M 30.65 241.35
L 30.7 241.2 31.7 240.25 31.95 239.3 35.15 220.15 30.65 241.35
M 37.05 206.15
L 37.4 206.15 37.4 206.05 28.15 204.85 28.15 205.05 37.05 206.15
M 43.4 216.6
L 43.4 216.65 41 231.7 42 230.75 44.05 219.3 43.4 216.6
M 90.6 283.7
Q 88.75 282.1 86.9 282.05
L 86.35 281.95 86.05 282.05
Q 88.45 282.1 90.85 285.45 91.35 286.3 91.65 287.25 91.85 287.85 91.95 288.55
L 91.95 290.45
Q 91.75 291.95 90.9 293.25 90.55 293.7 90.15 294.15
L 88.25 295.6 90.95 294.6 91.45 294.15
Q 91.8 293.75 92.1 293.45 93.15 292.1 93.45 290.45
L 93.45 288.55 93.35 288.05
Q 93.2 287.55 93.05 287.05 92.7 286.25 92.2 285.45
L 90.6 283.7
M 79.7 145.65
Q 76.8 146.2 73.6 146.8 71.9 148.95 70.2 151.25 62.6 161.6 59.15 169.7 55.8 177.45 56.2 183.3 56.3 184.8 56.7 186.25 56.95 186.95 57.4 187.65 58.75 189.6 61.85 191.05 66.55 193.25 75.3 194.3 84.2 194.65 91.85 194.1 102.05 193.35 110.05 190.95 112.25 190.25 114.35 189.5 122.4 186.35 127.85 181.35 129.55 179.75 131.05 178 131.7 177.15 132.35 176.25 135.15 172.35 136.8 167.6 137.5 164.9 138.05 162.3 138.4 160.5 138.75 158.8 138.2 161.2 137.6 163.65 137.45 164.3 137.3 164.95 136.7 166.55 135.95 168.15 134.7 170.8 133 173.1 132.5 173.75 132 174.35 130.65 176 129.1 177.45 124.1 182.05 116.75 184.9 114.85 185.6 112.8 186.25 105.5 188.45 96.2 189.1 89.2 189.65 81.05 189.3 67.75 187.7 64.7 183.25 64.3 182.55 64.05 181.9 63.2 178.8 63.85 174.9 65.1 166.6 72.95 154.85 74.05 153.25 75.25 151.5 75.8 150.75 76.4 150 76.75 149.5 77.1 149.05 78.3 147.4 79.5 145.85 79.6 145.75 79.7 145.65 Z"/>

<path fill="#000000" stroke="none" d="
M 373.85 246.4
Q 373.5 245.45 372.9 244.7
L 293.7 143.95 293.6 137.8
Q 293.6 137.7 293.6 137.65 293.15 123.65 291.5 111.15
L 291.5 111.05 289.95 101.3 289.9 101.25
Q 288.75 94.5 287.2 88.25 287.2 88.2 287.2 88.15
L 285.05 80.45
Q 285 80.35 285 80.3 284.4 78.4 283.85 76.65 283.8 76.6 283.8 76.55 282 71.25 279.95 66.4
L 279.95 66.35
Q 278.75 63.6 277.55 61.05 277.5 61 277.5 60.95 273.55 52.85 268.7 45.95
L 268.7 46
Q 264.9 40.65 260.6 35.95 257.05 32.05 253.15 28.65
L 253.1 28.65
Q 241.65 18.85 227.1 12.65
L 227.05 12.65
Q 221.85 10.45 216.45 8.8
L 216.4 8.75 210.35 6.9
Q 210.2 6.85 210.1 6.8 198.85 3.7 186.5 2.3 186.25 2.25 186 2.25
L 167.15 1.05
Q 166.75 1 166.35 1
L 159.9 1.2
Q 159.5 1.2 159.05 1.3
L 152.05 2.1
Q 151.9 2.05 151.75 2 149.35 0.9 145.5 0.5 145.25 0.45 145.1 0.45
L 140.15 0.05
Q 139.65 0 139.15 0
L 127.3 0.4
Q 126.95 0.4 126.6 0.5
L 115.85 1.7
Q 115.35 1.75 114.85 1.9
L 107.45 3.6
Q 106.8 3.75 106.25 3.95 98.85 6.9 91.85 11.2 91.6 11.4 91.35 11.55
L 79.4 20.25
Q 78.95 20.6 78.55 20.95
L 66.9 32.35
Q 66.8 32.45 66.65 32.6 63.4 36.1 60.3 40
L 60.35 39.95
Q 58.35 42.45 56.45 45.05 52.5 50.35 49.05 56 49 56.05 49 56.1 44.5 63.35 40.75 71 35.05 82.65 31 95.3 27.6 106 25.4 117.4 25.4 117.5 25.4 117.55
L 23.95 126
Q 23.9 126.35 23.85 126.65
L 21.5 139.8
Q 21.5 139.85 21.45 140.05
L 15.7 161.1
Q 15.25 162.55 15.6 164.05
L 19.75 183.15 14.85 208.05
Q 13.85 212.15 12.8 216.25 12.8 216.35 12.75 216.45
L 12.45 217.65
Q 12.35 217.95 12.25 218.25 12.25 218.35 12.2 218.5 12.15 218.65 12.1 218.85
L 12.05 219.05
Q 12 219.15 12 219.25
L 1 265.95
Q 0.8 266.65 0.8 267.35
L 0.8 270.5
Q 0.55 272 1.15 273.55 1.95 275.7 4.05 277.05 5.55 278.05 7.35 278.35
L 51.05 285.5
Q 51.35 287.25 52.75 288.75 54.85 291 58.15 291.3
L 70.2 292.4 70.35 292.95
Q 70.4 293.3 70.55 293.65 71.65 296.55 74.1 298.95 77.85 302.5 82.75 303.1
L 82.65 303.1 83.85 303.2
Q 84.5 303.3 85.15 303.3
L 85.6 303.3
Q 86.65 303.3 87.7 303.1
L 90.3 302.45 89.9 302.5
Q 90.6 302.4 91.3 302.1
L 93.5 301.3 231.95 281.05
Q 233.05 281.9 234.35 282.7 239.1 285.55 244.6 286.45 244.7 286.45 244.8 286.5
L 247.75 286.9
Q 248.55 287.05 249.4 287
L 254.5 286.8
Q 255.25 286.75 256.05 286.65
L 264 284.9 365.55 266.9 365.5 266.9
Q 372.8 265.65 375.05 261 377.65 257.4 375.7 251.2 375.65 251 375.55 250.75
L 373.85 246.4
M 366.3 248.7
L 368 253.05
Q 369.85 258.95 363.95 260
L 262.4 278 254.15 279.75 249.05 279.9 246.1 279.55
Q 242.2 278.85 238.8 276.85 236.95 275.75 235.85 274.1
L 235.35 273.3 235.25 273.35 91.25 294.5 90.95 294.6 88.25 295.6 88.2 295.65 85.6 296.25 85.15 296.25 83.95 296.1
Q 81.7 295.8 79.95 294.15 78.7 292.95 78.15 291.45
L 77.65 289.45 77.65 289.25 77.6 289.05
Q 77.55 288 77.8 287.05
L 77.85 286.8 78.1 286 58.95 284.3 59.45 279.65 8.8 271.35 8.75 271.35
Q 8.8 271.25 8.8 271.15
L 8.8 267.35 10.9 258.75 19.8 220.7 19.9 220.45
Q 19.9 220.3 20 220.1 20.05 219.8 20.15 219.55
L 20.6 217.8
Q 21.7 213.55 22.7 209.25
L 23.35 206.5
Q 25.3 197.45 26.8 188.05 27.05 186.35 27.3 184.75 26.35 185 25.5 185.45
L 27.45 183.65
Q 27.45 183.6 27.45 183.55
L 27.9 182.85 28 182.75 27.75 182.6 23.45 162.7 29.45 140.9 29.4 140.85 31.85 127.2 31.85 127.05 33.3 118.55
Q 35.4 107.55 38.7 97.2 42.6 85.05 48.1 73.8 51.7 66.4 56.05 59.4 59.35 54 63.15 48.9 64.95 46.4 66.85 44.05 69.8 40.35 72.85 37.05
L 84.5 25.65 96.45 17
Q 102.8 13.05 109.5 10.4
L 116.9 8.7 127.65 7.45 139.5 7.05 140.45 7.1 144.45 7.45
Q 146.8 7.7 148.25 8.35
L 149.5 8.95 149.5 9.3 149.5 9.55 160.15 8.25 166.6 8.05 185.45 9.25
Q 197.1 10.65 207.7 13.55
L 208.2 13.7 213.75 15.4
Q 218.8 17 223.6 19 237 24.7 247.5 33.7 251.1 36.85 254.4 40.4 258.4 44.75 261.9 49.7 266.5 56.2 270.15 63.8 271.35 66.2 272.45 68.8 274.4 73.5 276.15 78.55 276.7 80.3 277.25 82.1
L 279.4 89.75
Q 280.9 95.75 282 102.25
L 283.55 111.95
Q 285.15 124.15 285.6 137.85
L 285.75 146.2 366.3 248.7
M 69.85 286.7
Q 69.85 286.75 69.85 286.8
L 69.8 287.05 69.85 286.7
M 88.7 302.65
L 88.2 302.7 88.25 302.65
Q 88.45 302.65 88.7 302.65
M 220 247.35
L 219.8 247.1 219.45 246.55 220.2 248 218.4 248.15 213.65 248.65 134.95 278.1 228.4 262.3 227.75 261.2 227.75 261.25 220 247.35
M 209.7 230.5
L 207.65 227.5 127.7 255.6 162.4 245 209.7 230.5
M 205 223.5
L 204.9 223.55 205 223.55 205 223.5
M 39.15 206.35
L 38.35 206.25 38.5 206.4 39.15 206.35
M 113.7 272.2
L 113.2 272.45 166.8 253.35 130.6 257.05 129.4 257.1 123.8 257.7 123.5 257.75 127.3 267.4 113.7 272.2
M 79.7 145.65
Q 79.6 145.75 79.5 145.85 78.3 147.4 77.1 149.05 76.75 149.5 76.4 150 75.8 150.75 75.25 151.5 74.05 153.25 72.95 154.85 65.1 166.6 63.85 174.9 63.2 178.8 64.05 181.9 64.3 182.55 64.7 183.25 67.75 187.7 81.05 189.3 89.2 189.65 96.2 189.1 105.5 188.45 112.8 186.25 114.85 185.6 116.75 184.9 124.1 182.05 129.1 177.45 130.65 176 132 174.35 132.5 173.75 133 173.1 134.7 170.8 135.95 168.15 136.7 166.55 137.3 164.95 137.45 164.3 137.6 163.65 138.2 161.2 138.75 158.8
L 138.75 158.65
Q 138.75 158.6 138.8 158.45
L 138.8 158.4
Q 138.8 158.35 138.8 158.3 138.85 158.15 138.85 158 138.9 157.55 139 157.1 139 157 139.05 156.9 138 156.25 136.95 155.6
L 129.75 151.5
Q 122.3 147.45 115.35 145.35 110.6 143.9 106.1 143.25
L 103 143.05
Q 95.1 142.85 80.1 145.55 79.9 145.6 79.7 145.65
M 79.8 158.55
Q 79.8 158.45 79.85 158.4 80.85 156.95 82 155.35 82 155.25 82.1 155.2 82.55 154.55 83.05 153.9 83.1 153.8 83.15 153.75 83.4 153.4 83.65 153.1 83.75 153 83.8 152.9 84.15 152.45 84.5 152 96 150 102.5 150.1
L 105.35 150.35
Q 108.95 150.85 112.75 152 118.85 153.9 125.4 157.4
L 130.25 160.2
Q 130 161.2 129.8 162.2
L 129.75 162.3
Q 129.65 162.7 129.55 163.15 129.1 164.3 128.6 165.45 127.65 167.45 126.35 169.15 126.35 169.2 126.3 169.25 125.95 169.75 125.55 170.2 125.5 170.2 125.5 170.25 124.45 171.5 123.3 172.65
L 123.35 172.55
Q 119.4 176.15 113.65 178.45 113.6 178.45 113.55 178.45 111.95 179.05 110.25 179.55
L 110.2 179.55
Q 103.75 181.45 95.55 182.1 89.15 182.55 81.7 182.3 74.1 181.3 71.75 179.7 71.4 178 71.8 175.9
L 71.8 175.8
Q 73 168.7 79.8 158.55
M 251.9 47.3
L 245.1 41.55
Q 244.85 41.35 244.55 41.15 237.45 35.9 229.9 32.6 221.75 29.05 213.05 27.8
L 206.45 27.15 200.75 27.75
Q 195.65 28.55 190.95 30.3
L 186.55 32.2
Q 183 33.95 179.7 36.3 177.65 37.7 175.7 39.45
L 171.7 43.25
Q 167.35 47.7 163.55 53.35 157.95 61.8 154.5 71.35
L 131.95 85.95 149.25 94.95
Q 148.55 103 149 111.75
L 149.15 115 149.2 115.2 149.45 117.85 149.5 117.85 156.45 119.85
Q 166.65 123.25 176.35 129.4
L 183.1 133.8
Q 179.5 122.75 177.25 112.5 175 101.7 174.15 91.65
L 173.8 85.9 174.05 86.9 174.05 86.95
Q 180.4 113 199.95 131.5 219.5 149.95 240.9 149.95 249.25 149.95 256 147.1 259.45 145.65 262.5 143.45 268.6 139 272.9 131.5 275.2 127.5 276.75 123.2 277.3 121.5 277.8 119.7 278.95 115.2 279.4 110.35
L 279.5 109.05 277.8 96.9 274.95 84.1 271.15 71.25 267.3 65.2
Q 263.1 59 257.9 53.35
L 257 52.4 251.9 47.3 Z"/>

<path fill="#3F3F3F" stroke="none" d="
M 126.5 194.9
L 132.15 198 167.15 182.7 126.5 194.9
M 20.3 250.75
L 24.65 251.3 26 245.5 20.3 250.75
M 36.6 235.75
L 31.7 240.25 29.3 251.85 33.25 252.35 33.3 252.2 36.6 235.75
M 49.25 241.05
L 48.6 238.35 46.15 253.9 51.65 254.5 55.5 267.35 50.15 244.95 50.1 244.7 50 244.35 49.25 241.05
M 45.85 227.2
L 42 230.75 38.1 252.95 41.8 253.35 45.85 227.2
M 84.4 281.85
Q 82.8 281.85 81.5 282.55 80.3 283 79.4 284 78.7 284.7 78.35 285.55
L 78.1 286 77.85 286.8 77.8 287.05
Q 77.55 288 77.6 289.05
L 77.65 289.25 77.65 289.45 78.15 291.45
Q 78.7 292.95 79.95 294.15 81.7 295.8 83.95 296.1
L 85.15 296.25 85.6 296.25 88.2 295.65 88.25 295.6 90.15 294.15
Q 90.55 293.7 90.9 293.25 91.75 291.95 91.95 290.45
L 91.95 288.55
Q 91.85 287.85 91.65 287.25 91.35 286.3 90.85 285.45 88.45 282.1 86.05 282.05
L 84.75 281.85 84.4 281.85
M 57.4 187.65
L 57.4 194.55 63.5 196.65
Q 67.8 198.3 71.85 200.2 81.4 204.8 89.6 211.1 106.85 224.4 117.85 245.35 120.9 251.25 123.5 257.75
L 123.8 257.7 124.1 255.4
Q 123.6 245.1 120 235 115 220.95 104.05 207.2
L 100.35 202.75
Q 97.35 199.4 94.25 196.35 93.05 195.2 91.85 194.1 84.2 194.65 75.3 194.3 66.55 193.25 61.85 191.05 58.75 189.6 57.4 187.65 Z"/>

<path fill="#141415" stroke="none" d="
M 213.65 248.65
L 218.4 248.15 217.8 247.1 213.65 248.65
M 212.5 237.15
L 209.45 231.5 130.6 257.05 166.8 253.35 212.5 237.15
M 37.75 206.25
L 37.8 206.2 37.65 206.15 37.4 206.15 37.05 206.15 28.15 205.05 28.1 205.05 20.3 250.75 27.95 236.1 27.75 236.4 28.5 234.9 26 245.5 30.65 241.35 35.15 220.15 37.75 206.25
M 50 244.35
L 50.1 244.7 61.45 239.9 62.1 239.65 52.95 235.35 50 244.35
M 41.15 212.7
L 41.15 212.75 36.6 235.75 41 231.7 43.4 216.65 41.75 209.75 41.15 212.7
M 69.15 147.75
Q 68.8 147.8 68.4 147.9 66.6 148.25 64.7 148.7
L 56.4 169.95 55.4 171.2 42.95 191.35 47 205.05 57.4 194.55 57.4 187.65
Q 56.95 186.95 56.7 186.25 56.3 184.8 56.2 183.3 55.8 177.45 59.15 169.7 62.6 161.6 70.2 151.25 71.9 148.95 73.6 146.8 71.45 147.25 69.15 147.75 Z"/>

<path fill="#7D7D7E" stroke="none" d="
M 227.9 246.4
L 224.3 240.3 224.05 240.05 220.35 234.35 224.05 240.35 224.3 240.6 227.9 246.4
M 257.3 278.15
L 254.35 277.75
Q 250.4 277.1 246.95 275.05 245.1 273.95 243.95 272.4
L 242.55 270.7 241.45 268.7 241.35 268.55 241.25 268.3 239.1 264.8 236.1 259.95 236.6 260.8 207.35 227.05 207.65 227.5 209.7 230.5 213.65 236.75 214.8 238.6 217.35 242.85 219.4 246.45 219.45 246.5 219.45 246.55 219.8 247.1 220 247.35 227.75 261.25 227.75 261.2 228.4 262.3 230.1 265.05 234 271.25 235.35 273.3 235.85 274.1
Q 236.95 275.75 238.8 276.85 242.2 278.85 246.1 279.55
L 249.05 279.9 254.15 279.75 262.4 278 257.3 278.15
M 31.7 240.25
L 30.7 241.2 28.5 251.8 29.3 251.85 31.7 240.25
M 50.1 244.7
L 56.45 244.7 61.45 239.9 50.1 244.7
M 42 230.75
L 41 231.7 37.35 252 37.3 252.85 38.1 252.95 42 230.75
M 82.95 246
L 81.7 246.25 79.35 248.1 82.95 246
M 119.5 191.55
Q 116.9 190.45 114.35 189.5 112.25 190.25 110.05 190.95 112.55 191.9 115.1 193.05 116.75 193.8 118.4 194.55
L 127.75 199.55 124.8 250.7 132.15 198 126.5 194.9
Q 123 193.1 119.5 191.55
M 27.3 184.75
Q 27.35 184.15 27.45 183.65
L 25.5 185.45
Q 26.35 185 27.3 184.75
M 32.45 184.3
L 31.5 184.8 30.15 186.15
Q 29.55 186.8 28.8 188.35 28.25 189.5 27.65 191.1
L 26.45 199.3
Q 25.2 207.25 23.6 215.1 23.25 216.65 22.95 218.15 22.65 219.3 22.4 220.5 21.25 225.35 20.05 230.15
L 11.7 269.05 59.6 279.15
Q 59.75 278.35 60.15 277.65 60.65 276.65 61.3 276.15 62.05 275.5 62.95 275.5
L 63.1 275.5 63.85 275.7 55.05 246.3 50.15 244.95 55.5 267.35 56.3 270.25 14.2 262.95 16 256.15 28.1 205.05 28.15 205.05 28.15 204.85 37.4 206.05 37.4 206 37.45 206.05 37.8 206.15 40.95 206.4 41.75 209.75 43.4 216.65 43.4 216.6 44.05 219.3 45.85 227 48.15 236.5 45.35 253.75 46.15 253.9 48.6 238.35 49.25 241.05 51.65 234.8 42.55 204.5 39.5 186.15
Q 38.4 185.25 37.4 184.75 36.6 184.3 35.85 184.1 35.25 183.9 34.65 183.9
L 32.5 184.25 32.45 184.3
M 39.75 154.95
L 39.4 154.45 38.7 154.8 39.5 155 39.75 154.95
M 68.4 147.9
Q 68.8 147.8 69.15 147.75 71.45 147.25 73.6 146.8 76.8 146.2 79.7 145.65 79.9 145.6 80.1 145.55 95.1 142.85 103 143.05
L 93.8 142.55 81.65 142.9
Q 78.95 143.1 76.3 143.45 73.95 143.7 71.65 144.1 71.4 144.15 71.15 144.2 68.6 144.6 66.1 145.15 57.95 146.9 50.15 149.8
L 44.9 153.65 64.7 148.7
Q 66.6 148.25 68.4 147.9
M 184.9 187.95
Q 177.35 179.6 171.2 173.95
L 166.05 169.45 146.1 153.85
Q 143.75 152.25 141.3 150.75 140.6 150.3 139.95 149.85 139.85 149.8 139.8 149.75 138.95 149.25 138.15 148.8 137.95 148.65 137.8 148.55
L 130.4 144.4
Q 129.95 144.2 129.5 144 127.65 143 125.9 142.15
L 124.35 141.5
Q 123.2 140.75 122.15 140.1 118.25 137.6 116 136.3 104.25 129.3 95 128.45 93.7 128.3 92.45 128.3 91.1 128.3 89.8 128.4 86.55 128.55 83.55 129.15 76.8 130.45 71.15 133.85 70.8 134.05 70.4 134.3 67.85 135.95 63.4 139.25
L 60.9 141.1 59.45 143.05 56.45 145.25 78.35 140.3
Q 78.65 140.25 78.95 140.25 82.15 139.55 85.05 139.1 89.2 138.35 92.7 137.95 98.05 137.25 101.9 137.25
L 106.45 137.45
Q 115.8 138.65 126.2 143.4 128.25 144.35 130.4 145.5
L 142.95 152.7 156.3 162.35 171.2 174.7
Q 177.35 180.3 184.9 188.55
L 194 198.85
Q 202.7 208.9 210.9 220.45
L 218.05 230.85 211.15 220.4
Q 202.8 208.55 194 198.3
L 184.9 187.95
M 208.2 13.7
L 207.7 13.55
Q 197.1 10.65 185.45 9.25
L 166.6 8.05 160.15 8.25 149.5 9.55 149.5 9.3 147 9.55 137.85 11 137.7 11
Q 131.7 12.3 126.1 14.6 125.85 14.7 125.6 14.8 123.3 15.8 121.1 16.9 117.15 18.8 113.4 21.2 108.6 24.3 104.1 28.2 92.5 38.15 82.85 53.4 77.4 62.1 73.25 71.5
L 70.5 78.1
Q 64.45 93.45 61.75 110.7 60.65 117.45 60.1 124.5
L 59.45 143.05 66.9 130.05 66.95 129.75
Q 67.05 127.2 67.3 124.75
L 67.3 124.5 67.6 120.85
Q 69.35 103.8 74.15 88.35 79.85 69.65 90.05 53.4 97.75 41.2 106.75 32.4
L 111.3 28.2
Q 115.8 24.3 120.6 21.25 126.1 17.7 132 15.2
L 138 14.25 160.15 10.75 166.6 10.3 185.45 10.9
Q 197.1 11.8 207.7 14.4
L 208.2 13.7
M 254.4 40.4
Q 251.1 36.85 247.5 33.7 237 24.7 223.6 19 218.8 17 213.75 15.4 218.6 17.05 223.2 19 236.4 24.7 246.55 33.7
L 250.55 37.55
Q 254.6 41.7 258.15 46.55 262.7 52.7 266.3 60
L 271.15 71.25 274.95 84.1 277.8 96.9 279.5 109.05 279.8 111.95
Q 280.95 124.15 280.9 137.85
L 280.65 160.6 277.1 161.7 266 164.15 259.85 164.25
Q 259 164.25 258.15 164.25 255.3 164.15 252.45 163.9 243.25 163.1 233.8 160.65 225.4 158.45 216.9 154.95 216.5 154.8 216.15 154.65
L 219.45 156.35
Q 226.7 159.95 233.85 162.6 242.9 165.95 251.65 167.7 254.45 168.3 257.2 168.7 258.6 168.85 259.95 169.05
L 266.1 169.55 278.05 168.25 286.9 166.2 286.35 158.3 285.85 150.05 285.75 146.2 285.6 137.85
Q 285.15 124.15 283.55 111.95
L 282 102.25
Q 280.9 95.75 279.4 89.75
L 277.25 82.1
Q 276.7 80.3 276.15 78.55 274.4 73.5 272.45 68.8 271.35 66.2 270.15 63.8 266.5 56.2 261.9 49.7 258.4 44.75 254.4 40.4 Z"/>

<path fill="#717172" stroke="none" d="
M 217.35 242.85
L 214.8 238.6 153.45 260.9
Q 169.45 258.5 186.1 254.25
L 217.35 242.85 Z"/>

<path fill="#171717" stroke="none" d="
M 219.45 246.55
L 219.45 246.5 217.8 247.1 218.4 248.15 220.2 248 219.45 246.55
M 129.4 257.1
L 130.6 257.05 209.45 231.5 212.5 237.15 213.65 236.75 209.7 230.5 162.4 245 129.4 257.1
M 162.2 178.3
L 167.3 182.65
Q 176.5 190.65 184.8 199.3
L 188.4 203.15
Q 195.6 211 201.65 219.6
L 201.95 220
Q 202.1 220.2 202.8 220.4 197.15 212.5 191.3 205.35
L 182.6 195
Q 175.35 186.7 169.4 181
L 164.6 176.6 162.8 177.85 162.2 178.3 Z"/>

<path fill="#3B3C3F" stroke="none" d="
M 254.35 277.75
L 257.3 278.15 262.4 278 265.1 277.4 257.15 277.6
Q 250.85 277 247.5 275.05 245.25 273.65 243.95 272.4 245.1 273.95 246.95 275.05 250.4 277.1 254.35 277.75 Z"/>

<path fill="#C6C6C6" stroke="none" d="
M 16 256.15
L 14.2 262.95 56.3 270.25 55.5 267.35 14.75 261.35 16 256.15
M 50.1 244.7
L 50.15 244.95 55.05 246.3 56.6 246.65 61.45 239.9 56.45 244.7 50.1 244.7
M 27.45 183.55
Q 27.45 183.6 27.45 183.65 27.35 184.15 27.3 184.75 27.05 186.35 26.8 188.05 25.3 197.45 23.35 206.5
L 22.7 209.25
Q 21.7 213.55 20.6 217.8
L 20.15 219.55
Q 20.05 219.8 20 220.1 19.9 220.3 19.9 220.45
L 19.8 220.7 10.9 258.75 13.1 250.4 13.1 250.35 24.2 206.4 27.9 182.95 27.9 182.85 27.45 183.55 Z"/>

<path fill="#27282A" stroke="none" d="
M 8.8 267.35
L 8.8 271.15
Q 8.95 270.35 9 269.45
L 8.8 267.35
M 26 245.5
L 28.5 234.9 27.75 236.4 27.95 236.1 20.3 250.75 26 245.5
M 42 230.75
L 45.85 227.2 45.85 227 44.05 219.3 42 230.75
M 41.75 209.75
L 40.95 206.4 37.8 206.15 37.45 206.05 37.4 206 37.4 206.05 37.4 206.15 37.65 206.15 37.8 206.2 37.75 206.25 35.15 220.15 31.95 239.3 31.7 240.25 36.6 235.75 41.15 212.75 41.15 212.7 41.75 209.75
M 38.35 206.25
L 39.15 206.35 38.5 206.4 38.35 206.25
M 39.75 154.95
L 39.5 155 38.7 154.8 39.4 154.45 29.45 140.9 23.45 162.7 27.75 182.6 28 182.75 29.8 179.9 29.75 179.9 29.8 179.85 30.3 179.1
Q 31.75 177.75 33.5 177.85 33.95 177.85 34.45 178
L 35.75 178.45
Q 36.2 178.7 36.65 179 37.45 179.5 38.35 180.3 38.8 180.7 39.35 181.25
L 39.35 181.4 42.45 200.2 52.8 235.35 52.95 235.35 62.1 239.65 61.45 239.9 56.6 246.65 55.05 246.3 63.85 275.7 63.1 275.5 62.95 275.5
Q 62.05 275.5 61.3 276.15 60.65 276.65 60.15 277.65 59.75 278.35 59.6 279.15
L 59.45 279.65 58.95 284.3 78.1 286 78.35 285.55
Q 78.7 284.7 79.4 284 80.3 283 81.5 282.55 82.8 281.85 84.4 281.85
L 84.75 281.85 86.05 282.05 70.2 252.65 70.35 252.7 52.65 216.7 52.35 216.15 47.4 206.55 47 205.05 42.95 191.35 55.4 171.2 56.4 169.95 64.7 148.7 44.9 153.65 40.95 156.5 40.9 156.5 39.75 154.95
M 162.8 177.85
L 164.6 176.6 158.95 171.85 158.2 172.35 162.8 177.85
M 162.6 152.2
L 164.75 159.9 153.1 155.95 162.05 163.7
Q 173.55 173.65 177.9 178.1 193.95 194.6 211.5 220.25
L 226.75 243.75 239.1 264.8 241.25 268.3 241.35 268.55 241.45 268.7 242.55 270.7 243.95 272.4
Q 245.25 273.65 247.5 275.05 250.85 277 257.15 277.6
L 265.1 277.4 274.55 275.6
Q 262.85 277.5 256.2 272.05 254.4 270.6 253 268.7 251.85 267.1 250.95 265.2
L 176.65 144.95 158 124.5
Q 155.25 123.25 152.5 122.2
L 144.55 119.5 148.55 123.55 149.6 124.9 149.65 124.95
Q 157.3 134.75 162.6 152.2
M 243.25 38.1
Q 248.2 42.6 253 47.85
L 257 52.4 257.9 53.35
Q 263.1 59 267.3 65.2
L 271.15 71.25 266.3 60
Q 262.7 52.7 258.15 46.55 254.6 41.7 250.55 37.55
L 246.55 33.7
Q 236.4 24.7 223.2 19 218.6 17.05 213.75 15.4
L 208.2 13.7 207.7 14.4
Q 197.1 11.8 185.45 10.9
L 166.6 10.3 160.15 10.75 138 14.25
Q 114.5 26.15 99.1 51.45 85.45 73.7 78.1 106.35
L 78 106.9
Q 76.3 114.4 74.95 122.55
L 84.75 119.95
Q 90.05 118.6 94.4 117.8 96.55 117.3 98.5 117 102.2 116.3 105.05 116.1 104.45 115.15 106.5 112.2
L 107.55 110.7
Q 109.25 108.45 111.2 106.35
L 115 102.6 114.95 102.6 106.65 95.45
Q 108.35 85.55 111.3 76.3
L 111.45 75.9
Q 116.3 60.9 125 47.85 133.85 34.65 144.6 26.4
L 148.1 23.9
Q 154.75 19.35 162.15 16.6
L 165.15 15.55
Q 165.75 15.3 166.4 15.15 170.8 13.8 175.45 13.1
L 183.2 12.3 192.15 13.15
Q 199.1 14.15 205.8 16.25
L 206.3 16.4
Q 211.55 18.1 216.65 20.4 222.2 23 227.65 26.35
L 235.65 31.85
Q 239.45 34.75 243.25 38.1
M 109.2 100.6
L 100 106.35 79.2 106.35 100 97.5 109.2 100.6 Z"/>

<path fill="#212123" stroke="none" d="
M 37.3 252.85
L 37.35 252 41 231.7 36.6 235.75 33.3 252.2 33.25 252.35 37.3 252.85
M 30.65 241.35
L 26 245.5 24.65 251.3 28.5 251.8 30.7 241.2 30.65 241.35
M 45.85 227
L 45.85 227.2 41.8 253.35 45.35 253.75 48.15 236.5 45.85 227 Z"/>

<path fill="#4A4A4A" stroke="none" d="
M 29.3 251.85
L 28.5 251.8 24.65 251.3 20.3 250.75 28.1 205.05 16 256.15 14.75 261.35 55.5 267.35 51.65 254.5 46.15 253.9 45.35 253.75 41.8 253.35 38.1 252.95 37.3 252.85 33.25 252.35 29.3 251.85 Z"/>

<path fill="#343538" stroke="none" d="
M 147.8 278.85
L 118.65 288.35 234 271.25 230.1 265.05 147.8 278.85 Z"/>

<path fill="#1E1E20" stroke="none" d="
M 134.95 278.1
L 91.25 294.5 235.25 273.35 235.35 273.3 234 271.25 118.65 288.35 147.8 278.85 230.1 265.05 228.4 262.3 134.95 278.1
M 113.7 272.2
L 104.75 261.3
Q 95.7 250.8 86.2 241.95 78.3 234.6 70.15 228.3 61.4 221.6 52.4 216.2
L 52.35 216.15 52.65 216.7 61.55 233.95 66.15 241.7 66.4 241.7 82.95 246 79.35 248.1 72.95 253 89.55 280.85 113.2 272.45 113.7 272.2 Z"/>

<path fill="#181819" stroke="none" d="
M 123.8 257.7
L 129.4 257.1 162.4 245 127.7 255.6 207.65 227.5 207.35 227.05 205 223.55 204.9 223.55 205 223.5 202.8 220.4
Q 202.1 220.2 201.95 220
L 201.65 219.6
Q 195.6 211 188.4 203.15
L 184.8 199.3
Q 148.45 204.85 124.1 255.4
L 123.8 257.7 Z"/>

<path fill="#555556" stroke="none" d="
M 93.05 287.05
Q 93.2 287.55 93.35 288.05
L 186.1 254.25
Q 169.45 258.5 153.45 260.9
L 90.6 283.7 92.2 285.45
Q 92.7 286.25 93.05 287.05 Z"/>

<path fill="#323335" stroke="none" d="
M 92.1 293.45
Q 91.8 293.75 91.45 294.15
L 90.95 294.6 91.25 294.5 134.95 278.1 213.65 248.65 217.8 247.1 219.45 246.5 219.4 246.45 217.35 242.85 186.1 254.25 93.35 288.05 93.45 288.55 93.45 290.45
Q 93.15 292.1 92.1 293.45
M 89.55 280.85
L 86.35 281.95 86.9 282.05
Q 88.75 282.1 90.6 283.7
L 153.45 260.9 214.8 238.6 213.65 236.75 212.5 237.15 166.8 253.35 113.2 272.45 89.55 280.85 Z"/>

<path fill="#919191" stroke="none" d="
M 81.7 246.25
L 82.95 246 66.4 241.7 66.15 241.7 61.55 233.95 52.65 216.7 70.35 252.7 70.2 252.65 86.05 282.05 86.35 281.95 89.55 280.85 72.95 253 79.35 248.1 81.7 246.25
M 36.65 179
Q 36.2 178.7 35.75 178.45
L 34.45 178
Q 33.95 177.85 33.5 177.85 31.75 177.75 30.3 179.1
L 29.8 179.85 29.75 179.9 29.8 179.9 28 182.75 27.9 182.85 27.9 182.95 24.2 206.4 13.1 250.35 13.1 250.4 10.9 258.75 8.8 267.35 9 269.45
Q 8.95 270.35 8.8 271.15 8.8 271.25 8.75 271.35
L 8.8 271.35 59.45 279.65 59.6 279.15 11.7 269.05 20.05 230.15
Q 21.25 225.35 22.4 220.5 22.65 219.3 22.95 218.15 23.25 216.65 23.6 215.1 25.2 207.25 26.45 199.3
L 27.65 191.1
Q 28.25 189.5 28.8 188.35 29.55 186.8 30.15 186.15
L 31.5 184.8 32.45 184.3 32.5 184.25 34.65 183.9
Q 35.25 183.9 35.85 184.1 36.6 184.3 37.4 184.75 38.4 185.25 39.5 186.15
L 42.55 204.5 51.65 234.8 49.25 241.05 50 244.35 52.95 235.35 52.8 235.35 42.45 200.2 39.35 181.4 39.35 181.25
Q 38.8 180.7 38.35 180.3 37.45 179.5 36.65 179 Z"/>

<path fill="#565656" stroke="none" d="
M 91.85 194.1
Q 93.05 195.2 94.25 196.35 97.35 199.4 100.35 202.75
L 104.05 207.2
Q 115 220.95 120 235 123.6 245.1 124.1 255.4
L 124.8 250.7 127.75 199.55 118.4 194.55
Q 116.75 193.8 115.1 193.05 112.55 191.9 110.05 190.95 102.05 193.35 91.85 194.1 Z"/>

<path fill="#151517" stroke="none" d="
M 63.5 196.65
L 57.4 194.55 47 205.05 47.4 206.55 52.35 216.15 52.4 216.2
Q 61.4 221.6 70.15 228.3 78.3 234.6 86.2 241.95 95.7 250.8 104.75 261.3
L 113.7 272.2 127.3 267.4 123.5 257.75
Q 120.9 251.25 117.85 245.35 106.85 224.4 89.6 211.1 81.4 204.8 71.85 200.2 67.8 198.3 63.5 196.65 Z"/>

<path fill="#515256" stroke="none" d="
M 75 130.05
Q 74.1 130.6 72.7 131.65 71.3 132.7 69.35 134.15 66.25 136.5 61.8 139.9
L 60.9 141.1 63.4 139.25
Q 67.85 135.95 70.4 134.3 70.8 134.05 71.15 133.85 76.8 130.45 83.55 129.15 86.55 128.55 89.8 128.4 91.1 128.3 92.45 128.3 93.7 128.3 95 128.45 104.25 129.3 116 136.3 118.25 137.6 122.15 140.1 123.2 140.75 124.35 141.5
L 125.9 142.15
Q 127.65 143 129.5 144 129.95 144.2 130.4 144.4
L 137.8 148.55
Q 137.95 148.65 138.15 148.8 138.95 149.25 139.8 149.75 139.85 149.8 139.95 149.85 140.6 150.3 141.3 150.75 143.75 152.25 146.1 153.85
L 145.8 153.25
Q 145.7 153.05 145.65 152.9 143.95 149.15 142.05 145.85 141.05 144.05 140 142.5 139.85 142.25 139.75 142.05 135.8 135.95 131.05 131.35 125.05 125.5 118.45 122.55 117.15 121.95 115.9 121.5
L 112.1 120.4 104.1 119.95
Q 101.7 119.95 99.2 120.3 94.4 120.9 89.3 122.8 82.45 125.25 75 130.05
M 360.5 259.15
Q 364.75 257.7 363.1 252.4
L 361.35 247.95 285.85 150.05 286.35 158.3 340.15 231.5 360.5 259.15 Z"/>

<path fill="#9F9F9F" stroke="none" d="
M 48.8 74.45
L 48.1 73.8
Q 42.6 85.05 38.7 97.2 35.4 107.55 33.3 118.55
L 31.85 127.05 31.85 127.2 29.4 140.85 29.45 140.9 39.4 154.45 39.75 154.95 40.9 156.5 40.95 156.5 44.9 153.65 50.15 149.8 56.1 145.5 56.15 145.35 56.2 144.45 40.85 154.05 32.8 140.9 35.6 139.4 32.95 137.7 32.9 137.65 35.1 123.5
Q 35.65 119.3 36.35 115.25 40.1 93.45 48.8 74.45 Z"/>

<path fill="#5B5B5B" stroke="none" d="
M 58.1 89
L 57.65 87.75
Q 56.15 83.85 53.7 80.35 51.6 77.25 48.8 74.45 40.1 93.45 36.35 115.25 35.65 119.3 35.1 123.5
L 32.9 137.65 32.95 137.7 35.6 139.4 32.8 140.9 40.85 154.05 56.2 144.45 58 127.5 58 127.4
Q 59.9 109.9 61 102 60 94.5 58.1 89 Z"/>

<path fill="#707070" stroke="none" d="
M 66.85 44.05
Q 64.95 46.4 63.15 48.9 59.35 54 56.05 59.4 51.7 66.4 48.1 73.8
L 48.8 74.45
Q 52.6 66.05 57.4 58.2 60.6 52.9 64.3 47.85 66.1 45.4 67.95 43.05 70.35 39.9 72.85 37.05 69.8 40.35 66.85 44.05 Z"/>

<path fill="#090909" stroke="none" d="
M 111.3 28.2
L 106.75 32.4
Q 97.75 41.2 90.05 53.4 79.85 69.65 74.15 88.35 69.35 103.8 67.6 120.85
L 67.3 124.5 67.3 124.75
Q 67.05 127.2 66.95 129.75
L 66.9 130.05 59.45 143.05 60.9 141.1 61.8 139.9 71.35 126.95 71.4 126.7 72.05 117.8
Q 73.8 100.7 78.6 85.25 84.3 66.55 94.5 50.35 102.2 38.1 111.2 29.3
L 120.6 21.25
Q 115.8 24.3 111.3 28.2 Z"/>

<path fill="#484848" stroke="none" d="
M 147 9.55
L 147 9.3 135.2 11 132.75 11.6
Q 128.75 12.6 124.9 14.1
L 123.6 14.6
Q 122.9 14.9 122.25 15.2 119.85 16.25 117.5 17.4 109.15 21.7 101.6 28.2 90 38.15 80.35 53.4 75.65 60.9 71.9 69 70.7 71.5 69.6 74.1
L 69.1 75.2
Q 67.55 72.1 65.85 69.5 64 66.8 62 64.6 60.65 63.1 59.2 61.8
L 58.85 61.5 60.2 59.4
Q 63.75 54 67.75 48.9 72.3 43 77.1 38
L 85.8 29.4 90.95 25 91 25 92.65 23.65 103.25 16.5
Q 109.35 12.9 115.75 10.4 123 8.4 130.6 7.7
L 140.15 7.1 140.45 7.1 139.5 7.05 127.65 7.45 116.9 8.7 109.5 10.4
Q 102.8 13.05 96.45 17
L 84.5 25.65 72.85 37.05
Q 70.35 39.9 67.95 43.05 66.1 45.4 64.3 47.85 60.6 52.9 57.4 58.2 52.6 66.05 48.8 74.45 51.6 77.25 53.7 80.35 56.15 83.85 57.65 87.75
L 58.1 89
Q 60 94.5 61 102 59.9 109.9 58 127.4
L 58 127.5 56.2 144.45 56.15 145.35 56.1 145.5 56.45 145.25 59.45 143.05 60.1 124.5
Q 60.65 117.45 61.75 110.7 64.45 93.45 70.5 78.1
L 73.25 71.5
Q 77.4 62.1 82.85 53.4 92.5 38.15 104.1 28.2 108.6 24.3 113.4 21.2 117.15 18.8 121.1 16.9 123.3 15.8 125.6 14.8 125.85 14.7 126.1 14.6 131.7 12.3 137.7 11
L 137.85 11 147 9.55 Z"/>

<path fill="#383838" stroke="none" d="
M 149.5 9.3
L 149.5 8.95 148.25 8.35
Q 146.8 7.7 144.45 7.45
L 140.45 7.1 140.15 7.1 130.6 7.7
Q 123 8.4 115.75 10.4 109.35 12.9 103.25 16.5
L 92.65 23.65 91 25 90.95 25 85.8 29.4 77.1 38
Q 72.3 43 67.75 48.9 63.75 54 60.2 59.4
L 58.85 61.5 59.2 61.8
Q 60.65 63.1 62 64.6 64 66.8 65.85 69.5 67.55 72.1 69.1 75.2
L 69.6 74.1
Q 70.7 71.5 71.9 69 75.65 60.9 80.35 53.4 90 38.15 101.6 28.2 109.15 21.7 117.5 17.4 119.85 16.25 122.25 15.2 122.9 14.9 123.6 14.6
L 124.9 14.1
Q 128.75 12.6 132.75 11.6
L 135.2 11 147 9.3 147 9.55 149.5 9.3 Z"/>

<path fill="#58595D" stroke="none" d="
M 164.6 176.6
L 169.4 181
Q 175.35 186.7 182.6 195
L 191.3 205.35
Q 197.15 212.5 202.8 220.4
L 205 223.5 205 223.55 207.35 227.05 236.6 260.8 236.1 259.95 232.55 254.15 232.55 254.2 227.9 246.4 224.3 240.6 224.05 240.35 220.35 234.35 218.05 230.85 210.9 220.45
Q 202.7 208.9 194 198.85
L 184.9 188.55
Q 177.35 180.3 171.2 174.7
L 156.3 162.35 142.95 152.7 130.4 145.5
Q 128.25 144.35 126.2 143.4 115.8 138.65 106.45 137.45
L 101.9 137.25
Q 98.05 137.25 92.7 137.95 89.2 138.35 85.05 139.1 82.15 139.55 78.95 140.25 78.65 140.25 78.35 140.3
L 56.45 145.25 56.1 145.5 50.15 149.8
Q 57.95 146.9 66.1 145.15 68.6 144.6 71.15 144.2 71.4 144.15 71.65 144.1 73.95 143.7 76.3 143.45 78.95 143.1 81.65 142.9
L 93.8 142.55 103 143.05 106.1 143.25
Q 110.6 143.9 115.35 145.35 122.3 147.45 129.75 151.5
L 136.95 155.6
Q 138 156.25 139.05 156.9 139.45 157.1 139.85 157.4 143.1 159.5 146.25 161.75 148.25 163.2 150.2 164.7
L 158.95 171.85 164.6 176.6 Z"/>

<path fill="#0B0B0B" stroke="none" d="
M 167.3 182.65
L 167.15 182.7 132.15 198 124.8 250.7 124.1 255.4
Q 148.45 204.85 184.8 199.3 176.5 190.65 167.3 182.65 Z"/>

<path fill="#303133" stroke="none" d="
M 167.15 182.7
L 167.3 182.65 162.2 178.3 162.8 177.85 158.2 172.35 158.95 171.85 150.2 164.7
Q 148.25 163.2 146.25 161.75 143.1 159.5 139.85 157.4 139.45 157.1 139.05 156.9 139 157 139 157.1 138.9 157.55 138.85 158 138.85 158.15 138.8 158.3 138.8 158.35 138.8 158.4
L 138.8 158.45
Q 138.75 158.6 138.75 158.65
L 138.75 158.8
Q 138.4 160.5 138.05 162.3 137.5 164.9 136.8 167.6 135.15 172.35 132.35 176.25 131.7 177.15 131.05 178 129.55 179.75 127.85 181.35 122.4 186.35 114.35 189.5 116.9 190.45 119.5 191.55 123 193.1 126.5 194.9
L 167.15 182.7 Z"/>

<path fill="#040404" stroke="none" d="
M 166.85 129
L 176.65 144.95 243.1 217.75 246.9 220.2
Q 278.05 240.5 308.2 240.5 328.35 240.5 340.15 231.5
L 286.35 158.3 286.9 166.2 278.05 168.25 266.1 169.55 259.95 169.05
Q 258.6 168.85 257.2 168.7 254.45 168.3 251.65 167.7 242.9 165.95 233.85 162.6 226.7 159.95 219.45 156.35 203.4 148.85 199.8 146.85
L 191.55 142.15
Q 189.65 141 184.6 138.35
L 166.85 129 Z"/>

<path fill="#161617" stroke="none" d="
M 166.85 129
L 165.2 128.15
Q 161.6 126.15 158 124.5
L 176.65 144.95 166.85 129 Z"/>

<path fill="#131315" stroke="none" d="
M 174.05 86.95
L 174.05 86.9 173.8 85.9 174.15 91.65
Q 175 101.7 177.25 112.5 179.5 122.75 183.1 133.8
L 194.3 140.85 194.4 140.95 208 150.15 216.15 154.65
Q 216.5 154.8 216.9 154.95 225.4 158.45 233.8 160.65 243.25 163.1 252.45 163.9 255.3 164.15 258.15 164.25 259 164.25 259.85 164.25
L 266 164.15 277.1 161.7 280.65 160.6 280.9 137.85
Q 280.95 124.15 279.8 111.95
L 279.5 109.05 279.4 110.35
Q 278.95 115.2 277.8 119.7 277.3 121.5 276.75 123.2 275.2 127.5 272.9 131.5 268.6 139 262.5 143.45 259.45 145.65 256 147.1 249.25 149.95 240.9 149.95 219.5 149.95 199.95 131.5 180.4 113 174.05 86.95 Z"/>

<path fill="#1D1D20" stroke="none" d="
M 253 47.85
Q 248.2 42.6 243.25 38.1 239.45 34.75 235.65 31.85
L 227.65 26.35
Q 222.2 23 216.65 20.4 211.55 18.1 206.3 16.4
L 205.8 16.25
Q 199.1 14.15 192.15 13.15
L 183.2 12.3 175.45 13.1
Q 170.8 13.8 166.4 15.15 165.75 15.3 165.15 15.55
L 162.15 16.6
Q 154.75 19.35 148.1 23.9
L 144.6 26.4
Q 133.85 34.65 125 47.85 116.3 60.9 111.45 75.9
L 111.3 76.3
Q 108.35 85.55 106.65 95.45
L 114.95 102.6 115 102.6 111.2 106.35
Q 109.25 108.45 107.55 110.7
L 106.5 112.2
Q 104.45 115.15 105.05 116.1 102.2 116.3 98.5 117 96.55 117.3 94.4 117.8 90.05 118.6 84.75 119.95
L 74.95 122.55
Q 76.3 114.4 78 106.9
L 78.1 106.35
Q 85.45 73.7 99.1 51.45 114.5 26.15 138 14.25
L 132 15.2
Q 126.1 17.7 120.6 21.25
L 111.2 29.3
Q 102.2 38.1 94.5 50.35 84.3 66.55 78.6 85.25 73.8 100.7 72.05 117.8
L 71.4 126.7 71.35 126.95 61.8 139.9
Q 66.25 136.5 69.35 134.15 71.3 132.7 72.7 131.65 74.1 130.6 75 130.05 82.45 125.25 89.3 122.8 94.4 120.9 99.2 120.3 101.7 119.95 104.1 119.95
L 112.1 120.4 115.9 121.5
Q 117.15 121.95 118.45 122.55 125.05 125.5 131.05 131.35 135.8 135.95 139.75 142.05 139.85 142.25 140 142.5 141.05 144.05 142.05 145.85 143.95 149.15 145.65 152.9 145.7 153.05 145.8 153.25
L 146.1 153.85 166.05 169.45 171.2 173.95
Q 177.35 179.6 184.9 187.95
L 194 198.3
Q 202.8 208.55 211.15 220.4
L 218.05 230.85 220.35 234.35 224.05 240.05 224.3 240.3 227.9 246.4 232.55 254.2 232.55 254.15 236.1 259.95 239.1 264.8 226.75 243.75 211.5 220.25
Q 193.95 194.6 177.9 178.1 173.55 173.65 162.05 163.7
L 153.1 155.95 164.75 159.9 162.6 152.2
Q 157.3 134.75 149.65 124.95
L 149.6 124.9 148.55 123.55 144.55 119.5 152.5 122.2
Q 155.25 123.25 158 124.5 161.6 126.15 165.2 128.15
L 166.85 129 184.6 138.35
Q 189.65 141 191.55 142.15
L 199.8 146.85
Q 203.4 148.85 219.45 156.35
L 216.15 154.65 208 150.15 194.4 140.95 194.3 140.85 183.1 133.8 176.35 129.4
Q 166.65 123.25 156.45 119.85
L 149.5 117.85 149.45 117.85 149.2 115.2 149.15 115 149 111.75
Q 148.55 103 149.25 94.95
L 131.95 85.95 154.5 71.35
Q 157.95 61.8 163.55 53.35 167.35 47.7 171.7 43.25
L 175.7 39.45
Q 177.65 37.7 179.7 36.3 183 33.95 186.55 32.2
L 190.95 30.3
Q 195.65 28.55 200.75 27.75
L 206.45 27.15 213.05 27.8
Q 221.75 29.05 229.9 32.6 237.45 35.9 244.55 41.15 244.85 41.35 245.1 41.55
L 251.9 47.3 257 52.4 253 47.85
M 100 106.35
L 109.2 100.6 100 97.5 79.2 106.35 100 106.35 Z"/>

<path fill="#1A1A1C" stroke="none" d="
M 360.5 259.15
L 340.15 231.5
Q 328.35 240.5 308.2 240.5 278.05 240.5 246.9 220.2
L 243.1 217.75 176.65 144.95 250.95 265.2
Q 251.85 267.1 253 268.7 254.4 270.6 256.2 272.05 262.85 277.5 274.55 275.6
L 360.5 259.15 Z"/>

<path fill="#8A8A8A" stroke="none" d="
M 363.1 252.4
Q 364.75 257.7 360.5 259.15
L 274.55 275.6 265.1 277.4 262.4 278 363.95 260
Q 369.85 258.95 368 253.05
L 366.3 248.7 285.75 146.2 285.85 150.05 361.35 247.95 363.1 252.4 Z"/>
</g>
</defs>

<g transform="matrix( -0.183441162109375, -0.0339813232421875, -0.0339813232421875, 0.183441162109375, 79.35,6.6) ">
<g transform="matrix( 1, 0, 0, 1, 0,0) ">
<use xlink:href="#_______466_0_Layer1_0_FILL"/>
</g>

<g transform="matrix( 1, 0, 0, 1, 0,0) ">
<use xlink:href="#_______466_0_Layer0_0_FILL"/>
</g>
</g>
</svg>
