
<svg xmlns="http://www.w3.org/2000/svg" version="1.1" xmlns:xlink="http://www.w3.org/1999/xlink" preserveAspectRatio="none" x="0px" y="0px" width="65px" height="48px" viewBox="0 0 65 48">
<defs>
<g id="_____________________________________236_0_Layer1_0_FILL">
<path fill="#6D42B1" stroke="none" d="
M 24.1 39.6
L 24.1 39.55 23.9 39.5 24.1 39.6
M 38.75 1.6
L 36.35 2.65 34.6 3.8 34.55 3.9 34.1 4.3 34 4.35 33.4 5.05
Q 31.6 7.25 30 10.2
L 28.5 12.75 28.45 12.75
Q 28.1 13.35 27.8 13.9
L 27.15 14.85 27.15 14.9 26.35 16.1 26.3 16.3
Q 26 16.75 25.65 17.2 25.35 17.8 24.9 18.35
L 24.5 18.9 23.75 20 23.45 20.4 23.4 20.6 23.25 20.6 23.15 20.8 23.05 20.95 22.2 22 22.15 22.1 21.85 22.4
Q 20.55 24 19.25 25.1
L 19.2 25.2 18.15 26.1 15.85 27.6 15.45 27.75
Q 14.4623046875 28.24375 13.45 28.5 13.22109375 28.555859375 13 28.6 12.1 28.85 11.35 28.9 12.1 28.9 13 28.7 13.2318359375 28.6443359375 13.45 28.55 14.46328125 28.3072265625 15.4 27.9
L 15.85 27.7
Q 16.1671875 27.526953125 16.45 27.35 17.223828125 26.8982421875 17.9 26.4
L 18.1 26.35
Q 18.15 26.2 18.3 26.1
L 19.15 25.4 19.3 25.35 19.3 25.4
Q 20.55 24.25 21.9 22.65 22.55 21.9 23.1 21.05 23.95 20 24.7 18.9 24.85 18.6 25.05 18.35
L 26.2 16.7 26.25 16.55 27.7 14.3
Q 27.95 13.75 28.3 13.15
L 28.35 13.15 29.8 10.6
Q 31.75 7.2 33.9 4.85
L 34.5 4.35
Q 35.05 3.8 35.75 3.5
L 36.25 3.15
Q 37.25 2.55 38.55 2.2
L 38.75 1.7 38.75 1.6 Z"/>

<path fill="#3A1F64" stroke="none" d="
M 26.4 28.5
Q 25.85 32.7 25.7 37.1
L 25.75 41.45 25.95 41.45 27.25 41.8 27.05 40.5 27.75 40.75 27.05 40.45
Q 26.75 39.05 26.6 37.6
L 26.6 37.3
Q 26.15 33 26.4 28.5
M 16.8 30.85
L 16.8 29.55 16.5 27.55
Q 16.1572265625 27.7888671875 15.8 28 14.6765625 28.83203125 13.55 29.25 13.3265625 29.3744140625 13.1 29.45 10.5 30.3 8.05 29.45 6.75 29.1 5.7 28 5.7 27.9 5.6 27.85
L 5.35 27.55 5.25 27.45
Q 5.15 27.25 5.05 27.2
L 5.05 27.25
Q 4.2 29.2 3.75 31.2
L 3.55 32.5
Q 3.4 33.8 3.45 34.9
L 3.55 35.8
Q 3.6 36.1 3.65 36.25
L 3.85 37.45 5 37.5
Q 8.5 37.5 11.9 37.75
L 12.55 37.85 12.9 37.85 16.4 38.2
Q 16.6 38.2296875 16.8 38.25 17.95 38.437109375 19.1 38.65
L 19.1 38.3 16.8 37.85 16.8 35.6 12.75 35.1 12.7 35.1
Q 9.55 34.85 6.35 34.8
L 4.8 34.8 4.4 34.8
Q 4.35 34.2 4.25 33.45
L 4.2 33.45
Q 4.15 32 4.3 30.8
L 4.35 30.75
Q 4.35 30.65 4.4 30.55
L 4.4 30.45
Q 4.407421875 30.442578125 4.45 30.4
L 4.6 30.55 4.95 30.75 5 30.9
Q 6.15 31.9 7.65 32.25 8.2 32.45 10 32.6 11.694921875 32.6484375 13.9 32 13.9775390625 31.9720703125 14.05 31.95
L 14.3 31.8 14.35 31.8 15.8 31.3
Q 16.4 31.05 16.65 30.85
L 16.8 30.85
M 60.2 42.6
L 60.1 42.6 55 43.6 54.95 43.6
Q 54.3478515625 43.6962890625 53.7 43.75
L 52.6 45.85 54.15 45.7
Q 54.2 45.6 54.35 45.6
L 54.4 45.65
Q 55.1 45.6 55.75 45.35
L 58.9 44.65 59 44.65 59.3 44.55 59.45 44.55
Q 60 43.7 60.75 42.35
L 60.55 42.5 60.2 42.6
M 57.7 35.55
L 57.05 34.85
Q 56.75 34.5 56.45 33.7 56.7 34.6 57 35 57.25 35.45 57.65 35.8 57.7646484375 35.8892578125 57.85 35.95 58.6837890625 36.53828125 59.6 36.8 60.35 37 61.2 37.05
L 61.7 36.95
Q 62.3 36.9 62.95 36.65
L 63.15 36.6 63.3 36.5 63.25 36.6 63 37.55 62.5 38.7
Q 62.2 39.7 61.8 40.45 62.2 39.95 62.4 39.55 62.95 38.4 63.25 37.4 63.4 37.1 63.45 36.75 63.55 36.25 63.6 35.85
L 63.5 35.95 63.3 36.1
Q 63.25 36.1 63.1 36.15 62.4 36.45 61.75 36.55
L 61.35 36.6 59.75 36.5
Q 58.7939453125 36.2505859375 58 35.75 57.8517578125 35.6595703125 57.7 35.55
M 56.35 33.55
L 55.95 33.85 56.2 34.85 56.25 34.9 56.45 35.45 56.55 35.65
Q 56.45 35.05 56.4 34.4
L 56.35 33.55
M 53.5 13.35
L 53.65 13.85 53.75 13.95 53.5 13.35 Z"/>

<path fill="#5B3696" stroke="none" d="
M 24.5 37.05
L 24.1 36.95
Q 24.1 38.25 24.1 39.55
L 24.1 39.6 24.25 39.65 24.5 37.05
M 59.55 44.45
L 59.6 44.35
Q 60.35 43.45 60.95 42.45
L 61.9 40.65 61.9 40.55
Q 62.25 40.1 62.4 39.55 62.2 39.95 61.8 40.45 61.6 40.9 61.3 41.2
L 61 41.7 60.95 41.8 60.55 42.5 60.75 42.35
Q 60 43.7 59.45 44.55
L 59.55 44.45
M 50.5 44.05
L 49.7 44.1
Q 42.95 44.2 36.85 41.35
L 33.55 40
Q 31.35 39.1 29.1 38.35
L 26.6 37.6
Q 26.75 39.05 27.05 40.45
L 27.75 40.75
Q 31.7 42.05 35.55 43.7
L 35.6 43.7
Q 41.733203125 46.4490234375 48.6 46.25
L 52.6 45.85 53.7 43.75
Q 53.0498046875 43.8482421875 52.35 43.9
L 51.1 44.05 50.9 44.1 50.5 44.05 Z"/>

<path fill="#271443" stroke="none" d="
M 24.05 36.9
L 24.1 36.95 24.5 37.05 24.55 36.85 21.05 36.1 21.1 36.25 24.05 36.9
M 6.35 34.8
L 6.2 34.75 4.8 34.8 6.35 34.8
M 13.95 35.15
L 12.75 35.1 16.8 35.6 19.35 36 19.35 35.85 14.3 35.2 14.25 35.2
Q 14.05 35.2 13.95 35.15
M 49.7 44.1
L 50.5 44.05 50.9 44.1 51.1 44.05 52.35 43.9
Q 53.0498046875 43.8482421875 53.7 43.75 54.3478515625 43.6962890625 54.95 43.6
L 55 43.6 60.1 42.6 60.2 42.6 60.55 42.5 60.95 41.8 60.9 41.8
Q 60.75 41.8 60.65 41.85
L 60.4 41.95 55.7 42.95 55.65 42.95 55.5 43 54 43.2 52.5 43.4
Q 51.85 43.5 51.2 43.45
L 51.2 43.5 49.4 43.55
Q 42.85 43.65 36.95 41 35.4212890625 40.312109375 33.8 39.7 33.3447265625 39.5267578125 32.85 39.35 31.05 38.7 29.15 38.1
L 26.6 37.3 26.6 37.6 29.1 38.35
Q 31.35 39.1 33.55 40
L 36.85 41.35
Q 42.95 44.2 49.7 44.1 Z"/>

<path fill="#523087" stroke="none" d="
M 20.9 31.2
Q 20.5 33.45 20.4 35.95
L 20.35 40.2 24.25 39.65 24 39.6 24.1 39.6 23.9 39.5 24.1 39.55
Q 24.1 38.25 24.1 36.95
L 24.05 36.9 21.1 36.25 21.05 36.1
Q 20.9 33.7 20.9 31.2
M 19.35 36
L 16.8 35.6 16.8 37.85 19.1 38.3
Q 19.15 37.1 19.35 36 Z"/>

<path fill="#7843CB" stroke="none" d="
M 26.4 28.5
L 26.5 27.6
Q 25.1 32.1 24.55 36.85
L 24.5 37.05 24.25 39.65 24.15 41 25.75 41.45 25.7 37.1
Q 25.85 32.7 26.4 28.5
M 19.35 35.85
L 19.35 36
Q 19.15 37.1 19.1 38.3
L 19.1 38.65 19.1 39.9 20.35 40.2 20.4 35.95
Q 20.5 33.45 20.9 31.2 19.85 33.5 19.35 35.85 Z"/>

<path fill="#090A0B" stroke="none" d="
M 12.75 35.1
L 13.95 35.15
Q 14.05 35.2 14.25 35.2
L 14.3 35.2 13.9 32
Q 11.694921875 32.6484375 10 32.6 8.2 32.45 7.65 32.25 6.15 31.9 5 30.9
L 4.95 30.75 4.6 30.55 4.45 30.4
Q 4.407421875 30.442578125 4.4 30.45
L 4.4 30.55
Q 4.35 30.65 4.35 30.75
L 4.3 30.8
Q 4.15 32 4.2 33.45
L 4.25 33.45
Q 4.35 34.2 4.4 34.8
L 4.8 34.8 6.2 34.75 6.35 34.8
Q 9.55 34.85 12.7 35.1
L 12.75 35.1
M 37.4 5.6
Q 37.35 5.65 37.25 5.65 36.2 6.4 35.35 7.55 33.35 10.05 31.4 13.7
L 31.15 14.1 31 14.5 31 14.45 30.9 14.65 31.1 16.1 31.65 15.2
Q 31.95 14.75 32.1 14.4 32.4 13.7 32.8 13.05 34.4 10.25 36.05 8.25 36.4 7.7 36.9 7.25
L 36.9 7.2 37.4 5.6 Z"/>

<path fill="#110625" stroke="none" d="
M 13.75 22.6
Q 13.246875 22.90625 12.75 23.25 12.140625 23.671875 11.55 24.15 9.9 25.45 8.25 27.45 7.95 27.7 7.65 28
L 6.2 26.7 6.05 26.4
Q 5.95 26.3 5.8 26.15
L 5.8 26.1 5.65 25.95
Q 5.45 25.65 5.25 25.15
L 5.05 24.85 4.5 25.1
Q 2.95 27.9 2.3 31
L 2.1 32.3
Q 1.9 33.8 2.05 34.9
L 2.1 35.6
Q 2.15 35.8 2.15 36.05 2.35 37.25 2.65 38.1 2.75 38.45 2.9 38.75
L 4.2 38.65
Q 9.530859375 38.6943359375 14.85 39.25 15.530859375 39.321875 16.2 39.4
L 19.1 39.9 19.1 38.65
Q 17.95 38.437109375 16.8 38.25 16.6 38.2296875 16.4 38.2
L 12.9 37.85 12.55 37.85 11.9 37.75
Q 8.5 37.5 5 37.5
L 3.85 37.45 3.65 36.25
Q 3.6 36.1 3.55 35.8
L 3.45 34.9
Q 3.4 33.8 3.55 32.5
L 3.75 31.2
Q 4.2 29.2 5.05 27.25
L 5.05 27.2
Q 5.15 27.25 5.25 27.45
L 5.35 27.55 5.6 27.85
Q 5.7 27.9 5.7 28 6.75 29.1 8.05 29.45 10.5 30.3 13.1 29.45 13.3265625 29.3744140625 13.55 29.25 14.6765625 28.83203125 15.8 28 16.1572265625 27.7888671875 16.5 27.55 17.2248046875 27.04140625 17.9 26.4 17.223828125 26.8982421875 16.45 27.35 16.1671875 27.526953125 15.85 27.7
L 15.4 27.9
Q 14.46328125 28.3072265625 13.45 28.55 13.2318359375 28.6443359375 13 28.7 12.1 28.9 11.35 28.9 10.4 28.9 9.55 28.65
L 8.7 28.45 8.95 28.1
Q 10.6 26.2 12.15 24.95
L 14.25 23.4 14.65 23.2
Q 16.05 22.3 17.55 21.55 17.05 21.2 16.55 20.9 15.15 21.65 13.75 22.6
M 56.4 33.55
L 56.45 33.7
Q 56.75 34.5 57.05 34.85
L 57.7 35.55
Q 57.8517578125 35.6595703125 58 35.75 58.7939453125 36.2505859375 59.75 36.5
L 61.35 36.6 61.75 36.55
Q 62.4 36.45 63.1 36.15 63.25 36.1 63.3 36.1
L 63.5 35.95 63.6 35.85
Q 63.55 36.25 63.45 36.75 63.4 37.1 63.25 37.4 62.95 38.4 62.4 39.55 62.25 40.1 61.9 40.55
L 61.9 40.65 60.95 42.45
Q 60.35 43.45 59.6 44.35
L 59.55 44.45 59.45 44.55 59.3 44.55 59 44.65 58.9 44.65 55.75 45.35
Q 55.1 45.6 54.4 45.65
L 54.35 45.6
Q 54.2 45.6 54.15 45.7
L 52.6 45.85 48.6 46.25
Q 41.733203125 46.4490234375 35.6 43.7
L 35.55 43.7
Q 31.7 42.05 27.75 40.75
L 27.05 40.5 27.25 41.8 25.95 41.45 28.7 42.3
Q 32.55 43.7 36.25 45.2 39.45 46.55 42.9 47
L 43.95 47.15
Q 45.9 47.3 49.6 47.05 50.7201171875 46.9744140625 52.1 46.8 55.3283203125 46.4064453125 60 45.5 60.15 45.2 60.8 44.35
L 61.45 43.35
Q 62.5 41.9 63.2 40.25 63.35 40.15 63.35 40
L 63.4 39.95
Q 64.2 38.15 64.55 36.3
L 64.7 35.25
Q 64.8 34.75 64.75 34.15
L 64.75 34.1
Q 64.3 34.45 63.8 34.7
L 63.65 34.8
Q 62.8 35.25 61.9 35.4
L 60.9 35.45 60.2 35.35
Q 59.2607421875 35.2373046875 58.55 34.75 58.311328125 34.598828125 58.1 34.4
L 57.7 33.95
Q 57.25 33.45 57.35 33.05
L 57.35 32.6
Q 56.95 33.1 56.4 33.55 Z"/>

<path fill="#332943" stroke="none" d="
M 20.8 23.35
L 20.45 23.7
Q 19.9 23.25 19.1 22.7
L 18.15 22 18.15 21.9
Q 18.05 21.9 18 21.9
L 17.7 21.65 17.55 21.55
Q 16.05 22.3 14.65 23.2
L 14.25 23.4 12.15 24.95
Q 10.6 26.2 8.95 28.1
L 8.7 28.45 9.55 28.65
Q 10.4 28.9 11.35 28.9 12.1 28.85 13 28.6 13.22109375 28.555859375 13.45 28.5 14.4623046875 28.24375 15.45 27.75
L 15.85 27.6 18.15 26.1 19.2 25.2 19.25 25.1
Q 20.55 24 21.85 22.4
L 21 23.25 20.8 23.35 Z"/>

<path fill="#9A2630" stroke="none" d="
M 22.3 19.55
L 21.7 18.65
Q 21.05 17.7 20.3 16.6
L 18.8 14.55
Q 17.1 12.1 15.85 10.7
L 15.8 10.7
Q 14.45 10.75 12.25 11.35 11.55 11.45 10.75 11.75 8.55 12.3 6.95 13.2
L 6.35 14.05
Q 7 13.7 7.85 13.55 11.35 12.6 13.7 13.6
L 14.1 13.9 14.15 13.9 14.3 13.95
Q 14.5 14.1 14.8 14.25 16.55 15.1 18.75 17.55
L 21.45 20.85 22.95 20.75
Q 22.65 20.2 22.3 19.55 Z"/>

<path fill="#74171F" stroke="none" d="
M 23.05 20.95
L 23.05 20.9 22.95 20.75 21.45 20.85 18.75 17.55
Q 16.55 15.1 14.8 14.25 14.5 14.1 14.3 13.95
L 14.15 13.9 14.1 13.9 13.7 13.6
Q 11.35 12.6 7.85 13.55 7 13.7 6.35 14.05
L 6 14.55
Q 5 15.9 4.25 17.55 4.05 17.95 0.65 25.45
L 0.55 25.6
Q 2.75 25.1 5.65 24.05 8.05 23.15 9.95 22.2
L 10.6 18.1 11.4 21.4
Q 13.45 20.35 14.9 19.15 14.95 19.2 15 19.2 15.9 19.75 17.05 20.6
L 18.25 21.45 18.4 21.6 20.8 23.35 21 23.25 21.85 22.4 22.15 22.1 22.2 22 23.05 20.95
M 23.15 20.8
L 23.25 20.6 23.4 20.6 19.3 11.5 19.1 10.85 18.85 10.4
Q 17.45 7.1 16 3.9
L 15.95 3.9
Q 16 3.8 12.55 2.8
L 11.7 2.55
Q 8.05 1.65 5.5 1.35 3.05 1.85 0.9 2.8 1.95 3.9 3.25 5
L 4.25 5.8 12.9 5.5 5.8 7.15
Q 8.95 9.5 12.25 11.35 14.45 10.75 15.8 10.7
L 15.85 10.7
Q 17.1 12.1 18.8 14.55
L 20.3 16.6
Q 21.05 17.7 21.7 18.65
L 22.3 19.55
Q 22.65 20.2 22.95 20.75
L 23.15 20.8 Z"/>

<path fill="#4D0C11" stroke="none" d="
M 23.15 20.8
L 22.95 20.75 23.05 20.9 23.05 20.95 23.15 20.8 Z"/>

<path fill="#261D33" stroke="none" d="
M 24.5 18.9
L 24.4 18.95 23.75 20 24.5 18.9 Z"/>

<path fill="#1C1C1C" stroke="none" d="
M 30.3 15.55
L 28.65 18.5 28.55 18.75 26.25 22.25
Q 25.3 23.7 24.3 24.95
L 22.05 27.4 21.35 27.95
Q 20 29.05 18.55 29.9 17.95 30.3 17.3 30.55
L 16.9 30.75 16.85 30.85 16.8 30.85 16.65 30.85
Q 16.4 31.05 15.8 31.3
L 14.35 31.8 14.3 31.8 14.05 31.95
Q 13.9775390625 31.9720703125 13.9 32
L 14.3 35.2 19.35 35.85
Q 19.85 33.5 20.9 31.2 20.9 33.7 21.05 36.1
L 24.55 36.85
Q 25.1 32.1 26.5 27.6
L 26.4 28.5
Q 26.15 33 26.6 37.3
L 29.15 38.1
Q 31.05 38.7 32.85 39.35 33.3447265625 39.5267578125 33.8 39.7
L 30 31.05 30.5 27.9
Q 30.405859375 27.78359375 30.3 27.65 28.2 25.1 29.55 20.3
L 29.5 20.35
Q 29.6 19.95 30.25 18.65
L 30.25 18.7 31 17.1 31.2 16.9 31.1 16.1 30.9 14.65 30.7 15 30.3 15.55
M 14.4 32.65
L 14.35 32.7 14.2 32.8
Q 14.25 32.75 14.4 32.65 Z"/>

<path fill="#353E41" stroke="none" d="
M 14.35 32.7
L 14.4 32.65
Q 14.25 32.75 14.2 32.8
L 14.35 32.7
M 62.9 37.5
L 61.9 40.05 61.2 41.2 61 41.7 61.3 41.2
Q 61.6 40.9 61.8 40.45 62.2 39.7 62.5 38.7
L 63 37.55 62.9 37.5
M 63.15 36.6
L 63.25 36.6 63.3 36.5 63.15 36.6 Z"/>

<path fill="#D24552" stroke="none" d="
M 20.65 2.45
Q 20.55 2.35 20.35 2.25
L 19.45 1.85
Q 19.25 1.7 19.05 1.6 14.85 -0.25 9.45 0.05 8.85 0.15 8.2 0.25
L 8.3 0.25
Q 6.85 0.35 5.45 0.65 2.95 1.15 0.7 2.05 0.5 2.2 0.4 2.4 0.35 2.55 0.35 2.8 0.35 3 0.5 3.1
L 3.8 6.2
Q 4.1 6.4 4.4 6.4
L 6 6.3 5.75 6.4
Q 5.55 6.45 5.35 6.7 5.25 6.8 5.25 7.1 5.3 7.4 5.55 7.5 8.05 9.4 10.65 10.95 8.35 11.6 6.7 12.5 6.55 12.55 6.5 12.75
L 5.85 13.55 5.6 14.05 5.5 14.15
Q 4.5 15.5 3.7 17.2 3.5 17.55 0.15 24.95
L 0.05 25.1
Q -0.05 25.35 0 25.6 0.1 25.9 0.35 26
L 0.8 26.1
Q 2.5 25.75 4.5 25.1
L 5.05 24.85 6.05 24.5
Q 8.45 23.65 10.35 22.65 10.5 22.6 10.6 22.45 10.7 22.4 10.75 22.25
L 10.9 21.45 11.1 21.75
Q 11.2 21.95 11.45 21.95 11.7 22 11.85 21.85 13.65 20.95 15.05 19.85 15.8 20.25 16.55 20.9 17.05 21.2 17.55 21.55
L 17.7 21.65 18 21.9
Q 18.05 21.9 18.15 21.9
L 18.15 22 19.1 22.7
Q 19.9 23.25 20.45 23.7
L 20.8 23.35 18.4 21.6 18.25 21.45 17.05 20.6
Q 15.9 19.75 15 19.2 14.95 19.2 14.9 19.15 13.45 20.35 11.4 21.4
L 10.6 18.1 9.95 22.2
Q 8.05 23.15 5.65 24.05 2.75 25.1 0.55 25.6
L 0.65 25.45
Q 4.05 17.95 4.25 17.55 5 15.9 6 14.55
L 6.35 14.05 6.95 13.2
Q 8.55 12.3 10.75 11.75 11.55 11.45 12.25 11.35 8.95 9.5 5.8 7.15
L 12.9 5.5 4.25 5.8 3.25 5
Q 1.95 3.9 0.9 2.8 3.05 1.85 5.5 1.35 8.05 1.65 11.7 2.55
L 12.55 2.8
Q 16 3.8 15.95 3.9
L 16 3.9
Q 17.45 7.1 18.85 10.4
L 19.1 10.85 19.3 11.5 23.4 20.6 23.45 20.4 23.75 20 24.4 18.95 24.75 18.4 24.5 17.1 24.05 14.8
Q 23.55 12.8 23 10.75 21.7 5.6 20.75 2.65 20.8 2.5 20.65 2.45 Z"/>

<path fill="#2E0E62" stroke="none" d="
M 34.4 3.95
Q 34.25 4.1 34.1 4.3
L 34.55 3.9 34.4 3.95 Z"/>

<path fill="#171717" stroke="none" d="
M 59.6 36.8
Q 58.6837890625 36.53828125 57.85 35.95
L 54 43.2 55.5 43 55.65 42.95 55.7 42.95 60.4 41.95 60.65 41.85
Q 60.75 41.8 60.9 41.8
L 60.95 41.8 61 41.7 61.2 41.2 61.9 40.05 62.9 37.5 63 37.55 63.25 36.6 63.15 36.6 62.95 36.65
Q 62.3 36.9 61.7 36.95
L 61.2 37.05
Q 60.35 37 59.6 36.8 Z"/>

<path fill="#121212" stroke="none" d="
M 54.95 34.3
Q 54.6 35.2 54.35 36.25
L 54.3 36.3
Q 53.4 39.35 53.05 40.1 52.45 41.4 51.75 42.1
L 51.7 42.15
Q 51.3 42.55 50.85 42.75 49.4 43.55 46.65 42.75
L 46.6 42.75
Q 45.7 42.45 44.8 41.85
L 44.65 41.8 43.9 41.2
Q 43.85 41.1 43.8 41.1 42.85 40.2 42.05 38.85 41.85 38.6 41.85 38.25 41.9 37.1 41.85 36.15
L 41.8 36.1
Q 41.55 33.2 39.55 32.45 32.7607421875 30.4083984375 30.5 27.9
L 30 31.05 33.8 39.7
Q 35.4212890625 40.312109375 36.95 41 42.85 43.65 49.4 43.55
L 51.2 43.5 51.2 43.45
Q 51.85 43.5 52.5 43.4
L 54 43.2 57.85 35.95
Q 57.7646484375 35.8892578125 57.65 35.8 57.25 35.45 57 35 56.7 34.6 56.45 33.7
L 56.4 33.55 56.35 33.55 56.4 34.4
Q 56.45 35.05 56.55 35.65
L 56.45 35.45 56.25 34.9 56.2 34.85 55.95 33.85 55.9 33.85 55.85 33.9
Q 55.45 34.1 54.95 34.3
M 51.15 8.75
L 50.85 8.35
Q 49.9 7.05 49.05 5.95 49.45 6.55 49.9 7.35 48.05 5.25 45.85 4.4
L 45.8 4.4
Q 44.35 3.9 44.05 3.85
L 43 3.75
Q 42.15 3.65 40.75 3.95 39.45 4.2 38.1 5.1
L 37.4 5.55 37.4 5.6 36.9 7.2 36.9 7.25
Q 36.4 7.7 36.05 8.25 34.4 10.25 32.8 13.05 32.4 13.7 32.1 14.4 31.95 14.75 31.65 15.2
L 31.1 16.1 31.2 16.9 31.3 16.8
Q 31.55 16.4 31.9 15.95 32.55 14.75 34.5 13.45
L 34.55 13.4
Q 35.85 12.4 37.15 11.7 39.95 10.4 42.85 10.3 42.9 10.25 43.15 10.2
L 43.85 10.25
Q 45.35 10.3 46.9 10.65
L 47 10.65
Q 50.25 11.55 52.5 12.95
L 53.2 13.5 52.75 12.05
Q 52 10.15 51.15 8.75 Z"/>

<path fill="#25221C" stroke="none" d="
M 43.15 10.2
Q 42.9 10.25 42.85 10.3 39.95 10.4 37.15 11.7 35.85 12.4 34.55 13.4
L 34.5 13.45
Q 32.55 14.75 31.9 15.95 31.55 16.4 31.3 16.8
L 31.2 16.9 31 17.1 30.25 18.7 30.25 18.65
Q 29.6 19.95 29.5 20.35
L 29.55 20.3
Q 28.2 25.1 30.3 27.65 30.405859375 27.78359375 30.5 27.9 32.7607421875 30.4083984375 39.55 32.45 41.55 33.2 41.8 36.1
L 41.85 36.15
Q 41.9 37.1 41.85 38.25 41.85 38.6 42.05 38.85 42.85 40.2 43.8 41.1 43.85 41.1 43.9 41.2
L 44.65 41.8 44.8 41.85
Q 45.7 42.45 46.6 42.75
L 46.65 42.75
Q 49.4 43.55 50.85 42.75 51.3 42.55 51.7 42.15
L 51.75 42.1
Q 52.45 41.4 53.05 40.1 53.4 39.35 54.3 36.3
L 54.35 36.25
Q 54.6 35.2 54.95 34.3 55.45 34.1 55.85 33.9
L 55.9 33.85 55.95 33.85 56.35 33.55 56.4 33.55
Q 56.95 33.1 57.35 32.6 57.95 31.75 58.25 30.65
L 58.3 30.6
Q 59.65 26.05 58.75 22.25 58 18.85 55.45 15.75 54.85 15.05 54.15 14.35
L 54.1 14.35 53.75 13.95 53.65 13.85
Q 53.45 13.7 53.2 13.5
L 52.5 12.95
Q 50.25 11.55 47 10.65
L 46.9 10.65
Q 45.35 10.3 43.85 10.25
L 43.15 10.2
M 44.8 11.7
Q 45.8 11.75 46.9 12 50 12.85 52.05 14.15 52.95 14.75 53.55 15.35
L 53.8 15.55
Q 54 15.8 54.15 15.95
L 54.5 16.35
Q 55.45 17.45 56.15 18.55 57.4 20.6 57.85 22.75 58.7 26.3 57.4 30.55
L 57.35 30.7
Q 57.05 31.85 56.35 32.55 56.05 32.8 55.7 33.1
L 55.55 33.15
Q 55 33.5 54.3 33.7 53.75 34.9 53.45 36.3 52.5 39.2 52.25 39.95 51.7 41.05 51.15 41.65 50.9 41.9 50.55 42 49.35 42.65 47.2 42 46.4 41.7 45.6 41.25
L 44.8 40.6
Q 44 39.8 43.3 38.6 43.35 37.4 43.2 36.3 42.9 32.55 40.05 31.65 33.45 29.7 31.5 27.25 31.0826171875 26.753515625 30.8 26.15 29.920703125 24.113671875 30.85 20.9 30.94921875 20.5529296875 31.55 19.4
L 31.55 19.4 32.25 18 32.55 17.65 33.1 16.75
Q 33.75 15.85 35.5 14.6 36.7 13.6 37.95 13 39.65 12.15 41.45 11.85 45.45 14.4 47.1 17.6 46.7 14.25 44.8 11.7 Z"/>

<path fill="#251F2A" stroke="none" d="
M 51.5 32.4
Q 51.25 31.95 51 31.7 50.8 32.1 50.55 32.75 49.95 33.85 49.7 34.6
L 49.6 34.9
Q 49.25 36.1 49.35 36.55 49.4 36.8 49.75 36.9 50 37 50.45 36.65 50.95 35.8 51.35 34.8
L 51.4 34.5
Q 51.75 33.3 51.5 32.4
M 55.1 23.55
L 55.05 23.65
Q 54.9 24 54.65 25.05
L 54.4 25.45 54.4 25.55
Q 53.75 27.8 53.95 29.4
L 54.6 28.8
Q 55 28.3 55.3 27.75
L 55.3 27.7
Q 55.6 27.2 55.7 26.65 55.9 26.05 55.95 25.45 56.05 24.4 55.75 23.5
L 55.55 23.05 55.1 23.55
M 43.2 20.8
L 42.45 21.25
Q 40.55 22.5 39.9 24.55 39.85 24.85 39.9 25.35 40.05 26.1 40.6 27.15
L 40.95 27.6
Q 41.55 28.05 42.35 28.25 44.25 28.75 45.9 27.6 47.2 26.55 47.8 24.5 48.3 22.8 47.55 21.5
L 47.45 21.4
Q 46.55 20.9 45.4 20.55 44.4 20.3 43.2 20.8 Z"/>

<path fill="#655669" stroke="none" d="
M 51.8 30.9
Q 51.65 30.85 51.6 30.9 51.4 31.05 51 31.7 51.25 31.95 51.5 32.4 51.75 33.3 51.4 34.5
L 51.35 34.8
Q 50.95 35.8 50.45 36.65
L 50.95 36.1 51.35 35.45 51.75 34.95
Q 52.05 36.4 52.5 36.55
L 52.85 35.7
Q 53.05 34.95 53.05 34.1 53.05 33.6 52.95 33.1 52.85 33 52.85 32.8
L 52.8 32.45
Q 52.5 31.1 51.8 30.9
M 56.35 22.75
Q 55.95 22.6 55.8 22.8
L 55.55 23.05 55.75 23.5
Q 56.05 24.4 55.95 25.45 55.9 26.05 55.7 26.65 55.6 27.2 55.3 27.7
L 55.3 27.75
Q 55 28.3 54.6 28.8
L 53.95 29.4 53.9 29.35
Q 53.9 29.45 54 29.6 54.15 30.9 54.95 31.05 55.15 31.1 55.35 30.95
L 55.4 30.95
Q 55.8 30.7 56.25 29.95
L 56.3 29.85 56.5 29.3
Q 56.85 28.55 57.1 27.65
L 57.2 27.3
Q 57.8 25.05 57.25 23.8 57.05 23.35 56.85 23.05 56.6 22.8 56.35 22.75
M 47.55 21.5
Q 48.3 22.8 47.8 24.5 47.2 26.55 45.9 27.6 44.25 28.75 42.35 28.25 41.55 28.05 40.95 27.6 42.3 29.45 44.45 30.15 46.95 30.85 48.3 29.65 49.45 28.75 50.1 26.5 50.95 23.75 48.4 21.9 48.05 21.65 47.45 21.4
L 47.55 21.5 Z"/>

<path fill="#B8A6B3" stroke="none" d="
M 52.05 14.15
L 52.3 14.35
Q 53.15 15.05 53.8 15.75
L 54.85 16.95
Q 55.35 17.9 56.15 20 56.1 20.1 56.15 20.1 56.3 20.45 56.35 20.7 56.65 21.8 56.8 22.95
L 56.85 23.05
Q 57.05 23.35 57.25 23.8 57.8 25.05 57.2 27.3
L 57.1 27.65
Q 56.85 28.55 56.5 29.3
L 56.3 29.85 56.25 30
Q 55.95 30.8 55.55 31.4
L 55.45 31.5
Q 54.85 32.3 54.3 32.1 53.8 32 53.25 30.7
L 52.8 29.4 53.05 30.95
Q 53.2 32.15 52.95 32.95
L 52.95 33.1
Q 53.05 33.6 53.05 34.1 53.05 34.95 52.85 35.7
L 52.5 36.55
Q 52.05 36.4 51.75 34.95
L 51.35 35.45
Q 51.4 36.4 51.1 37.45 50.6 39.2 49.3 40.4 48.4 41.2 47.6 41.2 47.35 41.2 47.15 41.15 47 41.1 46.8 41
L 46.55 40.85 46.1 40.65 46.2 40.5
Q 46.9 39.4 47.3 38.1 47.55 37.05 47.65 36.25
L 47.65 35.8 47.6 35.8
Q 47.45 36.15 46.4 37.9
L 45.15 39.85
Q 44.2 38.9 44.25 37.55 44.25 36.7 44.65 35.6 45.05 34.6 45.1 34.4 45.35 33.4 44.5 32.15 43.85 31.15 43.1 30.85 36.85 28.7 34.65 27.05 31.4642578125 24.563671875 31.7 20.9 31.709765625 20.7501953125 31.7 20.6 31.803125 19.6865234375 32.1 18.7 32.25 18.2 32.55 17.65
L 32.25 18 31.55 19.4 31.55 19.4
Q 30.94921875 20.5529296875 30.85 20.9 29.920703125 24.113671875 30.8 26.15 31.0826171875 26.753515625 31.5 27.25 33.45 29.7 40.05 31.65 42.9 32.55 43.2 36.3 43.35 37.4 43.3 38.6 44 39.8 44.8 40.6
L 45.6 41.25
Q 46.4 41.7 47.2 42 49.35 42.65 50.55 42 50.9 41.9 51.15 41.65 51.7 41.05 52.25 39.95 52.5 39.2 53.45 36.3 53.75 34.9 54.3 33.7 55 33.5 55.55 33.15
L 55.7 33.1
Q 56.05 32.8 56.35 32.55 57.05 31.85 57.35 30.7
L 57.4 30.55
Q 58.7 26.3 57.85 22.75 57.4 20.6 56.15 18.55 55.45 17.45 54.5 16.35
L 54.15 15.95
Q 54 15.8 53.8 15.55
L 53.55 15.35
Q 52.95 14.75 52.05 14.15 Z"/>

<path fill="#FBF0D2" stroke="none" d="
M 46.9 12
Q 45.8 11.75 44.8 11.7 46.7 14.25 47.1 17.6 45.45 14.4 41.45 11.85 39.65 12.15 37.95 13 36.7 13.6 35.5 14.6 33.75 15.85 33.1 16.75
L 32.55 17.65
Q 32.25 18.2 32.1 18.7 31.803125 19.6865234375 31.7 20.6 31.709765625 20.7501953125 31.7 20.9 31.4642578125 24.563671875 34.65 27.05 36.85 28.7 43.1 30.85 43.85 31.15 44.5 32.15 45.35 33.4 45.1 34.4 45.05 34.6 44.65 35.6 44.25 36.7 44.25 37.55 44.2 38.9 45.15 39.85
L 46.4 37.9
Q 47.45 36.15 47.6 35.8
L 47.65 35.8 47.65 36.25
Q 47.55 37.05 47.3 38.1 46.9 39.4 46.2 40.5
L 46.1 40.65 46.55 40.85 46.8 41
Q 47 41.1 47.15 41.15 47.35 41.2 47.6 41.2 48.4 41.2 49.3 40.4 50.6 39.2 51.1 37.45 51.4 36.4 51.35 35.45
L 50.95 36.1 50.45 36.65
Q 50 37 49.75 36.9 49.4 36.8 49.35 36.55 49.25 36.1 49.6 34.9
L 49.7 34.6
Q 49.95 33.85 50.55 32.75 50.8 32.1 51 31.7 51.4 31.05 51.6 30.9 51.65 30.85 51.8 30.9 52.5 31.1 52.8 32.45
L 52.85 32.8
Q 52.85 33 52.95 33.1
L 52.95 32.95
Q 53.2 32.15 53.05 30.95
L 52.8 29.4 53.25 30.7
Q 53.8 32 54.3 32.1 54.85 32.3 55.45 31.5
L 55.55 31.4
Q 55.95 30.8 56.25 30
L 56.3 29.85 56.25 29.95
Q 55.8 30.7 55.4 30.95
L 55.35 30.95
Q 55.15 31.1 54.95 31.05 54.15 30.9 54 29.6 53.9 29.45 53.9 29.35
L 53.95 29.4
Q 53.75 27.8 54.4 25.55
L 54.4 25.45 54.65 25.05
Q 54.9 24 55.05 23.65
L 55.1 23.55 55.55 23.05 55.8 22.8
Q 55.95 22.6 56.35 22.75 56.6 22.8 56.85 23.05
L 56.8 22.95
Q 56.65 21.8 56.35 20.7 56.3 20.45 56.15 20.1 56.1 20.1 56.15 20 55.35 17.9 54.85 16.95
L 53.8 15.75
Q 53.15 15.05 52.3 14.35
L 52.05 14.15
Q 50 12.85 46.9 12
M 42.45 21.25
L 43.2 20.8
Q 44.4 20.3 45.4 20.55 46.55 20.9 47.45 21.4 48.05 21.65 48.4 21.9 50.95 23.75 50.1 26.5 49.45 28.75 48.3 29.65 46.95 30.85 44.45 30.15 42.3 29.45 40.95 27.6
L 40.6 27.15
Q 40.05 26.1 39.9 25.35 39.85 24.85 39.9 24.55 40.55 22.5 42.45 21.25 Z"/>

<path fill="#7D51C2" stroke="none" d="
M 50.85 8.35
L 51.15 8.75
Q 52 10.15 52.75 12.05
L 53.2 13.5
Q 53.45 13.7 53.65 13.85
L 53.5 13.35 53.75 13.95 54.1 14.35 54.15 14.35
Q 54.85 15.05 55.45 15.75 55.1 14.3 54.7 12.95 53.7 9.75 52.05 6.9 50.45 3.9 47.55 1.8 47.25 1.65 47.05 1.45 45.85 0.7 44.5 0.45 43 0.05 41.1 0.2 37.2 0.45 34.55 2.95 31.9 5.35 29.25 9.45
L 24.95 16.45 24.9 16.65 24.55 17.1 24.5 17.1 24.75 18.4 24.4 18.95 24.5 18.9 24.9 18.35
Q 25.35 17.8 25.65 17.2 26 16.75 26.3 16.3
L 26.35 16.1 27.15 14.9 27.15 14.85 27.8 13.9
Q 28.1 13.35 28.45 12.75
L 28.5 12.75 30 10.2
Q 31.6 7.25 33.4 5.05
L 34 4.35 34.1 4.3
Q 34.25 4.1 34.4 3.95
L 34.55 3.9 34.6 3.8 36.35 2.65 38.75 1.6 38.75 1.7 38.55 2.2
Q 37.25 2.55 36.25 3.15
L 35.75 3.5
Q 35.05 3.8 34.5 4.35
L 33.9 4.85
Q 31.75 7.2 29.8 10.6
L 28.35 13.15 28.3 13.15
Q 27.95 13.75 27.7 14.3
L 26.25 16.55 26.2 16.7 25.05 18.35
Q 24.85 18.6 24.7 18.9 23.95 20 23.1 21.05 22.55 21.9 21.9 22.65 20.55 24.25 19.3 25.4
L 19.3 25.35 19.15 25.4 18.3 26.1
Q 18.15 26.2 18.1 26.35
L 17.9 26.4
Q 17.2248046875 27.04140625 16.5 27.55
L 16.8 29.55 16.8 30.85 16.85 30.85 16.9 30.75 17.3 30.55
Q 17.95 30.3 18.55 29.9 20 29.05 21.35 27.95
L 22.05 27.4 24.3 24.95
Q 25.3 23.7 26.25 22.25
L 28.55 18.75 28.65 18.5 30.3 15.55 30.7 15 30.9 14.65 31 14.45 31 14.5 31.15 14.1 31.4 13.7
Q 33.35 10.05 35.35 7.55 36.2 6.4 37.25 5.65 37.35 5.65 37.4 5.6
L 37.4 5.55 38.1 5.1
Q 39.45 4.2 40.75 3.95 42.15 3.65 43 3.75
L 44.05 3.85
Q 44.35 3.9 45.8 4.4
L 45.85 4.4
Q 48.05 5.25 49.9 7.35 49.45 6.55 49.05 5.95 49.9 7.05 50.85 8.35 Z"/>
</g>

<g id="_____________________________________236_0_Layer0_0_FILL">
<path fill="#6D42B1" stroke="none" d="
M 23.9 39.5
L 24.1 39.6 24.1 39.55 23.9 39.5
M 37.25 5.65
Q 37.35 5.65 37.4 5.6
L 37.4 5.55 37.4 5.4 38.1 3.45 38.2 3.25 38.2 3.2
Q 35.2 4.95 32.35 9 29.55 13.05 27.65 18.1
L 27.5 18.35 26.45 21.4 26.45 21.5 25.8 22.6 25.75 22.6
Q 24.3 24.85 22.85 26.35
L 22.65 26.65 22.45 26.75 21.6 27.7 21.2 27.95
Q 20.15 28.8 19.05 29.5 18.7 29.8 18.2 30
L 17.3 30.55
Q 17.95 30.3 18.55 29.9 20 29.05 21.35 27.95
L 22.05 27.4 24.3 24.95
Q 25.3 23.7 26.25 22.25
L 28.55 18.75 28.65 18.5 30.3 15.55 30.7 15 31 14.45 31 14.5 31.15 14.1 31.4 13.7
Q 33.35 10.05 35.35 7.55 36.2 6.4 37.25 5.65
M 38.75 1.7
L 38.75 1.6 36.35 2.65 34.6 3.8 34.55 3.9 34.1 4.3 34 4.35 33.4 5.05
Q 31.6 7.25 30 10.2
L 28.5 12.75 28.45 12.75
Q 28.1 13.35 27.8 13.9
L 27.15 14.85 27.15 14.9 26.35 16.1 26.3 16.3
Q 26 16.75 25.65 17.2 25.35 17.8 24.9 18.35
L 24.5 18.9 23.75 20 23.45 20.4 23.4 20.6 23.25 20.6 23.15 20.8 23.05 20.95 22.2 22 22.15 22.1 21.85 22.4
Q 20.55 24 19.25 25.1
L 19.2 25.2 18.15 26.1 15.85 27.6 15.45 27.75
Q 14.25 28.35 13 28.6 12.1 28.85 11.35 28.9 12.1 28.9 13 28.7 14.25 28.4 15.4 27.9
L 15.85 27.7
Q 16.95 27.1 17.9 26.4
L 18.1 26.35
Q 18.15 26.2 18.3 26.1
L 19.15 25.4 19.3 25.35 19.3 25.4
Q 20.55 24.25 21.9 22.65 22.55 21.9 23.1 21.05 23.95 20 24.7 18.9 24.85 18.6 25.05 18.35
L 26.2 16.7 26.25 16.55 27.7 14.3
Q 27.95 13.75 28.3 13.15
L 28.35 13.15 29.8 10.6
Q 31.75 7.2 33.9 4.85
L 34.5 4.35
Q 35.05 3.8 35.75 3.5
L 36.25 3.15
Q 37.25 2.55 38.55 2.2
L 38.75 1.7 Z"/>

<path fill="#3A1F64" stroke="none" d="
M 26.4 28.5
Q 25.85 32.7 25.7 37.1
L 25.75 41.45 25.95 41.45 27.25 41.8 27.05 40.5 27.75 40.75 27.05 40.45
Q 26.75 39.05 26.6 37.6
L 26.6 37.3
Q 26.15 33 26.4 28.5
M 12.75 35.1
L 12.7 35.1
Q 9.55 34.85 6.35 34.8
L 4.8 34.8 4.4 34.8 4.75 36.65
Q 8.6 36.75 12.55 37.85
L 12.9 37.85 16.4 38.2
Q 17.75 38.4 19.1 38.65
L 19.1 38.3 15.8 37.65 15.8 35.45 12.75 35.1
M 15.8 29.4
Q 15.75 28.95 15.75 28.6 15.2 28.9 14.45 29.15 13.75 29.4 13.1 29.45 10.5 30.3 8.05 29.45 6.75 29.1 5.7 28 5.7 27.9 5.6 27.85
L 5.35 27.55 5.25 27.45 4.6 29.35
Q 4.451953125 29.8931640625 4.4 30.45 4.407421875 30.442578125 4.45 30.4
L 4.6 30.55 4.95 30.75 5 30.9
Q 6.15 31.9 7.65 32.25 8.2 32.45 10 32.6 11.75 32.65 14.05 31.95
L 14.3 31.8 14.35 31.8 14.5 31.75 15.8 30.9 15.8 29.4
M 60.55 42.5
L 60.2 42.6 60.1 42.6 55 43.6 54.95 43.6 54.9 43.7 54.65 44.75 54.65 45.05 54.5 45.2 54.5 45.3 54.35 45.6 54.4 45.65
Q 55.1 45.6 55.75 45.35
L 58.9 44.65 59 44.65 59.3 44.55 59.45 44.55
Q 60 43.7 60.75 42.35
L 60.55 42.5
M 57 35
Q 57.25 35.45 57.65 35.8 58.55 36.5 59.6 36.8 60.35 37 61.2 37.05
L 61.7 36.95
Q 62.3 36.9 62.95 36.65
L 63.15 36.6 63.3 36.5 63.25 36.6 63 37.55 62.5 38.7
Q 62.2 39.7 61.8 40.45 62.2 39.95 62.4 39.55 62.95 38.4 63.25 37.4 63.4 37.1 63.45 36.75 63.55 36.25 63.6 35.85
L 63.5 35.95 63.3 36.1
Q 63.25 36.1 63.1 36.15 62.4 36.45 61.75 36.55
L 61.35 36.6 59.75 36.5
Q 58.6 36.2 57.7 35.55
L 57.05 34.85
Q 56.75 34.5 56.45 33.7 56.7 34.6 57 35
M 56.35 33.55
L 55.95 33.85 56.2 34.85 56.25 34.9 56.45 35.45 56.55 35.65
Q 56.45 35.05 56.4 34.4
L 56.35 33.55
M 53.65 13.85
L 53.75 13.95 53.5 13.35 53.65 13.85 Z"/>

<path fill="#523087" stroke="none" d="
M 20.9 31.2
Q 20.5 33.45 20.4 35.95
L 20.35 40.2 24.25 39.65 24 39.6 24.1 39.6 23.9 39.5 24.1 39.55
Q 24.1 38.25 24.1 36.95
L 24.05 36.9 21.1 36.25 21.05 36.1
Q 20.9 33.7 20.9 31.2
M 19.35 36
L 15.8 35.45 15.8 37.65 19.1 38.3
Q 19.15 37.1 19.35 36 Z"/>

<path fill="#271443" stroke="none" d="
M 24.1 36.95
L 24.5 37.05 24.55 36.85 21.05 36.1 21.1 36.25 24.05 36.9 24.1 36.95
M 6.35 34.8
L 6.2 34.75 4.8 34.8 6.35 34.8
M 5.05 27.2
L 5.05 27.25
Q 4.2 29.2 3.75 31.2
L 3.55 32.5
Q 3.4 33.8 3.45 34.9
L 3.55 35.8
Q 3.6 36.1 3.65 36.25
L 3.85 37.45 5 37.5
Q 8.5 37.5 11.9 37.75
L 12.55 37.85
Q 8.6 36.75 4.75 36.65
L 4.4 34.8
Q 4.35 34.2 4.25 33.45
L 4.2 33.45
Q 4.15 32 4.3 30.8
L 4.35 30.75
Q 4.35 30.65 4.4 30.55
L 4.4 30.45
Q 4.451953125 29.8931640625 4.6 29.35
L 5.25 27.45
Q 5.15 27.25 5.05 27.2
M 14.25 35.2
Q 14.05 35.2 13.95 35.15
L 12.75 35.1 15.8 35.45 19.35 36 19.35 35.85 15.8 35.3 14.25 35.2
M 49.7 44.1
L 50.5 44.05 50.9 44.1 51.1 44.05 52.35 43.9
Q 53.7 43.8 54.95 43.6
L 55 43.6 60.1 42.6 60.2 42.6 60.55 42.5 60.95 41.8 60.9 41.8
Q 60.75 41.8 60.65 41.85
L 60.4 41.95 55.7 42.95 55.65 42.95 55.5 43 52.5 43.4
Q 51.85 43.5 51.2 43.45
L 51.2 43.5 49.4 43.55
Q 42.85 43.65 36.95 41 34.95 40.1 32.85 39.35 31.05 38.7 29.15 38.1
L 26.6 37.3 26.6 37.6 29.1 38.35
Q 31.35 39.1 33.55 40
L 36.85 41.35
Q 42.95 44.2 49.7 44.1 Z"/>

<path fill="#5B3696" stroke="none" d="
M 24.5 37.05
L 24.1 36.95
Q 24.1 38.25 24.1 39.55
L 24.1 39.6 24.25 39.65 24.5 37.05
M 59.55 44.45
L 59.6 44.35
Q 60.35 43.45 60.95 42.45
L 61.9 40.65 61.9 40.55
Q 62.25 40.1 62.4 39.55 62.2 39.95 61.8 40.45 61.6 40.9 61.3 41.2
L 61 41.7 60.95 41.8 60.55 42.5 60.75 42.35
Q 60 43.7 59.45 44.55
L 59.55 44.45
M 50.5 44.05
L 49.7 44.1
Q 42.95 44.2 36.85 41.35
L 33.55 40
Q 31.35 39.1 29.1 38.35
L 26.6 37.6
Q 26.75 39.05 27.05 40.45
L 27.75 40.75
Q 31.7 42.05 35.55 43.7 41.7 46.45 48.6 46.25
L 54.15 45.7
Q 54.2 45.6 54.35 45.6
L 54.5 45.3 54.5 45.2 54.65 45.05 54.65 44.75 54.9 43.7 54.95 43.6
Q 53.7 43.8 52.35 43.9
L 51.1 44.05 50.9 44.1 50.5 44.05
M 41.85 1.75
L 41.4 1.7
Q 40.85 1.7 40.3 1.8
L 38.55 2.2
Q 37.25 2.55 36.25 3.15
L 35.75 3.5
Q 35.05 3.8 34.5 4.35
L 33.9 4.85
Q 31.75 7.2 29.8 10.6
L 28.35 13.15 28.3 13.15
Q 27.95 13.75 27.7 14.3
L 26.25 16.55 26.2 16.7 25.05 18.35
Q 24.85 18.6 24.7 18.9 23.95 20 23.1 21.05 22.55 21.9 21.9 22.65 20.55 24.25 19.3 25.4
L 19.3 25.35 19.15 25.4 18.3 26.1
Q 18.15 26.2 18.1 26.35
L 17.9 26.4
Q 16.9 27.35 15.8 28 14.45 29 13.1 29.45 13.75 29.4 14.45 29.15 15.2 28.9 15.75 28.6 15.75 28.95 15.8 29.4
L 15.8 30.9 14.5 31.75 15.8 31.3
Q 16.4 31.05 16.65 30.85
L 16.85 30.85 16.9 30.75 17.3 30.55 18.2 30
Q 18.7 29.8 19.05 29.5 20.15 28.8 21.2 27.95
L 21.6 27.7 22.45 26.75 22.65 26.65 22.85 26.35
Q 24.3 24.85 25.75 22.6
L 25.8 22.6 26.45 21.5 26.45 21.4 27.5 18.35 27.65 18.1
Q 29.55 13.05 32.35 9 35.2 4.95 38.2 3.2 39.6 2.3 41.1 1.95
L 42.4 1.7 41.85 1.75
M 50.85 8.35
L 51.15 8.75
Q 52 10.15 52.75 12.05
L 53.2 13.5
Q 53.45 13.7 53.65 13.85
L 53.5 13.35 53.4 12.7
Q 53.15 11.95 52.95 11.35 52.25 9.4 51.4 7.85 51.25 7.65 51.1 7.45 49.55 4.85 47.9 3.35 47.1 2.65 46.2 2.15 45.5 1.75 44.75 1.5
L 43.2 1.1 41.55 1.05
Q 41.05 1.05 40.5 1.15
L 38.75 1.6 40.2 1.4 40.4 1.35 41.55 1.3 41.95 1.35
Q 42.5 1.4 43.05 1.5 43.85 1.75 44.6 2.1 45.35 2.45 46 2.85 47.6 3.95 49.05 5.95 49.9 7.05 50.85 8.35 Z"/>

<path fill="#7843CB" stroke="none" d="
M 26.4 28.5
L 26.5 27.6
Q 25.1 32.1 24.55 36.85
L 24.5 37.05 24.25 39.65 24.15 41 25.75 41.45 25.7 37.1
Q 25.85 32.7 26.4 28.5
M 19.35 35.85
L 19.35 36
Q 19.15 37.1 19.1 38.3
L 19.1 38.65 19.1 39.9 20.35 40.2 20.4 35.95
Q 20.5 33.45 20.9 31.2 19.85 33.5 19.35 35.85 Z"/>

<path fill="#353E41" stroke="none" d="
M 14.35 32.7
L 14.4 32.65
Q 14.25 32.75 14.2 32.8
L 14.35 32.7
M 62.5 38.7
L 63 37.55 62.9 37.5 61.9 40.05 61.2 41.2 61 41.7 61.3 41.2
Q 61.6 40.9 61.8 40.45 62.2 39.7 62.5 38.7
M 63.15 36.6
L 63.25 36.6 63.3 36.5 63.15 36.6 Z"/>

<path fill="#261D33" stroke="none" d="
M 19.1 22.7
L 18.15 22 18.15 21.9
Q 18.05 21.9 18 21.9
L 17.7 21.65
Q 15.9 22.65 14.2 23.8 13.5 24.5 12.7 25.05 11.1 26.4 9.55 28.65 10.4 28.9 11.35 28.9 12 27.85 12.7 27.1 13.45 26.3 14.05 25.8
L 14.15 25.7
Q 16.75 23.6 19.1 22.7
M 24.5 18.9
L 24.4 18.95 24.15 19.35 23.75 20 24.5 18.9 Z"/>

<path fill="#110625" stroke="none" d="
M 14.25 23.4
L 14.65 23.2
Q 16.05 22.3 17.55 21.55 17.05 21.2 16.55 20.9 15.15 21.65 13.75 22.6 12.6 23.3 11.55 24.15 9.9 25.45 8.25 27.45 7.95 27.7 7.65 28
L 6.2 26.7 6.05 26.4
Q 5.95 26.3 5.8 26.15
L 5.8 26.1 5.65 25.95
Q 5.45 25.65 5.25 25.15
L 5.05 24.85 4.5 25.1
Q 2.95 27.9 2.3 31
L 2.1 32.3
Q 1.9 33.8 2.05 34.9
L 2.1 35.6
Q 2.15 35.8 2.15 36.05 2.35 37.25 2.65 38.1 2.75 38.45 2.9 38.75
L 4.2 38.65
Q 10.2 38.7 16.2 39.4
L 19.1 39.9 19.1 38.65
Q 17.75 38.4 16.4 38.2
L 12.9 37.85 12.55 37.85 11.9 37.75
Q 8.5 37.5 5 37.5
L 3.85 37.45 3.65 36.25
Q 3.6 36.1 3.55 35.8
L 3.45 34.9
Q 3.4 33.8 3.55 32.5
L 3.75 31.2
Q 4.2 29.2 5.05 27.25
L 5.05 27.2
Q 5.15 27.25 5.25 27.45
L 5.35 27.55 5.6 27.85
Q 5.7 27.9 5.7 28 6.75 29.1 8.05 29.45 10.5 30.3 13.1 29.45 14.45 29 15.8 28 16.9 27.35 17.9 26.4 16.95 27.1 15.85 27.7
L 15.4 27.9
Q 14.25 28.4 13 28.7 12.1 28.9 11.35 28.9 10.4 28.9 9.55 28.65
L 8.7 28.45 8.95 28.1
Q 10.6 26.2 12.15 24.95
L 14.25 23.4
M 56.4 33.55
L 56.45 33.7
Q 56.75 34.5 57.05 34.85
L 57.7 35.55
Q 58.6 36.2 59.75 36.5
L 61.35 36.6 61.75 36.55
Q 62.4 36.45 63.1 36.15 63.25 36.1 63.3 36.1
L 63.5 35.95 63.6 35.85
Q 63.55 36.25 63.45 36.75 63.4 37.1 63.25 37.4 62.95 38.4 62.4 39.55 62.25 40.1 61.9 40.55
L 61.9 40.65 60.95 42.45
Q 60.35 43.45 59.6 44.35
L 59.55 44.45 59.45 44.55 59.3 44.55 59 44.65 58.9 44.65 55.75 45.35
Q 55.1 45.6 54.4 45.65
L 54.35 45.6
Q 54.2 45.6 54.15 45.7
L 48.6 46.25
Q 41.7 46.45 35.55 43.7 31.7 42.05 27.75 40.75
L 27.05 40.5 27.25 41.8 25.95 41.45 28.7 42.3
Q 32.55 43.7 36.25 45.2 39.45 46.55 42.9 47
L 43.95 47.15
Q 45.9 47.3 49.6 47.05 53.3 46.8 60 45.5 60.15 45.2 60.8 44.35
L 61.45 43.35
Q 62.5 41.9 63.2 40.25 63.35 40.15 63.35 40
L 63.4 39.95
Q 64.2 38.15 64.55 36.3
L 64.7 35.25
Q 64.8 34.75 64.75 34.15
L 64.75 34.1
Q 64.3 34.45 63.8 34.7
L 63.65 34.8
Q 62.8 35.25 61.9 35.4
L 60.9 35.45 60.2 35.35
Q 58.95 35.2 58.1 34.4
L 57.7 33.95
Q 57.25 33.45 57.35 33.05
L 57.35 32.6
Q 56.95 33.1 56.4 33.55
M 51.4 7.85
Q 52.25 9.4 52.95 11.35 53.15 11.95 53.4 12.7
L 53.5 13.35 53.75 13.95 54.1 14.35 54.15 14.35
Q 54.85 15.05 55.45 15.75 55.1 14.3 54.7 12.95 53.7 9.75 52.05 6.9 50.45 3.9 47.55 1.8 47.25 1.65 47.05 1.45 45.85 0.7 44.5 0.45 43 0.05 41.1 0.2 37.2 0.45 34.55 2.95 31.9 5.35 29.25 9.45
L 24.95 16.45 24.9 16.65 24.55 17.1 24.5 17.1 24.75 18.4 24.4 18.95 24.5 18.9 24.9 18.35
Q 25.35 17.8 25.65 17.2 26 16.75 26.3 16.3
L 26.35 16.1 27.15 14.9 27.15 14.85 27.8 13.9
Q 28.1 13.35 28.45 12.75
L 28.5 12.75 30 10.2
Q 31.6 7.25 33.4 5.05
L 34 4.35 34.1 4.3
Q 34.25 4.1 34.4 3.95
L 34.55 3.9 34.6 3.8 36.35 2.65 38.75 1.6 40.5 1.15
Q 41.05 1.05 41.55 1.05
L 43.2 1.1 44.75 1.5
Q 45.5 1.75 46.2 2.15 47.1 2.65 47.9 3.35 49.55 4.85 51.1 7.45 51.25 7.65 51.4 7.85 Z"/>

<path fill="#332943" stroke="none" d="
M 14.65 23.2
L 14.25 23.4 12.15 24.95
Q 10.6 26.2 8.95 28.1
L 8.7 28.45 9.55 28.65
Q 11.1 26.4 12.7 25.05 13.5 24.5 14.2 23.8 15.9 22.65 17.7 21.65
L 17.55 21.55
Q 16.05 22.3 14.65 23.2 Z"/>

<path fill="#74171F" stroke="none" d="
M 5.65 24.05
Q 8.05 23.15 9.95 22.2
L 10.6 18.1 11.4 21.4
Q 13.45 20.35 14.9 19.15 14.95 19.2 15 19.2 14.25 17.65 10.15 15.8 7.95 14.7 6 14.55 5 15.9 4.25 17.55 4.05 17.95 0.65 25.45
L 0.55 25.6
Q 2.75 25.1 5.65 24.05
M 12.55 2.8
L 11.7 2.55
Q 8.05 1.65 5.5 1.35 3.05 1.85 0.9 2.8 1.95 3.9 3.25 5
L 4.25 5.8 12.9 5.5 5.8 7.15
Q 8.95 9.5 12.25 11.35 14.45 10.75 15.8 10.7
L 15.85 10.7
Q 17.1 12.1 18.8 14.55 18.85 13.95 18.5 13.05 18 11 17.05 9 15.2 5.05 12.55 2.8
M 23.05 20.95
L 23.05 20.9 22.95 20.75 21.45 20.85 22.2 22 23.05 20.95 Z"/>

<path fill="#5F1017" stroke="none" d="
M 6.35 14.05
L 6 14.55
Q 7.95 14.7 10.15 15.8 14.25 17.65 15 19.2 15.9 19.75 17.05 20.6
L 18.25 21.45
Q 19.1 21.2 19.95 21.05
L 21.45 20.85 18.75 17.55
Q 16.55 15.1 14.8 14.25 14.5 14.1 14.3 13.95
L 14.15 13.9 14.1 13.9 13.7 13.6
Q 11.35 12.6 7.85 13.55 7 13.7 6.35 14.05
M 22.95 20.75
L 23.15 20.8 23.25 20.6 23.4 20.6 19.3 11.5 19.1 10.85 18.85 10.4
Q 17.45 7.1 16 3.9
L 15.95 3.9
Q 16 3.8 12.55 2.8 15.2 5.05 17.05 9 18 11 18.5 13.05 18.85 13.95 18.8 14.55
L 20.3 16.6
Q 21.05 17.7 21.7 18.65
L 22.3 19.55
Q 22.65 20.2 22.95 20.75 Z"/>

<path fill="#A6353F" stroke="none" d="
M 17.8 2.95
Q 18.1 2.4 18.7 2.35 14.6 0.5 9.4 0.8 8.9 0.9 8.2 1 6.9 1.1 5.5 1.35 8.05 1.65 11.7 2.55
L 12.55 2.8
Q 16 3.8 15.95 3.9
L 16 3.9
Q 17.45 7.1 18.85 10.4
L 18.4 8.85
Q 17.8 7 17.7 5.2 17.45 3.55 17.8 2.95
M 23.3 15.1
L 23.15 15.2
Q 22.95 15.3 22.65 15.15 20.7 14.2 19.3 11.5
L 23.4 20.6 23.45 20.4 23.75 20 24.15 19.35 23.3 15.1 Z"/>

<path fill="#1C1C1C" stroke="none" d="
M 29.3 19.2
Q 29.25 19.3 29.15 19.45 28.9 19.9 28.6 20.25
L 26.95 22.95 26.75 23.15
Q 25.85 24.55 24.95 25.65
L 23.3 27.6 22.05 28.65
Q 20.75 29.7 19.45 30.5 18.3 31.2 17.2 31.65 16.75 31.8 16.25 32 16.1 32.15 15.95 32.15
L 14.4 32.65 14.35 32.7
Q 15.2 32.5 16 32.3
L 15.8 35.3 19.35 35.85
Q 19.85 33.5 20.9 31.2 20.9 33.7 21.05 36.1
L 24.55 36.85
Q 25.1 32.1 26.5 27.6
L 26.4 28.5
Q 26.15 33 26.6 37.3
L 29.15 38.1
Q 31.05 38.7 32.85 39.35 24 31.25 31 16.3
L 29.3 19.2 Z"/>

<path fill="#191323" stroke="none" d="
M 21 23.25
L 20.8 23.35 20.45 23.7
Q 19.9 23.25 19.1 22.7 16.75 23.6 14.15 25.7
L 14.05 25.8
Q 13.45 26.3 12.7 27.1 12 27.85 11.35 28.9 12.1 28.85 13 28.6 14.25 28.35 15.45 27.75
L 15.85 27.6 18.15 26.1 19.2 25.2 19.25 25.1
Q 20.55 24 21.85 22.4
L 21 23.25 Z"/>

<path fill="#4D0C11" stroke="none" d="
M 21.85 22.4
L 22.15 22.1 22.2 22 21.45 20.85 19.95 21.05
Q 19.1 21.2 18.25 21.45
L 18.4 21.6 20.8 23.35 21 23.25 21.85 22.4
M 23.15 20.8
L 22.95 20.75 23.05 20.9 23.05 20.95 23.15 20.8 Z"/>

<path fill="#9A2630" stroke="none" d="
M 22.3 19.55
L 21.7 18.65
Q 21.05 17.7 20.3 16.6
L 18.8 14.55
Q 17.1 12.1 15.85 10.7
L 15.8 10.7
Q 14.45 10.75 12.25 11.35 11.55 11.45 10.75 11.75 8.55 12.3 6.95 13.2
L 6.35 14.05
Q 7 13.7 7.85 13.55 11.35 12.6 13.7 13.6
L 14.1 13.9 14.15 13.9 14.3 13.95
Q 14.5 14.1 14.8 14.25 16.55 15.1 18.75 17.55
L 21.45 20.85 22.95 20.75
Q 22.65 20.2 22.3 19.55 Z"/>

<path fill="#D24552" stroke="none" d="
M 23.15 15.2
L 23.3 15.1 22.25 10.95
Q 20.9 5.85 20 2.95
L 19 2.5
Q 18.85 2.35 18.7 2.35 18.1 2.4 17.8 2.95 17.45 3.55 17.7 5.2 17.8 7 18.4 8.85
L 18.85 10.4 19.1 10.85 19.3 11.5
Q 20.7 14.2 22.65 15.15 22.95 15.3 23.15 15.2 Z"/>

<path fill="#230B0D" stroke="none" d="
M 20.65 2.45
Q 20.55 2.35 20.35 2.25
L 19.45 1.85
Q 19.25 1.7 19.05 1.6 14.85 -0.25 9.45 0.05 8.85 0.15 8.2 0.25
L 8.3 0.25
Q 6.85 0.35 5.45 0.65 2.95 1.15 0.7 2.05 0.5 2.2 0.4 2.4 0.35 2.55 0.35 2.8 0.35 3 0.5 3.1
L 3.8 6.2
Q 4.1 6.4 4.4 6.4
L 6 6.3 5.75 6.4
Q 5.55 6.45 5.35 6.7 5.25 6.8 5.25 7.1 5.3 7.4 5.55 7.5 8.05 9.4 10.65 10.95 8.35 11.6 6.7 12.5 6.55 12.55 6.5 12.75
L 5.85 13.55 5.6 14.05 5.5 14.15
Q 4.5 15.5 3.7 17.2 3.5 17.55 0.15 24.95
L 0.05 25.1
Q -0.05 25.35 0 25.6 0.1 25.9 0.35 26
L 0.8 26.1
Q 2.5 25.75 4.5 25.1
L 5.05 24.85 6.05 24.5
Q 8.45 23.65 10.35 22.65 10.5 22.6 10.6 22.45 10.7 22.4 10.75 22.25
L 10.9 21.45 11.1 21.75
Q 11.2 21.95 11.45 21.95 11.7 22 11.85 21.85 13.65 20.95 15.05 19.85 15.8 20.25 16.55 20.9 17.05 21.2 17.55 21.55
L 17.7 21.65 18 21.9
Q 18.05 21.9 18.15 21.9
L 18.15 22 19.1 22.7
Q 19.9 23.25 20.45 23.7
L 20.8 23.35 18.4 21.6 18.25 21.45 17.05 20.6
Q 15.9 19.75 15 19.2 14.95 19.2 14.9 19.15 13.45 20.35 11.4 21.4
L 10.6 18.1 9.95 22.2
Q 8.05 23.15 5.65 24.05 2.75 25.1 0.55 25.6
L 0.65 25.45
Q 4.05 17.95 4.25 17.55 5 15.9 6 14.55
L 6.35 14.05 6.95 13.2
Q 8.55 12.3 10.75 11.75 11.55 11.45 12.25 11.35 8.95 9.5 5.8 7.15
L 12.9 5.5 4.25 5.8 3.25 5
Q 1.95 3.9 0.9 2.8 3.05 1.85 5.5 1.35 6.9 1.1 8.2 1 8.9 0.9 9.4 0.8 14.6 0.5 18.7 2.35 18.85 2.35 19 2.5
L 20 2.95
Q 20.9 5.85 22.25 10.95
L 23.3 15.1 24.15 19.35 24.4 18.95 24.75 18.4 24.5 17.1 24.05 14.8
Q 23.55 12.8 23 10.75 21.7 5.6 20.75 2.65 20.8 2.5 20.65 2.45 Z"/>

<path fill="#2E0E62" stroke="none" d="
M 34.1 4.3
L 34.55 3.9 34.4 3.95
Q 34.25 4.1 34.1 4.3 Z"/>

<path fill="#090A0B" stroke="none" d="
M 37.4 5.6
Q 37.35 5.65 37.25 5.65 36.2 6.4 35.35 7.55 33.35 10.05 31.4 13.7
L 31.15 14.1 31 14.5 31 14.45 30.7 15 30.3 15.55 28.65 18.5 28.55 18.75 26.25 22.25
Q 25.3 23.7 24.3 24.95
L 22.05 27.4 21.35 27.95
Q 20 29.05 18.55 29.9 17.95 30.3 17.3 30.55
L 16.9 30.75 16.85 30.85 16.65 30.85
Q 16.4 31.05 15.8 31.3
L 14.5 31.75 14.35 31.8 14.3 31.8 14.05 31.95
Q 11.75 32.65 10 32.6 8.2 32.45 7.65 32.25 6.15 31.9 5 30.9
L 4.95 30.75 4.6 30.55 4.45 30.4
Q 4.407421875 30.442578125 4.4 30.45
L 4.4 30.55
Q 4.35 30.65 4.35 30.75
L 4.3 30.8
Q 4.15 32 4.2 33.45
L 4.25 33.45
Q 4.35 34.2 4.4 34.8
L 4.8 34.8 6.2 34.75 6.35 34.8
Q 9.55 34.85 12.7 35.1
L 12.75 35.1 13.95 35.15
Q 14.05 35.2 14.25 35.2
L 15.8 35.3 16 32.3
Q 15.2 32.5 14.35 32.7
L 14.2 32.8
Q 14.25 32.75 14.4 32.65
L 15.95 32.15
Q 16.1 32.15 16.25 32 16.75 31.8 17.2 31.65 18.3 31.2 19.45 30.5 20.75 29.7 22.05 28.65
L 23.3 27.6 24.95 25.65
Q 25.85 24.55 26.75 23.15
L 26.95 22.95 28.6 20.25
Q 28.9 19.9 29.15 19.45 29.25 19.3 29.3 19.2
L 31 16.3 31.65 15.2
Q 31.95 14.75 32.1 14.4 32.4 13.7 32.8 13.05 34.4 10.25 36.05 8.25 36.4 7.7 36.9 7.25
L 36.9 7.2 37.4 5.6 Z"/>

<path fill="#171717" stroke="none" d="
M 55.7 42.95
L 60.4 41.95 60.65 41.85
Q 60.75 41.8 60.9 41.8
L 60.95 41.8 61 41.7 61.2 41.2 61.9 40.05 62.9 37.5 63 37.55 63.25 36.6 63.15 36.6 62.95 36.65
Q 62.3 36.9 61.7 36.95
L 61.2 37.05
Q 60.35 37 59.6 36.8 57.8 40.75 55.65 42.95
L 55.7 42.95 Z"/>

<path fill="#25221C" stroke="none" d="
M 43.15 10.2
Q 42.9 10.25 42.85 10.3 39.95 10.4 37.15 11.7 35.85 12.4 34.55 13.4
L 34.5 13.45
Q 32.55 14.75 31.9 15.95 31.55 16.4 31.3 16.8
L 31 17.1 30.25 18.7 30.25 18.65
Q 29.6 19.95 29.5 20.35
L 29.55 20.3
Q 28.2 25.1 30.3 27.65 32.4 30.3 39.55 32.45 41.55 33.2 41.8 36.1
L 41.85 36.15
Q 41.9 37.1 41.85 38.25 41.85 38.6 42.05 38.85 42.85 40.2 43.8 41.1 43.85 41.1 43.9 41.2
L 44.65 41.8 44.8 41.85
Q 45.7 42.45 46.6 42.75
L 46.65 42.75
Q 49.4 43.55 50.85 42.75 51.3 42.55 51.7 42.15
L 51.75 42.1
Q 52.45 41.4 53.05 40.1 53.4 39.35 54.3 36.3
L 54.35 36.25
Q 54.6 35.2 54.95 34.3 55.45 34.1 55.85 33.9
L 55.9 33.85 55.95 33.85 56.35 33.55 56.4 33.55
Q 56.95 33.1 57.35 32.6 57.95 31.75 58.25 30.65
L 58.3 30.6
Q 59.65 26.05 58.75 22.25 58 18.85 55.45 15.75 54.85 15.05 54.15 14.35
L 54.1 14.35 53.75 13.95 53.65 13.85
Q 53.45 13.7 53.2 13.5
L 52.5 12.95
Q 50.25 11.55 47 10.65
L 46.9 10.65
Q 45.35 10.3 43.85 10.25
L 43.15 10.2
M 44.8 11.7
Q 45.8 11.75 46.9 12 50 12.85 52.05 14.15 52.95 14.75 53.55 15.35
L 53.8 15.55
Q 54 15.8 54.15 15.95
L 54.5 16.35
Q 55.45 17.45 56.15 18.55 57.4 20.6 57.85 22.75 58.7 26.3 57.4 30.55
L 57.35 30.7
Q 57.05 31.85 56.35 32.55 56.05 32.8 55.7 33.1
L 55.55 33.15
Q 55 33.5 54.3 33.7 53.75 34.9 53.45 36.3 52.5 39.2 52.25 39.95 51.7 41.05 51.15 41.65 50.9 41.9 50.55 42 49.35 42.65 47.2 42 46.4 41.7 45.6 41.25
L 44.8 40.6
Q 44 39.8 43.3 38.6 43.35 37.4 43.2 36.3 42.9 32.55 40.05 31.65 33.45 29.7 31.5 27.25 29.65 25.05 30.85 20.9 30.95 20.55 31.55 19.4
L 32.25 18 32.55 17.65 33.1 16.75
Q 33.75 15.85 35.5 14.6 36.7 13.6 37.95 13 39.65 12.15 41.45 11.85 45.45 14.4 47.1 17.6 46.7 14.25 44.8 11.7 Z"/>

<path fill="#251F2A" stroke="none" d="
M 51.5 32.4
Q 51.25 31.95 51 31.7 50.8 32.1 50.55 32.75 49.95 33.85 49.7 34.6
L 49.6 34.9
Q 49.25 36.1 49.35 36.55 49.4 36.8 49.75 36.9 50 37 50.45 36.65 50.95 35.8 51.35 34.8
L 51.4 34.5
Q 51.75 33.3 51.5 32.4
M 55.1 23.55
L 55.05 23.65
Q 54.9 24 54.65 25.05
L 54.4 25.45 54.4 25.55
Q 53.75 27.8 53.95 29.4
L 54.6 28.8
Q 55 28.3 55.3 27.75
L 55.3 27.7
Q 55.6 27.2 55.7 26.65 55.9 26.05 55.95 25.45 56.05 24.4 55.75 23.5
L 55.55 23.05 55.1 23.55
M 47.8 24.5
Q 48.3 22.8 47.55 21.5
L 47.45 21.4
Q 46.55 20.9 45.4 20.55 44.4 20.3 43.2 20.8
L 42.45 21.25
Q 40.55 22.5 39.9 24.55 39.85 24.85 39.9 25.35 40.05 26.1 40.6 27.15
L 40.95 27.6
Q 41.55 28.05 42.35 28.25 44.25 28.75 45.9 27.6 47.2 26.55 47.8 24.5 Z"/>

<path fill="#655669" stroke="none" d="
M 51.8 30.9
Q 51.65 30.85 51.6 30.9 51.4 31.05 51 31.7 51.25 31.95 51.5 32.4 51.75 33.3 51.4 34.5
L 51.35 34.8
Q 50.95 35.8 50.45 36.65
L 50.95 36.1 51.35 35.45 51.75 34.95
Q 52.05 36.4 52.5 36.55
L 52.85 35.7
Q 53.05 34.95 53.05 34.1 53.05 33.6 52.95 33.1 52.85 33 52.85 32.8
L 52.8 32.45
Q 52.5 31.1 51.8 30.9
M 57.25 23.8
Q 57.05 23.35 56.85 23.05 56.6 22.8 56.35 22.75 55.95 22.6 55.8 22.8
L 55.55 23.05 55.75 23.5
Q 56.05 24.4 55.95 25.45 55.9 26.05 55.7 26.65 55.6 27.2 55.3 27.7
L 55.3 27.75
Q 55 28.3 54.6 28.8
L 53.95 29.4 53.9 29.35
Q 53.9 29.45 54 29.6 54.15 30.9 54.95 31.05 55.15 31.1 55.35 30.95
L 55.4 30.95
Q 55.8 30.7 56.25 29.95
L 56.3 29.85 56.5 29.3
Q 56.85 28.55 57.1 27.65
L 57.2 27.3
Q 57.8 25.05 57.25 23.8
M 48.4 21.9
Q 48.05 21.65 47.45 21.4
L 47.55 21.5
Q 48.3 22.8 47.8 24.5 47.2 26.55 45.9 27.6 44.25 28.75 42.35 28.25 41.55 28.05 40.95 27.6 42.3 29.45 44.45 30.15 46.95 30.85 48.3 29.65 49.45 28.75 50.1 26.5 50.95 23.75 48.4 21.9 Z"/>

<path fill="#B8A6B3" stroke="none" d="
M 52.05 14.15
L 52.3 14.35
Q 53.15 15.05 53.8 15.75
L 54.85 16.95
Q 55.35 17.9 56.15 20 56.1 20.1 56.15 20.1 56.3 20.45 56.35 20.7 56.65 21.8 56.8 22.95
L 56.85 23.05
Q 57.05 23.35 57.25 23.8 57.8 25.05 57.2 27.3
L 57.1 27.65
Q 56.85 28.55 56.5 29.3
L 56.3 29.85 56.25 30
Q 55.95 30.8 55.55 31.4
L 55.45 31.5
Q 54.85 32.3 54.3 32.1 53.8 32 53.25 30.7
L 52.8 29.4 53.05 30.95
Q 53.2 32.15 52.95 32.95
L 52.95 33.1
Q 53.05 33.6 53.05 34.1 53.05 34.95 52.85 35.7
L 52.5 36.55
Q 52.05 36.4 51.75 34.95
L 51.35 35.45
Q 51.4 36.4 51.1 37.45 50.6 39.2 49.3 40.4 48.4 41.2 47.6 41.2 47.35 41.2 47.15 41.15 47 41.1 46.8 41
L 46.55 40.85 46.1 40.65 46.2 40.5
Q 46.9 39.4 47.3 38.1 47.55 37.05 47.65 36.25
L 47.65 35.8 47.6 35.8
Q 47.45 36.15 46.4 37.9
L 45.15 39.85
Q 44.2 38.9 44.25 37.55 44.25 36.7 44.65 35.6 45.05 34.6 45.1 34.4 45.35 33.4 44.5 32.15 43.85 31.15 43.1 30.85 36.85 28.7 34.65 27.05 30.55 23.85 32.1 18.7 32.25 18.2 32.55 17.65
L 32.25 18 31.55 19.4
Q 30.95 20.55 30.85 20.9 29.65 25.05 31.5 27.25 33.45 29.7 40.05 31.65 42.9 32.55 43.2 36.3 43.35 37.4 43.3 38.6 44 39.8 44.8 40.6
L 45.6 41.25
Q 46.4 41.7 47.2 42 49.35 42.65 50.55 42 50.9 41.9 51.15 41.65 51.7 41.05 52.25 39.95 52.5 39.2 53.45 36.3 53.75 34.9 54.3 33.7 55 33.5 55.55 33.15
L 55.7 33.1
Q 56.05 32.8 56.35 32.55 57.05 31.85 57.35 30.7
L 57.4 30.55
Q 58.7 26.3 57.85 22.75 57.4 20.6 56.15 18.55 55.45 17.45 54.5 16.35
L 54.15 15.95
Q 54 15.8 53.8 15.55
L 53.55 15.35
Q 52.95 14.75 52.05 14.15 Z"/>

<path fill="#FBF0D2" stroke="none" d="
M 46.9 12
Q 45.8 11.75 44.8 11.7 46.7 14.25 47.1 17.6 45.45 14.4 41.45 11.85 39.65 12.15 37.95 13 36.7 13.6 35.5 14.6 33.75 15.85 33.1 16.75
L 32.55 17.65
Q 32.25 18.2 32.1 18.7 30.55 23.85 34.65 27.05 36.85 28.7 43.1 30.85 43.85 31.15 44.5 32.15 45.35 33.4 45.1 34.4 45.05 34.6 44.65 35.6 44.25 36.7 44.25 37.55 44.2 38.9 45.15 39.85
L 46.4 37.9
Q 47.45 36.15 47.6 35.8
L 47.65 35.8 47.65 36.25
Q 47.55 37.05 47.3 38.1 46.9 39.4 46.2 40.5
L 46.1 40.65 46.55 40.85 46.8 41
Q 47 41.1 47.15 41.15 47.35 41.2 47.6 41.2 48.4 41.2 49.3 40.4 50.6 39.2 51.1 37.45 51.4 36.4 51.35 35.45
L 50.95 36.1 50.45 36.65
Q 50 37 49.75 36.9 49.4 36.8 49.35 36.55 49.25 36.1 49.6 34.9
L 49.7 34.6
Q 49.95 33.85 50.55 32.75 50.8 32.1 51 31.7 51.4 31.05 51.6 30.9 51.65 30.85 51.8 30.9 52.5 31.1 52.8 32.45
L 52.85 32.8
Q 52.85 33 52.95 33.1
L 52.95 32.95
Q 53.2 32.15 53.05 30.95
L 52.8 29.4 53.25 30.7
Q 53.8 32 54.3 32.1 54.85 32.3 55.45 31.5
L 55.55 31.4
Q 55.95 30.8 56.25 30
L 56.3 29.85 56.25 29.95
Q 55.8 30.7 55.4 30.95
L 55.35 30.95
Q 55.15 31.1 54.95 31.05 54.15 30.9 54 29.6 53.9 29.45 53.9 29.35
L 53.95 29.4
Q 53.75 27.8 54.4 25.55
L 54.4 25.45 54.65 25.05
Q 54.9 24 55.05 23.65
L 55.1 23.55 55.55 23.05 55.8 22.8
Q 55.95 22.6 56.35 22.75 56.6 22.8 56.85 23.05
L 56.8 22.95
Q 56.65 21.8 56.35 20.7 56.3 20.45 56.15 20.1 56.1 20.1 56.15 20 55.35 17.9 54.85 16.95
L 53.8 15.75
Q 53.15 15.05 52.3 14.35
L 52.05 14.15
Q 50 12.85 46.9 12
M 47.45 21.4
Q 48.05 21.65 48.4 21.9 50.95 23.75 50.1 26.5 49.45 28.75 48.3 29.65 46.95 30.85 44.45 30.15 42.3 29.45 40.95 27.6
L 40.6 27.15
Q 40.05 26.1 39.9 25.35 39.85 24.85 39.9 24.55 40.55 22.5 42.45 21.25
L 43.2 20.8
Q 44.4 20.3 45.4 20.55 46.55 20.9 47.45 21.4 Z"/>

<path fill="#7D51C2" stroke="none" d="
M 49.05 5.95
Q 47.6 3.95 46 2.85 45.35 2.45 44.6 2.1 43.85 1.75 43.05 1.5 42.5 1.4 41.95 1.35
L 41.55 1.3 40.4 1.35 40.2 1.4 38.75 1.6 38.75 1.7 38.55 2.2 40.3 1.8
Q 40.85 1.7 41.4 1.7
L 41.85 1.75 42.4 1.7 41.1 1.95
Q 39.6 2.3 38.2 3.2
L 38.2 3.25 38.1 3.45 37.4 5.4 37.4 5.55 38.1 5.1
Q 39.45 4.2 40.75 3.95 42.15 3.65 43 3.75
L 44.05 3.85
Q 44.35 3.9 45.8 4.4
L 45.85 4.4
Q 48.05 5.25 49.9 7.35 49.45 6.55 49.05 5.95 Z"/>

<path fill="#121212" stroke="none" d="
M 51.15 8.75
L 50.85 8.35
Q 49.9 7.05 49.05 5.95 49.45 6.55 49.9 7.35 48.05 5.25 45.85 4.4
L 45.8 4.4
Q 44.35 3.9 44.05 3.85
L 43 3.75
Q 42.15 3.65 40.75 3.95 39.45 4.2 38.1 5.1
L 37.4 5.55 37.4 5.6 36.9 7.2 36.9 7.25
Q 36.4 7.7 36.05 8.25 34.4 10.25 32.8 13.05 32.4 13.7 32.1 14.4 31.95 14.75 31.65 15.2
L 31 16.3
Q 24 31.25 32.85 39.35 34.95 40.1 36.95 41 42.85 43.65 49.4 43.55
L 51.2 43.5 51.2 43.45
Q 51.85 43.5 52.5 43.4
L 55.5 43 55.65 42.95
Q 57.8 40.75 59.6 36.8 58.55 36.5 57.65 35.8 57.25 35.45 57 35 56.7 34.6 56.45 33.7
L 56.4 33.55 56.35 33.55 56.4 34.4
Q 56.45 35.05 56.55 35.65
L 56.45 35.45 56.25 34.9 56.2 34.85 55.95 33.85 55.9 33.85 55.85 33.9
Q 55.45 34.1 54.95 34.3 54.6 35.2 54.35 36.25
L 54.3 36.3
Q 53.4 39.35 53.05 40.1 52.45 41.4 51.75 42.1
L 51.7 42.15
Q 51.3 42.55 50.85 42.75 49.4 43.55 46.65 42.75
L 46.6 42.75
Q 45.7 42.45 44.8 41.85
L 44.65 41.8 43.9 41.2
Q 43.85 41.1 43.8 41.1 42.85 40.2 42.05 38.85 41.85 38.6 41.85 38.25 41.9 37.1 41.85 36.15
L 41.8 36.1
Q 41.55 33.2 39.55 32.45 32.4 30.3 30.3 27.65 28.2 25.1 29.55 20.3
L 29.5 20.35
Q 29.6 19.95 30.25 18.65
L 30.25 18.7 31 17.1 31.3 16.8
Q 31.55 16.4 31.9 15.95 32.55 14.75 34.5 13.45
L 34.55 13.4
Q 35.85 12.4 37.15 11.7 39.95 10.4 42.85 10.3 42.9 10.25 43.15 10.2
L 43.85 10.25
Q 45.35 10.3 46.9 10.65
L 47 10.65
Q 50.25 11.55 52.5 12.95
L 53.2 13.5 52.75 12.05
Q 52 10.15 51.15 8.75 Z"/>
</g>
</defs>

<g transform="matrix( 1, 0, 0, 1, 0,0) ">
<g transform="matrix( 1, 0, 0, 1, 0,0) ">
<use xlink:href="#_____________________________________236_0_Layer1_0_FILL"/>
</g>

<g transform="matrix( 1, 0, 0, 1, 0,0) ">
<use xlink:href="#_____________________________________236_0_Layer0_0_FILL"/>
</g>
</g>
</svg>
