
<svg xmlns="http://www.w3.org/2000/svg" version="1.1" xmlns:xlink="http://www.w3.org/1999/xlink" preserveAspectRatio="none" x="0px" y="0px" width="86px" height="88px" viewBox="0 0 86 88">
<defs>
<g id="_____________________________________216_0_Layer1_0_FILL">
<path fill="#B48100" stroke="none" d="
M 47.3 55.65
L 48.4 56.8 54.4 52.85 47.3 55.65
M 22.75 45.85
Q 21.55 47.4 20.75 49.25 19.5 52 19.05 55.45
L 25.15 47.35 30.55 40.2
Q 27.05 41.5 24.65 43.8 23.6 44.7 22.75 45.85
M 45.55 45.7
Q 43.255859375 45.662890625 40.75 45.95
L 49.6 47.6 58.3 49.25
Q 54.55 46.75 49.55 46 47.63828125 45.71328125 45.55 45.7 Z"/>

<path fill="#4F2B00" stroke="none" d="
M 39.2 78.4
L 39.2 76.35 29.2 86.1 31.65 85.45 39.2 78.4
M 15.65 64.2
Q 15.69921875 64.15078125 15.75 64.15 15.69921875 64.14921875 15.65 64.1 14.4 63.6 13.3 63.65 11.95 63.65 10.95 64.4
L 13.4 64.8
Q 13.65 64.65 13.95 64.55 14.7 64.3 15.65 64.2 Z"/>

<path fill="#6B3B00" stroke="none" d="
M 39.2 76.35
L 39.2 78.4 42.9 74.9 42.9 72.75 41.2 74.4 39.2 76.35
M 8.95 67.05
Q 8.55 67.9 8.2 69.05
L 10.2 68.3
Q 10.4 67.7 10.7 67.2 11.6 65.55 13.4 64.8
L 10.95 64.4
Q 9.75 65.25 8.95 67.05 Z"/>

<path fill="#B6930A" stroke="none" d="
M 18 75.9
Q 17.9 76.35 17.75 76.8
L 29.2 86.1 39.2 76.35
Q 34.95 78.5 30.3 78.1 24.7 77.55 18.55 73.2 18.35 74.5 18 75.9
M 6.95 56.9
Q 6.85 57.3 6.75 57.7 5.75 61.8 5 66.4
L 8.2 69.05
Q 8.55 67.9 8.95 67.05 9.75 65.25 10.95 64.4 11.95 63.65 13.3 63.65
L 11.55 61.1 6.95 56.9 Z"/>

<path fill="#FFE466" stroke="none" d="
M 24.5 41.7
Q 23.55 42.15 22.75 42.75 19.7 45.05 19 49.25 18.55 51.95 19.05 55.45 19.5 52 20.75 49.25 21.55 47.4 22.75 45.85 23.6 44.7 24.65 43.8 27.05 41.5 30.55 40.2 27 40.5 24.5 41.7
M 44.05 45.15
Q 42.55 45.4 40.75 45.95 43.255859375 45.662890625 45.55 45.7 47.63828125 45.71328125 49.55 46 54.55 46.75 58.3 49.25 54.7 45.25 49.45 44.8 47.9623046875 44.6541015625 46.35 44.8 45.2373046875 44.9 44.05 45.15 Z"/>

<path fill="#D29909" stroke="none" d="
M 11.15 44.05
Q 10.85 44.65 10.55 45.25 9.15 48.75 8 52.85 7.45 54.8 6.95 56.9
L 11.55 61.1 13.3 63.65
Q 14.4 63.6 15.65 64.1 15.69921875 64.14921875 15.75 64.15 18.7 66.8 18.65 71.35 18.65 72.25 18.55 73.2 24.7 77.55 30.3 78.1 34.95 78.5 39.2 76.35
L 41.2 74.4
Q 39.15 73.75 37.2 73.05 23 67.75 16.4 57.7 13.85 53.8 12.4 49.25 11.9 47.6 11.5 45.85 11.3 44.95 11.15 44.05
M 48.55 41.3
Q 48.4298828125 41.2666015625 48.3 41.2 46.190625 40.6470703125 44.05 40.2 30.0630859375 37.490234375 14.7 41.5 13.791796875 41.7779296875 12.85 42.05 12.5111328125 42.1767578125 12.2 42.3 12.0435546875 42.55390625 11.9 42.8 13.2787109375 42.3732421875 14.65 42 19.5787109375 40.7296875 24.5 40.3 34.0748046875 39.4255859375 43.6 41.65 44.9810546875 42.0107421875 46.35 42.4
L 44.95 44.55 48.7 43.4 49.2 43.55 55.9 45.35 56.9 43.7 58.65 43.05 59 42.95
Q 58.780078125 42.6201171875 58.55 42.3
L 48.55 41.3 Z"/>

<path fill="#F3B10D" stroke="none" d="
M 14.65 42
Q 13.2787109375 42.3732421875 11.9 42.8 11.7 43.1 11.5 43.45 11.3 43.75 11.15 44.05 11.3 44.95 11.5 45.85 11.9 47.6 12.4 49.25 13.85 53.8 16.4 57.7 23 67.75 37.2 73.05 39.15 73.75 41.2 74.4
L 42.9 72.75
Q 42.5 72.55 42.1 72.4 36.15 69.35 33.15 63.6 32.9 63.1 32.75 62.55 30.75 60.2 29.3 57.7 28.9 57.1 28.55 56.45 26.65 53 25.6 49.25 25.35 48.3 25.15 47.35
L 19.05 55.45
Q 18.55 51.95 19 49.25 19.7 45.05 22.75 42.75 23.55 42.15 24.5 41.7 24.45 41 24.5 40.3 19.5787109375 40.7296875 14.65 42 Z"/>

<path fill="#FFBC17" stroke="none" d="
M 58.65 43.05
Q 60 46.05 60.45 49.25 60.65 50.7 60.65 52.15 60.65 54.25 60.35 56.45 59.75 59.9 58.3 63.6 59.25 63.6 60.25 63.4 61.9 59.85 62.35 56.45 62.6 54.25 62.4 52.15 62.25 50.7 61.9 49.25 61 46 59 42.95
L 58.65 43.05
M 40.75 45.95
Q 42.55 45.4 44.05 45.15 45.2373046875 44.9 46.35 44.8 47.9623046875 44.6541015625 49.45 44.8 49.35 44.15 49.2 43.55
L 48.7 43.4 44.95 44.55 46.35 42.4
Q 44.9810546875 42.0107421875 43.6 41.65 34.0748046875 39.4255859375 24.5 40.3 24.45 41 24.5 41.7 27 40.5 30.55 40.2
L 25.15 47.35
Q 25.35 48.3 25.6 49.25 26.65 53 28.55 56.45 28.9 57.1 29.3 57.7 30.75 60.2 32.75 62.55 32.3 60.45 33.95 57.7 34.3 57.1 34.75 56.45 35.4 55.6 36.2 54.65 39.75 50.6 44.1 53.05 45.65 53.95 47.3 55.65 48.2 53.85 48.75 52.15 49.2 50.65 49.45 49.25 49.55 48.4 49.6 47.6
L 40.75 45.95 Z"/>

<path fill="#FFCE2A" stroke="none" d="
M 49.2 43.55
Q 49.35 44.15 49.45 44.8 54.7 45.25 58.3 49.25
L 49.6 47.6
Q 49.55 48.4 49.45 49.25 49.2 50.65 48.75 52.15 48.2 53.85 47.3 55.65
L 54.4 52.85 48.4 56.8
Q 52.55 63.65 58.3 63.6 59.75 59.9 60.35 56.45 60.65 54.25 60.65 52.15 60.65 50.7 60.45 49.25 60 46.05 58.65 43.05
L 56.9 43.7 55.9 45.35 49.2 43.55 Z"/>

<path fill="#4D0D0D" stroke="none" d="
M 82.5 15.75
Q 81.65 15.3 81.55 15.25 83.4 14.55 85.2 13.9 84.7 13 83 11.15 82.25 10.2 81.8 10.1 81.15 10.1 80.5 10.1 80.3 10.15 80.15 10.15 80.95 9.4 81.7 8.75 81.55 8.7 81.45 8.55 81.05 8.15 80.75 7.8 80.7 7.8 80.7 7.85
L 80.65 7.8
Q 80.65 7.75 80.6 7.7 75.85 3.55 68 1.55
L 67.95 1.55
Q 67.6 1.6 67.3 1.65 67.25 1.7 67.2 1.75 66.3 2 65.45 2.55 65.75 1.7 66 1 62.1 0.5 58.05 0.1 56.6 0.1 55.15 0
L 55.1 0
Q 54.9 0 54.8 0.05
L 54.7 0.05
Q 41.3 1.65 26.65 11.35 26.1037109375 11.7697265625 25.55 12.2 22.03046875 15.0728515625 18.65 18.8 18.55 18.9 18.4 19 18.35 19.1 18.25 19.15 15.4 22.35 12.65 25.65 12.45 25.95 12.25 26.35 11.9 28.35 11.65 29.95 10.95 27.75 10.7 24.45 8.0408203125 30.4052734375 6.3 34.2 5.7267578125 35.4712890625 5.25 36.5 5.35 36.65 5.45 36.8
L 5.5 36.85
Q 6.05 37.55 6.25 38.25 5.3943359375 38.4876953125 4.55 38.9 3.6181640625 39.36796875 2.7 40.05 1.2 41.15 0 42.55 2.55 41.6 4.25 41.7 4.3962890625 41.7 4.55 41.7 5.1505859375 41.812890625 5.85 42.25
L 5.85 42.25
Q 7.365625 43.7203125 7.4 47 8.3185546875 43.966796875 12.2 42.3 12.5111328125 42.1767578125 12.85 42.05 13.791796875 41.7779296875 14.7 41.5 30.0630859375 37.490234375 44.05 40.2 46.190625 40.6470703125 48.3 41.2 48.4298828125 41.2666015625 48.55 41.3
L 58.55 42.3 58.65 42.3
Q 59.7638671875 39.212109375 62.1 36.3
L 62.8 35.4
Q 63.368359375 34.8369140625 63.95 34.2 64.1544921875 34.001953125 64.35 33.8 69.25 28.55 75.55 22.05 80.85 16.45 82.5 15.75
M 81.9 11.95
Q 82.65 12.7 83.3 13.55 69.75 16.1 64.85 29.55 69.25 22.5 77.8 17.55 78.85 17 80 16.55 71.7 24.1 63.85 33
L 60.6 36.85
Q 59.05 38.6 58.25 40.45 57.8 40.4 57.35 40.4 57.253515625 40.39140625 57.15 40.35 53.3498046875 40.0474609375 49.4 39.95 49.25 39.85 49.15 39.8 48.956640625 39.7275390625 48.75 39.65 48.6048828125 39.5775390625 48.45 39.5 46.7419921875 38.791796875 44.55 38.3 44.10859375 38.191796875 43.65 38.1 43.4 38.05 43.2 38 40.2 37.45 36.35 37.35 33.9 37.3 31.3 37.4 30.8 37.4 30.2 37.45 27.4 37.65 24.45 38.05 23.85 38.1 23.25 38.25 20 38.85 16.75 39.65 15.977734375 39.8572265625 15.2 40.1 14.22734375 40.39765625 13.25 40.75 12.9455078125 40.841796875 12.65 40.95 10.45 41.75 8.2 42.75
L 8.15 42.75
Q 8.05 42.7 8 42.7 6.8203125 41.0822265625 4.55 41 3.4525390625 40.9740234375 2.1 41.3 3.3751953125 40.3779296875 4.55 39.85 6.3701171875 39.0087890625 7.95 39.1 8.2 37.25 6.8 35.8 7.2265625 35.2064453125 7.7 34.2 8.562109375 32.4935546875 9.6 29.6 10.85625 32.9953125 11.7 34.2 12.0951171875 34.7697265625 12.4 34.85 12.4990234375 34.56953125 12.6 34.2 13.066015625 32.333203125 13.4 28.2 14.45 26.9 18.8 22.35 18.95 22.15 19.1 22 22.9 18.1 27.05 14.95 31.6078125 11.825 36 9.4 46.0853515625 3.8615234375 55.4 1.95 59.95 2.15 63.95 2.95 62.25 5.15 61.85 8.9 64.85 4.8 67.65 3.8 74.95 5.95 79.55 9.75 76.75 11.7 74 13.85 78.75 11.2 81.9 11.95 Z"/>

<path fill="#951C1C" stroke="none" d="
M 50.7 34.2
Q 51.783984375 31.791015625 52.35 29.15 52.6359375 27.9130859375 52.8 26.6 52.65 20.05 55.05 7.2 51.75 20.4 50.8 27.4 50.65 28.05 50.6 28.75 49.9125 31.23828125 49.2 33.5 49.081640625 33.8689453125 48.95 34.2 48.6869140625 35.0640625 48.4 35.9 48.05 37.7 48.45 39.5 48.6048828125 39.5775390625 48.75 39.65 48.956640625 39.7275390625 49.15 39.8 49.107421875 39.03515625 49.2 38.25 49.326171875 37.25625 49.7 36.25 49.8634765625 35.9529296875 50 35.65 50.325 35.058984375 50.6 34.45 50.666796875 34.32890625 50.7 34.2 Z"/>

<path fill="#851616" stroke="none" d="
M 46.1 24.6
Q 46.1 22.55 46.7 19 47.25 15.45 47.25 14.95 47.25 14.05 47.15 13.8 46.2 14.35 43.7 15.3 41.5 16.15 40.45 16.8 40.0345703125 17.04921875 39.25 17.7 38.632421875 17.8873046875 37.9 18.05 35.1 18.7 34 19.2 32.15 19.95 30.8 21.65 30.45 22.05 29.6 23.2 29.2833984375 23.643359375 28.95 24.05 28.334375 24.4619140625 27.8 24.9 25.9 26.65 24.85 27.6 22.85 29.35 21.55 29.35 20.75 29.35 19.55 28.05 18.4 26.7 17.25 26.7 16.9 26.7 16.8 26.95 16.7 27.15 16.7 27.75 16.7 28.9 17.65 30.4 18.6 31.9 18.6 33.15 18.6 34.85 16.75 37.5 15.7345703125 38.9060546875 15.2 40.1 15.977734375 39.8572265625 16.75 39.65 20 38.85 23.25 38.25 23.85 38.1 24.45 38.05 27.4 37.65 30.2 37.45 30.8 37.4 31.3 37.4 33.9 37.3 36.35 37.35 40.2 37.45 43.2 38 43.4 38.05 43.65 38.1 44.10859375 38.191796875 44.55 38.3 44.825 37.2001953125 45 36.5 45.1 36.1 46.1 33.55 46.9 31.45 46.9 30.45 46.9 29.5 46.5 28 46.1 26.5 46.1 24.6 Z"/>

<path fill="#581111" stroke="none" d="
M 56.2 8.5
Q 56.2 5.2 53.65 5.2 52.45 5.2 45.7 6.95 39.5 8.6 38.1 9.1 37.2 9.4 36.05 9.4
L 36 9.4
Q 31.6078125 11.825 27.05 14.95 22.9 18.1 19.1 22 18.95 22.15 18.8 22.35 14.45 26.9 13.4 28.2 13.066015625 32.333203125 12.6 34.2 12.4990234375 34.56953125 12.4 34.85 12.0951171875 34.7697265625 11.7 34.2 10.85625 32.9953125 9.6 29.6 8.562109375 32.4935546875 7.7 34.2 7.2265625 35.2064453125 6.8 35.8 8.2 37.25 7.95 39.1 6.3701171875 39.0087890625 4.55 39.85 3.3751953125 40.3779296875 2.1 41.3 3.4525390625 40.9740234375 4.55 41 6.8203125 41.0822265625 8 42.7 8.05 42.7 8.15 42.75
L 8.2 42.75
Q 10.45 41.75 12.65 40.95 12.9455078125 40.841796875 13.25 40.75 14.22734375 40.39765625 15.2 40.1 15.7345703125 38.9060546875 16.75 37.5 18.6 34.85 18.6 33.15 18.6 31.9 17.65 30.4 16.7 28.9 16.7 27.75 16.7 27.15 16.8 26.95 16.9 26.7 17.25 26.7 18.4 26.7 19.55 28.05 20.75 29.35 21.55 29.35 22.85 29.35 24.85 27.6 25.9 26.65 27.8 24.9 28.334375 24.4619140625 28.95 24.05 29.2833984375 23.643359375 29.6 23.2 30.45 22.05 30.8 21.65 32.15 19.95 34 19.2 35.1 18.7 37.9 18.05 38.632421875 17.8873046875 39.25 17.7 40.0345703125 17.04921875 40.45 16.8 41.5 16.15 43.7 15.3 46.2 14.35 47.15 13.8 47.25 14.05 47.25 14.95 47.25 15.45 46.7 19 46.1 22.55 46.1 24.6 46.1 26.5 46.5 28 46.9 29.5 46.9 30.45 46.9 31.45 46.1 33.55 45.1 36.1 45 36.5 44.825 37.2001953125 44.55 38.3 46.7419921875 38.791796875 48.45 39.5 48.05 37.7 48.4 35.9 48.6869140625 35.0640625 48.95 34.2 49.081640625 33.8689453125 49.2 33.5 49.9125 31.23828125 50.6 28.75 50.65 28.05 50.8 27.4 51.75 20.4 55.05 7.2 52.65 20.05 52.8 26.6 52.6359375 27.9130859375 52.35 29.15 53.1091796875 27.424609375 53.5 26.35 54.6 23.4 54.35 20.25 54.3 19.6 55.25 14.45 56.2 9.2 56.2 8.5 Z"/>

<path fill="#C62B2B" stroke="none" d="
M 80 16.55
Q 78.85 17 77.8 17.55 76.45 18.85 75.15 20.25 68.85 27 63.85 33 71.7 24.1 80 16.55 Z"/>

<path fill="#BB1919" stroke="none" d="
M 83.3 13.55
Q 82.65 12.7 81.9 11.95 78.75 11.2 74 13.85 76.75 11.7 79.55 9.75 74.95 5.95 67.65 3.8 64.85 4.8 61.85 8.9 62.25 5.15 63.95 2.95 59.95 2.15 55.4 1.95 46.0853515625 3.8615234375 36 9.4
L 36.05 9.4
Q 37.2 9.4 38.1 9.1 39.5 8.6 45.7 6.95 52.45 5.2 53.65 5.2 56.2 5.2 56.2 8.5 56.2 9.2 55.25 14.45 54.3 19.6 54.35 20.25 54.6 23.4 53.5 26.35 53.1091796875 27.424609375 52.35 29.15 51.783984375 31.791015625 50.7 34.2 50.666796875 34.32890625 50.6 34.45 50.325 35.058984375 50 35.65 49.8634765625 35.9529296875 49.7 36.25 49.326171875 37.25625 49.2 38.25 49.107421875 39.03515625 49.15 39.8 49.25 39.85 49.4 39.95 53.3498046875 40.0474609375 57.15 40.35 57.253515625 40.39140625 57.35 40.4 57.8 40.4 58.25 40.45 59.05 38.6 60.6 36.85
L 63.85 33
Q 68.85 27 75.15 20.25 76.45 18.85 77.8 17.55 69.25 22.5 64.85 29.55 69.75 16.1 83.3 13.55 Z"/>
</g>

<g id="_______257_0_Layer0_0_FILL">
<path fill="#B48100" stroke="none" d="
M 47.3 55.65
L 48.4 56.8 54.4 52.85 47.3 55.65
M 22.75 45.85
Q 21.55 47.4 20.75 49.25 19.5 52 19.05 55.45
L 25.15 47.35 30.55 40.2
Q 27.05 41.5 24.65 43.8 23.6 44.7 22.75 45.85
M 49.55 46
Q 45.55 45.4 40.75 45.95
L 49.6 47.6 58.3 49.25
Q 54.55 46.75 49.55 46 Z"/>

<path fill="#4F2B00" stroke="none" d="
M 39.2 78.4
L 39.2 76.35 29.2 86.1 31.65 85.45 39.2 78.4
M 15.75 64.15
Q 15.69921875 64.14921875 15.65 64.1 14.5953125 63.678125 13.65 63.65 13.471875 63.6421875 13.3 63.65 11.95 63.65 10.95 64.4
L 13.4 64.8
Q 13.65 64.65 13.95 64.55 14.7 64.3 15.65 64.2 15.69921875 64.15078125 15.75 64.15 Z"/>

<path fill="#6B3B00" stroke="none" d="
M 39.2 76.35
L 39.2 78.4 42.9 74.9 42.9 72.75 41.2 74.4 39.2 76.35
M 8.95 67.05
Q 8.772265625 67.427734375 8.6 67.85 8.39453125 68.4109375 8.2 69.05
L 10.2 68.3
Q 10.4 67.7 10.7 67.2 11.6 65.55 13.4 64.8
L 10.95 64.4
Q 9.75 65.25 8.95 67.05 Z"/>

<path fill="#B6930A" stroke="none" d="
M 19.4 73.8
Q 18.9888671875 73.5103515625 18.55 73.2 18.35 74.5 18 75.9 17.9 76.35 17.75 76.8
L 29.2 86.1 39.2 76.35
Q 34.95 78.5 30.3 78.1 25.099609375 77.5892578125 19.4 73.8
M 6.95 56.9
Q 6.85 57.3 6.75 57.7 5.75 61.8 5 66.4
L 8.2 69.05
Q 8.39453125 68.4109375 8.6 67.85 8.772265625 67.427734375 8.95 67.05 9.75 65.25 10.95 64.4 11.95 63.65 13.3 63.65
L 11.55 61.1 6.95 56.9 Z"/>

<path fill="#FFE466" stroke="none" d="
M 20.75 49.25
Q 21.55 47.4 22.75 45.85 23.6 44.7 24.65 43.8 27.05 41.5 30.55 40.2 27 40.5 24.5 41.7 23.55 42.15 22.75 42.75 19.7 45.05 19 49.25 18.55 51.95 19.05 55.45 19.5 52 20.75 49.25
M 44.05 45.15
Q 42.55 45.4 40.75 45.95 45.55 45.4 49.55 46 54.55 46.75 58.3 49.25 54.7 45.25 49.45 44.8 46.9 44.55 44.05 45.15 Z"/>

<path fill="#D29909" stroke="none" d="
M 12.4 49.25
Q 11.9 47.6 11.5 45.85 11.4708984375 45.7193359375 11.45 45.6 11.2783203125 44.8193359375 11.15 44.05 10.85 44.65 10.55 45.25 9.15 48.75 8 52.85 7.45 54.8 6.95 56.9
L 11.55 61.1 13.3 63.65
Q 13.471875 63.6421875 13.65 63.65 14.5953125 63.678125 15.65 64.1 15.69921875 64.14921875 15.75 64.15 18.7 66.8 18.65 71.35 18.65 72.25 18.55 73.2 18.9888671875 73.5103515625 19.4 73.8 25.099609375 77.5892578125 30.3 78.1 34.95 78.5 39.2 76.35
L 41.2 74.4
Q 39.15 73.75 37.2 73.05 23 67.75 16.4 57.7 13.85 53.8 12.4 49.25
M 48.7 43.4
L 49.2 43.55 55.9 45.35 56.9 43.7 58.65 43.05 59 42.95
Q 58.780078125 42.6201171875 58.55 42.3
L 48.55 41.3
Q 31.806640625 36.6314453125 13.05 41.95 12.9662109375 42.01640625 12.85 42.05 12.5111328125 42.1767578125 12.2 42.3 12.0435546875 42.55390625 11.9 42.8 12.5265625 42.6060546875 13.15 42.4 18.8265625 40.7953125 24.5 40.3 35.45 39.3 46.35 42.4
L 44.95 44.55 48.7 43.4 Z"/>

<path fill="#F3B10D" stroke="none" d="
M 13.15 42.4
Q 12.5265625 42.6060546875 11.9 42.8 11.7 43.1 11.5 43.45 11.3 43.75 11.15 44.05 11.2783203125 44.8193359375 11.45 45.6 11.4708984375 45.7193359375 11.5 45.85 11.9 47.6 12.4 49.25 13.85 53.8 16.4 57.7 23 67.75 37.2 73.05 39.15 73.75 41.2 74.4
L 42.9 72.75
Q 42.5 72.55 42.1 72.4 36.15 69.35 33.15 63.6 32.9 63.1 32.75 62.55 32.2046875 61.9091796875 31.7 61.25 30.3546875 59.518359375 29.3 57.7 28.9 57.1 28.55 56.45 26.65 53 25.6 49.25 25.35 48.3 25.15 47.35
L 19.05 55.45
Q 18.55 51.95 19 49.25 19.7 45.05 22.75 42.75 23.55 42.15 24.5 41.7 24.45 41 24.5 40.3 18.8265625 40.7953125 13.15 42.4 Z"/>

<path fill="#FFBC17" stroke="none" d="
M 59 42.95
L 58.65 43.05
Q 59.42265625 44.766796875 59.9 46.55 60.2576171875 47.88125 60.45 49.25 60.65 50.7 60.65 52.15 60.65 54.25 60.35 56.45 59.8279296875 59.4515625 58.65 62.65 58.4884765625 63.119140625 58.3 63.6 59.25 63.6 60.25 63.4 61.9 59.85 62.35 56.45 62.6 54.25 62.4 52.15 62.25 50.7 61.9 49.25 61 46 59 42.95
M 40.75 45.95
Q 42.55 45.4 44.05 45.15 46.9 44.55 49.45 44.8 49.35 44.15 49.2 43.55
L 48.7 43.4 44.95 44.55 46.35 42.4
Q 35.45 39.3 24.5 40.3 24.45 41 24.5 41.7 27 40.5 30.55 40.2
L 25.15 47.35
Q 25.35 48.3 25.6 49.25 26.65 53 28.55 56.45 28.9 57.1 29.3 57.7 30.3546875 59.518359375 31.7 61.25 32.2046875 61.9091796875 32.75 62.55 32.3 60.45 33.95 57.7 34.3 57.1 34.75 56.45 35.4 55.6 36.2 54.65 39.75 50.6 44.1 53.05 45.65 53.95 47.3 55.65 47.5263671875 55.197265625 47.7 54.75 48.33828125 53.422265625 48.75 52.15 49.2 50.65 49.45 49.25 49.55 48.4 49.6 47.6
L 40.75 45.95 Z"/>

<path fill="#331C00" stroke="none" d="
M 59.25 41.7
Q 59.1443359375 41.5431640625 58.95 41.45 58.803515625 41.8744140625 58.65 42.3
L 58.55 42.3
Q 58.780078125 42.6201171875 59 42.95 61 46 61.9 49.25 62.25 50.7 62.4 52.15 62.6 54.25 62.35 56.45 61.9 59.85 60.25 63.4 59.25 63.6 58.3 63.6 52.55 63.65 48.4 56.8
L 47.3 55.65
Q 45.65 53.95 44.1 53.05 39.75 50.6 36.2 54.65 35.4 55.6 34.75 56.45 34.3 57.1 33.95 57.7 32.3 60.45 32.75 62.55 32.9 63.1 33.15 63.6 36.15 69.35 42.1 72.4 42.5 72.55 42.9 72.75
L 42.9 74.9 39.2 78.4 31.65 85.45 29.2 86.1 17.75 76.8
Q 17.9 76.35 18 75.9 18.35 74.5 18.55 73.2 18.65 72.25 18.65 71.35 18.7 66.8 15.75 64.15 15.69921875 64.15078125 15.65 64.2 14.7 64.3 13.95 64.55 13.65 64.65 13.4 64.8 11.6 65.55 10.7 67.2 10.4 67.7 10.2 68.3
L 8.2 69.05 5 66.4
Q 5.75 61.8 6.75 57.7 6.85 57.3 6.95 56.9 7.45 54.8 8 52.85 9.15 48.75 10.55 45.25 10.85 44.65 11.15 44.05 11.3 43.75 11.5 43.45 11.7 43.1 11.9 42.8 12.0435546875 42.55390625 12.2 42.3 11.2990234375 42.7060546875 10.55 43.15
L 10.55 43.15
Q 10.411328125 43.3962890625 10.3 43.6 10 44.225 9.7 44.8 9.6861328125 44.863671875 9.65 44.9 8.248046875 48.44609375 7.05 52.6 6.524609375 54.56171875 6 56.65 5.925 57.075 5.8 57.45 4.811328125 61.6103515625 4.05 66.25 4.0109375 66.4935546875 4.1 66.7 4.1859375 66.9615234375 4.35 67.1
L 7.55 69.75
Q 7.773046875 69.9326171875 8 69.95 8.278125 70.0275390625 8.5 69.95
L 10.5 69.2
Q 10.7263671875 69.1291015625 10.85 68.95 11.029296875 68.8138671875 11.1 68.6 11.2712890625 68.10859375 11.5 67.7
L 11.5 67.65
Q 12.2798828125 66.292578125 13.75 65.65 13.8392578125 65.653125 13.9 65.6 14.05859375 65.5212890625 14.25 65.45 14.7984375 65.2716796875 15.45 65.15 17.746484375 67.527734375 17.7 71.35 17.6970703125 72.177734375 17.6 73.05 17.4099609375 74.3140625 17.05 75.65
L 17.05 75.7
Q 16.984765625 76.1 16.85 76.5 16.7609375 76.7869140625 16.85 77.05 16.9263671875 77.36015625 17.15 77.55
L 28.6 86.85
Q 28.779296875 86.9822265625 29 87 29.211328125 87.0755859375 29.4 87
L 31.85 86.35
Q 32.115234375 86.31796875 32.3 86.15
L 43.55 75.6
Q 43.694921875 75.460546875 43.75 75.25 43.8521484375 75.095703125 43.85 74.9
L 43.85 72.75
Q 43.8462890625 72.4806640625 43.7 72.25 43.5611328125 72.0205078125 43.3 71.9 42.875 71.6720703125 42.4 71.5 36.8310546875 68.5890625 34 63.15
L 34 63.15
Q 33.7955078125 62.7583984375 33.65 62.3
L 33.65 62.35
Q 33.347265625 60.5615234375 34.75 58.2
L 34.75 58.15
Q 35.1025390625 57.611328125 35.5 57 36.1517578125 56.17109375 36.9 55.25
L 36.9 55.25
Q 39.9380859375 51.8255859375 43.6 53.85 45.0765625 54.7146484375 46.6 56.3
L 46.6 56.3 47.65 57.4
Q 52.1162109375 64.67890625 58.3 64.55 59.33515625 64.5474609375 60.4 64.3 60.647265625 64.284765625 60.8 64.15 61.003125 64.0072265625 61.1 63.8 62.825 60.1099609375 63.3 56.55
L 63.3 56.55
Q 63.560546875 54.24765625 63.35 52.05 63.191796875 50.5375 62.8 49
L 62.8 49
Q 61.886328125 45.6078125 59.8 42.4 59.5626953125 42.036328125 59.25 41.7 Z"/>

<path fill="#FFCE2A" stroke="none" d="
M 49.2 43.55
Q 49.35 44.15 49.45 44.8 54.7 45.25 58.3 49.25
L 49.6 47.6
Q 49.55 48.4 49.45 49.25 49.2 50.65 48.75 52.15 48.33828125 53.422265625 47.7 54.75 47.5263671875 55.197265625 47.3 55.65
L 54.4 52.85 48.4 56.8
Q 52.55 63.65 58.3 63.6 58.4884765625 63.119140625 58.65 62.65 59.8279296875 59.4515625 60.35 56.45 60.65 54.25 60.65 52.15 60.65 50.7 60.45 49.25 60.2576171875 47.88125 59.9 46.55 59.42265625 44.766796875 58.65 43.05
L 56.9 43.7 55.9 45.35 49.2 43.55 Z"/>

<path fill="#4D0D0D" stroke="none" d="
M 82.5 15.75
Q 81.65 15.3 81.55 15.25 83.4 14.55 85.2 13.9 84.7 13 83 11.15 82.25 10.2 81.8 10.1 81.15 10.1 80.5 10.1 80.3 10.15 80.15 10.15 80.95 9.4 81.7 8.75 81.55 8.7 81.45 8.55 81.05 8.15 80.75 7.8 80.7 7.8 80.7 7.85
L 80.65 7.8
Q 80.65 7.75 80.6 7.7 75.85 3.55 68 1.55
L 67.95 1.55
Q 67.6 1.6 67.3 1.65 67.25 1.7 67.2 1.75 66.3 2 65.45 2.55 65.75 1.7 66 1 62.1 0.5 58.05 0.1 56.6 0.1 55.15 0
L 55.1 0
Q 54.9 0 54.8 0.05
L 54.7 0.05
Q 41.3 1.65 26.65 11.35 22.55 14.5 18.65 18.8 18.55 18.9 18.4 19 18.35 19.1 18.25 19.15 15.4 22.35 12.65 25.65 12.45 25.95 12.25 26.35 11.9 28.35 11.65 29.95 10.95 27.75 10.7 24.45 8.0408203125 30.4052734375 6.3 34.2 5.7267578125 35.4712890625 5.25 36.5 5.35 36.65 5.45 36.8
L 5.5 36.85
Q 6.05 37.55 6.25 38.25 5.3943359375 38.4876953125 4.55 38.9 3.6181640625 39.36796875 2.7 40.05 1.2 41.15 0 42.55 2.55 41.6 4.25 41.7 4.3962890625 41.7 4.55 41.7 5.1505859375 41.812890625 5.85 42.25
L 5.85 42.25
Q 7.365625 43.7203125 7.4 47
L 9.4 43.95
Q 9.9384765625 43.5501953125 10.55 43.15
L 10.55 43.15
Q 11.2990234375 42.7060546875 12.2 42.3 12.5111328125 42.1767578125 12.85 42.05 12.9662109375 42.01640625 13.05 41.95 31.806640625 36.6314453125 48.55 41.3
L 58.55 42.3 58.65 42.3
Q 58.803515625 41.8744140625 58.95 41.45 60.084375 38.8125 62.1 36.3
L 62.8 35.4
Q 63.368359375 34.8369140625 63.95 34.2 64.1544921875 34.001953125 64.35 33.8 69.25 28.55 75.55 22.05 80.85 16.45 82.5 15.75
M 81.9 11.95
Q 82.65 12.7 83.3 13.55 69.75 16.1 64.85 29.55 69.25 22.5 77.8 17.55 78.85 17 80 16.55 71.7 24.1 63.85 33
L 60.6 36.85
Q 59.05 38.6 58.25 40.45 57.8 40.4 57.35 40.4 57.253515625 40.39140625 57.15 40.35 53.3498046875 40.0474609375 49.4 39.95 49.25 39.85 49.15 39.8 48.75 39.65 48.45 39.5 46.4 38.65 43.65 38.1 43.4 38.05 43.2 38 40.2 37.45 36.35 37.35 33.9 37.3 31.3 37.4 30.8 37.4 30.2 37.45 27.4 37.65 24.45 38.05 23.85 38.1 23.25 38.25 20 38.85 16.75 39.65 14.9955078125 40.120703125 13.25 40.75 12.9455078125 40.841796875 12.65 40.95 10.45 41.75 8.2 42.75
L 8.15 42.75
Q 8.05 42.7 8 42.7 6.8203125 41.0822265625 4.55 41 3.4525390625 40.9740234375 2.1 41.3 3.3751953125 40.3779296875 4.55 39.85 6.3701171875 39.0087890625 7.95 39.1 8.2 37.25 6.8 35.8 7.2265625 35.2064453125 7.7 34.2 8.562109375 32.4935546875 9.6 29.6 10.85625 32.9953125 11.7 34.2 12.0951171875 34.7697265625 12.4 34.85 12.4990234375 34.56953125 12.6 34.2 13.066015625 32.333203125 13.4 28.2 14.45 26.9 18.8 22.35 18.95 22.15 19.1 22 22.9 18.1 27.05 14.95 42 4.7 55.4 1.95 59.95 2.15 63.95 2.95 62.25 5.15 61.85 8.9 64.85 4.8 67.65 3.8 74.95 5.95 79.55 9.75 76.75 11.7 74 13.85 78.75 11.2 81.9 11.95 Z"/>

<path fill="#851616" stroke="none" d="
M 32 28.55
Q 31.8505859375 29.112109375 31.6 29.65 30.7421875 31.9263671875 28.7 34.2 26.987109375 36.1169921875 24.45 38.05 27.4 37.65 30.2 37.45 30.65 36.6 31.25 35.85 31.9111328125 35.0302734375 32.3 34.2 33.448046875 31.9130859375 32.65 29.55
L 32.65 29.5
Q 32.4 29 32 28.55
M 39.3 28.65
Q 38.9771484375 29.1482421875 38.6 29.65 36.96015625 31.95390625 34.55 34.2 33.8197265625 34.9033203125 33 35.6 32.1 36.45 31.3 37.4 33.9 37.3 36.35 37.35 37.8001953125 35.8265625 38.75 34.2 39.9318359375 32.144921875 40.3 29.9 40.6369140625 27.9056640625 40.3 25.75 39.7 27.65 39.3 28.65
M 17.9 32.8
Q 17.353515625 33.4974609375 16.75 34.2 13.2443359375 38.3833984375 8.15 42.75
L 8.2 42.75
Q 10.45 41.75 12.65 40.95 13.6 39.05 15.05 37.05 16.4298828125 35.636328125 17.25 34.2 17.6384765625 33.502734375 17.9 32.8 Z"/>

<path fill="#691212" stroke="none" d="
M 47.1 32.35
Q 46.62578125 33.26015625 45.95 34.2 45.56640625 34.7912109375 45.1 35.4 44.2 36.75 43.65 38.1 46.4 38.65 48.45 39.5 48.05 37.7 48.4 35.9 48.6869140625 35.0640625 48.95 34.2 49.081640625 33.8689453125 49.2 33.5 49.9125 31.23828125 50.6 28.75 50.65 28.05 50.8 27.4 49.7 22.75 50.45 17.15 48.95 22.6 48.9 27.05 48.7671875 29.475390625 47.1 32.35
M 43.95 35.3
Q 44.1771484375 34.7240234375 44.35 34.2 44.9734375 32.6080078125 45.3 31.5 45.865234375 29.50859375 45.55 29.05 43.7 25.3 45.8 15.1 33.75 20.85 26.6 27.45 26.4 27.65 26.2 27.8 22.272265625 31.2310546875 21.9 33.2 21.85 33.405859375 21.85 33.6 21.7798828125 33.4595703125 21.7 33.3 20.78515625 31.66875 18.4 29.1 19.2763671875 31.796484375 19 34.2 18.9796875 34.6552734375 18.9 35.1 18.4255859375 37.5322265625 16.75 39.65 20 38.85 23.25 38.25 23.85 38.1 24.45 38.05 26.987109375 36.1169921875 28.7 34.2 30.7421875 31.9263671875 31.6 29.65 31.8505859375 29.112109375 32 28.55 32.4 29 32.65 29.5
L 32.65 29.55
Q 33.448046875 31.9130859375 32.3 34.2 31.9111328125 35.0302734375 31.25 35.85 30.65 36.6 30.2 37.45 30.8 37.4 31.3 37.4 32.1 36.45 33 35.6 33.8197265625 34.9033203125 34.55 34.2 36.96015625 31.95390625 38.6 29.65 38.9771484375 29.1482421875 39.3 28.65 39.7 27.65 40.3 25.75 40.6369140625 27.9056640625 40.3 29.9 39.9318359375 32.144921875 38.75 34.2 37.8001953125 35.8265625 36.35 37.35 40.2 37.45 43.2 38 43.45 36.65 43.95 35.3 Z"/>

<path fill="#581111" stroke="none" d="
M 44.35 34.2
Q 44.1771484375 34.7240234375 43.95 35.3 43.45 36.65 43.2 38 43.4 38.05 43.65 38.1 44.2 36.75 45.1 35.4 45.56640625 34.7912109375 45.95 34.2 46.62578125 33.26015625 47.1 32.35 48.7671875 29.475390625 48.9 27.05 48.95 22.6 50.45 17.15 49.7 22.75 50.8 27.4 51.75 20.4 55.05 7.2 44.65 8.15 27.05 14.95 22.9 18.1 19.1 22 18.95 22.15 18.8 22.35 14.45 26.9 13.4 28.2 13.066015625 32.333203125 12.6 34.2 12.4990234375 34.56953125 12.4 34.85 12.0951171875 34.7697265625 11.7 34.2 10.85625 32.9953125 9.6 29.6 8.562109375 32.4935546875 7.7 34.2 7.2265625 35.2064453125 6.8 35.8 8.2 37.25 7.95 39.1 6.3701171875 39.0087890625 4.55 39.85 3.3751953125 40.3779296875 2.1 41.3 3.4525390625 40.9740234375 4.55 41 6.8203125 41.0822265625 8 42.7 8.05 42.7 8.15 42.75 13.2443359375 38.3833984375 16.75 34.2 17.353515625 33.4974609375 17.9 32.8 17.6384765625 33.502734375 17.25 34.2 16.4298828125 35.636328125 15.05 37.05 13.6 39.05 12.65 40.95 12.9455078125 40.841796875 13.25 40.75 14.9955078125 40.120703125 16.75 39.65 18.4255859375 37.5322265625 18.9 35.1 18.9796875 34.6552734375 19 34.2 19.2763671875 31.796484375 18.4 29.1 20.78515625 31.66875 21.7 33.3 21.7798828125 33.4595703125 21.85 33.6 21.85 33.405859375 21.9 33.2 22.272265625 31.2310546875 26.2 27.8 26.4 27.65 26.6 27.45 33.75 20.85 45.8 15.1 43.7 25.3 45.55 29.05 45.865234375 29.50859375 45.3 31.5 44.9734375 32.6080078125 44.35 34.2 Z"/>

<path fill="#951C1C" stroke="none" d="
M 50.7 34.2
Q 52.296875 30.624609375 52.8 26.6 52.65 20.05 55.05 7.2 51.75 20.4 50.8 27.4 50.65 28.05 50.6 28.75 49.9125 31.23828125 49.2 33.5 49.081640625 33.8689453125 48.95 34.2 48.6869140625 35.0640625 48.4 35.9 48.05 37.7 48.45 39.5 48.75 39.65 49.15 39.8 49.05 38 49.7 36.25 50.1853515625 35.368359375 50.6 34.45 50.666796875 34.32890625 50.7 34.2 Z"/>

<path fill="#C62B2B" stroke="none" d="
M 77.8 17.55
Q 76.45 18.85 75.15 20.25 68.85 27 63.85 33 71.7 24.1 80 16.55 78.85 17 77.8 17.55 Z"/>

<path fill="#BB1919" stroke="none" d="
M 63.2 21.6
Q 64.65 18.05 66.35 14 61.55 22.4 58.25 27.05 58.3 24.55 59 20.2 57.3 24.6 56.25 26.9 56.2 23.45 57.95 15.35 58.25 13.55 58.4 11.85 58.5 9.9 58.45 8.1 55.2 20.3 54.65 26.6 53.4740234375 30.6591796875 51.55 34.2 51.3927734375 34.542578125 51.2 34.85 50.7701171875 35.6529296875 50.3 36.4 49.5 38.15 49.4 39.95 53.3498046875 40.0474609375 57.15 40.35 57.253515625 40.39140625 57.35 40.4
L 57.35 40.3
Q 58.1966796875 37.393359375 60.05 34.2 61.502734375 31.7353515625 63.55 29.1 66.15 24.8 69.75 18.35 66.55 21.1 64.45 24.1 63.65 25.3 62.65 26.5 62.3 25.25 62.6 23.65 62.8 22.7 63.2 21.6 Z"/>

<path fill="#A11A1A" stroke="none" d="
M 83.3 13.55
Q 82.65 12.7 81.9 11.95 78.75 11.2 74 13.85 76.75 11.7 79.55 9.75 74.95 5.95 67.65 3.8 64.85 4.8 61.85 8.9 62.25 5.15 63.95 2.95 59.95 2.15 55.4 1.95 42 4.7 27.05 14.95 44.65 8.15 55.05 7.2 52.65 20.05 52.8 26.6 52.296875 30.624609375 50.7 34.2 50.666796875 34.32890625 50.6 34.45 50.1853515625 35.368359375 49.7 36.25 49.05 38 49.15 39.8 49.25 39.85 49.4 39.95 49.5 38.15 50.3 36.4 50.7701171875 35.6529296875 51.2 34.85 51.3927734375 34.542578125 51.55 34.2 53.4740234375 30.6591796875 54.65 26.6 55.2 20.3 58.45 8.1 58.5 9.9 58.4 11.85 58.25 13.55 57.95 15.35 56.2 23.45 56.25 26.9 57.3 24.6 59 20.2 58.3 24.55 58.25 27.05 61.55 22.4 66.35 14 64.65 18.05 63.2 21.6 62.8 22.7 62.6 23.65 62.3 25.25 62.65 26.5 63.65 25.3 64.45 24.1 66.55 21.1 69.75 18.35 66.15 24.8 63.55 29.1 61.502734375 31.7353515625 60.05 34.2 58.1966796875 37.393359375 57.35 40.3
L 57.35 40.4
Q 57.8 40.4 58.25 40.45 59.05 38.6 60.6 36.85
L 63.85 33
Q 68.85 27 75.15 20.25 76.45 18.85 77.8 17.55 69.25 22.5 64.85 29.55 69.75 16.1 83.3 13.55 Z"/>
</g>
</defs>

<g transform="matrix( 1, 0, 0, 1, 0,0.35) ">
<g transform="matrix( 1, 0, 0, 1, 0,0) ">
<use xlink:href="#_____________________________________216_0_Layer1_0_FILL"/>
</g>

<g transform="matrix( 1, 0, 0, 1, 0,0) ">
<g transform="matrix( 1, 0, 0, 1, 0,0) ">
<use xlink:href="#_______257_0_Layer0_0_FILL"/>
</g>
</g>
</g>
</svg>
