
<svg xmlns="http://www.w3.org/2000/svg" version="1.1" xmlns:xlink="http://www.w3.org/1999/xlink" preserveAspectRatio="none" x="0px" y="0px" width="67px" height="68px" viewBox="0 0 67 68">
<defs>
<g id="_____________________________________258_0_Layer1_0_FILL">
<path fill="#984606" stroke="none" d="
M 63.45 52.1
Q 63.425390625 52.309375 63.35 52.5
L 63.4 52.5
Q 63.4 52.3 63.5 52.15
L 63.45 52.1
M 28.2 23.7
L 29.55 24.05 29 21.4 28.2 17.55 16.65 14.4 16.6 14.4 17.8 21.15 19.7 21.65 28.2 23.7
M 68.7 47.7
Q 68.85 47.4 68.95 47.05
L 68.95 47
Q 68.95 46.9 69 46.85 69 46.7 69.1 46.55 69.15 46.4 69.2 46.3 69 46.65 68.9 47.05 68.75 47.15 68.75 47.4 68.4 48.15 68.1 48.95 68.25 48.6 68.4 48.25 68.55 48 68.7 47.7
M 57.7 35.05
L 57.6 35.05 63.1 47.35
Q 63.3 47.85 63.5 48.35
L 65.5 52.9
Q 65.58828125 52.5912109375 65.8 52.45
L 65.85 52.45 65.85 52.4
Q 65.908203125 52.4 65.95 52.4 66.0158203125 52.246484375 66.1 52.1 66.2095703125 51.9185546875 66.35 51.75 66.35 51.7 66.4 51.65 66.44765625 51.570703125 66.5 51.5 66.59296875 51.366015625 66.7 51.25 66.725390625 51.224609375 66.75 51.2 66.75 51.05 66.85 51.05
L 66.85 51 66.85 50.9 66.9 50.85
Q 66.95 50.75 67.05 50.7 67.051171875 50.65 67.1 50.65 67.15 50.65 67.15 50.6 67.05 50.55 67.05 50.65 67 50.35 67 50.25 66.75 49.5 66.7 48.95 66.45 48 66.4 47.4 66.25 47.15 66.25 47.05 65.45 44.65 64.5 42.6
L 61.95 35.1 57.7 35.05 Z"/>

<path fill="#333A4D" stroke="none" d="
M 31.85 60.6
Q 31.45 60.35 31.15 60.05 30.35 59.35 29.7 58.75 28.45 57.65 27.3 56.7 26.8 56.25 26.45 55.95
L 26.35 55.9
Q 25.7 55.35 25.2 54.95 24.65 54.45 24.05 54.05
L 16.75 50.35
Q 16.75 50.4 17 50.6 17.2068359375 50.8240234375 17.4 51.05 19.645703125 53.445703125 22.25 56.05 22.75 56.55 23.35 57.15 24.05 57.9 24.95 58.75 25.25 59 25.65 59.4 26.2 59.95 26.9 60.55 27.2 60.8 27.45 61.15 28.05 61.7 28.65 62.25 30 63.45 31.45 64.75 31.55 64.9 31.7 65 32.65 65.9 33.85 66.95 34.1 67.2 34.55 67.6
L 34.65 67.6
Q 34.7 67.6 34.85 67.85 34.95 67.95 35.25 68.15 35.65 68.55 36.2 69 36.95 69.6 37.8 70.35 38.2 70.7 38.7 71.15 39.65 71.95 40.75 72.85 42.45 74.25 44.25 75.7
L 46.25 75.8
Q 45.63515625 75.0775390625 45 74.35 43.63515625 72.74296875 42.25 71.15 41.95 70.85 41.8 70.65 41.05 69.85 40.35 69.05
L 40.2 68.85
Q 39.8 68.45 39.5 68.2 39.3 67.95 39.2 67.85 39.1064453125 67.7470703125 39 67.65 38.9837890625 67.612109375 38.95 67.55 38.608984375 67.208984375 38.35 66.95 37.2 65.8 36.2 64.75 35.1 63.7 34.05 62.7 33.85 62.45 33.6 62.25 33 61.65 32.4 61.2 32.15 60.85 31.85 60.6
M 12.55 35
Q 12.225 34.9556640625 11.9 34.9 11.125 34.8056640625 10.35 34.7 9.5 37.3 10.2 40 11.0630859375 40.14375 11.9 40.3 12.226953125 40.34375 12.55 40.4 13.176953125 40.4751953125 14.75 40.5 16.2724609375 40.54765625 18.6 40.55 18.77265625 40.55 18.95 40.55
L 19.95 40.5
Q 20.35 40.5 20.8 40.45
L 21.65 35.2
Q 20.95 35.2 20.3 35.25 19.4380859375 35.2845703125 18.6 35.35 18.2224609375 35.3689453125 17.85 35.4 16.65 35.4 16 35.4
L 15.55 35.4
Q 15.490625 35.3919921875 15.4 35.35 13.990625 35.1919921875 12.55 35
M 53.2 59.25
Q 53.1560546875 59.3126953125 53.1 59.35 51.4689453125 61.703125 49.55 63.85 48.968359375 64.50859375 48.35 65.15 47.2951171875 66.2763671875 46.15 67.35 46.2396484375 67.4396484375 46.5 67.65 46.5189453125 67.67421875 46.55 67.7 46.55 67.75 46.6 67.85 46.75 67.95 46.95 68.2 47.7 69.05 48.45 69.95 49.55 69.05 50.5 68.2 50.65 67.95 50.9 67.9 50.988671875 67.7734375 51.05 67.65 51.3765625 67.2861328125 51.75 66.95 52.3515625 66.318359375 52.9 65.65 53.1310546875 65.41484375 53.35 65.15 53.4779296875 65.00078125 53.6 64.85 54.6 63.6 55.4 62.4 56.270703125 60.948828125 57 59.5 57.1548828125 59.240234375 57.3 58.95
L 57.25 58.9 53.2 59.25
M 38.95 60
Q 39.123046875 60.1927734375 39.3 60.35 40.1 59.55 40.9 58.8 41.2166015625 58.469140625 41.5 58.1 41.9173828125 57.7201171875 42.3 57.3 42.3443359375 57.2501953125 42.4 57.2 42.548046875 57.027734375 42.7 56.85 42.87265625 56.6529296875 43.05 56.45 44.7 54.65 45.95 52.7 46 52.45 46.25 52.3 46.6 51.5 47.05 50.7 47.0814453125 50.637109375 47.1 50.55 47.2314453125 50.34765625 47.35 50.15
L 42.15 50.25
Q 40.6814453125 53.0203125 38.55 55.35 37.6353515625 56.3724609375 36.6 57.3 36.4220703125 57.451171875 36.25 57.6 36.4 57.7 36.65 57.9 37.1 58.3 37.6 58.8 38.2427734375 59.4025390625 38.95 60 Z"/>

<path fill="#566382" stroke="none" d="
M 20.7 28.7
Q 20.6 28.45 20.6 28.2 20.553125 28.059375 20.55 27.9 20.55 28.059375 20.55 28.2 20.55 28.45 20.55 28.7 20.6 28.7 20.7 28.7
M 18.6 46.45
Q 18.2736328125 46.4755859375 17.95 46.5 17.7 47 17.55 47.75 17.2 49 16.75 50.35
L 24.05 54.05
Q 24.5 53 24.95 51.95 25.1 51.2 25.4 50.65 25.55 50 25.85 49.45 26.65 47 27.3 44.6 26.05 42.85 25.05 41.15 24.65 40.5 24.35 40 24 43 23.4 46.1 21.7474609375 46.21796875 20.15 46.3 19.36796875 46.390234375 18.6 46.45
M 6.95 42.5
Q 8.1 42.65 9.45 42.95 10.675 43.1080078125 11.9 43.3 12.225 43.34765625 12.55 43.4 13.4 43.5 14.2 43.6 14.3068359375 43.5982421875 14.4 43.6 17.0748046875 43.5484375 18.6 43.45 18.6765625 43.4544921875 18.75 43.45 19.55 43.4 20.4 43.4
L 20.8 40.55
Q 21.1375 40.5125 21.5 40.5
L 20.8 40.5 20.8 40.45
Q 20.35 40.5 19.95 40.5
L 18.95 40.55
Q 18.77265625 40.55 18.6 40.55 16.2724609375 40.54765625 14.75 40.5 13.176953125 40.4751953125 12.55 40.4 12.226953125 40.34375 11.9 40.3 11.0630859375 40.14375 10.2 40
L 6.95 42.5
M 53.9 55.55
Q 53.85 55.35 53.75 55.3
L 53.7 55.25
Q 52.05 53.8 50.5 52.5 50.1 53.2 49.65 53.95 49.25 54.45 48.95 55.1 48.8 55.1 48.75 55.25
L 53.2 59.25 57.25 58.9
Q 56.526953125 58.0783203125 55.75 57.3 55.701953125 57.25 55.65 57.2 55.3103515625 56.8455078125 54.95 56.5 54.45 56.1 54.05 55.75 54 55.65 53.9 55.55 Z"/>

<path fill="#8093C2" stroke="none" d="
M 28.65 26.95
Q 28.5 26.25 28.5 25.65
L 20.1 23.4
Q 20.147265625 24.205078125 20.35 25.1 20.38671875 25.1498046875 20.4 25.2 20.4 26.1 20.55 27.1 20.45 27.45 20.55 27.8
L 20.55 27.9
Q 20.553125 28.059375 20.6 28.2 20.6 28.45 20.7 28.7 21.05 28.65 21.5 28.65
L 24.8 30.35
Q 24.9 35.3 24.35 40 24.65 40.5 25.05 41.15 26.05 42.85 27.3 44.6 27.7736328125 42.8166015625 28.1 41.05 28.3451171875 39.6443359375 28.5 38.25 28.45 38 28.5 37.9 28.65 36.35 28.8 34.8 28.8 33.55 28.9 32.4
L 28.9 32.35
Q 28.8 30.35 28.75 28.35
L 28.75 28.3
Q 28.65 27.75 28.65 27.25 28.65 27.05 28.65 26.95 Z"/>

<path fill="#FFF6BB" stroke="none" d="
M 3.3 42.6
L 2 42.35 3.7 47.85 3.75 47.85 9.1 46.6 9.15 46.55
Q 9.1 46.5 9 46.55
L 7.55 43.3 3.3 42.6
M 10.65 30
L 12.1 28.4 11.9 28.4 4.15 26.5 4.05 26.4 2.15 29.6 2 33.55 3.6 33.3 8.1 32.7 10.65 30
M 24.8 6.2
Q 23.7833984375 6.1947265625 22.7 6.25 23.543359375 6.6501953125 24.8 7.6 25.6443359375 8.28359375 26.65 9.2 29.2416015625 11.4880859375 30.75 13.9 30.8208984375 14.039453125 30.9 14.15 32.2623046875 16.390625 32.45 17.15
L 38.65 17.3
Q 38.55 16.95 38.45 16.6 38.25 16.15 38.1 15.75 38.085546875 15.7134765625 38.05 15.65 37.752734375 14.87109375 37.35 14.15 37.12734375 13.65546875 36.85 13.2 32.9857421875 6.58203125 24.8 6.2
L 24.8 6.2
M 41.2 21.85
Q 42.9 21.65 44.55 21.6 45.65 21.55 46.7 21.55 47.55 21.5 48.45 21.55 48.75 21.55 48.95 21.55 50 21.55 51.2 21.65 54.9 21.9 58.35 22.7 58.7 22.8 59.25 23 59.6 23.15 59.95 23.35 62.55 24.65 63 26.5 62.968359375 26.594921875 62.95 26.75 62.981640625 26.83984375 63 26.95
L 63.1 26.95
Q 63.11015625 26.8494140625 63.1 26.75 63.5845703125 21.318359375 59.1 20.4 52.3654296875 19.8693359375 45.5 20 39.77578125 20.163671875 33.95 20.75 31.6064453125 21.0357421875 29.25 21.35 29.125 21.382421875 29 21.4
L 29.55 24.05
Q 29.5646484375 24.044921875 29.55 24.05 30.7166015625 23.646875 32 23.4 32.975 23.1419921875 33.95 22.95 34.675 22.8640625 35.4 22.8 36.5 22.55 37.55 22.35 37.9 22.25 38.25 22.2 38.4 22.15 38.55 22.15 38.85 22.1 39.15 22.1 40.15 21.95 41.2 21.85
M 66.45 13.5
Q 67.05 13.2 67.75 13.05
L 60.5 13.2
Q 59.7 13.4 58.85 13.65 58.191015625 12.8376953125 57.5 12.05 49.876171875 3.5669921875 39.6 1.9 37.674609375 1.5736328125 35.65 1.5 36.6625 2.3599609375 37.55 3.25 42.437109375 8.1990234375 43.35 14.15 43.4490234375 14.86796875 43.5 15.6 43.5 16.35 43.5 17.1 43.5607421875 17.201171875 43.6 17.3 43.8607421875 17.691015625 44.1 18.05 46 17.95 47.95 17.8 49.2 17.6 50.5 17.55 51.3080078125 17.4294921875 52.1 17.3 54.6337890625 16.8931640625 57.1 16.4 58.75 16 60.35 15.55 61.6 15.2 62.85 14.8 63.2576171875 14.6888671875 63.65 14.55 63.8076171875 14.5017578125 63.95 14.45 65.2 13.95 66.45 13.5 Z"/>

<path fill="#CEDDE9" stroke="none" d="
M 15.55 30.75
Q 15.616015625 30.74609375 15.65 30.75 17.1326171875 30.6564453125 18.6 30.6 19.59609375 30.5697265625 20.6 30.55 20.75 30.5 20.95 30.55 22.8 30.4 24.8 30.35
L 21.5 28.65
Q 21.05 28.65 20.7 28.7 20.6 28.7 20.55 28.7 19.5685546875 28.753515625 18.6 28.8 16.8861328125 28.8666015625 15.2 28.9
L 15.15 28.9
Q 13.55 28.65 12.1 28.4
L 10.65 30
Q 11.275 30.131640625 11.9 30.25 12.225 30.2986328125 12.55 30.35 13.6 30.5 14.75 30.65 15.15 30.7 15.55 30.75 Z"/>

<path fill="#7485AF" stroke="none" d="
M 15.65 30.75
Q 15.616015625 30.74609375 15.55 30.75 15.15 30.7 14.75 30.65 13.6 30.5 12.55 30.35 12.225 30.2986328125 11.9 30.25 11.275 30.131640625 10.65 30
L 8.1 32.7 3.6 33.3
Q 2.95 37.2 3.15 41.3 3.15 41.85 3.3 42.6
L 7.55 43.3 9 46.55
Q 9.1 46.5 9.15 46.55 9.3 46.5 9.45 46.6 10.6271484375 46.7396484375 11.9 46.75 12.92890625 46.7939453125 14 46.75 14.9619140625 46.6974609375 15.95 46.6
L 15.55 46.6
Q 16.75 46.55 17.95 46.5 18.2736328125 46.4755859375 18.6 46.45 19.36796875 46.390234375 20.15 46.3 21.7474609375 46.21796875 23.4 46.1 24 43 24.35 40 24.9 35.3 24.8 30.35 22.8 30.4 20.95 30.55 20.75 30.5 20.6 30.55 19.59609375 30.5697265625 18.6 30.6 17.1326171875 30.6564453125 15.65 30.75
M 11.9 34.9
Q 12.225 34.9556640625 12.55 35 13.990625 35.1919921875 15.4 35.35 15.490625 35.3919921875 15.55 35.4
L 16 35.4
Q 16.65 35.4 17.85 35.4 18.2224609375 35.3689453125 18.6 35.35 19.4380859375 35.2845703125 20.3 35.25 20.95 35.2 21.65 35.2
L 20.8 40.45 20.8 40.5 21.5 40.5
Q 21.1375 40.5125 20.8 40.55
L 20.4 43.4
Q 19.55 43.4 18.75 43.45 18.6765625 43.4544921875 18.6 43.45 17.0748046875 43.5484375 14.4 43.6 14.3068359375 43.5982421875 14.2 43.6 13.4 43.5 12.55 43.4 12.225 43.34765625 11.9 43.3 10.675 43.1080078125 9.45 42.95 8.1 42.65 6.95 42.5
L 6.8 42.5
Q 6.65 41.85 6.55 41.3 6 37.65 6.8 34.05 8.5 34.35 10.35 34.7 11.125 34.8056640625 11.9 34.9 Z"/>

<path fill="#949FA8" stroke="none" d="
M 6.55 41.3
Q 6.65 41.85 6.8 42.5
L 6.95 42.5 10.2 40
Q 9.5 37.3 10.35 34.7 8.5 34.35 6.8 34.05 6 37.65 6.55 41.3 Z"/>

<path fill="#000000" stroke="none" d="
M 20.1 23.4
L 20.1 23.35 18.6 22.85
Q 18.65 23.15 18.7 23.5 18.7427734375 24.2267578125 18.9 25.1 18.963671875 25.2478515625 19 25.4 19 26.15 19.15 27.05 19.1 27.2 19.1 27.4 18.84921875 27.40625 18.6 27.4 16.86171875 27.45625 15.2 27.5 13.7 27.25 12.35 27.05
L 12.25 27 12.1 27 4.9 25.25 3.8 24.15 0.8 29.2 0.55 35.2 1.95 35
Q 1.6 37.9 1.75 40.9
L 0 40.55 2.7 49.25 4.05 49.25 9.3 48
Q 10.545703125 48.14296875 11.9 48.15 12.8484375 48.1904296875 13.85 48.15 14.9197265625 48.1068359375 16.05 48 15.75 48.95 15.45 49.9
L 15.35 50.35
Q 15.1666015625 50.6251953125 15.5 51.05 15.6919921875 51.3197265625 16.1 51.65 16.1 51.7 16.15 51.7 18.45 54.25 21.25 57.05 21.75 57.55 22.35 58.15
L 22.35 58.1
Q 23.05 58.9 24 59.8
L 24.05 59.85
Q 24.3 60.05 24.65 60.4 25.25 61 26 61.65 26.15 61.75 26.3 62
L 26.5 62.2
Q 27.1 62.75 27.7 63.3
L 27.75 63.3
Q 29 64.45 30.4 65.7 30.55 65.85 30.75 66.05 31.7 66.95 32.95 68
L 32.85 67.95
Q 33.15 68.2 33.65 68.65
L 33.85 68.85
Q 33.9 68.9 34.05 69 34.15 69.1 34.35 69.25 34.75 69.65 35.35 70.1 36.05 70.7 36.9 71.4 37.3 71.75 37.8 72.2
L 37.8 72.25
Q 38.75 73 39.9 73.95
L 39.85 73.95
Q 41.55 75.35 43.4 76.8
L 43.75 77.1 46.65 77.25 47 77
Q 50.55 74.8 53.45 72.2
L 53.5 72.15
Q 55.05 70.6 56.45 69.15
L 56.65 69.05 56.9 68.7 56.9 68.65
Q 57.1 68.3 57.4 68.05
L 57.6 67.8
Q 57.680859375 67.7359375 57.75 67.65 58.465625 66.6125 59.15 65.7
L 59.15 65.65 59.2 65.65
Q 59.3599609375 65.4 59.5 65.15 60.15 64.15 60.75 63.15
L 60.8 63.1 60.85 63
Q 61.5 61.55 62.2 60.2 62.35 59.85 62.55 59.55
L 62.6 59.5 62.6 59.4
Q 62.677734375 59.1927734375 62.75 59 62.977734375 58.41875 63.2 57.9
L 63.2 57.85
Q 63.2 57.8 63.25 57.75 63.3142578125 57.525 63.4 57.3 63.4185546875 57.25 63.45 57.2 63.46796875 57.125 63.5 57.05
L 63.6 56.85 63.6 56.6 63.9 56.15
Q 64.07734375 55.334375 64.25 54.55 64.3626953125 54.2552734375 64.45 53.95 64.45 53.8 64.5 53.7 64.5 53.65 64.55 53.65
L 63.6 51.65
Q 63.5376953125 51.8966796875 63.45 52.1
L 63.5 52.15
Q 63.4 52.3 63.4 52.5
L 63.35 52.5
Q 63.26015625 52.89609375 63.15 53.3 62.97734375 53.8919921875 62.8 54.5 62.651953125 55.1658203125 62.5 55.85 62.35 55.95 62.35 56.25 62.25 56.3 62.2 56.55 62.078125 56.875 61.95 57.2 61.94296875 57.25 61.9 57.3 61.909375 57.325 61.9 57.35 61.6 58.1 61.3 58.9 61.2080078125 59.07109375 61.1 59.25 60.87109375 59.72109375 60.65 60.2 60.1 61.3 59.55 62.4 58.8 63.65 58 64.85 57.8931640625 64.9994140625 57.75 65.15 57.1361328125 66.056640625 56.45 67 56.321484375 67.1140625 56.2 67.2 56.023046875 67.4326171875 55.85 67.65 55.776953125 67.7716796875 55.7 67.9 55.45 68 55.4 68.2 54.05 69.65 52.5 71.15 49.7 73.7 46.25 75.8
L 44.25 75.7
Q 42.45 74.25 40.75 72.85 39.65 71.95 38.7 71.15 38.2 70.7 37.8 70.35 36.95 69.6 36.2 69 35.65 68.55 35.25 68.15 34.95 67.95 34.85 67.85 34.7 67.6 34.65 67.6
L 34.55 67.6
Q 34.1 67.2 33.85 66.95 32.65 65.9 31.7 65 31.55 64.9 31.45 64.75 30 63.45 28.65 62.25 28.05 61.7 27.45 61.15 27.2 60.8 26.9 60.55 26.2 59.95 25.65 59.4 25.25 59 24.95 58.75 24.05 57.9 23.35 57.15 22.75 56.55 22.25 56.05 19.645703125 53.445703125 17.4 51.05 17.2068359375 50.8240234375 17 50.6 16.75 50.4 16.75 50.35 17.2 49 17.55 47.75 17.7 47 17.95 46.5 16.75 46.55 15.55 46.6
L 15.95 46.6
Q 14.9619140625 46.6974609375 14 46.75 12.92890625 46.7939453125 11.9 46.75 10.6271484375 46.7396484375 9.45 46.6 9.3 46.5 9.15 46.55
L 9.1 46.6 3.75 47.85 3.7 47.85 2 42.35 3.3 42.6
Q 3.15 41.85 3.15 41.3 2.95 37.2 3.6 33.3
L 2 33.55 2.15 29.6 4.05 26.4 4.15 26.5 11.9 28.4 12.1 28.4
Q 13.55 28.65 15.15 28.9
L 15.2 28.9
Q 16.8861328125 28.8666015625 18.6 28.8 19.5685546875 28.753515625 20.55 28.7 20.55 28.45 20.55 28.2 20.55 28.059375 20.55 27.9
L 20.55 27.8
Q 20.45 27.45 20.55 27.1 20.4 26.1 20.4 25.2 20.38671875 25.1498046875 20.35 25.1 20.147265625 24.205078125 20.1 23.4
M 53.4 35.95
Q 52.9173828125 35.1287109375 52.35 34.25 49.1173828125 29.38203125 46.45 26.75 42.160546875 22.5427734375 39.3 24.05 37.6984375 25.1177734375 36.75 26.75 34.766015625 30.1357421875 35.55 35.95 35.7595703125 37.3087890625 36.1 38.8 38.55 46.75 51.1 46.15 55.15 45.6 55.65 43.95 56.3392578125 41.063671875 53.4 35.95
M 51.2 35.05
L 51.2 35
Q 51.5107421875 35.48515625 51.8 35.95 54.803125 40.951171875 54.3 43.65
L 54.3 43.55
Q 53.8 44.4 50.9 44.8
L 51.05 44.75
Q 39.75 45.3 37.45 38.4 37.158203125 37.1205078125 37 35.95 36.109375 29.8884765625 38.5 26.75 39.1412109375 25.9236328125 40 25.3 41.7669921875 24.559765625 44.4 26.75 47.281640625 29.1462890625 51.2 35.05 Z"/>

<path fill="#3D475D" stroke="none" d="
M 20.1 23.35
L 20.1 23.4 28.5 25.65
Q 28.44453125 25.373046875 28.4 25.1 28.272265625 24.3869140625 28.2 23.7
L 19.7 21.65
Q 19.944140625 22.4314453125 20.1 23.35 Z"/>

<path fill="#2995A8" stroke="none" d="
M 68.9 45.8
L 69 45.9 69.2 46.3 69.25 46.4 70.1 47.85 67.2 36.65 64.65 38 68.9 45.8 Z"/>

<path fill="#642E03" stroke="none" d="
M 63.5 48.35
Q 63.5 48.6 63.65 48.9 63.8 49.2 64.05 49.7 63.8 50.3 63.65 51
L 63.7 51.05
Q 63.7 51.1 63.75 51.1 63.7296875 51.1748046875 63.7 51.25 63.6533203125 51.4607421875 63.6 51.65
L 64.55 53.65 64.55 53.6 65.85 55.4 69.35 49.3 68.7 47.7
Q 68.55 48 68.4 48.25 68.25 48.6 68.1 48.95 68.068359375 49.0134765625 68 49.05 67.7513671875 49.4892578125 67.5 49.95
L 67.2 50.45
Q 67.1830078125 50.533984375 67.15 50.6 67.15 50.65 67.1 50.65 67.051171875 50.65 67.05 50.7 66.95 50.75 66.9 50.85
L 66.85 50.9 66.85 51 66.85 51.05
Q 66.75 51.05 66.75 51.2 66.725390625 51.224609375 66.7 51.25 66.59296875 51.366015625 66.5 51.5 66.44765625 51.570703125 66.4 51.65 66.35 51.7 66.35 51.75 66.2095703125 51.9185546875 66.1 52.1 66.0158203125 52.246484375 65.95 52.4 65.908203125 52.4 65.85 52.4
L 65.85 52.45 65.8 52.45
Q 65.58828125 52.5912109375 65.5 52.9
L 63.5 48.35 Z"/>

<path fill="#3BD4EE" stroke="none" d="
M 67.2 31.75
Q 67.15 33 67.15 34.35 67.15 35.1228515625 67.15 35.95 67.18671875 36.246484375 67.2 36.55
L 67.2 36.65 70.1 47.85 73.1 42.05 69.95 33.4 67.2 31.75 Z"/>

<path fill="#FF9B20" stroke="none" d="
M 64.55 36.7
Q 63.9890625 36.3162109375 63.4 35.95 63.0390625 35.695703125 62.65 35.45 62.2 35.2 61.95 35.05
L 61.95 35.1 64.5 42.6
Q 65.45 44.65 66.25 47.05 66.25 47.15 66.4 47.4 66.45 48 66.7 48.95 66.75 49.5 67 50.25 67 50.35 67.05 50.65 67.05 50.55 67.15 50.6 67.1830078125 50.533984375 67.2 50.45
L 67.5 49.95
Q 67.7513671875 49.4892578125 68 49.05 68.068359375 49.0134765625 68.1 48.95 68.4 48.15 68.75 47.4 68.75 47.15 68.9 47.05 69 46.65 69.2 46.3
L 69 45.9 68.9 45.8 64.65 38
Q 64.55 37.3 64.55 36.7
M 44.4 18.5
Q 44.15 18.3 44.1 18.05 40.9 18.2 37.75 18.1 36.25 18.05 34.8 18 34.37578125 17.98046875 33.95 17.95 31.6255859375 17.8361328125 29.25 17.65 28.7263671875 17.5970703125 28.2 17.55
L 29 21.4
Q 29.125 21.382421875 29.25 21.35 31.6064453125 21.0357421875 33.95 20.75 39.77578125 20.163671875 45.5 20 45.303125 19.6916015625 45.15 19.5 44.95 19.25 44.8 19.05 44.55 18.75 44.4 18.5 Z"/>

<path fill="#D7F9FF" stroke="none" d="
M 74.6 36.5
Q 74.5728515625 36.23671875 74.55 35.95 74.177734375 32.36328125 73.5 29.05
L 69.95 33.4 73.1 42.05 74.8 38.8
Q 74.75 38.5 74.75 38.35 74.6845703125 37.434375 74.6 36.5
M 69.25 17.3
Q 69.125390625 17.6857421875 69.05 18.1 69 18.5 68.9 18.9 68.85 19.15 68.75 19.45 68.6580078125 19.787109375 68.6 20.1 68.5693359375 20.337109375 68.55 20.55 68.25 21.7 68.1 23 67.75 24.65 67.6 26.55 67.5806640625 26.6470703125 67.55 26.75 67.490234375 27.1763671875 67.45 27.7 67.3 29 67.3 30.5 67.2 31.05 67.2 31.75
L 69.95 33.4 68.6 31.6 69.35 17.05
Q 69.3005859375 17.1734375 69.25 17.3 Z"/>

<path fill="#BB8B00" stroke="none" d="
M 59.95 23.35
Q 59.6 23.15 59.25 23 58.7 22.8 58.35 22.7 54.9 21.9 51.2 21.65 50 21.55 48.95 21.55 50.1 21.75 51.2 22.1 54.8 23 56.65 24.85 57 25.25 57.4 25.75 57.6 26.05 57.85 26.4 57.95 26.5666015625 58 26.75 58.1833984375 27.1166015625 58.25 27.55 58.2 27.55 58.35 27.7 58.25 27.85 58.25 28.1
L 57.7 35.05 61.95 35.1 61.95 35.05 63.1 26.95 63 26.95
Q 62.981640625 26.83984375 62.95 26.75 62.968359375 26.594921875 63 26.5 62.55 24.65 59.95 23.35 Z"/>

<path fill="#D6E6F3" stroke="none" d="
M 44.55 21.6
Q 42.9 21.65 41.2 21.85 40.15 21.95 39.15 22.1 38.85 22.1 38.55 22.15 38.4 22.15 38.25 22.2 37.9 22.25 37.55 22.35 36.5 22.55 35.4 22.8 34.675 22.8640625 33.95 22.95 32.975 23.1419921875 32 23.4 30.7166015625 23.646875 29.55 24.05 29.5646484375 24.044921875 29.55 24.05
L 28.2 23.7
Q 28.272265625 24.3869140625 28.4 25.1 28.44453125 25.373046875 28.5 25.65 28.5 26.25 28.65 26.95 28.65 27.05 28.65 27.25 28.65 27.75 28.75 28.3
L 28.75 28.35
Q 28.8 30.35 28.9 32.35
L 28.9 32.4
Q 28.8 33.55 28.8 34.8 28.65 36.35 28.5 37.9 28.45 38 28.5 38.25 28.3451171875 39.6443359375 28.1 41.05 27.7736328125 42.8166015625 27.3 44.6 26.65 47 25.85 49.45 25.55 50 25.4 50.65 25.1 51.2 24.95 51.95 24.5 53 24.05 54.05 24.65 54.45 25.2 54.95 25.7 55.35 26.35 55.9
L 26.45 55.95
Q 26.8 56.25 27.3 56.7 28.45 57.65 29.7 58.75 30.35 59.35 31.15 60.05 31.45 60.35 31.85 60.6 32.15 60.85 32.4 61.2 33 61.65 33.6 62.25 33.85 62.45 34.05 62.7 35.1 63.7 36.2 64.75 37.2 65.8 38.35 66.95 38.608984375 67.208984375 38.95 67.55 38.9837890625 67.612109375 39 67.65 39.1064453125 67.7470703125 39.2 67.85 39.3 67.95 39.5 68.2 39.8 68.45 40.2 68.85
L 40.35 69.05
Q 41.05 69.85 41.8 70.65 41.95 70.85 42.25 71.15 43.63515625 72.74296875 45 74.35 45.63515625 75.0775390625 46.25 75.8 49.7 73.7 52.5 71.15 54.05 69.65 55.4 68.2 55.45 68 55.7 67.9 55.776953125 67.7716796875 55.85 67.65 56.023046875 67.4326171875 56.2 67.2 56.321484375 67.1140625 56.45 67 57.1361328125 66.056640625 57.75 65.15 57.8931640625 64.9994140625 58 64.85 58.8 63.65 59.55 62.4 60.1 61.3 60.65 60.2 60.87109375 59.72109375 61.1 59.25 61.2080078125 59.07109375 61.3 58.9 61.6 58.1 61.9 57.35 61.909375 57.325 61.9 57.3 61.94296875 57.25 61.95 57.2 62.078125 56.875 62.2 56.55 62.25 56.3 62.35 56.25 62.35 55.95 62.5 55.85 62.651953125 55.1658203125 62.8 54.5 62.97734375 53.8919921875 63.15 53.3 63.26015625 52.89609375 63.35 52.5 63.425390625 52.309375 63.45 52.1 63.5376953125 51.8966796875 63.6 51.65 63.6533203125 51.4607421875 63.7 51.25 63.7296875 51.1748046875 63.75 51.1 63.7 51.1 63.7 51.05
L 63.65 51
Q 63.8 50.3 64.05 49.7 63.8 49.2 63.65 48.9 63.5 48.6 63.5 48.35 63.3 47.85 63.1 47.35
L 57.6 35.05 57.7 35.05 58.25 28.1
Q 58.25 27.85 58.35 27.7 58.2 27.55 58.25 27.55 58.1833984375 27.1166015625 58 26.75 57.95 26.5666015625 57.85 26.4 57.6 26.05 57.4 25.75 57 25.25 56.65 24.85 54.8 23 51.2 22.1 50.1 21.75 48.95 21.55 48.75 21.55 48.45 21.55 47.55 21.5 46.7 21.55 45.65 21.55 44.55 21.6
M 52.35 34.25
Q 52.9173828125 35.1287109375 53.4 35.95 56.3392578125 41.063671875 55.65 43.95 55.15 45.6 51.1 46.15 38.55 46.75 36.1 38.8 35.7595703125 37.3087890625 35.55 35.95 34.766015625 30.1357421875 36.75 26.75 37.6984375 25.1177734375 39.3 24.05 42.160546875 22.5427734375 46.45 26.75 49.1173828125 29.38203125 52.35 34.25
M 32.65 49.4
Q 32.7908203125 49.099609375 32.9 48.8 33.5314453125 47.518359375 34.1 46.3
L 42.15 50.25 47.35 50.15
Q 47.2314453125 50.34765625 47.1 50.55 47.0814453125 50.637109375 47.05 50.7 46.6 51.5 46.25 52.3 46 52.45 45.95 52.7 44.7 54.65 43.05 56.45 42.87265625 56.6529296875 42.7 56.85 42.548046875 57.027734375 42.4 57.2 42.3443359375 57.2501953125 42.3 57.3 41.9173828125 57.7201171875 41.5 58.1 41.2166015625 58.469140625 40.9 58.8 40.1 59.55 39.3 60.35 39.123046875 60.1927734375 38.95 60 38.2427734375 59.4025390625 37.6 58.8 37.1 58.3 36.65 57.9 36.4 57.7 36.25 57.6 36.083984375 57.444921875 35.9 57.3 35.378125 56.7892578125 34.95 56.4 34.899609375 56.3640625 34.85 56.3 34.2103515625 55.867578125 33.7 55.45 33.45 55.2 33.25 55.1 33 54.85 32.85 54.7 31.7 53.8 30.6 52.9 31.7 51.1 32.65 49.4
M 53.75 55.3
Q 53.85 55.35 53.9 55.55 54 55.65 54.05 55.75 54.45 56.1 54.95 56.5 55.3103515625 56.8455078125 55.65 57.2 55.701953125 57.25 55.75 57.3 56.526953125 58.0783203125 57.25 58.9
L 57.3 58.95
Q 57.1548828125 59.240234375 57 59.5 56.270703125 60.948828125 55.4 62.4 54.6 63.6 53.6 64.85 53.4779296875 65.00078125 53.35 65.15 53.1310546875 65.41484375 52.9 65.65 52.3515625 66.318359375 51.75 66.95 51.3765625 67.2861328125 51.05 67.65 50.988671875 67.7734375 50.9 67.9 50.65 67.95 50.5 68.2 49.55 69.05 48.45 69.95 47.7 69.05 46.95 68.2 46.75 67.95 46.6 67.85 46.55 67.75 46.55 67.7 46.5189453125 67.67421875 46.5 67.65 46.2396484375 67.4396484375 46.15 67.35 45.95 67.05 45.85 66.95 45.2 66.2 44.6 65.55 44.15 65.25 43.85 64.75 43 63.9 42.15 63.05 42.55 62.65 43 62.3 43.796875 61.428515625 44.55 60.55 45.371875 59.7033203125 46.15 58.85 46.403125 58.5123046875 46.65 58.15 46.98984375 57.7373046875 47.3 57.3 47.3609375 57.25 47.4 57.2 47.572265625 56.9595703125 47.75 56.7 47.8490234375 56.5845703125 47.95 56.45 48.3 55.85 48.75 55.25 48.8 55.1 48.95 55.1 49.25 54.45 49.65 53.95 50.1 53.2 50.5 52.5 52.05 53.8 53.7 55.25
L 53.75 55.3 Z"/>

<path fill="#0E0E0E" stroke="none" d="
M 53.1 59.35
Q 53.1560546875 59.3126953125 53.2 59.25
L 48.75 55.25
Q 48.3 55.85 47.95 56.45 47.8490234375 56.5845703125 47.75 56.7 47.572265625 56.9595703125 47.4 57.2 47.3609375 57.25 47.3 57.3 46.98984375 57.7373046875 46.65 58.15 46.403125 58.5123046875 46.15 58.85 45.371875 59.7033203125 44.55 60.55 43.796875 61.428515625 43 62.3 42.55 62.65 42.15 63.05 43 63.9 43.85 64.75 44.15 65.25 44.6 65.55 45.2 66.2 45.85 66.95 45.95 67.05 46.15 67.35 47.2951171875 66.2763671875 48.35 65.15 48.968359375 64.50859375 49.55 63.85 51.4689453125 61.703125 53.1 59.35
M 32.9 48.8
Q 32.7908203125 49.099609375 32.65 49.4 31.7 51.1 30.6 52.9 31.7 53.8 32.85 54.7 33 54.85 33.25 55.1 33.45 55.2 33.7 55.45 34.2103515625 55.867578125 34.85 56.3 34.899609375 56.3640625 34.95 56.4 35.378125 56.7892578125 35.9 57.3 36.083984375 57.444921875 36.25 57.6 36.4220703125 57.451171875 36.6 57.3 37.6353515625 56.3724609375 38.55 55.35 40.6814453125 53.0203125 42.15 50.25
L 34.1 46.3
Q 33.5314453125 47.518359375 32.9 48.8 Z"/>

<path fill="#FFEA54" stroke="none" d="
M 43.5 15.6
Q 43.4490234375 14.86796875 43.35 14.15 42.437109375 8.1990234375 37.55 3.25 36.6625 2.3599609375 35.65 1.5 37.35 7.6 36.85 13.2 37.12734375 13.65546875 37.35 14.15 37.752734375 14.87109375 38.05 15.65 38.085546875 15.7134765625 38.1 15.75 38.25 16.15 38.45 16.6 38.55 16.95 38.65 17.3
L 32.45 17.15
Q 32.2623046875 16.390625 30.9 14.15 30.8208984375 14.039453125 30.75 13.9 29.2416015625 11.4880859375 26.65 9.2 25.6443359375 8.28359375 24.8 7.6 23.543359375 6.6501953125 22.7 6.25
L 26.55 15.25
Q 23.15 15 19.55 14.7 18.1240234375 14.5525390625 16.65 14.4
L 16.6 14.4 16.65 14.4 28.2 17.55
Q 28.7263671875 17.5970703125 29.25 17.65 31.6255859375 17.8361328125 33.95 17.95 34.37578125 17.98046875 34.8 18 36.25 18.05 37.75 18.1 40.9 18.2 44.1 18.05 43.8607421875 17.691015625 43.6 17.3 43.5607421875 17.201171875 43.5 17.1 43.5 16.35 43.5 15.6 Z"/>

<path fill="#8AEDFF" stroke="none" d="
M 70.45 18.2
Q 70.2755859375 17.7349609375 70.1 17.3 69.8642578125 16.6125 69.65 16 69.45 16.45 69.35 17.05
L 68.6 31.6 69.95 33.4 73.5 29.05
Q 73.4 28.9 73.5 28.75 73.221484375 27.728515625 73.05 26.75 73.0607421875 26.6748046875 73.05 26.6 72.25 23.4 71.35 20.6 71.15 19.95 71 19.5 70.85 19.2 70.75 18.95 70.6 18.55 70.45 18.2 Z"/>

<path fill="#33B9D0" stroke="none" d="
M 69.05 18.1
Q 69.125390625 17.6857421875 69.25 17.3 69.3005859375 17.1734375 69.35 17.05 69.45 16.45 69.65 16 69.45 16.2 69.35 16.4
L 68.6 17.55
Q 68.45 17.6 68.3 18.1 68.1 18.4 67.95 18.9 67.8 19.15 67.75 19.45 67.45 19.9 67.2 20.55 67.15 20.7 67.15 20.8 67.0111328125 21.103125 66.85 21.4 66.4990234375 22.341015625 66.2 23.35 66.05 23.75 65.9 24.25 65.6 25.35 65.35 26.5 65.3138671875 26.6205078125 65.25 26.75 65.2 27.1568359375 65.2 27.65 64.9 28.6 64.9 29.6 64.4501953125 32.6130859375 64.5 35.95 64.5349609375 36.3228515625 64.55 36.7 64.55 37.3 64.65 38
L 67.2 36.65 67.2 36.55
Q 67.18671875 36.246484375 67.15 35.95 67.15 35.1228515625 67.15 34.35 67.15 33 67.2 31.75 67.2 31.05 67.3 30.5 67.3 29 67.45 27.7 67.490234375 27.1763671875 67.55 26.75 67.5806640625 26.6470703125 67.6 26.55 67.75 24.65 68.1 23 68.25 21.7 68.55 20.55 68.5693359375 20.337109375 68.6 20.1 68.6580078125 19.787109375 68.75 19.45 68.85 19.15 68.9 18.9 69 18.5 69.05 18.1 Z"/>

<path fill="#FFE212" stroke="none" d="
M 67.75 13.05
Q 67.05 13.2 66.45 13.5 65.2 13.95 63.95 14.45 63.8076171875 14.5017578125 63.65 14.55 63.2576171875 14.6888671875 62.85 14.8 61.6 15.2 60.35 15.55 58.75 16 57.1 16.4 54.6337890625 16.8931640625 52.1 17.3 51.3080078125 17.4294921875 50.5 17.55 49.2 17.6 47.95 17.8 46 17.95 44.1 18.05 44.15 18.3 44.4 18.5 44.55 18.75 44.8 19.05 44.95 19.25 45.15 19.5 45.303125 19.6916015625 45.5 20 52.3654296875 19.8693359375 59.1 20.4 63.5845703125 21.318359375 63.1 26.75 63.11015625 26.8494140625 63.1 26.95
L 61.95 35.05
Q 62.2 35.2 62.65 35.45 63.0390625 35.695703125 63.4 35.95 63.9890625 36.3162109375 64.55 36.7 64.5349609375 36.3228515625 64.5 35.95 64.4501953125 32.6130859375 64.9 29.6 64.9 28.6 65.2 27.65 65.2 27.1568359375 65.25 26.75 65.3138671875 26.6205078125 65.35 26.5 65.6 25.35 65.9 24.25 66.05 23.75 66.2 23.35 66.4990234375 22.341015625 66.85 21.4 67.0111328125 21.103125 67.15 20.8 67.15 20.7 67.2 20.55 67.45 19.9 67.75 19.45 67.8 19.15 67.95 18.9 68.1 18.4 68.3 18.1 68.45 17.6 68.6 17.55 68.64453125 17.4162109375 68.65 17.3 68.8322265625 16.7642578125 68.75 16.6 68.6966796875 16.4130859375 68.65 16.2 68.3966796875 15.380859375 68.15 14.6 67.9 13.8 67.75 13.05 Z"/>

<path fill="#3C1400" stroke="none" d="
M 69.5 14.15
Q 69.248046875 13.437890625 69.15 12.8
L 68.9 11.65 60.35 11.8 60.15 11.85
Q 59.75 11.95 59.35 12.05 51.5203125 2.8078125 40.9 0.7 39.862109375 0.4888671875 38.75 0.35 37.262109375 0.1560546875 35.7 0.1
L 33.8 0 34.3 1.9
Q 35.35 5.6 35.55 9.15 31.4845703125 5.0845703125 24.8 4.8 24.3314453125 4.812109375 23.85 4.8 23.259765625 4.8203125 22.65 4.85
L 20.6 4.9 24.4 13.7
Q 22.1 13.5 19.7 13.3 18.975 13.225 18.25 13.15 17.5 13.075 16.75 13
L 14.9 12.85 16.6 22.3 18.6 22.8 18.6 22.85 20.1 23.35
Q 19.944140625 22.4314453125 19.7 21.65
L 17.8 21.15 16.6 14.4 16.65 14.4
Q 18.1240234375 14.5525390625 19.55 14.7 23.15 15 26.55 15.25
L 22.7 6.25
Q 23.7833984375 6.1947265625 24.8 6.2
L 24.8 6.2
Q 32.9857421875 6.58203125 36.85 13.2 37.35 7.6 35.65 1.5 37.674609375 1.5736328125 39.6 1.9 49.876171875 3.5669921875 57.5 12.05 58.191015625 12.8376953125 58.85 13.65 59.7 13.4 60.5 13.2
L 67.75 13.05
Q 67.9 13.8 68.15 14.6 68.3966796875 15.380859375 68.65 16.2
L 69.5 14.15 Z"/>

<path fill="#103C43" stroke="none" d="
M 69.5 14.15
L 69.5 14.15 68.65 16.2
Q 68.6966796875 16.4130859375 68.75 16.6 68.8322265625 16.7642578125 68.65 17.3 68.64453125 17.4162109375 68.6 17.55
L 69.35 16.4
Q 69.45 16.2 69.65 16 69.8642578125 16.6125 70.1 17.3 70.2755859375 17.7349609375 70.45 18.2 70.6 18.55 70.75 18.95 70.85 19.2 71 19.5 71.15 19.95 71.35 20.6 72.25 23.4 73.05 26.6 73.0607421875 26.6748046875 73.05 26.75 73.221484375 27.728515625 73.5 28.75 73.4 28.9 73.5 29.05 74.177734375 32.36328125 74.55 35.95 74.5728515625 36.23671875 74.6 36.5 74.6845703125 37.434375 74.75 38.35 74.75 38.5 74.8 38.8
L 73.1 42.05 70.1 47.85 69.25 46.4 68.95 47 68.95 47.05
Q 68.85 47.4 68.7 47.7
L 69.35 49.3 69.35 49.35 70.2 50.75 76.25 39.05 76.2 38.6
Q 76.15 38.45 76.15 38.35
L 76.15 38.25
Q 75.8 33.25 74.9 28.8
L 74.85 28.5 74.85 28.4
Q 74.6046875 27.5416015625 74.5 26.75 74.4681640625 26.5732421875 74.45 26.4
L 74.45 26.35 74.4 26.25
Q 73.6 23 72.7 20.2 72.5 19.5 72.35 19.05
L 72.3 19 72.25 18.9
Q 72.15 18.65 72.05 18.45 71.9 18.05 71.75 17.7
L 71.75 17.65
Q 71.68046875 17.4724609375 71.6 17.3 71.2537109375 16.3533203125 71 15.55
L 70.25 13.45 69.5 14.15 Z"/>
</g>

<g id="_____________________________________258_0_Layer0_0_FILL">
<path fill="#FFF6BB" stroke="none" d="
M 57.5 12.05
Q 49.876171875 3.5669921875 39.6 1.9 45.4529296875 11.909765625 57.5 12.05
M 3.3 42.6
L 2 42.35 5.4 45.1 5.45 45.1 9.1 46.6 9.15 46.55
Q 9.1 46.5 9 46.55
L 7.55 43.3 3.3 42.6
M 12.1 28.4
L 11.9 28.4 4.15 26.5 4.8 28.75 8.1 32.7 10.65 30 12.1 28.4
M 36.85 13.2
Q 32.9857421875 6.58203125 24.8 6.2 29.5048828125 12.1365234375 36.85 13.2
M 41.2 21.85
Q 42.9 21.65 44.55 21.6 45.65 21.55 46.7 21.55 47.55 21.5 48.45 21.55 48.75 21.55 48.95 21.55 50 21.55 51.2 21.65 54.9 21.9 58.35 22.7 58.7 22.8 59.25 23 59.6 23.15 59.95 23.35 62.55 24.65 63 26.5 62.968359375 26.594921875 62.95 26.75 62.981640625 26.83984375 63 26.95
L 63.1 26.95
Q 63.11015625 26.8494140625 63.1 26.75 63.5845703125 21.318359375 59.1 20.4 52.3654296875 19.8693359375 45.5 20 39.77578125 20.163671875 33.95 20.75 31.6064453125 21.0357421875 29.25 21.35 29.125 21.382421875 29 21.4
L 29.55 24.05
Q 29.5646484375 24.044921875 29.55 24.05 30.7166015625 23.646875 32 23.4 32.975 23.1419921875 33.95 22.95 34.675 22.8640625 35.4 22.8 36.5 22.55 37.55 22.35 37.9 22.25 38.25 22.2 38.4 22.15 38.55 22.15 38.85 22.1 39.15 22.1 40.15 21.95 41.2 21.85
M 66.45 13.5
Q 67.05 13.2 67.75 13.05
L 60.5 13.2
Q 59.7 13.4 58.85 13.65 59.0646484375 13.8884765625 59.25 14.15 59.5146484375 14.4361328125 59.75 14.75 59.0296875 14.9404296875 58.25 15.1 51.7982421875 16.6513671875 43.5 17.1 43.5607421875 17.201171875 43.6 17.3 43.8607421875 17.691015625 44.1 18.05 46 17.95 47.95 17.8 49.2 17.6 50.5 17.55 51.3080078125 17.4294921875 52.1 17.3 54.6337890625 16.8931640625 57.1 16.4 58.75 16 60.35 15.55 61.6 15.2 62.85 14.8 63.2576171875 14.6888671875 63.65 14.55 63.8076171875 14.5017578125 63.95 14.45 65.2 13.95 66.45 13.5 Z"/>

<path fill="#BECCD7" stroke="none" d="
M 56.45 67
Q 57.1361328125 66.056640625 57.75 65.15 57.8931640625 64.9994140625 58 64.85 58.8 63.65 59.55 62.4 60.1 61.3 60.65 60.2 60.87109375 59.72109375 61.1 59.25 59.0576171875 59.5021484375 57 59.5 56.270703125 60.948828125 55.4 62.4 54.6 63.6 53.6 64.85 53.4779296875 65.00078125 53.35 65.15 53.1310546875 65.41484375 52.9 65.65 54.512890625 66.4990234375 56.2 67.2 56.321484375 67.1140625 56.45 67
M 41.5 58.1
Q 43.007421875 59.4013671875 44.55 60.55 45.371875 59.7033203125 46.15 58.85 46.403125 58.5123046875 46.65 58.15 44.675 57.6244140625 42.7 56.85 42.548046875 57.027734375 42.4 57.2 42.3443359375 57.2501953125 42.3 57.3 41.9173828125 57.7201171875 41.5 58.1
M 43.8 22.95
Q 43.7384765625 22.9908203125 43.65 23 45.6283203125 24.2669921875 47.9 26.75 50.7453125 29.851171875 54.05 34.85 54.4123046875 35.4091796875 54.75 35.95 55.6498046875 37.430078125 56.3 38.75 56.380859375 38.884375 56.4 39 58.921484375 43.95546875 58.2 46.95 57.95 47.7 57.15 48.25 55.7 49.25 52.5 49.7 49.2 49.85 46.45 49.55 46.85 49.8 47.25 50.1
L 47.35 50.15
Q 47.2314453125 50.34765625 47.1 50.55 47.8587890625 50.9283203125 48.6 51.25 55.323828125 54.163671875 62.8 54.5 62.97734375 53.8919921875 63.15 53.3 63.26015625 52.89609375 63.35 52.5 63.425390625 52.309375 63.45 52.1 63.5376953125 51.8966796875 63.6 51.65 63.6533203125 51.4607421875 63.7 51.25 63.7296875 51.1748046875 63.75 51.1 63.7 51.1 63.7 51.05
L 63.6 51
Q 63.45 50.65 63.35 50.45 63.0328125 49.6794921875 62.75 49 62.728125 48.9654296875 62.7 48.9 62.2 47.9 61.7 47.05 61.4 46.6 61.15 46.15 61 45.9 60.85 45.7
L 55.6 35.8 56.65 25.3
Q 54.15 24 51.4 23.4 49.1 22.9 46.55 22.9 45.1884765625 22.853125 43.8 22.95 Z"/>

<path fill="#0E0E0E" stroke="none" d="
M 53.1 59.35
Q 53.1560546875 59.3126953125 53.2 59.25
L 48.75 55.25
Q 48.3 55.85 47.95 56.45 47.8490234375 56.5845703125 47.75 56.7 47.572265625 56.9595703125 47.4 57.2 47.3609375 57.25 47.3 57.3 46.98984375 57.7373046875 46.65 58.15 46.403125 58.5123046875 46.15 58.85 45.371875 59.7033203125 44.55 60.55 43.796875 61.428515625 43 62.3 42.55 62.65 42.15 63.05 43 63.9 43.85 64.75 44.15 65.25 44.6 65.55 45.2 66.2 45.85 66.95 45.95 67.05 46.15 67.35 47.2951171875 66.2763671875 48.35 65.15 48.968359375 64.50859375 49.55 63.85 51.4689453125 61.703125 53.1 59.35
M 34.1 46.3
Q 33.5314453125 47.518359375 32.9 48.8 32.7908203125 49.099609375 32.65 49.4 31.7 51.1 30.6 52.9 31.7 53.8 32.85 54.7 33 54.85 33.25 55.1 33.45 55.2 33.7 55.45 34.2103515625 55.867578125 34.85 56.3 34.899609375 56.3640625 34.95 56.4 35.378125 56.7892578125 35.9 57.3 36.083984375 57.444921875 36.25 57.6 36.4220703125 57.451171875 36.6 57.3 37.6353515625 56.3724609375 38.55 55.35 40.6814453125 53.0203125 42.15 50.25
L 34.1 46.3 Z"/>

<path fill="#333A4D" stroke="none" d="
M 53.2 59.25
Q 53.1560546875 59.3126953125 53.1 59.35 51.4689453125 61.703125 49.55 63.85 48.968359375 64.50859375 48.35 65.15 47.2951171875 66.2763671875 46.15 67.35 46.2396484375 67.4396484375 46.5 67.65 46.5189453125 67.67421875 46.55 67.7 46.55 67.75 46.6 67.85 46.75 67.95 46.95 68.2 47.7 69.05 48.45 69.95 49.55 69.05 50.5 68.2 50.65 67.95 50.9 67.9 50.988671875 67.7734375 51.05 67.65 51.3765625 67.2861328125 51.75 66.95 52.3515625 66.318359375 52.9 65.65 53.1310546875 65.41484375 53.35 65.15 53.4779296875 65.00078125 53.6 64.85 54.6 63.6 55.4 62.4 56.270703125 60.948828125 57 59.5 57.1548828125 59.240234375 57.3 58.95
L 57.25 58.9 53.2 59.25
M 36.6 57.3
Q 36.4220703125 57.451171875 36.25 57.6 36.4 57.7 36.65 57.9 37.1 58.3 37.6 58.8 38.2427734375 59.4025390625 38.95 60 39.123046875 60.1927734375 39.3 60.35 40.1 59.55 40.9 58.8 41.2166015625 58.469140625 41.5 58.1 41.9173828125 57.7201171875 42.3 57.3 42.3443359375 57.2501953125 42.4 57.2 42.548046875 57.027734375 42.7 56.85 42.87265625 56.6529296875 43.05 56.45 44.7 54.65 45.95 52.7 46 52.45 46.25 52.3 46.6 51.5 47.05 50.7 47.0814453125 50.637109375 47.1 50.55 47.2314453125 50.34765625 47.35 50.15
L 42.15 50.25
Q 40.6814453125 53.0203125 38.55 55.35 37.6353515625 56.3724609375 36.6 57.3
M 31.85 60.6
Q 31.45 60.35 31.15 60.05 30.35 59.35 29.7 58.75 28.45 57.65 27.3 56.7 26.8 56.25 26.45 55.95
L 26.35 55.9
Q 25.7 55.35 25.2 54.95 24.65 54.45 24.05 54.05
L 16.75 50.35
Q 16.75 50.4 17 50.6 17.2068359375 50.8240234375 17.4 51.05 19.645703125 53.445703125 22.25 56.05 22.75 56.55 23.35 57.15 24.05 57.9 24.95 58.75 25.25 59 25.65 59.4 26.2 59.95 26.9 60.55 27.2 60.8 27.45 61.15 28.05 61.7 28.65 62.25 30 63.45 31.45 64.75 31.55 64.9 31.7 65 32.65 65.9 33.85 66.95 34.1 67.2 34.55 67.6
L 34.65 67.6
Q 34.7 67.6 34.85 67.85 34.95 67.95 35.25 68.15 35.65 68.55 36.2 69 36.95 69.6 37.8 70.35 38.2 70.7 38.7 71.15 39.65 71.95 40.75 72.85 42.45 74.25 44.25 75.7
L 46.25 75.8
Q 45.63515625 75.0775390625 45 74.35 43.63515625 72.74296875 42.25 71.15 41.95 70.85 41.8 70.65 41.05 69.85 40.35 69.05
L 40.2 68.85
Q 39.8 68.45 39.5 68.2 39.3 67.95 39.2 67.85 39.1064453125 67.7470703125 39 67.65 38.9837890625 67.612109375 38.95 67.55 38.608984375 67.208984375 38.35 66.95 37.2 65.8 36.2 64.75 35.1 63.7 34.05 62.7 33.85 62.45 33.6 62.25 33 61.65 32.4 61.2 32.15 60.85 31.85 60.6
M 18.6 35.35
Q 18.2224609375 35.3689453125 17.85 35.4 16.65 35.4 16 35.4
L 15.55 35.4
Q 15.490625 35.3919921875 15.4 35.35
L 14.75 40.5
Q 16.2724609375 40.54765625 18.6 40.55 18.77265625 40.55 18.95 40.55
L 19.95 40.5
Q 20.35 40.5 20.8 40.45
L 21.65 35.2
Q 20.95 35.2 20.3 35.25 19.4380859375 35.2845703125 18.6 35.35 Z"/>

<path fill="#566382" stroke="none" d="
M 53.9 55.55
Q 53.85 55.35 53.75 55.3
L 53.7 55.25
Q 52.05 53.8 50.5 52.5 50.1 53.2 49.65 53.95 49.25 54.45 48.95 55.1 48.8 55.1 48.75 55.25
L 53.2 59.25 57.25 58.9
Q 56.526953125 58.0783203125 55.75 57.3 55.701953125 57.25 55.65 57.2 55.3103515625 56.8455078125 54.95 56.5 54.45 56.1 54.05 55.75 54 55.65 53.9 55.55
M 20.55 28.7
Q 20.6 28.7 20.7 28.7 20.6 28.45 20.6 28.2 20.553125 28.059375 20.55 27.9 20.55 28.059375 20.55 28.2 20.55 28.45 20.55 28.7
M 17.95 46.5
Q 17.7 47 17.55 47.75 17.2 49 16.75 50.35
L 24.05 54.05
Q 24.5 53 24.95 51.95 25.1 51.2 25.4 50.65 25.55 50 25.85 49.45 26.65 47 27.3 44.6 26.05 42.85 25.05 41.15 24.65 40.5 24.35 40 24 43 23.4 46.1 21.7474609375 46.21796875 20.15 46.3 19.36796875 46.390234375 18.6 46.45 18.2736328125 46.4755859375 17.95 46.5
M 18.95 40.55
Q 18.77265625 40.55 18.6 40.55 16.2724609375 40.54765625 14.75 40.5
L 14.4 43.6
Q 17.0748046875 43.5484375 18.6 43.45 18.6765625 43.4544921875 18.75 43.45 19.55 43.4 20.4 43.4
L 20.8 40.55
Q 21.1375 40.5125 21.5 40.5
L 20.8 40.5 20.8 40.45
Q 20.35 40.5 19.95 40.5
L 18.95 40.55
M 57.15 48.25
Q 56 48.6 54.35 48.85 51.05 49 48.3 48.7 42.67421875 48.0234375 39.4 45.35 38.085546875 44.2962890625 37.15 42.9 36.6689453125 42.165625 36.3 41.35 35.921484375 40.5638671875 35.65 39.7 35.198046875 37.73203125 34.95 35.95 34.22890625 30.46875 35.5 26.75 35.9552734375 25.5302734375 36.6 24.5 36.7458984375 24.26953125 36.9 24.05 36.1 24.15 35.45 24.3 34.565234375 25.3953125 33.95 26.75 31.787109375 31.827734375 33.8 40.55 34.2125 41.8625 34.85 43 35.0625 43.3875 35.3 43.75 35.0607421875 44.1751953125 34.85 44.6 34.6640625 45.0283203125 34.5 45.45 34.4 45.5 34.5 45.65 34.4 45.75 34.35 45.9 34.35 45.95 34.25 46.1 34.1 46.15 34.1 46.3
L 42.15 50.25 47.35 50.15 47.25 50.1
Q 46.85 49.8 46.45 49.55 49.2 49.85 52.5 49.7 55.7 49.25 57.15 48.25 Z"/>

<path fill="#D6E6F3" stroke="none" d="
M 62.35 56.25
Q 62.35 55.95 62.5 55.85 62.651953125 55.1658203125 62.8 54.5 55.323828125 54.163671875 48.6 51.25 47.8587890625 50.9283203125 47.1 50.55 47.0814453125 50.637109375 47.05 50.7 46.6 51.5 46.25 52.3 46 52.45 45.95 52.7 44.7 54.65 43.05 56.45 42.87265625 56.6529296875 42.7 56.85 44.675 57.6244140625 46.65 58.15 46.98984375 57.7373046875 47.3 57.3 47.3609375 57.25 47.4 57.2 47.572265625 56.9595703125 47.75 56.7 47.8490234375 56.5845703125 47.95 56.45 48.3 55.85 48.75 55.25 48.8 55.1 48.95 55.1 49.25 54.45 49.65 53.95 50.1 53.2 50.5 52.5 52.05 53.8 53.7 55.25
L 53.75 55.3
Q 53.85 55.35 53.9 55.55 54 55.65 54.05 55.75 54.45 56.1 54.95 56.5 55.3103515625 56.8455078125 55.65 57.2 55.701953125 57.25 55.75 57.3 56.526953125 58.0783203125 57.25 58.9
L 57.3 58.95
Q 57.1548828125 59.240234375 57 59.5 59.0576171875 59.5021484375 61.1 59.25 61.2080078125 59.07109375 61.3 58.9 61.6 58.1 61.9 57.35 61.909375 57.325 61.9 57.3 61.94296875 57.25 61.95 57.2 62.078125 56.875 62.2 56.55 62.25 56.3 62.35 56.25
M 27.3 44.6
Q 26.65 47 25.85 49.45 25.55 50 25.4 50.65 25.1 51.2 24.95 51.95 24.5 53 24.05 54.05 24.65 54.45 25.2 54.95 25.7 55.35 26.35 55.9
L 26.45 55.95
Q 26.8 56.25 27.3 56.7 28.45 57.65 29.7 58.75 30.35 59.35 31.15 60.05 31.45 60.35 31.85 60.6 32.15 60.85 32.4 61.2 33 61.65 33.6 62.25 33.85 62.45 34.05 62.7 35.1 63.7 36.2 64.75 37.2 65.8 38.35 66.95 38.608984375 67.208984375 38.95 67.55 38.9837890625 67.612109375 39 67.65 39.1064453125 67.7470703125 39.2 67.85 39.3 67.95 39.5 68.2 39.8 68.45 40.2 68.85
L 40.35 69.05
Q 41.05 69.85 41.8 70.65 41.95 70.85 42.25 71.15 43.63515625 72.74296875 45 74.35 45.63515625 75.0775390625 46.25 75.8 49.7 73.7 52.5 71.15 54.05 69.65 55.4 68.2 55.45 68 55.7 67.9 55.776953125 67.7716796875 55.85 67.65 56.023046875 67.4326171875 56.2 67.2 54.512890625 66.4990234375 52.9 65.65 52.3515625 66.318359375 51.75 66.95 51.3765625 67.2861328125 51.05 67.65 50.988671875 67.7734375 50.9 67.9 50.65 67.95 50.5 68.2 49.55 69.05 48.45 69.95 47.7 69.05 46.95 68.2 46.75 67.95 46.6 67.85 46.55 67.75 46.55 67.7 46.5189453125 67.67421875 46.5 67.65 46.2396484375 67.4396484375 46.15 67.35 45.95 67.05 45.85 66.95 45.2 66.2 44.6 65.55 44.15 65.25 43.85 64.75 43 63.9 42.15 63.05 42.55 62.65 43 62.3 43.796875 61.428515625 44.55 60.55 43.007421875 59.4013671875 41.5 58.1 41.2166015625 58.469140625 40.9 58.8 40.1 59.55 39.3 60.35 39.123046875 60.1927734375 38.95 60 38.2427734375 59.4025390625 37.6 58.8 37.1 58.3 36.65 57.9 36.4 57.7 36.25 57.6 36.083984375 57.444921875 35.9 57.3 35.378125 56.7892578125 34.95 56.4 34.899609375 56.3640625 34.85 56.3 34.2103515625 55.867578125 33.7 55.45 33.45 55.2 33.25 55.1 33 54.85 32.85 54.7 31.7 53.8 30.6 52.9 31.7 51.1 32.65 49.4 32.7908203125 49.099609375 32.9 48.8 30.2849609375 45.1912109375 28.1 41.05 27.7736328125 42.8166015625 27.3 44.6
M 57.15 48.25
Q 57.95 47.7 58.2 46.95 58.921484375 43.95546875 56.4 39 58.709765625 44.21015625 56.7 46 47.1521484375 50.6470703125 36.3 41.35 36.6689453125 42.165625 37.15 42.9 38.085546875 44.2962890625 39.4 45.35 42.67421875 48.0234375 48.3 48.7 51.05 49 54.35 48.85 56 48.6 57.15 48.25 Z"/>

<path fill="#984606" stroke="none" d="
M 63.5 52.15
L 63.45 52.1
Q 63.425390625 52.309375 63.35 52.5
L 63.4 52.5
Q 63.4 52.3 63.5 52.15
M 29 21.4
L 28.2 17.55 16.65 14.4 19.1 20.25 29.25 23.95 29.55 24.05 29 21.4
M 26.65 9.2
Q 25.6443359375 8.28359375 24.8 7.6 23.543359375 6.6501953125 22.7 6.25
L 26.55 15.25 26.9 16.1 32.35 17.15 32.45 17.15
Q 32.2623046875 16.390625 30.9 14.15 30.8208984375 14.039453125 30.75 13.9 29.2416015625 11.4880859375 26.65 9.2
M 68.95 47
Q 68.95 46.9 69 46.85 69 46.7 69.1 46.55 69.15 46.4 69.2 46.3 69 46.65 68.9 47.05 68.75 47.15 68.75 47.4 68.4 48.15 68.1 48.95 68.25 48.6 68.4 48.25 68.55 48 68.7 47.7 68.85 47.4 68.95 47.05
L 68.95 47
M 57.7 35.05
L 57.6 35.05 63.1 47.35
Q 63.3 47.85 63.5 48.35
L 65.5 52.9
Q 65.58828125 52.5912109375 65.8 52.45
L 65.85 52.45 65.85 52.4
Q 65.908203125 52.4 65.95 52.4 66.0158203125 52.246484375 66.1 52.1 66.2095703125 51.9185546875 66.35 51.75 66.35 51.7 66.4 51.65 66.44765625 51.570703125 66.5 51.5 66.59296875 51.366015625 66.7 51.25 66.725390625 51.224609375 66.75 51.2 66.75 51.05 66.85 51.05
L 66.85 51 66.85 50.9 66.9 50.85
Q 66.95 50.75 67.05 50.7 67.051171875 50.65 67.1 50.65 67.15 50.65 67.15 50.6 67.05 50.55 67.05 50.65 67 50.35 67 50.25 66.75 49.5 66.7 48.95 66.45 48 66.4 47.4 66.25 47.15 66.25 47.05 65.45 44.65 64.5 42.6
L 61.95 35.1 57.7 35.05 Z"/>

<path fill="#8093C2" stroke="none" d="
M 28.65 26.95
Q 28.5 26.25 28.5 25.65
L 20.1 23.4
Q 20.147265625 24.205078125 20.35 25.1 20.38671875 25.1498046875 20.4 25.2 20.4 26.1 20.55 27.1 20.45 27.45 20.55 27.8
L 20.55 27.9
Q 20.553125 28.059375 20.6 28.2 20.6 28.45 20.7 28.7 21.05 28.65 21.5 28.65
L 24.8 30.35
Q 24.9 35.3 24.35 40 24.65 40.5 25.05 41.15 26.05 42.85 27.3 44.6 27.7736328125 42.8166015625 28.1 41.05 28.3451171875 39.6443359375 28.5 38.25 28.45 38 28.5 37.9 28.65 36.35 28.8 34.8 28.8 33.55 28.9 32.4
L 28.9 32.35
Q 28.8 30.35 28.75 28.35
L 28.75 28.3
Q 28.65 27.75 28.65 27.25 28.65 27.05 28.65 26.95 Z"/>

<path fill="#FF9B20" stroke="none" d="
M 9.1 46.6
L 5.45 45.1 3.75 47.85 9.1 46.6
M 4.8 28.75
L 2.15 29.6 2 33.55 3.6 33.3 8.1 32.7 4.8 28.75
M 61.95 35.05
L 61.95 35.1 64.5 42.6
Q 65.45 44.65 66.25 47.05 66.25 47.15 66.4 47.4 66.45 48 66.7 48.95 66.75 49.5 67 50.25 67 50.35 67.05 50.65 67.05 50.55 67.15 50.6 67.1830078125 50.533984375 67.2 50.45
L 67.5 49.95
Q 67.7513671875 49.4892578125 68 49.05 68.068359375 49.0134765625 68.1 48.95 68.4 48.15 68.75 47.4 68.75 47.15 68.9 47.05 69 46.65 69.2 46.3
L 69 45.9 68.9 45.8 64.65 38
Q 64.55 37.3 64.55 36.7 63.9890625 36.3162109375 63.4 35.95 63.0390625 35.695703125 62.65 35.45 62.2 35.2 61.95 35.05
M 44.4 18.5
Q 44.15 18.3 44.1 18.05 40.9 18.2 37.75 18.1 36.25 18.05 34.8 18 34.37578125 17.98046875 33.95 17.95 31.6255859375 17.8361328125 29.25 17.65 28.7263671875 17.5970703125 28.2 17.55
L 29 21.4
Q 29.125 21.382421875 29.25 21.35 31.6064453125 21.0357421875 33.95 20.75 39.77578125 20.163671875 45.5 20 45.303125 19.6916015625 45.15 19.5 44.95 19.25 44.8 19.05 44.55 18.75 44.4 18.5
M 43.5 15.6
Q 43.4490234375 14.86796875 43.35 14.15 42.437109375 8.1990234375 37.55 3.25 36.6625 2.3599609375 35.65 1.5 37.35 7.6 36.85 13.2 37.12734375 13.65546875 37.35 14.15 37.752734375 14.87109375 38.05 15.65 38.085546875 15.7134765625 38.1 15.75 38.25 16.15 38.45 16.6
L 43.5 17.1
Q 43.5 16.35 43.5 15.6 Z"/>

<path fill="#FFEA54" stroke="none" d="
M 3.7 47.85
L 3.75 47.85 5.45 45.1 5.4 45.1 2 42.35 3.7 47.85
M 4.15 26.5
L 4.05 26.4 2.15 29.6 4.8 28.75 4.15 26.5
M 43.6 17.3
Q 43.5607421875 17.201171875 43.5 17.1
L 38.45 16.6
Q 38.55 16.95 38.65 17.3
L 32.45 17.15 32.35 17.15 26.9 16.1 26.55 15.25
Q 23.15 15 19.55 14.7 18.1240234375 14.5525390625 16.65 14.4
L 16.6 14.4 16.65 14.4 28.2 17.55
Q 28.7263671875 17.5970703125 29.25 17.65 31.6255859375 17.8361328125 33.95 17.95 34.37578125 17.98046875 34.8 18 36.25 18.05 37.75 18.1 40.9 18.2 44.1 18.05 43.8607421875 17.691015625 43.6 17.3 Z"/>

<path fill="#424C64" stroke="none" d="
M 6.95 42.5
Q 8.1 42.65 9.45 42.95 10.675 43.1080078125 11.9 43.3 12.225 43.34765625 12.55 43.4 13.4 43.5 14.2 43.6 14.3068359375 43.5982421875 14.4 43.6
L 14.75 40.5
Q 13.176953125 40.4751953125 12.55 40.4 12.226953125 40.34375 11.9 40.3 11.0630859375 40.14375 10.2 40
L 6.95 42.5 Z"/>

<path fill="#949FA8" stroke="none" d="
M 6.55 41.3
Q 6.65 41.85 6.8 42.5
L 6.95 42.5 10.2 40
Q 9.5 37.3 10.35 34.7 8.5 34.35 6.8 34.05 6 37.65 6.55 41.3 Z"/>

<path fill="#232835" stroke="none" d="
M 12.55 35
Q 12.225 34.9556640625 11.9 34.9 11.125 34.8056640625 10.35 34.7 9.5 37.3 10.2 40 11.0630859375 40.14375 11.9 40.3 12.226953125 40.34375 12.55 40.4 13.176953125 40.4751953125 14.75 40.5
L 15.4 35.35
Q 13.990625 35.1919921875 12.55 35 Z"/>

<path fill="#7485AF" stroke="none" d="
M 18.6 30.6
Q 17.1326171875 30.6564453125 15.65 30.75
L 15.9 31.6 15.4 35.35
Q 15.490625 35.3919921875 15.55 35.4
L 16 35.4
Q 16.65 35.4 17.85 35.4 18.2224609375 35.3689453125 18.6 35.35 19.4380859375 35.2845703125 20.3 35.25 20.95 35.2 21.65 35.2
L 20.8 40.45 20.8 40.5 21.5 40.5
Q 21.1375 40.5125 20.8 40.55
L 20.4 43.4
Q 19.55 43.4 18.75 43.45 18.6765625 43.4544921875 18.6 43.45 17.0748046875 43.5484375 14.4 43.6
L 14 46.75
Q 14.9619140625 46.6974609375 15.95 46.6
L 15.55 46.6
Q 16.75 46.55 17.95 46.5 18.2736328125 46.4755859375 18.6 46.45 19.36796875 46.390234375 20.15 46.3 21.7474609375 46.21796875 23.4 46.1 24 43 24.35 40 24.9 35.3 24.8 30.35 22.8 30.4 20.95 30.55 20.75 30.5 20.6 30.55 19.59609375 30.5697265625 18.6 30.6 Z"/>

<path fill="#637195" stroke="none" d="
M 15.65 30.75
Q 15.616015625 30.74609375 15.55 30.75 15.15 30.7 14.75 30.65 13.6 30.5 12.55 30.35 12.225 30.2986328125 11.9 30.25 11.275 30.131640625 10.65 30
L 8.1 32.7 3.6 33.3
Q 2.95 37.2 3.15 41.3 3.15 41.85 3.3 42.6
L 7.55 43.3 9 46.55
Q 9.1 46.5 9.15 46.55 9.3 46.5 9.45 46.6 10.6271484375 46.7396484375 11.9 46.75 12.92890625 46.7939453125 14 46.75
L 14.4 43.6
Q 14.3068359375 43.5982421875 14.2 43.6 13.4 43.5 12.55 43.4 12.225 43.34765625 11.9 43.3 10.675 43.1080078125 9.45 42.95 8.1 42.65 6.95 42.5
L 6.8 42.5
Q 6.65 41.85 6.55 41.3 6 37.65 6.8 34.05 8.5 34.35 10.35 34.7 11.125 34.8056640625 11.9 34.9 12.225 34.9556640625 12.55 35 13.990625 35.1919921875 15.4 35.35
L 15.9 31.6 15.65 30.75 Z"/>

<path fill="#ABB8C2" stroke="none" d="
M 15.65 30.75
L 15.2 28.9 15.15 28.9
Q 13.55 28.65 12.1 28.4
L 10.65 30
Q 11.275 30.131640625 11.9 30.25 12.225 30.2986328125 12.55 30.35 13.6 30.5 14.75 30.65 15.15 30.7 15.55 30.75 15.616015625 30.74609375 15.65 30.75 Z"/>

<path fill="#CEDDE9" stroke="none" d="
M 15.2 28.9
L 15.65 30.75
Q 17.1326171875 30.6564453125 18.6 30.6 19.59609375 30.5697265625 20.6 30.55 20.75 30.5 20.95 30.55 22.8 30.4 24.8 30.35
L 21.5 28.65
Q 21.05 28.65 20.7 28.7 20.6 28.7 20.55 28.7 19.5685546875 28.753515625 18.6 28.8 16.8861328125 28.8666015625 15.2 28.9
M 34.05 24.55
Q 33.9998046875 24.558984375 33.95 24.55 29.53828125 25.3533203125 28.5 25.65 28.5 26.25 28.65 26.95 28.65 27.05 28.65 27.25 28.65 27.75 28.75 28.3
L 28.75 28.35
Q 28.8 30.35 28.9 32.35
L 28.9 32.4
Q 28.8 33.55 28.8 34.8 28.65 36.35 28.5 37.9 28.45 38 28.5 38.25 28.3451171875 39.6443359375 28.1 41.05 30.2849609375 45.1912109375 32.9 48.8 33.5314453125 47.518359375 34.1 46.3 34.1 46.15 34.25 46.1 34.35 45.95 34.35 45.9 34.4 45.75 34.5 45.65 34.4 45.5 34.5 45.45 34.6640625 45.0283203125 34.85 44.6 35.0607421875 44.1751953125 35.3 43.75 35.0625 43.3875 34.85 43 34.2125 41.8625 33.8 40.55 31.787109375 31.827734375 33.95 26.75 34.565234375 25.3953125 35.45 24.3 34.7 24.4 34.05 24.55 Z"/>

<path fill="#3D475D" stroke="none" d="
M 19.7 21.65
Q 19.944140625 22.4314453125 20.1 23.35
L 20.1 23.4 28.5 25.65
Q 28.44453125 25.373046875 28.4 25.1 28.272265625 24.3869140625 28.2 23.7
L 19.7 21.65 Z"/>

<path fill="#000000" stroke="none" d="
M 18.6 22.85
Q 18.65 23.15 18.7 23.5 18.7427734375 24.2267578125 18.9 25.1 18.963671875 25.2478515625 19 25.4 19 26.15 19.15 27.05 19.1 27.2 19.1 27.4 18.84921875 27.40625 18.6 27.4 16.86171875 27.45625 15.2 27.5 13.7 27.25 12.35 27.05
L 12.25 27 12.1 27 4.9 25.25 3.8 24.15 0.8 29.2 0.55 35.2 1.95 35
Q 1.6 37.9 1.75 40.9
L 0 40.55 2.7 49.25 4.05 49.25 9.3 48
Q 10.545703125 48.14296875 11.9 48.15 12.8484375 48.1904296875 13.85 48.15 14.9197265625 48.1068359375 16.05 48 15.75 48.95 15.45 49.9
L 15.35 50.35
Q 15.1666015625 50.6251953125 15.5 51.05 15.6919921875 51.3197265625 16.1 51.65 16.1 51.7 16.15 51.7 18.45 54.25 21.25 57.05 21.75 57.55 22.35 58.15
L 22.35 58.1
Q 23.05 58.9 24 59.8
L 24.05 59.85
Q 24.3 60.05 24.65 60.4 25.25 61 26 61.65 26.15 61.75 26.3 62
L 26.5 62.2
Q 27.1 62.75 27.7 63.3
L 27.75 63.3
Q 29 64.45 30.4 65.7 30.55 65.85 30.75 66.05 31.7 66.95 32.95 68
L 32.85 67.95
Q 33.15 68.2 33.65 68.65
L 33.85 68.85
Q 33.9 68.9 34.05 69 34.15 69.1 34.35 69.25 34.75 69.65 35.35 70.1 36.05 70.7 36.9 71.4 37.3 71.75 37.8 72.2
L 37.8 72.25
Q 38.75 73 39.9 73.95
L 39.85 73.95
Q 41.55 75.35 43.4 76.8
L 43.75 77.1 46.65 77.25 47 77
Q 50.55 74.8 53.45 72.2
L 53.5 72.15
Q 55.05 70.6 56.45 69.15
L 56.65 69.05 56.9 68.7 56.9 68.65
Q 57.1 68.3 57.4 68.05
L 57.6 67.8
Q 57.680859375 67.7359375 57.75 67.65 58.465625 66.6125 59.15 65.7
L 59.15 65.65 59.2 65.65
Q 59.3599609375 65.4 59.5 65.15 60.15 64.15 60.75 63.15
L 60.8 63.1 60.85 63
Q 61.5 61.55 62.2 60.2 62.35 59.85 62.55 59.55
L 62.6 59.5 62.6 59.4
Q 62.677734375 59.1927734375 62.75 59 62.977734375 58.41875 63.2 57.9
L 63.2 57.85
Q 63.2 57.8 63.25 57.75 63.3142578125 57.525 63.4 57.3 63.4185546875 57.25 63.45 57.2 63.46796875 57.125 63.5 57.05
L 63.6 56.85 63.6 56.6 63.9 56.15
Q 64.07734375 55.334375 64.25 54.55 64.3626953125 54.2552734375 64.45 53.95 64.45 53.8 64.5 53.7 64.5 53.65 64.55 53.65
L 63.6 51.65
Q 63.5376953125 51.8966796875 63.45 52.1
L 63.5 52.15
Q 63.4 52.3 63.4 52.5
L 63.35 52.5
Q 63.26015625 52.89609375 63.15 53.3 62.97734375 53.8919921875 62.8 54.5 62.651953125 55.1658203125 62.5 55.85 62.35 55.95 62.35 56.25 62.25 56.3 62.2 56.55 62.078125 56.875 61.95 57.2 61.94296875 57.25 61.9 57.3 61.909375 57.325 61.9 57.35 61.6 58.1 61.3 58.9 61.2080078125 59.07109375 61.1 59.25 60.87109375 59.72109375 60.65 60.2 60.1 61.3 59.55 62.4 58.8 63.65 58 64.85 57.8931640625 64.9994140625 57.75 65.15 57.1361328125 66.056640625 56.45 67 56.321484375 67.1140625 56.2 67.2 56.023046875 67.4326171875 55.85 67.65 55.776953125 67.7716796875 55.7 67.9 55.45 68 55.4 68.2 54.05 69.65 52.5 71.15 49.7 73.7 46.25 75.8
L 44.25 75.7
Q 42.45 74.25 40.75 72.85 39.65 71.95 38.7 71.15 38.2 70.7 37.8 70.35 36.95 69.6 36.2 69 35.65 68.55 35.25 68.15 34.95 67.95 34.85 67.85 34.7 67.6 34.65 67.6
L 34.55 67.6
Q 34.1 67.2 33.85 66.95 32.65 65.9 31.7 65 31.55 64.9 31.45 64.75 30 63.45 28.65 62.25 28.05 61.7 27.45 61.15 27.2 60.8 26.9 60.55 26.2 59.95 25.65 59.4 25.25 59 24.95 58.75 24.05 57.9 23.35 57.15 22.75 56.55 22.25 56.05 19.645703125 53.445703125 17.4 51.05 17.2068359375 50.8240234375 17 50.6 16.75 50.4 16.75 50.35 17.2 49 17.55 47.75 17.7 47 17.95 46.5 16.75 46.55 15.55 46.6
L 15.95 46.6
Q 14.9619140625 46.6974609375 14 46.75 12.92890625 46.7939453125 11.9 46.75 10.6271484375 46.7396484375 9.45 46.6 9.3 46.5 9.15 46.55
L 9.1 46.6 3.75 47.85 3.7 47.85 2 42.35 3.3 42.6
Q 3.15 41.85 3.15 41.3 2.95 37.2 3.6 33.3
L 2 33.55 2.15 29.6 4.05 26.4 4.15 26.5 11.9 28.4 12.1 28.4
Q 13.55 28.65 15.15 28.9
L 15.2 28.9
Q 16.8861328125 28.8666015625 18.6 28.8 19.5685546875 28.753515625 20.55 28.7 20.55 28.45 20.55 28.2 20.55 28.059375 20.55 27.9
L 20.55 27.8
Q 20.45 27.45 20.55 27.1 20.4 26.1 20.4 25.2 20.38671875 25.1498046875 20.35 25.1 20.147265625 24.205078125 20.1 23.4
L 20.1 23.35 18.6 22.85
M 53.4 35.95
Q 52.9173828125 35.1287109375 52.35 34.25 49.1173828125 29.38203125 46.45 26.75 42.160546875 22.5427734375 39.3 24.05 37.6984375 25.1177734375 36.75 26.75 34.766015625 30.1357421875 35.55 35.95 35.7595703125 37.3087890625 36.1 38.8 38.55 46.75 51.1 46.15 55.15 45.6 55.65 43.95 56.3392578125 41.063671875 53.4 35.95
M 51.2 35
Q 51.5107421875 35.48515625 51.8 35.95 54.803125 40.951171875 54.3 43.65
L 54.3 43.55
Q 53.8 44.4 50.9 44.8
L 51.05 44.75
Q 39.75 45.3 37.45 38.4 37.158203125 37.1205078125 37 35.95 36.109375 29.8884765625 38.5 26.75 39.1412109375 25.9236328125 40 25.3 41.7669921875 24.559765625 44.4 26.75 47.281640625 29.1462890625 51.2 35.05
L 51.2 35 Z"/>

<path fill="#BF5706" stroke="none" d="
M 28.2 23.7
L 29.25 23.95 19.1 20.25 16.65 14.4 16.6 14.4 17.8 21.15 19.7 21.65 28.2 23.7 Z"/>

<path fill="#FFE212" stroke="none" d="
M 24.8 7.6
Q 25.6443359375 8.28359375 26.65 9.2 29.2416015625 11.4880859375 30.75 13.9 30.8208984375 14.039453125 30.9 14.15 32.2623046875 16.390625 32.45 17.15
L 38.65 17.3
Q 38.55 16.95 38.45 16.6 38.25 16.15 38.1 15.75 38.085546875 15.7134765625 38.05 15.65 37.752734375 14.87109375 37.35 14.15 37.12734375 13.65546875 36.85 13.2 29.5048828125 12.1365234375 24.8 6.2
L 24.8 6.2
Q 23.7833984375 6.1947265625 22.7 6.25 23.543359375 6.6501953125 24.8 7.6
M 43.35 14.15
Q 43.4490234375 14.86796875 43.5 15.6 43.5 16.35 43.5 17.1 51.7982421875 16.6513671875 58.25 15.1 59.0296875 14.9404296875 59.75 14.75 59.5146484375 14.4361328125 59.25 14.15 59.0646484375 13.8884765625 58.85 13.65 58.191015625 12.8376953125 57.5 12.05 45.4529296875 11.909765625 39.6 1.9 37.674609375 1.5736328125 35.65 1.5 36.6625 2.3599609375 37.55 3.25 42.437109375 8.1990234375 43.35 14.15
M 68.15 14.6
Q 67.9 13.8 67.75 13.05 67.05 13.2 66.45 13.5 65.2 13.95 63.95 14.45 63.8076171875 14.5017578125 63.65 14.55 63.2576171875 14.6888671875 62.85 14.8 61.6 15.2 60.35 15.55 58.75 16 57.1 16.4 54.6337890625 16.8931640625 52.1 17.3 51.3080078125 17.4294921875 50.5 17.55 49.2 17.6 47.95 17.8 46 17.95 44.1 18.05 44.15 18.3 44.4 18.5 44.55 18.75 44.8 19.05 44.95 19.25 45.15 19.5 45.303125 19.6916015625 45.5 20 52.3654296875 19.8693359375 59.1 20.4 63.5845703125 21.318359375 63.1 26.75 63.11015625 26.8494140625 63.1 26.95
L 61.95 35.05
Q 62.2 35.2 62.65 35.45 63.0390625 35.695703125 63.4 35.95 63.9890625 36.3162109375 64.55 36.7 64.5349609375 36.3228515625 64.5 35.95 64.4501953125 32.6130859375 64.9 29.6 64.9 28.6 65.2 27.65 65.2 27.1568359375 65.25 26.75 65.3138671875 26.6205078125 65.35 26.5 65.6 25.35 65.9 24.25 66.05 23.75 66.2 23.35 66.4990234375 22.341015625 66.85 21.4 67.0111328125 21.103125 67.15 20.8 67.15 20.7 67.2 20.55 67.45 19.9 67.75 19.45 67.8 19.15 67.95 18.9 68.1 18.4 68.3 18.1 68.45 17.6 68.6 17.55 68.64453125 17.4162109375 68.65 17.3 68.8322265625 16.7642578125 68.75 16.6 68.6966796875 16.4130859375 68.65 16.2 68.3966796875 15.380859375 68.15 14.6 Z"/>

<path fill="#2995A8" stroke="none" d="
M 68.9 45.8
L 69 45.9 69.2 46.3 69.25 46.4 70.1 47.85 67.2 36.65 64.65 38 68.9 45.8 Z"/>

<path fill="#642E03" stroke="none" d="
M 63.5 48.35
Q 63.5 48.6 63.65 48.9 63.8 49.2 64.05 49.7 63.8 50.3 63.65 51
L 63.7 51.05
Q 63.7 51.1 63.75 51.1 63.7296875 51.1748046875 63.7 51.25 63.6533203125 51.4607421875 63.6 51.65
L 64.55 53.65 64.55 53.6 65.85 55.4 69.35 49.3 68.7 47.7
Q 68.55 48 68.4 48.25 68.25 48.6 68.1 48.95 68.068359375 49.0134765625 68 49.05 67.7513671875 49.4892578125 67.5 49.95
L 67.2 50.45
Q 67.1830078125 50.533984375 67.15 50.6 67.15 50.65 67.1 50.65 67.051171875 50.65 67.05 50.7 66.95 50.75 66.9 50.85
L 66.85 50.9 66.85 51 66.85 51.05
Q 66.75 51.05 66.75 51.2 66.725390625 51.224609375 66.7 51.25 66.59296875 51.366015625 66.5 51.5 66.44765625 51.570703125 66.4 51.65 66.35 51.7 66.35 51.75 66.2095703125 51.9185546875 66.1 52.1 66.0158203125 52.246484375 65.95 52.4 65.908203125 52.4 65.85 52.4
L 65.85 52.45 65.8 52.45
Q 65.58828125 52.5912109375 65.5 52.9
L 63.5 48.35 Z"/>

<path fill="#3BD4EE" stroke="none" d="
M 69.95 33.4
L 67.2 31.75
Q 67.15 33 67.15 34.35 67.15 35.1228515625 67.15 35.95 67.18671875 36.246484375 67.2 36.55
L 67.2 36.65 70.1 47.85 73.1 42.05 69.95 33.4 Z"/>

<path fill="#D7F9FF" stroke="none" d="
M 74.6 36.5
Q 74.5728515625 36.23671875 74.55 35.95 74.177734375 32.36328125 73.5 29.05
L 69.95 33.4 73.1 42.05 74.8 38.8
Q 74.75 38.5 74.75 38.35 74.6845703125 37.434375 74.6 36.5
M 69.25 17.3
Q 69.125390625 17.6857421875 69.05 18.1 69 18.5 68.9 18.9 68.85 19.15 68.75 19.45 68.6580078125 19.787109375 68.6 20.1 68.5693359375 20.337109375 68.55 20.55 68.25 21.7 68.1 23 67.75 24.65 67.6 26.55 67.5806640625 26.6470703125 67.55 26.75 67.490234375 27.1763671875 67.45 27.7 67.3 29 67.3 30.5 67.2 31.05 67.2 31.75
L 69.95 33.4 68.6 31.6 69.35 17.05
Q 69.3005859375 17.1734375 69.25 17.3 Z"/>

<path fill="#BB8B00" stroke="none" d="
M 59.25 23
Q 58.7 22.8 58.35 22.7 54.9 21.9 51.2 21.65 50 21.55 48.95 21.55 50.1 21.75 51.2 22.1 54.8 23 56.65 24.85 57 25.25 57.4 25.75 57.6 26.05 57.85 26.4 57.95 26.5666015625 58 26.75 58.1833984375 27.1166015625 58.25 27.55 58.2 27.55 58.35 27.7 58.25 27.85 58.25 28.1
L 57.7 35.05 61.95 35.1 61.95 35.05 63.1 26.95 63 26.95
Q 62.981640625 26.83984375 62.95 26.75 62.968359375 26.594921875 63 26.5 62.55 24.65 59.95 23.35 59.6 23.15 59.25 23 Z"/>

<path fill="#ADBAC4" stroke="none" d="
M 44.55 21.6
Q 42.9 21.65 41.2 21.85 40.15 21.95 39.15 22.1 38.85 22.1 38.55 22.15 38.4 22.15 38.25 22.2 37.9 22.25 37.55 22.35 36.5 22.55 35.4 22.8 34.675 22.8640625 33.95 22.95 32.975 23.1419921875 32 23.4 30.7166015625 23.646875 29.55 24.05 29.5646484375 24.044921875 29.55 24.05
L 29.25 23.95 28.2 23.7
Q 28.272265625 24.3869140625 28.4 25.1 28.44453125 25.373046875 28.5 25.65 29.53828125 25.3533203125 33.95 24.55 33.9998046875 24.558984375 34.05 24.55 34.7 24.4 35.45 24.3 36.1 24.15 36.9 24.05 36.7458984375 24.26953125 36.6 24.5 35.9552734375 25.5302734375 35.5 26.75 34.22890625 30.46875 34.95 35.95 35.198046875 37.73203125 35.65 39.7 35.921484375 40.5638671875 36.3 41.35 47.1521484375 50.6470703125 56.7 46 58.709765625 44.21015625 56.4 39 56.380859375 38.884375 56.3 38.75 55.6498046875 37.430078125 54.75 35.95 54.4123046875 35.4091796875 54.05 34.85 50.7453125 29.851171875 47.9 26.75 45.6283203125 24.2669921875 43.65 23 43.7384765625 22.9908203125 43.8 22.95 45.1884765625 22.853125 46.55 22.9 49.1 22.9 51.4 23.4 54.15 24 56.65 25.3
L 55.6 35.8 60.85 45.7
Q 61 45.9 61.15 46.15 61.4 46.6 61.7 47.05 62.2 47.9 62.7 48.9 62.728125 48.9654296875 62.75 49 63.0328125 49.6794921875 63.35 50.45 63.45 50.65 63.6 51
L 63.7 51.05 63.65 51
Q 63.8 50.3 64.05 49.7 63.8 49.2 63.65 48.9 63.5 48.6 63.5 48.35 63.3 47.85 63.1 47.35
L 57.6 35.05 57.7 35.05 58.25 28.1
Q 58.25 27.85 58.35 27.7 58.2 27.55 58.25 27.55 58.1833984375 27.1166015625 58 26.75 57.95 26.5666015625 57.85 26.4 57.6 26.05 57.4 25.75 57 25.25 56.65 24.85 54.8 23 51.2 22.1 50.1 21.75 48.95 21.55 48.75 21.55 48.45 21.55 47.55 21.5 46.7 21.55 45.65 21.55 44.55 21.6
M 52.35 34.25
Q 52.9173828125 35.1287109375 53.4 35.95 56.3392578125 41.063671875 55.65 43.95 55.15 45.6 51.1 46.15 38.55 46.75 36.1 38.8 35.7595703125 37.3087890625 35.55 35.95 34.766015625 30.1357421875 36.75 26.75 37.6984375 25.1177734375 39.3 24.05 42.160546875 22.5427734375 46.45 26.75 49.1173828125 29.38203125 52.35 34.25 Z"/>

<path fill="#8AEDFF" stroke="none" d="
M 70.45 18.2
Q 70.2755859375 17.7349609375 70.1 17.3 69.8642578125 16.6125 69.65 16 69.45 16.45 69.35 17.05
L 68.6 31.6 69.95 33.4 73.5 29.05
Q 73.4 28.9 73.5 28.75 73.221484375 27.728515625 73.05 26.75 73.0607421875 26.6748046875 73.05 26.6 72.25 23.4 71.35 20.6 71.15 19.95 71 19.5 70.85 19.2 70.75 18.95 70.6 18.55 70.45 18.2 Z"/>

<path fill="#33B9D0" stroke="none" d="
M 69.05 18.1
Q 69.125390625 17.6857421875 69.25 17.3 69.3005859375 17.1734375 69.35 17.05 69.45 16.45 69.65 16 69.45 16.2 69.35 16.4
L 68.6 17.55
Q 68.45 17.6 68.3 18.1 68.1 18.4 67.95 18.9 67.8 19.15 67.75 19.45 67.45 19.9 67.2 20.55 67.15 20.7 67.15 20.8 67.0111328125 21.103125 66.85 21.4 66.4990234375 22.341015625 66.2 23.35 66.05 23.75 65.9 24.25 65.6 25.35 65.35 26.5 65.3138671875 26.6205078125 65.25 26.75 65.2 27.1568359375 65.2 27.65 64.9 28.6 64.9 29.6 64.4501953125 32.6130859375 64.5 35.95 64.5349609375 36.3228515625 64.55 36.7 64.55 37.3 64.65 38
L 67.2 36.65 67.2 36.55
Q 67.18671875 36.246484375 67.15 35.95 67.15 35.1228515625 67.15 34.35 67.15 33 67.2 31.75 67.2 31.05 67.3 30.5 67.3 29 67.45 27.7 67.490234375 27.1763671875 67.55 26.75 67.5806640625 26.6470703125 67.6 26.55 67.75 24.65 68.1 23 68.25 21.7 68.55 20.55 68.5693359375 20.337109375 68.6 20.1 68.6580078125 19.787109375 68.75 19.45 68.85 19.15 68.9 18.9 69 18.5 69.05 18.1 Z"/>

<path fill="#103C43" stroke="none" d="
M 69.5 14.15
L 69.5 14.15 68.65 16.2
Q 68.6966796875 16.4130859375 68.75 16.6 68.8322265625 16.7642578125 68.65 17.3 68.64453125 17.4162109375 68.6 17.55
L 69.35 16.4
Q 69.45 16.2 69.65 16 69.8642578125 16.6125 70.1 17.3 70.2755859375 17.7349609375 70.45 18.2 70.6 18.55 70.75 18.95 70.85 19.2 71 19.5 71.15 19.95 71.35 20.6 72.25 23.4 73.05 26.6 73.0607421875 26.6748046875 73.05 26.75 73.221484375 27.728515625 73.5 28.75 73.4 28.9 73.5 29.05 74.177734375 32.36328125 74.55 35.95 74.5728515625 36.23671875 74.6 36.5 74.6845703125 37.434375 74.75 38.35 74.75 38.5 74.8 38.8
L 73.1 42.05 70.1 47.85 69.25 46.4 68.95 47 68.95 47.05
Q 68.85 47.4 68.7 47.7
L 69.35 49.3 69.35 49.35 70.2 50.75 76.25 39.05 76.2 38.6
Q 76.15 38.45 76.15 38.35
L 76.15 38.25
Q 75.8 33.25 74.9 28.8
L 74.85 28.5 74.85 28.4
Q 74.6046875 27.5416015625 74.5 26.75 74.4681640625 26.5732421875 74.45 26.4
L 74.45 26.35 74.4 26.25
Q 73.6 23 72.7 20.2 72.5 19.5 72.35 19.05
L 72.3 19 72.25 18.9
Q 72.15 18.65 72.05 18.45 71.9 18.05 71.75 17.7
L 71.75 17.65
Q 71.68046875 17.4724609375 71.6 17.3 71.2537109375 16.3533203125 71 15.55
L 70.25 13.45 69.5 14.15 Z"/>

<path fill="#3C1400" stroke="none" d="
M 69.5 14.15
Q 69.248046875 13.437890625 69.15 12.8
L 68.9 11.65 60.35 11.8 60.15 11.85
Q 59.75 11.95 59.35 12.05 51.5203125 2.8078125 40.9 0.7 39.862109375 0.4888671875 38.75 0.35 37.262109375 0.1560546875 35.7 0.1
L 33.8 0 34.3 1.9
Q 35.35 5.6 35.55 9.15 31.4845703125 5.0845703125 24.8 4.8 24.3314453125 4.812109375 23.85 4.8 23.259765625 4.8203125 22.65 4.85
L 20.6 4.9 24.4 13.7
Q 22.1 13.5 19.7 13.3 18.975 13.225 18.25 13.15 17.5 13.075 16.75 13
L 14.9 12.85 16.6 22.3 18.6 22.8 18.6 22.85 20.1 23.35
Q 19.944140625 22.4314453125 19.7 21.65
L 17.8 21.15 16.6 14.4 16.65 14.4
Q 18.1240234375 14.5525390625 19.55 14.7 23.15 15 26.55 15.25
L 22.7 6.25
Q 23.7833984375 6.1947265625 24.8 6.2
L 24.8 6.2
Q 32.9857421875 6.58203125 36.85 13.2 37.35 7.6 35.65 1.5 37.674609375 1.5736328125 39.6 1.9 49.876171875 3.5669921875 57.5 12.05 58.191015625 12.8376953125 58.85 13.65 59.7 13.4 60.5 13.2
L 67.75 13.05
Q 67.9 13.8 68.15 14.6 68.3966796875 15.380859375 68.65 16.2
L 69.5 14.15 Z"/>
</g>
</defs>

<g transform="matrix( 0.8725738525390625, 0, 0, 0.8725738525390625, 0,0) ">
<g transform="matrix( 1, 0, 0, 1, 0,0) ">
<use xlink:href="#_____________________________________258_0_Layer1_0_FILL"/>
</g>

<g transform="matrix( 1, 0, 0, 1, 0,0) ">
<use xlink:href="#_____________________________________258_0_Layer0_0_FILL"/>
</g>
</g>
</svg>
