
<svg xmlns="http://www.w3.org/2000/svg" version="1.1" xmlns:xlink="http://www.w3.org/1999/xlink" preserveAspectRatio="none" x="0px" y="0px" width="62px" height="54px" viewBox="0 0 62 54">
<defs>
<g id="_______237_0_Layer1_0_FILL">
<path fill="#FF9B07" stroke="none" d="
M 24.2 4.55
Q 23 2.5 23 2.75 22.1 10.8 27.7 14.35 29.05 15.25 30.45 15.3
L 29.4 13.75
Q 26.95 9.1 24.2 4.55
M 23.65 4.75
L 23.75 4.8
Q 26.45 9.35 28.95 14 28.45 14.2 28 13.9 22.75 10.55 23.65 4.75
M 43.3 23.5
Q 44.1 23.9 44.95 24.35 47.4 25.8 49.45 27.75 52.2 30.35 53.45 33 54.85 38.75 52.35 46.3
L 51.45 45.25
Q 51.3 45.35 51.1 45.35
L 50.8 45.35 51.9 46.65
Q 52.05 46.8 52.25 46.8 52.45 46.85 52.65 46.75 52.8 46.65 52.85 46.45
L 53.5 44.3
Q 53.9 42.8 54.15 41.4 54.35 40.25 54.45 39.2 54.65 36.35 54.15 33.8
L 53.95 32.85
Q 52.15 25.5 44 21
L 43.3 20.65
Q 39.25 18.55 33.7 17.15
L 33.6 17.1 32.85 16.9
Q 20.95 13.6 20.1 2
L 19.95 0 19.05 1.8
Q 16.15 7.4 18.3 16.95 15.9 16.2 14.75 14.5
L 13.75 12.75 13.75 14.85
Q 13.75 18.9 15.7 22.5 16.2 22.75 16.65 23.05 14.3 19.2 14.3 14.85 15.75 16.95 19.1 17.75 16.6 7.8 19.55 2.05 20.45 14.35 33.45 17.65 39.45 19.15 43.7 21.5 41.1 20.6 39.45 20.4
L 38.45 20.35
Q 38.1 20.3 37.9 20.2
L 37.8 20.2
Q 38.2 20.4 39.05 21 39.95 21.7 40.35 22.15 40.4 22.2 40.5 22.25 39.95 22 38 21.45 34.95 20.65 32.95 19.85 30.9 19.05 28.6 17.55
L 26.55 16.1
Q 28.45 22.65 32.25 25.95 31.1 25.35 29.4 24.1 26.7 22.1 25.95 20.65 25.95 23.55 26.85 26.3
L 27.2 27.35 30 28.1
Q 34 28.75 36.8 29.45 40.4 30.35 42.1 31.4
L 42 31.3
Q 40.4 28.45 39.55 27.3 37.4 24.3 34.75 22.7 36.9 23.3 38.7 23.85 43.55 25.4 45.15 26.75
L 43.3 23.5 Z"/>

<path fill="#FF7907" stroke="none" d="
M 23.75 4.8
L 23.65 4.75
Q 22.75 10.55 28 13.9 28.45 14.2 28.95 14 26.45 9.35 23.75 4.8
M 25.95 20.65
Q 26.7 22.1 29.4 24.1 31.1 25.35 32.25 25.95 28.45 22.65 26.55 16.1
L 28.6 17.55
Q 30.9 19.05 32.95 19.85 34.95 20.65 38 21.45 39.95 22 40.5 22.25 40.4 22.2 40.35 22.15 39.95 21.7 39.05 21 38.2 20.4 37.8 20.2
L 37.9 20.2
Q 38.1 20.3 38.45 20.35
L 39.45 20.4
Q 41.1 20.6 43.7 21.5 39.45 19.15 33.45 17.65 20.45 14.35 19.55 2.05 16.6 7.8 19.1 17.75 15.75 16.95 14.3 14.85 14.3 19.2 16.65 23.05 21.3 25.6 27.2 27.35
L 26.85 26.3
Q 25.95 23.55 25.95 20.65 Z"/>

<path fill="#1E0102" stroke="none" d="
M 43.45 33
Q 43.3 32.15 42.1 31.4 40.4 30.35 36.8 29.45 34 28.75 30 28.1
L 27.2 27.35
Q 21.3 25.6 16.65 23.05 16.2 22.75 15.7 22.5
L 15.1 22.15
Q 11.2 19.75 8.3 16.75 3.1 11.35 1.15 4
L 0.6 1.85
Q 0.05 3.9 0.05 4.1
L 0.05 4.25
Q -0.6 16.1 4.75 24.1 7.3 27.95 11.3 30.9
L 11.3 30.95
Q 18.6 36.2 37.35 42.2 45.5 44.9 50 45.3
L 50.8 45.35 51.1 45.35
Q 51.3 45.35 51.45 45.25
L 51.45 45.2
Q 51.65 45.05 51.65 44.85 51.65 44.6 51.5 44.45 46.25 38.45 43.45 33
M 41.6 31.75
L 41.85 31.9
Q 42.75 32.5 42.9 33.1
L 42.95 33.15
Q 45.75 38.7 51.1 44.8
L 50.05 44.75
Q 47.75 44.55 44.35 43.7 43 42.45 41.85 41.1 40.2 39.05 39.15 36.7 29.55 34.55 20.95 31.3 17.1 29.8 13.45 28.1 17.3 32.5 22.6 36.3 15.5 33.3 11.6 30.5 7.7 27.55 5.2 23.8 -0.05 15.9 0.6 4.25
L 0.6 4.1
Q 2.6 11.65 7.9 17.1 10.85 20.2 14.8 22.6 21.05 26.4 29.85 28.65 33.85 29.3 36.65 30 38.3 30.4 39.5 30.85
L 41.6 31.75
M 40.8 40.8
Q 41.9 42.2 43.35 43.45 40.75 42.75 37.55 41.7 30.4 39.4 24.95 37.25 19.85 33.85 15.8 29.75 19.05 31.2 22.35 32.4 30.35 35.4 38.7 37.3 39.5 39.15 40.8 40.8 Z"/>

<path fill="#280406" stroke="none" d="
M 22.35 32.4
Q 25.6 34.85 32.15 37.65 36.6 39.55 40.8 40.8 39.5 39.15 38.7 37.3 30.35 35.4 22.35 32.4 Z"/>

<path fill="#1E0405" stroke="none" d="
M 43.35 43.45
Q 41.9 42.2 40.8 40.8 36.6 39.55 32.15 37.65 25.6 34.85 22.35 32.4 19.05 31.2 15.8 29.75 19.85 33.85 24.95 37.25 30.4 39.4 37.55 41.7 40.75 42.75 43.35 43.45 Z"/>

<path fill="#6A1E00" stroke="none" d="
M 39.5 30.85
Q 38.3 30.4 36.65 30 33.85 29.3 29.85 28.65 21.05 26.4 14.8 22.6 15.35 24.05 16 25.25 18.6 26.65 22.3 28.05 28.65 30.4 34.5 31.5
L 38.2 32.25
Q 37.65 31.95 37.25 31.65 36.4 31.05 36.55 30.7 36.7 30.3 37.7 30.4 38.5 30.5 39.5 30.85
M 42.9 33.1
Q 42.75 33.5 41.75 33.35
L 41 33.25
Q 42.1 33.95 42.9 35.05
L 43.35 35.8
Q 44.8 38.3 46.15 40.35 46.95 41.6 47.65 42.45 49.1 44.3 50.05 44.75
L 51.1 44.8
Q 45.75 38.7 42.95 33.15
L 42.9 33.1 Z"/>

<path fill="#33090B" stroke="none" d="
M 6.25 24.6
L 5.2 23.8
Q 7.7 27.55 11.6 30.5 15.5 33.3 22.6 36.3 17.3 32.5 13.45 28.1 17.1 29.8 20.95 31.3 17.9 28.4 16.5 26.15
L 16 25.25
Q 14 24.2 12.65 23.15 10.85 21.7 9.3 20.3 9.9 22.15 9.9 23.9 9.9 24.9 9.55 25.25 9.25 25.55 8.55 25.55 7.65 25.55 6.25 24.6
M 44.35 43.7
Q 47.75 44.55 50.05 44.75 49.1 44.3 47.65 42.45 44.8 41.95 41.85 41.1 43 42.45 44.35 43.7 Z"/>

<path fill="#4E1600" stroke="none" d="
M 8.3 17.9
Q 8.9 19.1 9.3 20.3 10.85 21.7 12.65 23.15 14 24.2 16 25.25 15.35 24.05 14.8 22.6 10.85 20.2 7.9 17.1
L 8.3 17.9 Z"/>

<path fill="#4A070C" stroke="none" d="
M 2.75 11.9
Q 1.15 8.6 0.6 4.25 -0.05 15.9 5.2 23.8
L 6.25 24.6
Q 7.65 25.55 8.55 25.55 9.25 25.55 9.55 25.25 9.9 24.9 9.9 23.9 9.9 22.15 9.3 20.3 4.8 16.1 2.75 11.9
M 43.35 35.8
L 42.9 35.05
Q 42.1 33.95 41 33.25 40.35 32.85 39.6 32.6 39.2 32.45 38.2 32.25
L 34.5 31.5
Q 28.65 30.4 22.3 28.05 18.6 26.65 16 25.25
L 16.5 26.15
Q 17.9 28.4 20.95 31.3 29.55 34.55 39.15 36.7 40.2 39.05 41.85 41.1 44.8 41.95 47.65 42.45 46.95 41.6 46.15 40.35 44.8 38.3 43.35 35.8 Z"/>

<path fill="#942A00" stroke="none" d="
M 0.6 4.1
L 0.6 4.25
Q 1.15 8.6 2.75 11.9 4.8 16.1 9.3 20.3 8.9 19.1 8.3 17.9
L 7.9 17.1
Q 2.6 11.65 0.6 4.1
M 41.75 33.35
Q 42.75 33.5 42.9 33.1 42.75 32.5 41.85 31.9
L 41.6 31.75 39.5 30.85
Q 38.5 30.5 37.7 30.4 36.7 30.3 36.55 30.7 36.4 31.05 37.25 31.65 37.65 31.95 38.2 32.25 39.2 32.45 39.6 32.6 40.35 32.85 41 33.25
L 41.75 33.35 Z"/>

<path fill="#C77000" stroke="none" d="
M 48.25 22.65
Q 46.05 21.3 43.3 20.65
L 44 21
Q 52.15 25.5 53.95 32.85
L 54.15 33.8 54.1 31.3
Q 54.05 29.7 53.35 28.15 52.95 27.3 52.4 26.5 51.85 25.75 51.15 25.05
L 49.6 23.5
Q 48.95 23.05 48.25 22.65 Z"/>

<path fill="#FFD407" stroke="none" d="
M 44.95 24.35
Q 44.1 23.9 43.3 23.5
L 45.15 26.75
Q 43.55 25.4 38.7 23.85 36.9 23.3 34.75 22.7 37.4 24.3 39.55 27.3 40.4 28.45 42 31.3
L 42.1 31.4
Q 43.3 32.15 43.45 33 46.25 38.45 51.5 44.45 51.65 44.6 51.65 44.85 51.65 45.05 51.45 45.2
L 51.45 45.25 52.35 46.3
Q 54.85 38.75 53.45 33 52.2 30.35 49.45 27.75 47.4 25.8 44.95 24.35 Z"/>
</g>

<g id="_______237_0_Layer0_0_FILL">
<path fill="#FF9B07" stroke="none" d="
M 24.2 4.55
Q 23 2.5 23 2.75 22.1 10.8 27.7 14.35 29.05 15.25 30.45 15.3
L 29.4 13.75
Q 26.95 9.1 24.2 4.55
M 23.65 4.75
L 23.75 4.8
Q 26.45 9.35 28.95 14 28.45 14.2 28 13.9 22.75 10.55 23.65 4.75
M 44 21
L 43.3 20.65
Q 39.25 18.55 33.7 17.15
L 33.6 17.1 32.85 16.9
Q 20.95 13.6 20.1 2
L 19.95 0 19.05 1.8
Q 16.15 7.4 18.3 16.95 15.9 16.2 14.75 14.5
L 13.75 12.75 13.75 14.85
Q 13.75 18.9 15.7 22.5 16.2 22.75 16.65 23.05 14.3 19.2 14.3 14.85 15.75 16.95 19.1 17.75 16.6 7.8 19.55 2.05 20.45 14.35 33.45 17.65 39.45 19.15 43.7 21.5 41.1 20.6 39.45 20.4
L 38.45 20.35
Q 38.1 20.3 37.9 20.2
L 37.8 20.2
Q 38.2 20.4 39.05 21 39.95 21.7 40.35 22.15 40.4 22.2 40.5 22.25 39.95 22 38 21.45 34.95 20.65 32.95 19.85 30.9 19.05 28.6 17.55
L 26.55 16.1
Q 28.45 22.65 32.25 25.95 31.1 25.35 29.4 24.1 26.7 22.1 25.95 20.65 25.95 23.55 26.85 26.3
L 27.2 27.35 30 28.1
Q 34 28.75 36.8 29.45 40.4 30.35 42.1 31.4
L 42 31.3
Q 40.4 28.45 39.55 27.3 37.4 24.3 34.75 22.7 36.9 23.3 38.7 23.85 43.55 25.4 45.15 26.75
L 43.3 23.5
Q 44.1 23.9 44.95 24.35 47.4 25.8 49.45 27.75 52.2 30.35 53.45 33 54.85 38.75 52.35 46.3
L 51.45 45.25
Q 51.3 45.35 51.1 45.35
L 50.8 45.35 51.9 46.65
Q 52.05 46.8 52.25 46.8 52.45 46.85 52.65 46.75 52.8 46.65 52.85 46.45
L 53.5 44.3
Q 53.9 42.8 54.15 41.4 54.35 40.25 54.45 39.2 54.65 36.35 54.15 33.8
L 53.95 32.85
Q 52.15 25.5 44 21 Z"/>

<path fill="#FF7907" stroke="none" d="
M 23.75 4.8
L 23.65 4.75
Q 22.75 10.55 28 13.9 28.45 14.2 28.95 14 26.45 9.35 23.75 4.8
M 25.95 20.65
Q 26.7 22.1 29.4 24.1 31.1 25.35 32.25 25.95 28.45 22.65 26.55 16.1
L 28.6 17.55
Q 30.9 19.05 32.95 19.85 34.95 20.65 38 21.45 39.95 22 40.5 22.25 40.4 22.2 40.35 22.15 39.95 21.7 39.05 21 38.2 20.4 37.8 20.2
L 37.9 20.2
Q 38.1 20.3 38.45 20.35
L 39.45 20.4
Q 41.1 20.6 43.7 21.5 39.45 19.15 33.45 17.65 20.45 14.35 19.55 2.05 16.6 7.8 19.1 17.75 15.75 16.95 14.3 14.85 14.3 19.2 16.65 23.05 21.3 25.6 27.2 27.35
L 26.85 26.3
Q 25.95 23.55 25.95 20.65 Z"/>

<path fill="#1E0102" stroke="none" d="
M 43.45 33
Q 43.3 32.15 42.1 31.4 40.4 30.35 36.8 29.45 34 28.75 30 28.1
L 27.2 27.35
Q 21.3 25.6 16.65 23.05 16.2 22.75 15.7 22.5
L 15.1 22.15
Q 11.2 19.75 8.3 16.75 3.1 11.35 1.15 4
L 0.6 1.85
Q 0.05 3.9 0.05 4.1
L 0.05 4.25
Q -0.6 16.1 4.75 24.1 7.3 27.95 11.3 30.9
L 11.3 30.95
Q 18.6 36.2 37.35 42.2 45.5 44.9 50 45.3
L 50.8 45.35 51.1 45.35
Q 51.3 45.35 51.45 45.25
L 51.45 45.2
Q 51.65 45.05 51.65 44.85 51.65 44.6 51.5 44.45 46.25 38.45 43.45 33
M 42.9 33.1
L 42.95 33.15
Q 45.75 38.7 51.1 44.8
L 50.05 44.75
Q 47.75 44.55 44.35 43.7 43 42.45 41.85 41.1 40.2 39.05 39.15 36.7 29.55 34.55 20.95 31.3 17.1 29.8 13.45 28.1 17.3 32.5 22.6 36.3 15.5 33.3 11.6 30.5 7.7 27.55 5.2 23.8 -0.05 15.9 0.6 4.25
L 0.6 4.1
Q 2.6 11.65 7.9 17.1 10.85 20.2 14.8 22.6 21.05 26.4 29.85 28.65 33.85 29.3 36.65 30 38.3 30.4 39.5 30.85
L 41.6 31.75 41.85 31.9
Q 42.75 32.5 42.9 33.1
M 40.8 40.8
Q 41.9 42.2 43.35 43.45 40.75 42.75 37.55 41.7 30.4 39.4 24.95 37.25 19.85 33.85 15.8 29.75 19.05 31.2 22.35 32.4 30.35 35.4 38.7 37.3 39.5 39.15 40.8 40.8 Z"/>

<path fill="#280406" stroke="none" d="
M 38.7 37.3
Q 30.35 35.4 22.35 32.4 25.6 34.85 32.15 37.65 36.6 39.55 40.8 40.8 39.5 39.15 38.7 37.3 Z"/>

<path fill="#1E0405" stroke="none" d="
M 43.35 43.45
Q 41.9 42.2 40.8 40.8 36.6 39.55 32.15 37.65 25.6 34.85 22.35 32.4 19.05 31.2 15.8 29.75 19.85 33.85 24.95 37.25 30.4 39.4 37.55 41.7 40.75 42.75 43.35 43.45 Z"/>

<path fill="#6A1E00" stroke="none" d="
M 34.5 31.5
L 38.2 32.25
Q 37.65 31.95 37.25 31.65 36.4 31.05 36.55 30.7 36.7 30.3 37.7 30.4 38.5 30.5 39.5 30.85 38.3 30.4 36.65 30 33.85 29.3 29.85 28.65 21.05 26.4 14.8 22.6 15.35 24.05 16 25.25 18.6 26.65 22.3 28.05 28.65 30.4 34.5 31.5
M 42.95 33.15
L 42.9 33.1
Q 42.75 33.5 41.75 33.35
L 41 33.25
Q 42.1 33.95 42.9 35.05
L 43.35 35.8
Q 44.8 38.3 46.15 40.35 46.95 41.6 47.65 42.45 49.1 44.3 50.05 44.75
L 51.1 44.8
Q 45.75 38.7 42.95 33.15 Z"/>

<path fill="#4E1600" stroke="none" d="
M 8.3 17.9
Q 8.9 19.1 9.3 20.3 10.85 21.7 12.65 23.15 14 24.2 16 25.25 15.35 24.05 14.8 22.6 10.85 20.2 7.9 17.1
L 8.3 17.9 Z"/>

<path fill="#33090B" stroke="none" d="
M 6.25 24.6
L 5.2 23.8
Q 7.7 27.55 11.6 30.5 15.5 33.3 22.6 36.3 17.3 32.5 13.45 28.1 17.1 29.8 20.95 31.3 17.9 28.4 16.5 26.15
L 16 25.25
Q 14 24.2 12.65 23.15 10.85 21.7 9.3 20.3 9.9 22.15 9.9 23.9 9.9 24.9 9.55 25.25 9.25 25.55 8.55 25.55 7.65 25.55 6.25 24.6
M 50.05 44.75
Q 49.1 44.3 47.65 42.45 44.8 41.95 41.85 41.1 43 42.45 44.35 43.7 47.75 44.55 50.05 44.75 Z"/>

<path fill="#942A00" stroke="none" d="
M 0.6 4.25
Q 1.15 8.6 2.75 11.9 4.8 16.1 9.3 20.3 8.9 19.1 8.3 17.9
L 7.9 17.1
Q 2.6 11.65 0.6 4.1
L 0.6 4.25
M 41.85 31.9
L 41.6 31.75 39.5 30.85
Q 38.5 30.5 37.7 30.4 36.7 30.3 36.55 30.7 36.4 31.05 37.25 31.65 37.65 31.95 38.2 32.25 39.2 32.45 39.6 32.6 40.35 32.85 41 33.25
L 41.75 33.35
Q 42.75 33.5 42.9 33.1 42.75 32.5 41.85 31.9 Z"/>

<path fill="#4A070C" stroke="none" d="
M 2.75 11.9
Q 1.15 8.6 0.6 4.25 -0.05 15.9 5.2 23.8
L 6.25 24.6
Q 7.65 25.55 8.55 25.55 9.25 25.55 9.55 25.25 9.9 24.9 9.9 23.9 9.9 22.15 9.3 20.3 4.8 16.1 2.75 11.9
M 43.35 35.8
L 42.9 35.05
Q 42.1 33.95 41 33.25 40.35 32.85 39.6 32.6 39.2 32.45 38.2 32.25
L 34.5 31.5
Q 28.65 30.4 22.3 28.05 18.6 26.65 16 25.25
L 16.5 26.15
Q 17.9 28.4 20.95 31.3 29.55 34.55 39.15 36.7 40.2 39.05 41.85 41.1 44.8 41.95 47.65 42.45 46.95 41.6 46.15 40.35 44.8 38.3 43.35 35.8 Z"/>

<path fill="#FFD407" stroke="none" d="
M 44.95 24.35
Q 44.1 23.9 43.3 23.5
L 45.15 26.75
Q 43.55 25.4 38.7 23.85 36.9 23.3 34.75 22.7 37.4 24.3 39.55 27.3 40.4 28.45 42 31.3
L 42.1 31.4
Q 43.3 32.15 43.45 33 46.25 38.45 51.5 44.45 51.65 44.6 51.65 44.85 51.65 45.05 51.45 45.2
L 51.45 45.25 52.35 46.3
Q 54.85 38.75 53.45 33 52.2 30.35 49.45 27.75 47.4 25.8 44.95 24.35 Z"/>

<path fill="#C77000" stroke="none" d="
M 43.3 20.65
L 44 21
Q 52.15 25.5 53.95 32.85
L 54.15 33.8 54.1 31.3
Q 54.05 29.7 53.35 28.15 52.95 27.3 52.4 26.5 51.85 25.75 51.15 25.05
L 49.6 23.5
Q 48.95 23.05 48.25 22.65 46.05 21.3 43.3 20.65 Z"/>
</g>
</defs>

<g transform="matrix( 1.13616943359375, 0, 0, 1.13616943359375, 0,0) ">
<g transform="matrix( 1, 0, 0, 1, 0,0) ">
<use xlink:href="#_______237_0_Layer1_0_FILL"/>
</g>

<g transform="matrix( 1, 0, 0, 1, 0,0) ">
<use xlink:href="#_______237_0_Layer0_0_FILL"/>
</g>
</g>
</svg>
