
<svg xmlns="http://www.w3.org/2000/svg" version="1.1" xmlns:xlink="http://www.w3.org/1999/xlink" preserveAspectRatio="none" x="0px" y="0px" width="77px" height="55px" viewBox="0 0 77 55">
<defs>
<g id="_______239_0_Layer0_0_FILL">
<path fill="#094F00" stroke="none" d="
M 66 10.15
Q 64.7 9.4 63.35 8.65 62 7.85 60.55 7.2
L 56.6 5.25 56.6 5.2 51.55 3.2
Q 50.2 2.65 48.85 2.25
L 48.95 2.3 48.3 2.1
Q 46.1 1.45 43.85 1
L 43.7 1 35.45 0 35.3 0.2 35.25 0 30.2 0.35
Q 28.5 0.55 26.9 0.95
L 20.25 2.55 20.15 3.05 17.8 3.5 17.6 3.65 6.65 9.45 6.8 11.25 3.95 11.85 2.05 15.6 2.3 17 0.8 19.55 0.8 19.75 0 22.65 11.2 45.25 15 43.3 14.95 43.35
Q 16.2 42.75 17.6 42.35 17.65 42.3 17.7 42.3
L 21.15 41.55 21 41.6 23.8 41.3
Q 25.25 41.25 26.7 41.35 28.25 41.4 29.75 41.7 31.25 42 32.65 42.45
L 32.7 42.45
Q 33.95 42.8 35.15 43.4
L 35.1 43.4
Q 36.2 43.9 37.3 44.6 37.3 44.65 37.35 44.65
L 39.95 46.6
Q 41 47.5 41.95 48.55 42.95 49.7 43.8 50.95
L 43.85 51
Q 44.45 51.9 44.8 52.95
L 45.25 54.25 50.5 53.5 57.95 39.55 62.75 32.55 62.65 32.65 68.3 25.85 74.4 19.7 76.4 16.05 72.85 16.7 72.8 16.75 72.8 14.85 71.25 13.75 71.2 13.7
Q 69.95 12.75 68.7 11.9
L 68.65 11.9 66.1 10.2 66 10.15
M 62.55 10.05
Q 63.9 10.8 65.2 11.55
L 67.75 13.25
Q 69 14.1 70.25 15
L 71.15 15.65 71.15 15.8 71.15 16.05 65.9 21.35 62 26.15 60.3 28.6 62.6 26.45 70.6 20.15
Q 72.05 19.1 73.55 18.15
L 73.9 17.9 71.65 20 67.15 24.7 61.4 31.6 56.6 38.6 49.45 52 46.35 52.45
Q 45.95 51.15 45.15 50.05 44.25 48.7 43.15 47.45 42.1 46.3 40.95 45.3 40.55 44.95 40.15 44.65
L 40.2 44.75 38.25 43.3
Q 37.05 42.5 35.8 41.9 34.5 41.3 33.15 40.9 31.65 40.4 30.05 40.1 28.45 39.8 26.8 39.7 25.2 39.6 23.6 39.65
L 20.8 39.95 17.25 40.75
Q 15.7 41.2 14.25 41.85
L 13.2 42.35 11.9 43.05 1.7 22.45 2.35 20.1 2.4 20.05 2.4 20 2.7 19.5 4.85 22.15 4.85 22.1 3.75 15.85 5.05 13.25 8.55 12.55 8.35 10.35 18.35 5.05 21.55 4.4 21.65 3.85 27.25 2.5
Q 28.8 2.15 30.4 1.95
L 33.9 1.7 34.35 4.25 36.2 1.7 43.5 2.6
Q 45.7 3.05 47.85 3.65
L 48.35 3.8
Q 49.65 4.2 50.95 4.7
L 54 5.9 54.95 6.3 54.95 9.95 54.95 10.85 56.6 7.65 56.8 7.15 59.85 8.65
Q 61.25 9.3 62.55 10.05 Z"/>

<path fill="#379A29" stroke="none" d="
M 2.4 20.05
L 2.35 20.1 5.35 25.45 4.85 22.15 2.7 19.5 2.4 20 2.4 20.05
M 8.55 12.55
L 5.05 13.25 9.7 25 8.55 12.55
M 21.4 14.05
L 21.55 4.4 18.35 5.05 21.4 14.05
M 71.15 16.05
L 71.15 15.8 61.95 15.5 59.1 15.7 54 24.1 53.8 24.35 54.35 16.2 50.9 16.55 48.65 16.45 48.65 16.5 48.7 16.7 48.6 16.8
Q 46.483984375 33.0072265625 46.35 48.9 46.3400390625 50.6921875 46.35 52.45
L 49.45 52 56.6 38.6 61.4 31.6 67.15 24.7 71.65 20
Q 61.95 28.4 54.7 38.95
L 55.05 38.15
Q 55.0650390625 38.1125 55.05 38.05 55.139453125 37.926171875 55.2 37.75
L 55.2 37.7
Q 56.0078125 35.8119140625 56.95 34 59.075 29.8482421875 62 26.15
L 65.9 21.35 71.15 16.05 Z"/>

<path fill="#2E7B22" stroke="none" d="
M 48.6 16.8
L 48.7 16.7 48.65 16.5 48.65 16.45
Q 44.35 11.5 38.5 8.6
L 37.9 8.35 36.2 12.2 36.2 7.15
Q 35.6044921875 6.9515625 34.65 6.6 33.9587890625 6.3462890625 33.05 6
L 33 6
Q 30.2828125 4.9970703125 27 4.45
L 21.65 3.85 21.55 4.4 21.4 14.05 18.35 5.05 8.35 10.35 8.55 12.55 9.7 25 5.05 13.25 3.75 15.85 4.85 22.1 4.85 22.15 5.35 25.45 2.35 20.1 1.7 22.45 11.9 43.05 13.2 42.35 12.9 42.1 11.1 37.15
Q 9.1 31.5 7.4 25.5
L 5.75 19.3 7.05 22.1
Q 7.65 23.55 8.4 25.5 9 27.2 9.75 29.3
L 10.85 32.35 9.8 11.4 14.5 8.35 21.1 37.65 15.85 29.3 15.7 30.1 15.7 28.85 14.25 41.85
Q 15.7 41.2 17.25 40.75
L 20.8 39.95 23.6 39.65
Q 25.2 39.6 26.8 39.7 28.45 39.8 30.05 40.1 31.65 40.4 33.15 40.9 34.5 41.3 35.8 41.9 37.05 42.5 38.25 43.3
L 40.2 44.75 40.15 44.65
Q 40.55 44.95 40.95 45.3 42.1 46.3 43.15 47.45 44.25 48.7 45.15 50.05 45.95 51.15 46.35 52.45 46.3400390625 50.6921875 46.35 48.9 46.483984375 33.0072265625 48.6 16.8
M 42.6 13.5
Q 44.2 14.8 45.6 16.75
L 43.7 45.6
Q 43.5431640625 45.4703125 43.35 45.35 42.3794921875 44.54765625 41.3 43.9 41.0251953125 43.7396484375 40.8 43.1 40.5625 42.3361328125 40.4 40.9 40.1 38.2 39.4 34.5 38.75 30.8 38.6 30.3
L 38.35 29.25 36.8 40.85
Q 34.52109375 39.6310546875 32.15 38.9 27.823828125 37.54140625 23.2 37.8
L 17.25 9.05 18.65 8.6 22.3 22.95 23.85 6.55 27.75 7.25
Q 30.55 7.9 33.25 9 33.7 9.25 34.1 9.5
L 32.75 36 38 11.35
Q 39.7 11.7 41.2 12.6
L 41 16.8
Q 40.8 20.9 40.8 22.5
L 41.75 18.2
Q 42.5 14.95 42.6 13.5
M 73.9 17.9
L 73.55 18.15
Q 72.05 19.1 70.6 20.15
L 62.6 26.45 60.3 28.6 62 26.15
Q 59.075 29.8482421875 56.95 34 56.0078125 35.8119140625 55.2 37.7
L 55.2 37.75
Q 55.139453125 37.926171875 55.05 38.05 55.0650390625 38.1125 55.05 38.15
L 54.7 38.95
Q 61.95 28.4 71.65 20
L 73.9 17.9 Z"/>

<path fill="#286B1F" stroke="none" d="
M 45.6 16.75
Q 44.2 14.8 42.6 13.5 42.5 14.95 41.75 18.2
L 40.8 22.5
Q 40.8 20.9 41 16.8
L 41.2 12.6
Q 39.7 11.7 38 11.35
L 32.75 36 34.1 9.5
Q 33.7 9.25 33.25 9 30.55 7.9 27.75 7.25
L 23.85 6.55 22.3 22.95 18.65 8.6 17.25 9.05 23.2 37.8
Q 27.823828125 37.54140625 32.15 38.9 34.52109375 39.6310546875 36.8 40.85
L 38.35 29.25 38.6 30.3
Q 38.75 30.8 39.4 34.5 40.1 38.2 40.4 40.9 40.5625 42.3361328125 40.8 43.1 41.0251953125 43.7396484375 41.3 43.9 42.3794921875 44.54765625 43.35 45.35 43.5431640625 45.4703125 43.7 45.6
L 45.6 16.75 Z"/>

<path fill="#24621C" stroke="none" d="
M 7.05 22.1
L 5.75 19.3 7.4 25.5
Q 9.1 31.5 11.1 37.15
L 12.9 42.1 13.2 42.35 14.25 41.85 15.7 28.85 15.7 30.1 15.85 29.3 21.1 37.65 14.5 8.35 9.8 11.4 10.85 32.35 9.75 29.3
Q 9 27.2 8.4 25.5 7.65 23.55 7.05 22.1 Z"/>

<path fill="#6DEF63" stroke="none" d="
M 52.55 15.5
L 50.9 16.55 54.35 16.2 49.05 11.45 52.55 15.5
M 54.95 9.95
L 54.95 6.3 54 5.9 54.95 9.95
M 65.2 11.55
Q 63.9 10.8 62.55 10.05 61.25 9.3 59.85 8.65
L 56.8 7.15 56.6 7.65 65.2 13.5 65.25 13.55 65.7 13.85 57.1 13.8 54 24.1 59.1 15.7 61.95 15.5 71.15 15.8 71.15 15.65 70.25 15
Q 69 14.1 67.75 13.25
L 65.2 11.55 Z"/>

<path fill="#55CC44" stroke="none" d="
M 65.25 13.55
L 65.2 13.5 56.6 7.65 54.95 10.85 54.95 9.95 54 5.9 50.95 4.7
Q 49.65 4.2 48.35 3.8
L 47.85 3.65
Q 45.7 3.05 43.5 2.6
L 36.2 1.7 34.35 4.25 33.9 1.7 30.4 1.95
Q 28.8 2.15 27.25 2.5
L 21.65 3.85 27 4.45
Q 30.2828125 4.9970703125 33 6
L 33.05 6
Q 33.9587890625 6.3462890625 34.65 6.6 35.6044921875 6.9515625 36.2 7.15
L 36.2 12.2 37.9 8.35 38.5 8.6
Q 44.35 11.5 48.65 16.45
L 50.9 16.55 52.55 15.5 49.05 11.45 54.35 16.2 53.8 24.35 54 24.1 57.1 13.8 65.7 13.85 65.25 13.55 Z"/>
</g>
</defs>

<g transform="matrix( 1, 0, 0, 1, 0.75,0.5) ">
<g transform="matrix( 1, 0, 0, 1, -0.75,-0.5) ">
<g transform="matrix( 1, 0, 0, 1, 0,0) ">
<use xlink:href="#_______239_0_Layer0_0_FILL"/>
</g>
</g>

<g transform="matrix( 1, 0, 0, 1, -0.75,-0.5) ">
<g transform="matrix( 1, 0, 0, 1, 0,0) ">
<use xlink:href="#_______239_0_Layer0_0_FILL"/>
</g>
</g>
</g>
</svg>
