
<svg xmlns="http://www.w3.org/2000/svg" version="1.1" xmlns:xlink="http://www.w3.org/1999/xlink" preserveAspectRatio="none" x="0px" y="0px" width="57px" height="56px" viewBox="0 0 57 56">
<defs>
<g id="_____________________________________254_0_Layer1_0_FILL">
<path fill="#4F1A00" stroke="none" d="
M 17.25 53.95
Q 16.4 53.75 15.75 53.2 16.6 55.8 17.65 58.45
L 17.85 58.9 17.85 59.1 19.9 59 18.1 53.95 17.25 53.95
M 23.1 58.35
L 23 58.2 22.95 58.2 20.15 52.75
Q 19.9 53.2 19.35 53.55
L 19.3 53.6 18.75 53.85
Q 19.45 56.2 20.45 58.45
L 20.65 58.85 20.7 58.85 23.1 58.35
M 8.3 44.8
L 10.1 45.25 9.45 42.3 15.15 42.45 15.05 40.45 13.6 40.3 13.65 35.6 7.1 34.95 8.3 44.8
M 18.95 32.9
L 18.1 32.85 17.75 34.6 17.5 34.95 17.35 35.05 17.15 35.25 16.5 35.65 15.35 35.7 16.7 48.7
Q 17.35 48.55 18.05 48.65
L 18.85 48.95 17.95 44.75 17.9 44.6 17.75 41.05
Q 18.0388671875 35.878125 18.95 32.9
M 9.95 20.35
L 9.55 20.45 9.1 20.8 8.9 21 16.2 21.1 17.2 21.15 17.15 21.1
Q 17.063671875 20.3228515625 15.95 20.25 15.7978515625 20.2431640625 15.6 20.25
L 9.95 20.35
M 3.95 20.55
L 3 22.75
Q 2.831640625 23.3396484375 2.7 23.95 2.3859375 25.481640625 2.35 27.1
L 2.55 30.65 3.05 32.9 3.9 32.9 4.25 32.9 4.25 32.95 5 33 5.1 32.2 4.3 32.2 4 32.2 3.95 27.4 3.9 27.35
Q 3.1 27.15 3 26.65
L 3 26.3 3.35 25.7
Q 3.65 25.45 4.05 25.4
L 4.6 21.55 5.35 21.4 6.5 21.4 6.65 20.5 6.5 20.45 3.95 20.55
M 21.55 21.35
Q 22.0896484375 20.3232421875 22.75 19.35
L 22.6 19.35
Q 22.1 19 21.4 18.7 18.95 17.45 17.75 17.05
L 17 17.85 15.25 16.95 14.95 16.85 15.65 16.2 14.25 15.6
Q 13.9 15.85 13.65 16.15 12.679296875 17.08515625 11.85 18.1
L 17.7 18.15 18.3 18.25
Q 19.55 18.55 19.85 19.35
L 19.95 19.55 19.95 20.4 19.75 21.2 21.55 21.35
M 37.9 9.75
L 37.55 9.5 31.05 9 26.95 9.4
Q 21.7 10.4 17.1 13.4
L 16.25 13.95 17.65 14.45 18.9 13.3 20.6 13.95 19.2 15.1
Q 20.5 15.55 21.85 16.2 22.55 16.5 23.35 16.9 23.65 17 24.05 17.2
L 24.4 17.4 25.75 16 28.9 13.55
Q 32.05 11.5 35.6 10.35
L 37.9 9.75
M 23.05 13.6
Q 23.45 13.4 24 13.45 24.5 13.55 24.85 13.9 25.1 14.25 25.05 14.6
L 25.05 14.7
Q 25 15.05 24.65 15.3
L 23.9 15.45 23.35 15.35 22.85 15
Q 22.55 14.65 22.55 14.3
L 22.55 14.2
Q 22.6 13.85 23.05 13.6 Z"/>

<path fill="#351100" stroke="none" d="
M 20.55 58.85
L 20.65 58.85 20.45 58.45
Q 19.45 56.2 18.75 53.85
L 18.1 53.95 19.9 59 19.95 58.95 20.55 58.85 Z"/>

<path fill="#B19F96" stroke="none" d="
M 15.6 49.35
L 15.55 49.35
Q 15.1 49.7 15 50.15
L 14.85 50.75
Q 14.7 51.8 15.4 52.75
L 15.75 53.2
Q 16.4 53.75 17.25 53.95
L 18.1 53.95 18.75 53.85 19.3 53.6 19.35 53.55
Q 19.9 53.05 20.05 52.4
L 20.05 52.15
Q 20.25 51.05 19.55 50.2
L 19 49.6
Q 18.5 49.1 17.7 48.95
L 16.75 48.9
Q 16.3623046875 48.9388671875 16 49.1 15.93984375 49.1439453125 15.85 49.2
L 15.6 49.35
M 17.8 50.15
Q 18.3 50.25 18.6 50.65 18.95 51.15 18.9 51.6 18.8 52.1 18.35 52.3
L 18.3 52.35 18.3 52.4 17.75 52.75 17.1 52.75
Q 16.55 52.7 16.3 52.2 16 51.8 16.05 51.35 16.1 50.85 16.5 50.55
L 16.65 50.55 16.8 50.3 16.85 50.3 17 50.25
Q 17.35 50.05 17.8 50.15
M 9.35 20.1
L 9.7 19.95 11.45 19.75 16.25 19.7
Q 17.615234375 19.7 17.85 20.4 17.8880859375 20.4927734375 17.9 20.6
L 15.9 32.9 15.7 33.15 15.2 33.55 15.15 33.5 14 33.7 13.7 33.65 13.65 33.65 7.2 33.1 6.85 32.85 6.7 32.8 6.5 32.35 6.45 32.05 6.95 28.15 6.2 28.1 6.2 28.1 5.7 32.25 5.8 33.05 5.85 33.15
Q 5.9408203125 33.3431640625 6.05 33.5 6.4099609375 33.9228515625 7 34.15 7.2388671875 34.276953125 7.5 34.35
L 15.85 35.25 16.8 35.15 16.9 35.1 17.1 34.75 18.9 21.95 19.05 21.65 19.05 21.55 19.45 20.25 19.95 19.55 19.85 19.35
Q 19.55 18.55 18.3 18.25
L 16.9 18.6 7.6 18.7 7.3 19.75 6.6 24.85 6.65 24.85 7.5 24.9 7.85 22.15 8.1 21.2 8.15 21 8.55 20.45 9.35 20.1 Z"/>

<path fill="#E5DBD6" stroke="none" d="
M 18.3 52.4
L 18.3 52.35 18.25 52.35 17.6 52.5 17.45 52.45
Q 17.2525390625 52.3908203125 17.05 52.3 16.831640625 52.1419921875 16.65 51.9 16.4 51.5 16.45 51
L 16.65 50.55 16.5 50.55
Q 16.1 50.85 16.05 51.35 16 51.8 16.3 52.2 16.55 52.7 17.1 52.75
L 17.75 52.75 18.3 52.4
M 15.95 48.95
L 15.95 49 15.75 49.15 15.55 49.35 15.6 49.35 15.85 49.2
Q 15.93984375 49.1439453125 16 49.1 16.3623046875 48.9388671875 16.75 48.9
L 17.7 48.95
Q 18.5 49.1 19 49.6
L 19.55 50.2
Q 20.25 51.05 20.05 52.15
L 20.05 52.4
Q 19.9 53.05 19.35 53.55 19.9 53.2 20.15 52.75 20.35 52.3 20.4 51.85 20.6 50.8 19.85 49.85 19.5 49.2 18.85 48.95
L 18.05 48.65
Q 17.35 48.55 16.7 48.7
L 15.95 48.95 Z"/>

<path fill="#61524B" stroke="none" d="
M 18.35 52.3
Q 18.45 52.15 18.5 51.85 18.55 51.4 18.25 51 17.95 50.55 17.45 50.4
L 17.05 50.4 16.9 50.5 16.65 50.55 16.45 51
Q 16.4 51.5 16.65 51.9 16.831640625 52.1419921875 17.05 52.3 17.2525390625 52.3908203125 17.45 52.45
L 17.6 52.5 18.25 52.35 18.3 52.35 18.35 52.3
M 14.75 35.7
L 15.15 35.75 15.35 35.7 16.5 35.65 17.15 35.25 17.35 35.05 17.5 34.95 16.9 35.1 16.8 35.15 15.85 35.25 7.5 34.35
Q 7.2388671875 34.276953125 7 34.15 6.4099609375 33.9228515625 6.05 33.5 5.9408203125 33.3431640625 5.85 33.15
L 5.8 33.05 5.7 32.25 6.2 28.1 6.2 28.1 6.95 28.15 7.65 28.2 7.7 27.6 5.6 27.45 5.1 32.2 5 33 5.05 33.1 5.1 33.55 5.1 33.55 5.6 34.3
Q 5.8205078125 34.48046875 6.1 34.6 6.5107421875 34.8302734375 7.05 34.95
L 7.1 34.95 13.65 35.6 14.75 35.7
M 6.65 20.3
L 6.65 20.5 6.5 21.4 5.95 25.4 8.05 25.4 8.05 25.3 8.15 24.85 8.1 24.85 7.5 24.9 6.65 24.85 6.6 24.85 7.3 19.75 7.6 18.7 7.8 18.4 7.3 18.8
Q 6.75 19.3 6.65 20.3
M 9.7 19.95
L 9.35 20.1 9.15 20.35 9.1 20.8 9.55 20.45 9.95 20.35 15.6 20.25
Q 15.7978515625 20.2431640625 15.95 20.25 17.063671875 20.3228515625 17.15 21.1
L 17.2 21.15 15.45 31.95
Q 15.45 32.4 15.3 32.65
L 15.3 32.7 15.25 32.75
Q 15.1841796875 32.914453125 15.1 33 14.94375 33.258984375 14.7 33.3
L 15.7 33.15 15.9 32.9 17.9 20.6
Q 17.8880859375 20.4927734375 17.85 20.4 17.615234375 19.7 16.25 19.7
L 11.45 19.75 9.7 19.95 Z"/>

<path fill="#41342E" stroke="none" d="
M 18.6 50.65
Q 18.3 50.25 17.8 50.15 17.35 50.05 17 50.25
L 16.85 50.3 16.8 50.3 16.65 50.55 16.9 50.5 17.05 50.4 17.45 50.4
Q 17.95 50.55 18.25 51 18.55 51.4 18.5 51.85 18.45 52.15 18.35 52.3 18.8 52.1 18.9 51.6 18.95 51.15 18.6 50.65 Z"/>

<path fill="#551B00" stroke="none" d="
M 9.45 42.3
L 10.1 45.25 10.45 45.45
Q 12.75 46.5 14.5 48
L 15.75 49.15 15.95 49 15.95 48.95 15.45 47.35 15.15 42.45 9.45 42.3
M 14.75 35.7
L 13.65 35.6 13.6 40.3 15.05 40.45 14.75 35.7 Z"/>

<path fill="#3F1400" stroke="none" d="
M 10.1 45.25
L 8.3 44.8 8.9 49.65
Q 9.99375 50.0515625 10.9 50.55
L 12.7 51.7
Q 15.4 53.95 16.55 58.4
L 16.7 59.15
Q 17 59.1 17.3 59.1
L 17.85 59.1 17.85 58.9 17.65 58.45
Q 16.6 55.8 15.75 53.2
L 15.4 52.75
Q 14.7 51.8 14.85 50.75
L 15 50.15
Q 15.1 49.7 15.55 49.35
L 15.75 49.15 14.5 48
Q 12.75 46.5 10.45 45.45
L 10.1 45.25
M 4.4 44.05
L 4.45 44.1 4.55 43.05 4.4 44.05
M 7.1 34.95
L 7.05 34.95
Q 6.5107421875 34.8302734375 6.1 34.6 6.1158203125 35.0826171875 6.15 35.55 6.25 38.8 7.2 42.05 6.05 42.85 5.5 44.25
L 8.3 44.8 7.1 34.95
M 27.05 17.85
Q 27.2013671875 17.8087890625 27.3 17.75
L 27.2 17.7 27.05 17.85
M 26.1 18.3
L 25.9 18.2 24.4 17.4 24.05 17.2
Q 23.65 17 23.35 16.9 22.55 16.5 21.85 16.2 20.5 15.55 19.2 15.1
L 20.6 13.95 18.9 13.3 17.65 14.45 16.25 13.95 15.05 13.6 14.55 13.5 14.45 13.4 12.9 14.8 12.95 14.85 16.05 15.85 15.65 16.2 14.95 16.85 15.25 16.95 16.35 17.4 17.5 16.4
Q 20.3 17.5 22.95 18.85
L 24.4 19.65 24.7 19.25 25.4 18.7 26.1 18.3
M 24 13.45
Q 23.45 13.4 23.05 13.6 22.6 13.85 22.55 14.2
L 22.55 14.3
Q 22.55 14.65 22.85 15
L 23.35 15.35 23.9 15.45 24.65 15.3
Q 25 15.05 25.05 14.7
L 25.05 14.6
Q 25.1 14.25 24.85 13.9 24.5 13.55 24 13.45
M 23.3 13.9
Q 23.6 13.75 23.95 13.8 24.25 13.85 24.45 14.1 24.65 14.25 24.6 14.5 24.55 14.8 24.35 14.95 24.05 15.05 23.75 15 23.4 14.95 23.2 14.75 23 14.6 23.05 14.3 23.1 14.05 23.3 13.9
M 49.5 20.3
Q 49.4 20.35 49.35 20.45 48.75390625 20.954296875 48.75 21.75
L 49.65 22.1 49.7 22.05 49.65 21.85
Q 49.75 21.35 50.2 21.05 50.6 20.75 51.1 20.8
L 51.35 20.8
Q 52.05 20.9 52.6 21.4 53.05 21.9 53.05 22.55 53.05 23.15 52.55 23.55 52.2513671875 23.74921875 51.85 23.75
L 52.4 24.25 52.5 24.4
Q 52.555078125 24.4689453125 52.6 24.55 52.8359375 24.466796875 53.05 24.35
L 53.25 24.25
Q 53.6 23.95 53.8 23.65
L 54.05 22.7 54.05 22.45
Q 53.95 21.6 53.25 20.85 52.5 20.1 51.35 19.95 50.3 19.75 49.5 20.3
M 44.4 12.3
L 44.4 12.35
Q 44.5 13 45.2 13.55 45.7 14 46.3 14.15
L 46.7 14.3 47.25 14.3
Q 47.5 14.35 47.75 14.3
L 48 14.2 48 14.15 48.1 14.15 48.3 14
Q 48.5 13.85 48.65 13.55
L 48.75 12.75 48.7 12.6
Q 48.65 11.95 47.95 11.4 47.3 10.75 46.35 10.6 45.4 10.45 44.85 10.95 44.3 11.35 44.35 12.1
L 44.4 12.3
M 45.15 12.15
Q 45.15 11.7 45.5 11.5 45.85 11.25 46.25 11.3
L 46.45 11.3
Q 47.05 11.35 47.5 11.8 47.95 12.15 47.95 12.65 48.05 13.15 47.65 13.45 47.35 13.65 46.85 13.7
L 46.55 13.65
Q 46.05 13.45 45.7 13.15
L 45.1 12.4 45.15 12.15 Z"/>

<path fill="#311000" stroke="none" d="
M 4.95 48.6
L 5 48.85 6.1 49
Q 7.63125 49.24609375 8.9 49.65
L 8.3 44.8 5.5 44.25
Q 5.2 44.9 5.1 45.75 4.85 46.9 4.95 48.35
L 4.95 48.6
M 5 33
L 4.25 32.95 4.25 32.9 3.9 32.9
Q 3.8275390625 34.225 3.8 35.55 3.75 38.1 3.95 40.65
L 3.4 44.4
Q 3.35 44.6 3.4 44.75 3.3 45.25 3.3 45.8 3.15 48.8 3.55 51.6
L 6.65 52
Q 8.186328125 52.4439453125 9.35 53.2 9.8900390625 53.5376953125 10.35 53.95 12.45 55.75 13.1 58.75
L 13.35 59.95 13.3 60.2 14.55 60.4 21.1 60.15 25.35 58.8 26.45 58.2 26.3 57.95 25.75 57.25
Q 23.75 54.15 22.45 50.9
L 22.15 50.15 21 45.95
Q 20.8 45.4 20.7 44.7 20.5 43.65 20.45 42.5 20.35 42.2 20.35 41.95
L 20.3 40.7 20.45 38.85
Q 20.3529296875 38.68515625 20.25 38.45
L 19.85 37.5
Q 19.6376953125 36.4224609375 19.7 34.95 19.175390625 37.8734375 19.15 40.9 19.1 41.15 19.15 41.4 19.2 41.95 19.25 42.5 19.35 43.65 19.5 44.75 19.55 45.25 19.7 45.8
L 20.75 49.8 22.1 53.15
Q 23.05 55.05 24.25 56.9
L 24.75 57.75 24.55 57.85 23.1 58.35 20.7 58.85 20.65 58.85 20.55 58.85 19.95 58.95 19.9 59 17.85 59.1 17.3 59.1
Q 17 59.1 16.7 59.15
L 15.8 59.05 14.35 58.95 14.3 58.6
Q 13.55 55.35 11.35 53.4
L 11.3 53.3 10.9 53
Q 10.1203125 52.3984375 9.2 51.95 8.0359375 51.3826171875 6.65 51.05
L 4.55 50.75 4.5 50.7 4.5 49.25
Q 4.35 47.5 4.4 45.75 4.4 45.25 4.4 44.75 4.4 44.4 4.45 44.1
L 4.4 44.05 4.55 43.05 4.8 41.35 4.9 40.8 4.85 40.8
Q 4.85 38.1 4.95 35.55 5.0197265625 34.5552734375 5.1 33.55
L 5.1 33.55 5.05 33.1 5 33
M 43.7 7.7
Q 43.95 7.85 44.1 8 52.05 13.45 54.85 23.25 55.1 24.45 55.45 25.7 55.6 26.5 55.7 27.35
L 55 27.6 55.15 28.2 55.35 29.35
Q 55.3984375 29.5166015625 55.45 29.65
L 57.3 27.75
Q 57.2 27.2 57.1 26.65 56.95 25.75 56.75 25 56.5 23.7 56.2 22.55 53.4 12.7 45.5 7.3 45.25 7.1 45.05 7 44.1 6.35 40.4 4.75 40.05 4.55 38.6 4.7 37.1 4.7 36 5 34.8 5.3 33.55 5.7
L 31.55 5.75
Q 27.8 5.95 24.3 7 19.95 8.25 16.05 10.85 13.45 12.5 11.4 14.5 10.65 15.3 9.95 16.15 9.0376953125 17.1908203125 8.25 18.3 8.3779296875 18.3 8.5 18.3
L 9.95 18.2
Q 10.75703125 17.155078125 11.7 16.15 12.2 15.55 12.85 14.9
L 12.8 14.9 12.9 14.8 14.45 13.4 14.55 13.5 16.9 11.8
Q 18.4 10.75 20.1 9.95 23.05 8.45 26.3 7.7
L 27.2 7.55
Q 30 6.95 33.1 6.95
L 33.15 6.9 32.9 6.8 34.35 6.35 34.25 6.35
Q 35.15 6 36.05 5.85
L 36.1 5.8 36.2 5.75 36.3 5.8
Q 38.1 5.5 40.05 5.75 42.5 6.9 43.7 7.7 Z"/>

<path fill="#97390B" stroke="none" d="
M 4.75 49.3
L 4.5 49.25 4.5 50.7 4.55 50.75 6.65 51.05
Q 8.0359375 51.3826171875 9.2 51.95 10.1203125 52.3984375 10.9 53
L 11.3 53.3 11.35 53.4
Q 13.55 55.35 14.3 58.6
L 14.35 58.95 15.8 59.05 15.65 58.3
Q 14.5 54 11.8 51.85 11 51.25 10.1 50.75 9.632421875 50.466015625 9 50.2 7.7146484375 49.749609375 5.75 49.45
L 4.7 49.25 4.75 49.3
M 44.1 8
Q 43.95 7.85 43.7 7.7 41.95 7.05 40.1 6.85
L 37.35 6.85 36.05 7.05
Q 37.9 8 39.5 9.55
L 41.05 12.05
Q 41.95 13.7 42.6 15.5 42.7 16.05 42.95 16.65
L 43.35 18.2
Q 43.6755859375 19.00625 43.95 19.8
L 48.4 21.6
Q 48.569921875 20.9578125 49.2 20.55
L 49.35 20.45
Q 49.4 20.35 49.5 20.3 50.3 19.75 51.35 19.95 52.5 20.1 53.25 20.85 53.95 21.6 54.05 22.45
L 54.05 22.7 53.8 23.65
Q 53.6 23.95 53.25 24.25
L 53.05 24.35
Q 52.8359375 24.466796875 52.6 24.55 52.7689453125 24.7189453125 52.95 24.9
L 53.1 25
Q 53.270703125 25.2048828125 53.45 25.45 54.1787109375 25.4935546875 54.9 25.6
L 55.45 25.7
Q 55.1 24.45 54.85 23.25 52.05 13.45 44.1 8
M 44.6 11.05
L 44.85 10.95
Q 45.4 10.45 46.35 10.6 47.3 10.75 47.95 11.4 48.65 11.95 48.7 12.6
L 48.75 12.75 48.65 13.55
Q 48.5 13.85 48.3 14
L 48.1 14.15 48 14.15 48 14.2 47.8 14.3
Q 47.5 14.4 47.15 14.4
L 46.7 14.45 46.1 14.35
Q 45.5 14.1 44.9 13.65 44.2 13.15 44.15 12.45
L 44.1 12.2
Q 44.05 11.5 44.6 11.05 Z"/>

<path fill="#B34611" stroke="none" d="
M 4.5 48.8
L 4.5 49.25 4.75 49.3 4.7 49.25 5.75 49.45
Q 7.7146484375 49.749609375 9 50.2 9.632421875 50.466015625 10.1 50.75 11 51.25 11.8 51.85 14.5 54 15.65 58.3
L 15.8 59.05 16.7 59.15 16.55 58.4
Q 15.4 53.95 12.7 51.7
L 10.9 50.55
Q 9.99375 50.0515625 8.9 49.65 7.63125 49.24609375 6.1 49
L 5 48.85 4.5 48.8
M 19.85 33
L 18.95 32.9
Q 18.0388671875 35.878125 17.75 41.05
L 17.9 44.6 17.95 44.75 18.85 48.95
Q 19.5 49.2 19.85 49.85 20.6 50.8 20.4 51.85 20.35 52.3 20.15 52.75
L 22.95 58.2 23 58.2 23.1 58.35 24.55 57.85 24.75 57.75 24.25 56.9
Q 23.05 55.05 22.1 53.15
L 20.75 49.8 19.7 45.8
Q 19.55 45.25 19.5 44.75 19.35 43.65 19.25 42.5 19.2 41.95 19.15 41.4 19.1 41.15 19.15 40.9 19.175390625 37.8734375 19.7 34.95 19.7349609375 34.0505859375 19.85 33 Z"/>

<path fill="#D5581B" stroke="none" d="
M 4.85 41.4
L 4.8 41.35 4.55 43.05 4.45 44.1
Q 4.4 44.4 4.4 44.75 4.4 45.25 4.4 45.75 4.35 47.5 4.5 49.25
L 4.5 48.8 5 48.85 4.95 48.6 4.95 48.35 4.9 48.1
Q 4.7 46.95 4.7 45.75 4.7 45.25 4.7 44.75 4.7 44.4 4.7 44.1
L 4.85 41.4
M 8.9 21
L 8.85 21.15 16.05 21.7 16.2 21.1 8.9 21
M 22.95 22.3
L 23 22.1 23.15 21.5 21.55 21.35 19.75 21.2 19.65 22 22.95 22.3 Z"/>

<path fill="#9B3606" stroke="none" d="
M 6.15 35.55
Q 6.1158203125 35.0826171875 6.1 34.6 5.8205078125 34.48046875 5.6 34.3
L 5.1 33.55
Q 5.0197265625 34.5552734375 4.95 35.55 4.85 38.1 4.85 40.8
L 4.9 40.8 4.85 41.4 4.7 44.1
Q 4.7 44.4 4.7 44.75 4.7 45.25 4.7 45.75 4.7 46.95 4.9 48.1
L 4.95 48.35
Q 4.85 46.9 5.1 45.75 5.2 44.9 5.5 44.25 6.05 42.85 7.2 42.05 6.25 38.8 6.15 35.55
M 13.4 15.2
L 12.85 14.9
Q 12.2 15.55 11.7 16.15 10.75703125 17.155078125 9.95 18.2
L 11 18.15
Q 11.7162109375 17.128515625 12.55 16.15 12.95 15.65 13.4 15.2
M 20.1 9.95
Q 18.4 10.75 16.9 11.8
L 14.55 13.5 15.05 13.6 19.5 10.5
Q 22.75 8.6 26.3 7.7 23.05 8.45 20.1 9.95 Z"/>

<path fill="#BB3D00" stroke="none" d="
M 3.9 27.35
L 3.95 27.4 4 32.2 4.3 32.2 4.2 30.95 4.5 27.5 4.5 27.35 4.1 27.3 4.05 27.35 3.9 27.35
M 5.35 21.4
L 4.6 21.55 4.05 25.4 4.75 25.35 5.35 21.4
M 8.85 21.15
L 8.75 21.25 8.15 24.85 8.05 25.3 8.05 25.4 9.65 25.4 9.7 25.35 9.75 25.4 9.9 25.2 10.65 25 11.25 25.15 11.3 25.15 11.45 25.2
Q 11.7 25.25 11.9 25.5 12.29453125 25.8068359375 12.35 26.35 12.39375 26.4638671875 12.4 26.55
L 12.3 27.15 12.1 27.5
Q 11.7 27.95 11.05 28.1
L 11 28.1 10.55 28.15 10.15 28.05 9.5 27.8 9.45 27.75 7.75 27.6 7.7 27.6 7.65 28.2 7.2 31.15 7.2 31.45 7.35 32.25 7.4 32.35 14.4 32.65 16.05 21.7 8.85 21.15
M 22.05 24.05
L 22.95 22.3 19.65 22 18.1 32.85 18.95 32.9 19.85 33
Q 20.2017578125 30.5357421875 21.1 27.25
L 22.05 24.05 Z"/>

<path fill="#7F2900" stroke="none" d="
M 5.6 27.45
L 5.55 27.45 4.6 27.35 4.5 27.35 4.5 27.5 4.2 30.95 4.3 32.2 5.1 32.2 5.6 27.45
M 17.2 21.15
L 16.2 21.1 16.05 21.7 14.4 32.65 15.3 32.7 15.3 32.65
Q 15.45 32.4 15.45 31.95
L 17.2 21.15
M 6.5 21.4
L 5.35 21.4 4.75 25.35 5.85 25.4 5.95 25.4 6.5 21.4 Z"/>

<path fill="#7F533D" stroke="none" d="
M 9.75 25.4
L 9.7 25.35 9.65 25.4 10 25.45 9.8 25.4 9.75 25.4
M 10.6 25.7
Q 10.7798828125 25.828515625 10.9 26 11.0013671875 26.18125 11.05 26.4 11.1 26.8 10.85 27.2
L 10.4 27.6 9.45 27.75 9.5 27.8 9.95 27.8 10.1 27.8
Q 10.55 27.75 10.85 27.45
L 11 27.35
Q 11.3 26.95 11.35 26.45 11.4 26.45 11.25 26.1 11.1 25.75 10.65 25.6
L 10 25.45 10.6 25.7 Z"/>

<path fill="#692200" stroke="none" d="
M 15.15 35.75
L 14.75 35.7 15.05 40.45 15.15 42.45 15.45 47.35 15.95 48.95 16.7 48.7 15.35 35.7 15.15 35.75
M 11 18.15
L 11.8 18.15 11.85 18.1
Q 12.679296875 17.08515625 13.65 16.15 13.9 15.85 14.25 15.6
L 13.4 15.2
Q 12.95 15.65 12.55 16.15 11.7162109375 17.128515625 11 18.15
M 21.4 18.7
Q 22.1 19 22.6 19.35
L 22.95 18.85
Q 20.3 17.5 17.5 16.4
L 16.35 17.4 15.25 16.95 17 17.85 17.75 17.05
Q 18.95 17.45 21.4 18.7
M 23.8 20.6
L 24.15 20.05 22.75 19.35
Q 22.0896484375 20.3232421875 21.55 21.35
L 23.15 21.5 23.35 21.5 23.8 20.6
M 23.95 13.8
Q 23.6 13.75 23.3 13.9 23.1 14.05 23.05 14.3 23 14.6 23.2 14.75 23.4 14.95 23.75 15 24.05 15.05 24.35 14.95 24.55 14.8 24.6 14.5 24.65 14.25 24.45 14.1 24.25 13.85 23.95 13.8
M 49.65 22.1
L 49.85 22.2 50.95 22.9 51 23.05 51.7 23.6
Q 51.814453125 23.5662109375 51.95 23.45 52.35 23.05 52.35 22.45 52.35 21.8 51.95 21.3 51.65 20.9 51.1 20.8 50.6 20.75 50.2 21.05 49.75 21.35 49.65 21.85
L 49.7 22.05 49.65 22.1
M 43.35 18.2
L 42.95 16.65
Q 42.7 16.05 42.6 15.5 41.95 13.7 41.05 12.05
L 39.5 9.55
Q 37.9 8 36.05 7.05
L 35.9 6.95 34.35 6.35 32.9 6.8 33.15 6.9 33.1 6.95
Q 30 6.95 27.2 7.55
L 26.3 7.7
Q 22.75 8.6 19.5 10.5
L 15.05 13.6 16.25 13.95 17.1 13.4
Q 21.7 10.4 26.95 9.4
L 31.05 9 37.55 9.5 37.9 9.75 35.6 10.35
Q 32.05 11.5 28.9 13.55
L 25.75 16 24.4 17.4 25.9 18.2 28.85 15.2 28.8 15.2 29.35 14.75
Q 32.55 12.05 36.05 11 37.3 10.6 38.6 10.45
L 40.15 12.25 40.25 12.45
Q 41.2 13.7 42 15.3
L 43.35 18.2
M 45.5 11.5
Q 45.15 11.7 45.15 12.15
L 45.1 12.4 45.7 13.15
Q 46.05 13.45 46.55 13.65
L 46.7 13.55 47.15 13.4
Q 47.45 13.05 47.35 12.55 47.35 12.1 47 11.7 46.7 11.35 46.25 11.3 45.85 11.25 45.5 11.5 Z"/>

<path fill="#838383" stroke="none" d="
M 14.6 33.3
L 14.7 33.3
Q 14.94375 33.258984375 15.1 33 15.1841796875 32.914453125 15.25 32.75
L 15.3 32.7 14.4 32.65 7.4 32.35 7.7 32.6 7.85 32.65 8.1 32.7 14.6 33.3 Z"/>

<path fill="#DDD6D2" stroke="none" d="
M 14 33.7
L 15.15 33.5 15.2 33.55 15.7 33.15 14.7 33.3 14.6 33.3 8.1 32.7 7.85 32.65 7.7 32.6 7.4 32.35 7.35 32.25 7.2 31.45 7.2 31.15 7.65 28.2 6.95 28.15 6.45 32.05 6.5 32.35 6.7 32.8 6.85 32.85 7.2 33.1 13.65 33.65 13.7 33.65 14 33.7
M 19.75 21.2
L 19.95 20.4 19.95 19.55 19.45 20.25 19.05 21.55 19.05 21.65 18.9 21.95 17.1 34.75 16.9 35.1 17.5 34.95 17.75 34.6 18.1 32.85 19.65 22 19.75 21.2
M 8.15 21
L 8.1 21.2 7.85 22.15 7.5 24.9 8.1 24.85 8.15 24.85 8.75 21.25 8.85 21.15 8.9 21 9.1 20.8 9.15 20.35 9.35 20.1 8.55 20.45 8.15 21
M 9.95 18.2
L 8.5 18.3
Q 8.3779296875 18.3 8.25 18.3 7.9822265625 18.3271484375 7.8 18.4
L 7.6 18.7 16.9 18.6 18.3 18.25 17.7 18.15 11.85 18.1 11.8 18.15 11 18.15 9.95 18.2 Z"/>

<path fill="#C7947B" stroke="none" d="
M 10.55 28.15
L 11 28.1 10.55 28.1 9.95 27.8 9.5 27.8 10.15 28.05 10.55 28.15 Z"/>

<path fill="#B58066" stroke="none" d="
M 12.1 27.5
Q 11.45 27.85 10.85 27.45 10.55 27.75 10.1 27.8
L 9.95 27.8 10.55 28.1 11 28.1 11.05 28.1
Q 11.7 27.95 12.1 27.5 Z"/>

<path fill="#DFB6A1" stroke="none" d="
M 11.35 26.45
Q 11.3 26.95 11 27.35
L 10.85 27.45
Q 11.45 27.85 12.1 27.5
L 12.3 27.15 12.4 26.55
Q 11.85 26.8 11.35 26.45
M 10.15 25.25
L 10.85 25.15 11.25 25.15 10.65 25 9.9 25.2 9.75 25.4 9.8 25.4 10.15 25.25 Z"/>

<path fill="#9B8376" stroke="none" d="
M 10.85 27.2
L 10.6 27.35 10.1 27.55 3.95 27.05
Q 3.05 26.85 3.2 26.15
L 3.35 25.7 3 26.3 3 26.65
Q 3.1 27.15 3.9 27.35
L 4.05 27.35 4.1 27.3 4.5 27.35 4.6 27.35 5.55 27.45 5.6 27.45 7.7 27.6 7.75 27.6 9.45 27.75 10.4 27.6 10.85 27.2 Z"/>

<path fill="#C5AEA2" stroke="none" d="
M 10.9 26
Q 10.7798828125 25.828515625 10.6 25.7
L 10 25.45 9.65 25.4 8.05 25.4 5.95 25.4 5.85 25.4 4.75 25.35 4.05 25.4
Q 3.65 25.45 3.35 25.7
L 3.2 26.15
Q 3.05 26.85 3.95 27.05
L 10.1 27.55 10.6 27.35 10.85 27.2
Q 11.1 26.8 11.05 26.4 11.0013671875 26.18125 10.9 26
M 9.95 26.1
L 10 26.1
Q 10.05 26.25 9.8 26.4
L 9.1 26.6 4.55 26.4 3.95 26.3 3.65 26
Q 3.75 25.75 4 25.65
L 4.7 25.55 4.8 25.6 8.85 25.65
Q 9.8 25.7 9.95 26.1 Z"/>

<path fill="#DBCBC2" stroke="none" d="
M 10 26.1
L 9.95 26.1
Q 9.8 25.7 8.85 25.65
L 4.8 25.6 4.7 25.55 4 25.65
Q 3.75 25.75 3.65 26
L 3.95 26.3 4.55 26.4 9.1 26.6 9.8 26.4
Q 10.05 26.25 10 26.1 Z"/>

<path fill="#EED8CD" stroke="none" d="
M 11.9 25.5
Q 11.7 25.25 11.45 25.2
L 11.3 25.15 11.25 25.15 10.85 25.15 10.15 25.25 9.8 25.4 10 25.45 10.65 25.6
Q 11.1 25.75 11.25 26.1 11.4 26.45 11.35 26.45 11.85 26.8 12.4 26.55 12.39375 26.4638671875 12.35 26.35 12.29453125 25.8068359375 11.9 25.5 Z"/>

<path fill="#8D3409" stroke="none" d="
M 15.65 16.2
L 16.05 15.85 12.95 14.85 12.9 14.8 12.8 14.9 12.85 14.9 13.4 15.2 14.25 15.6 15.65 16.2
M 24.15 20.05
L 24.4 19.65 22.95 18.85 22.6 19.35 22.75 19.35 24.15 20.05
M 43.35 18.2
L 42 15.3
Q 41.2 13.7 40.25 12.45
L 40.15 12.25
Q 38 12.9 36.05 14.45 34.85 15.35 33.7 16.55
L 32.95 17.45 42.25 19.15 43.95 19.8
Q 43.6755859375 19.00625 43.35 18.2 Z"/>

<path fill="#E8682A" stroke="none" d="
M 23.35 21.5
L 23.15 21.5 23 22.1 23.35 21.5 Z"/>

<path fill="#792903" stroke="none" d="
M 38.6 10.45
Q 37.3 10.6 36.05 11 32.55 12.05 29.35 14.75
L 28.8 15.2 28.85 15.2 25.9 18.2 26.1 18.3 26.9 17.9
Q 26.991796875 17.8693359375 27.05 17.85
L 27.2 17.7 27.3 17.75
Q 28.0392578125 17.5521484375 28.8 17.4
L 30.9 17.15 32.95 17.45 33.7 16.55
Q 34.85 15.35 36.05 14.45 38 12.9 40.15 12.25
L 38.6 10.45
M 51.1 20.8
Q 51.65 20.9 51.95 21.3 52.35 21.8 52.35 22.45 52.35 23.05 51.95 23.45 51.814453125 23.5662109375 51.7 23.6
L 51.85 23.75
Q 52.2513671875 23.74921875 52.55 23.55 53.05 23.15 53.05 22.55 53.05 21.9 52.6 21.4 52.05 20.9 51.35 20.8
L 51.1 20.8
M 47.5 11.8
Q 47.05 11.35 46.45 11.3
L 46.25 11.3
Q 46.7 11.35 47 11.7 47.35 12.1 47.35 12.55 47.45 13.05 47.15 13.4
L 46.7 13.55 46.55 13.65 46.85 13.7
Q 47.35 13.65 47.65 13.45 48.05 13.15 47.95 12.65 47.95 12.15 47.5 11.8 Z"/>

<path fill="#BF4F18" stroke="none" d="
M 40.05 5.75
Q 38.1 5.5 36.3 5.8
L 36.2 5.75 36.1 5.8 36.05 5.85
Q 35.15 6 34.25 6.35
L 34.35 6.35 35.9 6.95 36.05 7.05 37.35 6.85 40.1 6.85
Q 41.95 7.05 43.7 7.7 42.5 6.9 40.05 5.75
M 49.35 20.45
L 49.2 20.55
Q 48.569921875 20.9578125 48.4 21.6
L 48.75 21.75
Q 48.75390625 20.954296875 49.35 20.45
M 44.85 10.95
L 44.6 11.05
Q 44.05 11.5 44.1 12.2
L 44.15 12.45
Q 44.2 13.15 44.9 13.65 45.5 14.1 46.1 14.35
L 46.7 14.45 47.15 14.4
Q 47.5 14.4 47.8 14.3
L 48 14.2 47.75 14.3
Q 47.5 14.35 47.25 14.3
L 46.7 14.3 46.3 14.15
Q 45.7 14 45.2 13.55 44.5 13 44.4 12.35
L 44.4 12.3 44.35 12.1
Q 44.3 11.35 44.85 10.95 Z"/>

<path fill="#722A07" stroke="none" d="
M 53.45 25.45
Q 53.7876953125 25.9755859375 54.15 26.7
L 54.2 26.8
Q 54.76953125 28.042578125 55.05 28.65
L 55.2 28.6 55.15 28.2 55 27.6 55.7 27.35
Q 55.6 26.5 55.45 25.7
L 54.9 25.6
Q 54.1787109375 25.4935546875 53.45 25.45 Z"/>

<path fill="#1C120E" stroke="none" d="
M 43.95 19.8
L 42.25 19.15 32.95 17.45 30.9 17.15 28.8 17.4
Q 28.0392578125 17.5521484375 27.3 17.75 27.2013671875 17.8087890625 27.05 17.85 26.991796875 17.8693359375 26.9 17.9
L 26.1 18.3 25.4 18.7 24.7 19.25 24.4 19.65 24.15 20.05 23.8 20.6 23.35 21.5 23 22.1 22.95 22.3 22.05 24.05 21.1 27.25
Q 20.2017578125 30.5357421875 19.85 33 19.7349609375 34.0505859375 19.7 34.95 19.6376953125 36.4224609375 19.85 37.5
L 20.25 38.45
Q 20.3529296875 38.68515625 20.45 38.85 20.7615234375 39.367578125 21.15 39.65
L 22 40.15 23.2 41.5 26.25 43.5 32.65 46.15 37.5 47.35 42.85 47.85 51.05 47.1 51.1 47.1 52.1 46.7 53.15 45.3 53.15 45.25
Q 56.3 39.35 55.55 30.05 55.5009765625 29.854296875 55.45 29.65 55.3984375 29.5166015625 55.35 29.35 55.323828125 29.3134765625 55.3 29.25
L 55.05 28.65
Q 54.76953125 28.042578125 54.2 26.8
L 54.15 26.7
Q 53.7876953125 25.9755859375 53.45 25.45 53.270703125 25.2048828125 53.1 25
L 52.95 24.9
Q 52.7689453125 24.7189453125 52.6 24.55 52.555078125 24.4689453125 52.5 24.4
L 52.4 24.25 51.85 23.75 51.7 23.6 51 23.05 50.95 22.9 49.85 22.2 49.65 22.1 48.75 21.75 48.4 21.6 43.95 19.8
M 45.3 21.35
L 49.25 23.05 50.9 24.15
Q 51.215625 24.360546875 51.5 24.6 51.5716796875 24.664453125 51.65 24.7 51.801171875 24.884765625 51.95 25.05 52.1525390625 25.2525390625 52.35 25.45 52.7025390625 25.8578125 53.05 26.3 53.45 26.9 53.8 27.65
L 54.45 29.05 54.6 29.85
Q 55.4 38.35 52.15 45.25
L 52.1 45.3 43.2 45.9 39.5 45.65 33.4 44.15 27.25 41.6 24.3 39.7 22.75 38.05 22.8 38 22.5 37.3
Q 22 36.5 22 35.5
L 22 33.65 22.85 28.7 24.25 24.25 25.65 21.65 25.7 21.6 25.8 21.5 26.5 20.65
Q 27.2 19.95 28 19.6
L 28.85 19.3
Q 29.75 19.1 30.6 18.95
L 33.45 18.8 37.15 19.3 37.3 19.25 37.85 19.4 45.3 21.35 Z"/>

<path fill="#ECECEC" stroke="none" d="
M 33.8 21.65
L 33.75 21.65 33.65 21.65
Q 32.95 21.55 32.25 21.75
L 31.35 22.05 30.8 22.5
Q 30.25 22.95 30.45 23.4 30.55 23.85 31.2 24
L 31.35 24.05
Q 32 24.15 32.8 23.95 33.75 23.7 34.25 23.25 34.544921875 22.955078125 34.6 22.65 34.691015625 22.4845703125 34.65 22.3 34.5 21.85 33.8 21.65 Z"/>

<path fill="#9F9F9F" stroke="none" d="
M 29.7 23.45
L 29.6 23.6 29.65 23.55 29.7 23.45
M 49.85 40.05
L 49.75 40
Q 48.95 39.95 48.2 40.1
L 46.7 40.2 46.8 40.25 43.2 40.4 39.95 39.85 38.3 39.4 33.2 37.4 31.3 36.15 30.7 35.25 30.65 34.9 30.75 32.65 32.1 27.45 33.1 25.65 33.35 25.3
Q 32.1 26.1 30.8 25.45
L 30.5 25.25
Q 29.35 24.5 29.6 23.6
L 29.1 24.4 29.1 24.45 27.6 28.5 26.7 32.6
Q 25.9 37.3 32 39.85 34.2 40.8 37.35 41.45
L 42.95 42.5 47.6 42.25 47.5 42.3 48.2 42.2
Q 48.15 40.3 49.85 40.05 Z"/>

<path fill="#38251B" stroke="none" d="
M 28.85 19.3
L 28 19.6
Q 27.2 19.95 26.5 20.65
L 25.8 21.5 25.7 21.6 25.65 21.65 24.25 24.25 22.85 28.7 22 33.65 22 35.5
Q 22 36.5 22.5 37.3
L 22.8 38 22.75 38.05 24.3 39.7 27.25 41.6 33.4 44.15 39.5 45.65
Q 34.95 43.65 32 39.85 25.9 37.3 26.7 32.6
L 27.6 28.5 29.1 24.45 29.1 24.4 29.6 23.6 29.7 23.45 29.65 23.55
Q 30.03515625 22.8498046875 30.7 22.4 31.005078125 22.2 31.35 22.05
L 32.25 21.75
Q 32.95 21.55 33.65 21.65
L 33.75 21.65 36.4 20 37.85 19.4 37.3 19.25 37.15 19.3 33.45 18.8 30.6 18.95
Q 29.75 19.1 28.85 19.3 Z"/>

<path fill="#878787" stroke="none" d="
M 46.3 27.05
L 47.1 27.5
Q 47.45 27.8 47.85 28.15
L 48.3 28.75 48.25 28.75
Q 48.55 29.05 48.7 29.45
L 49.1 30.4
Q 49.45 31.15 50.25 31.95 50.3 32 50.45 32.1
L 49.05 39.6 48.35 39.65 48.3 39.6 45.25 39.8 45.3 39.85 41.75 40 38.3 39.4 39.95 39.85 43.2 40.4 46.8 40.25 46.7 40.2 48.2 40.1
Q 48.95 39.95 49.75 40
L 49.85 40.05
Q 49.9 40.05 50 40.05 50.15 40.05 50.2 40.05 50.3 40 50.45 40
L 50.6 40 51.95 32.5
Q 50.9 31.65 50.55 30.8
L 49.8 29.15 49.3 28.55
Q 48.95 28.2 48.5 27.9
L 48.5 27.85 46.2 26.7 43.75 26 46.3 27.05 Z"/>

<path fill="#C2C2C2" stroke="none" d="
M 46.6 24.65
L 46.45 24.65 39.85 22.65
Q 36.15 21.65 33.8 21.65 34.5 21.85 34.65 22.3 34.691015625 22.4845703125 34.6 22.65 34.544921875 22.955078125 34.25 23.25 33.75 23.7 32.8 23.95 32 24.15 31.35 24.05
L 31.2 24
Q 30.55 23.85 30.45 23.4 30.25 22.95 30.8 22.5
L 31.35 22.05
Q 31.005078125 22.2 30.7 22.4 30.03515625 22.8498046875 29.65 23.55
L 29.6 23.6
Q 29.35 24.5 30.5 25.25
L 30.8 25.45
Q 32.1 26.1 33.35 25.3
L 33.45 25.2 33.75 24.95 33.8 24.9 34.2 24.8
Q 34.75 24.7 35.2 24.6
L 35.9 24.45 35.95 24.45 42.45 25.55 43.65 25.95 43.75 26 46.2 26.7 48.5 27.85 48.5 27.9
Q 48.95 28.2 49.3 28.55
L 49.8 29.15 50.55 30.8
Q 50.9 31.65 51.95 32.5
L 50.6 40 50.45 40
Q 50.3 40 50.2 40.05 50.15 40.05 50 40.05 49.9 40.05 49.85 40.05 48.15 40.3 48.2 42.2
L 52.5 42 54.3 32.25
Q 52.95 31.1 52.5 30
L 52.55 30 51.95 28.7 51.95 28.65 50.85 27.05 50.8 27 49.9 26.3 47.95 25.1 46.6 24.65 Z"/>

<path fill="#51382B" stroke="none" d="
M 46.45 24.65
L 46.6 24.65 47.95 25.1 49.9 26.3 50.8 27 50.85 27.05 51.95 28.65 51.95 28.7 52.55 30 52.5 30
Q 52.95 31.1 54.3 32.25
L 52.5 42 48.2 42.2 47.5 42.3 47.6 42.25 42.95 42.5 37.35 41.45
Q 34.2 40.8 32 39.85 34.95 43.65 39.5 45.65
L 43.2 45.9 52.1 45.3 52.15 45.25
Q 55.4 38.35 54.6 29.85
L 54.45 29.05 53.8 27.65
Q 53.45 26.9 53.05 26.3 52.7025390625 25.8578125 52.35 25.45 52.1525390625 25.2525390625 51.95 25.05 51.801171875 24.884765625 51.65 24.7 51.5716796875 24.664453125 51.5 24.6 51.215625 24.360546875 50.9 24.15
L 49.25 23.05 45.3 21.35 37.85 19.4 36.4 20 33.75 21.65 33.8 21.65
Q 36.15 21.65 39.85 22.65
L 46.45 24.65 Z"/>
</g>

<g id="_____________________________________1_________3_0_Layer0_0_FILL">
<path fill="#351100" stroke="none" d="
M 15.5 49.2
L 14.85 49.3 16.65 54.35 16.7 54.3 17.3 54.2 17.4 54.2 17.2 53.8
Q 16.2 51.55 15.5 49.2 Z"/>

<path fill="#4F1A00" stroke="none" d="
M 16.9 48.1
Q 16.65 48.55 16.1 48.9
L 16.05 48.95 15.5 49.2
Q 16.2 51.55 17.2 53.8
L 17.4 54.2 17.45 54.2 19.85 53.7 19.75 53.55 19.7 53.55 16.9 48.1
M 14.85 49.3
L 14 49.3
Q 13.15 49.1 12.5 48.55 13.35 51.15 14.4 53.8
L 14.6 54.25 14.6 54.45 16.65 54.35 14.85 49.3
M 11.25 43.35
L 11.75 45.5
Q 11.85 45.05 12.3 44.7
L 12.5 44.5 11.25 43.35
M 12 12.3
L 11.7 12.2 12.4 11.55 11 10.95
Q 10.65 11.2 10.4 11.5 6.3 15.45 4.75 20.85 4.65 21 4.6 21.7 4.3 26.3 4.9 30.9 5.25 33.85 6 36.8
L 8.35 37.2 10.35 36.95 10.5 18.9 11.4 23.85 13.45 44.05
Q 14.1 43.9 14.8 44
L 15.6 44.3 14.7 40.1 14.65 39.95 14.5 36.4
Q 15.05 26.55 17.9 24.75 18.05 24.2 18.25 23.65
L 18.45 23 19.35 20.85 20 19.8 18.65 20.25 18.55 20.3
Q 18.05 20.45 17.55 20.85 17.05 21.25 16.55 21.75
L 16.35 21.7
Q 16.5 21.25 16.6 20.85 17.6 17.5 19.5 14.7
L 19.35 14.7
Q 18.85 14.35 18.15 14.05 15.7 12.8 14.5 12.4
L 13.75 13.2 12 12.3
M 15.6 16.65
L 15.55 16.8
Q 15.45 17.3 14.9 17.65 14.4 17.95 13.85 17.9
L 13.35 17.9 13 17.75
Q 12.45 17.65 12.1 17.25 11.6 16.75 11.6 16.2
L 11.65 16.05
Q 11.75 15.45 12.4 15.1 13 14.7 13.8 14.85 14.65 14.95 15.2 15.5 15.7 16.05 15.6 16.65
M 34.65 5.1
L 34.3 4.85 27.8 4.35 23.7 4.75
Q 18.45 5.75 13.85 8.75
L 13 9.3 14.4 9.8 15.65 8.65 17.35 9.3 15.95 10.45
Q 17.25 10.9 18.6 11.55 19.3 11.85 20.1 12.25 20.4 12.35 20.8 12.55
L 21.15 12.75 22.5 11.35 25.65 8.9
Q 28.8 6.85 32.35 5.7
L 34.65 5.1
M 20.75 8.8
Q 21.25 8.9 21.6 9.25 21.85 9.6 21.8 9.95
L 21.8 10.05
Q 21.75 10.4 21.4 10.65
L 20.65 10.8 20.1 10.7 19.6 10.35
Q 19.3 10 19.3 9.65
L 19.3 9.55
Q 19.35 9.2 19.8 8.95 20.2 8.75 20.75 8.8 Z"/>

<path fill="#B19F96" stroke="none" d="
M 14.45 44.3
L 13.5 44.25
Q 13 44.3 12.6 44.55
L 12.35 44.7 12.3 44.7
Q 11.85 45.05 11.75 45.5
L 11.6 46.1
Q 11.45 47.15 12.15 48.1
L 12.5 48.55
Q 13.15 49.1 14 49.3
L 14.85 49.3 15.5 49.2 16.05 48.95 16.1 48.9
Q 16.65 48.4 16.8 47.75
L 16.8 47.5
Q 17 46.4 16.3 45.55
L 15.75 44.95
Q 15.25 44.45 14.45 44.3
M 13.25 45.9
L 13.4 45.9 13.55 45.65 13.6 45.65 13.75 45.6
Q 14.1 45.4 14.55 45.5 15.05 45.6 15.35 46 15.7 46.5 15.65 46.95 15.55 47.45 15.1 47.65
L 15.05 47.7 15.05 47.75 14.5 48.1 13.85 48.1
Q 13.3 48.05 13.05 47.55 12.75 47.15 12.8 46.7 12.85 46.2 13.25 45.9 Z"/>

<path fill="#E5DBD6" stroke="none" d="
M 13.4 45.9
L 13.25 45.9
Q 12.85 46.2 12.8 46.7 12.75 47.15 13.05 47.55 13.3 48.05 13.85 48.1
L 14.5 48.1 15.05 47.75 15.05 47.7 15 47.7 14.35 47.85 14.2 47.8
Q 13.7 47.65 13.4 47.25 13.15 46.85 13.2 46.35
L 13.4 45.9
M 13.45 44.05
L 12.7 44.35 12.5 44.5 12.3 44.7 12.35 44.7 12.6 44.55
Q 13 44.3 13.5 44.25
L 14.45 44.3
Q 15.25 44.45 15.75 44.95
L 16.3 45.55
Q 17 46.4 16.8 47.5
L 16.8 47.75
Q 16.65 48.4 16.1 48.9 16.65 48.55 16.9 48.1 17.1 47.65 17.15 47.2 17.35 46.15 16.6 45.2 16.25 44.55 15.6 44.3
L 14.8 44
Q 14.1 43.9 13.45 44.05 Z"/>

<path fill="#41342E" stroke="none" d="
M 13.4 45.9
L 13.65 45.85 13.8 45.75 14.2 45.75
Q 14.7 45.9 15 46.35 15.3 46.75 15.25 47.2 15.2 47.5 15.1 47.65 15.55 47.45 15.65 46.95 15.7 46.5 15.35 46 15.05 45.6 14.55 45.5 14.1 45.4 13.75 45.6
L 13.6 45.65 13.55 45.65 13.4 45.9 Z"/>

<path fill="#61524B" stroke="none" d="
M 13.65 45.85
L 13.4 45.9 13.2 46.35
Q 13.15 46.85 13.4 47.25 13.7 47.65 14.2 47.8
L 14.35 47.85 15 47.7 15.05 47.7 15.1 47.65
Q 15.2 47.5 15.25 47.2 15.3 46.75 15 46.35 14.7 45.9 14.2 45.75
L 13.8 45.75 13.65 45.85 Z"/>

<path fill="#B34611" stroke="none" d="
M 1.5 44.65
L 1.45 44.6 2.5 44.8
Q 5.45 45.25 6.85 46.1 7.75 46.6 8.55 47.2 11.25 49.35 12.4 53.65
L 12.55 54.4 13.45 54.5 13.3 53.75
Q 12.15 49.3 9.45 47.05
L 7.65 45.9
Q 5.65 44.8 2.85 44.35
L 1.75 44.2 1.25 44.15 1.25 44.6 1.5 44.65
M 15.9 36.75
Q 15.85 36.5 15.9 36.25 15.95 30.3 17.9 24.75 15.05 26.55 14.5 36.4
L 14.65 39.95 14.7 40.1 15.6 44.3
Q 16.25 44.55 16.6 45.2 17.35 46.15 17.15 47.2 17.1 47.65 16.9 48.1
L 19.7 53.55 19.75 53.55 19.85 53.7 21.3 53.2 21.5 53.1 21 52.25
Q 19.8 50.4 18.85 48.5
L 17.5 45.15 16.45 41.15
Q 16.3 40.6 16.25 40.1 16.1 39 16 37.85 15.95 37.3 15.9 36.75 Z"/>

<path fill="#97390B" stroke="none" d="
M 1.45 44.6
L 1.5 44.65 1.25 44.6 1.25 46.05 1.3 46.1 3.4 46.4
Q 5.9 47 7.65 48.35
L 8.05 48.65 8.1 48.75
Q 10.3 50.7 11.05 53.95
L 11.1 54.3 12.55 54.4 12.4 53.65
Q 11.25 49.35 8.55 47.2 7.75 46.6 6.85 46.1 5.45 45.25 2.5 44.8
L 1.45 44.6
M 45.5 8.1
L 45.4 8.9
Q 45.25 9.2 45.05 9.35
L 44.85 9.5 44.75 9.5 44.75 9.55 44.55 9.65 46.75 11.55 49 14.3 49.4 14.9
Q 50.65 16.65 51.6 18.6 48.8 8.8 40.85 3.35 40.7 3.2 40.45 3.05 38.7 2.4 36.85 2.2
L 34.1 2.2 32.8 2.4
Q 34.65 3.35 36.25 4.9
L 38.4 7.3 40.85 11.5 39.05 6.9 40.85 7.55
Q 40.8 6.85 41.35 6.4
L 41.6 6.3
Q 42.15 5.8 43.1 5.95 44.05 6.1 44.7 6.75 45.4 7.3 45.45 7.95
L 45.5 8.1 Z"/>

<path fill="#311000" stroke="none" d="
M 2.25 39.6
Q 1.95 40.25 1.85 41.1 1.6 42.25 1.7 43.7
L 1.7 43.95 1.75 44.2 2.85 44.35
Q 5.65 44.8 7.65 45.9
L 6.85 40.6 3.7 39.8 2.25 39.6
M 42.25 2.65
Q 42 2.45 41.8 2.35 40.85 1.7 37.15 0.1 36.8 -0.1 35.35 0.05 33.85 0.05 32.75 0.35 31.55 0.65 30.3 1.05
L 28.3 1.1
Q 24.55 1.3 21.05 2.35 16.7 3.6 12.8 6.2 10.2 7.85 8.15 9.85 7.4 10.65 6.7 11.5 3.15 15.55 1.8 20.75
L 1.75 20.85 1.65 21.3
Q 0.65 26.1 0.55 30.9 0.5 33.45 0.7 36
L 0.15 39.75
Q 0.1 39.95 0.15 40.1 0.05 40.6 0.05 41.15 -0.1 44.15 0.3 46.95
L 3.4 47.35
Q 5.65 48 7.1 49.3 9.2 51.1 9.85 54.1
L 10.1 55.3 10.05 55.55 11.3 55.75 17.85 55.5 22.1 54.15 23.2 53.55 23.05 53.3 22.5 52.6
Q 20.5 49.5 19.2 46.25
L 18.9 45.5 17.75 41.3
Q 17.55 40.75 17.45 40.05 17.25 39 17.2 37.85 17.1 37.55 17.1 37.3
L 17.05 36.05 18.25 23.65
Q 18.05 24.2 17.9 24.75 15.95 30.3 15.9 36.25 15.85 36.5 15.9 36.75 15.95 37.3 16 37.85 16.1 39 16.25 40.1 16.3 40.6 16.45 41.15
L 17.5 45.15 18.85 48.5
Q 19.8 50.4 21 52.25
L 21.5 53.1 21.3 53.2 19.85 53.7 17.45 54.2 17.4 54.2 17.3 54.2 16.7 54.3 16.65 54.35 14.6 54.45 14.05 54.45
Q 13.75 54.45 13.45 54.5
L 12.55 54.4 11.1 54.3 11.05 53.95
Q 10.3 50.7 8.1 48.75
L 8.05 48.65 7.65 48.35
Q 5.9 47 3.4 46.4
L 1.3 46.1 1.25 46.05 1.25 44.6
Q 1.1 42.85 1.15 41.1 1.15 40.6 1.15 40.1 1.15 39.75 1.2 39.45
L 1.15 39.4 1.3 38.4 1.55 36.7 1.65 36.15 1.6 36.15
Q 1.6 33.45 1.7 30.9 2.05 25.9 3.05 21.2
L 3.1 21.1
Q 3.15 20.95 3.2 20.85 4.65 15.55 8.45 11.5 8.95 10.9 9.6 10.25
L 9.55 10.25 9.65 10.15 11.2 8.75 11.3 8.85 13.65 7.15
Q 15.15 6.1 16.85 5.3 19.8 3.8 23.05 3.05
L 23.95 2.9
Q 26.75 2.3 29.85 2.3
L 29.9 2.25 29.65 2.15 31.1 1.7 31 1.7
Q 31.9 1.35 32.8 1.2
L 32.85 1.15 32.95 1.1 33.05 1.15
Q 34.85 0.85 36.8 1.1 39.25 2.25 40.45 3.05 40.7 3.2 40.85 3.35 48.8 8.8 51.6 18.6 51.85 19.8 52.2 21.05 52.35 21.85 52.45 22.7
L 51.75 22.95 51.9 23.55 52.15 25.05 54.05 23.1
Q 53.95 22.55 53.85 22 53.7 21.1 53.5 20.35 53.25 19.05 52.95 17.9 50.15 8.05 42.25 2.65 Z"/>

<path fill="#3F1400" stroke="none" d="
M 1.2 39.45
L 1.3 38.4 1.15 39.4 1.2 39.45
M 7.2 40.8
L 6.85 40.6 7.65 45.9 9.45 47.05
Q 12.15 49.3 13.3 53.75
L 13.45 54.5
Q 13.75 54.45 14.05 54.45
L 14.6 54.45 14.6 54.25 14.4 53.8
Q 13.35 51.15 12.5 48.55
L 12.15 48.1
Q 11.45 47.15 11.6 46.1
L 11.75 45.5 11.25 43.35
Q 9.5 41.85 7.2 40.8
M 2.9 26.9
Q 2.75 28.85 2.9 30.9 3 34.15 3.95 37.4 2.8 38.2 2.25 39.6
L 3.7 39.8 6.85 40.6 6 36.8
Q 5.25 33.85 4.9 30.9 4.3 26.3 4.6 21.7 3.6 24 2.9 26.9
M 15.55 16.8
L 15.6 16.65
Q 15.7 16.05 15.2 15.5 14.65 14.95 13.8 14.85 13 14.7 12.4 15.1 11.75 15.45 11.65 16.05
L 11.6 16.2
Q 11.6 16.75 12.1 17.25 12.45 17.65 13 17.75
L 13.35 17.9 13.85 17.9
Q 14.4 17.95 14.9 17.65 15.45 17.3 15.55 16.8
M 13.75 15.4
L 13.8 15.4
Q 14.35 15.45 14.6 15.75 14.95 16.1 14.9 16.5 14.8 16.95 14.4 17.15 14.05 17.4 13.45 17.35
L 13.35 17.3
Q 12.9 17.2 12.65 16.9 12.35 16.6 12.35 16.3
L 12.4 16.1
Q 12.5 15.75 12.85 15.5 13.15 15.35 13.65 15.35
L 13.75 15.4
M 25.6 17.7
L 29.3 17.8
Q 26.95 16.05 24.55 14.6
L 25.25 13.75 23.95 13.05 23.25 13.9 22.65 13.55 21.15 12.75 20.8 12.55
Q 20.4 12.35 20.1 12.25 19.3 11.85 18.6 11.55 17.25 10.9 15.95 10.45
L 17.35 9.3 15.65 8.65 14.4 9.8 13 9.3 11.8 8.95 11.3 8.85 11.2 8.75 9.65 10.15 9.7 10.2 12.8 11.2 12.4 11.55 11.7 12.2 12 12.3 13.1 12.75 14.25 11.75
Q 17.05 12.85 19.7 14.2
L 21.75 15.35 21.5 15.7 21.05 16.1 22.55 16.85 23.15 16.15
Q 24.35 16.9 25.6 17.7
M 21.6 9.25
Q 21.25 8.9 20.75 8.8 20.2 8.75 19.8 8.95 19.35 9.2 19.3 9.55
L 19.3 9.65
Q 19.3 10 19.6 10.35
L 20.1 10.7 20.65 10.8 21.4 10.65
Q 21.75 10.4 21.8 10.05
L 21.8 9.95
Q 21.85 9.6 21.6 9.25
M 21.1 10.3
Q 20.8 10.4 20.5 10.35 20.15 10.3 19.95 10.1 19.75 9.95 19.8 9.65 19.85 9.4 20.05 9.25 20.35 9.1 20.7 9.15 21 9.2 21.2 9.45 21.4 9.6 21.35 9.85 21.3 10.15 21.1 10.3
M 46.25 15.65
Q 46.15 15.7 46.1 15.8 45.45 16.35 45.5 17.25
L 45.5 17.45
Q 45.55 18.3 46.25 19.05 46.8 19.65 47.45 19.85
L 48.65 20
Q 49.25 20 49.8 19.7
L 50 19.6
Q 50.35 19.3 50.55 19
L 50.8 18.05 50.8 17.8
Q 50.7 16.95 50 16.2 49.25 15.45 48.1 15.3 47.05 15.1 46.25 15.65
M 46.95 16.4
Q 47.35 16.1 47.85 16.15
L 48.1 16.15
Q 48.8 16.25 49.35 16.75 49.8 17.25 49.8 17.9 49.8 18.5 49.3 18.9 48.85 19.2 48.15 19.1
L 48 19.1 47.95 19.1
Q 47.35 18.95 46.95 18.55 46.5 18.05 46.4 17.55
L 46.45 17.4 46.4 17.2
Q 46.5 16.7 46.95 16.4
M 45.4 8.9
L 45.5 8.1 45.45 7.95
Q 45.4 7.3 44.7 6.75 44.05 6.1 43.1 5.95 42.15 5.8 41.6 6.3 41.05 6.7 41.1 7.45
L 41.15 7.65 41.15 7.7
Q 41.25 8.35 41.95 8.9 42.45 9.35 43.05 9.5
L 43.45 9.65 44 9.65
Q 44.25 9.7 44.5 9.65
L 44.75 9.55 44.75 9.5 44.85 9.5 45.05 9.35
Q 45.25 9.2 45.4 8.9
M 43.2 6.65
Q 43.8 6.7 44.25 7.15 44.7 7.5 44.7 8 44.8 8.5 44.4 8.8 44.1 9 43.6 9.05
L 43.3 9
Q 42.8 8.8 42.45 8.5
L 41.85 7.75 41.9 7.5
Q 41.9 7.05 42.25 6.85 42.6 6.6 43 6.65
L 43.2 6.65 Z"/>

<path fill="#551B00" stroke="none" d="
M 6.85 40.6
L 7.2 40.8
Q 9.5 41.85 11.25 43.35
L 10.35 36.95 8.35 37.2 6 36.8 6.85 40.6 Z"/>

<path fill="#D5581B" stroke="none" d="
M 1.6 36.75
L 1.55 36.7 1.3 38.4 1.2 39.45
Q 1.15 39.75 1.15 40.1 1.15 40.6 1.15 41.1 1.1 42.85 1.25 44.6
L 1.25 44.15 1.75 44.2 1.7 43.95 1.7 43.7 1.65 43.45
Q 1.45 42.3 1.45 41.1 1.45 40.6 1.45 40.1 1.45 39.75 1.45 39.45
L 1.6 36.75 Z"/>

<path fill="#692200" stroke="none" d="
M 11.4 23.85
L 10.5 18.9 10.35 36.95 11.25 43.35 12.5 44.5 12.7 44.35 13.45 44.05 11.4 23.85
M 18.15 14.05
Q 18.85 14.35 19.35 14.7
L 19.7 14.2
Q 17.05 12.85 14.25 11.75
L 13.1 12.75 12 12.3 13.75 13.2 14.5 12.4
Q 15.7 12.8 18.15 14.05
M 11 10.95
L 10.15 10.55
Q 9.7 11 9.3 11.5 5.85 15.55 4.7 20.9
L 4.75 20.85
Q 6.3 15.45 10.4 11.5 10.65 11.2 11 10.95
M 13.8 15.4
L 13.75 15.4 13.65 15.35
Q 13.15 15.35 12.85 15.5 12.5 15.75 12.4 16.1
L 12.35 16.3
Q 12.35 16.6 12.65 16.9 12.9 17.2 13.35 17.3 13.7 17.3 14 17.1 14.25 16.9 14.35 16.45 14.4 16.05 14.2 15.7 14 15.5 13.8 15.4
M 20.5 19.3
L 21.75 18.55 20.3 18.7
Q 20.2 18.75 20.15 18.8 19.55 18.85 19.1 19.05
L 21.1 15.5 19.5 14.7
Q 17.6 17.5 16.6 20.85 16.5 21.25 16.35 21.7
L 16.55 21.75
Q 17.05 21.25 17.55 20.85 18.05 20.45 18.55 20.3
L 18.65 20.25 20 19.8 20.15 19.75 20.5 19.3
M 20.5 10.35
Q 20.8 10.4 21.1 10.3 21.3 10.15 21.35 9.85 21.4 9.6 21.2 9.45 21 9.2 20.7 9.15 20.35 9.1 20.05 9.25 19.85 9.4 19.8 9.65 19.75 9.95 19.95 10.1 20.15 10.3 20.5 10.35
M 32.8 2.4
L 32.65 2.3 31.1 1.7 29.65 2.15 29.9 2.25 29.85 2.3
Q 26.75 2.3 23.95 2.9
L 23.05 3.05
Q 19.5 3.95 16.25 5.85
L 11.8 8.95 13 9.3 13.85 8.75
Q 18.45 5.75 23.7 4.75
L 27.8 4.35 34.3 4.85 34.65 5.1 32.35 5.7
Q 28.8 6.85 25.65 8.9
L 22.5 11.35 21.15 12.75 22.65 13.55 25.6 10.55 25.55 10.55 26.1 10.1
Q 29.3 7.4 32.8 6.35 34.05 5.95 35.35 5.8
L 36.9 7.6 37 7.8
Q 37.95 9.05 38.75 10.65
L 40.1 13.55 39.7 12
Q 39.45 11.4 39.35 10.85 38.7 9.05 37.8 7.4
L 36.25 4.9
Q 34.65 3.35 32.8 2.4
M 47.85 16.15
Q 47.35 16.1 46.95 16.4 46.5 16.7 46.4 17.2
L 46.45 17.4 46.4 17.55
Q 46.5 18.05 46.95 18.55 47.35 18.95 47.95 19.1
L 48 19.1
Q 48.359375 19.0919921875 48.7 18.8 49.1 18.4 49.1 17.8 49.1 17.15 48.7 16.65 48.4 16.25 47.85 16.15
M 43.9 8.75
Q 44.2 8.4 44.1 7.9 44.1 7.45 43.75 7.05 43.45 6.7 43 6.65 42.6 6.6 42.25 6.85 41.9 7.05 41.9 7.5
L 41.85 7.75 42.45 8.5
Q 42.8 8.8 43.3 9
L 43.45 8.9 43.9 8.75 Z"/>

<path fill="#9B3606" stroke="none" d="
M 9.6 10.25
Q 8.95 10.9 8.45 11.5 4.65 15.55 3.2 20.85 3.15 20.95 3.1 21.1
L 3.05 21.2
Q 2.05 25.9 1.7 30.9 1.6 33.45 1.6 36.15
L 1.65 36.15 1.6 36.75 1.45 39.45
Q 1.45 39.75 1.45 40.1 1.45 40.6 1.45 41.1 1.45 42.3 1.65 43.45
L 1.7 43.7
Q 1.6 42.25 1.85 41.1 1.95 40.25 2.25 39.6 2.8 38.2 3.95 37.4 3 34.15 2.9 30.9 2.75 28.85 2.9 26.9 3.6 24 4.6 21.7 4.65 21 4.75 20.85
L 4.7 20.9
Q 5.85 15.55 9.3 11.5 9.7 11 10.15 10.55
L 9.6 10.25
M 11.3 8.85
L 11.8 8.95 16.25 5.85
Q 19.5 3.95 23.05 3.05 19.8 3.8 16.85 5.3 15.15 6.1 13.65 7.15
L 11.3 8.85 Z"/>

<path fill="#8D3409" stroke="none" d="
M 11 10.95
L 12.4 11.55 12.8 11.2 9.7 10.2 9.65 10.15 9.55 10.25 9.6 10.25 10.15 10.55 11 10.95
M 21.1 15.5
L 21.5 15.7 21.75 15.35 19.7 14.2 19.35 14.7 19.5 14.7 21.1 15.5
M 32.8 9.8
Q 31.6 10.7 30.45 11.9
L 28.7 14.1 34.2 16.9
Q 36.4 17.9 39.3 18.55 40.4 18.8 41.65 18.95 41.15 16.15 40.1 13.55
L 38.75 10.65
Q 37.95 9.05 37 7.8
L 36.9 7.6
Q 34.75 8.25 32.8 9.8 Z"/>

<path fill="#792903" stroke="none" d="
M 14.2 15.7
Q 14.4 16.05 14.35 16.45 14.25 16.9 14 17.1 13.7 17.3 13.35 17.3
L 13.45 17.35
Q 14.05 17.4 14.4 17.15 14.8 16.95 14.9 16.5 14.95 16.1 14.6 15.75 14.35 15.45 13.8 15.4 14 15.5 14.2 15.7
M 21.5 15.7
L 21.1 15.5 19.1 19.05
Q 19.55 18.85 20.15 18.8 20.2 18.75 20.3 18.7
L 21.75 18.55
Q 22.5 18.25 23.3 18.05
L 25.15 17.75
Q 24.05 17.05 23.05 16.7
L 22.55 17.2 21.05 16.1 21.5 15.7
M 41.8 20.1
L 41.65 18.95
Q 40.4 18.8 39.3 18.55 36.4 17.9 34.2 16.9
L 28.7 14.1 30.45 11.9
Q 31.6 10.7 32.8 9.8 34.75 8.25 36.9 7.6
L 35.35 5.8
Q 34.05 5.95 32.8 6.35 29.3 7.4 26.1 10.1
L 25.55 10.55 25.6 10.55 22.65 13.55 23.25 13.9 23.95 13.05 25.25 13.75 24.55 14.6
Q 26.95 16.05 29.3 17.8
L 35.25 18.45 41.8 20.1
M 48.7 16.65
Q 49.1 17.15 49.1 17.8 49.1 18.4 48.7 18.8 48.359375 19.0919921875 48 19.1
L 48.15 19.1
Q 48.85 19.2 49.3 18.9 49.8 18.5 49.8 17.9 49.8 17.25 49.35 16.75 48.8 16.25 48.1 16.15
L 47.85 16.15
Q 48.4 16.25 48.7 16.65
M 44.25 7.15
Q 43.8 6.7 43.2 6.65
L 43 6.65
Q 43.45 6.7 43.75 7.05 44.1 7.45 44.1 7.9 44.2 8.4 43.9 8.75
L 43.45 8.9 43.3 9 43.6 9.05
Q 44.1 9 44.4 8.8 44.8 8.5 44.7 8 44.7 7.5 44.25 7.15 Z"/>

<path fill="#9C390A" stroke="none" d="
M 22.55 16.85
L 21.05 16.1 22.55 17.2 23.05 16.7
Q 24.05 17.05 25.15 17.75
L 25.6 17.7
Q 24.35 16.9 23.15 16.15
L 22.55 16.85 Z"/>

<path fill="#BF4F18" stroke="none" d="
M 40.45 3.05
Q 39.25 2.25 36.8 1.1 34.85 0.85 33.05 1.15
L 32.95 1.1 32.85 1.15 32.8 1.2
Q 31.9 1.35 31 1.7
L 31.1 1.7 32.65 2.3 32.8 2.4 34.1 2.2 36.85 2.2
Q 38.7 2.4 40.45 3.05
M 46.1 15.8
L 45.95 15.9
Q 45.1 16.45 45.1 17.45
L 45.15 17.65
Q 45.15 18.5 45.95 19.2 46.55 19.7 47.3 19.95
L 48.55 20.1
Q 49.2 20.05 49.8 19.7 49.25 20 48.65 20
L 47.45 19.85
Q 46.8 19.65 46.25 19.05 45.55 18.3 45.5 17.45
L 45.5 17.25
Q 45.45 16.35 46.1 15.8
M 41.35 6.4
Q 40.8 6.85 40.85 7.55
L 40.9 7.8
Q 40.95 8.5 41.65 9 42.25 9.45 42.85 9.7
L 43.45 9.8 43.9 9.75
Q 44.25 9.75 44.55 9.65
L 44.75 9.55 44.5 9.65
Q 44.25 9.7 44 9.65
L 43.45 9.65 43.05 9.5
Q 42.45 9.35 41.95 8.9 41.25 8.35 41.15 7.7
L 41.15 7.65 41.1 7.45
Q 41.05 6.7 41.6 6.3
L 41.35 6.4 Z"/>

<path fill="#722A07" stroke="none" d="
M 45.2 22.05
L 45.35 22.1
Q 45.9 22.6 46.45 23.4
L 46.5 23.4 47.5 25.05 47.55 25.05 47.7 25.15
Q 48.25 25.3 48.75 25.1 48.95 25 49.1 24.95
L 51.95 23.95 51.9 23.55 51.75 22.95 52.45 22.7
Q 52.35 21.85 52.2 21.05
L 51.65 20.95
Q 48.6 20.5 45.4 21.5
L 44.8 21.75
Q 45 21.9 45.2 22.05
M 43.3 20.5
L 43.35 20.8 44.65 21.65 43.6 17.4 43.3 20.5 Z"/>

<path fill="#511A00" stroke="none" d="
M 43.3 20.5
L 43.1 19.2
Q 42.8 16.85 42.05 14.6 41.5 13 40.85 11.5
L 38.4 7.3 36.25 4.9 37.8 7.4
Q 38.7 9.05 39.35 10.85 39.45 11.4 39.7 12
L 40.1 13.55
Q 41.15 16.15 41.65 18.95
L 41.8 20.1 43.25 20.7 43.35 20.8 43.3 20.5 Z"/>

<path fill="#873107" stroke="none" d="
M 41.65 9
Q 40.95 8.5 40.9 7.8
L 40.85 7.55 39.05 6.9 40.85 11.5
Q 41.5 13 42.05 14.6 42.8 16.85 43.1 19.2
L 43.3 20.5 43.6 17.4 44.65 21.65 44.8 21.75 45.4 21.5
Q 48.6 20.5 51.65 20.95
L 52.2 21.05
Q 51.85 19.8 51.6 18.6 50.65 16.65 49.4 14.9
L 49 14.3 46.75 11.55 44.55 9.65
Q 44.25 9.75 43.9 9.75
L 43.45 9.8 42.85 9.7
Q 42.25 9.45 41.65 9
M 46.1 15.8
Q 46.15 15.7 46.25 15.65 47.05 15.1 48.1 15.3 49.25 15.45 50 16.2 50.7 16.95 50.8 17.8
L 50.8 18.05 50.55 19
Q 50.35 19.3 50 19.6
L 49.8 19.7
Q 49.2 20.05 48.55 20.1
L 47.3 19.95
Q 46.55 19.7 45.95 19.2 45.15 18.5 45.15 17.65
L 45.1 17.45
Q 45.1 16.45 45.95 15.9
L 46.1 15.8 Z"/>
</g>

<g id="_____________________________________253_0_Layer0_0_FILL">
<path fill="#838383" stroke="none" d="
M 6.35 15.85
L 6.75 15.9 13.05 15.4 13.4 15.4
Q 13.701171875 15.29609375 13.85 14.8
L 13.85 14.75 13 14.8 6 15.65 6.35 15.85 Z"/>

<path fill="#DDD6D2" stroke="none" d="
M 5.6 11.55
L 4.85 11.6 5 15.55 5.1 15.8 5.35 16.2 5.95 16.4 12.4 15.9 12.7 15.9 13.85 15.55 13.9 15.55 14.35 15.1 13.4 15.4 13.05 15.4 6.75 15.9 6.35 15.85 6 15.65 5.95 15.55 5.7 14.8 5.65 14.5 5.6 11.55
M 5.6 4.4
L 5.65 4.2 5.8 4 5.8 3.55 5.95 3.25 5.15 3.75 4.85 4.35 4.85 4.65 4.75 5.5 4.85 8.3 5.55 8.15 5.45 5 5.55 4.5 5.6 4.4
M 13.15 0.55
L 14.45 0 13.85 0 8.05 0.9 8 0.95 4.95 1.6 4.75 1.6
Q 4.35 1.7 4.1 1.9
L 3.95 2.2 8 1.35 8.05 1.35 13.15 0.55
M 16.35 2.65
L 16.4 1.8 16.25 1 16.1 1.25 15.9 1.75 15.7 3.1 15.7 3.2 15.65 3.55 15.95 16.45 15.9 16.55 15.8 16.85 16.15 16.7 16.35 16.55 16.55 16.2 16.65 15.55 16.6 14.45 16.35 3.45 16.35 2.65 Z"/>

<path fill="#C7947B" stroke="none" d="
M 8.85 10.9
L 8.4 10.95 7.75 10.8 7.35 10.85 8 11 8.4 11 8.85 10.9 Z"/>

<path fill="#B58066" stroke="none" d="
M 7.9 10.75
L 7.75 10.8 8.4 10.95 8.85 10.9 8.9 10.9
Q 9.55 10.65 9.85 10.15 9.3 10.55 8.6 10.3 8.35 10.65 7.9 10.75 Z"/>

<path fill="#DFB6A1" stroke="none" d="
M 9.85 10.15
L 10 9.75 10 9.1
Q 9.5 9.5 8.9 9.25 8.95 9.75 8.7 10.15
L 8.6 10.3
Q 9.3 10.55 9.85 10.15
M 8.2 7.9
L 8 7.9 7.3 8.2 7.2 8.4 7.25 8.4 7.55 8.2 8.2 8 8.65 7.95 8.8 7.95 8.2 7.9 Z"/>

<path fill="#EED8CD" stroke="none" d="
M 8.1 8.45
Q 8.55 8.55 8.75 8.85 8.95 9.2 8.9 9.25 9.5 9.5 10 9.1 9.85 8.45 9.35 8.15 9.05 7.95 8.8 7.95
L 8.65 7.95 8.2 8 7.55 8.2 7.25 8.4 8.1 8.45 Z"/>

<path fill="#7F533D" stroke="none" d="
M 8.75 8.85
Q 8.55 8.55 8.1 8.45
L 7.25 8.4 7.2 8.4 7.15 8.4 7.1 8.45 7.45 8.45 8.05 8.6
Q 8.45 8.75 8.6 9.2 8.7 9.6 8.55 10.05
L 8.15 10.5 7.25 10.8 7.35 10.85 7.75 10.8 7.9 10.75
Q 8.35 10.65 8.6 10.3
L 8.7 10.15
Q 8.95 9.75 8.9 9.25 8.95 9.2 8.75 8.85 Z"/>

<path fill="#61524B" stroke="none" d="
M 4.1 11.7
L 4.85 11.6 5.6 11.55 5.55 10.95 3.45 11.15 3.7 15.9 3.75 16.75 3.8 16.85 3.95 17.25 4.55 17.9
Q 5.15 18.25 6.1 18.3
L 6.5 18.3 14.2 17.75 15.5 17.45 16.1 16.95 16.2 16.8 16.25 16.75 16.35 16.55 16.15 16.7 15.8 16.85 15.7 16.9 14.8 17.15 6.45 17.65
Q 5.1 17.5 4.6 16.75
L 4.5 16.6 4.3 15.85 4.1 11.7
M 3.95 2.2
L 4.1 1.9 3.7 2.35
Q 3.25 2.9 3.3 3.9
L 3.3 4.1 3.3 5 3.45 9.05 5.55 8.7 5.55 8.15 4.85 8.3 4 8.4 3.85 3.25 3.95 2.2
M 12.1 2.4
Q 13.55 2.15 13.8 3
L 13.85 3.05 13.9 13.95
Q 13.95 14.4 13.85 14.7
L 13.85 14.75 13.85 14.8
Q 13.701171875 15.29609375 13.4 15.4
L 14.35 15.1 14.5 14.8 14.45 2.4
Q 14.2 1.45 12.65 1.7
L 8 2.6 7.95 2.6 6.25 3.05 5.95 3.25 5.8 3.55 5.8 4 6.2 3.6 6.55 3.45 12.1 2.4 Z"/>

<path fill="#7F2900" stroke="none" d="
M 2.35 11.2
L 2.35 11.35 2.65 14.8 2.9 16 3 16 3.7 15.9 3.45 11.15 3.4 11.15 2.35 11.2
M 3.3 5
L 2.2 5.2 2.25 9.25 3.45 9.05 3.3 5
M 13.85 3.05
L 12.8 3.15 12.75 3.75 13 14.8 13.85 14.75 13.85 14.7
Q 13.95 14.4 13.9 13.95
L 13.85 3.05 Z"/>

<path fill="#BB3D00" stroke="none" d="
M 1.9 11.3
L 1.7 11.3 1.75 11.35 2.65 16.05 2.9 16 2.65 14.8 2.35 11.35 2.35 11.2 1.95 11.25 1.9 11.3
M 2.2 5.2
L 1.45 5.45 1.55 9.4 2.25 9.25 2.2 5.2
M 5.6 4.4
L 5.55 4.5 5.45 5 5.55 8.15 5.55 8.7 7.1 8.45 7.15 8.4 7.2 8.4 7.3 8.2 8 7.9 8.2 7.9 8.8 7.95
Q 9.05 7.95 9.35 8.15 9.85 8.45 10 9.1
L 10 9.75 9.85 10.15
Q 9.55 10.65 8.9 10.9
L 8.85 10.9 8.4 11 8 11 7.35 10.85 7.25 10.8 5.55 10.95 5.6 11.55 5.65 14.5 5.7 14.8 5.95 15.55 6 15.65 13 14.8 12.75 3.75 5.6 4.4
M 20.75 14.1
L 20.5 13.05 20.45 13 20.15 11.35
Q 19.75 8.9 19.7 6.4
L 19.7 3.2 16.35 3.45 16.6 14.45 20.75 14.1 Z"/>

<path fill="#C5AEA2" stroke="none" d="
M 0.9 9.8
L 0.85 10.25
Q 0.8 10.95 1.7 11
L 2.1 11 7.85 10.5 8.35 10.25 8.55 10.05
Q 8.7 9.6 8.6 9.2 8.45 8.75 8.05 8.6
L 7.45 8.45 7.1 8.45 5.55 8.7 3.45 9.05 2.25 9.25 1.55 9.4
Q 1.15 9.5 0.9 9.8
M 2.25 10.3
L 1.6 10.3 1.25 10.05
Q 1.3 9.8 1.55 9.65
L 2.25 9.45 2.35 9.45 6.35 8.8
Q 7.3 8.7 7.5 9.05
L 7.55 9.05
Q 7.6 9.25 7.4 9.45
L 6.75 9.75 2.25 10.3 Z"/>

<path fill="#DBCBC2" stroke="none" d="
M 1.6 10.3
L 2.25 10.3 6.75 9.75 7.4 9.45
Q 7.6 9.25 7.55 9.05
L 7.5 9.05
Q 7.3 8.7 6.35 8.8
L 2.35 9.45 2.25 9.45 1.55 9.65
Q 1.3 9.8 1.25 10.05
L 1.6 10.3 Z"/>

<path fill="#9B8376" stroke="none" d="
M 0.9 9.8
L 0.65 10.45 0.7 10.8
Q 0.9 11.25 1.7 11.3
L 1.9 11.3 1.95 11.25 2.35 11.2 3.4 11.15 3.45 11.15 5.55 10.95 7.25 10.8 8.15 10.5 8.55 10.05 8.35 10.25 7.85 10.5 2.1 11 1.7 11
Q 0.8 10.95 0.85 10.25
L 0.9 9.8 Z"/>

<path fill="#4F1A00" stroke="none" d="
M 1.45 5.45
L 2.2 5.2 3.3 5 3.3 4.1 3.15 4.1 0.65 4.6 0.1 6.95
Q -0.15 9.05 0.15 11.35
L 0.95 14.8 1.8 16.95 3 16.75 3 16.8 3.75 16.75 3.7 15.9 3 16 2.9 16 2.65 16.05 1.75 11.35 1.7 11.3
Q 0.9 11.25 0.7 10.8
L 0.65 10.45 0.9 9.8
Q 1.15 9.5 1.55 9.4
L 1.45 5.45
M 13.8 3
Q 13.55 2.15 12.1 2.4
L 6.55 3.45 6.2 3.6 5.8 4 5.65 4.2 12.8 3.15 13.85 3.05 13.8 3 Z"/>

<path fill="#692200" stroke="none" d="
M 8.05 0.55
Q 8 0.75 8 0.95
L 8.05 0.9
Q 8.05 0.7 8.1 0.5
L 8.05 0.55 Z"/>

<path fill="#D5581B" stroke="none" d="
M 12.75 3.75
L 12.8 3.15 5.65 4.2 5.6 4.4 12.75 3.75
M 16.35 3.45
L 19.7 3.2 19.75 2.4 16.35 2.65 16.35 3.45
M 21.75 5.8
L 21.85 3 19.7 3.2 19.7 6.4
Q 19.75 8.9 20.15 11.35
L 20.45 13 20.5 13.05 20.75 14.1 22.6 13.95 22.85 13.95 22.6 12.9 22.55 12.85 22.55 12.8 22.25 11.35
Q 21.8 8.6 21.75 5.8 Z"/>

<path fill="#B19F96" stroke="none" d="
M 16.1 1.25
L 16.25 1 16.15 0.8
Q 15.7 0.05 14.45 0
L 13.15 0.55 8.05 1.35 8 1.35 3.95 2.2 3.85 3.25 4 8.4 4.85 8.3 4.75 5.5 4.85 4.65 4.85 4.35 5.15 3.75 5.95 3.25 6.25 3.05 7.95 2.6 8 2.6 12.65 1.7
Q 14.2 1.45 14.45 2.4
L 14.5 14.8 14.35 15.1 13.9 15.55 13.85 15.55 12.7 15.9 12.4 15.9 5.95 16.4 5.35 16.2 5.1 15.8 5 15.55 4.85 11.6 4.1 11.7 4.3 15.85 4.5 16.6 4.6 16.75
Q 5.1 17.5 6.45 17.65
L 14.8 17.15 15.7 16.9 15.8 16.85 15.9 16.55 15.95 16.45 15.65 3.55 15.7 3.2 15.7 3.1 15.9 1.75 16.1 1.25 Z"/>

<path fill="#E8682A" stroke="none" d="
M 21.85 3
L 21.75 5.8
Q 21.8 8.6 22.25 11.35
L 22.55 12.8 22.55 12.85 22.6 12.9 22.85 13.95 23.2 13.95 23.35 13.9 23.75 13.9
Q 22.35 11.15 22.4 4.5
L 22.5 2.2 22.4 2.2 19.75 2.4 19.7 3.2 21.85 3 Z"/>
</g>

<g id="_____________________________________2_________3_0_Layer0_0_FILL">
<path fill="#1C120E" stroke="none" d="
M 31.3 5.9
L 31.25 5.75 30.15 5.05 22.55 2 11.7 0.05 11.2 0 9.1 0.25
Q 8.1 0.45 7.2 0.75
L 5.7 1.55 5 2.1 4.1 3.45 2.35 6.9 1.4 10.1
Q -0.5 17.05 0.15 20.35
L 0.55 21.3
Q 0.9 22.1 1.45 22.5
L 2.3 23 3.5 24.35 6.55 26.35 12.95 29 17.8 30.2 23.15 30.7 31.35 29.95 31.4 29.95 32.4 29.55 33.45 28.15 33.45 28.1
Q 36.6 22.2 35.85 12.9 35.75 12.5 35.6 12.1 35.6 12.05 34.5 9.65
L 34.45 9.55
Q 33.9 8.45 33.4 7.85
L 33.25 7.75
Q 33 7.5 32.8 7.25
L 32.7 7.1 31.3 5.9
M 31.2 7
Q 31.8 7.4 32.25 7.9 32.8 8.45 33.35 9.15 33.75 9.75 34.1 10.5
L 34.75 11.9 34.9 12.7
Q 35.7 21.2 32.45 28.1
L 32.4 28.15 23.5 28.75 19.8 28.5 13.7 27 7.55 24.45 4.6 22.55 3.05 20.9 3.1 20.85 2.8 20.15
Q 2.3 19.35 2.3 18.35
L 2.3 16.5 3.15 11.55 4.55 7.1 6 4.45 6.8 3.5
Q 7.5 2.8 8.3 2.45
L 9.15 2.15
Q 10.05 1.95 10.9 1.8
L 13.75 1.65 17.45 2.15 17.6 2.1 18.15 2.25 25.6 4.2 29.55 5.9 31.2 7 Z"/>

<path fill="#9F9F9F" stroke="none" d="
M 10 6.3
L 9.9 6.45 9.95 6.4 10 6.3
M 23.5 23.25
L 20.25 22.7 18.6 22.25 13.5 20.25 11.6 19 11 18.1 10.95 17.75 11.05 15.5 12.4 10.3 13.4 8.5 13.65 8.15
Q 12.4 8.95 11.1 8.3
L 10.8 8.1
Q 9.65 7.35 9.9 6.45
L 9.4 7.25 9.4 7.3 7.9 11.35 7 15.45
Q 6.2 20.15 12.3 22.7 14.5 23.65 17.65 24.3
L 23.25 25.35 27.9 25.1 27.8 25.15 28.5 25.05
Q 28.45 23.15 30.15 22.9
L 30.05 22.85
Q 29.25 22.8 28.5 22.95
L 27 23.05 27.1 23.1 23.5 23.25 Z"/>

<path fill="#ECECEC" stroke="none" d="
M 12.55 4.6
L 11.65 4.9 11.1 5.35
Q 10.55 5.8 10.75 6.25 10.85 6.7 11.5 6.85
L 11.65 6.9
Q 12.3 7 13.1 6.8 14.05 6.55 14.55 6.1 15.05 5.6 14.95 5.15 14.8 4.7 14.1 4.5
L 14.05 4.5 13.95 4.5
Q 13.25 4.4 12.55 4.6 Z"/>

<path fill="#38251B" stroke="none" d="
M 18.15 2.25
L 17.6 2.1 17.45 2.15 13.75 1.65 10.9 1.8
Q 10.05 1.95 9.15 2.15
L 8.3 2.45
Q 7.5 2.8 6.8 3.5
L 6 4.45 4.55 7.1 3.15 11.55 2.3 16.5 2.3 18.35
Q 2.3 19.35 2.8 20.15
L 3.1 20.85 3.05 20.9 4.6 22.55 7.55 24.45 13.7 27 19.8 28.5
Q 15.25 26.5 12.3 22.7 6.2 20.15 7 15.45
L 7.9 11.35 9.4 7.3 9.4 7.25 9.9 6.45 10 6.3 9.95 6.4
Q 10.5 5.4 11.65 4.9
L 12.55 4.6
Q 13.25 4.4 13.95 4.5
L 14.05 4.5 16.7 2.85 18.15 2.25 Z"/>

<path fill="#878787" stroke="none" d="
M 26.6 9.9
L 27.4 10.35
Q 27.75 10.65 28.15 11
L 28.6 11.6 28.55 11.6
Q 28.85 11.9 29 12.3
L 29.4 13.25
Q 29.75 14 30.55 14.8 30.6 14.85 30.75 14.95
L 29.35 22.45 28.65 22.5 28.6 22.45 25.55 22.65 25.6 22.7 22.05 22.85 18.6 22.25 20.25 22.7 23.5 23.25 27.1 23.1 27 23.05 28.5 22.95
Q 29.25 22.8 30.05 22.85
L 30.15 22.9
Q 30.2 22.9 30.3 22.9 30.45 22.9 30.5 22.9 30.6 22.85 30.75 22.85
L 30.9 22.85 32.25 15.35
Q 31.2 14.5 30.85 13.65
L 30.1 12 29.6 11.4
Q 29.25 11.05 28.8 10.75
L 28.8 10.7 26.5 9.55 24.05 8.85 26.6 9.9 Z"/>

<path fill="#C2C2C2" stroke="none" d="
M 32.25 11.55
L 32.25 11.5 31.15 9.9 31.1 9.85 30.2 9.15 28.25 7.95 20.15 5.5
Q 16.45 4.5 14.1 4.5 14.8 4.7 14.95 5.15 15.05 5.6 14.55 6.1 14.05 6.55 13.1 6.8 12.3 7 11.65 6.9
L 11.5 6.85
Q 10.85 6.7 10.75 6.25 10.55 5.8 11.1 5.35
L 11.65 4.9
Q 10.5 5.4 9.95 6.4
L 9.9 6.45
Q 9.65 7.35 10.8 8.1
L 11.1 8.3
Q 12.4 8.95 13.65 8.15
L 13.75 8.05 14.05 7.8 14.1 7.75 14.5 7.65
Q 15.05 7.55 15.5 7.45
L 16.2 7.3 16.25 7.3 22.75 8.4 23.95 8.8 24.05 8.85 26.5 9.55 28.8 10.7 28.8 10.75
Q 29.25 11.05 29.6 11.4
L 30.1 12 30.85 13.65
Q 31.2 14.5 32.25 15.35
L 30.9 22.85 30.75 22.85
Q 30.6 22.85 30.5 22.9 30.45 22.9 30.3 22.9 30.2 22.9 30.15 22.9 28.45 23.15 28.5 25.05
L 32.8 24.85 34.6 15.1
Q 33.25 13.95 32.8 12.85
L 32.85 12.85 32.25 11.55 Z"/>

<path fill="#51382B" stroke="none" d="
M 32.25 7.9
Q 31.8 7.4 31.2 7
L 29.55 5.9 25.6 4.2 18.15 2.25 16.7 2.85 14.05 4.5 14.1 4.5
Q 16.45 4.5 20.15 5.5
L 28.25 7.95 30.2 9.15 31.1 9.85 31.15 9.9 32.25 11.5 32.25 11.55 32.85 12.85 32.8 12.85
Q 33.25 13.95 34.6 15.1
L 32.8 24.85 28.5 25.05 27.8 25.15 27.9 25.1 23.25 25.35 17.65 24.3
Q 14.5 23.65 12.3 22.7 15.25 26.5 19.8 28.5
L 23.5 28.75 32.4 28.15 32.45 28.1
Q 35.7 21.2 34.9 12.7
L 34.75 11.9 34.1 10.5
Q 33.75 9.75 33.35 9.15 32.8 8.45 32.25 7.9 Z"/>
</g>
</defs>

<g transform="matrix( 1, 0, 0, 1, -1.05,-4.65) ">
<g transform="matrix( 1, 0, 0, 1, 0,0) ">
<use xlink:href="#_____________________________________254_0_Layer1_0_FILL"/>
</g>

<g transform="matrix( 1, 0, 0, 1, 3.25,4.65) ">
<g transform="matrix( 1, 0, 0, 1, 0,0) ">
<use xlink:href="#_____________________________________1_________3_0_Layer0_0_FILL"/>
</g>
</g>

<g transform="matrix( 0.9864501953125, 0.1640472412109375, -0.1640472412109375, 0.9864501953125, 4.05,15.9) ">
<g transform="matrix( 1, 0, 0, 1, 0,0) ">
<use xlink:href="#_____________________________________253_0_Layer0_0_FILL"/>
</g>
</g>

<g transform="matrix( 1, 0, 0, 1, 19.7,17.15) ">
<g transform="matrix( 1, 0, 0, 1, 0,0) ">
<use xlink:href="#_____________________________________2_________3_0_Layer0_0_FILL"/>
</g>
</g>
</g>
</svg>
