
<svg xmlns="http://www.w3.org/2000/svg" version="1.1" xmlns:xlink="http://www.w3.org/1999/xlink" preserveAspectRatio="none" x="0px" y="0px" width="64px" height="36px" viewBox="0 0 64 36">
<defs>
<g id="_______230_0_Layer1_0_FILL">
<path fill="#560606" stroke="none" d="
M 8.25 21.45
Q 8.45 21.15 8.6 21.2 9.35 20.6 10.1 19.95 10.55 19.45 11 18.95 11.05 18.5 11.45 18.25 11.85 17.4 12.25 16.55 12.35 16 12.45 15.6 12.45 15.5015625 12.45 15.45 12.4 15.35 12.4 15.3 12.2 14.5 11.95 13.85
L 11.8 13.9
Q 11 13.6 10.4 13.7 9 13.8 8 15.3 6.85 16.7 6.7 18.65 6.55 18.95 6.75 19.25 6.7 19.7 6.6 20.15 6.6 20.9 6.2 21.45 6 21.95 5.55 22.65 5.5 22.8 5.45 22.95
L 5.5 22.95
Q 6.5 22.45 7.5 21.95 7.8 21.75 7.9 21.7 7.9 21.4 8.25 21.45 Z"/>

<path fill="#5B0707" stroke="none" d="
M 9.25 21.1
Q 9.5 20.8 9.9 20.65 10.65 20.05 11.4 19.4 11.65 19.05 11.85 18.85 12 18.5 12.15 18.35 12.3 18 12.4 17.85 12.35 17.3 12.65 16.7 12.55 16.3 12.6 16.05 12.6 15.85 12.55 15.65 12.4515625 15.5021484375 12.45 15.45 12.45 15.5015625 12.45 15.6 12.35 16 12.25 16.55 11.85 17.4 11.45 18.25 11.05 18.5 11 18.95 10.55 19.45 10.1 19.95 9.35 20.6 8.6 21.2 8.45 21.15 8.25 21.45 7.9 21.4 7.9 21.7 7.8 21.75 7.5 21.95 6.5 22.45 5.5 22.95 6.5 22.55 7.7 22.15 8.5 21.55 9.25 21.1
M 3.25 6.05
L 3.2 6.1
Q 2.3 6.85 1.75 7.75 1.05 8.45 0.9 9.9 0.75 11 1.35 12.1 1.35 12.35 1.7 12.35 2.1 12.45 2.3 12.1 2.2 11.3 2.25 10.65 2.3 9.65 2.9 8.8 2.85 8.55 3 8.45 3.6 7.6 4.55 6.9 4.95 6.55 5.5 6.15 5 5.9 4.85 5.85 4.5 5.85 4.1 5.85 3.771875 5.75625 3.4 5.95
L 3.35 6
Q 3.3 6.05 3.25 6.05 Z"/>

<path fill="#7E0F0F" stroke="none" d="
M 5.95 15.65
Q 5.2 13.9 5.2 12.55 4.75 13.2 4.85 14.05 4.85 15.5 5 16.95 5.35 18.05 5.45 18.9 5.35 19.05 5.4 19.35 5.05 20.6 4.7 22 4.6 22.6 5.05 22.8 5.25 22.9 5.4 23
L 5.45 22.95
Q 5.5 22.8 5.55 22.65 6 21.95 6.2 21.45 6.6 20.9 6.6 20.15 6.7 19.7 6.75 19.25 6.55 18.95 6.7 18.65 6.65 17.25 5.95 15.65 Z"/>

<path fill="#3A0202" stroke="none" d="
M 3.75 8.05
Q 3.25 8.35 2.9 8.8 2.3 9.65 2.25 10.65 2.2 11.3 2.3 12.1 2.45 12 2.6 11.85 3.1 11.5 3.6 11.35 3.95 9.4 5.1 8 5.5 7.3 6.3 6.95 4.85 7 3.75 8.05 Z"/>

<path fill="#4D0404" stroke="none" d="
M 10.95 10.85
Q 10.95 10.4 11.1 10.1 10.2 10.05 9.45 10 7.1 9.95 5.95 11.45 5.4 11.9 5.2 12.55 5.2 13.9 5.95 15.65 6.65 17.25 6.7 18.65 6.85 16.7 8 15.3 9 13.8 10.4 13.7 11 13.6 11.8 13.9
L 11.95 13.85
Q 11.85 13.8 11.75 13.7 11.6 13.15 11.25 12.55 10.9 11.5 10.95 10.85 Z"/>

<path fill="#430303" stroke="none" d="
M 12.75 4.95
Q 12.4 5.1 12 5.2 9.15 5.75 7.3 7.85 5.15 9.7 5.2 12.1 5.2 12.25 5.2 12.55 5.4 11.9 5.95 11.45 7.1 9.95 9.45 10 10.2 10.05 11.1 10.1
L 11.2 10.1
Q 11.3 9.9 11.35 9.65 11.05 9.35 10.95 9.25 10.65 8.8 10.7 8.3 10.75 7.75 11.15 7.4
L 11.15 7.35 11.2 7.4
Q 11.25 7.1 11.45 6.95 11.45 7.05 11.6 6.95
L 11.65 6.95
Q 11.7 6.9 11.75 6.85 12.15 6.7 12.5 6.55 12.25 5.55 12.75 4.95
M 12.55 3.05
Q 12.35 3.05 12.3 3.05 9.75 3.55 7.55 4.05 6.25 4.25 5.15 4.85 4.2748046875 5.43359375 3.4 5.95 3.771875 5.75625 4.1 5.85 4.5 5.85 4.85 5.85 5 5.9 5.5 6.15 6 5.9 6.5 5.65 7.65 5.05 8.95 4.8 10.5 4.5 11.9 4.25 11.9 4.15 12.05 4.2 12.6 4.1 12.9 4
L 12.9 3.95
Q 12.75 3.75 12.75 3.55
L 12.65 3.45
Q 12.6 3.35 12.55 3.05 Z"/>

<path fill="#2E0101" stroke="none" d="
M 10.85 4.65
Q 11.4 4.45 11.9 4.25 10.5 4.5 8.95 4.8 7.65 5.05 6.5 5.65 6 5.9 5.5 6.15 4.95 6.55 4.55 6.9 3.6 7.6 3 8.45 2.85 8.55 2.9 8.8 3.25 8.35 3.75 8.05 4.85 7 6.3 6.95 7.7 5.8 10.85 4.65
M 62.2 13.85
Q 61.95 14.35 61.7 14.95
L 61.7 14.9
Q 61.35 15.85 61 16.95 60.25 20 59.5 22.6 59.1 23.4 58.85 24.35 58.6 25.35 58.15 26.3 57.6 27.7 57.25 29.45 57 30.3 56.9 31.15 56.85 31.35 56.85 31.55 56.85 32.1 56.8 32.8 56.85 32.9 56.9 33.15
L 56.9 33.3
Q 56.9 33.6 56.85 33.9 56.85 34 56.8 34.05 56.7 34.1 56.75 34.15
L 56.75 34.2
Q 56.6 34.2 56.6 34.35 56.3 34.35 56.15 34.55 56.05 34.5 56.1 34.6 54.55 35.1 50.2 33.75 49.85 33.65 49.5 33.55 42.3 31.3 36.25 29.05 28.15 25.75 23.45 23.6 21.6 22.7 20.1 21.8 14.25 18.05 12.55 14.05 12.4 13.95 12.4 14.05 12.05 13.15 11.9 12.2 11.75 12.15 11.8 12.1 11.8 12 11.75 11.7 11.7 11.45 11.65 11.2 11.65 11.15 11.65 11.1 11.5 10.6 11.55 10.1 11.6 10 11.6 9.9 11.5 9.8 11.35 9.65 11.3 9.9 11.2 10.1
L 11.1 10.1
Q 10.95 10.4 10.95 10.85 10.9 11.5 11.25 12.55 11.6 13.15 11.75 13.7 11.85 13.8 11.95 13.85 12.2 14.5 12.4 15.3 12.4 15.35 12.45 15.45 12.4515625 15.5021484375 12.55 15.65 12.6 15.85 12.6 16.05 12.55 16.3 12.65 16.7 12.35 17.3 12.4 17.85 12.3 18 12.15 18.35 12 18.5 11.85 18.85 11.65 19.05 11.4 19.4 10.65 20.05 9.9 20.65 9.5 20.8 9.25 21.1 8.5 21.55 7.7 22.15 6.5 22.55 5.5 22.95
L 5.45 22.95 5.4 23
Q 5.25 22.9 5.05 22.8 4.6 22.6 4.7 22 5.05 20.6 5.4 19.35 5.35 19.05 5.45 18.9 5.35 18.05 5 16.95 4.75 16.4 4.5 15.85 3.5 13.8 3.5 12.75 3.55 12.35 3.55 12.1 3.6 11.75 3.6 11.35 3.1 11.5 2.6 11.85 2.45 12 2.3 12.1 2.1 12.45 1.7 12.35 1.35 12.35 1.35 12.1 0.75 11 0.9 9.9 1.05 8.45 1.75 7.75 2.3 6.85 3.2 6.1
L 3.25 6.05
Q 3.3 6.05 3.35 6
L 3.4 5.95
Q 4.2748046875 5.43359375 5.15 4.85 6.25 4.25 7.55 4.05 9.75 3.55 12.3 3.05 12.35 3.05 12.55 3.05 12.25 2.65 12.55 2.05 12.75 1.2 14.15 0.9 14.1 0.95 14.25 1 14.95 1.45 15.4 1.85 17.7 3.1 22.15 4.55 27.65 6.35 32.75 7.15 33.9 7.35 35.2 7.5
L 35.25 7.5
Q 35.2 7.1 31.25 6.1 30 5.75 28.75 5.6 28.65 5.6 28.55 5.6 24.8 4.75 21.4 3.45 20.95 3.35 20.7 3.25 17.6 2.05 15.25 0.45 15 0.1 14.75 0.1 14.6 -0.1 14.6 0.1 14.05 0.05 13.5 0.15 12.35 0.55 12.2 0.95 11.25 1.5 11.25 2.4 9.25 2.85 7.25 3.25 7.2 3.25 7.15 3.25 5.9 3.4 4.8 4.1
L 4.75 4.05 4.75 4.1 4.7 4.15
Q 3.4 4.75 2.45 5.55 2.35 5.5 2.4 5.6 1.55 6.35 0.9 7.3 0.1 8.3 0.05 9.85 0.05 9.95 0.05 10 -0.15 11.35 0.45 12.65 0.55 12.8 0.6 12.9
L 0.65 12.95
Q 0.65 13 0.65 13.05 0.65 13.15 0.8 13.25 0.95 13.25 1.1 13.4 1.15 13.45 1.2 13.45
L 1.25 13.5
Q 1.45 13.5 1.85 13.5 1.8 13.3 2.15 13.3 2.4 13.1 2.85 12.85 2.75 13.6 3.05 14.9 3.4 15.9 4.3 17.45 4.7 18.3 4.45 19.7 3.9 20.95 3.75 22.2 3.75 23.35 4.55 23.7 4.75 23.85 5.1 23.95 6.1 23.75 7.7 22.95 9.5 21.85 11.1 20.75 12.05 19.95 12.6 19.15 13 18.25 13.2 17.35 15.7 20.5 19.4 22.65 21.25 23.6 22.9 24.55 27.65 26.7 35.8 29.85 41.7 32.05 48.95 34.45 49.2 34.6 49.6 34.7 53.85 36 55.85 35.7 56.15 35.5 56.6 35.45 56.8 35.3 56.95 35.3 57 35.15 57.2 35 57.15 34.9 57.3 34.95 57.35 34.95 57.4 34.9
L 57.45 34.9
Q 57.7 34.5 57.75 34.25 57.8 32.9 57.8 31.9 57.75 31.55 57.85 31.15 58.4 28.6 58.95 26.8 59.55 24.85 60.1 23.05 60.75 21.25 60.95 19 61.2 16.7 61.65 15.4 61.9 14.6 62.2 13.85 Z"/>

<path fill="#5F0707" stroke="none" d="
M 30.65 17.6
Q 27.95 16.7 25.2 16.2 18.95 14.6 13.7 11.35 12.65 10.55 11.6 9.9 11.6 10 11.55 10.1 11.5 10.6 11.65 11.1 11.65 11.15 11.65 11.2 11.7 11.45 11.75 11.7 11.8 12 11.8 12.1 11.75 12.15 11.9 12.2 12.05 13.15 12.4 14.05 12.4 13.95 12.55 14.05 14.25 18.05 20.1 21.8 17.65 20.05 16.15 17.9 15.2 16.35 14.45 14.4 14.2 13.85 14.15 13.45 16.2 14.35 18.85 15.25 25.15 17.05 30.65 17.6
M 24.15 10
Q 23.15 9.75 22.5 9.7 20.3 9.15 18.3 8.4 16.35 7.7 14.75 6.15 14.05 5.75 13.7 5.15 13.25 4.65 13 4.15
L 13 4.1 12.9 4
Q 12.6 4.1 12.05 4.2 11.9 4.15 11.9 4.25 11.4 4.45 10.85 4.65 7.7 5.8 6.3 6.95 5.5 7.3 5.1 8 3.95 9.4 3.6 11.35 3.6 11.75 3.55 12.1 3.55 12.35 3.5 12.75 3.5 13.8 4.5 15.85 4.75 16.4 5 16.95 4.85 15.5 4.85 14.05 4.75 13.2 5.2 12.55 5.2 12.25 5.2 12.1 5.15 9.7 7.3 7.85 9.15 5.75 12 5.2 12.4 5.1 12.75 4.95 12.25 5.55 12.5 6.55 12.55 6.7 12.6 6.65 14.2 7.8 16.6 8.75 19.7 9.8 24.15 10
M 56.95 29.45
Q 56.45 29.05 55.95 28.6 55 27.85 54.85 27.1 54.8 27.8 54.95 28.85 54.9 29.55 55.4 30.45 56.1 31.45 56.8 32.8 56.85 32.1 56.85 31.55 56.85 31.35 56.9 31.15 56.9 30.9 56.85 30.65 57 30.5 56.95 30.15 56.95 29.8 56.95 29.45 Z"/>

<path fill="#850E0E" stroke="none" d="
M 23.7 18.15
Q 24.55 18.3 25.2 18.45 30.15 19.05 36.45 18.85 33.25 18.05 30.65 17.6 25.15 17.05 18.85 15.25 16.2 14.35 14.15 13.45 14.2 13.85 14.45 14.4 15.2 16.35 16.15 17.9 17.65 20.05 20.1 21.8 21.6 22.7 23.45 23.6 28.15 25.75 36.25 29.05 27.7 24.9 23.7 18.15
M 22.5 9.7
Q 23.15 9.75 24.15 10 19.7 9.8 16.6 8.75 14.2 7.8 12.6 6.65 12.55 6.7 12.5 6.55 12.15 6.7 11.75 6.85 11.7 6.9 11.65 6.95
L 11.6 6.95
Q 11.45 7.05 11.45 6.95 11.25 7.1 11.2 7.4
L 11.15 7.35 11.15 7.4
Q 10.75 7.75 10.7 8.3 10.65 8.8 10.95 9.25 11.05 9.35 11.35 9.65 11.5 9.8 11.6 9.9 12.65 10.55 13.7 11.35 13.3 10.75 13.05 10.5 12.55 9.5 12.65 8.85 12.75 8.4 13 7.9 13.1 7.9 13.15 7.7 13.6 7.85 14.2 8.15 17.3 9.2 20.2 9.85 22.65 10.35 25.1 10.25 25.9 10.15 26.65 10.2 26.55 10.05 26.4 10.05 26.2 10 25.95 9.95 24.75 9.5 23.7 9.2 16.4 6.7 14.5 3.8 14.35 3.55 14.35 3.45 14 2.85 14.05 2.05 14.05 1.55 14.2 1.25 14.15 1.05 14.25 1 14.1 0.95 14.15 0.9 12.75 1.2 12.55 2.05 12.25 2.65 12.55 3.05 12.6 3.35 12.65 3.45
L 12.75 3.55
Q 12.75 3.75 12.9 3.95
L 12.9 4 13 4.1 13 4.15
Q 13.25 4.65 13.7 5.15 14.05 5.75 14.75 6.15 16.35 7.7 18.3 8.4 20.3 9.15 22.5 9.7
M 62.35 12.85
Q 62.4 12.8 62.4 12.75 62.2 12.55 61.95 12.9 61.9 12.85 61.85 13 60.3 15.25 59.15 18.1
L 59.15 18.15
Q 58.6 19.6 58.2 21.05
L 58.15 21.1
Q 57.85 21.85 57.5 22.4 57.35 22.35 57.35 22.45 57.15 22.8 56.9 23.15 57 22.85 56.9 22.55 56.9 20.1 57.05 18 57.1 17.75 57.15 17.5 56.85 17.85 55.55 18.2 55.15 19.15 54.95 20.05 54.75 20.9 54.75 21.7 54.65 22.85 54.9 23.8 54.95 23.85 54.95 24.05 55.15 24.25 55.15 24.6 55.9 26.05 56.65 27.45 57.15 26.15 57.65 24.85 58.5 22.3 59.3 20.55 59.8 18.75 60.65 16.95 60.7 16.65 60.75 16.5 60.85 16.05 60.95 15.6 61.6 13.95 62.35 12.85
M 61.25 8.4
Q 61.3 8.75 61.35 9.05 61.45 9.6 61.75 10.15 61.85 10.25 61.9 10.3 62.15 10.45 62.95 10.6
L 62.95 9.85
Q 62.35 8.7 62.25 8.65 62.15 8.3 62.05 8.15 62.25 8.2 62.95 9.85
L 62.4 7.55
Q 61.75 6.9 60.85 6.2 60.95 6.3 61.1 6.5 61.1 7.45 61.25 8.4 Z"/>

<path fill="#9F1010" stroke="none" d="
M 23.7 9.2
Q 23.05 8.95 22.6 8.7 18 6.6 15.4 1.85 14.95 1.45 14.25 1 14.15 1.05 14.2 1.25 14.05 1.55 14.05 2.05 14 2.85 14.35 3.45 14.35 3.55 14.5 3.8 16.4 6.7 23.7 9.2
M 35.25 7.5
L 35.2 7.5
Q 33.9 7.35 32.75 7.15 27.65 6.35 22.15 4.55 27.15 6.9 32.3 8 34.05 8.25 35.55 8.5
L 35.65 8.5
Q 35.5984375 8.5015625 35.55 8.55 35.15 8.65 34.75 8.75 32.35 9.1 29.5 9.4 31.9 9.95 34.65 9.7 34.9 9.6 35.1 9.65 35.55 9.55 36 9.45 37.35 9.2 38.65 8.75 39.85 8.45 41.2 7.95 37.85 7.55 35.25 7.5
M 46.85 18.05
Q 46.35 18 45.8 18.1 42.35 17.8 38.9 17.65 31.3 16.55 24.5 14.65 20.8 13.7 18.1 12.55 14.4 10.8 13.65 8.85 16.7 10.25 23.55 10.85 30.1 11.3 35.05 11.15 31.1 10.4 26.9 10.2
L 26.85 10.2
Q 26.8 10.15 26.8 10.2
L 26.75 10.2
Q 26.7 10.2 26.65 10.2 25.9 10.15 25.1 10.25 22.65 10.35 20.2 9.85 17.3 9.2 14.2 8.15 13.6 7.85 13.15 7.7 13.1 7.9 13 7.9 12.75 8.4 12.65 8.85 12.55 9.5 13.05 10.5 13.3 10.75 13.7 11.35 18.95 14.6 25.2 16.2 27.95 16.7 30.65 17.6 33.25 18.05 36.45 18.85 38.45 19.15 40.65 19.65 41.75 19.35 43.05 19.2 43.15 19.05 43.4 19.05 45.05 18.45 46.85 18.05
M 61.75 10.15
Q 61.7 10.3 61.85 10.45
L 61.9 10.45
Q 61.95 10.7 61.95 11.1 62.05 11.25 62.15 11.4 61 12.35 59.8 13.25 58 14.8 56.6 16.55 56.35 16.65 56.45 16.75 56.2 16.95 56.1 17.35 55.75 17.8 55.55 18.2 56.85 17.85 57.15 17.5 57.1 17.75 57.05 18 56.9 20.1 56.9 22.55 57 22.85 56.9 23.15 57.15 22.8 57.35 22.45 57.35 22.35 57.5 22.4 57.85 21.85 58.15 21.1
L 58.2 21.05
Q 58.6 19.6 59.15 18.15
L 59.15 18.1
Q 60.3 15.25 61.85 13 61.9 12.85 61.95 12.9 62.2 12.55 62.4 12.75
L 62.95 10.6
Q 62.15 10.45 61.9 10.3 61.85 10.25 61.75 10.15 Z"/>

<path fill="#911111" stroke="none" d="
M 40.5 23.3
Q 41.9 22.6 43.05 22.05 44.35 21.05 45.65 20.25 43.25 19.85 40.65 19.65 38.45 19.15 36.45 18.85 30.15 19.05 25.2 18.45 24.55 18.3 23.7 18.15 27.7 24.9 36.25 29.05 42.3 31.3 49.5 33.55 49.85 33.65 50.2 33.75 54.55 35.1 56.1 34.6 56.05 34.5 56.15 34.55 56.3 34.35 56.6 34.35 56.6 34.2 56.75 34.2
L 56.75 34.15
Q 56.7 34.1 56.8 34.05
L 56.7 34
Q 56.3 33.65 56.05 33.3 56.05 33.45 56.25 33.6 55.8 33.7 55.7 33.8 54.9 33.9 54.1 34 50.8 33.85 44.05 30.7 42.95 30.2 42.2 29.85 38.05 27.9 35.65 26.15 35.25 25.7 34.85 25.45 37 24.9 40.5 23.3 Z"/>

<path fill="#B11616" stroke="none" d="
M 43.05 22.05
Q 41.9 22.6 40.5 23.3 37 24.9 34.85 25.45 35.25 25.7 35.65 26.15 38.05 27.9 42.2 29.85 42.95 30.2 44.05 30.7 50.8 33.85 54.1 34 54.9 33.9 55.7 33.8 55.8 33.7 56.25 33.6 56.05 33.45 56.05 33.3
L 56.1 33.25
Q 55.9 33 55.85 32.9 55.2 31.75 54.9 30.8 53.9 28.55 53.9 26.65 54.05 25.45 54 24.25 54.3 22.25 54.95 20.05 55.15 19.15 55.55 18.2 55 18.3 54.6 18.55
L 54.55 18.5
Q 54 18.65 53.45 18.75 53.4 18.7 53.3 18.8 51 19.05 48.1 19.25 45.65 19.25 43.4 19.05 43.15 19.05 43.05 19.2 41.75 19.35 40.65 19.65 43.25 19.85 45.65 20.25 44.35 21.05 43.05 22.05
M 53.15 21.35
Q 52.75 23.15 52.7 24.7 52.7 27.15 54.05 30.15 54.5 31.9 55.15 33 53.25 33.05 49.55 31.7 45.65 30.25 44.15 28.95 44.4 28.75 44.65 28.5 46.1 27.4 47.7 26.45 50.25 24 53.15 21.35 Z"/>

<path fill="#C92121" stroke="none" d="
M 52.7 24.7
Q 52.75 23.15 53.15 21.35 50.25 24 47.7 26.45 46.1 27.4 44.65 28.5 44.4 28.75 44.15 28.95 45.65 30.25 49.55 31.7 53.25 33.05 55.15 33 54.5 31.9 54.05 30.15 52.7 27.15 52.7 24.7
M 61.35 9.05
Q 61.3 8.75 61.25 8.4 61.1 7.45 61.1 6.5 60.95 6.3 60.85 6.2 60.7 6.05 60.6 6 60.3 5.8 59.75 5.55 60.2 5.95 60.6 6.5 61.05 7.85 61.1 9.2 61.1 10.1 61.25 10.75 61.4 10.85 61.5 11.15 61.45 11.1 61.35 11.2 60.3 11.95 59.2 12.7 59.25 12.7 59.1 12.85 58.45 13.3 57.8 13.75 56.95 14.35 56.25 15.3 55.85 15.65 55.45 16 56.85 14.1 58.8 12.35 54.55 14.25 50.05 14.7 48.7 14.85 47.5 14.95 43.95 14.9 40.6 15.2 36.5 14.9 33.15 15 35.6 13.9 38.8 13 42.2 11.7 46.15 10.6 47.3 10.15 48.6 9.85 43.4 9.75 38.8 10.05 40.95 9.55 43.1 9.2 47.1 8.3 49.25 7.75 53.2 6.65 56.9 5.35 54.15 6.05 51.35 6.75 48.9 7.2 46.25 7.65 43.65 8 41.2 7.95 39.85 8.45 38.65 8.75 37.35 9.2 36 9.45 35.55 9.55 35.1 9.65 34.9 9.6 34.65 9.7 31.9 9.95 29.5 9.4 32.35 9.1 34.75 8.75 35.15 8.65 35.55 8.55 35.5984375 8.5015625 35.65 8.5
L 35.55 8.5
Q 34.05 8.25 32.3 8 27.15 6.9 22.15 4.55 17.7 3.1 15.4 1.85 18 6.6 22.6 8.7 23.05 8.95 23.7 9.2 24.75 9.5 25.95 9.95 26.2 10 26.4 10.05 26.55 10.05 26.65 10.2 26.7 10.2 26.75 10.2
L 26.8 10.2
Q 26.8 10.15 26.85 10.2
L 26.9 10.2
Q 31.1 10.4 35.05 11.15 30.1 11.3 23.55 10.85 16.7 10.25 13.65 8.85 14.4 10.8 18.1 12.55 20.8 13.7 24.5 14.65 31.3 16.55 38.9 17.65 42.35 17.8 45.8 18.1 46.35 18 46.85 18.05 45.05 18.45 43.4 19.05 45.65 19.25 48.1 19.25 51 19.05 53.3 18.8 53.4 18.7 53.45 18.75 54 18.65 54.55 18.5
L 54.6 18.55
Q 55 18.3 55.55 18.2 55.75 17.8 56.1 17.35 56.2 16.95 56.45 16.75 56.35 16.65 56.6 16.55 58 14.8 59.8 13.25 61 12.35 62.15 11.4 62.05 11.25 61.95 11.1 61.95 10.7 61.9 10.45
L 61.85 10.45
Q 61.7 10.3 61.75 10.15 61.45 9.6 61.35 9.05 Z"/>

<path fill="#740A0A" stroke="none" d="
M 61.7 14.95
Q 61.95 14.35 62.2 13.85 62.3 13.65 62.35 12.85 61.6 13.95 60.95 15.6 60.85 16.05 60.75 16.5 60.7 16.65 60.65 16.95 59.8 18.75 59.3 20.55 58.5 22.3 57.65 24.85 57.15 26.15 56.65 27.45 55.9 26.05 55.15 24.6 55.15 24.25 54.95 24.05 54.95 23.85 54.9 23.8 54.65 22.85 54.75 21.7 54.75 20.9 54.95 20.05 54.3 22.25 54 24.25 54.05 25.45 53.9 26.65 53.9 28.55 54.9 30.8 55.2 31.75 55.85 32.9 55.9 33 56.1 33.25
L 56.05 33.3
Q 56.3 33.65 56.7 34
L 56.8 34.05
Q 56.85 34 56.85 33.9 56.9 33.6 56.9 33.3
L 56.9 33.15
Q 56.85 32.9 56.8 32.8 56.1 31.45 55.4 30.45 54.9 29.55 54.95 28.85 54.8 27.8 54.85 27.1 55 27.85 55.95 28.6 56.45 29.05 56.95 29.45 56.95 29.8 56.95 30.15 57 30.5 56.85 30.65 56.9 30.9 56.9 31.15 57 30.3 57.25 29.45 57.6 27.7 58.15 26.3 58.6 25.35 58.85 24.35 59.1 23.4 59.5 22.6 60.25 20 61 16.95 61.35 15.85 61.7 14.9
L 61.7 14.95
M 62.05 8.15
Q 62.15 8.3 62.25 8.65 62.35 8.7 62.95 9.85 62.25 8.2 62.05 8.15 Z"/>

<path fill="#F32525" stroke="none" d="
M 61.35 11.2
Q 61.45 11.1 61.5 11.15 61.4 10.85 61.25 10.75 61.1 10.1 61.1 9.2 61.05 7.85 60.6 6.5 60.2 5.95 59.75 5.55 58.35 5.35 56.9 5.35 53.2 6.65 49.25 7.75 47.1 8.3 43.1 9.2 40.95 9.55 38.8 10.05 43.4 9.75 48.6 9.85 47.3 10.15 46.15 10.6 42.2 11.7 38.8 13 35.6 13.9 33.15 15 36.5 14.9 40.6 15.2 43.95 14.9 47.5 14.95 48.7 14.85 50.05 14.7 54.55 14.25 58.8 12.35 56.85 14.1 55.45 16 55.85 15.65 56.25 15.3 56.95 14.35 57.8 13.75 58.45 13.3 59.1 12.85 59.25 12.7 59.2 12.7 60.3 11.95 61.35 11.2 Z"/>

<path fill="#353535" stroke="none" d="
M 60.85 6.2
Q 61.75 6.9 62.4 7.55 61.5 6 60.4 5.15 58.65 4 56.05 4.85 53.15 5.4 50.2 6.3 47.2 6.85 44.2 7.15 41.5 7.35 39.35 7.1 36.95 6.8 31.25 6.1 35.2 7.1 35.25 7.5 37.85 7.55 41.2 7.95 43.65 8 46.25 7.65 48.9 7.2 51.35 6.75 54.15 6.05 56.9 5.35 58.35 5.35 59.75 5.55 60.3 5.8 60.6 6 60.7 6.05 60.85 6.2 Z"/>
</g>

<g id="_______229_0_Layer0_0_FILL">
<path fill="#F0F0F0" stroke="none" d="
M 20.9 21.95
Q 20.05 23.05 19.2 24.35 19.85 24.55 20.5 24.95 20.6 23.35 20.9 21.95
M 18 0.6
Q 17.8 0.6 17.8 0.75 10.25 4.25 1.85 6.1 2.25 6.85 3 7.75 2.95 7.75 2.9 7.75 5 9.7 7.3 11.2 7.55 11.3 7.8 11.6 7.9 11.45 8.15 11.3
L 8.2 11.3
Q 10.85 9.2 13.5 7.25 14 6.85 14.45 6.45 10.6 7 6.95 7.95 8.4 7.2 10 6.45 10 6.3 10.15 6.3 10.35 6.15 10.7 6 12.1 5.1 13.1 4.55 13.25 4.35 13.4 4.3 13.4796875 4.19375 13.5 4.15 13.52109375 4.0140625 13.65 4.1 13.699609375 4.00078125 13.75 4.05 13.70078125 3.999609375 13.8 3.95 16.15 1.85 19.05 0.1 18.45 0.25 18 0.6
M 24.95 8.9
Q 25.0109375 8.746484375 25.05 8.6 24.8498046875 8.763671875 24.65 8.95 24.2998046875 9.268359375 23.95 9.65 24.05 10.65 24.15 11.65 23.4 11.1 22.65 10.55 21.25 11.15 19.8 11.75 17.9 12.15 16 12.7 15.95 12.7 15.9 12.65 15.7 12.75 15.5 12.8 13.3 13 11.45 13.55 11.15 13.55 11 13.55 12.4 14.05 13.75 14.9 15.2 15.3 16.65 15.9 16.5 16.05 16.55 16.2
L 16.55 16.25
Q 16.4 16.85 16.25 17.45 17 17.4 17.9 17.35 18 17.25 18.1 17.3
L 18.15 17.3
Q 19.8 17.05 21.6 16.8 21.6 16.7 21.6 16.6 21.95 16.6 22.45 16.6
L 22.6 16.6
Q 23.2 16.45 23.75 16.25 23.85 16.05 23.9 16.2 23.95 16.2 24 16.15 24.3 15.95 24.6 15.95 24.75 13.2 25.05 10.6 24.7 11.2 24.5 11.8 24.2 12.35 24.05 13.1 24.4240234375 10.996484375 24.95 8.9
M 23.4 1
Q 23.390234375 0.9705078125 23.35 0.95 23.340234375 0.85 23.3 0.85
L 23.15 0.65
Q 22.7 0.35 22.4 0.2 22.3759765625 0.187109375 22.35 0.15 21.716796875 -0.1482421875 20.85 -0.1 21 -0.1 21.5 0.1 21.7 0.1 21.9 0.25
L 21.95 0.3
Q 22.35 0.45 22.75 0.8 22.9 0.95 23.2 1.25 23.9 2.3 24.4 3.3 24.45 3.3 24.5 3.3 24.95 4.1 25.35 4.9 25.25 4.45 25.3 4.35 24.7 3.3 24.05 2.4 23.75 1.7 23.4 1 Z"/>

<path fill="#ADABAB" stroke="none" d="
M 8.35 18.05
L 8.3 18.05
Q 8 18.05 7.7 18
L 7.65 17.95
Q 7.55 18.1 7.4 18.45 9.35 19.4 11.25 20.55 11.55 19.4 12.05 18.6 11.55 18.5 11.05 18.4
L 11.05 18.35
Q 10.6 18.35 10.3 18.35 9.35 18.1 8.35 18.05 Z"/>

<path fill="#E2DEDE" stroke="none" d="
M 9.7 16.45
Q 9.8 16.4 9.9 16.5 11.45 16.5 13 16.5 13.4 15.6 13.75 14.9 12.4 14.05 11 13.55 10.75 13.5 10.5 13.6 10.35 13.6 10.2 13.6 9.85 13.65 9.5 13.7 8.85 15.1 8.35 16.3 8.95 16.4 9.7 16.45
M 20.9 21.95
Q 21.25 19.3 21.6 16.8 19.8 17.05 18.15 17.3
L 18.1 17.3
Q 18 17.25 17.9 17.35 17 17.4 16.25 17.45 15.7 19.95 15.3 22.6 17.25 23.4 19.2 24.35 20.05 23.05 20.9 21.95
M 22.6 16.6
L 22.6 16.65
Q 23.25 16.5 23.9 16.5 23.9 18.85 23.9 21.2 24.35 18.5 24.6 15.95 24.3 15.95 24 16.15 23.95 16.2 23.9 16.2 23.85 16.05 23.75 16.25 23.2 16.45 22.6 16.6 Z"/>

<path fill="#C4C4C4" stroke="none" d="
M 8.2 18
Q 8.25 17.95 8.3 18.05
L 8.35 18.05
Q 9.35 18.1 10.3 18.35 10.6 18.35 11.05 18.35
L 11.05 18.4
Q 11.55 18.5 12.05 18.6 12.45 17.55 13 16.5 11.45 16.5 9.9 16.5 9.8 16.4 9.7 16.45 8.95 16.4 8.35 16.3 8 17.2 7.65 17.85 7.85 17.85 8.2 18 Z"/>

<path fill="#FAFAFA" stroke="none" d="
M 23.35 0.95
Q 23.390234375 0.9705078125 23.4 1 23.75 1.7 24.05 2.4 24.7 3.3 25.3 4.35 24.7779296875 1.795703125 23.35 0.95
M 25.4 5.1
Q 25.3 5.05 25.4 5 25.2 4.95 25.35 4.9 24.95 4.1 24.5 3.3 24.45 3.3 24.4 3.3 23.9 2.3 23.2 1.25 22.9 0.95 22.75 0.8 22.35 0.45 21.95 0.3
L 21.9 0.25
Q 21.7 0.1 21.5 0.1 21 -0.1 20.85 -0.1 19.85 -0.2 19.05 0.1 16.15 1.85 13.8 3.95 13.70078125 3.999609375 13.75 4.05 13.699609375 4.00078125 13.65 4.1 13.52109375 4.0140625 13.5 4.15 13.4796875 4.19375 13.4 4.3 13.25 4.35 13.1 4.55 12.1 5.1 10.7 6 10.35 6.15 10.15 6.3 10 6.3 10 6.45 8.4 7.2 6.95 7.95 10.6 7 14.45 6.45 14 6.85 13.5 7.25 10.85 9.2 8.2 11.3
L 8.15 11.3
Q 7.9 11.45 7.8 11.6 8.75 12.15 9.85 12.9 9.5 13.3 9.5 13.7 9.85 13.65 10.2 13.6 10.35 13.6 10.5 13.6 10.75 13.5 11 13.55 11.15 13.55 11.45 13.55 13.3 13 15.5 12.8 15.7 12.75 15.9 12.65 15.95 12.7 16 12.7 17.9 12.15 19.8 11.75 21.25 11.15 22.65 10.55 21.65 10 20.8 9.4 21.0923828125 8.5810546875 21.4 7.75 21.9205078125 6.4810546875 22.5 5.2 22.85 5.15 23.2 5.25 23.35 5.2 23.5 5.3 23.6 5.3 23.7 5.3 23.65 5.65 23.75 6.15 23.75 7.614453125 23.9 9.05 23.9173828125 9.364453125 23.95 9.65 24.2998046875 9.268359375 24.65 8.95 24.8498046875 8.763671875 25.05 8.6 25.0109375 8.746484375 24.95 8.9 24.4240234375 10.996484375 24.05 13.1 24.2 12.35 24.5 11.8 24.7 11.2 25.05 10.6 25.05 9.7447265625 25.05 8.85 25.1193359375 7.871484375 25.2 6.85
L 25.2 6.7
Q 25.05 5.85 24.85 5.15 24.95 5.05 25.05 5.1 25.15 5.05 25.25 4.95 25.25 5.05 25.4 5.1 Z"/>
</g>

<g id="_______230_0_Layer0_0_FILL">
<path fill="#F32525" stroke="none" d="
M 40.35 9.95
Q 40.311328125 9.83828125 40.25 9.7 39.5255859375 9.88125 38.8 10.05 39.580078125 9.99921875 40.35 9.95
M 44.95 14.95
Q 44.7623046875 14.7748046875 44.55 14.6 44.35 14.25 44.1 14.1 42.983984375 13.0396484375 41.9 11.85 40.31171875 12.4220703125 38.8 13 35.6 13.9 33.15 15 36.5 14.9 40.6 15.2 42.7478515625 15.0076171875 44.95 14.95
M 61.2 11.3
Q 61.2341796875 11.1318359375 61.3 11 61.2 11 61.1 10.95 60.95 10.85 60.8 10.85 60.45 10.7 60.1 10.7 59.3 11.85 58.6 13.05 58.5314453125 13.171875 58.45 13.3 58.7814453125 13.0705078125 59.1 12.85 59.25 12.7 59.2 12.7 60.2251953125 12.0009765625 61.2 11.3 Z"/>

<path fill="#C92121" stroke="none" d="
M 54.05 30.15
Q 53.760546875 29.5068359375 53.5 28.9 51.8189453125 27.7466796875 50.15 26.65 50.758203125 24.74921875 51.45 22.9 49.4896484375 24.73046875 47.7 26.45 46.1 27.4 44.65 28.5 44.4 28.75 44.15 28.95 45.65 30.25 49.55 31.7 53.25 33.05 55.15 33 54.5 31.9 54.05 30.15
M 50.4 19.05
Q 50.1423828125 18.9357421875 49.85 18.8 49.7361328125 18.9646484375 49.6 19.15 50.0345703125 19.115625 50.4 19.05
M 44.4 19.1
Q 44.587109375 18.8658203125 44.75 18.6 44.0658203125 18.8078125 43.4 19.05 43.9119140625 19.0955078125 44.4 19.1
M 45.85 16.9
Q 45.9 16.5 46.3 16.15 45.6248046875 15.5123046875 44.95 14.95 42.7478515625 15.0076171875 40.6 15.2 36.5 14.9 33.15 15 35.6 13.9 38.8 13 40.31171875 12.4220703125 41.9 11.85 41.0955078125 10.972265625 40.3 10 40.35 10 40.4 10
L 40.35 9.95
Q 39.580078125 9.99921875 38.8 10.05 39.5255859375 9.88125 40.25 9.7 39.8744140625 9.044921875 39.65 8.45 39.1423828125 8.626953125 38.65 8.75 37.35 9.2 36 9.45 35.55 9.55 35.1 9.65 34.9 9.6 34.65 9.7 31.9 9.95 29.5 9.4 32.35 9.1 34.75 8.75 35.15 8.65 35.55 8.55 35.5984375 8.5015625 35.65 8.5
L 35.55 8.5
Q 34.05 8.25 32.3 8 27.15 6.9 22.15 4.55 17.7 3.1 15.4 1.85 18 6.6 22.6 8.7 23.05 8.95 23.7 9.2 24.75 9.5 25.95 9.95 26.2 10 26.4 10.05 26.55 10.05 26.65 10.2 26.7 10.2 26.75 10.2
L 26.8 10.2
Q 26.8 10.15 26.85 10.2
L 26.9 10.2
Q 31.1 10.4 35.05 11.15 30.1 11.3 23.55 10.85 16.7 10.25 13.65 8.85 14.4 10.8 18.1 12.55 20.8 13.7 24.5 14.65 31.3 16.55 38.9 17.65 42.004296875 17.7849609375 45.1 18.05 45.4666015625 17.4865234375 45.85 16.9
M 40.85 8.05
Q 41.7591796875 8.024609375 42.65 7.95 41.9251953125 7.96484375 41.2 7.95 41.0193359375 8.0169921875 40.85 8.05
M 56.2 5.55
L 56.2 5.5
Q 54.394140625 5.9859375 52.55 6.45 54.396875 6.0427734375 56.2 5.55
M 61.1 12.2
Q 61.1634765625 12.01171875 61.2 11.8 61.171875 11.51953125 61.2 11.3 60.2251953125 12.0009765625 59.2 12.7 59.25 12.7 59.1 12.85 58.7814453125 13.0705078125 58.45 13.3 58.0814453125 13.956640625 57.7 14.55 57.8783203125 14.7166015625 58.05 14.85 58.88046875 14.041796875 59.8 13.25 60.4724609375 12.745703125 61.1 12.2 Z"/>

<path fill="#740A0A" stroke="none" d="
M 54.85 29.85
Q 54.61484375 29.61484375 54.35 29.4 54.5873046875 30.0962890625 54.9 30.8 55.2 31.75 55.85 32.9 55.9 33 56.1 33.25
L 56.05 33.3
Q 56.3 33.65 56.7 34
L 56.8 34.05
Q 56.85 34 56.85 33.9 56.9 33.6 56.9 33.3
L 56.9 33.15
Q 56.85 32.9 56.8 32.8 56.1 31.45 55.4 30.45 55.0623046875 29.8421875 54.95 29.3 54.909765625 29.5849609375 54.85 29.85
M 59.5 22.6
Q 59.553125 22.32578125 59.6 22.05 59.175 21.9791015625 58.7 21.95 58.184765625 23.2458984375 57.65 24.85 57.15 26.15 56.65 27.45 56.313671875 26.8220703125 55.95 26.15 55.8630859375 26.565625 55.75 26.95 55.5345703125 27.47890625 55.35 28.05 55.5939453125 28.3189453125 55.95 28.6 56.45 29.05 56.95 29.45 56.95 29.8 56.95 30.15 57 30.5 56.85 30.65 56.9 30.9 56.9 31.15 57 30.3 57.25 29.45 57.6 27.7 58.15 26.3 58.6 25.35 58.85 24.35 59.1 23.4 59.5 22.6
M 60.65 17.35
Q 60.6630859375 17.0748046875 60.65 16.8 60.6630859375 16.871484375 60.65 16.95 60.5869140625 17.08359375 60.5 17.2 60.5880859375 17.283203125 60.65 17.35 Z"/>

<path fill="#F0F0F0" stroke="none" d="
M 55.05 27.6
Q 54.9517578125 27.7240234375 54.85 27.8 54.492578125 28.180859375 54.1 28.55 53.916015625 28.773828125 53.7 29 54.0435546875 29.1716796875 54.35 29.4 54.61484375 29.61484375 54.85 29.85 54.909765625 29.5849609375 54.95 29.3 55.143359375 28.6626953125 55.35 28.05 55.5345703125 27.47890625 55.75 26.95 55.403515625 27.2791015625 55.05 27.6
M 56.9 5.35
Q 57.2234375 5.2244140625 57.55 5.1 56.9 5.15 56.4 5.4 56.215625 5.4 56.2 5.5
L 56.2 5.55
Q 54.396875 6.0427734375 52.55 6.45 47.7138671875 7.513671875 42.65 7.95 41.7591796875 8.024609375 40.85 8.05 40.19609375 8.119921875 39.55 8.15 39.5986328125 8.30546875 39.65 8.45 39.8744140625 9.044921875 40.25 9.7 40.311328125 9.83828125 40.35 9.95
L 40.4 10
Q 40.35 10 40.3 10 41.0955078125 10.972265625 41.9 11.85 42.983984375 13.0396484375 44.1 14.1 44.35 14.25 44.55 14.6 44.65 14.45 44.95 14.35
L 45 14.35
Q 47.95 12.7 50.85 11.2 51.4 10.9 51.95 10.6 48.753515625 10.51796875 45.65 10.75 44.9765625 10.7869140625 44.3 10.85 45.85 10.35 47.55 9.85
L 47.55 9.8
Q 47.5583984375 9.7 47.7 9.7 47.95 9.6 48.3 9.5 49.85 8.9 50.9 8.5 51.1 8.35 51.25 8.3
L 51.35 8.2
Q 51.4 8 51.5 8.15 51.59921875 8.05078125 51.65 8.1 51.60078125 8.049609375 51.7 8 54.1201171875 6.476171875 56.9 5.35
M 61.9 14.55
Q 61.89140625 14.575 61.85 14.6 61.7181640625 14.6615234375 61.6 14.75 61.41015625 14.844921875 61.2 14.95 60.986328125 15.1162109375 60.75 15.3 60.7130859375 16.037890625 60.65 16.8 60.6630859375 17.0748046875 60.65 17.35 60.5880859375 17.283203125 60.5 17.2 60.1869140625 16.8580078125 59.85 16.5 59.59921875 16.24921875 59.35 16 57.886328125 16.3416015625 56.4 16.65 56.386328125 16.6916015625 56.35 16.7 54.4 16.8 52.45 17.05 52.4 17.05 52.35 16.95 52.15 17.05 51.95 17.05 49.7 16.85 47.8 17.1 47.5 17.05 47.35 17 48.7 17.75 49.85 18.8 50.1423828125 18.9357421875 50.4 19.05 51.521484375 19.6275390625 52.55 20.3 52.35 20.4 52.4 20.6
L 52.35 20.65
Q 52.15 21.15 51.9 21.75 52.2556640625 21.7736328125 52.65 21.8 52.844140625 21.828515625 53.05 21.85 53.29140625 21.8712890625 53.55 21.9 53.65 21.8 53.75 21.9
L 53.8 21.9
Q 54.129296875 21.9 54.45 21.9 54.5912109375 21.9 54.7 21.9 55.7984375 21.9115234375 56.9 21.95 57.10078125 21.94453125 57.3 21.95 57.3 21.85 57.3 21.75 57.527734375 21.7826171875 57.8 21.8 57.975390625 21.8650390625 58.15 21.9
L 58.3 21.9
Q 58.51796875 21.9 58.7 21.9 59.134375 21.86640625 59.5 21.8 59.6 21.65 59.65 21.8 59.7 21.8 59.75 21.75 60.05 21.6 60.35 21.65 60.6234375 20.4193359375 60.9 19.2 61.291796875 17.810546875 61.7 16.45 61.438671875 16.740234375 61.2 17.05 61.07578125 17.2984375 60.95 17.55 60.873046875 17.6462890625 60.8 17.75 60.501953125 18.175 60.3 18.7 60.6697265625 17.6439453125 61.1 16.6 61.368359375 15.999609375 61.65 15.4 61.6591796875 15.3705078125 61.65 15.35 61.80625 15.044921875 61.95 14.75 61.95 14.6 62.05 14.5 61.991015625 14.5236328125 61.9 14.55
M 60.8 5.75
L 60.75 5.75
Q 60.167578125 5.3130859375 59.35 5.2 59.5205078125 5.2423828125 59.95 5.5 60.15 5.55 60.3 5.7
L 60.35 5.75
Q 60.6908203125 5.9630859375 60.95 6.25 61.0056640625 6.3408203125 61.05 6.4 61.2 6.55 61.45 6.9 61.9 8.05 62.25 9.1 62.3 9.15 62.35 9.15 62.5970703125 9.85 62.85 10.55 62.8767578125 10.669140625 62.9 10.75 62.9271484375 10.8310546875 62.95 10.9 62.9369140625 10.769140625 62.9 10.65 62.926171875 10.6333984375 62.9 10.6 62.9345703125 10.476953125 62.95 10.4 62.966796875 10.333203125 63 10.3 62.9751953125 10.2365234375 62.95 10.15 62.6501953125 9.4189453125 62.3 8.7 62.491796875 8.9716796875 62.95 9.85
L 62.4 7.6
Q 62.3865234375 7.5671875 62.35 7.5 62.0853515625 7.237109375 61.75 6.95 61.7345703125 6.8296875 61.7 6.7
L 61.7 6.65
Q 61.65 6.55 61.6 6.55
L 61.5 6.3
Q 61.1 5.95 60.8 5.75 Z"/>

<path fill="#5F0707" stroke="none" d="
M 56.95 29.45
Q 56.45 29.05 55.95 28.6 55.5939453125 28.3189453125 55.35 28.05 55.143359375 28.6626953125 54.95 29.3 55.0623046875 29.8421875 55.4 30.45 56.1 31.45 56.8 32.8 56.85 32.1 56.85 31.55 56.85 31.35 56.9 31.15 56.9 30.9 56.85 30.65 57 30.5 56.95 30.15 56.95 29.8 56.95 29.45
M 30.65 17.6
Q 27.95 16.7 25.2 16.2 18.95 14.6 13.7 11.35 12.65 10.55 11.6 9.9 11.6 10 11.55 10.1 11.5 10.6 11.65 11.1 11.65 11.15 11.65 11.2 11.7 11.45 11.75 11.7 11.8 12 11.8 12.1 11.75 12.15 11.9 12.2 12.05 13.15 12.4 14.05 12.4 13.95 12.55 14.05 14.25 18.05 20.1 21.8 17.65 20.05 16.15 17.9 15.2 16.35 14.45 14.4 14.2 13.85 14.15 13.45 16.2 14.35 18.85 15.25 25.15 17.05 30.65 17.6
M 24.15 10
Q 23.15 9.75 22.5 9.7 20.3 9.15 18.3 8.4 16.35 7.7 14.75 6.15 14.05 5.75 13.7 5.15 13.25 4.65 13 4.15
L 13 4.1 12.9 4
Q 12.6 4.1 12.05 4.2 11.9 4.15 11.9 4.25 11.4 4.45 10.85 4.65 7.7 5.8 6.3 6.95 5.5 7.3 5.1 8 3.95 9.4 3.6 11.35 3.6 11.75 3.55 12.1 3.55 12.35 3.5 12.75 3.5 13.8 4.5 15.85 4.75 16.4 5 16.95 4.85 15.5 4.85 14.05 4.75 13.2 5.2 12.55 5.2 12.25 5.2 12.1 5.15 9.7 7.3 7.85 9.15 5.75 12 5.2 12.4 5.1 12.75 4.95 12.25 5.55 12.5 6.55 12.55 6.7 12.6 6.65 14.2 7.8 16.6 8.75 19.7 9.8 24.15 10 Z"/>

<path fill="#2E0101" stroke="none" d="
M 59.5 22.6
Q 59.1 23.4 58.85 24.35 58.6 25.35 58.15 26.3 57.6 27.7 57.25 29.45 57 30.3 56.9 31.15 56.85 31.35 56.85 31.55 56.85 32.1 56.8 32.8 56.85 32.9 56.9 33.15
L 56.9 33.3
Q 56.9 33.6 56.85 33.9 56.85 34 56.8 34.05 56.7 34.1 56.75 34.15
L 56.75 34.2
Q 56.6 34.2 56.6 34.35 56.3 34.35 56.15 34.55 56.05 34.5 56.1 34.6 54.55 35.1 50.2 33.75 49.85 33.65 49.5 33.55 42.3 31.3 36.25 29.05 28.15 25.75 23.45 23.6 21.6 22.7 20.1 21.8 14.25 18.05 12.55 14.05 12.4 13.95 12.4 14.05 12.05 13.15 11.9 12.2 11.75 12.15 11.8 12.1 11.8 12 11.75 11.7 11.7 11.45 11.65 11.2 11.65 11.15 11.65 11.1 11.5 10.6 11.55 10.1 11.6 10 11.6 9.9 11.5 9.8 11.35 9.65 11.3 9.9 11.2 10.1
L 11.1 10.1
Q 10.95 10.4 10.95 10.85 10.9 11.5 11.25 12.55 11.6 13.15 11.75 13.7 11.85 13.8 11.95 13.85 12.2 14.5 12.4 15.3 12.4 15.35 12.45 15.45 12.4515625 15.5021484375 12.55 15.65 12.6 15.85 12.6 16.05 12.55 16.3 12.65 16.7 12.35 17.3 12.4 17.85 12.3 18 12.15 18.35 12 18.5 11.85 18.85 11.65 19.05 11.4 19.4 10.65 20.05 9.9 20.65 9.5 20.8 9.25 21.1 8.5 21.55 7.7 22.15 6.5 22.55 5.5 22.95
L 5.45 22.95 5.4 23
Q 5.25 22.9 5.05 22.8 4.6 22.6 4.7 22 5.05 20.6 5.4 19.35 5.35 19.05 5.45 18.9 5.35 18.05 5 16.95 4.75 16.4 4.5 15.85 3.5 13.8 3.5 12.75 3.55 12.35 3.55 12.1 3.6 11.75 3.6 11.35 3.1 11.5 2.6 11.85 2.45 12 2.3 12.1 2.1 12.45 1.7 12.35 1.35 12.35 1.35 12.1 0.75 11 0.9 9.9 1.05 8.45 1.75 7.75 2.3 6.85 3.2 6.1
L 3.25 6.05
Q 3.3 6.05 3.35 6
L 3.4 5.95
Q 4.2748046875 5.43359375 5.15 4.85 6.25 4.25 7.55 4.05 9.75 3.55 12.3 3.05 12.35 3.05 12.55 3.05 12.25 2.65 12.55 2.05 12.75 1.2 14.15 0.9 14.1 0.95 14.25 1 14.95 1.45 15.4 1.85 17.7 3.1 22.15 4.55 27.65 6.35 32.75 7.15 33.9 7.35 35.2 7.5
L 35.25 7.5
Q 35.2 7.1 31.25 6.1 30 5.75 28.75 5.6 28.65 5.6 28.55 5.6 24.8 4.75 21.4 3.45 20.95 3.35 20.7 3.25 17.6 2.05 15.25 0.45 15 0.1 14.75 0.1 14.6 -0.1 14.6 0.1 14.05 0.05 13.5 0.15 12.35 0.55 12.2 0.95 11.25 1.5 11.25 2.4 9.25 2.85 7.25 3.25 7.2 3.25 7.15 3.25 5.9 3.4 4.8 4.1
L 4.75 4.05 4.75 4.1 4.7 4.15
Q 3.4 4.75 2.45 5.55 2.35 5.5 2.4 5.6 1.55 6.35 0.9 7.3 0.1 8.3 0.05 9.85 0.05 9.95 0.05 10 -0.15 11.35 0.45 12.65 0.55 12.8 0.6 12.9
L 0.65 12.95
Q 0.65 13 0.65 13.05 0.65 13.15 0.8 13.25 0.95 13.25 1.1 13.4 1.15 13.45 1.2 13.45
L 1.25 13.5
Q 1.45 13.5 1.85 13.5 1.8 13.3 2.15 13.3 2.4 13.1 2.85 12.85 2.75 13.6 3.05 14.9 3.4 15.9 4.3 17.45 4.7 18.3 4.45 19.7 3.9 20.95 3.75 22.2 3.75 23.35 4.55 23.7 4.75 23.85 5.1 23.95 6.1 23.75 7.7 22.95 9.5 21.85 11.1 20.75 12.05 19.95 12.6 19.15 13 18.25 13.2 17.35 15.7 20.5 19.4 22.65 21.25 23.6 22.9 24.55 27.65 26.7 35.8 29.85 41.7 32.05 48.95 34.45 49.2 34.6 49.6 34.7 53.85 36 55.85 35.7 56.15 35.5 56.6 35.45 56.8 35.3 56.95 35.3 57 35.15 57.2 35 57.15 34.9 57.3 34.95 57.35 34.95 57.4 34.9
L 57.45 34.9
Q 57.7 34.5 57.75 34.25 57.8 32.9 57.8 31.9 57.75 31.55 57.85 31.15 58.4 28.6 58.95 26.8 59.55 24.85 60.1 23.05 60.7166015625 21.342578125 60.9 19.2 60.6234375 20.4193359375 60.35 21.65 59.7 24.1 58.8 26.7 59.153125 24.669921875 59.5 22.6
M 10.85 4.65
Q 11.4 4.45 11.9 4.25 10.5 4.5 8.95 4.8 7.65 5.05 6.5 5.65 6 5.9 5.5 6.15 4.95 6.55 4.55 6.9 3.6 7.6 3 8.45 2.85 8.55 2.9 8.8 3.25 8.35 3.75 8.05 4.85 7 6.3 6.95 7.7 5.8 10.85 4.65 Z"/>

<path fill="#E2DEDE" stroke="none" d="
M 59.6 22.05
Q 59.553125 22.32578125 59.5 22.6 59.153125 24.669921875 58.8 26.7 59.7 24.1 60.35 21.65 60.05 21.6 59.75 21.75 59.7 21.8 59.65 21.8 59.6 21.65 59.5 21.8 59.134375 21.86640625 58.7 21.9 58.51796875 21.9 58.3 21.9
L 58.3 21.95
Q 58.5041015625 21.95 58.7 21.95 59.175 21.9791015625 59.6 22.05
M 51.9 21.75
Q 51.672265625 22.3251953125 51.45 22.9 50.758203125 24.74921875 50.15 26.65 51.8189453125 27.7466796875 53.5 28.9 53.6166015625 28.9443359375 53.7 29 53.916015625 28.773828125 54.1 28.55 54.492578125 28.180859375 54.85 27.8 54.9517578125 27.7240234375 55.05 27.6 55.403515625 27.2791015625 55.75 26.95 55.8630859375 26.565625 55.95 26.15 56.44140625 24.6328125 56.9 23.1 57.110546875 22.5302734375 57.3 21.95 57.10078125 21.94453125 56.9 21.95 55.7984375 21.9115234375 54.7 21.9 54.5912109375 21.9 54.45 21.9 54.129296875 21.9 53.8 21.9
L 53.75 21.9
Q 53.65 21.8 53.55 21.9 53.29140625 21.8712890625 53.05 21.85 52.844140625 21.828515625 52.65 21.8 52.2556640625 21.7736328125 51.9 21.75
M 46.85 17
Q 46.7 16.95 46.55 16.95 46.2 16.9 45.85 16.9 45.4666015625 17.4865234375 45.1 18.05 44.9259765625 18.325 44.75 18.6 44.587109375 18.8658203125 44.4 19.1 44.36640625 19.241015625 44.3 19.35 44.9 19.5 45.6 19.7 45.7 19.65 45.8 19.75 47.35 20 48.85 20.25 49.2607421875 19.6525390625 49.6 19.15 49.7361328125 18.9646484375 49.85 18.8 48.7 17.75 47.35 17 47.15 16.9 46.85 17 Z"/>

<path fill="#9F1010" stroke="none" d="
M 57.8 21.8
Q 57.527734375 21.7826171875 57.3 21.75 57.3 21.85 57.3 21.95 57.110546875 22.5302734375 56.9 23.1 57.1595703125 22.783203125 57.35 22.45 57.35 22.35 57.5 22.4 57.6650390625 22.1404296875 57.8 21.8
M 43.05 19.2
Q 43.15 19.05 43.4 19.05 44.0658203125 18.8078125 44.75 18.6 44.9259765625 18.325 45.1 18.05 42.004296875 17.7849609375 38.9 17.65 31.3 16.55 24.5 14.65 20.8 13.7 18.1 12.55 14.4 10.8 13.65 8.85 16.7 10.25 23.55 10.85 30.1 11.3 35.05 11.15 31.1 10.4 26.9 10.2
L 26.85 10.2
Q 26.8 10.15 26.8 10.2
L 26.75 10.2
Q 26.7 10.2 26.65 10.2 25.9 10.15 25.1 10.25 22.65 10.35 20.2 9.85 17.3 9.2 14.2 8.15 13.6 7.85 13.15 7.7 13.1 7.9 13 7.9 12.75 8.4 12.65 8.85 12.55 9.5 13.05 10.5 13.3 10.75 13.7 11.35 18.95 14.6 25.2 16.2 27.95 16.7 30.65 17.6 33.25 18.05 36.45 18.85 38.45 19.15 40.65 19.65 41.75 19.35 43.05 19.2
M 40.85 8.05
Q 41.0193359375 8.0169921875 41.2 7.95 37.85 7.55 35.25 7.5
L 35.2 7.5
Q 33.9 7.35 32.75 7.15 27.65 6.35 22.15 4.55 27.15 6.9 32.3 8 34.05 8.25 35.55 8.5
L 35.65 8.5
Q 35.5984375 8.5015625 35.55 8.55 35.15 8.65 34.75 8.75 32.35 9.1 29.5 9.4 31.9 9.95 34.65 9.7 34.9 9.6 35.1 9.65 35.55 9.55 36 9.45 37.35 9.2 38.65 8.75 39.1423828125 8.626953125 39.65 8.45 39.5986328125 8.30546875 39.55 8.15 40.19609375 8.119921875 40.85 8.05
M 60.8 14.65
Q 60.9412109375 13.404296875 61.1 12.2 60.4724609375 12.745703125 59.8 13.25 58.88046875 14.041796875 58.05 14.85 58.6640625 15.4283203125 59.35 16 59.59921875 16.24921875 59.85 16.5 60.3087890625 15.5388671875 60.8 14.65
M 62.6 11.05
Q 62.5 10.95 62.4 11.05 62.4861328125 11.653515625 62.5 12.35
L 62.85 11
Q 62.82578125 10.9482421875 62.85 10.9 62.7 11 62.6 11.05
M 62.9 10.6
Q 62.926171875 10.6333984375 62.9 10.65
L 62.95 10.6 62.9 10.6
M 23.7 9.2
Q 23.05 8.95 22.6 8.7 18 6.6 15.4 1.85 14.95 1.45 14.25 1 14.15 1.05 14.2 1.25 14.05 1.55 14.05 2.05 14 2.85 14.35 3.45 14.35 3.55 14.5 3.8 16.4 6.7 23.7 9.2 Z"/>

<path fill="#850E0E" stroke="none" d="
M 58.15 21.9
Q 57.975390625 21.8650390625 57.8 21.8 57.6650390625 22.1404296875 57.5 22.4 57.35 22.35 57.35 22.45 57.1595703125 22.783203125 56.9 23.1 56.44140625 24.6328125 55.95 26.15 56.313671875 26.8220703125 56.65 27.45 57.15 26.15 57.65 24.85 58.184765625 23.2458984375 58.7 21.95 58.5041015625 21.95 58.3 21.95
L 58.3 21.9 58.15 21.9
M 60.75 15.3
Q 60.75 15 60.8 14.8 60.807421875 14.7232421875 60.8 14.65 60.3087890625 15.5388671875 59.85 16.5 60.1869140625 16.8580078125 60.5 17.2 60.5869140625 17.08359375 60.65 16.95 60.6630859375 16.871484375 60.65 16.8 60.7130859375 16.037890625 60.75 15.3
M 62.9 10.6
L 62.95 10.6 62.95 10.4
Q 62.9345703125 10.476953125 62.9 10.6
M 62.35 7.5
Q 62.3865234375 7.5671875 62.4 7.6
L 62.4 7.55
Q 62.3794921875 7.5294921875 62.35 7.5
M 23.7 18.15
Q 24.55 18.3 25.2 18.45 30.15 19.05 36.45 18.85 33.25 18.05 30.65 17.6 25.15 17.05 18.85 15.25 16.2 14.35 14.15 13.45 14.2 13.85 14.45 14.4 15.2 16.35 16.15 17.9 17.65 20.05 20.1 21.8 21.6 22.7 23.45 23.6 28.15 25.75 36.25 29.05 27.7 24.9 23.7 18.15
M 22.5 9.7
Q 23.15 9.75 24.15 10 19.7 9.8 16.6 8.75 14.2 7.8 12.6 6.65 12.55 6.7 12.5 6.55 12.15 6.7 11.75 6.85 11.7 6.9 11.65 6.95
L 11.6 6.95
Q 11.45 7.05 11.45 6.95 11.25 7.1 11.2 7.4
L 11.15 7.35 11.15 7.4
Q 10.75 7.75 10.7 8.3 10.65 8.8 10.95 9.25 11.05 9.35 11.35 9.65 11.5 9.8 11.6 9.9 12.65 10.55 13.7 11.35 13.3 10.75 13.05 10.5 12.55 9.5 12.65 8.85 12.75 8.4 13 7.9 13.1 7.9 13.15 7.7 13.6 7.85 14.2 8.15 17.3 9.2 20.2 9.85 22.65 10.35 25.1 10.25 25.9 10.15 26.65 10.2 26.55 10.05 26.4 10.05 26.2 10 25.95 9.95 24.75 9.5 23.7 9.2 16.4 6.7 14.5 3.8 14.35 3.55 14.35 3.45 14 2.85 14.05 2.05 14.05 1.55 14.2 1.25 14.15 1.05 14.25 1 14.1 0.95 14.15 0.9 12.75 1.2 12.55 2.05 12.25 2.65 12.55 3.05 12.6 3.35 12.65 3.45
L 12.75 3.55
Q 12.75 3.75 12.9 3.95
L 12.9 4 13 4.1 13 4.15
Q 13.25 4.65 13.7 5.15 14.05 5.75 14.75 6.15 16.35 7.7 18.3 8.4 20.3 9.15 22.5 9.7 Z"/>

<path fill="#B11616" stroke="none" d="
M 43.55 21.65
Q 43.304296875 21.8544921875 43.05 22.05 41.9 22.6 40.5 23.3 37 24.9 34.85 25.45 35.25 25.7 35.65 26.15 38.05 27.9 42.2 29.85 42.95 30.2 44.05 30.7 50.8 33.85 54.1 34 54.9 33.9 55.7 33.8 55.8 33.7 56.25 33.6 56.05 33.45 56.05 33.3
L 56.1 33.25
Q 55.9 33 55.85 32.9 55.2 31.75 54.9 30.8 54.5873046875 30.0962890625 54.35 29.4 54.0435546875 29.1716796875 53.7 29 53.6166015625 28.9443359375 53.5 28.9 53.760546875 29.5068359375 54.05 30.15 54.5 31.9 55.15 33 53.25 33.05 49.55 31.7 45.65 30.25 44.15 28.95 44.4 28.75 44.65 28.5 46.1 27.4 47.7 26.45 49.4896484375 24.73046875 51.45 22.9 51.672265625 22.3251953125 51.9 21.75 52.15 21.15 52.35 20.65
L 52.4 20.6
Q 52.35 20.4 52.55 20.3 51.521484375 19.6275390625 50.4 19.05 50.0345703125 19.115625 49.6 19.15 49.2607421875 19.6525390625 48.85 20.25 48.15 21.2 47.6 22.2 46.95 22.9 46.45 23.95 45.0216796875 22.7736328125 43.55 21.65
M 44.3 19.35
Q 44.36640625 19.241015625 44.4 19.1 43.9119140625 19.0955078125 43.4 19.05 43.15 19.05 43.05 19.2 41.75 19.35 40.65 19.65 42.2990234375 19.7767578125 43.85 19.95 44.07890625 19.6818359375 44.3 19.35 Z"/>

<path fill="#911111" stroke="none" d="
M 43.35 20.8
L 43.4 20.85
Q 43.7 20.95 44 21 43.95 20.9 43.9 20.95 43.55 20.75 43.35 20.7 43.6009765625 20.3654296875 43.85 19.95 42.2990234375 19.7767578125 40.65 19.65 38.45 19.15 36.45 18.85 30.15 19.05 25.2 18.45 24.55 18.3 23.7 18.15 27.7 24.9 36.25 29.05 42.3 31.3 49.5 33.55 49.85 33.65 50.2 33.75 54.55 35.1 56.1 34.6 56.05 34.5 56.15 34.55 56.3 34.35 56.6 34.35 56.6 34.2 56.75 34.2
L 56.75 34.15
Q 56.7 34.1 56.8 34.05
L 56.7 34
Q 56.3 33.65 56.05 33.3 56.05 33.45 56.25 33.6 55.8 33.7 55.7 33.8 54.9 33.9 54.1 34 50.8 33.85 44.05 30.7 42.95 30.2 42.2 29.85 38.05 27.9 35.65 26.15 35.25 25.7 34.85 25.45 37 24.9 40.5 23.3 41.9 22.6 43.05 22.05 43.304296875 21.8544921875 43.55 21.65 43.2796875 21.4576171875 43 21.25 43.2 20.95 43.35 20.8 Z"/>

<path fill="#ADABAB" stroke="none" d="
M 44.05 21.05
L 44 21
Q 43.7 20.95 43.4 20.85
L 43.35 20.8
Q 43.2 20.95 43 21.25 43.2796875 21.4576171875 43.55 21.65 45.0216796875 22.7736328125 46.45 23.95 46.95 22.9 47.6 22.2 47.1 22 46.6 21.8
L 46.65 21.75
Q 46.2 21.7 45.9 21.65 45.0955078125 21.311328125 44.3 21.1 44.187890625 21.0806640625 44.05 21.05 Z"/>

<path fill="#C4C4C4" stroke="none" d="
M 44 21
L 44.05 21.05
Q 44.187890625 21.0806640625 44.3 21.1 45.0955078125 21.311328125 45.9 21.65 46.2 21.7 46.65 21.75
L 46.6 21.8
Q 47.1 22 47.6 22.2 48.15 21.2 48.85 20.25 47.35 20 45.8 19.75 45.7 19.65 45.6 19.7 44.9 19.5 44.3 19.35 44.07890625 19.6818359375 43.85 19.95 43.6009765625 20.3654296875 43.35 20.7 43.55 20.75 43.9 20.95 43.95 20.9 44 21 Z"/>

<path fill="#FAFAFA" stroke="none" d="
M 62.95 10.15
Q 62.9751953125 10.2365234375 63 10.3 62.9365234375 8.679296875 62.4 7.6
L 62.95 9.85
Q 62.491796875 8.9716796875 62.3 8.7 62.6501953125 9.4189453125 62.95 10.15
M 61.05 6.4
Q 61.0056640625 6.3408203125 60.95 6.25 60.6908203125 5.9630859375 60.35 5.75
L 60.3 5.7
Q 60.15 5.55 59.95 5.5 59.5205078125 5.2423828125 59.35 5.2
L 59.3 5.2
Q 58.4 4.9 57.55 5.1 57.2234375 5.2244140625 56.9 5.35 54.1201171875 6.476171875 51.7 8 51.60078125 8.049609375 51.65 8.1 51.59921875 8.05078125 51.5 8.15 51.4 8 51.35 8.2
L 51.25 8.3
Q 51.1 8.35 50.9 8.5 49.85 8.9 48.3 9.5 47.95 9.6 47.7 9.7 47.5583984375 9.7 47.55 9.8
L 47.55 9.85
Q 45.85 10.35 44.3 10.85 44.9765625 10.7869140625 45.65 10.75 48.753515625 10.51796875 51.95 10.6 51.4 10.9 50.85 11.2 47.95 12.7 45 14.35
L 44.95 14.35
Q 44.65 14.45 44.55 14.6 44.7623046875 14.7748046875 44.95 14.95 45.6248046875 15.5123046875 46.3 16.15 45.9 16.5 45.85 16.9 46.2 16.9 46.55 16.95 46.7 16.95 46.85 17 47.15 16.9 47.35 17 47.5 17.05 47.8 17.1 49.7 16.85 51.95 17.05 52.15 17.05 52.35 16.95 52.4 17.05 52.45 17.05 54.4 16.8 56.35 16.7 56.386328125 16.6916015625 56.4 16.65 57.886328125 16.3416015625 59.35 16 58.6640625 15.4283203125 58.05 14.85 57.8783203125 14.7166015625 57.7 14.55 58.0814453125 13.956640625 58.45 13.3 58.5314453125 13.171875 58.6 13.05 59.3 11.85 60.1 10.7 60.45 10.7 60.8 10.85 60.95 10.85 61.1 10.95 61.2 11 61.3 11 61.2341796875 11.1318359375 61.2 11.3 61.171875 11.51953125 61.2 11.8 61.1634765625 12.01171875 61.1 12.2 60.9412109375 13.404296875 60.8 14.65 60.807421875 14.7232421875 60.8 14.8 60.75 15 60.75 15.3 60.986328125 15.1162109375 61.2 14.95 61.41015625 14.844921875 61.6 14.75 61.7181640625 14.6615234375 61.85 14.6 61.89140625 14.575 61.9 14.55 61.991015625 14.5236328125 62.05 14.5 61.95 14.6 61.95 14.75 61.80625 15.044921875 61.65 15.35 61.6591796875 15.3705078125 61.65 15.4 61.368359375 15.999609375 61.1 16.6 60.6697265625 17.6439453125 60.3 18.7 60.501953125 18.175 60.8 17.75 60.873046875 17.6462890625 60.95 17.55 61.07578125 17.2984375 61.2 17.05 61.438671875 16.740234375 61.7 16.45 61.85 15.6 62.05 14.8 62.1208984375 14.303125 62.2 13.8 62.2689453125 13.69453125 62.3 13.4 62.369140625 13.0734375 62.45 12.75
L 62.5 12.6
Q 62.5 12.4828125 62.5 12.35 62.4861328125 11.653515625 62.4 11.05 62.5 10.95 62.6 11.05 62.7 11 62.85 10.9 62.82578125 10.9482421875 62.85 11 62.8724609375 11.0482421875 62.95 11.1 62.85 11 63 11 62.8 10.9 62.95 10.9 62.9271484375 10.8310546875 62.9 10.75 62.8767578125 10.669140625 62.85 10.55 62.5970703125 9.85 62.35 9.15 62.3 9.15 62.25 9.1 61.9 8.05 61.45 6.9 61.2 6.55 61.05 6.4
M 61.7 6.7
Q 61.7345703125 6.8296875 61.75 6.95 62.0853515625 7.237109375 62.35 7.5 62.086328125 7.0041015625 61.7 6.65
L 61.7 6.7 Z"/>

<path fill="#353535" stroke="none" d="
M 60.75 5.75
L 60.8 5.75
Q 61.1 5.95 61.5 6.3
L 61.6 6.55
Q 61.65 6.55 61.7 6.65 62.086328125 7.0041015625 62.35 7.5 62.3794921875 7.5294921875 62.4 7.55 61.5 6 60.4 5.15 58.65 4 56.05 4.85 53.15 5.4 50.2 6.3 47.2 6.85 44.2 7.15 41.5 7.35 39.35 7.1 36.95 6.8 31.25 6.1 35.2 7.1 35.25 7.5 37.85 7.55 41.2 7.95 41.9251953125 7.96484375 42.65 7.95 47.7138671875 7.513671875 52.55 6.45 54.394140625 5.9859375 56.2 5.5 56.215625 5.4 56.4 5.4 56.9 5.15 57.55 5.1 58.4 4.9 59.3 5.2
L 59.35 5.2
Q 60.167578125 5.3130859375 60.75 5.75 Z"/>

<path fill="#5B0707" stroke="none" d="
M 10.1 19.95
Q 9.35 20.6 8.6 21.2 8.45 21.15 8.25 21.45 7.9 21.4 7.9 21.7 7.8 21.75 7.5 21.95 6.5 22.45 5.5 22.95 6.5 22.55 7.7 22.15 8.5 21.55 9.25 21.1 9.5 20.8 9.9 20.65 10.65 20.05 11.4 19.4 11.65 19.05 11.85 18.85 12 18.5 12.15 18.35 12.3 18 12.4 17.85 12.35 17.3 12.65 16.7 12.55 16.3 12.6 16.05 12.6 15.85 12.55 15.65 12.4515625 15.5021484375 12.45 15.45 12.45 15.5015625 12.45 15.6 12.35 16 12.25 16.55 11.85 17.4 11.45 18.25 11.05 18.5 11 18.95 10.55 19.45 10.1 19.95
M 4.85 5.85
Q 4.5 5.85 4.1 5.85 3.771875 5.75625 3.4 5.95
L 3.35 6
Q 3.3 6.05 3.25 6.05
L 3.2 6.1
Q 2.3 6.85 1.75 7.75 1.05 8.45 0.9 9.9 0.75 11 1.35 12.1 1.35 12.35 1.7 12.35 2.1 12.45 2.3 12.1 2.2 11.3 2.25 10.65 2.3 9.65 2.9 8.8 2.85 8.55 3 8.45 3.6 7.6 4.55 6.9 4.95 6.55 5.5 6.15 5 5.9 4.85 5.85 Z"/>

<path fill="#560606" stroke="none" d="
M 8.6 21.2
Q 9.35 20.6 10.1 19.95 10.55 19.45 11 18.95 11.05 18.5 11.45 18.25 11.85 17.4 12.25 16.55 12.35 16 12.45 15.6 12.45 15.5015625 12.45 15.45 12.4 15.35 12.4 15.3 12.2 14.5 11.95 13.85
L 11.8 13.9
Q 11 13.6 10.4 13.7 9 13.8 8 15.3 6.85 16.7 6.7 18.65 6.55 18.95 6.75 19.25 6.7 19.7 6.6 20.15 6.6 20.9 6.2 21.45 6 21.95 5.55 22.65 5.5 22.8 5.45 22.95
L 5.5 22.95
Q 6.5 22.45 7.5 21.95 7.8 21.75 7.9 21.7 7.9 21.4 8.25 21.45 8.45 21.15 8.6 21.2 Z"/>

<path fill="#7E0F0F" stroke="none" d="
M 5.95 15.65
Q 5.2 13.9 5.2 12.55 4.75 13.2 4.85 14.05 4.85 15.5 5 16.95 5.35 18.05 5.45 18.9 5.35 19.05 5.4 19.35 5.05 20.6 4.7 22 4.6 22.6 5.05 22.8 5.25 22.9 5.4 23
L 5.45 22.95
Q 5.5 22.8 5.55 22.65 6 21.95 6.2 21.45 6.6 20.9 6.6 20.15 6.7 19.7 6.75 19.25 6.55 18.95 6.7 18.65 6.65 17.25 5.95 15.65 Z"/>

<path fill="#3A0202" stroke="none" d="
M 3.75 8.05
Q 3.25 8.35 2.9 8.8 2.3 9.65 2.25 10.65 2.2 11.3 2.3 12.1 2.45 12 2.6 11.85 3.1 11.5 3.6 11.35 3.95 9.4 5.1 8 5.5 7.3 6.3 6.95 4.85 7 3.75 8.05 Z"/>

<path fill="#4D0404" stroke="none" d="
M 10.95 10.85
Q 10.95 10.4 11.1 10.1 10.2 10.05 9.45 10 7.1 9.95 5.95 11.45 5.4 11.9 5.2 12.55 5.2 13.9 5.95 15.65 6.65 17.25 6.7 18.65 6.85 16.7 8 15.3 9 13.8 10.4 13.7 11 13.6 11.8 13.9
L 11.95 13.85
Q 11.85 13.8 11.75 13.7 11.6 13.15 11.25 12.55 10.9 11.5 10.95 10.85 Z"/>

<path fill="#430303" stroke="none" d="
M 12.75 4.95
Q 12.4 5.1 12 5.2 9.15 5.75 7.3 7.85 5.15 9.7 5.2 12.1 5.2 12.25 5.2 12.55 5.4 11.9 5.95 11.45 7.1 9.95 9.45 10 10.2 10.05 11.1 10.1
L 11.2 10.1
Q 11.3 9.9 11.35 9.65 11.05 9.35 10.95 9.25 10.65 8.8 10.7 8.3 10.75 7.75 11.15 7.4
L 11.15 7.35 11.2 7.4
Q 11.25 7.1 11.45 6.95 11.45 7.05 11.6 6.95
L 11.65 6.95
Q 11.7 6.9 11.75 6.85 12.15 6.7 12.5 6.55 12.25 5.55 12.75 4.95
M 12.55 3.05
Q 12.35 3.05 12.3 3.05 9.75 3.55 7.55 4.05 6.25 4.25 5.15 4.85 4.2748046875 5.43359375 3.4 5.95 3.771875 5.75625 4.1 5.85 4.5 5.85 4.85 5.85 5 5.9 5.5 6.15 6 5.9 6.5 5.65 7.65 5.05 8.95 4.8 10.5 4.5 11.9 4.25 11.9 4.15 12.05 4.2 12.6 4.1 12.9 4
L 12.9 3.95
Q 12.75 3.75 12.75 3.55
L 12.65 3.45
Q 12.6 3.35 12.55 3.05 Z"/>
</g>
</defs>

<g transform="matrix( 1, 0, 0, 1, 0,0) ">
<g transform="matrix( 1, 0, 0, 1, 0,0) ">
<use xlink:href="#_______230_0_Layer1_0_FILL"/>
</g>

<g transform="matrix( 0.986328125, 0.1647796630859375, -0.1647796630859375, 0.986328125, 38.75,1.85) ">
<g transform="matrix( 1, 0, 0, 1, 0,0) ">
<use xlink:href="#_______229_0_Layer0_0_FILL"/>
</g>
</g>

<g transform="matrix( 1, 0, 0, 1, 0,0) ">
<use xlink:href="#_______230_0_Layer0_0_FILL"/>
</g>
</g>
</svg>
