
<svg xmlns="http://www.w3.org/2000/svg" version="1.1" xmlns:xlink="http://www.w3.org/1999/xlink" preserveAspectRatio="none" x="0px" y="0px" width="60px" height="67px" viewBox="0 0 60 67">
<defs>
<g id="_______232_0_Layer0_0_FILL">
<path fill="#151111" stroke="none" d="
M 15.05 48.65
Q 12.3703125 46.9724609375 10.35 44.7 7.4177734375 41.452734375 5.85 36.95 5.509375 37.2501953125 5.2 37.6 7.365234375 43.9392578125 11.35 47.25 12.779296875 48.4458984375 14.45 49.25
L 15.05 48.65
M 21.9 7.25
L 21.9 7.2 21.4 7 20.85 6.6
Q 19.5 6.95 18.15 7.45 16.65 8.05 15.3 8.85 14.85 9.1 14.35 9.4
L 12.9 10.4 12.25 10.85 10.35 12.65 9.65 13.35 9 14.1
Q 7.55 15.75 6.35 17.55
L 5.6 18.85 5.35 19.3 5.05 19.95 4.35 21.95
Q 3.85 23.5 3.5 25.1
L 3.15 27 3.15 27.05 3.1 27.3
Q 3.3107421875 29.33515625 3.6 31.2 3.8279296875 32.4107421875 4.05 33.55 4.18515625 34.026171875 4.3 34.5
L 5.2 34.8
Q 4.5779296875 32.2505859375 4.3 29.35 4.201953125 28.3234375 4.15 27.25
L 4.5 24.55 4.5 24.5 5.2 21.65 5.25 21.6 5.25 21.5 5.9 20.15
Q 6.2365234375 19.4875 6.6 18.85 8.036328125 16.4111328125 10.05 14.2
L 11.2 13 13.35 11.1 13.45 11.05 13.5 11.05 14.05 10.6
Q 14.5 10.1 15.25 9.65 15.8 9.35 16.3 9.2
L 18.05 8.4
Q 19.5 7.8 21 7.4
L 21.9 7.25
M 32.9 8.45
Q 32.937890625 8.3986328125 32.95 8.35
L 33.25 7.4
Q 31.7892578125 6.7884765625 30.25 6.4
L 30.05 6.35
Q 29.7 6.7 29.15 7
L 29.1 7.05 29.7 7.15
Q 31.3736328125 7.7056640625 32.9 8.45
M 42.85 15.2
Q 42.66796875 14.9599609375 42.45 14.7
L 41.25 14.85
Q 42.2421875 15.992578125 43.1 17.25 44.2998046875 18.9064453125 45.35 20.8 45.495703125 21.1046875 45.65 21.4 45.83984375 21.754296875 46 22.1
L 45.6 22.4 45.55 22.45 45.55 22.5
Q 45.3203125 22.6501953125 45.05 22.8 46.00078125 25.5724609375 46.65 28.4 46.903515625 29.398046875 47.1 30.35
L 47 31.6 47.6 31.8
Q 47.649609375 31.63515625 47.65 31.45 47.64765625 31.063671875 47.6 30.65 47.5109375 29.494921875 47.35 28.3 47.33984375 28.248828125 47.3 28.15 46.9587890625 25.4494140625 46.25 22.75 46.298828125 22.75859375 46.3 22.75 46.841015625 22.3837890625 47.25 22 47.0806640625 21.6900390625 46.9 21.35 46.68359375 20.9736328125 46.45 20.55 46.267578125 20.254296875 46.05 19.95 44.5451171875 17.3296875 42.85 15.2 Z"/>

<path fill="#171212" stroke="none" d="
M 5.85 36.95
Q 5.9607421875 36.9095703125 6.05 36.85
L 6.15 36.8 6.3 35.2 6.3 35.15 5.2 34.8 4.3 34.5
Q 4.705859375 36.14765625 5.2 37.6 5.509375 37.2501953125 5.85 36.95 Z"/>

<path fill="#310F0F" stroke="none" d="
M 6.45 35.25
L 6.3 35.15 6.3 35.2 6.45 35.25 Z"/>

<path fill="#150F0F" stroke="none" d="
M 7.45 25.75
L 7.05 25.1 6.3 35.15 6.45 35.25 6.3 35.2 6.15 36.8 6.05 36.85
Q 5.9607421875 36.9095703125 5.85 36.95 7.4177734375 41.452734375 10.35 44.7 12.3703125 46.9724609375 15.05 48.65
L 26.25 47.15
Q 31.4576171875 45.9705078125 35.95 43.9 24.14453125 44.276953125 17.2 37.85
L 17.15 37.9 12.95 33.35
Q 9.7 29.55 7.45 25.75 Z"/>

<path fill="#7B0000" stroke="none" d="
M 7.05 25.1
L 7.05 25.05 7 25.05 7.05 25.1 Z"/>

<path fill="#2A1B1B" stroke="none" d="
M 10.45 15.25
Q 10.8 15.05 11.2 14.9
L 11.05 14.6 10.3 15.35 10.45 15.25
M 20.6 18.45
Q 20.5576171875 18.37734375 20.5 18.3 19.053515625 15.85546875 17.3 14.65 15.958203125 13.7125 14.45 13.5
L 13.45 13.55 13.4 13.6
Q 13.15 14.15 12.65 14.55
L 12.65 14.6 13.25 14.65
Q 14.3498046875 14.84296875 15.35 15.4 16.9296875 16.3076171875 18.25 18.15
L 18.3 18.3 19.4 20.25
Q 19.633984375 19.695703125 19.9 19.2 20.1359375 18.8306640625 20.35 18.5
L 20.45 18.5 20.7 18.55 20.6 18.45 Z"/>

<path fill="#5F5C5C" stroke="none" d="
M 13.4 13.6
L 13.45 13.55
Q 13.65 13.05 13.5 12.7 13.35 12.35 12.9 12.35 12.45 12.4 11.95 12.8 11.4 13.2 11.2 13.75 10.95 14.25 11.05 14.6
L 11.2 14.9
Q 11.4 15.05 11.7 15.05 12.15 15 12.65 14.6
L 12.65 14.55
Q 13.15 14.15 13.4 13.6
M 13.75 11.95
Q 14 12.4 14.8 12.35 15.6 12.3 16.45 11.8 17.35 11.3 17.75 10.65 18 10.3 18 10 18.05 9.75 17.95 9.5 17.65 9.1 16.9 9.1
L 16.3 9.2
Q 15.8 9.35 15.25 9.65 14.5 10.1 14.05 10.6
L 13.95 10.8
Q 13.5 11.5 13.75 11.95
M 32.9 10.55
L 32.8 9.9
Q 31.9181640625 9.555859375 31 9.25 29.78203125 8.8419921875 28.5 8.5 28.3 8.9 27.75 9.25 28.4970703125 9.5681640625 29.25 9.95 31.2109375 10.9119140625 33.2 12.25
L 33.6 12 33.2 11.3 32.9 10.55 Z"/>

<path fill="#545454" stroke="none" d="
M 3.6 24.05
L 1.25 23.5
Q 0.95 24.75 0.85 25.75
L 0.85 26.6 3.05 27.25
Q 3.0634765625 27.13828125 3.05 27 3.1126953125 26.734375 3.15 26.45 3.335546875 25.220703125 3.6 24.05
M 9.7 11.4
L 7.85 9.35 5.95 11.2 5.35 12 7.05 14.1
Q 8.3 12.6 9.7 11.4 Z"/>

<path fill="#2A2A2A" stroke="none" d="
M 1.25 23.5
L 2.2 20.45 3.15 18.65 5.35 19.3 5.6 18.85 2.75 18
Q 2.4 18.05 1.85 19.15
L 0.35 23.3 0 25.45
Q -0.1 26.85 0.3 26.95
L 3 27.8 3.1 27.3 3.15 27.05 3.05 27.25 0.85 26.6 0.85 25.75
Q 0.95 24.75 1.25 23.5
M 12.95 5.15
Q 12.55 4.95 11.3 5.6 10.8 5.85 10.15 6.25 9.2 6.85 8.15 7.7
L 7.1 8.55
Q 6.05 9.5 5.35 10.4 4.3 11.6 4.6 11.95
L 6.9 14.9
Q 6.95 15 7.5 14.7
L 9.65 13.3 9.65 13.35 10.35 12.65 10.05 12.25 10.7 11.5 12.65 10.05 12.9 10.4 14.35 9.4 15 8.7
Q 15.35 8.35 15.4 8.2
L 12.95 5.15
M 10.8 7.1
L 12 6.4
Q 12.5 6.1 12.9 6
L 14.55 8.1 12.9 9.7 12.75 9.5
Q 10.25 11.15 9.1 12.65
L 9.15 12.7 7.05 14.1 5.35 12 5.95 11.2 7.85 9.35 10.8 7.1 Z"/>

<path fill="#696969" stroke="none" d="
M 2.2 20.45
L 1.25 23.5 3.6 24.05
Q 3.95 22.55 4.5 21.15
L 2.2 20.45
M 12.5 9.25
L 10.8 7.1 7.85 9.35 9.7 11.4
Q 11.05 10.2 12.5 9.25 Z"/>

<path fill="#271E1E" stroke="none" d="
M 4.5 24.5
L 4.5 24.55 4.15 27.25
Q 4.201953125 28.3234375 4.3 29.35 4.5779296875 32.2505859375 5.2 34.8
L 6.3 35.15 7.05 25.1 7 25.05 6.75 24.6 6.75 24.55 6.7 24.55 6.35 23.95 5.25 21.6 5.2 21.65 4.5 24.5 Z"/>

<path fill="#808080" stroke="none" d="
M 4.5 21.15
L 5.05 19.95 5.35 19.3 3.15 18.65 2.2 20.45 4.5 21.15
M 10.8 7.1
L 12.5 9.25
Q 13.5 8.65 14.55 8.1
L 12.9 6
Q 12.5 6.1 12 6.4
L 10.8 7.1 Z"/>

<path fill="#3A3A3A" stroke="none" d="
M 5.05 19.95
L 4.5 21.15
Q 3.95 22.55 3.6 24.05 3.335546875 25.220703125 3.15 26.45 3.1126953125 26.734375 3.05 27 3.0634765625 27.13828125 3.05 27.25
L 3.15 27.05 3.15 27 3.5 25.1
Q 3.85 23.5 4.35 21.95
L 5.05 19.95
M 12.75 9.5
L 12.9 9.7 14.55 8.1
Q 13.5 8.65 12.5 9.25 11.05 10.2 9.7 11.4 8.3 12.6 7.05 14.1
L 9.15 12.7 9.1 12.65
Q 10.25 11.15 12.75 9.5 Z"/>

<path fill="#382929" stroke="none" d="
M 9.15 17
L 9.7 15.7 11.2 13 10.05 14.2
Q 8.036328125 16.4111328125 6.6 18.85 6.2365234375 19.4875 5.9 20.15
L 5.25 21.5 5.25 21.6 6.35 23.95 6.7 24.55 6.75 24.55 6.75 24.6 7 25.05 7.05 25.05 7.4 22.95
Q 7.902734375 20.3525390625 8.75 18 8.9216796875 17.5458984375 9.1 17.1
L 9.15 17 Z"/>

<path fill="#4D4D4D" stroke="none" d="
M 12.65 10.05
L 10.7 11.5 10.05 12.25 10.35 12.65 12.25 10.85 12.9 10.4 12.65 10.05 Z"/>

<path fill="#201919" stroke="none" d="
M 20.85 24.05
Q 20.8423828125 23.8607421875 20.85 23.65 20.85 23.41484375 20.85 23.2 19.5083984375 23.51796875 18.4 24.35
L 18.4 24.4
Q 18.395703125 24.870703125 18.4 25.3 18.60859375 25.1255859375 18.85 24.95
L 19 24.85 19 24.8
Q 19.35 24.6 19.7 24.45 20.250390625 24.220703125 20.85 24.05
M 41.2 24.55
Q 41.9763671875 24.399609375 42.75 24.15
L 42.85 24.1 44.9 23.3
Q 44.341796875 26.2654296875 45.05 29.05 45.3322265625 30.237109375 45.85 31.35
L 45.85 31.4 46.35 31.4 47 31.6 47.1 30.35
Q 46.903515625 29.398046875 46.65 28.4 46.00078125 25.5724609375 45.05 22.8 44.094921875 23.30859375 42.7 23.7 42.3142578125 23.803125 41.9 23.9
L 37.95 24
Q 38.4017578125 24.3916015625 38.8 24.75 38.905859375 24.8345703125 39 24.9
L 39.6 24.85
Q 40.4015625 24.7498046875 41.2 24.55 Z"/>

<path fill="#5D4F4F" stroke="none" d="
M 21.95 19.55
L 21.95 19.6 21.7 23.05 22.35 23
Q 22.626171875 21.3755859375 23.55 20.05
L 22 19.55 21.95 19.55 21.95 19.55 Z"/>

<path fill="#5F5252" stroke="none" d="
M 21.95 19.6
Q 21.5595703125 20.31875 21.3 21.1 21.2208984375 21.366015625 21.15 21.65 21 22.1 20.95 22.55 20.8892578125 22.8541015625 20.85 23.2 20.85 23.41484375 20.85 23.65 20.8423828125 23.8607421875 20.85 24.05 20.8962890625 24.0623046875 20.95 24.05
L 21.8 23.95 22.3 23.9
Q 22.3142578125 23.4478515625 22.35 23
L 21.7 23.05 21.95 19.6
M 41.9 23.9
Q 42.3142578125 23.803125 42.7 23.7 44.094921875 23.30859375 45.05 22.8 45.3203125 22.6501953125 45.55 22.5
L 45.55 22.45 45.6 22.4 46 22.1
Q 45.83984375 21.754296875 45.65 21.4 45.2361328125 21.733984375 44.75 22 43.7109375 22.650390625 42.4 22.95 42.105078125 23.003515625 41.8 23.05
L 38.2 23.3
Q 37.6365234375 23.2923828125 37.05 23.25 36.5677734375 22.84296875 36.1 22.5 35.759765625 22.2146484375 35.4 21.95 34.253515625 21.00234375 33.2 20.3 29.93359375 18.031640625 27.5 17.4 27.4396484375 17.3958984375 27.35 17.35 27.198828125 17.3291015625 27.05 17.3 26.3755859375 17.119140625 25.75 17.1 25.5052734375 17.0806640625 25.25 17.1 24.35546875 17.155859375 23.65 17.6 23.55 17.65 23.4 17.8 23.2 17.85 23 18.05 22.75 18.35 22.5 18.75 22.4486328125 18.8203125 22.4 18.9 22.1724609375 19.2130859375 21.95 19.55
L 22 19.55 23.55 20.05
Q 23.7755859375 19.8021484375 24 19.55 24.137890625 19.4208984375 24.3 19.3 24.3951171875 19.25625 24.5 19.2 25.3142578125 18.7115234375 26.45 18.8 26.787890625 18.844140625 27.15 18.9 29.1166015625 19.3568359375 31.9 21.25 32.966796875 22.0208984375 34.15 22.95 34.7494140625 23.455859375 35.35 24 35.6853515625 24.044921875 36 24.1
L 36.1 24.1 37.95 24 41.9 23.9 Z"/>

<path fill="#352828" stroke="none" d="
M 22.75 13.15
L 24.8 14.8 25.5 14.15 22.75 13.15
M 42 17.85
Q 41.8705078125 17.4111328125 41.55 16.9
L 39.4 17.4 39.15 17.15 39.1 17.15
Q 37.65 17.65 35.95 17.15 34.4 16.75 33.45 15.75 32.78671875 15.6826171875 32.1 15.6 29.8705078125 15.292578125 27.7 14.75
L 27.55 15.8
Q 31.2185546875 16.66953125 35.65 20.1 36.2609375 20.2884765625 36.8 20.4
L 40.3 20.5
Q 40.3759765625 20.4861328125 40.45 20.45 40.9052734375 20.373828125 41.3 20.2
L 41.35 20.2 41.65 20
Q 41.6189453125 19.944140625 41.6 19.9 41.4119140625 19.5744140625 41.25 19.3 40.9609375 18.8689453125 40.7 18.55
L 40.4 18.2 42 17.85 Z"/>

<path fill="#746969" stroke="none" d="
M 23.75 15.9
Q 24.4173828125 15.6841796875 25.15 15.55
L 25.15 15.55
Q 25.5328125 15.5455078125 25.9 15.55
L 24.8 14.8
Q 24.2375 15.34765625 23.75 15.9 Z"/>

<path fill="#2A2323" stroke="none" d="
M 22.75 13.15
L 22.15 12.7 22.15 12.7
Q 20.2 11.3 18.7 10.4
L 18 10
Q 18 10.3 17.75 10.65 17.35 11.3 16.45 11.8 15.6 12.3 14.8 12.35 14 12.4 13.75 11.95 13.5 11.5 13.95 10.8
L 14.05 10.6 13.5 11.05 13.45 11.05 13.35 11.1 11.2 13 9.7 15.7 9.15 17 9.85 15.85 10.3 15.35 11.05 14.6
Q 10.95 14.25 11.2 13.75 11.4 13.2 11.95 12.8 12.45 12.4 12.9 12.35 13.35 12.35 13.5 12.7 13.65 13.05 13.45 13.55
L 14.45 13.5
Q 15.958203125 13.7125 17.3 14.65 19.053515625 15.85546875 20.5 18.3 21.7826171875 16.6423828125 23.75 15.9 24.2375 15.34765625 24.8 14.8
L 22.75 13.15
M 41 14.95
L 40.9 14.95
Q 40.95 15.2 40.85 15.55 40.8197265625 15.64921875 40.75 15.75 41.27734375 16.365234375 41.55 16.9 41.8705078125 17.4111328125 42 17.85 42.44765625 19.1615234375 41.6 19.9 41.6189453125 19.944140625 41.65 20
L 41.35 20.2 41.3 20.2
Q 40.9052734375 20.373828125 40.45 20.45 40.3759765625 20.4861328125 40.3 20.5
L 36.8 20.4
Q 36.2609375 20.2884765625 35.65 20.1 36.886328125 21.0720703125 38.15 22.25
L 39.25 22.4 42.1 22.15 42.2 22.15
Q 43.6 21.9 44.6 21.35 44.95 21.15 45.3 20.85 45.319140625 20.8326171875 45.35 20.8 44.2998046875 18.9064453125 43.1 17.25 42.2421875 15.992578125 41.25 14.85
L 41.05 14.9 41 14.95 Z"/>

<path fill="#0E0A0A" stroke="none" d="
M 25.95 15.55
Q 26.742578125 15.6361328125 27.55 15.8
L 27.7 14.75 27.95 12.35 25.95 15.55 Z"/>

<path fill="#837A7A" stroke="none" d="
M 25.95 15.6
L 25.95 15.55 27.95 12.35 25.5 14.15 24.8 14.8 25.9 15.55 25.95 15.6 Z"/>

<path fill="#3A2F2F" stroke="none" d="
M 20.85 8.1
Q 20.8 7.75 21 7.4 19.5 7.8 18.05 8.4
L 16.3 9.2 16.9 9.1
Q 17.65 9.1 17.95 9.5 18.05 9.75 18 10
L 18.7 10.4
Q 20.2 11.3 22.15 12.7
L 22.15 12.7 22.75 13.15 25.5 14.15 27.95 12.35 27.7 14.75
Q 29.8705078125 15.292578125 32.1 15.6 32.78671875 15.6826171875 33.45 15.75
L 33.25 15.55
Q 33.116796875 15.4041015625 33 15.25 32.2443359375 14.2541015625 32.55 13.25 32.7 12.65 33.2 12.25 31.2109375 10.9119140625 29.25 9.95 28.4970703125 9.5681640625 27.75 9.25
L 27.65 9.3
Q 26.55 10 24.9 10.05 23.8150390625 10.083984375 22.9 9.85 22.5203125 9.7271484375 22.15 9.55 20.9 9 20.85 8.1 Z"/>

<path fill="#1E1818" stroke="none" d="
M 24.45 8.85
L 24.35 8.85
Q 23.3474609375 8.7068359375 22.6 8.25 22.5837890625 8.22265625 22.55 8.2
L 22 7.5 21.9 7.25 21 7.4
Q 20.8 7.75 20.85 8.1 20.9 9 22.15 9.55 22.5203125 9.7271484375 22.9 9.85 23.8150390625 10.083984375 24.9 10.05 26.55 10 27.65 9.3
L 27.75 9.25
Q 28.3 8.9 28.5 8.5 28.7 8.2 28.65 7.8 28.65 7.55 28.5 7.35
L 27.7 7.65 27.3 8.2 26.4 8.7 24.45 8.85
M 40.75 15.75
Q 40.8197265625 15.64921875 40.85 15.55 40.95 15.2 40.9 14.95
L 39.85 15
Q 39.4 15.7 38.3 15.85
L 38.2 15.9 37.85 15.95 37.2 15.9
Q 36.6 15.75 36 15.4
L 35.9 15.4
Q 35.226953125 15.0330078125 34.75 14.55 34.494140625 14.2494140625 34.3 13.9 34 13.3 34 12.8
L 34.05 12.45 33.6 12 33.2 12.25
Q 32.7 12.65 32.55 13.25 32.2443359375 14.2541015625 33 15.25 33.116796875 15.4041015625 33.25 15.55
L 33.45 15.75
Q 34.4 16.75 35.95 17.15 37.65 17.65 39.1 17.15
L 39.15 17.15
Q 40.38359375 16.7388671875 40.75 15.75 Z"/>

<path fill="#433B3B" stroke="none" d="
M 32.8 9.9
Q 32.755078125 9.2251953125 32.9 8.5 32.91171875 8.4724609375 32.9 8.45 31.3736328125 7.7056640625 29.7 7.15
L 29.1 7.05 28.55 7.35 28.5 7.35
Q 28.65 7.55 28.65 7.8 28.7 8.2 28.5 8.5 29.78203125 8.8419921875 31 9.25 31.9181640625 9.555859375 32.8 9.9 Z"/>

<path fill="#333333" stroke="none" d="
M 30.9 3.8
Q 31.1 3.45 31.1 3 31.1 1.8 29.35 0.9 27.7 0 25.3 0 25.1 0 24.95 0 22.85 0.05 21.35 0.85 19.7 1.8 19.7 3
L 19.75 3.4 19.75 4.6
Q 19.85 5.5 20.35 6.15
L 20.85 6.6 21.4 7 21.9 7.2 21.9 7.25 22 7.5 22.55 8.2
Q 22.5837890625 8.22265625 22.6 8.25 23.3474609375 8.7068359375 24.35 8.85
L 24.45 8.85 26.4 8.7 27.3 8.2 27.7 7.65 28.5 7.35 28.55 7.35 29.1 7.05 29.15 7
Q 29.7 6.7 30.05 6.35
L 30.6 5.65 30.65 5.55 30.65 5.5 30.75 5.05 30.8 4.9 30.9 3.8
M 29 1.45
Q 29.5 1.7 29.85 2
L 30.05 2.25 30.1 2.35
Q 30.45 2.75 30.45 3.3 30.45 3.7 30.3 4
L 30.35 4.05 30.35 4.35 30.3 4.55 30.1 4.95
Q 29.9 5.25 29.6 5.2
L 29.4 5.15 29.45 5.15 29.2 5.05 29 5.15
Q 27.5 5.95 25.45 5.95
L 23.9 5.8 23.95 7.5 24.4 7.55 24.6 7.65 25.6 7.65 27.4 7.4 27.4 7.5
Q 27.3 7.85 26.95 8.1
L 26.5 8.35 25.85 8.5 24.4 8.45
Q 23.68828125 8.3244140625 23.15 8 23.089453125 7.9650390625 23 7.9
L 22.7 7.65 22.5 7.35 22.45 7.15 22.45 7.1 22.45 7 21.8 6.7 21.2 6.2
Q 20.9 6 20.75 5.65 20.45 5.15 20.35 4.45
L 20.3 3.6
Q 20.3 2.65 20.95 2.15
L 21 2.15
Q 21.35 1.75 21.95 1.45
L 22.4 1.2
Q 23.7 0.65 25.45 0.65 25.6 0.65 25.8 0.65 27.6 0.7 29 1.45
M 43.85 6.05
Q 43.1154296875 5.3806640625 42.1 4.9 41.5103515625 4.58203125 40.8 4.35 38.4 3.5 36.25 4.05 34.15 4.65 33.6 6.2
L 33.25 7.4 32.95 8.35
Q 32.937890625 8.3986328125 32.9 8.45 32.91171875 8.4724609375 32.9 8.5 32.755078125 9.2251953125 32.8 9.9
L 32.9 10.55 33.2 11.3 33.6 12 34.05 12.45 34 12.8
Q 34 13.3 34.3 13.9 34.494140625 14.2494140625 34.75 14.55 35.226953125 15.0330078125 35.9 15.4
L 36 15.4
Q 36.6 15.75 37.2 15.9
L 37.85 15.95 38.2 15.9 38.3 15.85
Q 39.4 15.7 39.85 15
L 40.9 14.95 41 14.95 41.05 14.9 41.25 14.85 42.45 14.7 42.75 14.7
Q 43.1 14.55 43.45 14.35 43.9 14 44.25 13.5
L 45.5 10.2 45.55 10.1
Q 46 8.6 44.65 6.85 44.2990234375 6.423828125 43.85 6.05
M 40.7 5.15
Q 40.9037109375 5.22265625 41.1 5.3 42.9115234375 6.0552734375 43.95 7.5 44.4 8.1 44.55 8.7 44.99296875 9.5859375 44.7 10.65
L 44.7 10.7 44.75 10.65 44.7 10.75 44.05 12.35 44.05 12.45 43.75 13.05 43.7 13.05 43.7 13.1 43.6 13.2
Q 43.3 13.6 42.85 13.85 42.7 13.95 42.55 14
L 42.45 14.05
Q 42.2501953125 14.1388671875 42.05 14.2 41.5046875 14.418359375 40.95 14.5 40.3326171875 14.62265625 39.7 14.6
L 39.4 15.05 38.85 15.4 38.3 15.5 37.3 15.4 36.1 14.95
Q 35.658203125 14.673828125 35.3 14.3 35.0515625 14.0634765625 34.85 13.75
L 34.65 13.3
Q 34.55 12.9 34.65 12.55
L 34.65 12.5 34.7 12.4 34.15 11.75 33.75 10.95
Q 33.55 10.55 33.5 10.15
L 33.5 10.05
Q 33.4625 9.45078125 33.55 8.75 33.5998046875 8.5384765625 33.65 8.3
L 33.7 8.25 33.7 8.2 34 7.15
Q 34 7.1 34.05 7.05 34.35 6 35.3 5.55 35.9 5.15 36.7 4.9
L 37.15 4.8 37.75 4.75
Q 39.15 4.6 40.7 5.15
M 36.65 13.8
Q 36.3546875 13.6740234375 36.05 13.5
L 36.95 14.1 38.1 14.35
Q 37.390234375 14.1724609375 36.65 13.8 Z"/>

<path fill="#2E2E2E" stroke="none" d="
M 24.4 7.55
L 23.95 7.5 22.45 7.1 22.45 7.15 22.5 7.35 22.7 7.65 23 7.9
Q 23.089453125 7.9650390625 23.15 8 23.68828125 8.3244140625 24.4 8.45
L 25.85 8.5 26.5 8.35 26.95 8.1
Q 27.3 7.85 27.4 7.5
L 27.4 7.4 25.6 7.65 24.6 7.65 24.4 7.55
M 38.25 14.4
L 38.1 14.35 36.95 14.1 36.05 13.5 34.65 12.5 34.65 12.55
Q 34.55 12.9 34.65 13.3
L 34.85 13.75
Q 35.0515625 14.0634765625 35.3 14.3 35.658203125 14.673828125 36.1 14.95
L 37.3 15.4 38.3 15.5 38.85 15.4 39.4 15.05 39.7 14.6 39.2 14.6 38.35 14.4
Q 38.3 14.4 38.25 14.4 Z"/>

<path fill="#434343" stroke="none" d="
M 20.35 4.45
Q 20.45 5.15 20.75 5.65 20.9 6 21.2 6.2
L 21.8 6.7 22.45 7 22.45 7.1 23.95 7.5 23.9 5.8
Q 22.8 5.6 21.95 5.15 20.45 4.4 20.45 3.3 20.45 2.65 20.95 2.15 20.3 2.65 20.3 3.6
L 20.35 4.45
M 34.2 7.2
Q 34.2 7.1 34.25 7
L 34.25 6.9
Q 34.6 6.05 35.3 5.55 34.35 6 34.05 7.05 34 7.1 34 7.15
L 33.7 8.2 33.7 8.25 33.65 8.3
Q 33.5998046875 8.5384765625 33.55 8.75 33.4625 9.45078125 33.5 10.05
L 33.5 10.15
Q 33.55 10.55 33.75 10.95
L 34.15 11.75 34.7 12.4 34.65 12.5 36.05 13.5 36.65 11.6
Q 35.6 10.95 34.9 9.95 34.636328125 9.5984375 34.45 9.25 34.155859375 8.6341796875 34.1 8 34.1171875 7.927734375 34.1 7.8 34.1177734375 7.5169921875 34.2 7.2 Z"/>

<path fill="#434242" stroke="none" d="
M 22.4 1.2
L 21.95 1.45
Q 21.35 1.75 21 2.15
L 28.6 4.8 25.1 2.15 22.4 1.2
M 37.15 4.8
L 36.7 4.9
Q 35.9 5.15 35.3 5.55
L 37.8 7.75 42.1 11.65 40.3 8.35 40.3 8.25 39.6 7.05 37.15 4.8 Z"/>

<path fill="#9F9F9F" stroke="none" d="
M 29.2 5.05
L 28.6 4.8 21 2.15 20.95 2.15
Q 20.45 2.65 20.45 3.3 20.45 4.4 21.95 5.15 22.8 5.6 23.9 5.8
L 25.45 5.95
Q 27.5 5.95 29 5.15
L 29.2 5.05 Z"/>

<path fill="#515050" stroke="none" d="
M 30.3 4.55
L 30.35 4.35 30.35 4.05 30.3 4 25.1 2.15 28.6 4.8 29.2 5.05 29.45 5.15 29.4 5.15 29.6 5.2
Q 29.9 5.25 30.1 4.95
L 30.3 4.55
M 42.1 11.65
L 42.85 12.35 42.75 12.4 43 12.55 43.15 12.55
Q 43.4 12.55 43.65 12.35
L 44 11.9 44.3 11.35 44.3 11.3 44.2 11.2 41.15 8.45 39.6 7.05 40.3 8.25 40.3 8.35 42.1 11.65 Z"/>

<path fill="#AFAFAF" stroke="none" d="
M 29.85 2
Q 29.5 1.7 29 1.45 27.6 0.7 25.8 0.65 25.6 0.65 25.45 0.65 23.7 0.65 22.4 1.2
L 25.1 2.15 30.3 4
Q 30.45 3.7 30.45 3.3 30.45 2.75 30.1 2.35
L 30.05 2.25 29.85 2
M 44.2 11.2
L 44.55 10.55
Q 44.8 9.85 44.65 9.15
L 41.15 8.45 44.2 11.2
M 42.85 12.35
L 42.1 11.65 37.8 7.75 34.25 7
Q 34.2 7.1 34.2 7.2 34.1177734375 7.5169921875 34.1 7.8 34.1171875 7.927734375 34.1 8 34.155859375 8.6341796875 34.45 9.25 34.636328125 9.5984375 34.9 9.95 35.6 10.95 36.65 11.6
L 36.85 11.75 38.05 12.3 39.4 12.65 40.75 12.75 42.45 12.55 42.5 12.5 42.75 12.4 42.85 12.35 Z"/>

<path fill="#1C1414" stroke="none" d="
M 46.4 37.2
Q 46.7328125 36.6296875 46.95 35.95 45.6421875 37.9318359375 43.15 39.05 32.6087890625 43.7484375 24.75 39.25 23.009765625 37.929296875 21.75 36.2 21.683984375 36.1560546875 21.6 36.05 21.2275390625 35.52734375 20.85 34.95 20.7072265625 34.6623046875 20.55 34.35 20.0755859375 33.4806640625 19.7 32.5 18.4927734375 29.3458984375 18.4 25.3 18.395703125 24.870703125 18.4 24.4
L 18.4 24.35
Q 18.6140625 22.4736328125 19.1 20.95 19.252734375 20.60078125 19.4 20.25
L 18.3 18.3 18.25 18.15
Q 16.9296875 16.3076171875 15.35 15.4 14.3498046875 14.84296875 13.25 14.65
L 12.65 14.6
Q 12.15 15 11.7 15.05 11.4 15.05 11.2 14.9 10.8 15.05 10.45 15.25
L 10.3 15.35 9.85 15.85 9.15 17 9.1 17.1
Q 8.9216796875 17.5458984375 8.75 18 7.902734375 20.3525390625 7.4 22.95
L 7.05 25.05 7.05 25.1 7.45 25.75
Q 9.7 29.55 12.95 33.35
L 17.15 37.9 17.2 37.85
Q 24.14453125 44.276953125 35.95 43.9 41.780078125 41.290234375 46.4 37.2 Z"/>

<path fill="#4A4343" stroke="none" d="
M 41.4 34.3
Q 42.2849609375 33.508203125 42.35 32.75 42.35 32.7048828125 42.35 32.65 42.3 29.7 37.7 25.5 37.5 25.25 37.25 25.1 36.8 24.7 36.35 24.3
L 36.3 24.25
Q 36.2087890625 24.171875 36.1 24.1
L 36 24.1
Q 35.6853515625 24.044921875 35.35 24 35.4001953125 24.0208984375 35.4 24.05 35.83203125 24.380078125 36.25 24.75 36.4384765625 24.9177734375 36.6 25.05 40.8021484375 28.9138671875 40.85 31.55 40.85 32.315234375 40 33 39.240234375 33.659765625 37.8 34.25 35.146875 35.10234375 32.95 35.3 27.16015625 35.7828125 24.55 31.65 23.03984375 28.7734375 22.55 26.4 22.2609375 25.071875 22.3 23.9
L 21.8 23.95
Q 21.8 24.0515625 21.8 24.15 21.75 25.45 22.05 26.95 22.6 29.55 24.3 32.75 28.25 39.05 38.95 35.65 40.6 34.95 41.4 34.3 Z"/>

<path fill="#6B5F5F" stroke="none" d="
M 43.65 30.2
Q 43.3654296875 29.7326171875 43 29.25 41.650390625 27.3513671875 39.3 25.2 39.155859375 25.055859375 39 24.9 38.905859375 24.8345703125 38.8 24.75 38.4017578125 24.3916015625 37.95 24
L 36.1 24.1
Q 36.2087890625 24.171875 36.3 24.25
L 36.35 24.3
Q 36.8 24.7 37.25 25.1 37.5 25.25 37.7 25.5 42.3 29.7 42.35 32.65 42.35 32.7048828125 42.35 32.75 42.2849609375 33.508203125 41.4 34.3 40.6 34.95 38.95 35.65 28.25 39.05 24.3 32.75 22.6 29.55 22.05 26.95 21.75 25.45 21.8 24.15 21.8 24.0515625 21.8 23.95
L 20.95 24.05
Q 20.8962890625 24.0623046875 20.85 24.05 20.8505859375 28.141015625 23.7 33.65 28.35 41 40.8 37 44.6458984375 35.422265625 44.7 33.55
L 44.7 33.5
Q 44.7 32.7669921875 44.4 31.9 44.169140625 31.11484375 43.65 30.2 Z"/>

<path fill="#1E1515" stroke="none" d="
M 42.75 24.15
Q 41.9763671875 24.399609375 41.2 24.55 40.4015625 24.7498046875 39.6 24.85
L 39 24.9
Q 39.155859375 25.055859375 39.3 25.2 41.650390625 27.3513671875 43 29.25 43.3654296875 29.7326171875 43.65 30.2 44.169140625 31.11484375 44.4 31.9 44.7 32.7669921875 44.7 33.5
L 44.7 33.55
Q 44.6458984375 35.422265625 40.8 37 28.35 41 23.7 33.65 20.8505859375 28.141015625 20.85 24.05 20.250390625 24.220703125 19.7 24.45 19.35 24.6 19 24.8
L 19 24.85 18.85 24.95
Q 18.60859375 25.1255859375 18.4 25.3 18.4927734375 29.3458984375 19.7 32.5 20.0755859375 33.4806640625 20.55 34.35 20.7072265625 34.6623046875 20.85 34.95 21.2275390625 35.52734375 21.6 36.05 21.683984375 36.1560546875 21.75 36.2 23.009765625 37.929296875 24.75 39.25 32.6087890625 43.7484375 43.15 39.05 45.6421875 37.9318359375 46.95 35.95 47.1642578125 35.4630859375 47.3 34.9 47.4794921875 34.1423828125 47.55 33.3 47.585546875 33.110546875 47.6 32.9 47.6267578125 32.3806640625 47.6 31.8
L 47 31.6 46.35 31.4 45.85 31.4 45.85 31.35
Q 45.3322265625 30.237109375 45.05 29.05 44.341796875 26.2654296875 44.9 23.3
L 42.85 24.1 42.75 24.15
M 45.3 20.85
Q 44.95 21.15 44.6 21.35 43.6 21.9 42.2 22.15
L 42.1 22.15 39.25 22.4 38.15 22.25
Q 36.886328125 21.0720703125 35.65 20.1 31.2185546875 16.66953125 27.55 15.8 26.742578125 15.6361328125 25.95 15.55
L 25.95 15.6 25.9 15.55
Q 25.5328125 15.5455078125 25.15 15.55
L 25.15 15.55
Q 24.4173828125 15.6841796875 23.75 15.9 21.7826171875 16.6423828125 20.5 18.3 20.5576171875 18.37734375 20.6 18.45
L 20.7 18.55 20.45 18.5 20.35 18.5
Q 20.1359375 18.8306640625 19.9 19.2 19.633984375 19.695703125 19.4 20.25 19.252734375 20.60078125 19.1 20.95 18.6140625 22.4736328125 18.4 24.35 19.5083984375 23.51796875 20.85 23.2 20.8892578125 22.8541015625 20.95 22.55 21 22.1 21.15 21.65 21.2208984375 21.366015625 21.3 21.1 21.5595703125 20.31875 21.95 19.6
L 21.95 19.55 21.95 19.55
Q 22.1724609375 19.2130859375 22.4 18.9 22.4486328125 18.8203125 22.5 18.75 22.75 18.35 23 18.05 23.2 17.85 23.4 17.8 23.55 17.65 23.65 17.6 24.35546875 17.155859375 25.25 17.1 25.5052734375 17.0806640625 25.75 17.1 26.3755859375 17.119140625 27.05 17.3 27.198828125 17.3291015625 27.35 17.35 27.4396484375 17.3958984375 27.5 17.4 29.93359375 18.031640625 33.2 20.3 34.253515625 21.00234375 35.4 21.95 35.759765625 22.2146484375 36.1 22.5 36.5677734375 22.84296875 37.05 23.25 37.6365234375 23.2923828125 38.2 23.3
L 41.8 23.05
Q 42.105078125 23.003515625 42.4 22.95 43.7109375 22.650390625 44.75 22 45.2361328125 21.733984375 45.65 21.4 45.495703125 21.1046875 45.35 20.8 45.319140625 20.8326171875 45.3 20.85 Z"/>

<path fill="#625B5B" stroke="none" d="
M 41.25 19.3
Q 41.4119140625 19.5744140625 41.6 19.9 42.44765625 19.1615234375 42 17.85
L 40.4 18.2 40.7 18.55
Q 40.9609375 18.8689453125 41.25 19.3
M 41.55 16.9
Q 41.27734375 16.365234375 40.75 15.75 40.38359375 16.7388671875 39.15 17.15
L 39.4 17.4 41.55 16.9 Z"/>

<path fill="#C4C4C4" stroke="none" d="
M 34.25 6.9
L 34.25 7 37.8 7.75 35.3 5.55
Q 34.6 6.05 34.25 6.9
M 41.1 5.3
Q 40.9037109375 5.22265625 40.7 5.15 39.15 4.6 37.75 4.75
L 37.15 4.8 39.6 7.05 41.15 8.45 44.65 9.15 44.55 8.7
Q 44.4 8.1 43.95 7.5 42.9115234375 6.0552734375 41.1 5.3 Z"/>

<path fill="#514F4F" stroke="none" d="
M 44.75 10.65
L 44.7 10.7 44.7 10.75 44.75 10.65 Z"/>

<path fill="#5B5B5B" stroke="none" d="
M 44.55 8.7
L 44.65 9.15
Q 44.8 9.85 44.55 10.55
L 44.2 11.2 44.3 11.3 44.3 11.35 44 11.9 43.65 12.35
Q 43.4 12.55 43.15 12.55
L 43 12.55 42.75 12.4 42.5 12.5 42.45 12.55 40.75 12.75 39.4 12.65 38.05 12.3 36.85 11.75 36.65 11.6 36.05 13.5
Q 36.3546875 13.6740234375 36.65 13.8 37.390234375 14.1724609375 38.1 14.35
L 38.25 14.4
Q 38.3 14.4 38.35 14.4
L 39.2 14.6 39.7 14.6
Q 40.3326171875 14.62265625 40.95 14.5 41.5046875 14.418359375 42.05 14.2 42.2501953125 14.1388671875 42.45 14.05
L 42.55 14
Q 42.7 13.95 42.85 13.85 43.3 13.6 43.6 13.2
L 43.7 13.1 43.7 13.05 43.75 13.05 44.05 12.45 44.05 12.35 44.7 10.75 44.7 10.7 44.7 10.65
Q 44.99296875 9.5859375 44.55 8.7 Z"/>
</g>

<g id="_______231_0_Layer0_0_FILL">
<path fill="#270000" stroke="none" d="
M 8.7 16.65
L 8.65 16.7 9.4 16.9 8.7 16.65 Z"/>

<path fill="#A8A49F" stroke="none" d="
M 9 9.1
L 8.5 8.95 8.95 9.7 9.35 9.8 9 9.1
M 20.85 11.85
L 20.7 11.75 19.65 10.6 19.2 11.7 18.55 14.4 18.5 14.85 18.05 14.55 14.2 11.4 14.1 13.4
Q 13.65 12.9 12.8 12.35
L 10.95 12.95 10.9 12.85
Q 10.85 13.65 10.55 14.3
L 10.8 14.6 12.65 12.8
Q 12.8 12.9 12.85 13
L 14.45 14.3
Q 14.6 13.6 14.55 12.5
L 16.75 14.55 18.45 15.7 18.8 15.9 18.85 15.95 18.85 15.85 19.15 14.35 19.15 14.2
Q 19.5 12.7 19.8 11.95
L 22.55 15 22.7 15.1 22.85 15.3 24.15 16.7 24.4 15.5 24.4 15.4 24.3 15.35 24.25 15.25 23.95 14.95 23.9 15.15 20.85 11.85 Z"/>

<path fill="#171717" stroke="none" d="
M 10.4 10.65
L 10.3 10.55
Q 9.9 10 9.35 9.8
L 8.95 9.7 8.5 8.95 8.45 8.85
Q 8.2 8.55 7.95 8.3 7.55 7.9 7.15 7.6 6.8 7.35 6.45 7.25 6.25 7.2 6.05 7.15
L 6.05 7.2 5.95 7.15 5.15 7.1 3.25 7.3 2.4 7.55 2 7.75
Q 1.25 8.25 0.75 9.15
L 0.55 9.45
Q 0.2 10.25 0.1 11.2
L 0 11.75 0 11.85 0.15 13.45 0.15 13.6
Q 0.3 14.35 0.55 15.05
L 0.6 15.1 0.85 15.65 0.9 15.7 1.5 16.6 1.5 16.65 1.8 16.95 2.05 17.15 2.1 17.25 2.3 17.45 3.05 17.9
Q 3.7 18.25 4.3 18.3
L 4.35 18.3 6.5 17.9
Q 7.55 17.7 8.25 17.05
L 8.65 16.7 8.7 16.65 8.75 16.55 9.15 15.9 9.35 15.4
Q 9.95 15.2 10.4 14.55
L 10.55 14.3
Q 10.85 13.65 10.9 12.85
L 10.95 12.7 10.95 12.6
Q 10.95 11.45 10.4 10.65
M 3.35 7.55
L 3.45 7.55 5.1 7.45 5.2 7.4 5.8 7.4 5.85 7.4 5.95 7.45 6.65 7.7
Q 7.1 7.9 7.55 8.35
L 7.65 8.4 8.05 8.95
Q 8.45 9.4 8.7 10
L 8.85 10
Q 9.25 10 9.6 10.25
L 10 10.65
Q 10.35 11.25 10.45 11.95
L 10.5 12.75
Q 10.45 13.35 10.2 13.85
L 10 14.15
Q 9.65 14.7 9.15 14.85
L 9.1 14.85 9 14.85 8.65 15.7 8.4 16.05 8.1 16.45 7.65 16.75
Q 7.05 17.15 6.2 17.4
L 6.15 17.4 5.1 17.6 4.95 17.65 3.9 17.6 3.25 17.35 2.6 16.9 2.05 16.4 1.9 16.2 1.75 16 1.25 15.3 1 14.7 0.6 13.25 0.55 13.2 0.55 13.05 0.45 12.1 0.45 11.7 0.55 11.1
Q 0.6 10.2 1 9.5 1.4 8.65 2 8.15
L 2.1 8.05
Q 2.45 7.8 2.85 7.7
L 3.35 7.55 Z"/>

<path fill="#4A4A4A" stroke="none" d="
M 6.15 17.4
L 6.2 17.4
Q 7.05 17.15 7.65 16.75
L 8.1 16.45 8.4 16.05 6.8 16.3 6.15 17.05 6.1 17.05 6.1 17.1 5.9 17.25
Q 5.8 17.4 5.4 17.5
L 5.1 17.6 6.15 17.4
M 9.3 11.8
L 7.55 12.15
Q 7.65 12.9 7.6 13.65
L 9.35 13.35 9.4 12.85 9.4 12.75 9.3 11.8 Z"/>

<path fill="#434242" stroke="none" d="
M 9 14.85
L 9.1 14.85 9.35 13.35 7.6 13.65 7.55 14.05
Q 7.55 14.6 7.35 15.05
L 7.15 15.7 6.85 16.25 6.8 16.3 8.4 16.05 8.65 15.7 9 14.85
M 8.85 10
L 8.7 10
Q 9.1 10.75 9.25 11.7
L 9.3 11.8 9.4 12.75 9.4 12.85 9.45 12.85 10.5 12.75 10.45 11.95
Q 10.35 11.25 10 10.65
L 9.6 10.25
Q 9.25 10 8.85 10
M 5.15 10
L 5.35 9.3 2.7 13.15 1.9 16.2 2.05 16.4 2.6 16.9 3.25 17.35 5.15 10 Z"/>

<path fill="#313030" stroke="none" d="
M 9.45 12.85
L 9.4 12.85 9.35 13.35 9.1 14.85 9.15 14.85
Q 9.65 14.7 10 14.15
L 10.2 13.85
Q 10.45 13.35 10.5 12.75
L 9.45 12.85 Z"/>

<path fill="#878787" stroke="none" d="
M 5.5 10.2
Q 5.3 10.1 5.15 10
L 3.25 17.35 3.9 17.6 4.95 17.65 5.45 17.25 6.3 16.15 6.65 15.45
Q 6.85 14.7 6.85 13.75 6.85 12.5 6.4 11.55
L 5.9 10.65 5.5 10.3 5.5 10.2
M 1.05 10.65
L 1.05 10.75
Q 0.7 11.2 0.45 11.7
L 0.45 12.1 0.55 13.05 0.55 13.2 0.6 13.25 1 14.7 1.25 15.3 1.75 16 3.05 9.5
Q 2.5 9.55 1.95 9.9
L 1.05 10.65 Z"/>

<path fill="#A6A6A6" stroke="none" d="
M 5.65 8.4
L 5.6 8.4 5.35 9.3 5.15 10
Q 5.3 10.1 5.5 10.2
L 5.5 10.3 5.9 10.65 6.4 11.55
Q 6.85 12.5 6.85 13.75 6.85 14.7 6.65 15.45
L 6.3 16.15 5.45 17.25 4.95 17.65 5.1 17.6 5.4 17.5
Q 5.8 17.4 5.9 17.25
L 6.1 17.1 6.1 17.05 6.15 17.05 6.8 16.3 6.85 16.25 7.15 15.7 7.35 15.05
Q 7.55 14.6 7.55 14.05
L 7.6 13.65
Q 7.65 12.9 7.55 12.15
L 7.5 12 7.45 11.9 7.35 11.3
Q 7.05 10.25 6.55 9.45
L 5.9 8.65 5.8 8.6 5.65 8.4
M 4.2 7.7
L 4.25 7.65 3.45 7.55 3.35 7.55 2.85 7.7
Q 2.45 7.8 2.1 8.05
L 2 8.15
Q 1.4 8.65 1 9.5 0.6 10.2 0.55 11.1
L 0.45 11.7
Q 0.7 11.2 1.05 10.75
L 1.05 10.65 1.95 9.9
Q 2.5 9.55 3.05 9.5
L 1.75 16 1.9 16.2 2.7 13.15 4.2 7.7 Z"/>

<path fill="#5D5D5D" stroke="none" d="
M 4.4 7.6
L 4.3 7.65 4.6 7.65 5.3 7.75
Q 5.7 7.95 5.7 8.25
L 5.65 8.4 5.8 8.6 5.9 8.65 6.55 9.45
Q 7.05 10.25 7.35 11.3
L 7.45 11.9 7.5 12 7.55 12.15 9.3 11.8 9.25 11.7
Q 9.1 10.75 8.7 10 8.45 9.4 8.05 8.95
L 7.65 8.4 7.55 8.35
Q 7.1 7.9 6.65 7.7
L 5.95 7.45 5.85 7.4 5.8 7.4 5.8 7.45 4.4 7.6 Z"/>

<path fill="#515050" stroke="none" d="
M 4.3 7.65
L 4.2 7.7 2.7 13.15 5.35 9.3 5.6 8.4 5.65 8.4 5.7 8.25
Q 5.7 7.95 5.3 7.75
L 4.6 7.65 4.3 7.65 Z"/>

<path fill="#514F4F" stroke="none" d="
M 4.25 7.65
L 4.3 7.65 4.4 7.6 5.8 7.45 5.8 7.4 5.2 7.4 5.1 7.45 3.45 7.55 4.25 7.65 Z"/>

<path fill="#480000" stroke="none" d="
M 4.25 7.65
L 4.2 7.7 4.3 7.65 4.25 7.65 Z"/>

<path fill="#980000" stroke="none" d="
M 21.25 20.6
L 21.2 20.55 13.2 16.3 12.85 13
Q 12.8 12.9 12.65 12.8
L 10.8 14.6 10.55 14.3 10.4 14.55
Q 9.95 15.2 9.35 15.4
L 9.15 15.9 21.25 20.6
M 31.6 11.05
L 31.3 12.35 31.25 12.4 30.75 14.45 30.75 14.55 30 17.75
Q 29.9 17.55 29.45 16.9
L 25.7 12 25.5 11.85 24.55 14.7 24.4 15.4 24.45 15.45
Q 26.25 17.5 28.4 19.1
L 30.75 20.5
Q 32.25 21.35 33.9 21.95
L 34.2 22.1 34.3 21.95 36.25 17.55 33.9 13.9 32.4 12.05 32.05 12.9 32 13.15 31.95 13.15 31.85 11.3 31.6 11.05 Z"/>

<path fill="#7B0000" stroke="none" d="
M 24.45 15.45
L 24.4 15.4 24.4 15.5 24.15 16.7 22.85 15.3 22.7 15.1 22.55 15 19.8 11.95
Q 19.5 12.7 19.15 14.2
L 19.15 14.35 18.85 15.85 18.85 15.95 18.8 15.9 18.45 15.7 16.75 14.55 14.55 12.5
Q 14.6 13.6 14.45 14.3
L 12.85 13 13.2 16.3 21.2 20.55 21.25 20.6 32.55 24.9 32.6 24.9 33.55 23.2 33.5 23.35 34.2 22.1 33.9 21.95
Q 32.25 21.35 30.75 20.5
L 28.4 19.1
Q 26.25 17.5 24.45 15.45 Z"/>

<path fill="#CDC4BA" stroke="none" d="
M 20.7 11.75
L 20.85 11.85 23.9 15.15 23.95 14.95 23.9 14.85 22.45 13
Q 21.55 11.6 20.85 10.1
L 20.05 8.35 20 8.7 18.8 7.65 12.6 10.05 12.5 10.05 9 9.1 9.35 9.8
Q 9.9 10 10.3 10.55
L 10.4 10.65
Q 10.95 11.45 10.95 12.6
L 10.95 12.7 10.9 12.85 10.95 12.95 12.8 12.35
Q 13.65 12.9 14.1 13.4
L 14.2 11.4 18.05 14.55 18.5 14.85 18.55 14.4 19.2 11.7 19.65 10.6 20.7 11.75 Z"/>

<path fill="#D9D6D3" stroke="none" d="
M 33.5 11.75
L 33.2 9.2 32.75 10.8 33.5 11.75
M 37.9 4.15
L 37.15 1.25 32.6 2.35 29.2 3.75 28.1 7.2 26.15 4.85 20.7 6.9 20.6 7.65 20.6 7.75 20.5 8.7 20.5 8.75 20.15 7.8 20.15 7.75 20.1 7.8 20.05 8.35 20.85 10.1
Q 21.55 11.6 22.45 13
L 23.9 14.85 23.95 14.95 24.05 14.5 24.1 14.4 24.1 14.35
Q 24.6 12.2 25.25 10.2
L 25.3 10 25.7 10.4 26.35 11.45 26.55 10.4 26.8 11.95 29.75 15.7 31.15 9.1 32.15 10.2 31.95 5.95 32.95 8.4 34.05 6.95 33.7 11.95 33.85 12.2 34.45 12.95
Q 35 13.7 35.5 14.4 36.15 15.45 36.65 16.4
L 36.85 15.65 37.3 13.8
Q 37.65 12.2 37.85 10.5 38.05 8.55 38 6.5 38 5.35 37.9 4.15 Z"/>

<path fill="#BFBDBA" stroke="none" d="
M 32.75 10.8
L 32.25 11.4 32.15 10.2 31.15 9.1 29.75 15.7 26.8 11.95 26.55 10.4 26.35 11.45 25.7 10.4 25.3 10 25.25 10.2
Q 24.6 12.2 24.1 14.35
L 24.1 14.4 24.05 14.5 23.95 14.95 24.25 15.25 24.3 15.35 24.4 15.4 24.55 14.7 25.5 11.85 25.7 12 29.45 16.9
Q 29.9 17.55 30 17.75
L 30.75 14.55 30.75 14.45 31.25 12.4 31.3 12.35 31.6 11.05 31.85 11.3 31.95 13.15 32 13.15 32.05 12.9 32.4 12.05 33.9 13.9 36.25 17.55 36.45 17.05 36.55 16.95 36.8 16.05 36.85 15.65 36.65 16.4
Q 36.15 15.45 35.5 14.4 35 13.7 34.45 12.95
L 33.85 12.2 33.7 11.95 33.5 11.75 32.75 10.8 Z"/>

<path fill="#939393" stroke="none" d="
M 34.05 6.95
L 32.95 8.4 31.95 5.95 32.15 10.2 32.25 11.4 32.75 10.8 33.2 9.2 33.5 11.75 33.7 11.95 34.05 6.95 Z"/>

<path fill="#3C3C3C" stroke="none" d="
M 38.05 0.45
L 36.95 0
Q 35.4 0.7 34.2 1.15
L 28.55 3.25 27.8 5.35 26.55 3.95 22.7 5.35 22.65 5.35 12.45 9.05 7.15 7.6
Q 7.55 7.9 7.95 8.3 8.2 8.55 8.45 8.85
L 8.5 8.95 9 9.1 12.5 10.05 12.6 10.05 18.8 7.65 20 8.7 20.05 8.35 20.1 7.8 20.15 7.75 20.15 7.8 20.5 8.75 20.5 8.7 20.6 7.75 20.6 7.65 20.7 6.9 26.15 4.85 28.1 7.2 29.2 3.75 32.6 2.35 37.15 1.25 37.9 4.15
Q 38 5.35 38 6.5 38.05 8.55 37.85 10.5 37.65 12.2 37.3 13.8
L 36.85 15.65 36.8 16.05 36.55 16.95 36.45 17.05 36.25 17.55 34.3 21.95 34.2 22.1 33.5 23.35 33.55 23.2 32.6 24.9 32.55 24.9 21.25 20.6 9.15 15.9 8.75 16.55 8.7 16.65 9.4 16.9 12.15 17.9 12.25 17.9 12.25 17.95 32.3 25.6 32.3 25.65 32.35 25.65
Q 32.7955078125 25.547265625 33.2 25.4 33.5271484375 24.9265625 33.8 24.4 35.6548828125 21.3345703125 36.85 18.25 38.6421875 13.3234375 38.85 7.3 38.777734375 5.7705078125 38.6 4.25 38.452734375 2.609375 38.15 1 38.1248046875 0.71875 38.05 0.45 Z"/>
</g>
</defs>

<g transform="matrix( 1, 0, 0, 0.9160308837890625, -8.75,-8.8) ">
<g transform="matrix( 1.109832763671875, 0.43634033203125, -0.43634033203125, 1.109832763671875, 21.5,0) ">
<g transform="matrix( 1, 0, 0, 1, 0,0) ">
<use xlink:href="#_______232_0_Layer0_0_FILL"/>
</g>
</g>

<g transform="matrix( 1.1995697021484375, 0.031463623046875, -0.031463623046875, 1.1995697021484375, 16.4,49.3) ">
<g transform="matrix( 1, 0, 0, 1, 0,0) ">
<use xlink:href="#_______231_0_Layer0_0_FILL"/>
</g>
</g>

<g transform="matrix( 1.109832763671875, 0.43634033203125, -0.43634033203125, 1.109832763671875, 21.5,0) ">
<g transform="matrix( 1, 0, 0, 1, 0,0) ">
<use xlink:href="#_______232_0_Layer0_0_FILL"/>
</g>
</g>

<g transform="matrix( 1.1995697021484375, 0.031463623046875, -0.031463623046875, 1.1995697021484375, 16.4,49.3) ">
<g transform="matrix( 1, 0, 0, 1, 0,0) ">
<use xlink:href="#_______231_0_Layer0_0_FILL"/>
</g>
</g>
</g>
</svg>
