
<svg xmlns="http://www.w3.org/2000/svg" version="1.1" xmlns:xlink="http://www.w3.org/1999/xlink" preserveAspectRatio="none" x="0px" y="0px" width="50px" height="50px" viewBox="0 0 50 50">
<defs>
<g id="Layer0_0_FILL">
<path fill="#000000" stroke="none" d="
M 198.75 177.15
Q 198.75 161.55 187.7 150.5 176.7 139.5 161.1 139.5 145.5 139.5 134.45 150.5 123.45 161.55 123.45 177.15 123.45 192.75 134.45 203.75 145.5 214.8 161.1 214.8 176.7 214.8 187.7 203.75 198.75 192.75 198.75 177.15 Z"/>
</g>

<g id="_______151_0_Layer1_0_FILL">
<path fill="#FFFFFF" stroke="none" d="
M 4.25 16.05
Q 6.25 22.45 16.35 22 19.6 21.55 20 20.2 20.65 17.5 17.35 12.4 10.6 2.2 6.85 4.2 2.25 7.25 4.25 16.05 Z"/>
</g>
</defs>

<g transform="matrix( 0.6640167236328125, 0, 0, 0.6640167236328125, -81.95,-92.65) ">
<use xlink:href="#Layer0_0_FILL"/>
</g>

<g transform="matrix( 1, 0, 0, 1, 21.35,10.6) ">
<g transform="matrix( 1, 0, 0, 1, 0,0) ">
<use xlink:href="#_______151_0_Layer1_0_FILL"/>
</g>
</g>
</svg>
