
<svg xmlns="http://www.w3.org/2000/svg" version="1.1" xmlns:xlink="http://www.w3.org/1999/xlink" preserveAspectRatio="none" x="0px" y="0px" width="53px" height="56px" viewBox="0 0 53 56">
<defs>
<g id="_____________________________________255_0_Layer1_0_FILL">
<path fill="#6B1E1E" stroke="none" d="
M 32.55 48.05
Q 32.5552734375 48.0748046875 32.55 48.1 32.5841796875 48.2224609375 32.6 48.35 32.6 48.95 32.15 49.5 31.8126953125 49.98203125 31.15 50.1
L 31.1 50.1
Q 30.55 50.25 30.1 49.9
L 29.85 49.7
Q 29.95 50.35 30.45 50.65 30.727734375 50.927734375 31.15 50.9 31.3359375 50.9111328125 31.55 50.85 32.25 50.8 32.7 50.15 33.15 49.6 33.2 48.9 33.2 48.5447265625 33.05 48.25 32.876171875 48.180078125 32.65 48.1 32.6138671875 48.07421875 32.55 48.05
M 32.8 42.45
L 32.7 42.5
Q 32.7828125 42.5373046875 32.85 42.55
L 32.8 42.45 Z"/>

<path fill="#3A0F0F" stroke="none" d="
M 32.55 48.1
Q 32.5552734375 48.0748046875 32.55 48.05 31.948828125 47.8267578125 31.3 47.65 30.721875 47.8955078125 30.35 48.35 29.9 49.05 29.9 49.65
L 29.85 49.7 30.1 49.9
Q 30.55 50.25 31.1 50.1
L 31.15 50.1
Q 31.8126953125 49.98203125 32.15 49.5 32.6 48.95 32.6 48.35 32.5841796875 48.2224609375 32.55 48.1 Z"/>

<path fill="#2A2A2A" stroke="none" d="
M 31.55 47.6
Q 31.419921875 47.634765625 31.3 47.65 31.948828125 47.8267578125 32.55 48.05 32.4923828125 47.834765625 32.4 47.65 32 47.5 31.55 47.6
M 29.1 41.55
Q 29.0306640625 41.8134765625 29 42.1
L 29.05 42.45
Q 29.25 42.75 29.5 43 30.1 43.45 30.95 43.4
L 30.95 43.4
Q 31.1228515625 43.3943359375 31.3 43.35
L 31.4 43.25
Q 31.4572265625 43.25 31.5 43.2 31.528515625 43.221484375 31.55 43.2 32.1814453125 43.0056640625 32.7 42.5
L 32.8 42.45 33.2 42.05
Q 33.25 42 33.3 41.95 34 41 34 39.9 34.0296875 39.60234375 34 39.35 33.9716796875 39.133203125 33.9 38.95 33.7958984375 38.6234375 33.55 38.4 33.45 38.3 33.35 38.2
L 32.9 38 32.3 38
Q 31.9 38.15 31.55 38.35
L 31.5 38.35
Q 31.3796875 38.4134765625 31.25 38.5
L 30.75 38.8
Q 30.475 39.075 30.2 39.35 30.109375 39.475 30 39.6 29.3240234375 40.4748046875 29.1 41.55
M 35.2 44.25
L 34.95 44.35
Q 34.75 44.4 34.6 44.5 34.25 44.65 34.05 44.9
L 33.8 45.15
Q 33.25 45.85 33.2 46.65
L 33.25 47.05 33.35 47.1 33.65 47.3
Q 34 47.4 34.3 47.45
L 34.65 47.35
Q 35.35 47.25 35.8 46.65 36.19296875 46.1259765625 36.25 45.5 36.25 45.438671875 36.25 45.35 36.25 44.8 35.9 44.45
L 35.7 44.25 35.65 44.25
Q 35.45 44.2 35.2 44.25
M 41.05 36.6
L 40.55 36.35
Q 40.341015625 36.35 40.15 36.4 40.0208984375 36.439453125 39.9 36.5 38.7705078125 36.8388671875 37.9 37.7
L 37.85 37.75
Q 37.59765625 38.019921875 37.35 38.35 37.1 38.75 36.85 39.15 36.7953125 39.249609375 36.75 39.35 36.3 40.2595703125 36.3 41.25
L 36.35 41.7
Q 36.6 42 36.9 42.25 37.52265625 42.699609375 38.3 42.65 38.6646484375 42.6232421875 39.05 42.5 39.2455078125 42.434765625 39.45 42.35 39.6955078125 42.24140625 39.95 42.1 39.977734375 42.0787109375 40 42.05 40.0767578125 41.991015625 40.15 41.9 40.3357421875 41.78046875 40.5 41.6 40.8076171875 41.3232421875 41.05 41 41.62578125 40.22109375 41.75 39.35 41.8109375 39.176953125 41.8 39 41.859375 38.753515625 41.85 38.5 41.8791015625 37.7740234375 41.6 37.25 41.40625 36.8724609375 41.05 36.6 Z"/>

<path fill="#7B7867" stroke="none" d="
M 32.75 47.85
L 32.4 47.65
Q 32.4923828125 47.834765625 32.55 48.05 32.6138671875 48.07421875 32.65 48.1 32.876171875 48.180078125 33.05 48.25 33.029296875 48.183203125 32.95 48.1 32.8771484375 47.9630859375 32.75 47.85
M 29.5 43
Q 29.25 42.75 29.05 42.45 29.1 43.2 29.45 43.7 29.6 43.95 29.85 44.15 29.88359375 44.177734375 29.9 44.2 30.253515625 44.453515625 30.65 44.55 31.24765625 44.7236328125 32 44.55 32.7 44.35 33.35 43.9 33.5740234375 43.7431640625 33.8 43.55 34.0515625 43.303515625 34.3 43 34.3619140625 42.9203125 34.4 42.85 34.694140625 42.479296875 34.9 42.15 34.95 42 35 41.9 35.25 41.2 35.35 40.45 35.3728515625 39.8318359375 35.2 39.35 34.987890625 38.7794921875 34.5 38.4 34.388671875 38.302734375 34.25 38.2 33.933203125 38.0361328125 33.5 38 33.2 37.95 32.9 38
L 33.35 38.2
Q 33.45 38.3 33.55 38.4 33.7958984375 38.6234375 33.9 38.95 33.9716796875 39.133203125 34 39.35 34.0296875 39.60234375 34 39.9 34 41 33.3 41.95 33.25 42 33.2 42.05
L 32.8 42.45 32.85 42.55
Q 32.7828125 42.5373046875 32.7 42.5 32.1814453125 43.0056640625 31.55 43.2 31.528515625 43.221484375 31.5 43.2 31.4572265625 43.25 31.4 43.25
L 31.3 43.35
Q 31.1228515625 43.3943359375 30.95 43.4
L 30.95 43.4
Q 30.1 43.45 29.5 43
M 34.65 47.35
L 34.3 47.45
Q 34 47.4 33.65 47.3
L 33.35 47.1 33.25 47.05
Q 33.35 47.45 33.65 47.7
L 34.1 48.1
Q 34.561328125 48.2384765625 35.15 48.15 35.199609375 48.1578125 35.25 48.15 35.34296875 48.128125 35.4 48.1 36.093359375 47.8966796875 36.6 47.35 36.6462890625 47.3126953125 36.7 47.25 37.15 46.6 37.2 45.8 37.2 45.2796875 36.95 44.9 36.8326171875 44.674609375 36.6 44.5
L 36.3 44.35
Q 36 44.2 35.65 44.25
L 35.7 44.25 35.9 44.45
Q 36.25 44.8 36.25 45.35 36.25 45.438671875 36.25 45.5 36.19296875 46.1259765625 35.8 46.65 35.35 47.25 34.65 47.35
M 40.55 36.35
L 41.05 36.6
Q 41.40625 36.8724609375 41.6 37.25 41.8791015625 37.7740234375 41.85 38.5 41.859375 38.753515625 41.8 39 41.8109375 39.176953125 41.75 39.35 41.62578125 40.22109375 41.05 41 40.8076171875 41.3232421875 40.5 41.6 40.3357421875 41.78046875 40.15 41.9 40.0767578125 41.991015625 40 42.05 39.977734375 42.0787109375 39.95 42.1 39.6955078125 42.24140625 39.45 42.35 39.2455078125 42.434765625 39.05 42.5 38.6646484375 42.6232421875 38.3 42.65 37.52265625 42.699609375 36.9 42.25 36.6 42 36.35 41.7 36.418359375 42.5556640625 36.85 43.15 37.1001953125 43.4291015625 37.4 43.65 37.5708984375 43.7638671875 37.75 43.85 37.81015625 43.876953125 37.85 43.9 38.6265625 44.1890625 39.55 43.95 39.646484375 43.928125 39.75 43.9 39.8212890625 43.8771484375 39.9 43.85 40.0267578125 43.8275390625 40.15 43.8 40.1751953125 43.7830078125 40.2 43.75 40.71796875 43.628125 41.15 43.25 41.316015625 43.1744140625 41.45 43.05 41.9 42.65 42.35 42 43.31484375 40.759375 43.4 39.35 43.4 39.2255859375 43.4 39.1 43.3984375 39.049609375 43.4 39 43.3888671875 38.8720703125 43.35 38.75 43.3578125 38.5681640625 43.3 38.4 43.2623046875 38.09375 43.15 37.8 42.9900390625 37.443359375 42.7 37.15 42.532421875 36.9548828125 42.3 36.8 42.250390625 36.7603515625 42.2 36.7 42.0056640625 36.58515625 41.8 36.5 41.228515625 36.2482421875 40.55 36.35 Z"/>

<path fill="#F7F1DA" stroke="none" d="
M 36.75 39.35
Q 36.7953125 39.249609375 36.85 39.15 37.1 38.75 37.35 38.35 37.59765625 38.019921875 37.85 37.75
L 34.8 37
Q 34.5431640625 37.6185546875 34.25 38.2 34.388671875 38.302734375 34.5 38.4 34.987890625 38.7794921875 35.2 39.35 35.3728515625 39.8318359375 35.35 40.45 35.25 41.2 35 41.9 34.95 42 34.9 42.15 34.694140625 42.479296875 34.4 42.85 35.64375 43.04453125 36.85 43.15 36.418359375 42.5556640625 36.35 41.7
L 36.3 41.25
Q 36.3 40.2595703125 36.75 39.35
M 42.2 35.55
L 42.05 35.5 40.35 35.1
Q 40.1337890625 35.1634765625 39.9 35.2 39.7400390625 35.2638671875 39.55 35.3 38.9001953125 35.445703125 38.1 35.55
L 37.7 35.55
Q 37.9443359375 36.3759765625 37.9 37.7 38.7705078125 36.8388671875 39.9 36.5 40.0208984375 36.439453125 40.15 36.4 40.341015625 36.35 40.55 36.35 41.228515625 36.2482421875 41.8 36.5 42.0056640625 36.58515625 42.2 36.7 42.250390625 36.7603515625 42.3 36.8 42.532421875 36.9548828125 42.7 37.15 43.17109375 36.5849609375 43.55 35.95
L 43.5 35.9 42.2 35.55 42.2 35.55
M 44.7 22.5
L 41.85 20.1
Q 41.1890625 19.676171875 40.4 19.15 40.2 18.95 39.95 18.8 39.9 18.75 39.8 18.7
L 37.75 17.3
Q 37.95859375 18.952734375 38 20.6 38.5220703125 21.3216796875 39.05 22.1 39.25 22.35 39.45 22.7 43.27265625 28.70703125 43.15 32.2
L 43.15 32.25
Q 43.1431640625 32.3107421875 43.1 32.35 43.2873046875 32.2884765625 43.45 32.2 43.6369140625 32.101171875 43.8 32
L 43.85 32
Q 43.8373046875 31.928125 44.6 31.85 43.7193359375 31.690625 43.6 31.55 43.3185546875 31.097265625 43.75 31.3 44.0224609375 31.4146484375 44.6 31.8
L 44.6 31.85 44.65 31.85
Q 44.6654296875 31.7623046875 44.7 31.55 44.8 30.65 44.85 29.7 44.8763671875 29.6259765625 44.9 29.55 45.1158203125 28.9099609375 45.25 28.15 45.5 26.5 45 26.9
L 45 25.3
Q 44.92421875 23.87890625 44.7 22.5 Z"/>

<path fill="#9C2B2B" stroke="none" d="
M 5.8 36
L 5.9 36.25 9.6 43.45
Q 11.96484375 46.67890625 14.95 48.65 15.2470703125 48.8646484375 15.55 49.05 15.2447265625 48.7447265625 14.95 48.4 13.5556640625 46.88125 12.4 44.9 10.5 41.7 9.55 38.05 8.05 36.75 6 36.1
L 5.8 36
M 17.25 26
L 17.5 25.25 16.35 25.25 15.5 26.45
Q 15 27.1 14.65 27.8
L 13.8 29.4 15.3 30.05 16.35 28
Q 16.9 26.95 17.25 26
M 17.4 23.95
L 17.4 24 17.65 24.9 18.25 23.1 17.4 23.95
M 13.9 10.45
L 13.35 10 11.95 11.95 12.25 13.25 12.35 12.95
Q 12.85 12.05 13.4 11.15
L 13.9 10.45 Z"/>

<path fill="#B83E3E" stroke="none" d="
M 4.6 35.9
L 3.9 35.95 4.4 37.6
Q 4.8916015625 39.133984375 5.6 40.55 14.57421875 51.9984375 28.8 53.2 29.83984375 53.3099609375 30.85 53.35 31.0123046875 53.3541015625 31.15 53.35 33.271875 53.405859375 35.5 53.25 37.067578125 51.9908203125 38.45 50.35 37.4060546875 50.6318359375 36.35 50.35 36.082421875 50.3083984375 35.7 50.1 35.0931640625 49.484765625 34.35 49 33.751953125 48.5759765625 33.05 48.25 33.2 48.5447265625 33.2 48.9 33.15 49.6 32.7 50.15 32.25 50.8 31.55 50.85 31.3359375 50.9111328125 31.15 50.9 30.727734375 50.927734375 30.45 50.65 29.95 50.35 29.85 49.7
L 29.9 49.65
Q 29.9 49.05 30.35 48.35 30.721875 47.8955078125 31.3 47.65 30.1060546875 47.4109375 28.75 47.4 28.6900390625 47.4140625 28.6 47.4 24.7509765625 48.2814453125 23.8 44.95
L 23.85 44.95
Q 23.218359375 41.9375 21.3 39.35 21.2564453125 39.2748046875 21.2 39.2 21.2029296875 39.27890625 20.55 41.3 19.9572265625 43.3634765625 17.3 43.1 16.300390625 42.633984375 15.7 41.7
L 13.9 39 11.75 40.9
Q 10.8 39.25 9.55 38.05 10.5 41.7 12.4 44.9 13.5556640625 46.88125 14.95 48.4 15.2447265625 48.7447265625 15.55 49.05 15.2470703125 48.8646484375 14.95 48.65 11.96484375 46.67890625 9.6 43.45
L 5.9 36.25 5.8 36
Q 5.2 35.85 4.6 35.9
M 10.65 27.55
L 11.25 28
Q 12.1 28.55 13 29.05 13.9 27.1 15.2 25.3
L 9.25 25.2 9.35 26.5
Q 9.6 28.6 10.55 30.5
L 9.85 30.45
Q 9 30.6 8.5 31 7.6 31.7 8.15 33.3 8.35 33.95 8.8 34.4 9.3 34.95 10.1 35.15
L 9.5 32.65 11.45 32.85 11.4 31.95
Q 10.95 29.7 9.95 27.55
L 10.65 27.55
M 16.05 19.1
L 17.05 22.8 18.3 21.3
Q 17.25 20.15 16.05 19.1
M 18.2 23.05
Q 18.25 23.05 18.25 23.1
L 17.65 24.9 17.75 25.3 17.5 25.25 17.25 26
Q 16.9 26.95 16.35 28
L 15.3 30.05
Q 16.2 30.45 17.15 30.8
L 17.2 30.8 23.5 32.25 23.45 31.85 23.45 31.8 23 31.55
Q 19.6 29.35 18.65 25.3 18.5 24.65 18.45 24
L 18.4 22.55 18.2 23.05
M 13.9 10.45
L 13.4 11.15
Q 12.85 12.05 12.35 12.95
L 12.25 13.25 12.45 14.1
Q 14.15 14.7 15.75 15.65
L 15.85 15.35
Q 16.15 14.2 16.6 13.25 15.45 11.6 13.9 10.45
M 17.45 35.3
Q 16.8556640625 34.1349609375 15.95 33.1
L 15.15 32.95 16.15 36.45 16.55 36.55 16.45 35.95 18.85 39.35 18.65 38.6
Q 18.3087890625 36.83671875 17.45 35.3 Z"/>

<path fill="#7B2828" stroke="none" d="
M 3.9 35.95
Q 3.4376953125 35.95 2.95 36 2.7521484375 36.02109375 2.55 36.05
L 2.6 36.35 3.55 39.25
Q 3.897265625 40.124609375 4.3 40.95 10.5125 49.123828125 18.65 52.4 21.4462890625 53.545703125 24.45 54.1 26.7619140625 53.8052734375 28.8 53.2 14.57421875 51.9984375 5.6 40.55 4.8916015625 39.133984375 4.4 37.6
L 3.9 35.95
M 44.2 40.05
L 44.2 40.05
Q 44.3314453125 39.59453125 44.4 39.15 44.319140625 39.60078125 44.2 40.05 Z"/>

<path fill="#353531" stroke="none" d="
M 3.65 26.3
Q 3.7171875 25.7912109375 3.8 25.25 3.06796875 25.17890625 2.35 25.05 2.237109375 25.6875 2.15 26.3 1.4380859375 31.5591796875 2.55 36.05 2.7521484375 36.02109375 2.95 36 3.4376953125 35.95 3.9 35.95 3.827734375 35.6267578125 3.75 35.3 2.9537109375 31.0939453125 3.65 26.3
M 28.65 2.2
Q 29.01796875 2.2947265625 29.35 2.4
L 29.2 1.2
Q 28.83203125 1.1375 28.45 1.05 27.150390625 0.8080078125 25.9 0.7 13.398046875 -0.192578125 5.8 14 5.717578125 14.2232421875 5.6 14.45
L 5.6 14.5 4.9 16.1 4.85 16.3
Q 5.6 16.25 6.4 16.3
L 6.85 15.05
Q 6.915625 14.9244140625 6.95 14.8 7.191015625 14.3935546875 7.4 14 14.4982421875 1.3298828125 25.9 1.85 27.2451171875 1.9505859375 28.65 2.2
M 38.25 4.95
L 38.25 5
Q 34.92421875 2.79765625 30.2 1.5
L 31.65 3.1
Q 35.6396484375 4.509375 39.15 6.8 39.47578125 7.0849609375 39.8 7.35
L 39.8 7.3 40.3 6.6
Q 40.140625 6.4525390625 39.95 6.3 39.15 5.55 38.25 4.95
M 47.5 26.5
L 47.45 26.45 47.5 26.45
Q 47.487109375 25.5919921875 47.45 24.75
L 46.8 24.2
Q 46.875 25.4017578125 46.9 26.65 46.7541015625 28.13828125 46.55 29.55 46.340234375 30.910546875 46.05 32.2 45.976953125 32.6544921875 45.85 33.1 45.610546875 34.2283203125 45.3 35.3 45.2755859375 35.387890625 45.25 35.45 45.2498046875 35.512109375 45.25 35.55
L 45.15 36 45.25 35.8
Q 45.1587890625 36.1333984375 45.05 36.45 44.9837890625 36.7580078125 44.9 37.05
L 44.75 37.65 44.75 37.5
Q 43.5173828125 41.6173828125 41.85 45.15 41.3525390625 46.1119140625 40.8 47 40.4783203125 47.565625 40.1 48.1 39.323828125 49.301953125 38.45 50.35 37.067578125 51.9908203125 35.5 53.25 33.271875 53.405859375 31.15 53.35 31.0123046875 53.3541015625 30.85 53.35 29.83984375 53.3099609375 28.8 53.2 26.7619140625 53.8052734375 24.45 54.1 25.7568359375 54.331640625 27.05 54.45 31.2322265625 54.862109375 35.8 54.25 35.9853515625 54.1021484375 36.15 53.95 39.0634765625 51.54140625 41.2 48.1 41.5326171875 47.5626953125 41.85 47 44.481640625 42.2849609375 45.8 35.8 45.875390625 35.5513671875 45.9 35.3 45.9404296875 35.244140625 45.95 35.2 46.2361328125 34.16953125 46.45 33.1 46.57265625 32.6544921875 46.65 32.2 46.921484375 30.9107421875 47.1 29.55 47.3466796875 28.11484375 47.5 26.6
L 47.5 26.5
M 44.2 40.05
L 44.2 40.05
Q 44.319140625 39.60078125 44.4 39.15 44.3314453125 39.59453125 44.2 40.05
M 46.55 18.1
L 46.1 17.9
Q 45.925390625 17.8068359375 45.75 17.7 45.883984375 18.229296875 46 18.75 46.1201171875 19.2763671875 46.2 19.8
L 47.05 20.75
Q 46.908203125 19.74140625 46.7 18.75 46.645703125 18.434765625 46.55 18.1 Z"/>

<path fill="#E9E2C9" stroke="none" d="
M 4 25.3
Q 3.916015625 25.290234375 3.8 25.25 3.7171875 25.7912109375 3.65 26.3 2.9537109375 31.0939453125 3.75 35.3 3.827734375 35.6267578125 3.9 35.95
L 4.6 35.9
Q 4.52890625 35.601171875 4.45 35.3 3.5447265625 31.013671875 3.9 26.3 3.973828125 25.805078125 4 25.3
M 28.7 2.8
L 28.7 2.85
Q 29.0873046875 2.9529296875 29.45 3.05
L 29.35 2.4
Q 29.01796875 2.2947265625 28.65 2.2 27.2451171875 1.9505859375 25.9 1.85 14.4982421875 1.3298828125 7.4 14 7.191015625 14.3935546875 6.95 14.8 6.915625 14.9244140625 6.85 15.05
L 6.4 16.3 6.45 16.25
Q 6.7724609375 15.5099609375 7.1 14.8 7.332421875 14.3951171875 7.55 14 9.58203125 10.36015625 12.7 7.55 18.7505859375 1.9783203125 25.9 2.4 26.962890625 2.455859375 28.05 2.65
L 28.7 2.8
M 31.65 3.1
L 32.4 4
Q 33.5314453125 4.380859375 34.65 4.8 36.6830078125 5.6447265625 39.15 6.8 35.6396484375 4.509375 31.65 3.1
M 43.7 36.15
L 43.55 35.95
Q 43.17109375 36.5849609375 42.7 37.15 42.9900390625 37.443359375 43.15 37.8 43.4478515625 37.0033203125 43.7 36.15 Z"/>

<path fill="#D4CEB7" stroke="none" d="
M 4.8 25.4
Q 4.426953125 25.355078125 4 25.3 3.973828125 25.805078125 3.9 26.3 3.5447265625 31.013671875 4.45 35.3 4.52890625 35.601171875 4.6 35.9 5.2 35.85 5.8 36 5.692578125 35.6521484375 5.6 35.3 4.437890625 31.09375 4.75 26.3 4.7814453125 26.07578125 4.8 25.85
L 4.8 25.4
M 12.45 14.1
L 12.25 13.25
Q 11.5109375 14.68203125 10.9 16.2 10.849609375 16.3244140625 10.8 16.45
L 10.9 16.45 11.25 16.6 12.2 16.95 11.5 18.85
Q 11.4 19.1 11.3 19.4 11.1 20 10.9 20.55
L 9.05 25.7 9 25.75 8.6 26.75
Q 8.6 26.8 8.6 26.85 8.45 28.95 8.5 31 9 30.6 9.85 30.45
L 10.55 30.5
Q 9.6 28.6 9.35 26.5
L 9.25 25.2 15.2 25.3 15.4 24.95
Q 15 22.6 15.1 20.05 15.2 17.7 15.75 15.65 14.15 14.7 12.45 14.1
M 28.7 2.85
L 28.7 2.8 28.05 2.65
Q 26.962890625 2.455859375 25.9 2.4 18.7505859375 1.9783203125 12.7 7.55 9.58203125 10.36015625 7.55 14 7.332421875 14.3951171875 7.1 14.8 6.7724609375 15.5099609375 6.45 16.25 6.85 16.3 7.25 16.35 7.6064453125 15.627734375 8 14.9 8.0373046875 14.8658203125 8.05 14.8 9.807421875 11.86328125 12.35 9.4 14.95 6.95 17.8 5.55 17.1 6.25 16.45 7 15 8.65 13.9 10.45 15.45 11.6 16.6 13.25 17.85 10.2 20.3 7.95 21.95 6.45 23.75 5.65
L 23.25 5.2
Q 22.75 4.7 22.3 4.3
L 23.2 4.9 22.1 3.9 24.65 5.25
Q 25.26640625 5.0298828125 25.9 4.85 27.425 4.529296875 29.05 4.6 29.361328125 4.5642578125 29.7 4.55
L 29.45 3.05
Q 29.0873046875 2.9529296875 28.7 2.85
M 32.4 4
L 32.95 4.6
Q 33.7642578125 4.6916015625 34.65 4.8 33.5314453125 4.380859375 32.4 4
M 43.4 39.1
Q 43.4 39.2255859375 43.4 39.35 43.31484375 40.759375 42.35 42 41.9 42.65 41.45 43.05 41.316015625 43.1744140625 41.15 43.25 40.71796875 43.628125 40.2 43.75 40.1751953125 43.7830078125 40.15 43.8 40.0267578125 43.8275390625 39.9 43.85 39.8212890625 43.8771484375 39.75 43.9 39.646484375 43.928125 39.55 43.95 38.6265625 44.1890625 37.85 43.9 37.81015625 43.876953125 37.75 43.85 37.5708984375 43.7638671875 37.4 43.65 37.1001953125 43.4291015625 36.85 43.15 35.64375 43.04453125 34.4 42.85 34.3619140625 42.9203125 34.3 43 34.0515625 43.303515625 33.8 43.55 33.5740234375 43.7431640625 33.35 43.9 32.7 44.35 32 44.55 31.24765625 44.7236328125 30.65 44.55 30.253515625 44.453515625 29.9 44.2 29.88359375 44.177734375 29.85 44.15 29.6 43.95 29.45 43.7 29.1 43.2 29.05 42.45
L 29 42.1
Q 29.0306640625 41.8134765625 29.1 41.55 26.596484375 40.714453125 24.2 39.5
L 24.2 39.45
Q 24.1306640625 39.400390625 24.05 39.35 21.84453125 37.735546875 19.95 35.3 19.515625 34.7462890625 19.1 34.15 18 32.45 17.2 30.8
L 17.15 30.8
Q 16.2 30.45 15.3 30.05
L 11.5 36.7 11.65 36 11.15 36.85 11.2 35.65
Q 11.21640625 35.474609375 11.2 35.3 11.4490234375 33.33671875 12 31.5 12.45 30.25 13 29.05 12.1 28.55 11.25 28
L 10.65 27.55 9.95 27.55
Q 10.95 29.7 11.4 31.95
L 11.45 32.85 9.5 32.65 10.1 35.15
Q 9.3 34.95 8.8 34.4 8.8716796875 34.854296875 8.95 35.3 9.2076171875 36.7185546875 9.55 38.05 10.8 39.25 11.75 40.9
L 13.9 39 15.7 41.7
Q 16.300390625 42.633984375 17.3 43.1 19.9572265625 43.3634765625 20.55 41.3 21.2029296875 39.27890625 21.2 39.2 21.2564453125 39.2748046875 21.3 39.35 23.218359375 41.9375 23.85 44.95
L 23.8 44.95
Q 24.7509765625 48.2814453125 28.6 47.4 28.6900390625 47.4140625 28.75 47.4 30.1060546875 47.4109375 31.3 47.65 31.419921875 47.634765625 31.55 47.6 32 47.5 32.4 47.65
L 32.75 47.85
Q 32.8771484375 47.9630859375 32.95 48.1 33.029296875 48.183203125 33.05 48.25 33.751953125 48.5759765625 34.35 49 35.0931640625 49.484765625 35.7 50.1 36.082421875 50.3083984375 36.35 50.35 37.4060546875 50.6318359375 38.45 50.35 39.323828125 49.301953125 40.1 48.1 40.4783203125 47.565625 40.8 47 41.3525390625 46.1119140625 41.85 45.15 43.5173828125 41.6173828125 44.75 37.5
L 44.85 36.25 43.3 38.4
Q 43.3578125 38.5681640625 43.35 38.75 43.3888671875 38.8720703125 43.4 39 43.3984375 39.049609375 43.4 39.1
M 15.95 33.1
Q 16.8556640625 34.1349609375 17.45 35.3 18.3087890625 36.83671875 18.65 38.6
L 18.85 39.35 16.45 35.95 16.55 36.55 16.15 36.45 15.15 32.95 15.95 33.1
M 34.95 44.35
L 35.2 44.25
Q 35.45 44.2 35.65 44.25 36 44.2 36.3 44.35
L 36.6 44.5
Q 36.8326171875 44.674609375 36.95 44.9 37.2 45.2796875 37.2 45.8 37.15 46.6 36.7 47.25 36.6462890625 47.3126953125 36.6 47.35 36.093359375 47.8966796875 35.4 48.1 35.34296875 48.128125 35.25 48.15 35.199609375 48.1578125 35.15 48.15 34.561328125 48.2384765625 34.1 48.1
L 33.65 47.7
Q 33.35 47.45 33.25 47.05
L 33.2 46.65
Q 33.25 45.85 33.8 45.15
L 34.05 44.9
Q 34.25 44.65 34.6 44.5 34.75 44.4 34.95 44.35
M 45.15 36
L 45 36.25 44.75 37.5 44.75 37.65 44.9 37.05
Q 44.9837890625 36.7580078125 45.05 36.45 45.1587890625 36.1333984375 45.25 35.8
L 45.15 36 Z"/>

<path fill="#585446" stroke="none" d="
M 7.85 26.8
L 8.25 25.7
Q 7.4171875 25.6505859375 6.6 25.55
L 6.25 26.7 7.85 26.8
M 9.6 15.9
L 9.4 16.65 11.15 17.1 11.25 16.6 10.9 16.45 10.8 16.45 9.6 15.9 Z"/>

<path fill="#AAA389" stroke="none" d="
M 8.6 26.85
L 7.85 26.8 6.25 26.7 6.6 25.55
Q 5.7046875 25.5001953125 4.8 25.4
L 4.8 25.85
Q 4.7814453125 26.07578125 4.75 26.3 4.437890625 31.09375 5.6 35.3 5.692578125 35.6521484375 5.8 36
L 6 36.1
Q 8.05 36.75 9.55 38.05 9.2076171875 36.7185546875 8.95 35.3 8.8716796875 34.854296875 8.8 34.4 8.35 33.95 8.15 33.3 7.6 31.7 8.5 31 8.45 28.95 8.6 26.85
M 11.65 36
L 11.5 36.7 15.3 30.05 13.8 29.4
Q 13.35 30.3 13.05 31.2 12.389453125 33.2693359375 11.85 35.3 11.7716796875 35.575390625 11.7 35.85
L 11.65 36
M 17.5 25.25
L 17.65 24.9 17.4 24
Q 16.85 24.6 16.35 25.25
L 17.5 25.25
M 13.9 10.45
Q 15 8.65 16.45 7 17.1 6.25 17.8 5.55 14.95 6.95 12.35 9.4 9.807421875 11.86328125 8.05 14.8 8.0373046875 14.8658203125 8 14.9 7.6064453125 15.627734375 7.25 16.35 7.6279296875 16.3671875 8 16.4 8.7107421875 16.4859375 9.4 16.65
L 9.6 15.9 10.8 16.45
Q 10.849609375 16.3244140625 10.9 16.2 11.5109375 14.68203125 12.25 13.25
L 11.95 11.95 13.35 10 13.9 10.45
M 30.6 10.8
L 30.45 9.9
Q 29.916015625 9.5 29.35 9.1 27.625 7.895703125 25.9 6.7 24.975 6.1109375 24.05 5.5
L 23.2 4.9 22.3 4.3
Q 22.75 4.7 23.25 5.2
L 23.75 5.65 28.7 10
Q 29.2052734375 10.4337890625 29.7 10.85 33.3185546875 13.9353515625 36.05 16.05
L 37.75 17.3 39.8 18.7
Q 39.358984375 18.1787109375 38.9 17.7
L 30.6 10.8
M 44.55 33.05
Q 44.4498046875 33.0833984375 44.35 33.1 44.2998046875 33.1 44.25 33.1 43.05 33.5 42.3 33.85
L 42.35 34.05 43.15 35.3 43.2 35.4 43.45 35.8 43.5 35.9 43.55 35.95 43.7 36.15 44.15 36.85
Q 44.31953125 36.4896484375 44.45 36.15 44.5529296875 35.9728515625 44.6 35.8 44.7412109375 35.545703125 44.85 35.3 44.8951171875 35.1611328125 44.95 35 45.0541015625 34.75234375 45.15 34.5 45.2845703125 34.1091796875 45.4 33.75 45.6 33.2 45.7 32.7 45.45 32.75 45.2 32.85 44.9 32.95 44.55 33.05 Z"/>

<path fill="#3A372E" stroke="none" d="
M 9 25.75
L 9.05 25.7 8.3 25.55 8.25 25.7 7.85 26.8 8.6 26.85
Q 8.6 26.8 8.6 26.75
L 9 25.75
M 11.15 17.1
L 11.25 17.1 11.7 18.25 11.5 18.85 12.2 16.95 11.25 16.6 11.15 17.1 Z"/>

<path fill="#E9E3CB" stroke="none" d="
M 19.1 34.15
Q 19.515625 34.7462890625 19.95 35.3 21.84453125 37.735546875 24.05 39.35 24.1306640625 39.400390625 24.2 39.45
L 24.2 39.5
Q 26.596484375 40.714453125 29.1 41.55 29.3240234375 40.4748046875 30 39.6 30.109375 39.475 30.2 39.35 30.475 39.075 30.75 38.8
L 31.25 38.5
Q 31.3796875 38.4134765625 31.5 38.35
L 31.55 38.35
Q 31.9 38.15 32.3 38
L 32.9 38
Q 33.2 37.95 33.5 38 33.933203125 38.0361328125 34.25 38.2 34.5431640625 37.6185546875 34.8 37
L 37.85 37.75 37.9 37.7
Q 37.9443359375 36.3759765625 37.7 35.55
L 34.8 35.55
Q 33.4666015625 35.47890625 32.25 35.3 30.08984375 34.9765625 28.35 34.3 24.711328125 32.8890625 22.95 29.85 23.0828125 30.358203125 23.2 30.85
L 23.45 31.8 23.45 31.85 23.5 32.25 17.2 30.8
Q 18 32.45 19.1 34.15
M 17.65 24.9
L 17.5 25.25 17.75 25.3 17.65 24.9
M 25.45 11.8
Q 27.1 10.9 29.25 11.85 32.8859375 13.3953125 38 20.6 37.95859375 18.952734375 37.75 17.3
L 36.05 16.05
Q 33.3185546875 13.9353515625 29.7 10.85 29.2052734375 10.4337890625 28.7 10
L 23.75 5.65
Q 21.95 6.45 20.3 7.95 17.85 10.2 16.6 13.25 16.85 13.6 17.05 14 18.2 15.8 18 17.85
L 17.8 17.8
Q 17.1 16.55 15.9 15.75
L 15.75 15.65
Q 15.2 17.7 15.1 20.05 15 22.6 15.4 24.95
L 17.05 22.8 16.05 19.1
Q 17.25 20.15 18.3 21.3
L 18.55 21 18.7 20.9 18.75 20.85 18.85 20.95 18.65 21.75
Q 20.516796875 23.928125 21.7 26.55 19.578125 15.666796875 25.45 11.8
M 29.7 4.55
Q 29.361328125 4.5642578125 29.05 4.6 27.425 4.529296875 25.9 4.85 25.26640625 5.0298828125 24.65 5.25 25.2830078125 5.6158203125 25.9 6 27.4767578125 6.9720703125 28.95 8.05
L 29.7 8.55 29.75 8.6
Q 30.0494140625 8.8166015625 30.35 9.05
L 29.7 4.55
M 34.65 4.8
Q 33.7642578125 4.6916015625 32.95 4.6
L 38.95 11.5 39.9 11.85 39.8 9
Q 39.62265625 8.0408203125 39.15 6.8 36.6830078125 5.6447265625 34.65 4.8 Z"/>

<path fill="#F5F2E7" stroke="none" d="
M 13.8 29.4
L 13 29.05
Q 12.45 30.25 12 31.5 11.4490234375 33.33671875 11.2 35.3 11.21640625 35.474609375 11.2 35.65
L 11.15 36.85 11.65 36 11.7 35.85
Q 11.7716796875 35.575390625 11.85 35.3 12.389453125 33.2693359375 13.05 31.2 13.35 30.3 13.8 29.4
M 17.4 24
L 17.4 23.95 17.05 22.8 15.4 24.95 15.2 25.3 16.35 25.25
Q 16.85 24.6 17.4 24
M 18.5 21.5
L 18.55 21 18.3 21.3 18.5 21.5
M 39.95 18.8
Q 40.2 18.95 40.4 19.15 41.1890625 19.676171875 41.85 20.1
L 38.9 17.7
Q 39.358984375 18.1787109375 39.8 18.7 39.9 18.75 39.95 18.8
M 24.65 5.25
L 22.1 3.9 23.2 4.9 24.05 5.5
Q 24.975 6.1109375 25.9 6.7 27.625 7.895703125 29.35 9.1 29.916015625 9.5 30.45 9.9
L 30.35 9.05
Q 30.0494140625 8.8166015625 29.75 8.6
L 29.7 8.55 28.95 8.05
Q 27.4767578125 6.9720703125 25.9 6 25.2830078125 5.6158203125 24.65 5.25 Z"/>

<path fill="#FF4D4D" stroke="none" d="
M 15.5 26.45
L 16.35 25.25 15.2 25.3
Q 13.9 27.1 13 29.05
L 13.8 29.4 14.65 27.8
Q 15 27.1 15.5 26.45
M 18.5 21.5
L 18.3 21.3 17.05 22.8 17.4 23.95 18.25 23.1
Q 18.25 23.05 18.2 23.05
L 18.4 22.55 18.4 22.5 18.5 21.5 Z"/>

<path fill="#872F2F" stroke="none" d="
M 18.85 20.95
L 18.75 20.85 18.7 20.9 18.55 21 18.5 21.5 18.4 22.5 18.4 22.55 18.45 24
Q 18.5 24.65 18.65 25.3 19.6 29.35 23 31.55
L 23.45 31.8 23.2 30.85
Q 23.0828125 30.358203125 22.95 29.85 22.4580078125 28.1330078125 21.7 26.55 20.516796875 23.928125 18.65 21.75
L 18.85 20.95 Z"/>

<path fill="#E24A4A" stroke="none" d="
M 15.85 15.35
L 15.75 15.65 15.9 15.75
Q 17.1 16.55 17.8 17.8
L 18 17.85
Q 18.2 15.8 17.05 14 16.85 13.6 16.6 13.25 16.15 14.2 15.85 15.35 Z"/>

<path fill="#4F3727" stroke="none" d="
M 6.45 16.25
L 6.4 16.3
Q 5.6 16.25 4.85 16.3
L 4.9 16.1
Q 3.0630859375 15.7107421875 2.25 14.85 -0.93046875 18.3724609375 -0.5 23 -0.3837890625 23.7841796875 -0.2 24.6 1.0556640625 24.8611328125 2.35 25.05 3.06796875 25.17890625 3.8 25.25 3.916015625 25.290234375 4 25.3 4.426953125 25.355078125 4.8 25.4 5.7046875 25.5001953125 6.6 25.55 7.4171875 25.6505859375 8.25 25.7
L 8.3 25.55 9.05 25.7 10.9 20.55
Q 11.1 20 11.3 19.4 11.4 19.1 11.5 18.85
L 11.7 18.25 11.25 17.1 11.15 17.1 9.4 16.65
Q 8.7107421875 16.4859375 8 16.4 7.6279296875 16.3671875 7.25 16.35 6.85 16.3 6.45 16.25
M 5.1 16.7
Q 5.41953125 16.7947265625 5.7 16.85 6.7984375 17.037109375 8 17.15 8.2595703125 17.2193359375 8.5 17.25 9.239453125 17.331640625 10 17.35 10.1 17.3 10.15 17.3
L 10.2 17.35 10.3 17.35 10.3 17.4 10.5 17.45 10.55 17.55
Q 10.75 17.7 10.8 18.05
L 8.4 24.75
Q 4.24296875 24.522265625 1 23.4 0.994140625 23.321484375 0.95 23.25 0.9193359375 23.13359375 0.85 23
L 0.85 23
Q 0.7107421875 22.5138671875 0.6 22 0.45625 21.0794921875 0.55 20.1 0.7736328125 18.0873046875 2.2 16 2.90625 16.2234375 3.7 16.4 4.379296875 16.58984375 5.1 16.7
M 41 7.4
L 41.35 7.45
Q 41.553515625 7.5314453125 41.75 7.6 42.1484375 7.7880859375 42.5 7.95
L 45.85 12.75 46.1 14.7 46.25 15.75 46.35 16.4 46.45 17.05
Q 46.3619140625 17.0201171875 46.25 16.95 45.828515625 16.7236328125 45.4 16.5 44.8107421875 16.187109375 44.25 15.9 42.873046875 15.2 41.8 14.75
L 43.3 16.5
Q 44.1046875 16.862890625 44.85 17.25 45.31171875 17.48046875 45.75 17.7 45.925390625 17.8068359375 46.1 17.9
L 46.55 18.1 46.6 18.1 47.75 18.7 46.55 12.45 43.25 7.55
Q 42.88828125 7.369140625 42.5 7.2 41.5326171875 6.7609375 40.45 6.4
L 40.3 6.6 39.8 7.3 39.8 7.35 39.8 9 39.9 11.85 39.9 12.6 40.8 13.6 41 7.4 Z"/>

<path fill="#382113" stroke="none" d="
M 1.7 22.95
Q 1.25 22.95 0.95 23 0.916796875 23.0009765625 0.85 23 0.9193359375 23.13359375 0.95 23.25 0.994140625 23.321484375 1 23.4 4.24296875 24.522265625 8.4 24.75
L 7.95 24.55 7.85 24.45 7.8 24.45 4.85 23.4
Q 3.678125 23.025 2.45 23
L 1.7 22.95 Z"/>

<path fill="#A06945" stroke="none" d="
M 8.5 17.25
Q 9.1822265625 17.578125 9.5 18.15 10 19.1 9.3 20.95 8.65 22.85 7.95 24.55
L 8.4 24.75 10.8 18.05
Q 10.75 17.7 10.55 17.55
L 10.5 17.45 10.3 17.4 10.3 17.35 10.2 17.35 10.15 17.3
Q 10.1 17.3 10 17.35 9.239453125 17.331640625 8.5 17.25 Z"/>

<path fill="#805132" stroke="none" d="
M 6.35 17.25
Q 6.8724609375 17.3234375 7.3 17.45 6.3 19.85 5.9 22.15
L 5.8 22.95
Q 3.55 22.15 0.95 23 1.25 22.95 1.7 22.95
L 2.45 23
Q 3.678125 23.025 4.85 23.4
L 7.8 24.45 7.85 24.45 7.95 24.55
Q 8.65 22.85 9.3 20.95 10 19.1 9.5 18.15 9.1822265625 17.578125 8.5 17.25 8.2595703125 17.2193359375 8 17.15 6.7984375 17.037109375 5.7 16.85 5.41953125 16.7947265625 5.1 16.7 4.379296875 16.58984375 3.7 16.4 2.90625 16.2234375 2.2 16 0.7736328125 18.0873046875 0.55 20.1 0.45625 21.0794921875 0.6 22 0.6736328125 21.74296875 0.75 21.45
L 0.75 21.45
Q 0.8 21.25 0.85 21.05 1.2583984375 17.9630859375 2.65 16.8 3.4095703125 17.060546875 4.3 17.15 5.4611328125 17.1298828125 6.35 17.25
M 41.75 7.6
Q 41.553515625 7.5314453125 41.35 7.45 41.4029296875 7.60859375 41.45 7.75 41.608203125 8.2845703125 41.75 8.9 41.8408203125 9.2751953125 41.9 9.7 41.96875 9.84375 42 10 42.0857421875 10.448046875 42.15 10.85 42.284765625 11.8029296875 42.25 12.5 42.257421875 13.0560546875 42.15 13.45 42.408203125 13.277734375 42.7 13.1 43.2169921875 12.857421875 43.8 12.65 44.20546875 12.556640625 44.6 12.45 44.82890625 12.432421875 45.05 12.4 45.1 12.35 45.2 12.4
L 46.1 14.7 45.85 12.75 42.5 7.95
Q 42.1484375 7.7880859375 41.75 7.6 Z"/>

<path fill="#663F25" stroke="none" d="
M 7.3 17.45
Q 6.8724609375 17.3234375 6.35 17.25 5.4611328125 17.1298828125 4.3 17.15 3.4095703125 17.060546875 2.65 16.8 1.2583984375 17.9630859375 0.85 21.05 0.8 21.25 0.75 21.45
L 0.75 21.45
Q 0.6736328125 21.74296875 0.6 22 0.7107421875 22.5138671875 0.85 23
L 0.85 23
Q 0.916796875 23.0009765625 0.95 23 3.55 22.15 5.8 22.95
L 5.9 22.15
Q 6.3 19.85 7.3 17.45 Z"/>

<path fill="#FFFBEE" stroke="none" d="
M 39.9 11.85
L 38.95 11.5 39.9 12.6 39.9 11.85
M 45.25 35.45
Q 45.246875 35.3859375 45.25 35.3 45.21796875 34.8556640625 45.15 34.5 45.0541015625 34.75234375 44.95 35 44.8951171875 35.1611328125 44.85 35.3 44.7412109375 35.545703125 44.6 35.8 44.5529296875 35.9728515625 44.45 36.15
L 44.85 36.25 44.75 37.5 45 36.25 45.15 36 45.25 35.55
Q 45.2498046875 35.512109375 45.25 35.45
M 44.6 31.85
L 44.6 31.8
Q 44.0224609375 31.4146484375 43.75 31.3 43.3185546875 31.097265625 43.6 31.55 43.7193359375 31.690625 44.6 31.85
M 46.35 23.85
L 44.7 22.5
Q 44.92421875 23.87890625 45 25.3
L 45 26.9
Q 45.5 26.5 45.25 28.15 45.1158203125 28.9099609375 44.9 29.55 44.8763671875 29.6259765625 44.85 29.7 44.8 30.65 44.7 31.55 44.6654296875 31.7623046875 44.65 31.85
L 44.6 31.85
Q 43.8373046875 31.928125 43.85 32
L 43.8 32
Q 43.6369140625 32.101171875 43.45 32.2 43.2873046875 32.2884765625 43.1 32.35 42.3919921875 34.09609375 40.35 35.1
L 42.05 35.5 42.2 35.55 42.2 35.55 43.5 35.9 43.45 35.8 43.2 35.4 43.15 35.3 42.35 34.05 42.3 33.85
Q 43.05 33.5 44.25 33.1 44.2998046875 33.1 44.35 33.1 44.4498046875 33.0833984375 44.55 33.05 44.9 32.95 45.2 32.85 45.319921875 32.5296875 45.4 32.2 45.840234375 30.9404296875 46.05 29.55 46.1455078125 29.1310546875 46.2 28.7 46.3 27.75 46.4 26.75 46.466796875 25.28203125 46.35 23.85
M 44.85 17.25
Q 44.1046875 16.862890625 43.3 16.5
L 45.45 18.95
Q 45.4298828125 18.8455078125 45.4 18.75 45.1662109375 17.9923828125 44.85 17.25 Z"/>

<path fill="#FFF9E5" stroke="none" d="
M 39.15 6.8
Q 39.62265625 8.0408203125 39.8 9
L 39.8 7.35
Q 39.47578125 7.0849609375 39.15 6.8
M 44.15 36.85
L 43.7 36.15
Q 43.4478515625 37.0033203125 43.15 37.8 43.2623046875 38.09375 43.3 38.4
L 44.85 36.25 44.45 36.15
Q 44.31953125 36.4896484375 44.15 36.85
M 46.8 24.2
L 46.35 23.85
Q 46.466796875 25.28203125 46.4 26.75 46.3 27.75 46.2 28.7 46.1455078125 29.1310546875 46.05 29.55 45.840234375 30.9404296875 45.4 32.2 45.319921875 32.5296875 45.2 32.85 45.45 32.75 45.7 32.7 45.6 33.2 45.4 33.75 45.2845703125 34.1091796875 45.15 34.5 45.21796875 34.8556640625 45.25 35.3 45.246875 35.3859375 45.25 35.45 45.2755859375 35.387890625 45.3 35.3 45.610546875 34.2283203125 45.85 33.1 45.976953125 32.6544921875 46.05 32.2 46.340234375 30.910546875 46.55 29.55 46.7541015625 28.13828125 46.9 26.65 46.875 25.4017578125 46.8 24.2
M 45.4 18.75
Q 45.4298828125 18.8455078125 45.45 18.95
L 46.2 19.8
Q 46.1201171875 19.2763671875 46 18.75 45.883984375 18.229296875 45.75 17.7 45.31171875 17.48046875 44.85 17.25 45.1662109375 17.9923828125 45.4 18.75 Z"/>

<path fill="#9C9782" stroke="none" d="
M 43.1 32.35
Q 43.1431640625 32.3107421875 43.15 32.25
L 43.15 32.2
Q 43.27265625 28.70703125 39.45 22.7 39.25 22.35 39.05 22.1 38.5220703125 21.3216796875 38 20.6 32.8859375 13.3953125 29.25 11.85 27.1 10.9 25.45 11.8 19.578125 15.666796875 21.7 26.55 22.4580078125 28.1330078125 22.95 29.85 24.711328125 32.8890625 28.35 34.3 30.08984375 34.9765625 32.25 35.3 33.4666015625 35.47890625 34.8 35.55
L 37.7 35.55 38.1 35.55
Q 38.9001953125 35.445703125 39.55 35.3 39.7400390625 35.2638671875 39.9 35.2 40.1337890625 35.1634765625 40.35 35.1 42.3919921875 34.09609375 43.1 32.35
M 41.5 32.5
Q 41.409375 32.8224609375 41.15 33.1 40.7638671875 33.60234375 39.9 33.95 38.8712890625 34.3830078125 37.2 34.6
L 34.3 34.6
Q 30.988671875 34.449609375 28.6 33.5 24.3150390625 31.825 23 27.6 20.65 17.25 26.05 13.7 27.511328125 12.91953125 29.35 13.7 32.9580078125 15.25859375 38 22.7 38.208203125 23.01171875 38.4 23.3 41.787890625 28.5796875 41.6 31.7 41.603515625 31.9560546875 41.55 32.2 41.5345703125 32.3525390625 41.5 32.5 Z"/>

<path fill="#646155" stroke="none" d="
M 41.15 33.1
Q 41.409375 32.8224609375 41.5 32.5 41.5345703125 32.3525390625 41.55 32.2 41.603515625 31.9560546875 41.6 31.7 41.5615234375 31.773046875 41.5 31.85 41.349609375 32.0359375 41.15 32.2 40.669140625 32.5650390625 39.9 32.8 39.0560546875 33.09921875 37.85 33.25
L 35.15 33.25
Q 32.15 33.1 29.95 32.25 26 30.7 24.8 26.8 22.65 17.35 27.6 14.05 28.41640625 13.616015625 29.35 13.7 27.511328125 12.91953125 26.05 13.7 20.65 17.25 23 27.6 24.3150390625 31.825 28.6 33.5 30.988671875 34.449609375 34.3 34.6
L 37.2 34.6
Q 38.8712890625 34.3830078125 39.9 33.95 40.7638671875 33.60234375 41.15 33.1 Z"/>

<path fill="#5F0000" stroke="none" d="
M 41.8 14.75
L 40.8 13.6 39.9 12.6 38.95 11.5 32.95 4.6 32.4 4 31.65 3.1 30.2 1.5 29.05 0.15 29.2 1.2 29.35 2.4 29.45 3.05 29.7 4.55 30.35 9.05 30.45 9.9 30.6 10.8 38.9 17.7 41.85 20.1 44.7 22.5 46.35 23.85 46.8 24.2 47.45 24.75 49 26.05 49.4 23.45 47.05 20.75 46.2 19.8 45.45 18.95 43.3 16.5 41.8 14.75
M 43.75 18.15
L 43.75 18.2 48.25 23.45 48.25 24.6 35.1 13.55 31.8 10.8 31.1 3.7 35.7 8.8 43.75 18.15 Z"/>

<path fill="#A60F0F" stroke="none" d="
M 31.1 3.7
L 31.8 10.8 35.1 13.55 43.35 19.25 35.7 8.8 31.1 3.7 Z"/>

<path fill="#F32121" stroke="none" d="
M 43.75 18.2
L 43.75 18.15 35.7 8.8 43.35 19.25 35.1 13.55 48.25 24.6 48.25 23.45 43.75 18.2 Z"/>

<path fill="#B87D56" stroke="none" d="
M 46.35 16.4
L 46.25 15.75
Q 46.0720703125 15.6748046875 45.85 15.6 45.434765625 15.4380859375 45 15.3 44.42265625 15.1615234375 43.85 15.05 43.7728515625 15.0599609375 43.7 15.05 43.789453125 15.088671875 43.85 15.1 44.53515625 15.4166015625 45.15 15.7 45.625390625 15.969921875 46.05 16.2 46.2193359375 16.31015625 46.35 16.4 Z"/>

<path fill="#64412A" stroke="none" d="
M 41.65 9.1
Q 41.4 7.85 41 7.4
L 40.8 13.6 41.8 14.75
Q 42.873046875 15.2 44.25 15.9 44.8107421875 16.187109375 45.4 16.5 45.828515625 16.7236328125 46.25 16.95 46.3619140625 17.0201171875 46.45 17.05
L 46.35 16.4
Q 46.2193359375 16.31015625 46.05 16.2 45.625390625 15.969921875 45.15 15.7 44.53515625 15.4166015625 43.85 15.1 43.789453125 15.088671875 43.7 15.05
L 41.45 14.15 41.65 13.35
Q 41.7068359375 13.0798828125 41.75 12.8 41.8158203125 12.3640625 41.85 11.9 41.8857421875 11.6115234375 41.9 11.3 41.9130859375 11.078515625 41.9 10.85 41.8978515625 10.20234375 41.75 9.5
L 41.7 9.4 41.65 9.1 Z"/>

<path fill="#98613D" stroke="none" d="
M 41.35 7.45
L 41 7.4
Q 41.4 7.85 41.65 9.1
L 41.7 9.4 41.75 9.5
Q 41.8978515625 10.20234375 41.9 10.85 41.9130859375 11.078515625 41.9 11.3 41.8857421875 11.6115234375 41.85 11.9 41.8158203125 12.3640625 41.75 12.8 41.7068359375 13.0798828125 41.65 13.35
L 41.45 14.15 43.7 15.05
Q 43.7728515625 15.0599609375 43.85 15.05 44.42265625 15.1615234375 45 15.3 45.434765625 15.4380859375 45.85 15.6 46.0720703125 15.6748046875 46.25 15.75
L 46.1 14.7 45.2 12.4
Q 45.1 12.35 45.05 12.4 44.82890625 12.432421875 44.6 12.45 44.20546875 12.556640625 43.8 12.65 43.2169921875 12.857421875 42.7 13.1 42.408203125 13.277734375 42.15 13.45 42.257421875 13.0560546875 42.25 12.5 42.284765625 11.8029296875 42.15 10.85 42.0857421875 10.448046875 42 10 41.96875 9.84375 41.9 9.7 41.8408203125 9.2751953125 41.75 8.9 41.608203125 8.2845703125 41.45 7.75 41.4029296875 7.60859375 41.35 7.45 Z"/>
</g>

<g id="_____________________________________255_0_Layer0_0_FILL">
<path fill="#6B1E1E" stroke="none" d="
M 32.65 48.1
Q 32.6138671875 48.07421875 32.55 48.05 32.5552734375 48.0748046875 32.55 48.1 32.5841796875 48.2224609375 32.6 48.35 32.6 48.95 32.15 49.5 31.8126953125 49.98203125 31.15 50.1
L 31.1 50.1
Q 30.55 50.25 30.1 49.9
L 29.85 49.7
Q 29.95 50.35 30.45 50.65 30.727734375 50.927734375 31.15 50.9 31.3359375 50.9111328125 31.55 50.85 32.25 50.8 32.7 50.15 33.15 49.6 33.2 48.9 33.2 48.5447265625 33.05 48.25 32.876171875 48.180078125 32.65 48.1
M 32.85 42.55
L 32.8 42.45 32.7 42.5
Q 32.7828125 42.5373046875 32.85 42.55 Z"/>

<path fill="#3A0F0F" stroke="none" d="
M 32.55 48.05
Q 31.948828125 47.8267578125 31.3 47.65 30.721875 47.8955078125 30.35 48.35 29.9 49.05 29.9 49.65
L 29.85 49.7 30.1 49.9
Q 30.55 50.25 31.1 50.1
L 31.15 50.1
Q 31.8126953125 49.98203125 32.15 49.5 32.6 48.95 32.6 48.35 32.5841796875 48.2224609375 32.55 48.1 32.5552734375 48.0748046875 32.55 48.05 Z"/>

<path fill="#7B7867" stroke="none" d="
M 32.4 47.65
Q 32.4923828125 47.834765625 32.55 48.05 32.6138671875 48.07421875 32.65 48.1 32.876171875 48.180078125 33.05 48.25 33.029296875 48.183203125 32.95 48.1 32.8771484375 47.9630859375 32.75 47.85
L 32.4 47.65
M 29.5 43
Q 29.25 42.75 29.05 42.45 29.1 43.2 29.45 43.7 29.6 43.95 29.85 44.15 29.88359375 44.177734375 29.9 44.2 30.253515625 44.453515625 30.65 44.55 31.24765625 44.7236328125 32 44.55 32.7 44.35 33.35 43.9 33.5740234375 43.7431640625 33.8 43.55 34.0515625 43.303515625 34.3 43 34.3619140625 42.9203125 34.4 42.85 34.694140625 42.479296875 34.9 42.15 34.95 42 35 41.9 35.25 41.2 35.35 40.45 35.3728515625 39.8318359375 35.2 39.35 34.987890625 38.7794921875 34.5 38.4 34.388671875 38.302734375 34.25 38.2 33.933203125 38.0361328125 33.5 38 33.2 37.95 32.9 38
L 33.35 38.2
Q 33.45 38.3 33.55 38.4 33.7958984375 38.6234375 33.9 38.95 33.9716796875 39.133203125 34 39.35 34.0296875 39.60234375 34 39.9 34 41 33.3 41.95 33.25 42 33.2 42.05
L 32.8 42.45 32.85 42.55
Q 32.7828125 42.5373046875 32.7 42.5 32.1814453125 43.0056640625 31.55 43.2 31.528515625 43.221484375 31.5 43.2 31.4572265625 43.25 31.4 43.25
L 31.3 43.35
Q 31.1228515625 43.3943359375 30.95 43.4
L 30.95 43.4
Q 30.1 43.45 29.5 43
M 34.65 47.35
L 34.3 47.45
Q 34 47.4 33.65 47.3
L 33.35 47.1 33.25 47.05
Q 33.35 47.45 33.65 47.7
L 34.1 48.1
Q 34.561328125 48.2384765625 35.15 48.15 35.199609375 48.1578125 35.25 48.15 35.34296875 48.128125 35.4 48.1 36.093359375 47.8966796875 36.6 47.35 36.6462890625 47.3126953125 36.7 47.25 37.15 46.6 37.2 45.8 37.2 45.2796875 36.95 44.9 36.8326171875 44.674609375 36.6 44.5
L 36.3 44.35
Q 36 44.2 35.65 44.25
L 35.7 44.25 35.9 44.45
Q 36.25 44.8 36.25 45.35 36.25 45.438671875 36.25 45.5 36.19296875 46.1259765625 35.8 46.65 35.35 47.25 34.65 47.35
M 41.8 36.5
Q 41.228515625 36.2482421875 40.55 36.35
L 41.05 36.6
Q 41.40625 36.8724609375 41.6 37.25 41.8791015625 37.7740234375 41.85 38.5 41.859375 38.753515625 41.8 39 41.8109375 39.176953125 41.75 39.35 41.62578125 40.22109375 41.05 41 40.8076171875 41.3232421875 40.5 41.6 40.3357421875 41.78046875 40.15 41.9 40.0767578125 41.991015625 40 42.05 39.977734375 42.0787109375 39.95 42.1 39.6955078125 42.24140625 39.45 42.35 39.2455078125 42.434765625 39.05 42.5 38.6646484375 42.6232421875 38.3 42.65 37.52265625 42.699609375 36.9 42.25 36.6 42 36.35 41.7 36.418359375 42.5556640625 36.85 43.15 37.1001953125 43.4291015625 37.4 43.65 37.5708984375 43.7638671875 37.75 43.85 37.81015625 43.876953125 37.85 43.9 38.6265625 44.1890625 39.55 43.95 39.646484375 43.928125 39.75 43.9 39.8212890625 43.8771484375 39.9 43.85 40.0267578125 43.8275390625 40.15 43.8 40.1751953125 43.7830078125 40.2 43.75 40.71796875 43.628125 41.15 43.25 41.316015625 43.1744140625 41.45 43.05 41.9 42.65 42.35 42 43.31484375 40.759375 43.4 39.35 43.4 39.2255859375 43.4 39.1 43.3984375 39.049609375 43.4 39 43.3888671875 38.8720703125 43.35 38.75 43.3578125 38.5681640625 43.3 38.4 43.2623046875 38.09375 43.15 37.8 42.9900390625 37.443359375 42.7 37.15 42.532421875 36.9548828125 42.3 36.8 42.250390625 36.7603515625 42.2 36.7 42.0056640625 36.58515625 41.8 36.5 Z"/>

<path fill="#2A2A2A" stroke="none" d="
M 32.55 48.05
Q 32.4923828125 47.834765625 32.4 47.65 32 47.5 31.55 47.6 31.419921875 47.634765625 31.3 47.65 31.948828125 47.8267578125 32.55 48.05
M 30.2 39.35
Q 30.109375 39.475 30 39.6 29.3240234375 40.4748046875 29.1 41.55 29.0306640625 41.8134765625 29 42.1
L 29.05 42.45
Q 29.25 42.75 29.5 43 30.1 43.45 30.95 43.4
L 30.95 43.4
Q 31.1228515625 43.3943359375 31.3 43.35
L 31.4 43.25
Q 31.4572265625 43.25 31.5 43.2 31.528515625 43.221484375 31.55 43.2 32.1814453125 43.0056640625 32.7 42.5
L 32.8 42.45 33.2 42.05
Q 33.25 42 33.3 41.95 34 41 34 39.9 34.0296875 39.60234375 34 39.35 33.9716796875 39.133203125 33.9 38.95 33.7958984375 38.6234375 33.55 38.4 33.45 38.3 33.35 38.2
L 32.9 38 32.3 38
Q 31.9 38.15 31.55 38.35
L 31.5 38.35
Q 31.3796875 38.4134765625 31.25 38.5
L 30.75 38.8
Q 30.475 39.075 30.2 39.35
M 35.2 44.25
L 34.95 44.35
Q 34.75 44.4 34.6 44.5 34.25 44.65 34.05 44.9
L 33.8 45.15
Q 33.25 45.85 33.2 46.65
L 33.25 47.05 33.35 47.1 33.65 47.3
Q 34 47.4 34.3 47.45
L 34.65 47.35
Q 35.35 47.25 35.8 46.65 36.19296875 46.1259765625 36.25 45.5 36.25 45.438671875 36.25 45.35 36.25 44.8 35.9 44.45
L 35.7 44.25 35.65 44.25
Q 35.45 44.2 35.2 44.25
M 41.05 36.6
L 40.55 36.35
Q 40.341015625 36.35 40.15 36.4 40.0208984375 36.439453125 39.9 36.5 38.7705078125 36.8388671875 37.9 37.7
L 37.85 37.75
Q 37.59765625 38.019921875 37.35 38.35 37.1 38.75 36.85 39.15 36.7953125 39.249609375 36.75 39.35 36.3 40.2595703125 36.3 41.25
L 36.35 41.7
Q 36.6 42 36.9 42.25 37.52265625 42.699609375 38.3 42.65 38.6646484375 42.6232421875 39.05 42.5 39.2455078125 42.434765625 39.45 42.35 39.6955078125 42.24140625 39.95 42.1 39.977734375 42.0787109375 40 42.05 40.0767578125 41.991015625 40.15 41.9 40.3357421875 41.78046875 40.5 41.6 40.8076171875 41.3232421875 41.05 41 41.62578125 40.22109375 41.75 39.35 41.8109375 39.176953125 41.8 39 41.859375 38.753515625 41.85 38.5 41.8791015625 37.7740234375 41.6 37.25 41.40625 36.8724609375 41.05 36.6 Z"/>

<path fill="#F7F1DA" stroke="none" d="
M 36.75 39.35
Q 36.7953125 39.249609375 36.85 39.15 37.1 38.75 37.35 38.35 37.59765625 38.019921875 37.85 37.75
L 34.8 37
Q 34.5431640625 37.6185546875 34.25 38.2 34.388671875 38.302734375 34.5 38.4 34.987890625 38.7794921875 35.2 39.35 35.3728515625 39.8318359375 35.35 40.45 35.25 41.2 35 41.9 34.95 42 34.9 42.15 34.694140625 42.479296875 34.4 42.85 35.64375 43.04453125 36.85 43.15 36.418359375 42.5556640625 36.35 41.7
L 36.3 41.25
Q 36.3 40.2595703125 36.75 39.35
M 40.55 36.35
Q 41.228515625 36.2482421875 41.8 36.5 42.0056640625 36.58515625 42.2 36.7 42.250390625 36.7603515625 42.3 36.8 42.532421875 36.9548828125 42.7 37.15 43.17109375 36.5849609375 43.55 35.95
L 43.5 35.9 42.2 35.55 42.2 35.55 42.05 35.5 40.35 35.1
Q 40.1337890625 35.1634765625 39.9 35.2 39.7400390625 35.2638671875 39.55 35.3 38.9001953125 35.445703125 38.1 35.55
L 37.7 35.55
Q 37.9443359375 36.3759765625 37.9 37.7 38.7705078125 36.8388671875 39.9 36.5 40.0208984375 36.439453125 40.15 36.4 40.341015625 36.35 40.55 36.35
M 44.7 22.5
L 41.85 20.1
Q 41.1890625 19.676171875 40.4 19.15 40.2 18.95 39.95 18.8 39.9 18.75 39.8 18.7
L 37.75 17.3
Q 37.95859375 18.952734375 38 20.6 38.5220703125 21.3216796875 39.05 22.1 39.25 22.35 39.45 22.7 43.27265625 28.70703125 43.15 32.2
L 43.15 32.25
Q 43.1431640625 32.3107421875 43.1 32.35 43.2873046875 32.2884765625 43.45 32.2 43.6369140625 32.101171875 43.8 32
L 43.85 32
Q 43.8373046875 31.928125 44.6 31.85 43.7193359375 31.690625 43.6 31.55 43.3185546875 31.097265625 43.75 31.3 44.0224609375 31.4146484375 44.6 31.8
L 44.6 31.85 44.65 31.85
Q 44.6654296875 31.7623046875 44.7 31.55 44.8 30.65 44.85 29.7 44.8763671875 29.6259765625 44.9 29.55 45.1158203125 28.9099609375 45.25 28.15 45.5 26.5 45 26.9
L 45 25.3
Q 44.9240234375 23.8765625 44.7 22.5 Z"/>

<path fill="#9C2B2B" stroke="none" d="
M 6 36.1
L 5.8 36 5.9 36.25 9.6 43.45
Q 11.96484375 46.67890625 14.95 48.65 15.2470703125 48.8646484375 15.55 49.05 15.2447265625 48.7447265625 14.95 48.4 13.5556640625 46.88125 12.4 44.9 10.5 41.7 9.55 38.05 8.05 36.75 6 36.1
M 17.25 26
L 17.5 25.25 16.35 25.25 15.5 26.45
Q 15 27.1 14.65 27.8
L 13.8 29.4 15.3 30.05 16.35 28
Q 16.9 26.95 17.25 26
M 17.4 23.95
L 17.4 24 17.65 24.9 18.25 23.1 17.4 23.95
M 13.4 11.15
L 13.9 10.45 13.35 10 11.95 11.95 12.25 13.25 12.35 12.95
Q 12.85 12.05 13.4 11.15 Z"/>

<path fill="#7B2828" stroke="none" d="
M 2.55 36.05
L 2.6 36.35 3.55 39.25
Q 3.897265625 40.124609375 4.3 40.95 10.5125 49.123828125 18.65 52.4 21.4462890625 53.545703125 24.45 54.1 26.7619140625 53.8052734375 28.8 53.2 14.57421875 51.9984375 5.6 40.55 4.8916015625 39.133984375 4.4 37.6
L 3.9 35.95
Q 3.4376953125 35.95 2.95 36 2.7521484375 36.02109375 2.55 36.05
M 44.2 40.05
L 44.2 40.05
Q 44.3314453125 39.59453125 44.4 39.15 44.319140625 39.60078125 44.2 40.05 Z"/>

<path fill="#B83E3E" stroke="none" d="
M 4.6 35.9
L 3.9 35.95 4.4 37.6
Q 4.8916015625 39.133984375 5.6 40.55 14.57421875 51.9984375 28.8 53.2 29.83984375 53.3099609375 30.85 53.35 31.0123046875 53.3541015625 31.15 53.35 33.271875 53.405859375 35.5 53.25 37.067578125 51.9908203125 38.45 50.35 37.4060546875 50.6318359375 36.35 50.35 36.082421875 50.3083984375 35.7 50.1 35.0931640625 49.484765625 34.35 49 33.751953125 48.5759765625 33.05 48.25 33.2 48.5447265625 33.2 48.9 33.15 49.6 32.7 50.15 32.25 50.8 31.55 50.85 31.3359375 50.9111328125 31.15 50.9 30.727734375 50.927734375 30.45 50.65 29.95 50.35 29.85 49.7
L 29.9 49.65
Q 29.9 49.05 30.35 48.35 30.721875 47.8955078125 31.3 47.65 30.1060546875 47.4109375 28.75 47.4 28.6900390625 47.4140625 28.6 47.4 24.7509765625 48.2814453125 23.8 44.95
L 23.85 44.95
Q 23.218359375 41.9375 21.3 39.35 21.2564453125 39.2748046875 21.2 39.2 21.2029296875 39.27890625 20.55 41.3 19.9572265625 43.3634765625 17.3 43.1 16.300390625 42.633984375 15.7 41.7
L 13.9 39 11.75 40.9
Q 10.8 39.25 9.55 38.05 10.5 41.7 12.4 44.9 13.5556640625 46.88125 14.95 48.4 15.2447265625 48.7447265625 15.55 49.05 15.2470703125 48.8646484375 14.95 48.65 11.96484375 46.67890625 9.6 43.45
L 5.9 36.25 5.8 36
Q 5.2 35.85 4.6 35.9
M 10.65 27.55
L 11.25 28
Q 12.1 28.55 13 29.05 13.9 27.1 15.2 25.3
L 9.25 25.2 9.35 26.5
Q 9.6 28.6 10.55 30.5
L 9.85 30.45
Q 9 30.6 8.5 31 7.6 31.7 8.15 33.3 8.35 33.95 8.8 34.4 9.3 34.95 10.1 35.15
L 9.5 32.65 11.45 32.85 11.4 31.95
Q 10.95 29.7 9.95 27.55
L 10.65 27.55
M 17.05 22.8
L 18.3 21.3
Q 17.25 20.15 16.05 19.1
L 17.05 22.8
M 18.45 24
L 18.4 22.55 18.2 23.05
Q 18.25 23.05 18.25 23.1
L 17.65 24.9 17.75 25.3 17.5 25.25 17.25 26
Q 16.9 26.95 16.35 28
L 15.3 30.05
Q 16.2 30.45 17.15 30.8
L 17.2 30.8 23.5 32.25 23.45 31.85 23.45 31.8 23 31.55
Q 19.6 29.35 18.65 25.3 18.5 24.65 18.45 24
M 13.9 10.45
L 13.4 11.15
Q 12.85 12.05 12.35 12.95
L 12.25 13.25 12.45 14.1
Q 14.15 14.7 15.75 15.65
L 15.85 15.35
Q 16.15 14.2 16.6 13.25 15.45 11.6 13.9 10.45
M 17.45 35.3
Q 16.8556640625 34.1349609375 15.95 33.1
L 15.15 32.95 16.15 36.45 16.55 36.55 16.45 35.95 18.85 39.35 18.65 38.6
Q 18.3087890625 36.83671875 17.45 35.3 Z"/>

<path fill="#D4CEB7" stroke="none" d="
M 4 25.3
Q 3.973828125 25.805078125 3.9 26.3 3.5447265625 31.013671875 4.45 35.3 4.52890625 35.601171875 4.6 35.9 5.2 35.85 5.8 36 5.692578125 35.6521484375 5.6 35.3 4.437890625 31.09375 4.75 26.3 4.7814453125 26.07578125 4.8 25.85
L 4.8 25.4
Q 4.426953125 25.355078125 4 25.3
M 12.45 14.1
L 12.25 13.25
Q 11.5109375 14.68203125 10.9 16.2 10.849609375 16.3244140625 10.8 16.45
L 10.9 16.45 11.25 16.6 12.2 16.95 11.5 18.85
Q 11.4 19.1 11.3 19.4 11.1 20 10.9 20.55
L 9.05 25.7 9 25.75 8.6 26.75
Q 8.6 26.8 8.6 26.85 8.45 28.95 8.5 31 9 30.6 9.85 30.45
L 10.55 30.5
Q 9.6 28.6 9.35 26.5
L 9.25 25.2 15.2 25.3 15.4 24.95
Q 15 22.6 15.1 20.05 15.2 17.7 15.75 15.65 14.15 14.7 12.45 14.1
M 28.7 2.85
L 28.7 2.8 28.05 2.65
Q 26.962890625 2.455859375 25.9 2.4 18.7505859375 1.9783203125 12.7 7.55 9.58203125 10.36015625 7.55 14 7.332421875 14.3951171875 7.1 14.8 6.7724609375 15.5099609375 6.45 16.25 6.85 16.3 7.25 16.35 7.6064453125 15.627734375 8 14.9 8.0373046875 14.8658203125 8.05 14.8 9.807421875 11.86328125 12.35 9.4 14.95 6.95 17.8 5.55 17.1 6.25 16.45 7 15 8.65 13.9 10.45 15.45 11.6 16.6 13.25 17.85 10.2 20.3 7.95 21.95 6.45 23.75 5.65
L 23.25 5.2
Q 22.75 4.7 22.3 4.3
L 23.2 4.9 22.1 3.9 24.65 5.25
Q 25.26640625 5.0298828125 25.9 4.85 27.425 4.529296875 29.05 4.6 29.361328125 4.5642578125 29.7 4.55
L 29.45 3.05
Q 29.0873046875 2.9529296875 28.7 2.85
M 32.4 4
L 32.95 4.6
Q 33.7642578125 4.6916015625 34.65 4.8 33.5314453125 4.380859375 32.4 4
M 43.4 39.1
Q 43.4 39.2255859375 43.4 39.35 43.31484375 40.759375 42.35 42 41.9 42.65 41.45 43.05 41.316015625 43.1744140625 41.15 43.25 40.71796875 43.628125 40.2 43.75 40.1751953125 43.7830078125 40.15 43.8 40.0267578125 43.8275390625 39.9 43.85 39.8212890625 43.8771484375 39.75 43.9 39.646484375 43.928125 39.55 43.95 38.6265625 44.1890625 37.85 43.9 37.81015625 43.876953125 37.75 43.85 37.5708984375 43.7638671875 37.4 43.65 37.1001953125 43.4291015625 36.85 43.15 35.64375 43.04453125 34.4 42.85 34.3619140625 42.9203125 34.3 43 34.0515625 43.303515625 33.8 43.55 33.5740234375 43.7431640625 33.35 43.9 32.7 44.35 32 44.55 31.24765625 44.7236328125 30.65 44.55 30.253515625 44.453515625 29.9 44.2 29.88359375 44.177734375 29.85 44.15 29.6 43.95 29.45 43.7 29.1 43.2 29.05 42.45
L 29 42.1
Q 29.0306640625 41.8134765625 29.1 41.55 26.596484375 40.714453125 24.2 39.5
L 24.2 39.45
Q 24.1306640625 39.400390625 24.05 39.35 21.84453125 37.735546875 19.95 35.3 19.515625 34.7462890625 19.1 34.15 18 32.45 17.2 30.8
L 17.15 30.8
Q 16.2 30.45 15.3 30.05
L 11.5 36.7 11.65 36 11.15 36.85 11.2 35.65
Q 11.21640625 35.474609375 11.2 35.3 11.4490234375 33.33671875 12 31.5 12.45 30.25 13 29.05 12.1 28.55 11.25 28
L 10.65 27.55 9.95 27.55
Q 10.95 29.7 11.4 31.95
L 11.45 32.85 9.5 32.65 10.1 35.15
Q 9.3 34.95 8.8 34.4 8.8716796875 34.854296875 8.95 35.3 9.2076171875 36.7185546875 9.55 38.05 10.8 39.25 11.75 40.9
L 13.9 39 15.7 41.7
Q 16.300390625 42.633984375 17.3 43.1 19.9572265625 43.3634765625 20.55 41.3 21.2029296875 39.27890625 21.2 39.2 21.2564453125 39.2748046875 21.3 39.35 23.218359375 41.9375 23.85 44.95
L 23.8 44.95
Q 24.7509765625 48.2814453125 28.6 47.4 28.6900390625 47.4140625 28.75 47.4 30.1060546875 47.4109375 31.3 47.65 31.419921875 47.634765625 31.55 47.6 32 47.5 32.4 47.65
L 32.75 47.85
Q 32.8771484375 47.9630859375 32.95 48.1 33.029296875 48.183203125 33.05 48.25 33.751953125 48.5759765625 34.35 49 35.0931640625 49.484765625 35.7 50.1 36.082421875 50.3083984375 36.35 50.35 37.4060546875 50.6318359375 38.45 50.35 39.323828125 49.301953125 40.1 48.1 40.4783203125 47.565625 40.8 47 41.3525390625 46.1119140625 41.85 45.15 43.5173828125 41.6173828125 44.75 37.5
L 44.85 36.25 43.3 38.4
Q 43.3578125 38.5681640625 43.35 38.75 43.3888671875 38.8720703125 43.4 39 43.3984375 39.049609375 43.4 39.1
M 15.95 33.1
Q 16.8556640625 34.1349609375 17.45 35.3 18.3087890625 36.83671875 18.65 38.6
L 18.85 39.35 16.45 35.95 16.55 36.55 16.15 36.45 15.15 32.95 15.95 33.1
M 34.95 44.35
L 35.2 44.25
Q 35.45 44.2 35.65 44.25 36 44.2 36.3 44.35
L 36.6 44.5
Q 36.8326171875 44.674609375 36.95 44.9 37.2 45.2796875 37.2 45.8 37.15 46.6 36.7 47.25 36.6462890625 47.3126953125 36.6 47.35 36.093359375 47.8966796875 35.4 48.1 35.34296875 48.128125 35.25 48.15 35.199609375 48.1578125 35.15 48.15 34.561328125 48.2384765625 34.1 48.1
L 33.65 47.7
Q 33.35 47.45 33.25 47.05
L 33.2 46.65
Q 33.25 45.85 33.8 45.15
L 34.05 44.9
Q 34.25 44.65 34.6 44.5 34.75 44.4 34.95 44.35
M 44.9 37.05
Q 44.9837890625 36.7580078125 45.05 36.45 45.1587890625 36.1333984375 45.25 35.8
L 45.15 36 45 36.25 44.75 37.5 44.75 37.65 44.9 37.05 Z"/>

<path fill="#E9E2C9" stroke="none" d="
M 3.8 25.25
Q 3.7171875 25.7912109375 3.65 26.3 2.9537109375 31.0939453125 3.75 35.3 3.827734375 35.6267578125 3.9 35.95
L 4.6 35.9
Q 4.52890625 35.601171875 4.45 35.3 3.5447265625 31.013671875 3.9 26.3 3.973828125 25.805078125 4 25.3 3.916015625 25.290234375 3.8 25.25
M 28.7 2.8
L 28.7 2.85
Q 29.0873046875 2.9529296875 29.45 3.05
L 29.35 2.4
Q 29.01796875 2.2947265625 28.65 2.2 27.2451171875 1.9505859375 25.9 1.85 14.4982421875 1.3298828125 7.4 14 7.191015625 14.3935546875 6.95 14.8 6.915625 14.9244140625 6.85 15.05
L 6.4 16.3 6.45 16.25
Q 6.7724609375 15.5099609375 7.1 14.8 7.332421875 14.3951171875 7.55 14 9.58203125 10.36015625 12.7 7.55 18.7505859375 1.9783203125 25.9 2.4 26.962890625 2.455859375 28.05 2.65
L 28.7 2.8
M 31.65 3.1
L 32.4 4
Q 33.5314453125 4.380859375 34.65 4.8 36.6830078125 5.6447265625 39.15 6.8 35.6396484375 4.509375 31.65 3.1
M 43.7 36.15
L 43.55 35.95
Q 43.17109375 36.5849609375 42.7 37.15 42.9900390625 37.443359375 43.15 37.8 43.4478515625 37.0033203125 43.7 36.15 Z"/>

<path fill="#353531" stroke="none" d="
M 3.8 25.25
Q 3.06796875 25.17890625 2.35 25.05 2.237109375 25.6875 2.15 26.3 1.4380859375 31.5591796875 2.55 36.05 2.7521484375 36.02109375 2.95 36 3.4376953125 35.95 3.9 35.95 3.827734375 35.6267578125 3.75 35.3 2.9537109375 31.0939453125 3.65 26.3 3.7171875 25.7912109375 3.8 25.25
M 28.65 2.2
Q 29.01796875 2.2947265625 29.35 2.4
L 29.2 1.2
Q 28.83203125 1.1375 28.45 1.05 27.150390625 0.8080078125 25.9 0.7 13.398046875 -0.192578125 5.8 14 5.717578125 14.2232421875 5.6 14.45
L 5.6 14.5 4.9 16.1 4.85 16.3
Q 5.6 16.25 6.4 16.3
L 6.85 15.05
Q 6.915625 14.9244140625 6.95 14.8 7.191015625 14.3935546875 7.4 14 14.4982421875 1.3298828125 25.9 1.85 27.2451171875 1.9505859375 28.65 2.2
M 38.25 4.95
L 38.25 5
Q 34.92421875 2.79765625 30.2 1.5
L 31.65 3.1
Q 35.6396484375 4.509375 39.15 6.8 39.47578125 7.0849609375 39.8 7.35
L 39.8 7.3 40.3 6.6
Q 40.140625 6.4525390625 39.95 6.3 39.15 5.55 38.25 4.95
M 47.5 26.5
L 47.45 26.45 47.5 26.45
Q 47.487109375 25.5916015625 47.45 24.75
L 46.8 24.2
Q 46.875 25.396875 46.9 26.65 46.7541015625 28.13828125 46.55 29.55 46.340234375 30.910546875 46.05 32.2 45.976953125 32.6544921875 45.85 33.1 45.610546875 34.2283203125 45.3 35.3 45.2755859375 35.387890625 45.25 35.45 45.2498046875 35.512109375 45.25 35.55
L 45.15 36 45.25 35.8
Q 45.1587890625 36.1333984375 45.05 36.45 44.9837890625 36.7580078125 44.9 37.05
L 44.75 37.65 44.75 37.5
Q 43.5173828125 41.6173828125 41.85 45.15 41.3525390625 46.1119140625 40.8 47 40.4783203125 47.565625 40.1 48.1 39.323828125 49.301953125 38.45 50.35 37.067578125 51.9908203125 35.5 53.25 33.271875 53.405859375 31.15 53.35 31.0123046875 53.3541015625 30.85 53.35 29.83984375 53.3099609375 28.8 53.2 26.7619140625 53.8052734375 24.45 54.1 25.7568359375 54.331640625 27.05 54.45 31.2322265625 54.862109375 35.8 54.25 35.9853515625 54.1021484375 36.15 53.95 39.0634765625 51.54140625 41.2 48.1 41.5326171875 47.5626953125 41.85 47 44.481640625 42.2849609375 45.8 35.8 45.875390625 35.5513671875 45.9 35.3 45.9404296875 35.244140625 45.95 35.2 46.2361328125 34.16953125 46.45 33.1 46.57265625 32.6544921875 46.65 32.2 46.921484375 30.9107421875 47.1 29.55 47.3466796875 28.11484375 47.5 26.6
L 47.5 26.5
M 44.2 40.05
L 44.2 40.05
Q 44.319140625 39.60078125 44.4 39.15 44.3314453125 39.59453125 44.2 40.05
M 46.55 18.1
L 46.1 17.9
Q 45.925390625 17.8068359375 45.75 17.7 45.883984375 18.229296875 46 18.75 46.1197265625 19.274609375 46.2 19.8
L 47.05 20.75
Q 46.9076171875 19.7380859375 46.7 18.75 46.645703125 18.434765625 46.55 18.1 Z"/>

<path fill="#585446" stroke="none" d="
M 7.85 26.8
L 8.25 25.7
Q 7.4171875 25.6505859375 6.6 25.55
L 6.25 26.7 7.85 26.8
M 9.6 15.9
L 9.4 16.65 11.15 17.1 11.25 16.6 10.9 16.45 10.8 16.45 9.6 15.9 Z"/>

<path fill="#3A372E" stroke="none" d="
M 7.85 26.8
L 8.6 26.85
Q 8.6 26.8 8.6 26.75
L 9 25.75 9.05 25.7 8.3 25.55 8.25 25.7 7.85 26.8
M 11.15 17.1
L 11.25 17.1 11.7 18.25 11.5 18.85 12.2 16.95 11.25 16.6 11.15 17.1 Z"/>

<path fill="#AAA389" stroke="none" d="
M 8.6 26.85
L 7.85 26.8 6.25 26.7 6.6 25.55
Q 5.7046875 25.5001953125 4.8 25.4
L 4.8 25.85
Q 4.7814453125 26.07578125 4.75 26.3 4.437890625 31.09375 5.6 35.3 5.692578125 35.6521484375 5.8 36
L 6 36.1
Q 8.05 36.75 9.55 38.05 9.2076171875 36.7185546875 8.95 35.3 8.8716796875 34.854296875 8.8 34.4 8.35 33.95 8.15 33.3 7.6 31.7 8.5 31 8.45 28.95 8.6 26.85
M 11.65 36
L 11.5 36.7 15.3 30.05 13.8 29.4
Q 13.35 30.3 13.05 31.2 12.389453125 33.2693359375 11.85 35.3 11.7716796875 35.575390625 11.7 35.85
L 11.65 36
M 17.5 25.25
L 17.65 24.9 17.4 24
Q 16.85 24.6 16.35 25.25
L 17.5 25.25
M 13.35 10
L 13.9 10.45
Q 15 8.65 16.45 7 17.1 6.25 17.8 5.55 14.95 6.95 12.35 9.4 9.807421875 11.86328125 8.05 14.8 8.0373046875 14.8658203125 8 14.9 7.6064453125 15.627734375 7.25 16.35 7.6279296875 16.3671875 8 16.4 8.7107421875 16.4859375 9.4 16.65
L 9.6 15.9 10.8 16.45
Q 10.849609375 16.3244140625 10.9 16.2 11.5109375 14.68203125 12.25 13.25
L 11.95 11.95 13.35 10
M 30.6 10.8
L 30.45 9.9
Q 29.916015625 9.5 29.35 9.1 27.625 7.895703125 25.9 6.7 24.975 6.1109375 24.05 5.5
L 23.2 4.9 22.3 4.3
Q 22.75 4.7 23.25 5.2
L 23.75 5.65 28.7 10
Q 29.2052734375 10.4337890625 29.7 10.85 33.3185546875 13.9353515625 36.05 16.05
L 37.75 17.3 39.8 18.7
Q 39.358984375 18.1787109375 38.9 17.7
L 30.6 10.8
M 44.55 33.05
Q 44.4498046875 33.0833984375 44.35 33.1 44.2998046875 33.1 44.25 33.1 43.05 33.5 42.3 33.85
L 42.35 34.05 43.15 35.3 43.2 35.4 43.45 35.8 43.5 35.9 43.55 35.95 43.7 36.15 44.15 36.85
Q 44.31953125 36.4896484375 44.45 36.15 44.5529296875 35.9728515625 44.6 35.8 44.7412109375 35.545703125 44.85 35.3 44.8951171875 35.1611328125 44.95 35 45.0541015625 34.75234375 45.15 34.5 45.2845703125 34.1091796875 45.4 33.75 45.6 33.2 45.7 32.7 45.45 32.75 45.2 32.85 44.9 32.95 44.55 33.05 Z"/>

<path fill="#E9E3CB" stroke="none" d="
M 19.1 34.15
Q 19.515625 34.7462890625 19.95 35.3 21.84453125 37.735546875 24.05 39.35 24.1306640625 39.400390625 24.2 39.45
L 24.2 39.5
Q 26.596484375 40.714453125 29.1 41.55 29.3240234375 40.4748046875 30 39.6 30.109375 39.475 30.2 39.35 30.475 39.075 30.75 38.8
L 31.25 38.5
Q 31.3796875 38.4134765625 31.5 38.35
L 31.55 38.35
Q 31.9 38.15 32.3 38
L 32.9 38
Q 33.2 37.95 33.5 38 33.933203125 38.0361328125 34.25 38.2 34.5431640625 37.6185546875 34.8 37
L 37.85 37.75 37.9 37.7
Q 37.9443359375 36.3759765625 37.7 35.55
L 34.8 35.55
Q 33.4666015625 35.47890625 32.25 35.3 30.08984375 34.9765625 28.35 34.3 24.711328125 32.8890625 22.95 29.85 23.0828125 30.358203125 23.2 30.85
L 23.45 31.8 23.45 31.85 23.5 32.25 17.2 30.8
Q 18 32.45 19.1 34.15
M 17.65 24.9
L 17.5 25.25 17.75 25.3 17.65 24.9
M 29.7 10.85
Q 29.2052734375 10.4337890625 28.7 10
L 23.75 5.65
Q 21.95 6.45 20.3 7.95 17.85 10.2 16.6 13.25 16.85 13.6 17.05 14 18.2 15.8 18 17.85
L 17.8 17.8
Q 17.1 16.55 15.9 15.75
L 15.75 15.65
Q 15.2 17.7 15.1 20.05 15 22.6 15.4 24.95
L 17.05 22.8 16.05 19.1
Q 17.25 20.15 18.3 21.3
L 18.55 21 18.7 20.9 18.75 20.85 18.85 20.95 18.65 21.75
Q 20.516796875 23.928125 21.7 26.55 19.578125 15.666796875 25.45 11.8 27.1 10.9 29.25 11.85 32.8859375 13.3953125 38 20.6 37.95859375 18.952734375 37.75 17.3
L 36.05 16.05
Q 33.3185546875 13.9353515625 29.7 10.85
M 29.7 4.55
Q 29.361328125 4.5642578125 29.05 4.6 27.425 4.529296875 25.9 4.85 25.26640625 5.0298828125 24.65 5.25 25.2830078125 5.6158203125 25.9 6 27.4767578125 6.9720703125 28.95 8.05
L 29.7 8.55 29.75 8.6
Q 30.0494140625 8.8166015625 30.35 9.05
L 29.7 4.55
M 34.65 4.8
Q 33.7642578125 4.6916015625 32.95 4.6
L 38.95 11.5 39.9 11.85 39.8 9
Q 39.62265625 8.0408203125 39.15 6.8 36.6830078125 5.6447265625 34.65 4.8 Z"/>

<path fill="#F5F2E7" stroke="none" d="
M 13.8 29.4
L 13 29.05
Q 12.45 30.25 12 31.5 11.4490234375 33.33671875 11.2 35.3 11.21640625 35.474609375 11.2 35.65
L 11.15 36.85 11.65 36 11.7 35.85
Q 11.7716796875 35.575390625 11.85 35.3 12.389453125 33.2693359375 13.05 31.2 13.35 30.3 13.8 29.4
M 17.4 24
L 17.4 23.95 17.05 22.8 15.4 24.95 15.2 25.3 16.35 25.25
Q 16.85 24.6 17.4 24
M 18.5 21.5
L 18.55 21 18.3 21.3 18.5 21.5
M 39.95 18.8
Q 40.2 18.95 40.4 19.15 41.1890625 19.676171875 41.85 20.1
L 38.9 17.7
Q 39.358984375 18.1787109375 39.8 18.7 39.9 18.75 39.95 18.8
M 23.2 4.9
L 24.05 5.5
Q 24.975 6.1109375 25.9 6.7 27.625 7.895703125 29.35 9.1 29.916015625 9.5 30.45 9.9
L 30.35 9.05
Q 30.0494140625 8.8166015625 29.75 8.6
L 29.7 8.55 28.95 8.05
Q 27.4767578125 6.9720703125 25.9 6 25.2830078125 5.6158203125 24.65 5.25
L 22.1 3.9 23.2 4.9 Z"/>

<path fill="#FF4D4D" stroke="none" d="
M 15.5 26.45
L 16.35 25.25 15.2 25.3
Q 13.9 27.1 13 29.05
L 13.8 29.4 14.65 27.8
Q 15 27.1 15.5 26.45
M 18.5 21.5
L 18.3 21.3 17.05 22.8 17.4 23.95 18.25 23.1
Q 18.25 23.05 18.2 23.05
L 18.4 22.55 18.4 22.5 18.5 21.5 Z"/>

<path fill="#872F2F" stroke="none" d="
M 18.85 20.95
L 18.75 20.85 18.7 20.9 18.55 21 18.5 21.5 18.4 22.5 18.4 22.55 18.45 24
Q 18.5 24.65 18.65 25.3 19.6 29.35 23 31.55
L 23.45 31.8 23.2 30.85
Q 23.0828125 30.358203125 22.95 29.85 22.4580078125 28.1330078125 21.7 26.55 20.516796875 23.928125 18.65 21.75
L 18.85 20.95 Z"/>

<path fill="#E24A4A" stroke="none" d="
M 17.05 14
Q 16.85 13.6 16.6 13.25 16.15 14.2 15.85 15.35
L 15.75 15.65 15.9 15.75
Q 17.1 16.55 17.8 17.8
L 18 17.85
Q 18.2 15.8 17.05 14 Z"/>

<path fill="#4F3727" stroke="none" d="
M 7.25 16.35
Q 6.85 16.3 6.45 16.25
L 6.4 16.3
Q 5.6 16.25 4.85 16.3
L 4.9 16.1
Q 3.0630859375 15.7107421875 2.25 14.85 -0.93046875 18.3724609375 -0.5 23 -0.3837890625 23.7841796875 -0.2 24.6 1.0556640625 24.8611328125 2.35 25.05 3.06796875 25.17890625 3.8 25.25 3.916015625 25.290234375 4 25.3 4.426953125 25.355078125 4.8 25.4 5.7046875 25.5001953125 6.6 25.55 7.4171875 25.6505859375 8.25 25.7
L 8.3 25.55 9.05 25.7 10.9 20.55
Q 11.1 20 11.3 19.4 11.4 19.1 11.5 18.85
L 11.7 18.25 11.25 17.1 11.15 17.1 9.4 16.65
Q 8.7107421875 16.4859375 8 16.4 7.6279296875 16.3671875 7.25 16.35
M 5.1 16.7
Q 5.41953125 16.7947265625 5.7 16.85 6.7984375 17.037109375 8 17.15 8.2595703125 17.2193359375 8.5 17.25 9.239453125 17.331640625 10 17.35 10.1 17.3 10.15 17.3
L 10.2 17.35 10.3 17.35 10.3 17.4 10.5 17.45 10.55 17.55
Q 10.75 17.7 10.8 18.05
L 8.4 24.75
Q 4.24296875 24.522265625 1 23.4 0.994140625 23.321484375 0.95 23.25 0.9193359375 23.13359375 0.85 23
L 0.85 23
Q 0.7107421875 22.5138671875 0.6 22 0.45625 21.0794921875 0.55 20.1 0.7736328125 18.0873046875 2.2 16 2.90625 16.2234375 3.7 16.4 4.379296875 16.58984375 5.1 16.7
M 41.35 7.45
Q 41.553515625 7.5314453125 41.75 7.6 42.1484375 7.7880859375 42.5 7.95
L 45.85 12.75 46.1 14.7 46.25 15.75 46.35 16.4 46.45 17.05
Q 46.3619140625 17.0201171875 46.25 16.95 45.828515625 16.7236328125 45.4 16.5 44.8107421875 16.187109375 44.25 15.9 42.873046875 15.2 41.8 14.75
L 43.3 16.5
Q 44.1046875 16.862890625 44.85 17.25 45.31171875 17.48046875 45.75 17.7 45.925390625 17.8068359375 46.1 17.9
L 46.55 18.1 46.6 18.1 47.75 18.7 46.55 12.45 43.25 7.55
Q 42.88828125 7.369140625 42.5 7.2 41.5326171875 6.7609375 40.45 6.4
L 40.3 6.6 39.8 7.3 39.8 7.35 39.8 9 39.9 11.85 39.9 12.6 40.8 13.6 41 7.4 41.35 7.45 Z"/>

<path fill="#382113" stroke="none" d="
M 0.85 23
Q 0.9193359375 23.13359375 0.95 23.25 0.994140625 23.321484375 1 23.4 4.24296875 24.522265625 8.4 24.75
L 7.95 24.55 7.85 24.45 7.8 24.45 4.85 23.4
Q 3.678125 23.025 2.45 23
L 1.7 22.95
Q 1.25 22.95 0.95 23 0.916796875 23.0009765625 0.85 23 Z"/>

<path fill="#A06945" stroke="none" d="
M 10 17.35
Q 9.239453125 17.331640625 8.5 17.25 9.1822265625 17.578125 9.5 18.15 10 19.1 9.3 20.95 8.65 22.85 7.95 24.55
L 8.4 24.75 10.8 18.05
Q 10.75 17.7 10.55 17.55
L 10.5 17.45 10.3 17.4 10.3 17.35 10.2 17.35 10.15 17.3
Q 10.1 17.3 10 17.35 Z"/>

<path fill="#663F25" stroke="none" d="
M 7.3 17.45
Q 6.8724609375 17.3234375 6.35 17.25 5.4611328125 17.1298828125 4.3 17.15 3.4095703125 17.060546875 2.65 16.8 1.2583984375 17.9630859375 0.85 21.05 0.8 21.25 0.75 21.45
L 0.75 21.45
Q 0.6736328125 21.74296875 0.6 22 0.7107421875 22.5138671875 0.85 23
L 0.85 23
Q 0.916796875 23.0009765625 0.95 23 3.55 22.15 5.8 22.95
L 5.9 22.15
Q 6.3 19.85 7.3 17.45 Z"/>

<path fill="#805132" stroke="none" d="
M 5.7 16.85
Q 5.41953125 16.7947265625 5.1 16.7 4.379296875 16.58984375 3.7 16.4 2.90625 16.2234375 2.2 16 0.7736328125 18.0873046875 0.55 20.1 0.45625 21.0794921875 0.6 22 0.6736328125 21.74296875 0.75 21.45
L 0.75 21.45
Q 0.8 21.25 0.85 21.05 1.2583984375 17.9630859375 2.65 16.8 3.4095703125 17.060546875 4.3 17.15 5.4611328125 17.1298828125 6.35 17.25 6.8724609375 17.3234375 7.3 17.45 6.3 19.85 5.9 22.15
L 5.8 22.95
Q 3.55 22.15 0.95 23 1.25 22.95 1.7 22.95
L 2.45 23
Q 3.678125 23.025 4.85 23.4
L 7.8 24.45 7.85 24.45 7.95 24.55
Q 8.65 22.85 9.3 20.95 10 19.1 9.5 18.15 9.1822265625 17.578125 8.5 17.25 8.2595703125 17.2193359375 8 17.15 6.7984375 17.037109375 5.7 16.85
M 41.35 7.45
Q 41.4029296875 7.60859375 41.45 7.75 41.608203125 8.2845703125 41.75 8.9 41.8408203125 9.2751953125 41.9 9.7 41.96875 9.84375 42 10 42.0857421875 10.448046875 42.15 10.85 42.284765625 11.8029296875 42.25 12.5 42.257421875 13.0560546875 42.15 13.45 42.408203125 13.277734375 42.7 13.1 43.2169921875 12.857421875 43.8 12.65 44.20546875 12.556640625 44.6 12.45 44.82890625 12.432421875 45.05 12.4 45.1 12.35 45.2 12.4
L 46.1 14.7 45.85 12.75 42.5 7.95
Q 42.1484375 7.7880859375 41.75 7.6 41.553515625 7.5314453125 41.35 7.45 Z"/>

<path fill="#FFFBEE" stroke="none" d="
M 39.9 11.85
L 38.95 11.5 39.9 12.6 39.9 11.85
M 45.25 35.55
Q 45.2498046875 35.512109375 45.25 35.45 45.246875 35.3859375 45.25 35.3 45.21796875 34.8556640625 45.15 34.5 45.0541015625 34.75234375 44.95 35 44.8951171875 35.1611328125 44.85 35.3 44.7412109375 35.545703125 44.6 35.8 44.5529296875 35.9728515625 44.45 36.15
L 44.85 36.25 44.75 37.5 45 36.25 45.15 36 45.25 35.55
M 44.6 31.85
L 44.6 31.8
Q 44.0224609375 31.4146484375 43.75 31.3 43.3185546875 31.097265625 43.6 31.55 43.7193359375 31.690625 44.6 31.85
M 46.35 23.85
L 44.7 22.5
Q 44.9240234375 23.8765625 45 25.3
L 45 26.9
Q 45.5 26.5 45.25 28.15 45.1158203125 28.9099609375 44.9 29.55 44.8763671875 29.6259765625 44.85 29.7 44.8 30.65 44.7 31.55 44.6654296875 31.7623046875 44.65 31.85
L 44.6 31.85
Q 43.8373046875 31.928125 43.85 32
L 43.8 32
Q 43.6369140625 32.101171875 43.45 32.2 43.2873046875 32.2884765625 43.1 32.35 42.3919921875 34.09609375 40.35 35.1
L 42.05 35.5 42.2 35.55 42.2 35.55 43.5 35.9 43.45 35.8 43.2 35.4 43.15 35.3 42.35 34.05 42.3 33.85
Q 43.05 33.5 44.25 33.1 44.2998046875 33.1 44.35 33.1 44.4498046875 33.0833984375 44.55 33.05 44.9 32.95 45.2 32.85 45.319921875 32.5296875 45.4 32.2 45.840234375 30.9404296875 46.05 29.55 46.1455078125 29.1310546875 46.2 28.7 46.3 27.75 46.4 26.75 46.4669921875 25.275390625 46.35 23.85
M 44.85 17.25
Q 44.1046875 16.862890625 43.3 16.5
L 45.45 18.95
Q 45.43125 18.849609375 45.4 18.75 45.1662109375 17.9923828125 44.85 17.25 Z"/>

<path fill="#FFF9E5" stroke="none" d="
M 39.8 9
L 39.8 7.35
Q 39.47578125 7.0849609375 39.15 6.8 39.62265625 8.0408203125 39.8 9
M 44.15 36.85
L 43.7 36.15
Q 43.4478515625 37.0033203125 43.15 37.8 43.2623046875 38.09375 43.3 38.4
L 44.85 36.25 44.45 36.15
Q 44.31953125 36.4896484375 44.15 36.85
M 46.8 24.2
L 46.35 23.85
Q 46.4669921875 25.275390625 46.4 26.75 46.3 27.75 46.2 28.7 46.1455078125 29.1310546875 46.05 29.55 45.840234375 30.9404296875 45.4 32.2 45.319921875 32.5296875 45.2 32.85 45.45 32.75 45.7 32.7 45.6 33.2 45.4 33.75 45.2845703125 34.1091796875 45.15 34.5 45.21796875 34.8556640625 45.25 35.3 45.246875 35.3859375 45.25 35.45 45.2755859375 35.387890625 45.3 35.3 45.610546875 34.2283203125 45.85 33.1 45.976953125 32.6544921875 46.05 32.2 46.340234375 30.910546875 46.55 29.55 46.7541015625 28.13828125 46.9 26.65 46.875 25.396875 46.8 24.2
M 45.4 18.75
Q 45.43125 18.849609375 45.45 18.95
L 46.2 19.8
Q 46.1197265625 19.274609375 46 18.75 45.883984375 18.229296875 45.75 17.7 45.31171875 17.48046875 44.85 17.25 45.1662109375 17.9923828125 45.4 18.75 Z"/>

<path fill="#9C9782" stroke="none" d="
M 43.15 32.25
L 43.15 32.2
Q 43.27265625 28.70703125 39.45 22.7 39.25 22.35 39.05 22.1 38.5220703125 21.3216796875 38 20.6 32.8859375 13.3953125 29.25 11.85 27.1 10.9 25.45 11.8 19.578125 15.666796875 21.7 26.55 22.4580078125 28.1330078125 22.95 29.85 24.711328125 32.8890625 28.35 34.3 30.08984375 34.9765625 32.25 35.3 33.4666015625 35.47890625 34.8 35.55
L 37.7 35.55 38.1 35.55
Q 38.9001953125 35.445703125 39.55 35.3 39.7400390625 35.2638671875 39.9 35.2 40.1337890625 35.1634765625 40.35 35.1 42.3919921875 34.09609375 43.1 32.35 43.1431640625 32.3107421875 43.15 32.25
M 41.5 32.5
Q 41.409375 32.8224609375 41.15 33.1 40.7638671875 33.60234375 39.9 33.95 38.8712890625 34.3830078125 37.2 34.6
L 34.3 34.6
Q 30.988671875 34.449609375 28.6 33.5 24.3150390625 31.825 23 27.6 20.65 17.25 26.05 13.7 27.511328125 12.91953125 29.35 13.7 32.9580078125 15.25859375 38 22.7 38.208203125 23.01171875 38.4 23.3 41.787890625 28.5796875 41.6 31.7 41.603515625 31.9560546875 41.55 32.2 41.5345703125 32.3525390625 41.5 32.5 Z"/>

<path fill="#646155" stroke="none" d="
M 41.5 31.85
Q 41.349609375 32.0359375 41.15 32.2 40.669140625 32.5650390625 39.9 32.8 39.0560546875 33.09921875 37.85 33.25
L 35.15 33.25
Q 32.15 33.1 29.95 32.25 26 30.7 24.8 26.8 22.65 17.35 27.6 14.05 28.41640625 13.616015625 29.35 13.7 27.511328125 12.91953125 26.05 13.7 20.65 17.25 23 27.6 24.3150390625 31.825 28.6 33.5 30.988671875 34.449609375 34.3 34.6
L 37.2 34.6
Q 38.8712890625 34.3830078125 39.9 33.95 40.7638671875 33.60234375 41.15 33.1 41.409375 32.8224609375 41.5 32.5 41.5345703125 32.3525390625 41.55 32.2 41.603515625 31.9560546875 41.6 31.7 41.5615234375 31.773046875 41.5 31.85 Z"/>

<path fill="#5F0000" stroke="none" d="
M 41.8 14.75
L 40.8 13.6 39.9 12.6 38.95 11.5 32.95 4.6 32.4 4 31.65 3.1 30.2 1.5 29.05 0.15 29.2 1.2 29.35 2.4 29.45 3.05 29.7 4.55 30.35 9.05 30.45 9.9 30.6 10.8 38.9 17.7 41.85 20.1 44.7 22.5 46.35 23.85 46.8 24.2 47.45 24.75 49 26.05 49.4 23.45 47.05 20.75 46.2 19.8 45.45 18.95 43.3 16.5 41.8 14.75
M 43.7 18.15
L 43.75 18.2 48.25 23.45 48.25 24.6 35.1 13.55 31.8 10.8 31.1 3.7 35.7 8.8 43.7 18.15 Z"/>

<path fill="#A60F0F" stroke="none" d="
M 31.1 3.7
L 31.8 10.8 35.1 13.55 43.35 19.25 35.7 8.8 31.1 3.7 Z"/>

<path fill="#F32121" stroke="none" d="
M 43.75 18.2
L 43.7 18.15 35.7 8.8 43.35 19.25 35.1 13.55 48.25 24.6 48.25 23.45 43.75 18.2 Z"/>

<path fill="#B87D56" stroke="none" d="
M 46.35 16.4
L 46.25 15.75
Q 46.0720703125 15.6748046875 45.85 15.6 45.434765625 15.4380859375 45 15.3 44.42265625 15.1615234375 43.85 15.05 43.7728515625 15.0599609375 43.7 15.05 43.789453125 15.088671875 43.85 15.1 44.53515625 15.4166015625 45.15 15.7 45.625390625 15.969921875 46.05 16.2 46.2193359375 16.31015625 46.35 16.4 Z"/>

<path fill="#98613D" stroke="none" d="
M 41 7.4
Q 41.4 7.85 41.65 9.1
L 41.7 9.4 41.75 9.5
Q 41.8978515625 10.20234375 41.9 10.85 41.9130859375 11.078515625 41.9 11.3 41.8857421875 11.6115234375 41.85 11.9 41.8158203125 12.3640625 41.75 12.8 41.7068359375 13.0798828125 41.65 13.35
L 41.45 14.15 43.7 15.05
Q 43.7728515625 15.0599609375 43.85 15.05 44.42265625 15.1615234375 45 15.3 45.434765625 15.4380859375 45.85 15.6 46.0720703125 15.6748046875 46.25 15.75
L 46.1 14.7 45.2 12.4
Q 45.1 12.35 45.05 12.4 44.82890625 12.432421875 44.6 12.45 44.20546875 12.556640625 43.8 12.65 43.2169921875 12.857421875 42.7 13.1 42.408203125 13.277734375 42.15 13.45 42.257421875 13.0560546875 42.25 12.5 42.284765625 11.8029296875 42.15 10.85 42.0857421875 10.448046875 42 10 41.96875 9.84375 41.9 9.7 41.8408203125 9.2751953125 41.75 8.9 41.608203125 8.2845703125 41.45 7.75 41.4029296875 7.60859375 41.35 7.45
L 41 7.4 Z"/>

<path fill="#64412A" stroke="none" d="
M 41.65 9.1
Q 41.4 7.85 41 7.4
L 40.8 13.6 41.8 14.75
Q 42.873046875 15.2 44.25 15.9 44.8107421875 16.187109375 45.4 16.5 45.828515625 16.7236328125 46.25 16.95 46.3619140625 17.0201171875 46.45 17.05
L 46.35 16.4
Q 46.2193359375 16.31015625 46.05 16.2 45.625390625 15.969921875 45.15 15.7 44.53515625 15.4166015625 43.85 15.1 43.789453125 15.088671875 43.7 15.05
L 41.45 14.15 41.65 13.35
Q 41.7068359375 13.0798828125 41.75 12.8 41.8158203125 12.3640625 41.85 11.9 41.8857421875 11.6115234375 41.9 11.3 41.9130859375 11.078515625 41.9 10.85 41.8978515625 10.20234375 41.75 9.5
L 41.7 9.4 41.65 9.1 Z"/>
</g>
</defs>

<g transform="matrix( 1.05181884765625, 0, 0, 1.017822265625, 0.55,-0.15) ">
<g transform="matrix( 1, 0, 0, 1, 0,0) ">
<use xlink:href="#_____________________________________255_0_Layer1_0_FILL"/>
</g>

<g transform="matrix( 1, 0, 0, 1, 0,0) ">
<use xlink:href="#_____________________________________255_0_Layer0_0_FILL"/>
</g>
</g>
</svg>
