
<svg xmlns="http://www.w3.org/2000/svg" version="1.1" xmlns:xlink="http://www.w3.org/1999/xlink" preserveAspectRatio="none" x="0px" y="0px" width="92px" height="45px" viewBox="0 0 92 45">
<defs>
<g id="_______1_0_Layer1_0_FILL">
<path fill="#213309" stroke="none" d="
M 91.35 35.15
L 91.4 35.1 91.4 35.15
Q 91.85 34.4 91.65 33.85 91.55 33.35 90.95 32.85 90.1 32.05 87.55 31.1
L 82.65 29.35 82.55 29.3 77.15 27.5
Q 74.4 26.3 72.75 25.3
L 71.8 24.65 68.4 19.55 68.45 19.55
Q 64.4 13.45 63.55 12.55
L 63.45 12.45
Q 59.65 8.35 52.8 5.8 48.5 4.3 43.35 3.6
L 39.95 3.1
Q 37.4 2.6 34.25 10.4 28.75 6.95 23.25 4.75 19.7 3.3 16.15 2.35
L 7.35 0.35
Q 2.45 -0.45 0.95 0.65
L 0.55 0.95
Q -0.1 1.5 0 2.7 -0.1 4.7 3.15 7.15
L 3.15 7.1 3.6 7.5
Q 5.95 9.2 10.8 11.85 7.8 11.8 5.1 12.15
L 4.95 12.1
Q 2.75 12.5 2.8 13.5 2.6 14 3.1 14.55 3.45 14.95 4.5 15.35
L 4.45 15.3 4.7 15.4 21.75 19.7 21.8 19.7 26.95 21.5
Q 27.35 25.8 29.05 30.05
L 29.05 30.1
Q 30.7 34.45 33.5 38.3
L 33.9 38.8 34.5 38.7
Q 41.45 37.9 48.65 38.45
L 57.3 39.65 66.4 41.5
Q 69.6 42.25 76.4 43.35
L 81.05 44.05 81.6 43.8 87.4 39.7
Q 90.3 37.3 91.35 35.15
M 86.55 31.85
L 87.15 32.05
Q 89.5 32.95 90.3 33.65 90.55 33.9 90.6 34.1 90.7 34.3 90.45 34.65 89.4 36.65 86.7 38.85
L 81 42.9 71.7 41.65 66.65 40.5 57.5 38.6 48.75 37.45
Q 41.4 36.8 34.4 37.65 31.6 33.9 30 29.65 28.3 25.35 28 20.95
L 28.1 20.95 28.55 20.85 22.1 18.7 12.85 16.25 12.7 16.2 12.75 16.2 4.85 14.35
Q 2.75 13.55 5.1 13.15
L 5.15 13.15
Q 9.4 12.7 14.35 13.05
L 15.3 13.1 13.9 12.35
Q 7.1 8.75 4.25 6.65
L 3.75 6.3
Q 1.1 4.3 1.05 2.7 1 2 1.25 1.75
L 1.5 1.6
Q 2.75 0.65 7.2 1.35
L 15.9 3.4 22.8 5.7
Q 28.85 8.15 34.75 12
L 34.75 11.95
Q 37.75 4 39.85 4.15
L 43.15 4.6
Q 48.25 5.3 52.4 6.8 59.05 9.2 62.7 13.15 63.45 13.9 67.6 20.15
L 71.1 25.4 72.2 26.2
Q 73.9 27.3 76.75 28.4
L 86.55 31.85
M 89.2 33.65
L 88.85 33.4
Q 88 32.95 86.45 32.35
L 85.4 31.9 77.1 29.05
Q 78.95 30.55 80 32.05
L 87.6 33.75 88.85 33.8
Q 89.45 33.8 89.2 33.65 Z"/>

<path fill="#07A6C2" stroke="none" d="
M 6.25 13.75
L 6 13.7 5.8 13.7 6.25 13.75
M 21.8 14.25
L 21.65 14.25 17.9 13.4 15.3 13.1 14.35 13.05
Q 9.4 12.7 5.15 13.15
L 5.1 13.15
Q 2.75 13.55 4.85 14.35 2.8 13.45 6 13.7
L 13.15 13.7 20.15 14.6 25.6 16.35
Q 28.15 17.35 30.85 18.75
L 33.25 19.15 32.9 19
Q 29.8 17.3 26.85 16.05 24.25 14.95 21.8 14.25 Z"/>

<path fill="#8E3E01" stroke="none" d="
M 5 6.05
L 9.15 8.65 13.4 9.75 6.45 5.9 5 6.05
M 16.15 11.25
L 14.8 11.65 17.9 13.4 21.65 14.25 16.15 11.25 Z"/>

<path fill="#A34E0C" stroke="none" d="
M 4.7 5.8
L 5 6.05 6.45 5.9 4.75 4.9
Q 2.8 4 2 2.9 2.15 3.9 4.7 5.8
M 14.8 11.65
L 16.15 11.25 13.4 9.75 9.15 8.65 14.8 11.65 Z"/>

<path fill="#BF6B38" stroke="none" d="
M 1.5 1.6
L 1.25 1.75
Q 1 2 1.05 2.7 1.1 4.3 3.75 6.3
L 4.25 6.65
Q 7.1 8.75 13.9 12.35
L 15.3 13.1 17.9 13.4 14.8 11.65 9.15 8.65 5 6.05 4.7 5.8
Q 2.15 3.9 2 2.9
L 1.95 2.85
Q 1.5 2.15 1.5 1.6 Z"/>

<path fill="#9C4400" stroke="none" d="
M 5.15 2.7
L 8.65 3.2 7.8 2.3
Q 2.8 1.4 2 2.55
L 2 2.9
Q 2.8 4 4.75 4.9
L 4.95 5 4.35 4.5
Q 3.7 3.9 3.8 3.35 3.9 2.7 5.15 2.7
M 15.1 8.6
L 12.75 7.45 12.3 7.25 12.45 7.3 9.45 5.9 6.45 5.9 13.4 9.75 14.35 9.8
Q 15.7 9.65 16.85 9.4
L 15.1 8.6
M 15.25 4.55
L 15.3 4.05 14.4 3.85 15.25 4.55
M 21.65 14.25
L 21.8 14.25
Q 24.55 14.55 26 14.05
L 20.3 11
Q 18.05 10.8 16.15 11.25
L 21.65 14.25
M 29.15 15.95
Q 27.85 15.8 26.85 16.05 29.8 17.3 32.9 19
L 33.55 18.75 29.15 15.95 Z"/>

<path fill="#B65B14" stroke="none" d="
M 6.15 4.4
L 6.55 4.5 11.7 5.6
Q 10.6 5 9.5 4.05
L 8.65 3.2 5.15 2.7
Q 3.9 2.7 3.8 3.35 3.7 3.9 4.35 4.5
L 4.95 5 4.75 4.9 6.45 5.9 9.45 5.9 6.15 4.4
M 5.45 4.15
L 6.1 4.35 6 4.35 5.45 4.15
M 14.35 9.8
L 13.4 9.75 16.15 11.25
Q 18.05 10.8 20.3 11 18.65 10.15 16.85 9.4 15.7 9.65 14.35 9.8
M 34.7 20
L 35.4 20.05 33.55 18.75 32.9 19 33.25 19.15
Q 33.95 19.6 34.7 20
M 26.85 16.05
Q 27.85 15.8 29.15 15.95 27.55 14.9 26 14.05 24.55 14.55 21.8 14.25 24.25 14.95 26.85 16.05 Z"/>

<path fill="#AD6936" stroke="none" d="
M 6.1 4.35
L 5.45 4.15 6 4.35 6.1 4.35
M 29.3 13.65
L 27.95 12.9 24.2 11.05
Q 21.35 9.55 18.5 8.35
L 14.6 6.9 14.35 6.85 14.25 6.8 14.2 6.8 13.8 6.65 13.7 6.65
Q 13.6 6.6 13.55 6.55
L 13.2 6.45 13.05 6.45 6.55 4.5 6.15 4.4 18.2 8.95 23.4 11.45 27.2 13.45 32.5 16.6 33.1 16.9
Q 33.95 17.35 34.7 17.9
L 29.35 13.6 29.3 13.65 Z"/>

<path fill="#7A4106" stroke="none" d="
M 11.7 5.6
L 17.95 7.25
Q 17.2 6.2 15.6 4.85
L 8.65 3.2 9.5 4.05
Q 10.6 5 11.7 5.6
M 35.75 16.3
L 35.55 15.75
Q 35.15 14.75 34.5 13.75
L 34.2 13.55
Q 32.05 12.15 30.05 10.95
L 31.55 13.7 33.65 15
Q 34.55 15.5 35.55 16.15
L 35.75 16.3
M 24.5 8.1
Q 22.7 7.15 20.85 6.55
L 22.75 9.25 27.5 11.55
Q 26.7 9.95 25.4 8.45
L 24.5 8.1
M 42.5 20.1
L 42 19.25 38 16.2 39.1 18.5 41.3 20 42.5 20.1 Z"/>

<path fill="#7B3906" stroke="none" d="
M 15.1 8.6
L 14.6 8.25 12.75 7.45 15.1 8.6
M 33.1 16.9
L 32.5 16.6
Q 30.65 16.05 29.15 15.95
L 33.55 18.75 34.7 17.9
Q 33.95 17.35 33.1 16.9
M 23.4 11.45
L 20.3 11 26 14.05 27.2 13.45 23.4 11.45 Z"/>

<path fill="#6D3A07" stroke="none" d="
M 14.6 8.25
L 15.1 8.6 16.85 9.4 18.2 8.95 6.15 4.4 9.45 5.9 12.45 7.3 12.3 7.25 12.75 7.45 14.6 8.25
M 14.35 6.85
L 14.6 6.9 18.5 8.35
Q 18.4 7.8 17.95 7.25
L 11.7 5.6 6.55 4.5 13.05 6.45 13.2 6.45 13.55 6.55
Q 13.6 6.6 13.7 6.65
L 13.8 6.65 14.25 6.8 14.35 6.85
M 39.1 18.5
L 39.85 20 41.3 20 39.1 18.5
M 36.1 17.75
L 35.75 16.3 35.55 16.15
Q 34.55 15.5 33.65 15
L 31.55 13.7 32.95 15.75 36.1 17.75
M 22.75 9.25
L 24.2 11.05 27.95 12.9 27.5 11.55 22.75 9.25 Z"/>

<path fill="#934910" stroke="none" d="
M 14.2 6.8
L 14.25 6.8 13.8 6.65 14.2 6.8
M 38 16.2
L 37.7 15 33.05 11.9 34.5 13.75 35.75 14.65
Q 36.85 15.3 38 16.2
M 35.75 16.3
L 36.1 17.75 39.4 19.95 39.85 20 39.1 18.5
Q 37.4 17.35 35.75 16.3
M 27.95 12.9
L 29.3 13.65 29.35 13.6
Q 31.15 14.65 32.95 15.75
L 31.55 13.7 27.5 11.55 27.95 12.9
M 20.85 6.55
L 20.55 5.7 15.3 4.05 15.25 4.55 20.85 6.55
M 30.05 10.95
L 29.65 9.95
Q 27 8.4 24.25 7.2
L 25.4 8.45 30.05 10.95
M 24.2 11.05
L 22.75 9.25 17.95 7.25
Q 18.4 7.8 18.5 8.35 21.35 9.55 24.2 11.05
M 42 19.25
L 43.2 20.2 44.4 20.3
Q 42.5 18.7 40.55 17.15
L 42 19.25 Z"/>

<path fill="#653405" stroke="none" d="
M 15.6 4.85
L 15.25 4.55 14.4 3.85 7.8 2.3 8.65 3.2 15.6 4.85
M 29.65 9.95
L 30.05 10.95
Q 32.05 12.15 34.2 13.55
L 34.5 13.75 33.05 11.9 29.65 9.95
M 20.8 5.75
L 20.55 5.7 20.85 6.55
Q 22.7 7.15 24.5 8.1
L 25.4 8.45 24.25 7.2 20.8 5.75
M 42 19.25
L 40.55 17.15 37.7 15 38 16.2 42 19.25 Z"/>

<path fill="#BB733D" stroke="none" d="
M 37.75 19.95
L 39.4 19.95 36.1 17.75 32.95 15.75
Q 31.15 14.65 29.35 13.6
L 34.7 17.9 37.75 19.95 Z"/>

<path fill="#068398" stroke="none" d="
M 31.9 20.3
L 33.3 20.15 30.85 18.75 28.15 18.5 31.9 20.3 Z"/>

<path fill="#9C4D0F" stroke="none" d="
M 33.55 18.75
L 35.4 20.05 37.75 19.95 34.7 17.9 33.55 18.75
M 27.2 13.45
L 26 14.05
Q 27.55 14.9 29.15 15.95 30.65 16.05 32.5 16.6
L 27.2 13.45
M 20.3 11
L 23.4 11.45 18.2 8.95 16.85 9.4
Q 18.65 10.15 20.3 11 Z"/>

<path fill="#0793AA" stroke="none" d="
M 33.3 20.15
L 33.3 20.1 34.7 20
Q 33.95 19.6 33.25 19.15
L 30.85 18.75 33.3 20.15 Z"/>

<path fill="#A1551A" stroke="none" d="
M 35.55 15.75
L 35.75 16.3
Q 37.4 17.35 39.1 18.5
L 38 16.2
Q 36.85 15.3 35.75 14.65
L 34.5 13.75
Q 35.15 14.75 35.55 15.75
M 30.05 10.95
L 25.4 8.45
Q 26.7 9.95 27.5 11.55
L 31.55 13.7 30.05 10.95
M 22.75 9.25
L 20.85 6.55 15.25 4.55 15.6 4.85
Q 17.2 6.2 17.95 7.25
L 22.75 9.25
M 43.2 20.2
L 42 19.25 42.5 20.1 43.2 20.2 Z"/>

<path fill="#0AC5E5" stroke="none" d="
M 22.1 18.7
L 24.15 18.4 6.25 13.75 5.8 13.7 6 13.7
Q 2.8 13.45 4.85 14.35
L 12.75 16.2 12.7 16.2 12.85 16.25 22.1 18.7 Z"/>

<path fill="#0999B1" stroke="none" d="
M 28.15 18.5
L 24.15 18.4 30 20.65 31.9 20.3 28.15 18.5 Z"/>

<path fill="#0CA7C2" stroke="none" d="
M 28.15 18.5
L 24.4 17 19.3 15.6 6.25 13.75 24.15 18.4 28.15 18.5 Z"/>

<path fill="#0A93AA" stroke="none" d="
M 24.4 17
L 28.15 18.5 30.85 18.75
Q 28.15 17.35 25.6 16.35
L 20.15 14.6 13.15 13.7 6 13.7 6.25 13.75 19.3 15.6 24.4 17 Z"/>

<path fill="#09B3D0" stroke="none" d="
M 29.5 20.8
L 30 20.65 24.15 18.4 22.1 18.7 28.55 20.85 29.5 20.8 Z"/>

<path fill="#345B00" stroke="none" d="
M 64.75 38.6
L 63.8 38.45 64.4 38.75 63.2 38.45 59 37.85 64.35 39.2 64.55 39.15 64.7 39 64.8 38.8 64.8 38.6 64.75 38.6
M 42.8 33.85
L 42.3 33.7
Q 40.95 34.4 40.45 35.65
L 40.4 35.95 40.55 36.15 40.8 36.2
Q 43.45 35.45 47.3 35.75
L 49.5 36 49.8 36 47.35 35.3 47.3 35.3
Q 43.35 35.05 40.75 35.7 41.3 34.5 42.8 33.85 Z"/>

<path fill="#263C08" stroke="none" d="
M 71.95 26.8
L 73.85 29.75 80 32.05
Q 78.95 30.55 77.1 29.05 73.85 27.8 71.95 26.8 Z"/>

<path fill="#3A6207" stroke="none" d="
M 58.9 37.85
L 57.2 37.55 57.5 38.6 66.65 40.5 67.95 38.85 64.8 38.6 64.8 38.8 64.7 39 64.55 39.15 64.35 39.2 59 37.85 58.9 37.85 Z"/>

<path fill="#264102" stroke="none" d="
M 57.15 37.4
L 58.9 37.85 59 37.85 63.2 38.45 57.05 36.9 57.15 37.4
M 50.7 27.35
L 51.65 28.7
Q 53.05 29.95 54.6 32
L 53.7 31.75 54 32.1
Q 54.95 32.45 55.95 33.05
L 56 33.1
Q 52.95 28.95 50.7 27.35
M 47.45 22.75
L 47.4 22.75 47.85 23.1
Q 48.6 23.05 49.45 23.35 52.95 24.9 57.85 33.35 59 35.25 60.9 36.7 61.65 37.4 62.5 37.85
L 63.8 38.45 64.75 38.6
Q 64.7 38.45 64.55 38.4
L 61.1 36.45
Q 59.3 35.1 58.2 33.2 53.2 24.6 49.6 23.1
L 49.6 23.15 47.45 22.75 Z"/>

<path fill="#294603" stroke="none" d="
M 58.9 37.85
L 57.15 37.4 57.2 37.55 58.9 37.85
M 49.6 23.15
L 49.6 23.1
Q 53.2 24.6 58.2 33.2 59.3 35.1 61.1 36.45
L 64.55 38.4
Q 64.7 38.45 64.75 38.6
L 64.8 38.6 67.95 38.85 69.65 36.85
Q 72.2 34 75.45 32.4
L 76.75 31.8 61.05 25.25 52.5 22.55 44.45 20.85 47.45 22.75 49.6 23.15 Z"/>

<path fill="#315108" stroke="none" d="
M 49.8 36
L 49.5 36 57.2 37.55 57.15 37.4 49.8 36
M 53.5 31.65
L 53.7 31.75 54.6 32
Q 53.05 29.95 51.65 28.7 50.5 27.6 49.5 27.1
L 47.4 26.75
Q 46.55 27.3 46.05 28.95 46.55 31.35 48.9 32.7 50.95 30.95 53.5 31.65
M 47.2 22.85
L 47.4 22.75 47.45 22.75 44.45 20.85 38.3 20.25 32.15 20.45 29.5 20.8
Q 30.45 21.3 31.2 22
L 32.65 23.45
Q 34.95 26.2 35.5 30.5 38.5 32.3 42.3 33.7 43.05 33.35 43.95 33.15 36.1 29.25 38.15 22.35
L 38.35 22.1 38.9 22.05 38.95 22.2
Q 42.65 22.9 43.75 25.9 45.3 23.15 47.2 22.85 Z"/>

<path fill="#D9930D" stroke="none" d="
M 46.2 33.6
L 47.75 33.4 45.45 32.5 46.2 33.6
M 56.85 36.9
L 56.5 36.4 47.05 34.9 47.35 35.3 51.3 35.7 56.85 36.9
M 52.15 32.35
L 53.9 32.65 53.45 31.95
Q 51 31.3 49 33.1 46.15 31.65 45.7 28.85 46.75 24.95 49.7 26.65
L 49.35 26
Q 46.15 24.5 44.95 28.65 45.55 31.85 48.95 33.55 50.45 32.4 52.15 32.35
M 47.9 23.9
L 47.25 23.15
Q 45.25 23.55 43.7 26.9 42.85 23.3 38.85 22.55
L 39.6 23.6
Q 42.7 24.3 43.3 27.05
L 43.7 28.55 44.2 27.3
Q 45.8 24.1 47.9 23.9 Z"/>

<path fill="#F3A81A" stroke="none" d="
M 44.7 32.1
L 45.45 32.5 39.6 23.6 39.2 23.5
Q 37.55 29.2 44.7 32.1
M 43.7 34.2
Q 43 34.5 42.65 35.1 44 34.85 45.8 34.9
L 47.05 34.9 46.2 33.6
Q 44.65 33.65 43.7 34.2
M 49.4 24.2
L 48.45 23.95 47.9 23.9 49.35 26 50.2 26.45
Q 52.8 28.25 56.65 33.55 57.2 34.4 56.55 33.95
L 55.95 33.55 53.9 32.65 56.5 36.4 61.6 37.65
Q 60.45 37.1 59.5 36.2 57.8 34.85 56.85 33.15 52.55 25.65 49.4 24.2 Z"/>

<path fill="#436905" stroke="none" d="
M 40.8 36.2
L 40.55 36.15 40.4 35.95 40.45 35.65
Q 40.95 34.4 42.3 33.7 38.5 32.3 35.5 30.5 34.95 26.2 32.65 23.45
L 31.2 22
Q 30.45 21.3 29.5 20.8
L 28.55 20.85 28.1 20.95 28 20.95
Q 28.3 25.35 30 29.65 31.6 33.9 34.4 37.65 41.4 36.8 48.75 37.45
L 57.5 38.6 57.2 37.55 49.5 36 47.3 35.75
Q 43.45 35.45 40.8 36.2 Z"/>

<path fill="#C67D0C" stroke="none" d="
M 45.4 33.3
Q 43.85 33.35 42.8 33.85 41.3 34.5 40.75 35.7 43.35 35.05 47.3 35.3
L 47.35 35.3 47.05 34.9 45.8 34.9
Q 44 34.85 42.65 35.1 43 34.5 43.7 34.2 44.65 33.65 46.2 33.6
L 45.45 32.5 44.7 32.1
Q 37.55 29.2 39.2 23.5
L 39.6 23.6 38.85 22.55 38.55 22.35
Q 36.45 29.55 45.4 33.3
M 54 32.1
L 53.45 31.95 53.9 32.65 55.95 33.55 56.55 33.95
Q 57.2 34.4 56.65 33.55 52.8 28.25 50.2 26.45
L 49.35 26 49.7 26.65 50.7 27.35
Q 52.95 28.95 56 33.1
L 55.95 33.05
Q 54.95 32.45 54 32.1
M 47.25 23.15
L 47.9 23.9 48.45 23.95 49.4 24.2
Q 52.55 25.65 56.85 33.15 57.8 34.85 59.5 36.2 60.45 37.1 61.6 37.65
L 56.5 36.4 56.85 36.9 57.05 36.9 63.2 38.45 64.4 38.75 63.8 38.45 62.5 37.85
Q 61.65 37.4 60.9 36.7 59 35.25 57.85 33.35 52.95 24.9 49.45 23.35 48.6 23.05 47.85 23.1
L 47.25 23.15 Z"/>

<path fill="#2D4F00" stroke="none" d="
M 57.05 36.9
L 56.85 36.9 51.3 35.7 47.35 35.3 49.8 36 57.15 37.4 57.05 36.9
M 51.65 28.7
L 50.7 27.35 49.7 26.65
Q 46.75 24.95 45.7 28.85 46.15 31.65 49 33.1 51 31.3 53.45 31.95
L 54 32.1 53.7 31.75 53.5 31.65
Q 50.95 30.95 48.9 32.7 46.55 31.35 46.05 28.95 46.55 27.3 47.4 26.75
L 49.5 27.1
Q 50.5 27.6 51.65 28.7
M 47.4 22.75
L 47.2 22.85
Q 45.3 23.15 43.75 25.9 42.65 22.9 38.95 22.2
L 38.9 22.05 38.35 22.1 38.15 22.35
Q 36.1 29.25 43.95 33.15 43.05 33.35 42.3 33.7
L 42.8 33.85
Q 43.85 33.35 45.4 33.3 36.45 29.55 38.55 22.35
L 38.85 22.55
Q 42.85 23.3 43.7 26.9 45.25 23.55 47.25 23.15
L 47.85 23.1 47.4 22.75 Z"/>

<path fill="#FFCD27" stroke="none" d="
M 53.9 32.65
L 52.15 32.35
Q 50.45 32.4 48.95 33.55 45.55 31.85 44.95 28.65 46.15 24.5 49.35 26
L 47.9 23.9
Q 45.8 24.1 44.2 27.3
L 43.7 28.55 43.3 27.05
Q 42.7 24.3 39.6 23.6
L 45.45 32.5 47.75 33.4 46.2 33.6 47.05 34.9 56.5 36.4 53.9 32.65 Z"/>

<path fill="#496D00" stroke="none" d="
M 52.1 21.65
L 51.95 21.35
Q 49.55 16.3 49.3 9.95 45.65 5.75 39.1 5.95 37.1 9.4 36.15 12.9 41.05 16.2 45.85 20.5 48.3 20.8 50.75 21.3
L 52.1 21.65 Z"/>

<path fill="#A8601A" stroke="none" d="
M 44.4 20.3
L 45.85 20.5
Q 41.05 16.2 36.15 12.9
L 34.75 12
Q 28.85 8.15 22.8 5.7
L 15.9 3.4 7.2 1.35
Q 2.75 0.65 1.5 1.6 1.5 2.15 1.95 2.85
L 2 2.9 2 2.55
Q 2.8 1.4 7.8 2.3
L 14.4 3.85 15.3 4.05 20.55 5.7 20.8 5.75 24.25 7.2
Q 27 8.4 29.65 9.95
L 33.05 11.9 37.7 15 40.55 17.15
Q 42.5 18.7 44.4 20.3 Z"/>

<path fill="#86B60A" stroke="none" d="
M 43.2 20.2
L 42.5 20.1 41.3 20 39.85 20 39.4 19.95 37.75 19.95 35.4 20.05 34.7 20 33.3 20.1 33.3 20.15 31.9 20.3 30 20.65 29.5 20.8 32.15 20.45 38.3 20.25 44.45 20.85 52.5 22.55 61.05 25.25 71.65 28.75 69.5 27.9
Q 59.9 23.55 52.1 21.65
L 50.75 21.3
Q 48.3 20.8 45.85 20.5
L 44.4 20.3 43.2 20.2 Z"/>

<path fill="#507E05" stroke="none" d="
M 67.6 20.15
Q 69.35 23.1 69.65 24.6
L 69.7 25.45
Q 69.55 26.25 68.65 26.2 66.4 26 61.75 22.1
L 60.5 20.95 56.65 16.2 51.9 9
Q 50.9 7.5 48.75 6.35 46.45 5.15 43.15 4.6
L 39.85 4.15
Q 37.75 4 34.75 11.95
L 34.75 12 36.15 12.9
Q 37.1 9.4 39.1 5.95 45.65 5.75 49.3 9.95 49.55 16.3 51.95 21.35
L 52.1 21.65
Q 59.9 23.55 69.5 27.9
L 71.65 28.75 73.85 29.75 71.95 26.8 71.1 25.4 67.6 20.15 Z"/>

<path fill="#598E03" stroke="none" d="
M 67.6 20.15
Q 63.45 13.9 62.7 13.15 59.05 9.2 52.4 6.8 48.25 5.3 43.15 4.6 46.45 5.15 48.75 6.35 50.9 7.5 51.9 9
L 56.65 16.2 60.5 20.95 61.75 22.1
Q 66.4 26 68.65 26.2 69.55 26.25 69.7 25.45
L 69.65 24.6
Q 69.35 23.1 67.6 20.15 Z"/>

<path fill="#7DAA06" stroke="none" d="
M 85.4 31.9
Q 84.6 31.3 86.55 31.85
L 76.75 28.4
Q 73.9 27.3 72.2 26.2
L 71.1 25.4 71.95 26.8
Q 73.85 27.8 77.1 29.05
L 85.4 31.9 Z"/>

<path fill="#355808" stroke="none" d="
M 88.2 34.55
Q 85.7 34.4 83.05 33.75
L 76.75 31.8 75.45 32.4
Q 72.2 34 69.65 36.85
L 67.95 38.85
Q 76.2 39.2 82.35 37.25 85.55 36.25 88.2 34.55 Z"/>

<path fill="#92C905" stroke="none" d="
M 89.1 34.6
L 87.6 33.75 80 32.05 73.85 29.75 71.65 28.75 61.05 25.25 76.75 31.8 83.05 33.75
Q 85.7 34.4 88.2 34.55
L 89.1 34.6 Z"/>

<path fill="#476D08" stroke="none" d="
M 90.45 34.65
L 89.1 34.6 88.2 34.55
Q 85.55 36.25 82.35 37.25 76.2 39.2 67.95 38.85
L 66.65 40.5 71.7 41.65 81 42.9 86.7 38.85
Q 89.4 36.65 90.45 34.65 Z"/>

<path fill="#89BB08" stroke="none" d="
M 88.85 33.4
L 89.2 33.65
Q 89.45 33.8 88.85 33.8
L 87.6 33.75 89.1 34.6 90.45 34.65
Q 90.7 34.3 90.6 34.1 90.55 33.9 90.3 33.65 89.5 32.95 87.15 32.05
L 86.55 31.85
Q 84.6 31.3 85.4 31.9
L 86.45 32.35
Q 88 32.95 88.85 33.4 Z"/>
</g>

<g id="_______1_0_Layer0_0_FILL">
<path fill="#213309" stroke="none" d="
M 91.35 35.15
L 91.4 35.1 91.4 35.15
Q 91.85 34.4 91.65 33.85 91.55 33.35 90.95 32.85 90.1 32.05 87.55 31.1
L 82.65 29.35 82.55 29.3 77.15 27.5
Q 74.4 26.3 72.75 25.3
L 71.8 24.65 68.4 19.55 68.45 19.55
Q 64.4 13.45 63.55 12.55
L 63.45 12.45
Q 59.65 8.35 52.8 5.8 48.5 4.3 43.35 3.6
L 39.95 3.1
Q 37.4 2.6 34.25 10.4 28.75 6.95 23.25 4.75 19.7 3.3 16.15 2.35
L 7.35 0.35
Q 2.45 -0.45 0.95 0.65
L 0.55 0.95
Q -0.1 1.5 0 2.7 -0.1 4.7 3.15 7.15
L 3.15 7.1 3.6 7.5
Q 5.95 9.2 10.8 11.85 7.8 11.8 5.1 12.15
L 4.95 12.1
Q 2.75 12.5 2.8 13.5 2.6 14 3.1 14.55 3.45 14.95 4.5 15.35
L 4.45 15.3 4.7 15.4 21.75 19.7 21.8 19.7 26.95 21.5
Q 27.35 25.8 29.05 30.05
L 29.05 30.1
Q 30.7 34.45 33.5 38.3
L 33.9 38.8 34.5 38.7
Q 41.45 37.9 48.65 38.45
L 57.3 39.65 66.4 41.5
Q 69.6 42.25 76.4 43.35
L 81.05 44.05 81.6 43.8 87.4 39.7
Q 90.3 37.3 91.35 35.15
M 86.55 31.85
L 87.15 32.05
Q 89.5 32.95 90.3 33.65 90.55 33.9 90.6 34.1 90.7 34.3 90.45 34.65 89.4 36.65 86.7 38.85
L 81 42.9 71.7 41.65 66.65 40.5 57.5 38.6 48.75 37.45
Q 41.4 36.8 34.4 37.65 31.6 33.9 30 29.65 28.3 25.35 28 20.95
L 28.1 20.95 28.55 20.85 22.1 18.7 12.85 16.25 12.7 16.2 12.75 16.2 4.85 14.35
Q 2.75 13.55 5.1 13.15
L 5.15 13.15
Q 9.4 12.7 14.35 13.05
L 15.3 13.1 13.9 12.35
Q 7.1 8.75 4.25 6.65
L 3.75 6.3
Q 1.1 4.3 1.05 2.7 1 2 1.25 1.75
L 1.5 1.6
Q 2.75 0.65 7.2 1.35
L 15.9 3.4 22.8 5.7
Q 28.85 8.15 34.75 12
L 34.75 11.95
Q 37.75 4 39.85 4.15
L 43.15 4.6
Q 48.25 5.3 52.4 6.8 59.05 9.2 62.7 13.15 63.45 13.9 67.6 20.15
L 71.1 25.4 72.2 26.2
Q 73.9 27.3 76.75 28.4
L 86.55 31.85
M 88.85 33.8
Q 89.45 33.8 89.2 33.65
L 88.85 33.4
Q 88 32.95 86.45 32.35
L 85.4 31.9 77.1 29.05
Q 78.95 30.55 80 32.05
L 87.6 33.75 88.85 33.8 Z"/>

<path fill="#07A6C2" stroke="none" d="
M 6.25 13.75
L 6 13.7 5.8 13.7 6.25 13.75
M 21.8 14.25
L 21.65 14.25 17.9 13.4 15.3 13.1 14.35 13.05
Q 9.4 12.7 5.15 13.15
L 5.1 13.15
Q 2.75 13.55 4.85 14.35 2.8 13.45 6 13.7
L 13.15 13.7 20.15 14.6 25.6 16.35
Q 28.15 17.35 30.85 18.75
L 33.25 19.15 32.9 19
Q 29.8 17.3 26.85 16.05 24.25 14.95 21.8 14.25 Z"/>

<path fill="#8E3E01" stroke="none" d="
M 6.45 5.9
L 5 6.05 9.15 8.65 13.4 9.75 6.45 5.9
M 16.15 11.25
L 14.8 11.65 17.9 13.4 21.65 14.25 16.15 11.25 Z"/>

<path fill="#A34E0C" stroke="none" d="
M 4.7 5.8
L 5 6.05 6.45 5.9 4.75 4.9
Q 2.8 4 2 2.9 2.15 3.9 4.7 5.8
M 16.15 11.25
L 13.4 9.75 9.15 8.65 14.8 11.65 16.15 11.25 Z"/>

<path fill="#BF6B38" stroke="none" d="
M 1.25 1.75
Q 1 2 1.05 2.7 1.1 4.3 3.75 6.3
L 4.25 6.65
Q 7.1 8.75 13.9 12.35
L 15.3 13.1 17.9 13.4 14.8 11.65 9.15 8.65 5 6.05 4.7 5.8
Q 2.15 3.9 2 2.9
L 1.95 2.85
Q 1.5 2.15 1.5 1.6
L 1.25 1.75 Z"/>

<path fill="#9C4400" stroke="none" d="
M 5.15 2.7
L 8.65 3.2 7.8 2.3
Q 2.8 1.4 2 2.55
L 2 2.9
Q 2.8 4 4.75 4.9
L 4.95 5 4.35 4.5
Q 3.7 3.9 3.8 3.35 3.9 2.7 5.15 2.7
M 15.1 8.6
L 12.75 7.45 12.3 7.25 12.45 7.3 9.45 5.9 6.45 5.9 13.4 9.75 14.35 9.8
Q 15.7 9.65 16.85 9.4
L 15.1 8.6
M 15.25 4.55
L 15.3 4.05 14.4 3.85 15.25 4.55
M 21.65 14.25
L 21.8 14.25
Q 24.55 14.55 26 14.05
L 20.3 11
Q 18.05 10.8 16.15 11.25
L 21.65 14.25
M 29.15 15.95
Q 27.85 15.8 26.85 16.05 29.8 17.3 32.9 19
L 33.55 18.75 29.15 15.95 Z"/>

<path fill="#B65B14" stroke="none" d="
M 6.15 4.4
L 6.55 4.5 11.7 5.6
Q 10.6 5 9.5 4.05
L 8.65 3.2 5.15 2.7
Q 3.9 2.7 3.8 3.35 3.7 3.9 4.35 4.5
L 4.95 5 4.75 4.9 6.45 5.9 9.45 5.9 6.15 4.4
M 6.1 4.35
L 6 4.35 5.45 4.15 6.1 4.35
M 14.35 9.8
L 13.4 9.75 16.15 11.25
Q 18.05 10.8 20.3 11 18.65 10.15 16.85 9.4 15.7 9.65 14.35 9.8
M 34.7 20
L 35.4 20.05 33.55 18.75 32.9 19 33.25 19.15
Q 33.95 19.6 34.7 20
M 26.85 16.05
Q 27.85 15.8 29.15 15.95 27.55 14.9 26 14.05 24.55 14.55 21.8 14.25 24.25 14.95 26.85 16.05 Z"/>

<path fill="#AD6936" stroke="none" d="
M 6 4.35
L 6.1 4.35 5.45 4.15 6 4.35
M 29.35 13.6
L 29.3 13.65 27.95 12.9 24.2 11.05
Q 21.35 9.55 18.5 8.35
L 14.6 6.9 14.35 6.85 14.25 6.8 14.2 6.8 13.8 6.65 13.7 6.65
Q 13.6 6.6 13.55 6.55
L 13.2 6.45 13.05 6.45 6.55 4.5 6.15 4.4 18.2 8.95 23.4 11.45 27.2 13.45 32.5 16.6 33.1 16.9
Q 33.95 17.35 34.7 17.9
L 29.35 13.6 Z"/>

<path fill="#7A4106" stroke="none" d="
M 17.95 7.25
Q 17.2 6.2 15.6 4.85
L 8.65 3.2 9.5 4.05
Q 10.6 5 11.7 5.6
L 17.95 7.25
M 35.75 16.3
L 35.55 15.75
Q 35.15 14.75 34.5 13.75
L 34.2 13.55
Q 32.05 12.15 30.05 10.95
L 31.55 13.7 33.65 15
Q 34.55 15.5 35.55 16.15
L 35.75 16.3
M 24.5 8.1
Q 22.7 7.15 20.85 6.55
L 22.75 9.25 27.5 11.55
Q 26.7 9.95 25.4 8.45
L 24.5 8.1
M 42.5 20.1
L 42 19.25 38 16.2 39.1 18.5 41.3 20 42.5 20.1 Z"/>

<path fill="#7B3906" stroke="none" d="
M 15.1 8.6
L 14.6 8.25 12.75 7.45 15.1 8.6
M 33.1 16.9
L 32.5 16.6
Q 30.65 16.05 29.15 15.95
L 33.55 18.75 34.7 17.9
Q 33.95 17.35 33.1 16.9
M 23.4 11.45
L 20.3 11 26 14.05 27.2 13.45 23.4 11.45 Z"/>

<path fill="#6D3A07" stroke="none" d="
M 14.6 8.25
L 15.1 8.6 16.85 9.4 18.2 8.95 6.15 4.4 9.45 5.9 12.45 7.3 12.3 7.25 12.75 7.45 14.6 8.25
M 14.35 6.85
L 14.6 6.9 18.5 8.35
Q 18.4 7.8 17.95 7.25
L 11.7 5.6 6.55 4.5 13.05 6.45 13.2 6.45 13.55 6.55
Q 13.6 6.6 13.7 6.65
L 13.8 6.65 14.25 6.8 14.35 6.85
M 39.1 18.5
L 39.85 20 41.3 20 39.1 18.5
M 36.1 17.75
L 35.75 16.3 35.55 16.15
Q 34.55 15.5 33.65 15
L 31.55 13.7 32.95 15.75 36.1 17.75
M 22.75 9.25
L 24.2 11.05 27.95 12.9 27.5 11.55 22.75 9.25 Z"/>

<path fill="#934910" stroke="none" d="
M 14.2 6.8
L 14.25 6.8 13.8 6.65 14.2 6.8
M 39.1 18.5
Q 37.4 17.35 35.75 16.3
L 36.1 17.75 39.4 19.95 39.85 20 39.1 18.5
M 35.75 14.65
Q 36.85 15.3 38 16.2
L 37.7 15 33.05 11.9 34.5 13.75 35.75 14.65
M 29.3 13.65
L 29.35 13.6
Q 31.15 14.65 32.95 15.75
L 31.55 13.7 27.5 11.55 27.95 12.9 29.3 13.65
M 20.85 6.55
L 20.55 5.7 15.3 4.05 15.25 4.55 20.85 6.55
M 30.05 10.95
L 29.65 9.95
Q 27 8.4 24.25 7.2
L 25.4 8.45 30.05 10.95
M 24.2 11.05
L 22.75 9.25 17.95 7.25
Q 18.4 7.8 18.5 8.35 21.35 9.55 24.2 11.05
M 42 19.25
L 43.2 20.2 44.4 20.3
Q 42.5 18.7 40.55 17.15
L 42 19.25 Z"/>

<path fill="#653405" stroke="none" d="
M 15.6 4.85
L 15.25 4.55 14.4 3.85 7.8 2.3 8.65 3.2 15.6 4.85
M 29.65 9.95
L 30.05 10.95
Q 32.05 12.15 34.2 13.55
L 34.5 13.75 33.05 11.9 29.65 9.95
M 20.8 5.75
L 20.55 5.7 20.85 6.55
Q 22.7 7.15 24.5 8.1
L 25.4 8.45 24.25 7.2 20.8 5.75
M 42 19.25
L 40.55 17.15 37.7 15 38 16.2 42 19.25 Z"/>

<path fill="#BB733D" stroke="none" d="
M 37.75 19.95
L 39.4 19.95 36.1 17.75 32.95 15.75
Q 31.15 14.65 29.35 13.6
L 34.7 17.9 37.75 19.95 Z"/>

<path fill="#068398" stroke="none" d="
M 33.3 20.15
L 30.85 18.75 28.15 18.5 31.9 20.3 33.3 20.15 Z"/>

<path fill="#9C4D0F" stroke="none" d="
M 33.55 18.75
L 35.4 20.05 37.75 19.95 34.7 17.9 33.55 18.75
M 27.2 13.45
L 26 14.05
Q 27.55 14.9 29.15 15.95 30.65 16.05 32.5 16.6
L 27.2 13.45
M 20.3 11
L 23.4 11.45 18.2 8.95 16.85 9.4
Q 18.65 10.15 20.3 11 Z"/>

<path fill="#0793AA" stroke="none" d="
M 33.3 20.15
L 33.3 20.1 34.7 20
Q 33.95 19.6 33.25 19.15
L 30.85 18.75 33.3 20.15 Z"/>

<path fill="#A1551A" stroke="none" d="
M 38 16.2
Q 36.85 15.3 35.75 14.65
L 34.5 13.75
Q 35.15 14.75 35.55 15.75
L 35.75 16.3
Q 37.4 17.35 39.1 18.5
L 38 16.2
M 25.4 8.45
Q 26.7 9.95 27.5 11.55
L 31.55 13.7 30.05 10.95 25.4 8.45
M 22.75 9.25
L 20.85 6.55 15.25 4.55 15.6 4.85
Q 17.2 6.2 17.95 7.25
L 22.75 9.25
M 42 19.25
L 42.5 20.1 43.2 20.2 42 19.25 Z"/>

<path fill="#0A93AA" stroke="none" d="
M 24.4 17
L 28.15 18.5 30.85 18.75
Q 28.15 17.35 25.6 16.35
L 20.15 14.6 13.15 13.7 6 13.7 6.25 13.75 19.3 15.6 24.4 17 Z"/>

<path fill="#0CA7C2" stroke="none" d="
M 24.15 18.4
L 28.15 18.5 24.4 17 19.3 15.6 6.25 13.75 24.15 18.4 Z"/>

<path fill="#0999B1" stroke="none" d="
M 24.15 18.4
L 30 20.65 31.9 20.3 28.15 18.5 24.15 18.4 Z"/>

<path fill="#0AC5E5" stroke="none" d="
M 22.1 18.7
L 24.15 18.4 6.25 13.75 5.8 13.7 6 13.7
Q 2.8 13.45 4.85 14.35
L 12.75 16.2 12.7 16.2 12.85 16.25 22.1 18.7 Z"/>

<path fill="#09B3D0" stroke="none" d="
M 28.55 20.85
L 29.5 20.8 30 20.65 24.15 18.4 22.1 18.7 28.55 20.85 Z"/>

<path fill="#345B00" stroke="none" d="
M 63.8 38.45
L 64.4 38.75 63.2 38.45 59 37.85 64.35 39.2 64.55 39.15 64.7 39 64.8 38.8 64.8 38.6 64.75 38.6 63.8 38.45
M 40.75 35.7
Q 41.3 34.5 42.8 33.85
L 42.3 33.7
Q 40.95 34.4 40.45 35.65
L 40.4 35.95 40.55 36.15 40.8 36.2
Q 43.45 35.45 47.3 35.75
L 49.5 36 49.8 36 47.35 35.3 47.3 35.3
Q 43.35 35.05 40.75 35.7 Z"/>

<path fill="#263C08" stroke="none" d="
M 71.95 26.8
L 73.85 29.75 80 32.05
Q 78.95 30.55 77.1 29.05 73.85 27.8 71.95 26.8 Z"/>

<path fill="#264102" stroke="none" d="
M 58.9 37.85
L 59 37.85 63.2 38.45 57.05 36.9 57.15 37.4 58.9 37.85
M 50.7 27.35
L 51.65 28.7
Q 53.05 29.95 54.6 32
L 53.7 31.75 54 32.1
Q 54.95 32.45 55.95 33.05
L 56 33.1
Q 52.95 28.95 50.7 27.35
M 47.45 22.75
L 47.4 22.75 47.85 23.1
Q 48.6 23.05 49.45 23.35 52.95 24.9 57.85 33.35 59 35.25 60.9 36.7 61.65 37.4 62.5 37.85
L 63.8 38.45 64.75 38.6
Q 64.7 38.45 64.55 38.4
L 61.1 36.45
Q 59.3 35.1 58.2 33.2 53.2 24.6 49.6 23.1
L 49.6 23.15 47.45 22.75 Z"/>

<path fill="#294603" stroke="none" d="
M 57.15 37.4
L 57.2 37.55 58.9 37.85 57.15 37.4
M 49.6 23.15
L 49.6 23.1
Q 53.2 24.6 58.2 33.2 59.3 35.1 61.1 36.45
L 64.55 38.4
Q 64.7 38.45 64.75 38.6
L 64.8 38.6 67.95 38.85 69.65 36.85
Q 72.2 34 75.45 32.4
L 76.75 31.8 61.05 25.25 52.5 22.55 44.45 20.85 47.45 22.75 49.6 23.15 Z"/>

<path fill="#3A6207" stroke="none" d="
M 57.2 37.55
L 57.5 38.6 66.65 40.5 67.95 38.85 64.8 38.6 64.8 38.8 64.7 39 64.55 39.15 64.35 39.2 59 37.85 58.9 37.85 57.2 37.55 Z"/>

<path fill="#D9930D" stroke="none" d="
M 46.2 33.6
L 47.75 33.4 45.45 32.5 46.2 33.6
M 56.85 36.9
L 56.5 36.4 47.05 34.9 47.35 35.3 51.3 35.7 56.85 36.9
M 52.15 32.35
L 53.9 32.65 53.45 31.95
Q 51 31.3 49 33.1 46.15 31.65 45.7 28.85 46.75 24.95 49.7 26.65
L 49.35 26
Q 46.15 24.5 44.95 28.65 45.55 31.85 48.95 33.55 50.45 32.4 52.15 32.35
M 47.9 23.9
L 47.25 23.15
Q 45.25 23.55 43.7 26.9 42.85 23.3 38.85 22.55
L 39.6 23.6
Q 42.7 24.3 43.3 27.05
L 43.7 28.55 44.2 27.3
Q 45.8 24.1 47.9 23.9 Z"/>

<path fill="#315108" stroke="none" d="
M 49.8 36
L 49.5 36 57.2 37.55 57.15 37.4 49.8 36
M 53.5 31.65
L 53.7 31.75 54.6 32
Q 53.05 29.95 51.65 28.7 50.5 27.6 49.5 27.1
L 47.4 26.75
Q 46.55 27.3 46.05 28.95 46.55 31.35 48.9 32.7 50.95 30.95 53.5 31.65
M 47.4 22.75
L 47.45 22.75 44.45 20.85 38.3 20.25 32.15 20.45 29.5 20.8
Q 30.45 21.3 31.2 22
L 32.65 23.45
Q 34.95 26.2 35.5 30.5 38.5 32.3 42.3 33.7 43.05 33.35 43.95 33.15 36.1 29.25 38.15 22.35
L 38.35 22.1 38.9 22.05 38.95 22.2
Q 42.65 22.9 43.75 25.9 45.3 23.15 47.2 22.85
L 47.4 22.75 Z"/>

<path fill="#F3A81A" stroke="none" d="
M 43.7 34.2
Q 43 34.5 42.65 35.1 44 34.85 45.8 34.9
L 47.05 34.9 46.2 33.6
Q 44.65 33.65 43.7 34.2
M 44.7 32.1
L 45.45 32.5 39.6 23.6 39.2 23.5
Q 37.55 29.2 44.7 32.1
M 49.4 24.2
L 48.45 23.95 47.9 23.9 49.35 26 50.2 26.45
Q 52.8 28.25 56.65 33.55 57.2 34.4 56.55 33.95
L 55.95 33.55 53.9 32.65 56.5 36.4 61.6 37.65
Q 60.45 37.1 59.5 36.2 57.8 34.85 56.85 33.15 52.55 25.65 49.4 24.2 Z"/>

<path fill="#436905" stroke="none" d="
M 40.8 36.2
L 40.55 36.15 40.4 35.95 40.45 35.65
Q 40.95 34.4 42.3 33.7 38.5 32.3 35.5 30.5 34.95 26.2 32.65 23.45
L 31.2 22
Q 30.45 21.3 29.5 20.8
L 28.55 20.85 28.1 20.95 28 20.95
Q 28.3 25.35 30 29.65 31.6 33.9 34.4 37.65 41.4 36.8 48.75 37.45
L 57.5 38.6 57.2 37.55 49.5 36 47.3 35.75
Q 43.45 35.45 40.8 36.2 Z"/>

<path fill="#C67D0C" stroke="none" d="
M 42.8 33.85
Q 41.3 34.5 40.75 35.7 43.35 35.05 47.3 35.3
L 47.35 35.3 47.05 34.9 45.8 34.9
Q 44 34.85 42.65 35.1 43 34.5 43.7 34.2 44.65 33.65 46.2 33.6
L 45.45 32.5 44.7 32.1
Q 37.55 29.2 39.2 23.5
L 39.6 23.6 38.85 22.55 38.55 22.35
Q 36.45 29.55 45.4 33.3 43.85 33.35 42.8 33.85
M 54 32.1
L 53.45 31.95 53.9 32.65 55.95 33.55 56.55 33.95
Q 57.2 34.4 56.65 33.55 52.8 28.25 50.2 26.45
L 49.35 26 49.7 26.65 50.7 27.35
Q 52.95 28.95 56 33.1
L 55.95 33.05
Q 54.95 32.45 54 32.1
M 47.85 23.1
L 47.25 23.15 47.9 23.9 48.45 23.95 49.4 24.2
Q 52.55 25.65 56.85 33.15 57.8 34.85 59.5 36.2 60.45 37.1 61.6 37.65
L 56.5 36.4 56.85 36.9 57.05 36.9 63.2 38.45 64.4 38.75 63.8 38.45 62.5 37.85
Q 61.65 37.4 60.9 36.7 59 35.25 57.85 33.35 52.95 24.9 49.45 23.35 48.6 23.05 47.85 23.1 Z"/>

<path fill="#2D4F00" stroke="none" d="
M 57.05 36.9
L 56.85 36.9 51.3 35.7 47.35 35.3 49.8 36 57.15 37.4 57.05 36.9
M 51.65 28.7
L 50.7 27.35 49.7 26.65
Q 46.75 24.95 45.7 28.85 46.15 31.65 49 33.1 51 31.3 53.45 31.95
L 54 32.1 53.7 31.75 53.5 31.65
Q 50.95 30.95 48.9 32.7 46.55 31.35 46.05 28.95 46.55 27.3 47.4 26.75
L 49.5 27.1
Q 50.5 27.6 51.65 28.7
M 47.25 23.15
L 47.85 23.1 47.4 22.75 47.2 22.85
Q 45.3 23.15 43.75 25.9 42.65 22.9 38.95 22.2
L 38.9 22.05 38.35 22.1 38.15 22.35
Q 36.1 29.25 43.95 33.15 43.05 33.35 42.3 33.7
L 42.8 33.85
Q 43.85 33.35 45.4 33.3 36.45 29.55 38.55 22.35
L 38.85 22.55
Q 42.85 23.3 43.7 26.9 45.25 23.55 47.25 23.15 Z"/>

<path fill="#FFCD27" stroke="none" d="
M 53.9 32.65
L 52.15 32.35
Q 50.45 32.4 48.95 33.55 45.55 31.85 44.95 28.65 46.15 24.5 49.35 26
L 47.9 23.9
Q 45.8 24.1 44.2 27.3
L 43.7 28.55 43.3 27.05
Q 42.7 24.3 39.6 23.6
L 45.45 32.5 47.75 33.4 46.2 33.6 47.05 34.9 56.5 36.4 53.9 32.65 Z"/>

<path fill="#496D00" stroke="none" d="
M 50.75 21.3
L 52.1 21.65 51.95 21.35
Q 49.55 16.3 49.3 9.95 45.65 5.75 39.1 5.95 37.1 9.4 36.15 12.9 41.05 16.2 45.85 20.5 48.3 20.8 50.75 21.3 Z"/>

<path fill="#A8601A" stroke="none" d="
M 40.55 17.15
Q 42.5 18.7 44.4 20.3
L 45.85 20.5
Q 41.05 16.2 36.15 12.9
L 34.75 12
Q 28.85 8.15 22.8 5.7
L 15.9 3.4 7.2 1.35
Q 2.75 0.65 1.5 1.6 1.5 2.15 1.95 2.85
L 2 2.9 2 2.55
Q 2.8 1.4 7.8 2.3
L 14.4 3.85 15.3 4.05 20.55 5.7 20.8 5.75 24.25 7.2
Q 27 8.4 29.65 9.95
L 33.05 11.9 37.7 15 40.55 17.15 Z"/>

<path fill="#86B60A" stroke="none" d="
M 43.2 20.2
L 42.5 20.1 41.3 20 39.85 20 39.4 19.95 37.75 19.95 35.4 20.05 34.7 20 33.3 20.1 33.3 20.15 31.9 20.3 30 20.65 29.5 20.8 32.15 20.45 38.3 20.25 44.45 20.85 52.5 22.55 61.05 25.25 71.65 28.75 69.5 27.9
Q 59.9 23.55 52.1 21.65
L 50.75 21.3
Q 48.3 20.8 45.85 20.5
L 44.4 20.3 43.2 20.2 Z"/>

<path fill="#507E05" stroke="none" d="
M 67.6 20.15
Q 69.35 23.1 69.65 24.6
L 69.7 25.45
Q 69.55 26.25 68.65 26.2 66.4 26 61.75 22.1
L 60.5 20.95 56.65 16.2 51.9 9
Q 50.9 7.5 48.75 6.35 46.45 5.15 43.15 4.6
L 39.85 4.15
Q 37.75 4 34.75 11.95
L 34.75 12 36.15 12.9
Q 37.1 9.4 39.1 5.95 45.65 5.75 49.3 9.95 49.55 16.3 51.95 21.35
L 52.1 21.65
Q 59.9 23.55 69.5 27.9
L 71.65 28.75 73.85 29.75 71.95 26.8 71.1 25.4 67.6 20.15 Z"/>

<path fill="#598E03" stroke="none" d="
M 69.65 24.6
Q 69.35 23.1 67.6 20.15 63.45 13.9 62.7 13.15 59.05 9.2 52.4 6.8 48.25 5.3 43.15 4.6 46.45 5.15 48.75 6.35 50.9 7.5 51.9 9
L 56.65 16.2 60.5 20.95 61.75 22.1
Q 66.4 26 68.65 26.2 69.55 26.25 69.7 25.45
L 69.65 24.6 Z"/>

<path fill="#355808" stroke="none" d="
M 88.2 34.55
Q 85.7 34.4 83.05 33.75
L 76.75 31.8 75.45 32.4
Q 72.2 34 69.65 36.85
L 67.95 38.85
Q 76.2 39.2 82.35 37.25 85.55 36.25 88.2 34.55 Z"/>

<path fill="#7DAA06" stroke="none" d="
M 85.4 31.9
Q 84.6 31.3 86.55 31.85
L 76.75 28.4
Q 73.9 27.3 72.2 26.2
L 71.1 25.4 71.95 26.8
Q 73.85 27.8 77.1 29.05
L 85.4 31.9 Z"/>

<path fill="#92C905" stroke="none" d="
M 88.2 34.55
L 89.1 34.6 87.6 33.75 80 32.05 73.85 29.75 71.65 28.75 61.05 25.25 76.75 31.8 83.05 33.75
Q 85.7 34.4 88.2 34.55 Z"/>

<path fill="#476D08" stroke="none" d="
M 90.45 34.65
L 89.1 34.6 88.2 34.55
Q 85.55 36.25 82.35 37.25 76.2 39.2 67.95 38.85
L 66.65 40.5 71.7 41.65 81 42.9 86.7 38.85
Q 89.4 36.65 90.45 34.65 Z"/>

<path fill="#89BB08" stroke="none" d="
M 89.2 33.65
Q 89.45 33.8 88.85 33.8
L 87.6 33.75 89.1 34.6 90.45 34.65
Q 90.7 34.3 90.6 34.1 90.55 33.9 90.3 33.65 89.5 32.95 87.15 32.05
L 86.55 31.85
Q 84.6 31.3 85.4 31.9
L 86.45 32.35
Q 88 32.95 88.85 33.4
L 89.2 33.65 Z"/>
</g>
</defs>

<g transform="matrix( 1, 0, 0, 1, 0,0) ">
<g transform="matrix( 1, 0, 0, 1, 0,0) ">
<use xlink:href="#_______1_0_Layer1_0_FILL"/>
</g>

<g transform="matrix( 1, 0, 0, 1, 0,0) ">
<use xlink:href="#_______1_0_Layer0_0_FILL"/>
</g>
</g>
</svg>
