
<svg xmlns="http://www.w3.org/2000/svg" version="1.1" xmlns:xlink="http://www.w3.org/1999/xlink" preserveAspectRatio="none" x="0px" y="0px" width="85px" height="71px" viewBox="0 0 85 71">
<defs>
<g id="_______238_0_Layer1_0_FILL">
<path fill="#B11313" stroke="none" d="
M 17.05 21.45
L 16.6 21.75 13.95 24.5 11.45 29.15
Q 12.25 27.75 13.85 25.55
L 15.95 22.8 17.05 21.45 Z"/>

<path fill="#EE1A1A" stroke="none" d="
M 13.95 24.5
L 14.15 24.15 10.4 27.05 10.2 32.65 12.7 30.7 13.85 25.55
Q 12.25 27.75 11.45 29.15
L 13.95 24.5
M 12.1 8.5
L 11.9 8.35 4.9 12.35 9.15 12.75 10.35 12.75
Q 13.2 12.65 15.45 12.15
L 18.05 11.45
Q 18.95 11.05 19.7 10.7
L 24.75 6.95 15.55 7.6 16.7 8.5 21.25 8.05
Q 19.85 9.15 18.35 9.9 17.2 10.35 16.15 10.7 14.55 11.1 12.8 11.35
L 7.85 11.5 12.1 8.5
M 20.85 21.4
Q 21.9 18.8 22.8 15.75 21.35 18.05 18.55 20.55
L 15.95 22.8 13.85 25.55 17.3 28 18.05 23.8 18.2 24.1 18.35 22.75 18.55 22.75
Q 18.6 23.25 19.2 24.7
L 20.85 21.4 Z"/>

<path fill="#C41515" stroke="none" d="
M 13.3 23.5
Q 12.45 23.95 10.65 24.6
L 10.35 24.75 9.95 26.35
Q 9.5 28.25 9.45 30.35 9.3 31.95 9.6 33.55
L 12.9 31.6 14.35 26.8 16.1 29.25 17.3 28 13.85 25.55 12.7 30.7 10.2 32.65 10.4 27.05 14.15 24.15 16.4 20.9 15.55 21.6
Q 14.3 22.8 13.3 23.5
M 11.9 8.35
L 12.1 8.5 12.85 8.85
Q 14.75 9.6 17 9.55
L 17.75 9.5 16.7 8.5 15.55 7.6 14.1 7.65 15.85 9.1 11.9 8.35
M 27.75 8.05
Q 27 8.9 24.9 11.95 22.7 15.05 20.35 17.75
L 16.6 21.75 17.05 21.45 15.95 22.8 18.55 20.55
Q 21.35 18.05 22.8 15.75 21.9 18.8 20.85 21.4
L 19.2 24.7
Q 18.6 23.25 18.55 22.75
L 18.35 22.75 18.2 24.1 18.5 25.85 18.55 26.9 22.6 21.4
Q 23.05 20.55 23.5 19.7
L 24.3 17.9 27.75 8.05
M 23 10.6
Q 23.75 10.25 24.35 9.8
L 24.55 9.7 24.6 9.65 24.9 9.45
Q 23.15 10.2 20.25 11.15 24.35 9.3 28.75 5.8
L 27.75 6.2 24.75 6.95 19.7 10.7
Q 18.95 11.05 18.05 11.45
L 15.45 12.15
Q 13.2 12.65 10.35 12.75
L 9.15 12.75 4.9 12.35 4.1 12.95 9.3 15
Q 11.3 14.3 13.5 13.8 13.65 13.75 13.8 13.75
L 13.85 13.75 13.95 13.7 17.85 12.55
Q 20.35 11.65 23 10.6 Z"/>

<path fill="#40AF93" stroke="none" d="
M 7.35 16.55
L 9.6 18.85
Q 7.05 18 6.1 17.35
L 1.35 22.95
Q 3.6 23 5.9 22.35 10.3 21.05 14.1 18.5
L 17 16.4
Q 20.2 13.7 23 10.6 20.35 11.65 17.85 12.55
L 13.95 13.7 13.85 13.75 13.8 13.75
Q 13.65 13.75 13.5 13.8 11.95 14.2 10.45 14.85
L 7.35 16.55
M 6.2 18.2
L 7.3 18.55 9.9 19.1 8.7 16.65
Q 10.05 16 11.45 15.45 14.3 14.45 17.1 13.85
L 19.15 13.45
Q 18.2 14.5 17.15 15.4 16 16.4 14.8 17.25
L 14.75 17.3
Q 10.35 20.2 5.2 21.05
L 2.65 21.5 6.2 18.2 Z"/>

<path fill="#49C9A9" stroke="none" d="
M 7.3 18.55
L 6.2 18.2 2.65 21.5 5.2 21.05
Q 10.35 20.2 14.75 17.3
L 14.8 17.25
Q 16 16.4 17.15 15.4 18.2 14.5 19.15 13.45
L 17.1 13.85
Q 14.3 14.45 11.45 15.45 10.05 16 8.7 16.65
L 9.9 19.1 7.3 18.55 Z"/>

<path fill="#26695C" stroke="none" d="
M 7.55 17.65
L 5.55 16.85 0 23.7
Q 0.95 24.25 4.4 24.65
L 7.9 24.95 9 23.6
Q 8.7 24.2 8.55 24.95
L 9.2 24.95 10.35 24.75 10.65 24.6
Q 12.45 23.95 13.3 23.5 14.3 22.8 15.55 21.6 14.25 22.6 12.5 23.3 11.6 23.7 10.65 23.95
L 9.5 24.1 9.7 22 8.1 24.1
Q 2.05 24 1.1 23.4
L 1.35 22.95 6.1 17.35
Q 7.05 18 9.6 18.85
L 7.35 16.55 10.45 14.85
Q 11.95 14.2 13.5 13.8 11.3 14.3 9.3 15
L 8.2 15.45 6.3 16.3 7.55 17.65 Z"/>

<path fill="#FF341B" stroke="none" d="
M 12.85 8.85
L 12.1 8.5 7.85 11.5 12.8 11.35
Q 14.55 11.1 16.15 10.7 17.2 10.35 18.35 9.9 19.85 9.15 21.25 8.05
L 16.7 8.5 17.75 9.5 17 9.55
Q 14.75 9.6 12.85 8.85 Z"/>

<path fill="#379880" stroke="none" d="
M 28.75 6.1
L 28.7 6.1 28.6 6.25 27.3 7.55
Q 26.15 8.55 24.9 9.45
L 24.6 9.65 24.55 9.7 24.35 9.8
Q 23.75 10.25 23 10.6 20.2 13.7 17 16.4
L 14.1 18.5
Q 10.3 21.05 5.9 22.35 3.6 23 1.35 22.95
L 1.1 23.4
Q 2.05 24 8.1 24.1
L 9.7 22 9.5 24.1 10.65 23.95
Q 11.6 23.7 12.5 23.3 14.25 22.6 15.55 21.6
L 16.4 20.9 17.6 19.7 26.7 8.55 29.05 6.2 28.75 6.1 Z"/>

<path fill="#951710" stroke="none" d="
M 32.55 4.1
L 31.85 4.35
Q 31.05 4.65 30.35 5.05
L 28.75 5.8
Q 24.35 9.3 20.25 11.15 23.15 10.2 24.9 9.45 26.15 8.55 27.3 7.55
L 28.6 6.25 28.7 6.1 28.75 6.1 29.05 6.2 26.7 8.55 17.6 19.7 16.4 20.9 14.15 24.15 13.95 24.5 16.6 21.75 20.35 17.75
Q 22.7 15.05 24.9 11.95 27 8.9 27.75 8.05
L 28.15 7.45
Q 28.7 6.7 29.55 6.25 30.2 5.8 31.05 5.65
L 31.85 5.7 32.55 4.1 Z"/>

<path fill="#850E0E" stroke="none" d="
M 32 6.25
L 33.65 2.9 32.75 3.35
Q 29.8 4.5 28.25 5.2
L 27.35 5.6 25.45 6.1 13 7.2 14.1 8.4 11.85 7.5 7 10.2
Q 4.85 11.4 3.05 13
L 6.65 14.95
Q 7.35 15.3 8.2 15.45
L 9.3 15 4.1 12.95 4.9 12.35 11.9 8.35 15.85 9.1 14.1 7.65 15.55 7.6 24.75 6.95 27.75 6.2 28.75 5.8 30.35 5.05
Q 31.05 4.65 31.85 4.35
L 32.55 4.1 31.85 5.7 31.05 5.65
Q 30.2 5.8 29.55 6.25 28.7 6.7 28.15 7.45
L 27.75 8.05 24.3 17.9 23.5 19.7
Q 23.05 20.55 22.6 21.4
L 18.55 26.9 18.5 25.85 18.2 24.1 18.05 23.8 17.3 28 16.1 29.25 14.35 26.8 12.9 31.6 9.6 33.55
Q 9.3 31.95 9.45 30.35 9.5 28.25 9.95 26.35
L 10.35 24.75 9.2 24.95 9.15 25.35
Q 8.8 26.2 8.8 27.1
L 8.85 34.65 12.4 32.95
Q 12.8 32.75 13.15 32.45
L 13.5 31.9
Q 14.05 30.4 14.5 27.95
L 15.75 30.1 16.1 29.9
Q 17 29.1 17.65 28.25
L 18.15 26.15 18.2 27.95
Q 20.15 26.35 21.35 24.75 22.55 22.85 23.55 21.1
L 26.25 14.15
Q 26.65 12.55 27.15 11.15
L 27.85 9.25
Q 28.4 8 29.25 7.2
L 30.05 6.75
Q 30.55 6.45 32 6.25 Z"/>
</g>

<g id="_______238_0_Layer1_1_FILL">
<path fill="#87877C" stroke="none" d="
M 74.85 12.3
Q 75.55 11.35 75.55 10.55 75.5 9.75 74.05 8.85 72.7 7.9 64.5 5.7 57.35 3.7 49.55 2.25
L 36.55 0.1
Q 35.55 0 34.7 0 33.65 0 32.85 0.15
L 32.5 0.25
Q 31.15 0.55 30.25 1.15 29.25 1.8 28.45 2.75 27.7 3.55 26.25 6.35
L 23.3 13.5 23.3 13.45
Q 21.55 17.8 17.65 32.65 14.05 46.2 15.55 57
L 15.6 57.65 15.6 57.75
Q 16 59.5 16.75 59.9 17.55 60.25 18.9 59.1 20 58.05 20.1 57.75 19.95 58.4 20.45 61.9 21.05 65.4 21.65 66.45 22.15 67.1 23.25 66.05
L 24.7 64.25
Q 24.9 66.45 25.45 68.25 25.9 70.15 26.85 70.55
L 28.45 70.55 29.85 69.6 30.65 68.75 32.95 65.85 32.95 65.8
Q 34 64.45 34.65 63.25 35.2 67.6 37.25 68.1 39.2 68.55 41.6 65.25 44 61.95 44.55 60.55
L 45 59.4
Q 46.15 64.75 47.25 65.05 48.4 65.3 49.5 64.1 50.45 62.9 53.1 52.25
L 56.05 40.4 55.75 40.2
Q 55.45 39.95 54.95 39.95
L 54.45 39.95 54.35 40 54.3 39.95 54.25 39.95
Q 53.75 39.85 53.6 39.45
L 53.6 39.5 53.45 39 53.45 38.9
Q 53.55 38.3 54.15 36.8
L 54.15 36.75 54.35 36.25 54.4 36.2 54.55 35.7 54.6 35.65 58.7 27.25 60.2 24.95 60.35 24.6 61.95 22.6
Q 63.2 21.1 64.3 20.45 64.5 20.35 64.65 20.3
L 64.95 20.15 65.4 20.1 65.6 20.1 66 20.15 66.05 20.15 66.85 20.4 66.85 20.45 67.05 20.5 67.25 20.65 67.4 20.65 67.4 20.7 67.85 20.8 67.85 20.85 68 20.95 68 20.9 68.4 21.15 68.6 21.2
Q 68.8 21.3 69 21.4
L 69.45 21.6 69.45 21.65 70.35 22.15 70.3 22.1
Q 71.55 22.9 72.55 23.5
L 72.55 23.55
Q 74.95 24.9 75.55 25.3
L 79.1 26.9 79.6 26.5
Q 79.85 26.1 78.45 22.35 77.1 18.6 74.25 13.15
L 74.85 12.3
M 73.15 10.65
L 74 11.95 73.95 11.9 73.15 10.75 73.05 10.65
Q 71.75 8.6 73.15 10.65
M 34.7 9.05
Q 35.55 8.5 35.2 8.85
L 35.05 9
Q 34.5 9.5 34.2 9.35
L 34.45 8.75 34.6 8.5 34.7 9.05 Z"/>

<path fill="#ADAB9D" stroke="none" d="
M 34.7 9.05
L 34.45 9.2 34.85 9.15 34.7 9.15 34.7 9.05 Z"/>
</g>

<g id="_______238_0_Layer1_2_FILL">
<path fill="#CBC8BA" stroke="none" d="
M 75.5 23.55
Q 75.1 23.45 73.8 22.7
L 76.25 24.2
Q 77.35 24.9 78.3 25.5
L 78.55 25.7
Q 78.15 23.8 77.1 21.15 76.15 18.65 74.75 15.45
L 76.7 21.35
Q 77.1 22.65 76.8 23.25 76.45 23.75 75.5 23.55
M 63.35 18.55
L 63.3 18.55 63.25 18.6
Q 60.65 20.1 58.5 23.25 55.6 27.55 53.15 32.15 50.8 36.75 50.8 38.4
L 50.65 39.55 50.65 39.65
Q 50.85 40.75 51.45 41.2 52.05 41.65 53.4 41.55
L 54.2 41.5 52.1 46.7
Q 50.5 50.25 48.8 51 47.4 51.65 47.45 48.25 47.45 44.8 47.4 44.2 47.35 43.65 47 43.2 46.75 42.8 45.8 43.45 44.9 44.05 44.15 44.9 43.5 45.8 42.95 45.9 42.45 45.95 41.65 41.55
L 41.45 38.3
Q 40.9 36.9 39.3 38.95 37.65 41 36.2 42.25 34.8 43.55 33.5 43.6 32.25 43.7 31.75 41.8 31.1 39.75 31.05 38.45
L 30.7 34.6
Q 30.4 32.35 28.8 34.25 27.25 36.05 26.85 35.25 26.55 34.35 26.75 32.85 27.05 30.7 25.3 31.35 24.45 31.65 23.8 31.6 22.8 31.5 22.55 30.2
L 22.55 29.95 22.5 29.7 22.5 28.7
Q 22.5 27.65 23.05 25.05 23.5 22.45 26 13.3 28.55 4.15 32.85 1.45 31.75 1.7 30.95 2.2 30.1 2.75 29.45 3.55 28.75 4.3 27.55 6.9
L 24.65 14
Q 22.9 18.25 21.4 22.65 14.5 43.7 16.15 55.1
L 16.8 57.85
Q 17.35 59.8 19.8 56.8
L 20.9 55.3 20.9 55.5
Q 20.5 57.55 21 60.35
L 21.4 62.85
Q 21.85 65.2 22.35 65.8 22.75 66.25 25.1 62.25 25.35 63.55 25.85 66.2 26.4 69.1 27.5 68.95 28.75 69.45 31.8 65.1
L 34.8 60.5 35.3 59.4 35.35 59.5 35.75 63.15
Q 36.25 66.75 37.75 67 39.85 67.3 42.3 62.75 44.75 58.2 45.25 57.55
L 45.4 57.4 45.4 57.65
Q 45.8 60.25 46.2 61.45 46.9 63.65 48.05 63.5
L 48.45 63.2
Q 49.6 61.9 51.65 54.8
L 55 41.2 54 41.2
Q 52.85 41 52.45 39.9
L 52.15 39.1 52.15 38.95
Q 52.05 38.2 52.85 36.25
L 55.3 30.95 59.2 24.05 60.9 21.8
Q 62.35 20.15 63.6 19.35
L 64.4 19 65.25 18.8 66.45 19 67.6 19.4 67.65 19.45 67.8 19.45 71.5 21.4
Q 71 21.05 70.4 20.7 66.25 18 65.1 18.1 64.05 18.2 63.35 18.55
M 29.85 38.1
Q 29.45 40.1 27.9 40.1 26.45 40.1 24.9 38.35
L 24.6 38 27 38.3
Q 28.45 38.2 29 37.4
L 30.05 35.75
Q 30.1 37.05 29.85 38.1
M 22.1 44.45
Q 23.4 44.65 24.45 43.75
L 26.7 41.7
Q 26.25 45.4 22.95 47.35 20.45 45.35 21.25 42.25
L 22.1 44.45
M 34.3 58.75
Q 32.5 59.1 31.55 55 28.2 56.75 27.4 52.95
L 27.35 51.7
Q 30.3 54.3 33.2 48.1
L 33.15 53.5
Q 33.05 57.75 37.6 56.85 39.1 56.4 37.6 57.4 36.15 58.45 34.3 58.75
M 34.9 53.9
Q 36.65 54.4 40.35 50.55 44.15 46.65 41.15 52 38.3 57.3 34.9 53.9
M 21.35 54.25
L 20.75 54.55
Q 18.7 55.15 18.9 50.1 19.2 44.25 20.4 48.2 21.7 52.1 25.75 46.7 24.1 52.7 21.35 54.25
M 46.7 50.75
Q 45.5 56.65 41.9 54.5 45.3 53.15 46.6 50.15
L 46.7 50.75
M 73.05 9.5
L 73.35 9.8
Q 73.65 10.2 73.75 10.5 73.85 11.4 71.85 12.1 70.4 12.6 68.95 12.75
L 67.15 12.6 66.4 12.45
Q 66.65 10.4 65.05 9.4
L 64.95 10.8
Q 64.8 11.75 63.8 12.65 62.55 13.65 61.25 13.9 60 14.1 56.05 13.4
L 42.45 9.95
Q 35.8 7.95 34.65 7.9
L 34.5 7.9
Q 33.85 8 34.6 8.5
L 37.65 10.3
Q 43 13.3 41.15 13.8 39.4 14.3 46.45 18.7 53.55 23.05 55.4 22.9 58.35 22.65 61.1 19.1
L 63.65 16.2 63.65 16.15 64.1 15.8 64.6 15.65
Q 65.75 15.35 66.8 16.45
L 68.15 18.05
Q 69.65 19.85 70.85 19.9 72.1 19.85 73.2 17.9 74.35 15.9 73.8 13.45
L 73.65 13 73.6 13.1 72.55 15.95
Q 71.7 17.6 71.1 18.05
L 70.9 18.1
Q 70.2 18.5 69.45 17.9
L 68.85 17.45 67.9 16.75
Q 66.85 15.9 66.05 14.75
L 65.5 13.9 65.5 13.55 65.75 13.7 65.8 13.7 65.95 13.85 66.8 14.05 68.8 13.85 72.2 12.9
Q 74.25 12.25 74.5 11.7
L 74.55 11.45 74.55 11.4
Q 74.65 10.95 74.4 10.5 74.15 10.15 73.05 9.5
M 61.1 14.9
Q 63.5 14.75 64.15 13.75 64.25 14.55 62.8 15.95 61 17.75 59.85 18.25
L 59.15 18.55 57.5 19.8
Q 55.05 21.25 53.7 21.15 52.3 21.05 50.15 19.8 47.9 18.55 44.3 15.35 42.05 13.25 46.55 13.75
L 39.6 10
Q 45.65 12.05 50.35 13.2
L 55 14.25
Q 58.8 15.05 61.1 14.9
M 35.2 33.2
Q 34.45 35.2 35.45 37
L 35.8 37.3
Q 39.65 38.25 42.4 30.3 37.45 37.35 35.2 33.2
M 29.65 22.4
Q 28.45 18.6 27.7 24.25 26.9 29.85 30.65 27.4 34.4 24.95 35.35 21.75 30.8 26.15 29.65 22.4
M 44.8 29.05
L 45.05 27.9
Q 42.15 32.65 43.35 37.75 44.6 42.7 49.2 36.15
L 48.7 36.5
Q 43.05 38.7 44.8 29.05 Z"/>

<path fill="#ADAB9D" stroke="none" d="
M 41.9 54.5
Q 45.5 56.65 46.7 50.75
L 46.6 50.15
Q 45.3 53.15 41.9 54.5
M 20.75 54.55
L 21.35 54.25
Q 24.1 52.7 25.75 46.7 21.7 52.1 20.4 48.2 19.2 44.25 18.9 50.1 18.7 55.15 20.75 54.55
M 31.55 55
Q 32.5 59.1 34.3 58.75 36.15 58.45 37.6 57.4 39.1 56.4 37.6 56.85 33.05 57.75 33.15 53.5
L 33.2 48.1
Q 30.3 54.3 27.35 51.7
L 27.4 52.95
Q 28.2 56.75 31.55 55
M 27.9 40.1
Q 29.45 40.1 29.85 38.1 30.1 37.05 30.05 35.75
L 29 37.4
Q 28.45 38.2 27 38.3
L 24.6 38 24.9 38.35
Q 26.45 40.1 27.9 40.1 Z"/>

<path fill="#DED9CB" stroke="none" d="
M 40.35 50.55
Q 36.65 54.4 34.9 53.9 38.3 57.3 41.15 52 44.15 46.65 40.35 50.55
M 24.45 43.75
Q 23.4 44.65 22.1 44.45
L 21.25 42.25
Q 20.45 45.35 22.95 47.35 26.25 45.4 26.7 41.7
L 24.45 43.75 Z"/>

<path fill="#2A2626" stroke="none" d="
M 67.85 15.8
Q 67.6 16.3 68.2 16.85
L 68.85 17.45 69.45 17.9
Q 70.2 18.5 70.9 18.1
L 71.1 18.05
Q 71.7 17.6 72.55 15.95
L 73.6 13.1 73.6 13
Q 69.3 13.9 67.85 15.8
M 44.3 15.35
Q 47.9 18.55 50.15 19.8 52.3 21.05 53.7 21.15 55.05 21.25 57.5 19.8
L 59.15 18.55
Q 59.8 17.85 59.6 17.3
L 59.5 17.15
Q 59.2 16.8 58.1 16.4 55.85 15.55 50.3 14.4
L 46.55 13.75
Q 42.05 13.25 44.3 15.35 Z"/>

<path fill="#807F75" stroke="none" d="
M 74.4 12.15
L 74.5 11.7
Q 74.25 12.25 72.2 12.9
L 68.8 13.85 66.8 14.05 65.95 13.85 65.8 13.7 65.75 13.7 65.5 13.55 65.5 13.9 66.05 14.75
Q 66.85 15.9 67.9 16.75
L 68.85 17.45 68.2 16.85
Q 67.6 16.3 67.85 15.8 69.3 13.9 73.6 13
L 73.6 13.1 73.65 13 73.65 12.95 74.4 12.15
M 64.15 13.75
Q 63.5 14.75 61.1 14.9 58.8 15.05 55 14.25
L 50.35 13.2
Q 45.65 12.05 39.6 10
L 46.55 13.75 50.3 14.4
Q 55.85 15.55 58.1 16.4 59.2 16.8 59.5 17.15
L 59.6 17.3
Q 59.8 17.85 59.15 18.55
L 59.85 18.25
Q 61 17.75 62.8 15.95 64.25 14.55 64.15 13.75 Z"/>

<path fill="#FFFAE9" stroke="none" d="
M 73.2 9.75
L 72.9 9.4 72.75 9.3 72.15 9
Q 69.25 7.6 65.7 6.75 63.8 6.3 59.2 5.35
L 38.65 1.6
Q 28.45 4.65 47.95 6.4
L 52.6 6.75
Q 68.6 7.55 71.1 8.8
L 73.2 9.75
M 35.85 19.65
Q 37.2 17.9 37.3 17.35 37.75 16.5 37.45 16.25 37.2 15.9 34 17.8 30.75 19.55 30.55 20.65 30.45 21.7 30.95 22
L 31.6 22.35
Q 31.9 22.45 33.2 21.9 34.5 21.45 35.85 19.65
M 42.1 29.3
L 43.5 26.7
Q 38.65 30.05 36.8 29.45 35 28.8 36.15 31.6 37.3 34.4 39.35 32.55 41.4 30.7 42.1 29.3
M 54.7 25.25
L 51.65 29.05
Q 48.95 32.2 46.8 32.3
L 45.95 32.15
Q 45.5 32 45.5 32.5
L 45.7 33.6
Q 46.4 35.25 47.65 35.2 48.95 35.1 49.8 34.1
L 50.8 33.1 51.55 31.95 54.7 25.25 Z"/>

<path fill="#EDE9D9" stroke="none" d="
M 72.9 9.4
L 73.2 9.75 71.1 8.8
Q 68.6 7.55 52.6 6.75
L 47.95 6.4
Q 28.45 4.65 38.65 1.6
L 36.5 1.4
Q 34.45 1.15 33.1 1.4
L 32.85 1.45
Q 28.55 4.15 26 13.3 23.5 22.45 23.05 25.05 22.5 27.65 22.5 28.7
L 22.5 29.7 22.55 29.95 22.55 30.2
Q 22.8 31.5 23.8 31.6 24.45 31.65 25.3 31.35 27.05 30.7 26.75 32.85 26.55 34.35 26.85 35.25 27.25 36.05 28.8 34.25 30.4 32.35 30.7 34.6
L 31.05 38.45
Q 31.1 39.75 31.75 41.8 32.25 43.7 33.5 43.6 34.8 43.55 36.2 42.25 37.65 41 39.3 38.95 40.9 36.9 41.45 38.3
L 41.65 41.55
Q 42.45 45.95 42.95 45.9 43.5 45.8 44.15 44.9 44.9 44.05 45.8 43.45 46.75 42.8 47 43.2 47.35 43.65 47.4 44.2 47.45 44.8 47.45 48.25 47.4 51.65 48.8 51 50.5 50.25 52.1 46.7
L 54.2 41.5 53.4 41.55
Q 52.05 41.65 51.45 41.2 50.85 40.75 50.65 39.65
L 50.65 39.55 50.8 38.4
Q 50.8 36.75 53.15 32.15 55.6 27.55 58.5 23.25 60.65 20.1 63.25 18.6
L 63.3 18.55 63.35 18.55
Q 64.05 18.2 65.1 18.1 66.25 18 70.4 20.7 71 21.05 71.5 21.4
L 73.8 22.7
Q 75.1 23.45 75.5 23.55 76.45 23.75 76.8 23.25 77.1 22.65 76.7 21.35
L 74.75 15.45 73.8 13.45
Q 74.35 15.9 73.2 17.9 72.1 19.85 70.85 19.9 69.65 19.85 68.15 18.05
L 66.8 16.45
Q 65.75 15.35 64.6 15.65
L 64.1 15.8 63.65 16.15 63.65 16.2 61.1 19.1
Q 58.35 22.65 55.4 22.9 53.55 23.05 46.45 18.7 39.4 14.3 41.15 13.8 43 13.3 37.65 10.3
L 34.6 8.5
Q 33.85 8 34.5 7.9
L 34.65 7.9
Q 35.8 7.95 42.45 9.95
L 56.05 13.4
Q 60 14.1 61.25 13.9 62.55 13.65 63.8 12.65 64.8 11.75 64.95 10.8
L 65.05 9.4
Q 66.65 10.4 66.4 12.45
L 67.15 12.6 68.95 12.75
Q 70.4 12.6 71.85 12.1 73.85 11.4 73.75 10.5 73.65 10.2 73.35 9.8
L 73.05 9.5 72.9 9.4
M 51.65 29.05
L 54.7 25.25 51.55 31.95 50.8 33.1 49.8 34.1
Q 48.95 35.1 47.65 35.2 46.4 35.25 45.7 33.6
L 45.5 32.5
Q 45.5 32 45.95 32.15
L 46.8 32.3
Q 48.95 32.2 51.65 29.05
M 45.05 27.9
L 44.8 29.05
Q 43.05 38.7 48.7 36.5
L 49.2 36.15
Q 44.6 42.7 43.35 37.75 42.15 32.65 45.05 27.9
M 43.5 26.7
L 42.1 29.3
Q 41.4 30.7 39.35 32.55 37.3 34.4 36.15 31.6 35 28.8 36.8 29.45 38.65 30.05 43.5 26.7
M 27.7 24.25
Q 28.45 18.6 29.65 22.4 30.8 26.15 35.35 21.75 34.4 24.95 30.65 27.4 26.9 29.85 27.7 24.25
M 37.3 17.35
Q 37.2 17.9 35.85 19.65 34.5 21.45 33.2 21.9 31.9 22.45 31.6 22.35
L 30.95 22
Q 30.45 21.7 30.55 20.65 30.75 19.55 34 17.8 37.2 15.9 37.45 16.25 37.75 16.5 37.3 17.35
M 35.45 37
Q 34.45 35.2 35.2 33.2 37.45 37.35 42.4 30.3 39.65 38.25 35.8 37.3
L 35.45 37 Z"/>
</g>

<g id="_______238_0_Layer1_3_FILL">
<path fill="#FFF024" stroke="none" d="
M 52.85 17.8
L 52.9 18.45 53.15 19.25 53.5 19.6
Q 54.2 20.1 55 20 55.65 19.95 56.15 19.45
L 56.15 19.35
Q 56.6 18.9 56.6 18.35
L 53.9 18.1 52.85 17.8
M 73 15.3
L 72.9 15.1 72.75 14.9 70.5 16 71 16.55 71.75 16.85 72.05 16.85
Q 72.45 16.75 72.8 16.45
L 72.85 16.4
Q 73.1 16.05 73.05 15.55
L 73 15.3 Z"/>

<path fill="#930F0F" stroke="none" d="
M 57.35 18.25
L 57.4 18.25 57.2 17.25
Q 56.95 16.45 56.35 15.8
L 53.8 15.2 53.6 15.2
Q 52.25 15.3 51.35 16.3
L 50.9 17.2 52.15 17.6
Q 52.25 17.1 52.6 16.7 53.2 15.9 54.35 15.8
L 55.35 15.9
Q 55.9 16.05 56.25 16.35 56.95 16.8 57.15 17.45
L 57.35 18.25
M 49.85 18.6
Q 49.95 19.3 50.25 19.85 50.65 20.55 51.3 21 52.55 21.95 54.1 21.8 55.65 21.7 56.65 20.55 55.85 21.4 54.55 21.5 53.15 21.6 52.05 20.75
L 51.95 20.7
Q 50.95 19.9 50.85 18.65 50.6 17.85 50.9 17.2 50.45 17.05 50.05 16.85 49.65 17.65 49.85 18.6
M 69.25 16.45
L 68.7 16.55
Q 68.9 17.1 69.45 17.5 70.1 18.1 70.95 18.1
L 71.35 18.1
Q 72.4 18 73.1 17.2 72.5 17.8 71.65 17.85
L 71.25 17.85
Q 70.55 17.85 69.95 17.35
L 69.25 16.45
M 69.3 14.65
L 69.1 15.35 69.1 15.9 69.25 16.45 70.1 16.15 70 15.9 70 15.8
Q 69.9 15.1 70.35 14.55 70.8 14.05 71.55 14 72.25 13.9 72.85 14.3
L 73.1 14.55 73.1 14.45 73.4 14.9
Q 73.35 14.65 73.15 14.4
L 73.1 14.35
Q 72.95 14 72.6 13.75 72.3 13.55 72.1 13.45
L 71.7 13.55 71.65 13.55
Q 70.3 14 69.3 14.65 Z"/>

<path fill="#B81414" stroke="none" d="
M 57.4 18.25
L 57.35 18.25
Q 57.4 19.2 56.8 19.85
L 56.75 19.95
Q 56.1 20.65 55.1 20.75 54 20.85 53.15 20.2
L 52.7 19.85
Q 52.25 19.3 52.15 18.55
L 52.15 17.6 50.9 17.2
Q 50.6 17.85 50.85 18.65 50.95 19.9 51.95 20.7
L 52.05 20.75
Q 53.15 21.6 54.55 21.5 55.85 21.4 56.65 20.55
L 56.7 20.4 56.9 20.15
Q 57.4 19.35 57.4 18.25
M 70.7 16.95
Q 70.25 16.65 70.1 16.15
L 69.25 16.45 69.95 17.35
Q 70.55 17.85 71.25 17.85
L 71.65 17.85
Q 72.5 17.8 73.1 17.2
L 73.1 17.1
Q 73.7 16.35 73.6 15.35
L 73.4 14.9 73.1 14.45 73.1 14.55 73.45 15.15 73.5 15.5
Q 73.65 16.2 73.2 16.75
L 73.15 16.75
Q 72.9 17.15 72.5 17.25
L 71.7 17.4
Q 71.15 17.35 70.7 16.95 Z"/>

<path fill="#EEB421" stroke="none" d="
M 57.35 18.25
L 57.25 18.3 56.6 18.35
Q 56.6 18.9 56.15 19.35
L 56.15 19.45
Q 55.65 19.95 55 20 54.2 20.1 53.5 19.6
L 53.15 19.25 52.9 18.45 52.85 17.8 52.15 17.6 52.15 18.55
Q 52.25 19.3 52.7 19.85
L 53.15 20.2
Q 54 20.85 55.1 20.75 56.1 20.65 56.75 19.95
L 56.8 19.85
Q 57.4 19.2 57.35 18.25
M 70.1 16.15
Q 70.25 16.65 70.7 16.95 71.15 17.35 71.7 17.4
L 72.5 17.25
Q 72.9 17.15 73.15 16.75
L 73.2 16.75
Q 73.65 16.2 73.5 15.5
L 73.45 15.15 73.1 14.55 72.75 14.9 72.9 15.1 73 15.3 73.05 15.55
Q 73.1 16.05 72.85 16.4
L 72.8 16.45
Q 72.45 16.75 72.05 16.85
L 71.75 16.85 71 16.55 70.5 16 70.35 16.1 70.1 16.15 Z"/>

<path fill="#D99207" stroke="none" d="
M 56.45 17.7
L 56.6 18.35 57.25 18.3 57.35 18.25 57.15 17.45
Q 56.95 16.8 56.25 16.35 55.9 16.05 55.35 15.9
L 54.35 15.8
Q 53.2 15.9 52.6 16.7 52.25 17.1 52.15 17.6
L 52.85 17.8 53.15 17.1
Q 53.65 16.55 54.5 16.5
L 55 16.5
Q 55.4 16.55 55.85 16.85 56.3 17.2 56.45 17.7
M 70.5 16
L 70.5 15.75
Q 70.45 15.3 70.8 14.85 71.05 14.45 71.6 14.4 72.1 14.35 72.6 14.7
L 72.75 14.9 73.1 14.55 72.85 14.3
Q 72.25 13.9 71.55 14 70.8 14.05 70.35 14.55 69.9 15.1 70 15.8
L 70 15.9 70.1 16.15 70.35 16.1 70.5 16 Z"/>

<path fill="#FABD22" stroke="none" d="
M 56.6 18.35
L 56.45 17.7
Q 56.3 17.2 55.85 16.85 55.4 16.55 55 16.5
L 54.5 16.5
Q 53.65 16.55 53.15 17.1
L 52.85 17.8 53.9 18.1 56.6 18.35
M 70.5 15.75
L 70.5 16 72.75 14.9 72.6 14.7
Q 72.1 14.35 71.6 14.4 71.05 14.45 70.8 14.85 70.45 15.3 70.5 15.75 Z"/>

<path fill="#5F0909" stroke="none" d="
M 50.55 15.9
Q 50.15 16.35 50.05 16.85 50.45 17.05 50.9 17.2
L 51.35 16.3
Q 52.25 15.3 53.6 15.2
L 53.8 15.2 52.25 14.85
Q 51.25 15.1 50.55 15.9
M 69.3 14.65
L 68.45 15.25 68.45 15.85 68.7 16.55 69.25 16.45 69.1 15.9 69.1 15.35 69.3 14.65 Z"/>
</g>

<g id="_______238_0_Layer1_4_FILL">
<path fill="#BD8519" stroke="none" d="
M 84.75 36.25
Q 84.7 34.85 84.6 33.3 84.15 28.15 79.6 25.35
L 70.85 20 68.15 18.75
Q 65.15 17.4 63.2 19 61.2 20.6 60.1 22.1
L 57.6 25.6
Q 56.35 27.6 54.9 30.2 51 37.85 51.15 39.65 51.3 41.45 52.65 42
L 57.5 42.15 65.9 41.7
Q 70.8 41.65 73.95 42.55 77.1 43.35 78.55 44.15 79.95 44.9 80.9 45.8 81.85 46.7 82.5 46.7 83.05 46.65 83.45 46.05 83.8 45.4 84.4 41.95 84.85 39.5 84.75 36.25 Z"/>
</g>

<g id="_______238_0_Layer1_5_FILL">
<path fill="#E5AD1F" stroke="none" d="
M 61.4 22.35
Q 62.8 20.15 63.9 19.25
L 63.6 19.35
Q 62.4 20.15 60.9 21.8
L 59.25 24.05 59.25 24.1 57.55 26.7 52.85 36.25
Q 52.05 38.2 52.15 38.95
L 52.15 39.1 52.45 39.9
Q 52.9 41 54.05 41.2
L 54.4 41.2 54.5 41.25 66.7 40.75 71.9 41.3 72 41.3
Q 73.4 41.55 74.85 41.95 76.3 42.3 77.8 42.85 79.35 43.3 80.25 44.15
L 81 44.65 80.8 44.45 79.7 42.85 77.75 40.7
Q 72 34.4 62 28.65
L 62.45 28.85
Q 59.55 27.45 59.5 26.75 59.4 25.85 60.55 23.65
L 61.4 22.35
M 55.65 35.4
Q 56.5 33.5 57.2 32.4 57.95 31.1 63.35 33.55 67.85 35.6 70.3 37.5
L 70.45 37.65
Q 75.85 41.6 70.35 40.1
L 68 39.95
Q 65.5 39.8 62.2 39.8
L 58.2 39.8 58 39.85 56.8 39.8 56.35 39.7 55.6 39.45 55.55 39.4 55.2 38.95 55 38.45 55.05 37.65 55.1 37.35 55.65 35.4 Z"/>

<path fill="#D0931C" stroke="none" d="
M 57.2 32.4
Q 56.5 33.5 55.65 35.4
L 55.1 37.35 55.05 37.65 55 38.45 55.2 38.95 55.55 39.4 55.6 39.45 56.35 39.7 56.8 39.8 58 39.85 58.2 39.8 62.2 39.8
Q 65.5 39.8 68 39.95
L 70.35 40.1
Q 75.85 41.6 70.45 37.65
L 70.3 37.5
Q 67.85 35.6 63.35 33.55 57.95 31.1 57.2 32.4 Z"/>

<path fill="#FFCC24" stroke="none" d="
M 83.6 33.2
Q 83.15 29.9 81.35 27.9
L 78.3 25.5
Q 77.4 24.9 76.3 24.2
L 70.15 20.55 67.85 19.45 67.65 19.45 67.6 19.4 66.6 19.05 66.5 19 65.3 18.8 64.45 19 63.9 19.25
Q 62.8 20.15 61.4 22.35
L 60.55 23.65
Q 59.4 25.85 59.5 26.75 59.55 27.45 62.45 28.85
L 62 28.65
Q 72 34.4 77.75 40.7
L 79.7 42.85 80.8 44.45 81 44.65
Q 82.1 45.95 82.85 43.75
L 83.2 42.65
Q 83.55 41.55 83.8 38.6 84 36.45 83.6 33.2
M 81.15 30.4
Q 81.7 31.75 81.85 33 82.15 34.2 82.1 37.45
L 82.1 40.55 81.45 37.85
Q 80.7 35.2 77.05 31.15 73.4 27.05 66.95 22.6 67.55 21.2 70 22.4 76.25 25.35 76.6 25.6
L 78.4 26.8 79.6 28.05
Q 80.55 29.05 81.15 30.4 Z"/>

<path fill="#FFEA08" stroke="none" d="
M 81.85 33
Q 81.7 31.75 81.15 30.4 80.55 29.05 79.6 28.05
L 78.4 26.8 76.6 25.6
Q 76.25 25.35 70 22.4 67.55 21.2 66.95 22.6 73.4 27.05 77.05 31.15 80.7 35.2 81.45 37.85
L 82.1 40.55 82.1 37.45
Q 82.15 34.2 81.85 33 Z"/>
</g>

<g id="_______238_0_Layer0_0_FILL">
<path fill="#B11313" stroke="none" d="
M 17.05 21.45
L 16.6 21.75 13.95 24.5 11.45 29.15
Q 12.25 27.75 13.85 25.55
L 15.95 22.8 17.05 21.45 Z"/>

<path fill="#C41515" stroke="none" d="
M 13.3 23.5
Q 12.45 23.95 10.65 24.6
L 10.35 24.75 9.95 26.35
Q 9.5 28.25 9.45 30.35 9.3 31.95 9.6 33.55
L 12.9 31.6 14.35 26.8 16.1 29.25 17.3 28 13.85 25.55 12.7 30.7 10.2 32.65 10.4 27.05 14.15 24.15 16.4 20.9 15.55 21.6
Q 14.3 22.8 13.3 23.5
M 11.9 8.35
L 12.1 8.5 12.85 8.85
Q 14.75 9.6 17 9.55
L 17.75 9.5 16.7 8.5 15.55 7.6 14.1 7.65 15.85 9.1 11.9 8.35
M 27.75 8.05
Q 27 8.9 24.9 11.95 22.7 15.05 20.35 17.75
L 16.6 21.75 17.05 21.45 15.95 22.8 18.55 20.55
Q 21.35 18.05 22.8 15.75 21.9 18.8 20.85 21.4
L 19.2 24.7
Q 18.6 23.25 18.55 22.75
L 18.35 22.75 18.2 24.1 18.5 25.85 18.55 26.9 22.6 21.4
Q 23.05 20.55 23.5 19.7
L 24.3 17.9 27.75 8.05
M 24.9 9.45
Q 23.15 10.2 20.25 11.15 24.35 9.3 28.75 5.8
L 27.75 6.2 24.75 6.95 19.7 10.7
Q 18.95 11.05 18.05 11.45
L 15.45 12.15
Q 13.2 12.65 10.35 12.75
L 9.15 12.75 4.9 12.35 4.1 12.95 9.3 15
Q 11.3 14.3 13.5 13.8 13.65 13.75 13.8 13.75
L 13.85 13.75 13.95 13.7 17.85 12.55
Q 20.35 11.65 23 10.6 23.75 10.25 24.35 9.8
L 24.55 9.7 24.6 9.65 24.9 9.45 Z"/>

<path fill="#EE1A1A" stroke="none" d="
M 13.95 24.5
L 14.15 24.15 10.4 27.05 10.2 32.65 12.7 30.7 13.85 25.55
Q 12.25 27.75 11.45 29.15
L 13.95 24.5
M 12.1 8.5
L 11.9 8.35 4.9 12.35 9.15 12.75 10.35 12.75
Q 13.2 12.65 15.45 12.15
L 18.05 11.45
Q 18.95 11.05 19.7 10.7
L 24.75 6.95 15.55 7.6 16.7 8.5 21.25 8.05
Q 19.85 9.15 18.35 9.9 17.2 10.35 16.15 10.7 14.55 11.1 12.8 11.35
L 7.85 11.5 12.1 8.5
M 20.85 21.4
Q 21.9 18.8 22.8 15.75 21.35 18.05 18.55 20.55
L 15.95 22.8 13.85 25.55 17.3 28 18.05 23.8 18.2 24.1 18.35 22.75 18.55 22.75
Q 18.6 23.25 19.2 24.7
L 20.85 21.4 Z"/>

<path fill="#40AF93" stroke="none" d="
M 1.35 22.95
Q 3.6 23 5.9 22.35 10.3 21.05 14.1 18.5
L 17 16.4
Q 20.2 13.7 23 10.6 20.35 11.65 17.85 12.55
L 13.95 13.7 13.85 13.75 13.8 13.75
Q 13.65 13.75 13.5 13.8 11.95 14.2 10.45 14.85
L 7.35 16.55 9.6 18.85
Q 7.05 18 6.1 17.35
L 1.35 22.95
M 6.2 18.2
L 7.3 18.55 9.9 19.1 8.7 16.65
Q 10.05 16 11.45 15.45 14.3 14.45 17.1 13.85
L 19.15 13.45
Q 18.2 14.5 17.15 15.4 16 16.4 14.8 17.25
L 14.75 17.3
Q 10.35 20.2 5.2 21.05
L 2.65 21.5 6.2 18.2 Z"/>

<path fill="#49C9A9" stroke="none" d="
M 7.3 18.55
L 6.2 18.2 2.65 21.5 5.2 21.05
Q 10.35 20.2 14.75 17.3
L 14.8 17.25
Q 16 16.4 17.15 15.4 18.2 14.5 19.15 13.45
L 17.1 13.85
Q 14.3 14.45 11.45 15.45 10.05 16 8.7 16.65
L 9.9 19.1 7.3 18.55 Z"/>

<path fill="#26695C" stroke="none" d="
M 9.3 15
L 8.2 15.45 6.3 16.3 7.55 17.65 5.55 16.85 0 23.7
Q 0.95 24.25 4.4 24.65
L 7.9 24.95 9 23.6
Q 8.7 24.2 8.55 24.95
L 9.2 24.95 10.35 24.75 10.65 24.6
Q 12.45 23.95 13.3 23.5 14.3 22.8 15.55 21.6 14.25 22.6 12.5 23.3 11.6 23.7 10.65 23.95
L 9.5 24.1 9.7 22 8.1 24.1
Q 2.05 24 1.1 23.4
L 1.35 22.95 6.1 17.35
Q 7.05 18 9.6 18.85
L 7.35 16.55 10.45 14.85
Q 11.95 14.2 13.5 13.8 11.3 14.3 9.3 15 Z"/>

<path fill="#FF341B" stroke="none" d="
M 12.85 8.85
L 12.1 8.5 7.85 11.5 12.8 11.35
Q 14.55 11.1 16.15 10.7 17.2 10.35 18.35 9.9 19.85 9.15 21.25 8.05
L 16.7 8.5 17.75 9.5 17 9.55
Q 14.75 9.6 12.85 8.85 Z"/>

<path fill="#379880" stroke="none" d="
M 28.75 6.1
L 28.7 6.1 28.6 6.25 27.3 7.55
Q 26.15 8.55 24.9 9.45
L 24.6 9.65 24.55 9.7 24.35 9.8
Q 23.75 10.25 23 10.6 20.2 13.7 17 16.4
L 14.1 18.5
Q 10.3 21.05 5.9 22.35 3.6 23 1.35 22.95
L 1.1 23.4
Q 2.05 24 8.1 24.1
L 9.7 22 9.5 24.1 10.65 23.95
Q 11.6 23.7 12.5 23.3 14.25 22.6 15.55 21.6
L 16.4 20.9 17.6 19.7 26.7 8.55 29.05 6.2 28.75 6.1 Z"/>

<path fill="#850E0E" stroke="none" d="
M 31.85 4.35
L 32.55 4.1 31.85 5.7 31.05 5.65
Q 30.2 5.8 29.55 6.25 28.7 6.7 28.15 7.45
L 27.75 8.05 24.3 17.9 23.5 19.7
Q 23.05 20.55 22.6 21.4
L 18.55 26.9 18.5 25.85 18.2 24.1 18.05 23.8 17.3 28 16.1 29.25 14.35 26.8 12.9 31.6 9.6 33.55
Q 9.3 31.95 9.45 30.35 9.5 28.25 9.95 26.35
L 10.35 24.75 9.2 24.95 9.15 25.35
Q 8.8 26.2 8.8 27.1
L 8.85 34.65 12.4 32.95
Q 12.8 32.75 13.15 32.45
L 13.5 31.9
Q 14.05 30.4 14.5 27.95
L 15.75 30.1 16.1 29.9
Q 17 29.1 17.65 28.25
L 18.15 26.15 18.2 27.95
Q 20.15 26.35 21.35 24.75 22.55 22.85 23.55 21.1
L 26.25 14.15
Q 26.65 12.55 27.15 11.15
L 27.85 9.25
Q 28.4 8 29.25 7.2
L 30.05 6.75
Q 30.55 6.45 32 6.25
L 33.65 2.9 32.75 3.35
Q 29.8 4.5 28.25 5.2
L 27.35 5.6 25.45 6.1 13 7.2 14.1 8.4 11.85 7.5 7 10.2
Q 4.85 11.4 3.05 13
L 6.65 14.95
Q 7.35 15.3 8.2 15.45
L 9.3 15 4.1 12.95 4.9 12.35 11.9 8.35 15.85 9.1 14.1 7.65 15.55 7.6 24.75 6.95 27.75 6.2 28.75 5.8 30.35 5.05
Q 31.05 4.65 31.85 4.35 Z"/>

<path fill="#951710" stroke="none" d="
M 32.55 4.1
L 31.85 4.35
Q 31.05 4.65 30.35 5.05
L 28.75 5.8
Q 24.35 9.3 20.25 11.15 23.15 10.2 24.9 9.45 26.15 8.55 27.3 7.55
L 28.6 6.25 28.7 6.1 28.75 6.1 29.05 6.2 26.7 8.55 17.6 19.7 16.4 20.9 14.15 24.15 13.95 24.5 16.6 21.75 20.35 17.75
Q 22.7 15.05 24.9 11.95 27 8.9 27.75 8.05
L 28.15 7.45
Q 28.7 6.7 29.55 6.25 30.2 5.8 31.05 5.65
L 31.85 5.7 32.55 4.1 Z"/>
</g>

<g id="_______238_0_Layer0_1_FILL">
<path fill="#87877C" stroke="none" d="
M 74.85 12.3
Q 75.55 11.35 75.55 10.55 75.5 9.75 74.05 8.85 72.7 7.9 64.5 5.7 57.35 3.7 49.55 2.25
L 36.55 0.1
Q 35.55 0 34.7 0 33.65 0 32.85 0.15
L 32.5 0.25
Q 31.15 0.55 30.25 1.15 29.25 1.8 28.45 2.75 27.7 3.55 26.25 6.35
L 23.3 13.5 23.3 13.45
Q 21.55 17.8 17.65 32.65 14.05 46.2 15.55 57
L 15.6 57.65 15.6 57.75
Q 16 59.5 16.75 59.9 17.55 60.25 18.9 59.1 20 58.05 20.1 57.75 19.95 58.4 20.45 61.9 21.05 65.4 21.65 66.45 22.15 67.1 23.25 66.05
L 24.7 64.25
Q 24.9 66.45 25.45 68.25 25.9 70.15 26.85 70.55
L 28.45 70.55 29.85 69.6 30.65 68.75 32.95 65.85 32.95 65.8
Q 34 64.45 34.65 63.25 35.2 67.6 37.25 68.1 39.2 68.55 41.6 65.25 44 61.95 44.55 60.55
L 45 59.4
Q 46.15 64.75 47.25 65.05 48.4 65.3 49.5 64.1 50.45 62.9 53.1 52.25
L 56.05 40.4 55.75 40.2
Q 55.45 39.95 54.95 39.95
L 54.45 39.95 54.35 40 54.3 39.95 54.25 39.95
Q 53.75 39.85 53.6 39.45
L 53.6 39.5 53.45 39 53.45 38.9
Q 53.55 38.3 54.15 36.8
L 54.15 36.75 54.35 36.25 54.4 36.2 54.55 35.7 54.6 35.65 58.7 27.25 60.2 24.95 60.35 24.6 61.95 22.6
Q 63.2 21.1 64.3 20.45 64.5 20.35 64.65 20.3
L 64.95 20.15 65.4 20.1 65.6 20.1 66 20.15 66.05 20.15 66.85 20.4 66.85 20.45 67.05 20.5 67.25 20.65 67.4 20.65 67.4 20.7 67.85 20.8 67.85 20.85 68 20.95 68 20.9 68.4 21.15 68.6 21.2
Q 68.8 21.3 69 21.4
L 69.45 21.6 69.45 21.65 70.35 22.15 70.3 22.1
Q 71.55 22.9 72.55 23.5
L 72.55 23.55
Q 74.95 24.9 75.55 25.3
L 79.1 26.9 79.6 26.5
Q 79.85 26.1 78.45 22.35 77.1 18.6 74.25 13.15
L 74.85 12.3
M 73.15 10.65
L 74 11.95 73.95 11.9 73.15 10.75 73.05 10.65
Q 71.75 8.6 73.15 10.65
M 34.7 9.05
Q 35.55 8.5 35.2 8.85
L 35.05 9
Q 34.5 9.5 34.2 9.35
L 34.45 8.75 34.6 8.5 34.7 9.05 Z"/>

<path fill="#ADAB9D" stroke="none" d="
M 34.7 9.05
L 34.45 9.2 34.85 9.15 34.7 9.15 34.7 9.05 Z"/>
</g>

<g id="_______238_0_Layer0_2_FILL">
<path fill="#CBC8BA" stroke="none" d="
M 75.5 23.55
Q 75.1 23.45 73.8 22.7
L 76.25 24.2
Q 77.35 24.9 78.3 25.5
L 78.55 25.7
Q 78.15 23.8 77.1 21.15 76.15 18.65 74.75 15.45
L 76.7 21.35
Q 77.1 22.65 76.8 23.25 76.45 23.75 75.5 23.55
M 63.35 18.55
L 63.3 18.55 63.25 18.6
Q 60.65 20.1 58.5 23.25 55.6 27.55 53.15 32.15 50.8 36.75 50.8 38.4
L 50.65 39.55 50.65 39.65
Q 50.85 40.75 51.45 41.2 52.05 41.65 53.4 41.55
L 54.2 41.5 52.1 46.7
Q 50.5 50.25 48.8 51 47.4 51.65 47.45 48.25 47.45 44.8 47.4 44.2 47.35 43.65 47 43.2 46.75 42.8 45.8 43.45 44.9 44.05 44.15 44.9 43.5 45.8 42.95 45.9 42.45 45.95 41.65 41.55
L 41.45 38.3
Q 40.9 36.9 39.3 38.95 37.65 41 36.2 42.25 34.8 43.55 33.5 43.6 32.25 43.7 31.75 41.8 31.1 39.75 31.05 38.45
L 30.7 34.6
Q 30.4 32.35 28.8 34.25 27.25 36.05 26.85 35.25 26.55 34.35 26.75 32.85 27.05 30.7 25.3 31.35 24.45 31.65 23.8 31.6 22.8 31.5 22.55 30.2
L 22.55 29.95 22.5 29.7 22.5 28.7
Q 22.5 27.65 23.05 25.05 23.5 22.45 26 13.3 28.55 4.15 32.85 1.45 31.75 1.7 30.95 2.2 30.1 2.75 29.45 3.55 28.75 4.3 27.55 6.9
L 24.65 14
Q 22.9 18.25 21.4 22.65 14.5 43.7 16.15 55.1
L 16.8 57.85
Q 17.35 59.8 19.8 56.8
L 20.9 55.3 20.9 55.5
Q 20.5 57.55 21 60.35
L 21.4 62.85
Q 21.85 65.2 22.35 65.8 22.75 66.25 25.1 62.25 25.35 63.55 25.85 66.2 26.4 69.1 27.5 68.95 28.75 69.45 31.8 65.1
L 34.8 60.5 35.3 59.4 35.35 59.5 35.75 63.15
Q 36.25 66.75 37.75 67 39.85 67.3 42.3 62.75 44.75 58.2 45.25 57.55
L 45.4 57.4 45.4 57.65
Q 45.8 60.25 46.2 61.45 46.9 63.65 48.05 63.5
L 48.45 63.2
Q 49.6 61.9 51.65 54.8
L 55 41.2 54 41.2
Q 52.85 41 52.45 39.9
L 52.15 39.1 52.15 38.95
Q 52.05 38.2 52.85 36.25
L 55.3 30.95 59.2 24.05 60.9 21.8
Q 62.35 20.15 63.6 19.35
L 64.4 19 65.25 18.8 66.45 19 67.6 19.4 67.65 19.45 67.8 19.45 71.5 21.4
Q 71 21.05 70.4 20.7 66.25 18 65.1 18.1 64.05 18.2 63.35 18.55
M 29.85 38.1
Q 29.45 40.1 27.9 40.1 26.45 40.1 24.9 38.35
L 24.6 38 27 38.3
Q 28.45 38.2 29 37.4
L 30.05 35.75
Q 30.1 37.05 29.85 38.1
M 22.1 44.45
Q 23.4 44.65 24.45 43.75
L 26.7 41.7
Q 26.25 45.4 22.95 47.35 20.45 45.35 21.25 42.25
L 22.1 44.45
M 34.3 58.75
Q 32.5 59.1 31.55 55 28.2 56.75 27.4 52.95
L 27.35 51.7
Q 30.3 54.3 33.2 48.1
L 33.15 53.5
Q 33.05 57.75 37.6 56.85 39.1 56.4 37.6 57.4 36.15 58.45 34.3 58.75
M 34.9 53.9
Q 36.65 54.4 40.35 50.55 44.15 46.65 41.15 52 38.3 57.3 34.9 53.9
M 21.35 54.25
L 20.75 54.55
Q 18.7 55.15 18.9 50.1 19.2 44.25 20.4 48.2 21.7 52.1 25.75 46.7 24.1 52.7 21.35 54.25
M 46.7 50.75
Q 45.5 56.65 41.9 54.5 45.3 53.15 46.6 50.15
L 46.7 50.75
M 73.05 9.5
L 73.35 9.8
Q 73.65 10.2 73.75 10.5 73.85 11.4 71.85 12.1 70.4 12.6 68.95 12.75
L 67.15 12.6 66.4 12.45
Q 66.65 10.4 65.05 9.4
L 64.95 10.8
Q 64.8 11.75 63.8 12.65 62.55 13.65 61.25 13.9 60 14.1 56.05 13.4
L 42.45 9.95
Q 35.8 7.95 34.65 7.9
L 34.5 7.9
Q 33.85 8 34.6 8.5
L 37.65 10.3
Q 43 13.3 41.15 13.8 39.4 14.3 46.45 18.7 53.55 23.05 55.4 22.9 58.35 22.65 61.1 19.1
L 63.65 16.2 63.65 16.15 64.1 15.8 64.6 15.65
Q 65.75 15.35 66.8 16.45
L 68.15 18.05
Q 69.65 19.85 70.85 19.9 72.1 19.85 73.2 17.9 74.35 15.9 73.8 13.45
L 73.65 13 73.6 13.1 72.55 15.95
Q 71.7 17.6 71.1 18.05
L 70.9 18.1
Q 70.2 18.5 69.45 17.9
L 68.85 17.45 67.9 16.75
Q 66.85 15.9 66.05 14.75
L 65.5 13.9 65.5 13.55 65.75 13.7 65.8 13.7 65.95 13.85 66.8 14.05 68.8 13.85 72.2 12.9
Q 74.25 12.25 74.5 11.7
L 74.55 11.45 74.55 11.4
Q 74.65 10.95 74.4 10.5 74.15 10.15 73.05 9.5
M 61.1 14.9
Q 63.5 14.75 64.15 13.75 64.25 14.55 62.8 15.95 61 17.75 59.85 18.25
L 59.15 18.55 57.5 19.8
Q 55.05 21.25 53.7 21.15 52.3 21.05 50.15 19.8 47.9 18.55 44.3 15.35 42.05 13.25 46.55 13.75
L 39.6 10
Q 45.65 12.05 50.35 13.2
L 55 14.25
Q 58.8 15.05 61.1 14.9
M 35.2 33.2
Q 34.45 35.2 35.45 37
L 35.8 37.3
Q 39.65 38.25 42.4 30.3 37.45 37.35 35.2 33.2
M 29.65 22.4
Q 28.45 18.6 27.7 24.25 26.9 29.85 30.65 27.4 34.4 24.95 35.35 21.75 30.8 26.15 29.65 22.4
M 44.8 29.05
L 45.05 27.9
Q 42.15 32.65 43.35 37.75 44.6 42.7 49.2 36.15
L 48.7 36.5
Q 43.05 38.7 44.8 29.05 Z"/>

<path fill="#ADAB9D" stroke="none" d="
M 41.9 54.5
Q 45.5 56.65 46.7 50.75
L 46.6 50.15
Q 45.3 53.15 41.9 54.5
M 20.75 54.55
L 21.35 54.25
Q 24.1 52.7 25.75 46.7 21.7 52.1 20.4 48.2 19.2 44.25 18.9 50.1 18.7 55.15 20.75 54.55
M 31.55 55
Q 32.5 59.1 34.3 58.75 36.15 58.45 37.6 57.4 39.1 56.4 37.6 56.85 33.05 57.75 33.15 53.5
L 33.2 48.1
Q 30.3 54.3 27.35 51.7
L 27.4 52.95
Q 28.2 56.75 31.55 55
M 27.9 40.1
Q 29.45 40.1 29.85 38.1 30.1 37.05 30.05 35.75
L 29 37.4
Q 28.45 38.2 27 38.3
L 24.6 38 24.9 38.35
Q 26.45 40.1 27.9 40.1 Z"/>

<path fill="#DED9CB" stroke="none" d="
M 40.35 50.55
Q 36.65 54.4 34.9 53.9 38.3 57.3 41.15 52 44.15 46.65 40.35 50.55
M 24.45 43.75
Q 23.4 44.65 22.1 44.45
L 21.25 42.25
Q 20.45 45.35 22.95 47.35 26.25 45.4 26.7 41.7
L 24.45 43.75 Z"/>

<path fill="#2A2626" stroke="none" d="
M 67.85 15.8
Q 67.6 16.3 68.2 16.85
L 68.85 17.45 69.45 17.9
Q 70.2 18.5 70.9 18.1
L 71.1 18.05
Q 71.7 17.6 72.55 15.95
L 73.6 13.1 73.6 13
Q 69.3 13.9 67.85 15.8
M 50.3 14.4
L 46.55 13.75
Q 42.05 13.25 44.3 15.35 47.9 18.55 50.15 19.8 52.3 21.05 53.7 21.15 55.05 21.25 57.5 19.8
L 59.15 18.55
Q 59.8 17.85 59.6 17.3
L 59.5 17.15
Q 59.2 16.8 58.1 16.4 55.85 15.55 50.3 14.4 Z"/>

<path fill="#807F75" stroke="none" d="
M 74.4 12.15
L 74.5 11.7
Q 74.25 12.25 72.2 12.9
L 68.8 13.85 66.8 14.05 65.95 13.85 65.8 13.7 65.75 13.7 65.5 13.55 65.5 13.9 66.05 14.75
Q 66.85 15.9 67.9 16.75
L 68.85 17.45 68.2 16.85
Q 67.6 16.3 67.85 15.8 69.3 13.9 73.6 13
L 73.6 13.1 73.65 13 73.65 12.95 74.4 12.15
M 64.15 13.75
Q 63.5 14.75 61.1 14.9 58.8 15.05 55 14.25
L 50.35 13.2
Q 45.65 12.05 39.6 10
L 46.55 13.75 50.3 14.4
Q 55.85 15.55 58.1 16.4 59.2 16.8 59.5 17.15
L 59.6 17.3
Q 59.8 17.85 59.15 18.55
L 59.85 18.25
Q 61 17.75 62.8 15.95 64.25 14.55 64.15 13.75 Z"/>

<path fill="#FFFAE9" stroke="none" d="
M 73.2 9.75
L 72.9 9.4 72.75 9.3 72.15 9
Q 69.25 7.6 65.7 6.75 63.8 6.3 59.2 5.35
L 38.65 1.6
Q 28.45 4.65 47.95 6.4
L 52.6 6.75
Q 68.6 7.55 71.1 8.8
L 73.2 9.75
M 35.85 19.65
Q 37.2 17.9 37.3 17.35 37.75 16.5 37.45 16.25 37.2 15.9 34 17.8 30.75 19.55 30.55 20.65 30.45 21.7 30.95 22
L 31.6 22.35
Q 31.9 22.45 33.2 21.9 34.5 21.45 35.85 19.65
M 42.1 29.3
L 43.5 26.7
Q 38.65 30.05 36.8 29.45 35 28.8 36.15 31.6 37.3 34.4 39.35 32.55 41.4 30.7 42.1 29.3
M 54.7 25.25
L 51.65 29.05
Q 48.95 32.2 46.8 32.3
L 45.95 32.15
Q 45.5 32 45.5 32.5
L 45.7 33.6
Q 46.4 35.25 47.65 35.2 48.95 35.1 49.8 34.1
L 50.8 33.1 51.55 31.95 54.7 25.25 Z"/>

<path fill="#EDE9D9" stroke="none" d="
M 72.9 9.4
L 73.2 9.75 71.1 8.8
Q 68.6 7.55 52.6 6.75
L 47.95 6.4
Q 28.45 4.65 38.65 1.6
L 36.5 1.4
Q 34.45 1.15 33.1 1.4
L 32.85 1.45
Q 28.55 4.15 26 13.3 23.5 22.45 23.05 25.05 22.5 27.65 22.5 28.7
L 22.5 29.7 22.55 29.95 22.55 30.2
Q 22.8 31.5 23.8 31.6 24.45 31.65 25.3 31.35 27.05 30.7 26.75 32.85 26.55 34.35 26.85 35.25 27.25 36.05 28.8 34.25 30.4 32.35 30.7 34.6
L 31.05 38.45
Q 31.1 39.75 31.75 41.8 32.25 43.7 33.5 43.6 34.8 43.55 36.2 42.25 37.65 41 39.3 38.95 40.9 36.9 41.45 38.3
L 41.65 41.55
Q 42.45 45.95 42.95 45.9 43.5 45.8 44.15 44.9 44.9 44.05 45.8 43.45 46.75 42.8 47 43.2 47.35 43.65 47.4 44.2 47.45 44.8 47.45 48.25 47.4 51.65 48.8 51 50.5 50.25 52.1 46.7
L 54.2 41.5 53.4 41.55
Q 52.05 41.65 51.45 41.2 50.85 40.75 50.65 39.65
L 50.65 39.55 50.8 38.4
Q 50.8 36.75 53.15 32.15 55.6 27.55 58.5 23.25 60.65 20.1 63.25 18.6
L 63.3 18.55 63.35 18.55
Q 64.05 18.2 65.1 18.1 66.25 18 70.4 20.7 71 21.05 71.5 21.4
L 73.8 22.7
Q 75.1 23.45 75.5 23.55 76.45 23.75 76.8 23.25 77.1 22.65 76.7 21.35
L 74.75 15.45 73.8 13.45
Q 74.35 15.9 73.2 17.9 72.1 19.85 70.85 19.9 69.65 19.85 68.15 18.05
L 66.8 16.45
Q 65.75 15.35 64.6 15.65
L 64.1 15.8 63.65 16.15 63.65 16.2 61.1 19.1
Q 58.35 22.65 55.4 22.9 53.55 23.05 46.45 18.7 39.4 14.3 41.15 13.8 43 13.3 37.65 10.3
L 34.6 8.5
Q 33.85 8 34.5 7.9
L 34.65 7.9
Q 35.8 7.95 42.45 9.95
L 56.05 13.4
Q 60 14.1 61.25 13.9 62.55 13.65 63.8 12.65 64.8 11.75 64.95 10.8
L 65.05 9.4
Q 66.65 10.4 66.4 12.45
L 67.15 12.6 68.95 12.75
Q 70.4 12.6 71.85 12.1 73.85 11.4 73.75 10.5 73.65 10.2 73.35 9.8
L 73.05 9.5 72.9 9.4
M 51.65 29.05
L 54.7 25.25 51.55 31.95 50.8 33.1 49.8 34.1
Q 48.95 35.1 47.65 35.2 46.4 35.25 45.7 33.6
L 45.5 32.5
Q 45.5 32 45.95 32.15
L 46.8 32.3
Q 48.95 32.2 51.65 29.05
M 43.5 26.7
L 42.1 29.3
Q 41.4 30.7 39.35 32.55 37.3 34.4 36.15 31.6 35 28.8 36.8 29.45 38.65 30.05 43.5 26.7
M 45.05 27.9
L 44.8 29.05
Q 43.05 38.7 48.7 36.5
L 49.2 36.15
Q 44.6 42.7 43.35 37.75 42.15 32.65 45.05 27.9
M 27.7 24.25
Q 28.45 18.6 29.65 22.4 30.8 26.15 35.35 21.75 34.4 24.95 30.65 27.4 26.9 29.85 27.7 24.25
M 37.3 17.35
Q 37.2 17.9 35.85 19.65 34.5 21.45 33.2 21.9 31.9 22.45 31.6 22.35
L 30.95 22
Q 30.45 21.7 30.55 20.65 30.75 19.55 34 17.8 37.2 15.9 37.45 16.25 37.75 16.5 37.3 17.35
M 35.45 37
Q 34.45 35.2 35.2 33.2 37.45 37.35 42.4 30.3 39.65 38.25 35.8 37.3
L 35.45 37 Z"/>
</g>

<g id="_______238_0_Layer0_3_FILL">
<path fill="#BD8519" stroke="none" d="
M 84.75 36.25
Q 84.7 34.85 84.6 33.3 84.15 28.15 79.6 25.35
L 70.85 20 68.15 18.75
Q 65.15 17.4 63.2 19 61.2 20.6 60.1 22.1
L 57.6 25.6
Q 56.35 27.6 54.9 30.2 51 37.85 51.15 39.65 51.3 41.45 52.65 42
L 57.5 42.15 65.9 41.7
Q 70.8 41.65 73.95 42.55 77.1 43.35 78.55 44.15 79.95 44.9 80.9 45.8 81.85 46.7 82.5 46.7 83.05 46.65 83.45 46.05 83.8 45.4 84.4 41.95 84.85 39.5 84.75 36.25 Z"/>
</g>

<g id="_______238_0_Layer0_4_FILL">
<path fill="#E5AD1F" stroke="none" d="
M 63.6 19.35
Q 62.4 20.15 60.9 21.8
L 59.25 24.05 59.25 24.1 57.55 26.7 52.85 36.25
Q 52.05 38.2 52.15 38.95
L 52.15 39.1 52.45 39.9
Q 52.9 41 54.05 41.2
L 54.4 41.2 54.5 41.25 66.7 40.75 71.9 41.3 72 41.3
Q 73.4 41.55 74.85 41.95 76.3 42.3 77.8 42.85 79.35 43.3 80.25 44.15
L 81 44.65 80.8 44.45 79.7 42.85 77.75 40.7
Q 72 34.4 62 28.65
L 62.45 28.85
Q 59.55 27.45 59.5 26.75 59.4 25.85 60.55 23.65
L 61.4 22.35
Q 62.8 20.15 63.9 19.25
L 63.6 19.35
M 55.65 35.4
Q 56.5 33.5 57.2 32.4 57.95 31.1 63.35 33.55 67.85 35.6 70.3 37.5
L 70.45 37.65
Q 75.85 41.6 70.35 40.1
L 68 39.95
Q 65.5 39.8 62.2 39.8
L 58.2 39.8 58 39.85 56.8 39.8 56.35 39.7 55.6 39.45 55.55 39.4 55.2 38.95 55 38.45 55.05 37.65 55.1 37.35 55.65 35.4 Z"/>

<path fill="#D0931C" stroke="none" d="
M 57.2 32.4
Q 56.5 33.5 55.65 35.4
L 55.1 37.35 55.05 37.65 55 38.45 55.2 38.95 55.55 39.4 55.6 39.45 56.35 39.7 56.8 39.8 58 39.85 58.2 39.8 62.2 39.8
Q 65.5 39.8 68 39.95
L 70.35 40.1
Q 75.85 41.6 70.45 37.65
L 70.3 37.5
Q 67.85 35.6 63.35 33.55 57.95 31.1 57.2 32.4 Z"/>

<path fill="#FFCC24" stroke="none" d="
M 83.6 33.2
Q 83.15 29.9 81.35 27.9
L 78.3 25.5
Q 77.4 24.9 76.3 24.2
L 70.15 20.55 67.85 19.45 67.65 19.45 67.6 19.4 66.6 19.05 66.5 19 65.3 18.8 64.45 19 63.9 19.25
Q 62.8 20.15 61.4 22.35
L 60.55 23.65
Q 59.4 25.85 59.5 26.75 59.55 27.45 62.45 28.85
L 62 28.65
Q 72 34.4 77.75 40.7
L 79.7 42.85 80.8 44.45 81 44.65
Q 82.1 45.95 82.85 43.75
L 83.2 42.65
Q 83.55 41.55 83.8 38.6 84 36.45 83.6 33.2
M 81.15 30.4
Q 81.7 31.75 81.85 33 82.15 34.2 82.1 37.45
L 82.1 40.55 81.45 37.85
Q 80.7 35.2 77.05 31.15 73.4 27.05 66.95 22.6 67.55 21.2 70 22.4 76.25 25.35 76.6 25.6
L 78.4 26.8 79.6 28.05
Q 80.55 29.05 81.15 30.4 Z"/>

<path fill="#FFEA08" stroke="none" d="
M 81.85 33
Q 81.7 31.75 81.15 30.4 80.55 29.05 79.6 28.05
L 78.4 26.8 76.6 25.6
Q 76.25 25.35 70 22.4 67.55 21.2 66.95 22.6 73.4 27.05 77.05 31.15 80.7 35.2 81.45 37.85
L 82.1 40.55 82.1 37.45
Q 82.15 34.2 81.85 33 Z"/>
</g>

<g id="_______1_0_Layer0_0_FILL">
<path fill="#930F0F" stroke="none" d="
M 1.1 3.75
Q 0.65 3.6 0.25 3.4 -0.15 4.2 0.05 5.15 0.15 5.85 0.45 6.4 0.85 7.1 1.5 7.55 2.75 8.5 4.3 8.35 5.85 8.25 6.85 7.1 6.05 7.95 4.75 8.05 3.35 8.15 2.25 7.3
L 2.15 7.25
Q 1.15 6.45 1.05 5.2 0.8 4.4 1.1 3.75
M 5.55 2.45
Q 6.1 2.6 6.45 2.9 7.15 3.35 7.35 4
L 7.55 4.8 7.6 4.8 7.4 3.8
Q 7.15 3 6.55 2.35
L 4 1.75 3.8 1.75
Q 2.45 1.85 1.55 2.85
L 1.1 3.75 2.35 4.15
Q 2.45 3.65 2.8 3.25 3.4 2.45 4.55 2.35
L 5.55 2.45
M 21.85 4.4
L 21.45 4.4
Q 20.75 4.4 20.15 3.9
L 19.45 3 18.9 3.1
Q 19.1 3.65 19.65 4.05 20.3 4.65 21.15 4.65
L 21.55 4.65
Q 22.6 4.55 23.3 3.75 22.7 4.35 21.85 4.4
M 23.35 0.95
L 23.3 0.9
Q 23.15 0.55 22.8 0.3 22.5 0.1 22.3 0
L 21.9 0.1 21.85 0.1
Q 20.5 0.55 19.5 1.2
L 19.3 1.9 19.3 2.45 19.45 3 20.3 2.7 20.2 2.45 20.2 2.35
Q 20.1 1.65 20.55 1.1 21 0.6 21.75 0.55 22.45 0.45 23.05 0.85
L 23.3 1.1 23.3 1 23.6 1.45
Q 23.55 1.2 23.35 0.95 Z"/>

<path fill="#5F0909" stroke="none" d="
M 3.8 1.75
L 4 1.75 2.45 1.4
Q 1.45 1.65 0.75 2.45 0.35 2.9 0.25 3.4 0.65 3.6 1.1 3.75
L 1.55 2.85
Q 2.45 1.85 3.8 1.75
M 19.3 1.9
L 19.5 1.2 18.65 1.8 18.65 2.4 18.9 3.1 19.45 3 19.3 2.45 19.3 1.9 Z"/>

<path fill="#B81414" stroke="none" d="
M 7.6 4.8
L 7.55 4.8
Q 7.6 5.75 7 6.4
L 6.95 6.5
Q 6.3 7.2 5.3 7.3 4.2 7.4 3.35 6.75
L 2.9 6.4
Q 2.45 5.85 2.35 5.1
L 2.35 4.15 1.1 3.75
Q 0.8 4.4 1.05 5.2 1.15 6.45 2.15 7.25
L 2.25 7.3
Q 3.35 8.15 4.75 8.05 6.05 7.95 6.85 7.1
L 6.9 6.95 7.1 6.7
Q 7.6 5.9 7.6 4.8
M 23.3 1
L 23.3 1.1 23.65 1.7 23.7 2.05
Q 23.85 2.75 23.4 3.3
L 23.35 3.3
Q 23.1 3.7 22.7 3.8
L 21.9 3.95
Q 21.35 3.9 20.9 3.5 20.45 3.2 20.3 2.7
L 19.45 3 20.15 3.9
Q 20.75 4.4 21.45 4.4
L 21.85 4.4
Q 22.7 4.35 23.3 3.75
L 23.3 3.65
Q 23.9 2.9 23.8 1.9
L 23.6 1.45 23.3 1 Z"/>

<path fill="#FFF024" stroke="none" d="
M 6.35 6
L 6.35 5.9
Q 6.8 5.45 6.8 4.9
L 4.1 4.65 3.05 4.35 3.1 5 3.35 5.8 3.7 6.15
Q 4.4 6.65 5.2 6.55 5.85 6.5 6.35 6
M 23.05 2.95
Q 23.3 2.6 23.25 2.1
L 23.2 1.85 23.1 1.65 22.95 1.45 20.7 2.55 21.2 3.1 21.95 3.4 22.25 3.4
Q 22.65 3.3 23 3
L 23.05 2.95 Z"/>

<path fill="#FABD22" stroke="none" d="
M 6.65 4.25
Q 6.5 3.75 6.05 3.4 5.6 3.1 5.2 3.05
L 4.7 3.05
Q 3.85 3.1 3.35 3.65
L 3.05 4.35 4.1 4.65 6.8 4.9 6.65 4.25
M 22.95 1.45
L 22.8 1.25
Q 22.3 0.9 21.8 0.95 21.25 1 21 1.4 20.65 1.85 20.7 2.3
L 20.7 2.55 22.95 1.45 Z"/>

<path fill="#EEB421" stroke="none" d="
M 7.55 4.8
L 7.45 4.85 6.8 4.9
Q 6.8 5.45 6.35 5.9
L 6.35 6
Q 5.85 6.5 5.2 6.55 4.4 6.65 3.7 6.15
L 3.35 5.8 3.1 5 3.05 4.35 2.35 4.15 2.35 5.1
Q 2.45 5.85 2.9 6.4
L 3.35 6.75
Q 4.2 7.4 5.3 7.3 6.3 7.2 6.95 6.5
L 7 6.4
Q 7.6 5.75 7.55 4.8
M 23.3 1.1
L 22.95 1.45 23.1 1.65 23.2 1.85 23.25 2.1
Q 23.3 2.6 23.05 2.95
L 23 3
Q 22.65 3.3 22.25 3.4
L 21.95 3.4 21.2 3.1 20.7 2.55 20.55 2.65 20.3 2.7
Q 20.45 3.2 20.9 3.5 21.35 3.9 21.9 3.95
L 22.7 3.8
Q 23.1 3.7 23.35 3.3
L 23.4 3.3
Q 23.85 2.75 23.7 2.05
L 23.65 1.7 23.3 1.1 Z"/>

<path fill="#D99207" stroke="none" d="
M 6.45 2.9
Q 6.1 2.6 5.55 2.45
L 4.55 2.35
Q 3.4 2.45 2.8 3.25 2.45 3.65 2.35 4.15
L 3.05 4.35 3.35 3.65
Q 3.85 3.1 4.7 3.05
L 5.2 3.05
Q 5.6 3.1 6.05 3.4 6.5 3.75 6.65 4.25
L 6.8 4.9 7.45 4.85 7.55 4.8 7.35 4
Q 7.15 3.35 6.45 2.9
M 23.3 1.1
L 23.05 0.85
Q 22.45 0.45 21.75 0.55 21 0.6 20.55 1.1 20.1 1.65 20.2 2.35
L 20.2 2.45 20.3 2.7 20.55 2.65 20.7 2.55 20.7 2.3
Q 20.65 1.85 21 1.4 21.25 1 21.8 0.95 22.3 0.9 22.8 1.25
L 22.95 1.45 23.3 1.1 Z"/>
</g>
</defs>

<g transform="matrix( 1, 0, 0, 1, 0,0) ">
<g transform="matrix( 1, 0, 0, 1, 0,0) ">
<use xlink:href="#_______238_0_Layer1_0_FILL"/>
</g>

<g transform="matrix( 1, 0, 0, 1, 0,0) ">
<use xlink:href="#_______238_0_Layer1_1_FILL"/>
</g>

<g transform="matrix( 1, 0, 0, 1, 0,0) ">
<use xlink:href="#_______238_0_Layer1_2_FILL"/>
</g>

<g transform="matrix( 1, 0, 0, 1, 0,0) ">
<use xlink:href="#_______238_0_Layer1_3_FILL"/>
</g>

<g transform="matrix( 1, 0, 0, 1, 0,0) ">
<use xlink:href="#_______238_0_Layer1_4_FILL"/>
</g>

<g transform="matrix( 1, 0, 0, 1, 0,0) ">
<use xlink:href="#_______238_0_Layer1_5_FILL"/>
</g>

<g transform="matrix( 1, 0, 0, 1, 0,0) ">
<use xlink:href="#_______238_0_Layer0_0_FILL"/>
</g>

<g transform="matrix( 1, 0, 0, 1, 0,0) ">
<use xlink:href="#_______238_0_Layer0_1_FILL"/>
</g>

<g transform="matrix( 1, 0, 0, 1, 0,0) ">
<use xlink:href="#_______238_0_Layer0_2_FILL"/>
</g>

<g transform="matrix( 1, 0, 0, 1, 0,0) ">
<use xlink:href="#_______238_0_Layer0_3_FILL"/>
</g>

<g transform="matrix( 1, 0, 0, 1, 0,0) ">
<use xlink:href="#_______238_0_Layer0_4_FILL"/>
</g>

<g transform="matrix( 1, 0, 0, 1, 49.8,13.45) ">
<g transform="matrix( 1, 0, 0, 1, 0,0) ">
<use xlink:href="#_______1_0_Layer0_0_FILL"/>
</g>
</g>
</g>
</svg>
