
<svg xmlns="http://www.w3.org/2000/svg" version="1.1" xmlns:xlink="http://www.w3.org/1999/xlink" preserveAspectRatio="none" x="0px" y="0px" width="80px" height="77px" viewBox="0 0 80 77">
<defs>
<g id="_______246_0_Layer1_0_FILL">
<path fill="#071D33" stroke="none" d="
M 70.95 18.65
L 71.35 20.7
Q 72.13203125 20.7646484375 72.8 20.85
L 72.85 20.85
Q 74.2609375 20.99453125 75.6 21.35
L 75.6 21.35
Q 76.5169921875 21.6880859375 76.8 22.9 76.8044921875 23.0283203125 76.7 23.15
L 76.55 23.45
Q 76.5564453125 23.4982421875 76.55 23.5 75.9037109375 24.321484375 75.4 25.2
L 75.25 25.55 75.3 25.9
Q 75.4193359375 26.343359375 75.5 26.75 75.8404296875 27.9798828125 76.25 28.85
L 76.2 28.85 76.95 30.5 77 30.55
Q 77.8447265625 31.970703125 77.2 33.45 74.55546875 35.7857421875 64.75 33.25 59.7427734375 31.94453125 52.9 29.35 49.0544921875 27.902734375 45.7 26.75 37.501953125 23.9107421875 32.35 23 32.2732421875 22.991796875 32.15 22.95 31.1201171875 22.795703125 30.2 22.7
L 30 22.65 29.8 22.75
Q 29.4484375 22.85 29.1 22.95
L 28.75 23.05 25.3 28.85 25.2 29.1 25.2 29.4 25.15 29.45 25.25 31.8 25.6 32.05
Q 28.2365234375 34.2421875 34.7 38.8
L 34.75 38.85 34.8 38.85
Q 37.6154296875 40.517578125 41.15 41.8 44.80703125 43.11484375 49.2 44.1 51.7603515625 44.726171875 54.6 45.15
L 54.65 45.2 54.7 45.2
Q 56.2748046875 45.25 57.6 45.3
L 59 45.4 59.1 45.4
Q 60.235546875 45.44921875 61.2 45.5 62.6109375 45.6 63.65 45.7
L 63.85 45.7
Q 64 45.7 64.05 45.7
L 64.05 45.7
Q 66.828515625 45.6591796875 68.7 46.35
L 69 46.5 69 46.5 69.05 46.5
Q 69.6419921875 46.774609375 70.15 47.15
L 70.25 47.25 70.4 47.3
Q 71.0875 47.5384765625 71.75 47.8
L 73.15 46.9
Q 73.0837890625 46.9673828125 73 47 72.0912109375 48.0009765625 72.7 47.7
L 72.85 47.6 72.95 47.5
Q 72.99375 47.4802734375 73 47.45 72.981640625 48.9609375 73.5 50.5
L 73.5 50.55 73.55 50.65
Q 73.57421875 50.7009765625 73.6 50.75
L 73.6 50.85 73.7 50.95
Q 73.8248046875 51.190625 73.95 51.45
L 73.95 51.45 74 51.5
Q 74.1248046875 51.740625 74.25 52 74.32109375 52.136328125 74.4 52.25 74.075 52.4103515625 73.75 52.55
L 73.8 52.55
Q 68.146875 55.32109375 68.3 64.75
L 68.3 64.75
Q 68.298828125 65.8115234375 68.4 66.95 68.4005859375 67.573046875 68.45 68.2 68.2533203125 70.6228515625 68.7 72.95
L 68.7 73
Q 68.4474609375 73.0380859375 67.85 72.85
L 67.4 72.65 67.4 72.65
Q 53.0927734375 67.30546875 46.1 55.6
L 45.9 55.25 45.55 55.15
Q 32.636328125 50.67265625 26.45 41.2
L 26.3 41.05
Q 25.3791015625 40.0958984375 24.6 38.3 23.7478515625 36.3150390625 23.4 35.2
L 23.4 35.15 23.35 35.15
Q 23.26484375 34.850390625 23.2 34.6
L 23 33.5 21.9 33.85
Q 20.9466796875 34.182421875 19.85 34.35
L 19.85 34.35
Q 17.4517578125 34.8654296875 16.1 33.1
L 16.05 32.85 16 32.8 16 32.75
Q 15.905078125 32.562890625 15.75 32.35 15.6759765625 32.1431640625 15.5 31.9 14.6732421875 29.6134765625 14.25 26.5
L 14.15 25.9 13.6 25.7
Q 11.8865234375 24.96953125 10.3 26.35
L 10.2 26.4 10.1 26.55
Q 9.3369140625 27.692578125 8.35 28.75 8.2873046875 28.6251953125 7.4 28
L 7.45 28.05
Q 5.9236328125 26.8244140625 3.75 25.55
L 3.85 25.65
Q 3.567578125 25.44765625 3.4 25.5
L 3.6 25.25
Q 4.1947265625 24.719921875 4.8 24 7.448046875 21.56953125 10.1 21.55
L 10.8 21.65 10.9 21.7
Q 14.16328125 22.2083984375 16.2 25.4
L 16.2 25.4
Q 18.0900390625 28.43203125 22.85 27.45
L 23.35 27.35 23.55 26.85
Q 23.5998046875 26.812109375 23.6 26.75 24.5466796875 24.3513671875 24.2 22.8
L 24.2 22.75
Q 23.9287109375 21.4537109375 22.85 20.75 21.9640625 20.202734375 20.55 20.05
L 20.5 20.05
Q 19.389453125 19.9595703125 18.75 19.2 18.7310546875 19.128515625 18.65 19 18.02890625 17.626953125 18.6 14.7
L 18.6 14.75
Q 19.6748046875 10.59453125 18.25 7.1 18.288671875 6.9802734375 18.25 6.9
L 18.3 6.9 18.6 6.8
Q 21.7796875 7.675390625 23.5 9.7 24.1904296875 10.5083984375 24.65 11.5 24.7736328125 14.21328125 24.35 17.1
L 24.35 17.2
Q 24.2115234375 19.6818359375 26.15 20.35 26.5794921875 20.6158203125 27.15 20.7 27.6236328125 20.765234375 28 20.95
L 29.4 21.7 29.45 20.45 27.6 18.65 27.6 18.7
Q 27.5279296875 18.7126953125 27.45 18.7
L 27.4 18.7
Q 27.3359375 18.695703125 27.25 18.65
L 26.95 18.5
Q 26.3681640625 18.251953125 26.35 17.5 26.348828125 17.451171875 26.35 17.4 26.81015625 14.1966796875 26.65 11.2
L 26.65 11 26.55 10.85
Q 26.3185546875 10.2484375 26 9.7 23.862890625 6.065234375 18.85 4.75
L 18.55 4.7 17.65 5 17.7 4.95
Q 16.6048828125 5.110546875 16.25 7.05
L 16.2 7.35 16.3 7.65
Q 17.5876953125 10.6537109375 16.65 14.25
L 16.65 14.3
Q 15.88359375 18.2119140625 16.9 20
L 17 20.15 17 20.15 17 20.2
Q 18.11171875 21.8484375 20.35 22.05 21.9205078125 22.219921875 22.25 23.25
L 22.25 23.15
Q 22.4203125 24.1451171875 21.9 25.6 19.0947265625 26.009765625 17.85 24.3
L 17.9 24.3
Q 15.33671875 20.29140625 11.2 19.7
L 11.25 19.7 10.25 19.55 10.2 19.55
Q 6.762890625 19.456640625 3.35 22.6
L 3.3 22.65 3.3 22.7
Q 2.749609375 23.3271484375 2.2 23.75
L 2.05 23.9 1.6 24.5 1.55 24.6
Q 0.529296875 25.6822265625 2.65 27.25
L 2.7 27.25 2.75 27.3
Q 4.7763671875 28.475390625 6.2 29.6
L 6.25 29.65
Q 8.7890625 31.428125 9.7 30.25
L 9.8 30.15
Q 10.8373046875 29.025390625 11.65 27.75 12.0099609375 27.5298828125 12.35 27.5 12.8154296875 30.4763671875 13.65 32.75
L 13.75 32.95 13.9 33.1
Q 13.937109375 33.1376953125 13.95 33.15
L 14 33.35 14 33.35
Q 14.1138671875 33.4927734375 14.15 33.6
L 14.25 33.85 14.3 34 14.35 34.1
Q 16.4216796875 37.10859375 20.2 36.3
L 20.25 36.3
Q 20.928515625 36.20703125 21.55 36.05 21.942578125 37.1923828125 22.75 39.1 23.660546875 41.1634765625 24.75 42.3 31.1869140625 52.20859375 44.6 56.95 51.9138671875 68.9720703125 66.7 74.5
L 66.65 74.5 67.15 74.7 67.2 74.75 67.2 74.75
Q 69.0080078125 75.347265625 69.8 74.7 70.777734375 74.1451171875 70.75 73.15
L 70.65 72.55
Q 70.2607421875 70.4466796875 70.5 68.25
L 70.5 68
Q 70.405859375 67.425 70.4 66.85
L 70.4 66.75
Q 70.3021484375 65.7021484375 70.3 64.75
L 70.3 64.7
Q 70.160546875 56.773828125 74.7 54.35
L 74.7 54.3
Q 75.1955078125 54.0705078125 75.75 53.9
L 75.75 53.9 75.8 53.85
Q 76.075 53.775 76.3 53.65
L 77.6 53.15 76.7 52.1
Q 76.503515625 51.85 76.3 51.6 76.1669921875 51.35 76.05 51.1 75.8984375 50.8048828125 75.75 50.55 75.6115234375 50.2806640625 75.45 50.05 75.425390625 49.9099609375 75.35 49.8 74.6228515625 47.49296875 75.4 45.35
L 75.7 44.55 72.95 42.95 72.6 44.15
Q 72.346875 45.0421875 71.85 45.7 71.542578125 45.56875 71.2 45.45 70.60234375 45.0078125 69.9 44.7 69.8755859375 44.6861328125 69.85 44.65
L 69.45 44.45
Q 67.255859375 43.644140625 64.05 43.7
L 64 43.7
Q 63.9693359375 43.7 63.85 43.7 62.7890625 43.6 61.35 43.5
L 61.35 43.5
Q 60.3828125 43.4515625 59.25 43.4
L 56.65 43.15 56.65 43.25
Q 55.75234375 43.2314453125 54.75 43.2 52.0833984375 42.7603515625 49.65 42.15 45.39296875 41.18515625 41.85 39.9 38.533203125 38.6998046875 35.85 37.15 35.8388671875 37.1474609375 35.8 37.1 29.8630859375 32.937890625 27.2 30.8
L 27.15 29.65 30.1 24.7
Q 33.680078125 25.1142578125 39.2 26.75 44.7322265625 28.3736328125 52.2 31.2 59.15703125 33.8552734375 64.25 35.2 75.5482421875 38.1150390625 78.6 34.9 79.0642578125 34.5619140625 79.05 34.15 80.0240234375 31.825390625 78.75 29.65
L 78.05 28.05 78.05 28
Q 77.798046875 27.4662109375 77.55 26.75 77.4611328125 26.32734375 77.35 25.85 77.6970703125 25.261328125 78.1 24.7
L 78.15 24.7 78.5 24
Q 78.872265625 23.372265625 78.85 22.85
L 78.85 22.7 78.8 22.6
Q 78.2244140625 19.9884765625 76.15 19.45
L 76.15 19.4
Q 74.6388671875 19.0052734375 73.05 18.85 72.0767578125 18.734765625 70.95 18.65 Z"/>

<path fill="#12121C" stroke="none" d="
M 62 9.7
Q 62.123828125 10.3990234375 62.1 11.1
L 63 10.9 63.1 10.9 64 10.7
Q 63.748046875 10.2013671875 63.45 9.7 63.3025390625 9.3958984375 63.1 9.1 63.4119140625 9.3943359375 63.65 9.7 63.8837890625 9.9220703125 64.05 10.15 64.4470703125 10.594921875 64.8 11.05 67.6400390625 14.811328125 69.25 19.95
L 69.45 20.6 70.15 20.65
Q 70.788671875 20.671875 71.35 20.7
L 70.95 18.65
Q 70.9380859375 18.6755859375 70.9 18.65 69.2017578125 13.5064453125 66.25 9.7 65.5724609375 8.7859375 64.8 7.95 63.641015625 6.70078125 62.3 5.6
L 57.5 1.5 59 3.9
Q 54.41484375 0.083203125 48 -1.45
L 48.7 2
Q 44.15 1.034375 39.6 1.8
L 44.65 5.45
Q 41.288671875 3.9908203125 37.6 3.35
L 38 5.1 36.6 4.85 36.6 6.4 35.1 5.15
Q 33.52109375 7.308203125 32.35 9.7 32.107421875 10.2197265625 31.85 10.75
L 31.2 7.8 30.1 11.35 30.1 11.4 30.05 11.4
Q 29.672265625 12.1669921875 29.3 12.9 27.9578125 15.8640625 27.6 18.65
L 29.45 20.45 29.5 20.15
Q 29.573046875 18.3205078125 30.1 16.4 30.402734375 15.4849609375 30.8 14.5
L 31.3 14.65 31.3 14.65 32.3 14.85
Q 32.4080078125 14.00390625 32.25 12.9 32.257421875 12.691796875 32.2 12.45 32.902734375 10.985546875 33.7 9.7 34.008984375 9.2763671875 34.3 8.85 34.2447265625 9.2703125 34.2 9.7 34.1642578125 10.2357421875 34.15 10.8
L 34.15 10.95
Q 34.271484375 10.7306640625 34.4 10.5 34.6595703125 10.101953125 34.9 9.7 35.089453125 9.4716796875 35.25 9.25 35.2259765625 9.4697265625 35.2 9.7 35.1634765625 10.245703125 35.15 10.85
L 36.2 8.05
Q 36.2548828125 8.0365234375 36.3 8 36.2505859375 8.1146484375 36.2 8.2
L 36.85 8.2 37.1 8.65
Q 37.4822265625 7.821875 37.55 6.9 38.05234375 7.0953125 38.5 7.3 38.5947265625 6.7791015625 38.55 6.2 39.0853515625 6.437109375 39.55 6.65 41.0326171875 8.01796875 42.15 9.55
L 42.85 8.9
Q 42.91640625 8.9201171875 42.95 8.95 42.92109375 8.9103515625 42.9 8.85
L 43.6 8.2
Q 42.5810546875 7.2693359375 41.35 6.5 42.09453125 6.8056640625 42.8 7.1 42.0068359375 6.203515625 41.1 5.35 44.3634765625 6.537109375 47.5 8.65 47.9232421875 9.1716796875 48.3 9.7 48.759765625 10.3451171875 49.15 11
L 49.85 10.35
Q 49.929296875 10.44296875 50 10.5 49.954296875 10.42265625 49.9 10.35
L 50.6 9.7 50.6 9.7
Q 49.394921875 8.732421875 48.15 7.9 46.3412109375 5.662890625 43.65 3.5 44.5453125 3.560546875 45.4 3.65 44.746484375 3.104296875 44.05 2.55 46.640234375 2.655078125 49.15 3.5 49.3353515625 3.96328125 49.5 4.4
L 50.05 3.85
Q 50.263671875 3.9220703125 50.45 4 50.3669921875 3.809375 50.3 3.6
L 50.8 3.05
Q 50.4068359375 2.9001953125 50 2.75 49.7359375 1.90625 49.6 1.05 50.17421875 1.21953125 50.7 1.4 50.6005859375 0.863671875 50.55 0.3 57.8443359375 2.7318359375 61.7 8.65 61.9013671875 9.187109375 62 9.7
M 49.55 0
Q 49.8962890625 0.100390625 50.25 0.2
L 49.6 0.7
Q 49.5587890625 0.360546875 49.55 0
M 38.65 4.6
Q 38.745703125 4.6244140625 38.85 4.65
L 38.8 4.7
Q 38.731640625 4.6625 38.65 4.6
M 37.55 5.85
Q 37.8572265625 5.9541015625 38.15 6.05
L 37.55 6.5
Q 37.583984375 6.188671875 37.55 5.85
M 36.65 7.85
L 36.55 7.85
Q 36.5740234375 7.7810546875 36.6 7.7
L 36.65 7.85 Z"/>

<path fill="#00528A" stroke="none" d="
M 36.55 7.85
L 36.65 7.85 36.6 7.7
Q 36.5740234375 7.7810546875 36.55 7.85
M 38.15 6.05
Q 37.8572265625 5.9541015625 37.55 5.85 37.583984375 6.188671875 37.55 6.5
L 38.15 6.05
M 38.85 4.65
Q 38.745703125 4.6244140625 38.65 4.6 38.731640625 4.6625 38.8 4.7
L 38.85 4.65
M 50.25 0.2
Q 49.8962890625 0.100390625 49.55 0 49.5587890625 0.360546875 49.6 0.7
L 50.25 0.2
M 62.1 11.1
Q 62.123828125 10.3990234375 62 9.7 61.9013671875 9.187109375 61.7 8.65 57.8443359375 2.7318359375 50.55 0.3 50.6005859375 0.863671875 50.7 1.4 50.17421875 1.21953125 49.6 1.05 49.7359375 1.90625 50 2.75 50.4068359375 2.9001953125 50.8 3.05
L 50.3 3.6
Q 50.3669921875 3.809375 50.45 4 50.263671875 3.9220703125 50.05 3.85
L 49.5 4.4
Q 49.3353515625 3.96328125 49.15 3.5 46.640234375 2.655078125 44.05 2.55 44.746484375 3.104296875 45.4 3.65 44.5453125 3.560546875 43.65 3.5 46.3412109375 5.662890625 48.15 7.9 49.394921875 8.732421875 50.6 9.7
L 50.6 9.7 49.9 10.35
Q 49.954296875 10.42265625 50 10.5 49.929296875 10.44296875 49.85 10.35
L 49.15 11
Q 48.759765625 10.3451171875 48.3 9.7 47.9232421875 9.1716796875 47.5 8.65 44.3634765625 6.537109375 41.1 5.35 42.0068359375 6.203515625 42.8 7.1 42.09453125 6.8056640625 41.35 6.5 42.5810546875 7.2693359375 43.6 8.2
L 42.9 8.85
Q 42.92109375 8.9103515625 42.95 8.95 42.91640625 8.9201171875 42.85 8.9
L 42.15 9.55
Q 41.0326171875 8.01796875 39.55 6.65 39.0853515625 6.437109375 38.55 6.2 38.5947265625 6.7791015625 38.5 7.3 38.05234375 7.0953125 37.55 6.9 37.4822265625 7.821875 37.1 8.65
L 36.85 8.2 36.2 8.2
Q 36.2505859375 8.1146484375 36.3 8 36.2548828125 8.0365234375 36.2 8.05
L 35.15 10.85
Q 35.1634765625 10.245703125 35.2 9.7 35.2259765625 9.4697265625 35.25 9.25 35.089453125 9.4716796875 34.9 9.7 34.6595703125 10.101953125 34.4 10.5 34.271484375 10.7306640625 34.15 10.95
L 34.15 10.8
Q 34.1642578125 10.2357421875 34.2 9.7 34.2447265625 9.2703125 34.3 8.85 34.008984375 9.2763671875 33.7 9.7 32.902734375 10.985546875 32.2 12.45 32.257421875 12.691796875 32.25 12.9 32.4080078125 14.00390625 32.3 14.85
L 31.3 14.65
Q 31.317578125 14.6998046875 31.3 14.75 31.3060546875 14.698828125 31.3 14.65
L 30.8 14.5
Q 30.402734375 15.4849609375 30.1 16.4 29.573046875 18.3205078125 29.5 20.15
L 29.45 20.45 29.4 21.7 28 20.95
Q 27.6236328125 20.765234375 27.15 20.7 26.5794921875 20.6158203125 26.15 20.35 24.2115234375 19.6818359375 24.35 17.2
L 24.35 17.1
Q 24.7736328125 14.21328125 24.65 11.5 24.1904296875 10.5083984375 23.5 9.7 21.7796875 7.675390625 18.6 6.8
L 18.3 6.9 18.25 6.9
Q 18.288671875 6.9802734375 18.25 7.1 19.6748046875 10.59453125 18.6 14.75
L 18.6 14.7
Q 18.02890625 17.626953125 18.65 19 18.7310546875 19.128515625 18.75 19.2 19.389453125 19.9595703125 20.5 20.05
L 20.55 20.05
Q 21.9640625 20.202734375 22.85 20.75 23.9287109375 21.4537109375 24.2 22.75
L 24.2 22.8
Q 24.5466796875 24.3513671875 23.6 26.75 23.5998046875 26.812109375 23.55 26.85
L 23.35 27.35 22.85 27.45
Q 18.0900390625 28.43203125 16.2 25.4
L 16.2 25.4
Q 14.16328125 22.2083984375 10.9 21.7
L 10.8 21.65 10.1 21.55
Q 7.448046875 21.56953125 4.8 24 4.1947265625 24.719921875 3.6 25.25
L 3.4 25.5
Q 3.567578125 25.44765625 3.85 25.65
L 3.75 25.55
Q 5.9236328125 26.8244140625 7.45 28.05
L 7.4 28
Q 8.2873046875 28.6251953125 8.35 28.75 9.3369140625 27.692578125 10.1 26.55
L 10.2 26.4 10.3 26.35
Q 11.8865234375 24.96953125 13.6 25.7
L 14.15 25.9 14.25 26.5
Q 14.6732421875 29.6134765625 15.5 31.9 15.6759765625 32.1431640625 15.75 32.35 15.905078125 32.562890625 16 32.75
L 16 32.8 16.05 32.85 16.1 33.1
Q 17.4517578125 34.8654296875 19.85 34.35
L 19.85 34.35
Q 20.9466796875 34.182421875 21.9 33.85
L 23 33.5 23.2 34.6
Q 23.26484375 34.850390625 23.35 35.15
L 23.4 35.15 23.4 35.2
Q 23.7478515625 36.3150390625 24.6 38.3 25.3791015625 40.0958984375 26.3 41.05
L 26.45 41.2
Q 32.636328125 50.67265625 45.55 55.15
L 45.9 55.25 46.1 55.6
Q 53.0927734375 67.30546875 67.4 72.65
L 67.4 72.65 67.85 72.85
Q 68.4474609375 73.0380859375 68.7 73
L 68.7 72.95
Q 68.2533203125 70.6228515625 68.45 68.2 68.4005859375 67.573046875 68.4 66.95 68.298828125 65.8115234375 68.3 64.75
L 68.3 64.75
Q 68.146875 55.32109375 73.8 52.55
L 73.75 52.55
Q 74.075 52.4103515625 74.4 52.25 74.32109375 52.136328125 74.25 52 74.1248046875 51.740625 74 51.5
L 73.95 51.45 73.95 51.45
Q 73.8248046875 51.190625 73.7 50.95
L 73.6 50.85 73.6 50.75
Q 73.57421875 50.7009765625 73.55 50.65
L 73.5 50.55 73.5 50.5
Q 72.981640625 48.9609375 73 47.45 72.99375 47.4802734375 72.95 47.5
L 72.85 47.6 72.7 47.7
Q 72.0912109375 48.0009765625 73 47 73.0837890625 46.9673828125 73.15 46.9
L 71.75 47.8
Q 71.0875 47.5384765625 70.4 47.3
L 70.25 47.25 70.15 47.15
Q 69.6419921875 46.774609375 69.05 46.5
L 69 46.5 69 46.5 68.7 46.35
Q 66.828515625 45.6591796875 64.05 45.7
L 64.05 45.7
Q 64 45.7 63.85 45.7
L 63.65 45.7
Q 62.6109375 45.6 61.2 45.5 60.235546875 45.44921875 59.1 45.4
L 59 45.4 57.6 45.3
Q 56.2748046875 45.25 54.7 45.2
L 54.65 45.2 54.6 45.15
Q 51.7603515625 44.726171875 49.2 44.1 44.80703125 43.11484375 41.15 41.8 37.6154296875 40.517578125 34.8 38.85
L 34.75 38.85 34.7 38.8
Q 28.2365234375 34.2421875 25.6 32.05
L 25.25 31.8 25.15 29.45 25.2 29.4 25.2 29.1 25.3 28.85 28.75 23.05 29.1 22.95
Q 29.4484375 22.85 29.8 22.75
L 30 22.65 30.2 22.7
Q 31.1201171875 22.795703125 32.15 22.95 32.2732421875 22.991796875 32.35 23 37.501953125 23.9107421875 45.7 26.75 49.0544921875 27.902734375 52.9 29.35 59.7427734375 31.94453125 64.75 33.25 74.55546875 35.7857421875 77.2 33.45 77.8447265625 31.970703125 77 30.55
L 76.95 30.5 76.2 28.85 76.25 28.85
Q 75.8404296875 27.9798828125 75.5 26.75 75.4193359375 26.343359375 75.3 25.9
L 75.25 25.55 75.4 25.2
Q 75.9037109375 24.321484375 76.55 23.5 76.5564453125 23.4982421875 76.55 23.45
L 76.7 23.15
Q 76.8044921875 23.0283203125 76.8 22.9 76.5169921875 21.6880859375 75.6 21.35
L 75.6 21.35
Q 74.2609375 20.99453125 72.85 20.85
L 72.8 20.85
Q 72.13203125 20.7646484375 71.35 20.7 70.788671875 20.671875 70.15 20.65
L 69.45 20.6 69.25 19.95
Q 67.6400390625 14.811328125 64.8 11.05 64.4470703125 10.594921875 64.05 10.15 63.8837890625 9.9220703125 63.65 9.7 63.4119140625 9.3943359375 63.1 9.1 63.3025390625 9.3958984375 63.45 9.7 63.748046875 10.2013671875 64 10.7
L 63.1 10.9
Q 63.105078125 11.026953125 63.1 11.15 63.0453125 11.03671875 63 10.9
L 62.1 11.1 Z"/>
</g>

<g id="_______243_0_Layer0_0_FILL">
<path fill="#0D3256" stroke="none" d="
M 1.85 17.65
L 0.8 18.45
Q 2.7 19.95 4.05 21.35 5.5 22.7 6.1 22.25 7.3 21.3 8.35 20.15 9.55 19.35 10.65 20 10.4 15 6.7 15.3 4 15.5 1.85 17.65
M 28.25 18
L 28.25 17.95
Q 25.6 17.75 23.55 18.55 22.8 18.85 22.1 19.3 22.1 19.2 22.1 19.1 22.4 16.1 20.1 14.75 15.65 13.55 17.8 8.15 19.3 4.6 18.75 0
L 18.15 0.15
Q 17.55 0.2 17.25 1.3 18.15 4.8 16.65 8.6 15.5 11.85 16.15 13.55 16.2 13.6 16.15 13.65 16.85 15.05 18.55 15.45 20.85 16 21.1 17.7 21.15 19.1 20 21.15 20.023828125 21.1380859375 20.05 21.1 20.123828125 21.0880859375 20.2 21.05 20.15 21.1 20.15 21.15 18.6 23.5 20.6 27.1
L 20.1 27.3
Q 18.45 28.35 15.45 28.55 12.6 28.5 11.6 26.75
L 11.7 27.1
Q 13 29.75 16.25 29.5 18.85 29.35 21.25 28.6 22.15 27.35 22.9 26.4
L 23.1 24.45
Q 23.15 24.45 23.15 24.4
L 27.1 19.4 28.25 18
M 21.25 21.1
Q 21.3 21.05 21.35 20.95 21.5 20.75 21.65 20.55 21.9 20.25 22.25 20 22.85 19.45 23.7 19.15 24.75 18.8 26.1 18.8 25.7 19.25 25.3 19.75 24.3 20.9 23.35 22.3 22.4 23.65 21.55 25.2 20.45 23.3 21.25 21.1
M 22.65 25.2
L 22.35 26.25 21.9 26.45
Q 22.25 25.8 22.65 25.2 Z"/>

<path fill="#1D4C7B" stroke="none" d="
M 2 15.5
Q 1.3 16.1 0.65 16.55
L 0.1 17.05
Q -0.25 17.45 0.8 18.45
L 1.85 17.65
Q 4 15.5 6.7 15.3 10.4 15 10.65 20 10.7 23.35 11.25 25.9 11.35 26.05 11.3 26.15
L 11.4 26.25
Q 11.55 26.55 11.6 26.75 12.6 28.5 15.45 28.55 18.45 28.35 20.1 27.3 13.95 27.3 13.15 22.5 12.4 17.65 11.8 16.1 11.15 14.6 8.5 13.55 5.4 13.05 2 15.5
M 27.1 19.4
Q 27.7 19.3 28.35 19.2 28.35 18.55 28.25 18
L 27.1 19.4
M 28.25 17.95
Q 27.8 15.7 25.55 15 25.15 14.9 24.9 14.7
L 21.15 14.15
Q 23.2 15.8 23.55 18.5
L 23.55 18.55
Q 25.6 17.75 28.25 17.95
M 23.7 8.45
L 24.15 7.1
Q 22.65 3.65 19.8 1.8 20.15 4.9 19.15 7.7
L 23.7 8.45 Z"/>

<path fill="#173E64" stroke="none" d="
M 9.3 13.8
L 8.5 13.55
Q 11.15 14.6 11.8 16.1 12.4 17.65 13.15 22.5 13.95 27.3 20.1 27.3
L 20.6 27.1
Q 18.6 23.5 20.15 21.15 20.08984375 21.119921875 20.05 21.1 20.023828125 21.1380859375 20 21.15 15.95 21.4 14.7 18.7 12.85 14.85 9.3 13.8
M 22.35 26.25
L 22.65 25.2
Q 22.25 25.8 21.9 26.45
L 22.35 26.25
M 21.35 20.95
Q 21.3 21.05 21.25 21.1 20.45 23.3 21.55 25.2 22.4 23.65 23.35 22.3 24.3 20.9 25.3 19.75 25.7 19.25 26.1 18.8 24.75 18.8 23.7 19.15 22.85 19.45 22.25 20 21.9 20.25 21.65 20.55 21.5 20.75 21.35 20.95
M 23.9 12.3
Q 24.75 9.3 25.05 6.4 23.8 2.05 18.75 0 19.3 4.6 17.8 8.15 15.65 13.55 20.1 14.75 22.4 16.1 22.1 19.1 22.1 19.2 22.1 19.3 22.8 18.85 23.55 18.55
L 23.55 18.5
Q 23.2 15.8 21.15 14.15
L 24.9 14.7
Q 23.55 14.05 23.9 12.3
M 24.15 7.1
L 23.7 8.45 19.15 7.7
Q 20.15 4.9 19.8 1.8 22.65 3.65 24.15 7.1 Z"/>
</g>

<g id="_______242_0_Layer0_0_FILL">
<path fill="#0D3256" stroke="none" d="
M 1.55 22.4
Q -0.15 22.65 0.9 21.3 -0.55 22.15 0.3 23.9 5.75 22.1 27.15 30.3 34.05 32.9 39.1 34.25 49.65 36.95 52.5 34.2 49.4 36.05 39.45 33.4 34.3 31.95 27.4 29.3 7.75 21.75 1.55 22.4
M 3.1 20.95
Q 3.1 20.9 3.1 20.85 3 20.9 2.9 20.95 3 20.95 3.1 20.95
M 3.6 20.55
Q 3.5 20.8 3.2 20.95 7.8 20.9 16.7 22.8 7.5 19 4 20.2
L 3.6 20.55
M 6.45 18
L 6.45 18.05
Q 10 16.8 14.9 16.6 13.25 16.1 10.8 16.1 10.35 16.2 9.95 16.3 9 16.55 8.1 16.8
L 7.75 16.95
Q 6.65 17.45 6.45 18
M 52.2 23.65
Q 52.45 23.2 52.45 22.85 51.9 23.9 50.25 24.55 48.25 25.35 47.45 26.85 51.45 28.4 52.45 30.05
L 51.75 28.45
Q 51.25 27.35 50.9 25.7 51.35 24.85 51.95 24.1
L 52.2 23.65
M 44.85 19.8
Q 45 20.3 45.15 20.85
L 46.45 21.2
Q 48.6 21.7 49.05 21 47.75 20.5 44.85 19.8 Z"/>

<path fill="#373751" stroke="none" d="
M 4.6 19.7
Q 4.6 19.6 4.6 19.55 4.25 15.7 5.55 11.9 3.05 16.55 3.1 20.85 3.1 20.9 3.1 20.95
L 3.1 21
Q 3.15 21 3.2 20.95 3.5 20.8 3.6 20.55
L 4 20.2 4.6 19.7
M 6.4 18.2
Q 6.4 18.15 6.45 18.1
L 6.45 18.05 6.45 18
Q 6.65 17.45 7.75 16.95 7.75 16.85 7.75 16.8 7 13.3 9.45 8.15 7.25 10.9 5.9 14.75 6 17.15 4.85 19.35 4.7 19.5 4.6 19.7
L 6.4 18.2
M 8.25 16.6
Q 8.15 16.7 8.1 16.8 9 16.55 9.95 16.3 10.35 16.2 10.8 16.1 11.3 16 11.85 15.9
L 15.55 15.55
Q 15.55 15.45 15.5 15.4
L 15.4 15.35
Q 13.4 14.15 12.35 11.8 12.05 13.85 10.5 15.3
L 10.25 12.9
Q 9.2 15.15 8.25 16.6
M 24.6 10.5
L 26.45 11.8
Q 23.65 5.95 18.2 3
L 20.25 3.7
Q 27.15 6.7 31.6 13.85 33.4 16.7 34.05 18.5 34.05 18.6 34.1 18.7
L 34.35 18.75
Q 34.35 18.65 34.35 18.6 34 16.55 33.05 14.65 31.05 10.25 26.4 6.2 32.1 9.15 34.3 12.65 36.5 16.1 36.9 19.35 36.9 19.45 36.9 19.55
L 39 20.1
Q 39 20 39 19.9 37.05 5.75 25.3 1.05 30.35 4.2 33.55 9.5 29.6 5.9 25.05 4 21.1 2.35 17 2.55 22.15 6.35 24.6 10.5
M 43.05 21.2
L 43.55 21.2 44.6 21.5
Q 44.55 21.35 44.55 21.25 44.4 20.9 44.35 20.6 44.15 20.1 44 19.6 42.1 14.35 39 10.35 40.1 14.15 39.6 20.05 39.55 20.15 39.55 20.25
L 42.6 21.05
Q 42.9 21.05 43.05 21.2 Z"/>

<path fill="#29293F" stroke="none" d="
M 5.65 11.7
Q 5.6 11.85 5.55 11.9 4.25 15.7 4.6 19.55 4.6 19.6 4.6 19.7 4.7 19.5 4.85 19.35 6 17.15 5.9 14.75 6.05 13.5 5.65 11.7
M 11.7 8.65
L 11.05 7.45 9.75 10.85 9.8 12.1
Q 10.95 10.75 11.1 9.05
L 11.7 11.5
Q 13.25 8.45 12.15 5.85 12.3 7.35 11.7 8.65
M 44.85 19.8
Q 44.8 19.7 44.8 19.65 42.15 11.2 36.3 6.4 37.8 8.75 37.7 11.15 33.65 2.75 24.15 0 24.2 2.05 25.05 4 29.6 5.9 33.55 9.5 30.35 4.2 25.3 1.05 37.05 5.75 39 19.9 39 20 39 20.1
L 39.55 20.25
Q 39.55 20.15 39.6 20.05 40.1 14.15 39 10.35 42.1 14.35 44 19.6 44.15 20.1 44.35 20.6 44.4 20.9 44.55 21.25 44.55 21.35 44.6 21.5
L 45.35 21.6
Q 45.3 21.45 45.3 21.35 45.2 21.1 45.15 20.85 45 20.3 44.85 19.8 Z"/>

<path fill="#42425B" stroke="none" d="
M 34.35 18.6
Q 34.35 18.65 34.35 18.75
L 36.9 19.55
Q 36.9 19.45 36.9 19.35 36.5 16.1 34.3 12.65 32.1 9.15 26.4 6.2 31.05 10.25 33.05 14.65 34 16.55 34.35 18.6
M 24.05 6.45
Q 22.35 4.95 20.25 3.7
L 18.2 3
Q 23.65 5.95 26.45 11.8
L 24.6 10.5
Q 19.15 6.1 13.25 4.6 15.8 6.55 17.55 8.95 15.25 6.9 12.15 5.85 13.25 8.45 11.7 11.5
L 11.1 9.05
Q 10.95 10.75 9.8 12.1
L 9.75 10.85
Q 9.8 8.6 10.35 7.15 9.85 7.55 9.45 8.15 7 13.3 7.75 16.8 7.75 16.85 7.75 16.95
L 8.1 16.8
Q 8.15 16.7 8.25 16.6 9.2 15.15 10.25 12.9
L 10.5 15.3
Q 12.05 13.85 12.35 11.8 13.4 14.15 15.4 15.35
L 15.5 15.4
Q 15.55 15.45 15.55 15.55
L 15.9 15.55
Q 17.95 15.5 20.2 15.7 20.05 15.6 19.9 15.55 15.15 12.8 14.05 9.6 16.05 11.45 18.4 12.1 15.3 9.7 13.35 7.15
L 22.2 11.8
Q 20.55 9.45 18.05 7.55 23.8 10.3 28.1 14.55 28 13.7 27.5 12 26.85 9.7 24.05 6.45
M 15.55 13.35
Q 12.75 13 13.1 9.5
L 15.55 13.35 Z"/>

<path fill="#5A5A77" stroke="none" d="
M 13.1 9.5
Q 12.75 13 15.55 13.35
L 13.1 9.5
M 28.25 10.85
Q 26.95 8.85 24.05 6.45 26.85 9.7 27.5 12 28 13.7 28.1 14.55 23.8 10.3 18.05 7.55 20.55 9.45 22.2 11.8
L 13.35 7.15
Q 15.3 9.7 18.4 12.1 16.05 11.45 14.05 9.6 15.15 12.8 19.9 15.55 20.05 15.6 20.2 15.7
L 20.3 15.75
Q 24.05 16.1 28.4 17.15
L 31.3 17.85
Q 31.25 17.75 31.25 17.65 30.8 15.9 30.2 14.5 29.55 12.8 28.25 10.85 Z"/>

<path fill="#7F7F9C" stroke="none" d="
M 24.05 6.45
Q 26.95 8.85 28.25 10.85 29.55 12.8 30.2 14.5 30.8 15.9 31.25 17.65 31.25 17.75 31.3 17.85
L 34.1 18.7
Q 34.05 18.6 34.05 18.5 33.4 16.7 31.6 13.85 27.15 6.7 20.25 3.7 22.35 4.95 24.05 6.45 Z"/>

<path fill="#0A2641" stroke="none" d="
M 45.15 20.85
Q 45.2 21.1 45.3 21.35
L 50.05 22.1
Q 50.75 21.65 49.05 21 48.6 21.7 46.45 21.2
L 45.15 20.85 Z"/>

<path fill="#173E64" stroke="none" d="
M 44.8 19.65
Q 44.8 19.7 44.85 19.8 47.75 20.5 49.05 21 50.75 21.65 50.05 22.1
L 45.3 21.35
Q 45.3 21.45 45.35 21.6
L 44.6 21.5 43.55 21.2 43.05 21.2
Q 42.9 21.05 42.6 21.05
L 39.55 20.25 39 20.1 36.9 19.55 34.35 18.75 34.1 18.7 31.3 17.85 28.4 17.15
Q 24.05 16.1 20.3 15.75
L 20.2 15.7
Q 17.95 15.5 15.9 15.55
L 15.55 15.55 11.85 15.9
Q 11.3 16 10.8 16.1 13.25 16.1 14.9 16.6 10 16.8 6.45 18.05
L 6.45 18.1
Q 6.4 18.15 6.4 18.2
L 4.6 19.7 4 20.2
Q 7.5 19 16.7 22.8 7.8 20.9 3.2 20.95 3.15 21 3.1 21
L 3.1 20.95
Q 3 20.95 2.9 20.95 1.9 21.05 0.9 21.3 -0.15 22.65 1.55 22.4 7.75 21.75 27.4 29.3 34.3 31.95 39.45 33.4 49.4 36.05 52.5 34.2 52.65 34.1 52.65 34 53.6 31.95 52.45 30.05 51.45 28.4 47.45 26.85 48.25 25.35 50.25 24.55 51.9 23.9 52.45 22.85 52 20.85 50.5 20.4 49.05 20 47.55 19.85 46.3 19.7 44.8 19.65
M 44.25 23.05
L 44.95 23.5 47.9 24.65 46.7 26.1 40.3 23.9 41.6 25.2
Q 41.65 25.25 41.75 25.3
L 44.55 26.55
Q 44.75 26.65 45 26.8
L 45.25 26.75 45.45 27.05
Q 49.5 29.3 51.85 31.35 49.3 32.65 46.45 32.45 49.05 33.5 51.95 33.55 48.7 35.5 39.55 33.05 34.05 31.45 26.3 28.45 19.05 25.5 10.8 23.2 16.25 22.95 23 24.6 18 21.75 13.5 20.05
L 16.1 17.75
Q 21.95 17.75 27.5 19.5 21 16.75 16.5 16 23.8 15.95 33.2 18.8 38.1 20.4 43 21.45
L 46.65 22.15
Q 50.45 22.75 51.05 22.35 51.7 21.95 51.05 21.15 52.1 22.05 51.9 22.85 51.25 24.4 44.25 23.05
M 39.8 24.3
Q 39.9 24.05 40 23.8
L 35.1 22.1
Q 37.6 23.2 39.8 24.3 Z"/>

<path fill="#255B91" stroke="none" d="
M 40.25 28.5
Q 39.6 29.2 38.9 29.75 39.6 29.95 40.35 30.15
L 42.45 30.6 40.25 28.5
M 39.1 21.95
L 39.55 21.75 39.2 21.6 39.75 21.7 40.65 21.3
Q 32.8 18.9 26 17.85
L 40.85 23.35
Q 39.9 22.7 39.1 21.95
M 24.8 19.35
L 22.35 22.45
Q 29.4 26.55 36.25 28.9 38.2 27.5 39.45 24.85
L 39.5 24.85
Q 32.75 21.55 24.8 19.35
M 38.45 25.4
Q 37.7 26.5 37.2 27 35.85 28.3 34.95 28.05
L 34.85 28.05
Q 34.1 27.65 33.35 24.25 33.6 24.8 34.6 25.75 34.9 26 35.35 26.15 36.5 26.45 38.45 25.4
M 43.35 27.05
L 43.7 27
Q 42.95 26.55 42.15 26.15
L 42.1 26.2
Q 41.7 26.9 41.3 27.45
L 43.7 30 42.75 30.65 45 31.15 44.8 29 43.35 27.05
M 44.45 24.7
L 44.4 24.5 44.15 24.6 44.45 24.7
M 42.75 21.95
Q 42.4 21.85 42.1 21.75
L 42.7 22.1 44.1 22.3 42.75 21.95
M 39.95 31.45
Q 32.3 29.05 25.05 25.9 20.3 24.05 15.2 23.75 20.4 24.45 26.1 27.15 33.3 30.9 39.7 32.5 44.45 33.7 48.7 33.65 44.25 32.7 39.95 31.45 Z"/>

<path fill="#1D4C7B" stroke="none" d="
M 39.55 21.75
L 39.75 21.7 39.2 21.6 39.55 21.75
M 45 26.8
Q 44.75 26.65 44.55 26.55
L 41.75 25.3
Q 41.65 25.25 41.6 25.2
L 42.3 25.95 42.15 26.15
Q 42.95 26.55 43.7 27
L 45 26.8
M 40.65 21.3
L 41.05 21.1 42.1 21.75
Q 42.4 21.85 42.75 21.95
L 44.1 22.3 42.7 22.1 44.15 23 44.25 23.05
Q 51.25 24.4 51.9 22.85 52.1 22.05 51.05 21.15 51.7 21.95 51.05 22.35 50.45 22.75 46.65 22.15
L 43 21.45
Q 38.1 20.4 33.2 18.8 23.8 15.95 16.5 16 21 16.75 27.5 19.5 21.95 17.75 16.1 17.75
L 13.5 20.05
Q 18 21.75 23 24.6 16.25 22.95 10.8 23.2 19.05 25.5 26.3 28.45 34.05 31.45 39.55 33.05 48.7 35.5 51.95 33.55 49.05 33.5 46.45 32.45 49.3 32.65 51.85 31.35 49.5 29.3 45.45 27.05
L 46 27.9
Q 46.75 28.95 47.35 29.55 48.1 30.15 49.35 30.1
L 48.7 31.75
Q 48.6 31.8 47.65 31.75 46.8 31.6 45.4 29.8
L 44.8 29 45 31.15 42.75 30.65 42.6 30.75 42.45 30.6 40.35 30.15
Q 39.6 29.95 38.9 29.75
L 38.85 29.75 38.35 30.05 36.2 28.9 36.25 28.9
Q 29.4 26.55 22.35 22.45
L 24.8 19.35
Q 32.75 21.55 39.5 24.85 39.65 24.55 39.8 24.3 37.6 23.2 35.1 22.1
L 40 23.8
Q 40.05 23.75 40.05 23.65
L 40.3 23.9 46.7 26.1 47.9 24.65 44.95 23.5 45.5 23.85 44.4 24.5 44.45 24.7 44.15 24.6 43.65 24.85
Q 42.3 24.25 41.15 23.55 41 23.45 40.85 23.35
L 26 17.85
Q 32.8 18.9 40.65 21.3
M 25.05 25.9
Q 32.3 29.05 39.95 31.45 44.25 32.7 48.7 33.65 44.45 33.7 39.7 32.5 33.3 30.9 26.1 27.15 20.4 24.45 15.2 23.75 20.3 24.05 25.05 25.9 Z"/>

<path fill="#CCCCCC" stroke="none" d="
M 37.2 27
Q 37.7 26.5 38.45 25.4 36.5 26.45 35.35 26.15 34.9 26 34.6 25.75 33.6 24.8 33.35 24.25 34.1 27.65 34.85 28.05
L 34.95 28.05
Q 35.85 28.3 37.2 27
M 42.1 26.2
Q 41.7 25.95 41.25 25.75 40.7 25.45 40.2 25.2 39.85 25 39.45 24.85 38.2 27.5 36.25 28.9
L 36.2 28.9 38.35 30.05 38.85 29.75 38.9 29.75
Q 39.6 29.2 40.25 28.5
L 42.45 30.6 42.6 30.75 42.75 30.65 43.7 30 41.3 27.45
Q 41.7 26.9 42.1 26.2
M 41.05 21.1
L 40.65 21.3 39.75 21.7 39.55 21.75 39.1 21.95 44.15 23 42.7 22.1 42.1 21.75 41.05 21.1 Z"/>

<path fill="#A3A3A3" stroke="none" d="
M 42.15 26.15
L 42.3 25.95 41.6 25.2 40.3 23.9 40.05 23.65
Q 40.05 23.75 40 23.8 39.9 24.05 39.8 24.3 39.65 24.55 39.5 24.85
L 39.45 24.85
Q 39.85 25 40.2 25.2 40.7 25.45 41.25 25.75 41.7 25.95 42.1 26.2
L 42.15 26.15
M 49.35 30.1
Q 48.1 30.15 47.35 29.55 46.75 28.95 46 27.9
L 45.45 27.05 45.25 26.75 45 26.8 43.7 27 43.35 27.05 44.8 29 45.4 29.8
Q 46.8 31.6 47.65 31.75 48.6 31.8 48.7 31.75
L 49.35 30.1
M 40.85 23.35
Q 41 23.45 41.15 23.55 42.3 24.25 43.65 24.85
L 44.15 24.6 44.4 24.5 45.5 23.85 44.95 23.5 44.25 23.05 44.15 23 39.1 21.95
Q 39.9 22.7 40.85 23.35 Z"/>
</g>

<g id="_______244_0_Layer0_0_FILL">
<path fill="#173E64" stroke="none" d="
M 40.3 31.2
L 40.3 31.25
Q 42.85 29.4 44.4 27.1 42.35 27.95 40.3 29.45
L 40.3 31.2
M 39.05 14.3
L 39.6 14.7 39.65 14.7
Q 40.65 14.5 41.6 14.45 40.55 14.35 39.15 14.25 38.15 14.2 37 14.15
L 39.05 14.3
M 45.9 39.7
Q 46.15 39.85 46.3 40.15
L 46.05 39.15
Q 44.15 37.9 42.75 36.6 41.15 35.15 40.2 33.65
L 40.15 33.65 37.9 34.95 34.45 33.65 34.75 31.05 33.65 30.8 33.55 30.8
Q 32.9 30.8 32.25 30.8 32.5 30.65 32.75 30.55
L 31.2 30.2 31.2 26.85
Q 29.5 26.85 27.75 26.3 31.5 24.5 38.4 24.5 37.3 25.25 36.2 25.8
L 37.75 26.6 38.55 26.05
Q 38.6 26 38.65 26 38.9 25.65 39.15 25.35 39.75 24.5 40.15 23.6 39.65 23.7 39.15 23.75 32.75 24.45 28.05 21.75 32.8 21.65 36.75 20.2 31.65 20.5 27.3 19.25 25.4 18.7 23.6 17.85 24 21.05 24.95 24 25.25 24.95 25.6 25.85 25.05 24.95 24.55 24 22.7 20.75 21 16.45 18.7 13.55 12.95 10.6 12.8 10.55 12.7 10.5
L 12.7 10.45 20.9 13.4
Q 18 12.2 16.05 10.6 15.25 9.95 14.6 9.2 15.9 9.9 17.45 10.6 19.45 11.5 21.9 12.3 24.35 13.1 27.3 13.8 29.55 14.3 32.05 14.7 30.3 14.85 27.3 14.5 24.9 14.25 21.7 13.65 24.5 14.8 27.3 15.5 29.5 16.05 31.65 16.35
L 32 14.95 35.45 14.95 35.5 14.05
Q 34.15 14 32.6 13.95 29.8 13.5 27.3 12.9 22.95 11.9 19.35 10.6 15.9 9.35 13.15 7.75 4.8 1.85 2.9 0 2.2 0.15 2.25 1.05 4.4 3.5 7.35 5 4.15 4.2 2.2 2.2
L 0.85 3.15
Q 0.15 3.2 0 3.7 1.55 5.75 3.35 9.25 8.5 19.05 22.05 24 20.6 21.25 19.5 18.2
L 13.3 14
Q 14.85 14.8 16.1 15.25
L 14 11.9
Q 19.15 15.4 20.65 17.8 21.6 21.05 23.15 24 23.3 24.25 23.4 24.5 23.9 25.35 24.4 26.25 30.55 36.15 43.65 42.3 45.5 41.7 46.95 42.75 46.7 43.65 44.9 43.35
L 45.4 43.55
Q 46.6 43.95 47.15 43.6 47.6 43.35 47.6 42.9
L 47 42.1
Q 45.35 41.2 43.75 41.4 38.35 39.1 33.05 34.6 39.15 38.55 43.45 40 45.2 39.15 45.9 39.7
M 7.4 6.35
L 7.4 6.4
Q 7.35 6.35 7.25 6.3
L 7.4 6.35
M 5.15 6.15
Q 5.45 7 4.35 6.5 3.3 5.9 1.1 3.45 4.95 5.35 5.15 6.15
M 49.65 16.9
Q 49.8 16.8 50 16.65 49.3 16.35 48.6 16.1
L 49.65 16.9 Z"/>

<path fill="#A3A3A3" stroke="none" d="
M 40.25 33.55
L 40.3 31.25 40.3 31.2 39.25 31.95
Q 39.55 32.65 40 33.3
L 40.15 33.65 40.2 33.65 40.25 33.55
M 49.5 22.65
Q 49.35 22.75 49.25 22.85 48.8 23.25 48.4 23.75
L 47.9 24.3
Q 47.2 25.15 46.65 26.2 47.1 26.15 47.4 26.8
L 47.4 26.85 47.85 25.75
Q 48.95 23.7 51.85 22.35 50.5 22.1 49.8 22.4 49.65 22.45 49.55 22.55
L 49.5 22.65 Z"/>

<path fill="#1D4C7B" stroke="none" d="
M 32.75 30.55
Q 32.5 30.65 32.25 30.8 32.9 30.8 33.55 30.8
L 32.75 30.55
M 35.45 25.4
L 36.2 25.8
Q 37.3 25.25 38.4 24.5 31.5 24.5 27.75 26.3 29.5 26.85 31.2 26.85
L 31.2 26.3 35.45 25.4
M 7.4 6.4
L 7.4 6.35 7.25 6.3
Q 7.35 6.35 7.4 6.4
M 47 42.1
Q 46.75 40.75 46.3 40.15 46.15 39.85 45.9 39.7 45.2 39.15 43.45 40 39.15 38.55 33.05 34.6 38.35 39.1 43.75 41.4 45.35 41.2 47 42.1
M 46.65 26.2
Q 46.15 27.1 45.75 28.15 46.05 27.25 46.25 26.3 45.35 26.6 44.4 27.05
L 44.4 27.1
Q 42.85 29.4 40.3 31.25
L 40.25 33.55 40.2 33.65
Q 41.15 35.15 42.75 36.6 44.15 37.9 46.05 39.15 45.95 37.85 45.95 36.6 45.85 30.55 47.4 26.8 47.1 26.15 46.65 26.2
M 45.2 31
Q 44.9 33.85 45.2 36.6 45.25 37.4 45.4 38.15 44.65 37.4 44.05 36.6 43.05 35.4 42.25 34.1 44.4 32.35 45.2 31
M 51.85 22.35
Q 52.05 22.25 52.25 22.15
L 49.7 19.35 50.95 21.65
Q 50.35 22 49.8 22.4 50.5 22.1 51.85 22.35
M 43.2 23.75
Q 41.8 22.9 40.6 21.95 39.9 22 39.15 22 37.2 21.95 35.1 21.55 36.95 21.15 38.4 20.4
L 37.9 20 35.75 20.1 31.5 18.25
Q 29.4 17.7 27.3 16.9 25.9 16.35 24.5 15.65 25.9 16.15 27.3 16.5 29.4 17 31.5 17.25
L 31.65 16.35
Q 29.5 16.05 27.3 15.5 24.5 14.8 21.7 13.65 24.9 14.25 27.3 14.5 30.3 14.85 32.05 14.7 29.55 14.3 27.3 13.8 24.35 13.1 21.9 12.3 19.45 11.5 17.45 10.6 15.9 9.9 14.6 9.2 15.25 9.95 16.05 10.6 18 12.2 20.9 13.4
L 12.7 10.45 12.7 10.5
Q 12.8 10.55 12.95 10.6 18.7 13.55 21 16.45 22.7 20.75 24.55 24 25.05 24.95 25.6 25.85 25.25 24.95 24.95 24 24 21.05 23.6 17.85 25.4 18.7 27.3 19.25 31.65 20.5 36.75 20.2 32.8 21.65 28.05 21.75 32.75 24.45 39.15 23.75 39.65 23.7 40.15 23.6 39.75 24.5 39.15 25.35 38.9 25.65 38.65 26 40.95 24.55 43.2 23.75
M 41.7 14.45
L 41.6 14.45
Q 40.65 14.5 39.65 14.7
L 39.95 14.9
Q 40.8 14.65 41.7 14.45 Z"/>

<path fill="#939393" stroke="none" d="
M 37.75 26.6
L 36.2 25.8
Q 35.1 26.3 33.95 26.55
L 31.7 26.85
Q 31.45 26.85 31.2 26.85
L 31.2 30.2 32.75 30.55
Q 34.35 29.7 35.65 28.8
L 37.25 27.45
Q 37.95 26.75 38.55 26.05
L 37.75 26.6
M 39.6 14.7
L 39.05 14.3 37 14.15 35.5 14 35.5 14.05 35.45 14.95 32 14.95 31.65 16.35
Q 32.65 16.45 33.65 16.55
L 36.5 15.5
Q 38.1 14.95 39.6 14.7
M 44.4 27.05
Q 44.55 26.8 44.7 26.55
L 45 26.05
Q 45.25 25.6 45.45 25.1
L 39.75 29.4
Q 39.15 29.65 38.5 29.9
L 35.85 30.55
Q 34.75 30.75 33.65 30.8
L 34.75 31.05 34.45 33.65 37.9 34.95 40.15 33.65 40 33.3
Q 39.55 32.65 39.25 31.95
L 40.3 31.2 40.3 29.45
Q 42.35 27.95 44.4 27.1
L 44.4 27.05 Z"/>

<path fill="#B8B8B8" stroke="none" d="
M 36.2 25.8
L 35.45 25.4 31.2 26.3 31.2 26.85
Q 31.45 26.85 31.7 26.85
L 33.95 26.55
Q 35.1 26.3 36.2 25.8
M 31.95 18.35
Q 31.7 18.25 31.4 18.2
L 31.5 18.25 35.75 20.1 37.9 20 38.4 20.4
Q 39.45 19.85 40.25 19.1 39.7 19.15 39.15 19.15
L 31.95 18.35
M 39.95 14.9
L 39.65 14.7 39.6 14.7
Q 38.1 14.95 36.5 15.5
L 33.65 16.55
Q 32.65 16.45 31.65 16.35
L 31.5 17.25 31.5 17.3
Q 32.2 17.3 32.9 17.35 33.8 17.4 34.7 17.4
L 36.95 16.15
Q 38.45 15.4 40 14.95
L 39.95 14.9
M 44.3 21.2
L 43.4 21.45
Q 41.95 21.75 40.5 21.85 40.55 21.9 40.6 21.95 41.8 22.9 43.2 23.75 40.95 24.55 38.65 26 38.6 26 38.55 26.05 37.95 26.75 37.25 27.45
L 35.65 28.8
Q 34.35 29.7 32.75 30.55
L 33.55 30.8 33.65 30.8
Q 34.75 30.75 35.85 30.55
L 38.5 29.9
Q 39.15 29.65 39.75 29.4
L 45.45 25.1
Q 45.25 25.6 45 26.05
L 44.7 26.55
Q 44.55 26.8 44.4 27.05 45.35 26.6 46.25 26.3 46.5 24.8 46.35 23.3 44.25 25.6 41.2 26.7 43.6 24.15 44.3 21.2 Z"/>

<path fill="#0D3256" stroke="none" d="
M 0.85 3.15
L 2.2 2.2
Q 4.15 4.2 7.35 5 4.4 3.5 2.25 1.05 1.2 1.75 0.85 3.15
M 46.95 42.75
Q 45.5 41.7 43.65 42.3 30.55 36.15 24.4 26.25 23.9 25.35 23.4 24.5 23.3 24.25 23.15 24 21.6 21.05 20.65 17.8 19.15 15.4 14 11.9
L 16.1 15.25
Q 14.85 14.8 13.3 14
L 19.5 18.2
Q 20.6 21.25 22.05 24 8.5 19.05 3.35 9.25 1.55 5.75 0 3.7 -0.1 4.05 0.3 5.25 0.65 6.4 1.55 8.45 2.4 10.45 3.45 11.5 9.8 21.25 23.1 25.85 30.25 37.85 44.9 43.35 46.7 43.65 46.95 42.75
M 4.35 6.5
Q 5.45 7 5.15 6.15 4.95 5.35 1.1 3.45 3.3 5.9 4.35 6.5
M 50 16.65
Q 49.8 16.8 49.65 16.9
L 50.7 17.7 47.65 16.65
Q 48.7 17.25 49.7 19.35
L 52.25 22.15
Q 52.05 22.25 51.85 22.35 48.95 23.7 47.85 25.75
L 47.4 26.85 47.4 26.8
Q 45.85 30.55 45.95 36.6 45.95 37.85 46.05 39.15
L 46.3 40.15
Q 46.75 40.75 47 42.1
L 47.6 42.9 47.55 42.5
Q 47.1 40.25 47.35 37.9 47.25 37.25 47.25 36.6 47.15 35.5 47.15 34.5 47 25.8 52.1 23.2 52.65 22.9 53.3 22.7 53.55 22.6 53.8 22.5 53.55 22.2 53.35 21.9 53.15 21.6 53 21.3 52.85 21 52.7 20.75 52.55 20.45 52.4 20.2 52.35 20.05 52.3 19.95 51.4 17.25 52.35 14.75
L 51.4 14.2
Q 51 15.6 50.1 16.55 50 16.6 50 16.65 Z"/>

<path fill="#255B91" stroke="none" d="
M 27.3 16.5
Q 25.9 16.15 24.5 15.65 25.9 16.35 27.3 16.9 29.4 17.7 31.5 18.25
L 31.4 18.2 31.5 17.3 31.5 17.25
Q 29.4 17 27.3 16.5
M 45.2 36.6
Q 44.9 33.85 45.2 31 44.4 32.35 42.25 34.1 43.05 35.4 44.05 36.6 44.65 37.4 45.4 38.15 45.25 37.4 45.2 36.6
M 45.75 28.15
Q 46.15 27.1 46.65 26.2
L 46.6 26.15 46.25 26.3
Q 46.05 27.25 45.75 28.15
M 40.6 21.95
Q 40.55 21.9 40.5 21.85 39.4 21.1 38.4 20.4 36.95 21.15 35.1 21.55 37.2 21.95 39.15 22 39.9 22 40.6 21.95
M 48.6 16.1
Q 48 15.65 47.3 15.35
L 46.95 15.15
Q 44.9 14.4 41.9 14.45 41.85 14.45 41.7 14.45 40.8 14.65 39.95 14.9
L 40 14.95 40.4 15.2 40.75 18.35
Q 43 19.95 45.4 22 47.55 23.85 49.25 22.85 49.35 22.75 49.5 22.65
L 49.55 22.55
Q 49.65 22.45 49.8 22.4 50.35 22 50.95 21.65
L 49.7 19.35
Q 48.7 17.25 47.65 16.65
L 50.7 17.7 49.65 16.9 48.6 16.1 Z"/>

<path fill="#CCCCCC" stroke="none" d="
M 43.4 21.45
L 44.3 21.2
Q 43.6 24.15 41.2 26.7 44.25 25.6 46.35 23.3 46.5 24.8 46.25 26.3
L 46.6 26.15 46.65 26.2
Q 47.2 25.15 47.9 24.3
L 48.4 23.75
Q 48.8 23.25 49.25 22.85 47.55 23.85 45.4 22 43 19.95 40.75 18.35
L 40.4 15.2 40 14.95
Q 38.45 15.4 36.95 16.15
L 34.7 17.4
Q 33.8 17.4 32.9 17.35 32.2 17.3 31.5 17.3
L 31.4 18.2
Q 31.7 18.25 31.95 18.35
L 39.15 19.15
Q 39.7 19.15 40.25 19.1 39.45 19.85 38.4 20.4 39.4 21.1 40.5 21.85 41.95 21.75 43.4 21.45 Z"/>
</g>
</defs>

<g transform="matrix( 1, 0, 0, 1, -0.2,1.65) ">
<g transform="matrix( 1, 0, 0, 1, 0,0) ">
<use xlink:href="#_______246_0_Layer1_0_FILL"/>
</g>

<g transform="matrix( 0.9910125732421875, -0.133758544921875, 0.133758544921875, 0.9910125732421875, 0,8.25) ">
<g transform="matrix( 1, 0, 0, 1, 0,0) ">
<use xlink:href="#_______243_0_Layer0_0_FILL"/>
</g>
</g>

<g transform="matrix( 1, 0, 0, 1, 25.4,0) ">
<g transform="matrix( 1, 0, 0, 1, 0,0) ">
<use xlink:href="#_______242_0_Layer0_0_FILL"/>
</g>
</g>

<g transform="matrix( 1, 0, 0, 1, 22.15,30.25) ">
<g transform="matrix( 1, 0, 0, 1, 0,0) ">
<use xlink:href="#_______244_0_Layer0_0_FILL"/>
</g>
</g>
</g>
</svg>
