
<svg xmlns="http://www.w3.org/2000/svg" version="1.1" xmlns:xlink="http://www.w3.org/1999/xlink" preserveAspectRatio="none" x="0px" y="0px" width="76px" height="38px" viewBox="0 0 76 38">
<defs>
<g id="_______235_0_Layer1_0_FILL">
<path fill="#660000" stroke="none" d="
M 229.5 24.3
L 229.4 24.3 203.25 2.15 203.1 2.15 202.9 1.95
Q 199.1 -0.2 195.65 0
L 195.45 0 194.7 0.1 188.35 0
Q 185.5 0.2 183 1.95
L 182.75 2.15 182.65 2.3 179.7 4.65 128.4 10.25 128.25 10.25
Q 118.3 11.55 109.65 14.75
L 109.3 14.85 109.4 14.85
Q 46.15 31.95 39.15 101.15
L 31.35 102.2 31.05 102.3 30.9 102.4
Q 26.8 103.3 23.05 104.4 9.4 108.6 2.25 115.55
L 1.7 116.35
Q -0.35 122.4 0.1 125.3 0.2 126.05 0.75 126.6 1.4 127.15 2.15 127.15 2.9 127.15 3.55 126.7 4.25 126.3 4.35 125.55 6.55 118.1 38.25 115.2 77.85 111.5 140.85 119.4
L 142.6 119.7 142.9 119.7
Q 177.05 124 207.95 123.15
L 210.55 123
Q 240.35 121.95 249.4 116 254.35 112.7 254.25 109.65
L 254.15 103.1
Q 254.35 101.75 253.6 100.55
L 253.6 100.45 253.45 100.35
Q 251.5 96.65 227.2 96.85
L 231.9 83.3
Q 232.05 83.05 231.9 82.95
L 231.9 82.85
Q 234.45 72.45 230.5 65.3 229.6 63 228.95 60.75 227.3 54.6 227.45 49.2 227.55 42.1 230.6 35
L 230.8 34.8
Q 233.2 29.75 229.95 24.75
L 229.85 24.75 229.5 24.3
M 227.65 26.35
Q 230.25 30.3 228.4 34.25 224.9 41.9 224.8 49.65 224.7 55.3 226.4 61.75 227.1 64.25 228.1 66.85 231.7 73.45 229.4 82.95
L 223.6 99.5
Q 249.2 99.05 251.3 101.95 251.6 102.55 251.5 103.1
L 251.6 110
Q 251.5 112.2 247.8 114.6 238.95 120.15 210 121.25
L 207.5 121.4
Q 176.75 122.25 142.7 118
L 140.6 117.65
Q 77.5 109.75 37.65 113.5 3.8 116.55 1.85 125.45 1.5 122.9 3.35 117.55 10.15 110.85 23.25 106.9
L 31.3 104.85 40.7 103.55 40.7 103.5 42.15 103.4 56.45 102.45 56.65 102.4
Q 63.9 102.1 71.35 102.05
L 82.15 102.15
Q 97.75 102.4 114 104
L 114.15 104 115.2 104.1 114.8 104 114 103.85
Q 89.7 99.75 65.85 99.95
L 62.65 100 56.4 100.2 47.95 100.7 42.9 101.15 40.85 101.35
Q 47.95 34.1 109.5 17.4
L 109.75 17.4
Q 118.3 14.2 128.15 12.9
L 149.8 10.5 176.2 7.6 160 23.05 159.25 23.75 158.8 24.2 161.9 21.7 177.6 9.15 179.35 7.65 179.9 7.25 180.1 7.2 183.75 4.25
Q 185.8 2.8 188.15 2.6
L 194.7 2.7 195.25 2.6
Q 198.1 2.4 201.4 4.25
L 227.65 26.35 Z"/>

<path fill="#DB0000" stroke="none" d="
M 82.15 102.15
L 114 104
Q 97.75 102.4 82.15 102.15
M 131.65 58.55
Q 127.8 54.05 123.2 51.35 121.25 72 121.75 104.65
L 142.8 106.6
Q 143.25 103 143.25 99.25 143.25 72.35 131.65 58.55
M 116.1 48.25
Q 111.6 46.85 106.6 46.85 101.1 46.85 96.15 49 87.85 52.1 80.2 60.5 75.35 65.65 70.9 73.1 67.4 85.3 65.85 99.95 89.7 99.75 114 103.85 113.9 74.9 115.4 55.35
L 116.1 48.25
M 228.1 66.85
Q 227.1 64.25 226.4 61.75
L 221.4 61.8 221.85 63.25
Q 223.6 66.45 224.15 72.35 224.8 78.1 223.9 81.75
L 217.9 98.95 217.55 99.6
Q 216.25 102.3 213.4 103.45
L 203.65 104.1
Q 205.55 106.9 206.95 110
L 216.45 109.05
Q 220.65 107.25 222.15 103.65
L 223.6 99.5 229.4 82.95
Q 231.7 73.45 228.1 66.85
M 167 22.95
L 165.9 23.95 165 25.2
Q 163.6 28 165.25 30.4
L 165.35 30.85
Q 166.75 33.7 167.65 36.55 171.35 46.85 169.5 54.85 168.1 58.4 167.1 61.6 164.05 71.15 164.6 76.5
L 164.9 80
Q 168.75 80.1 172.9 81.2 171.8 76.15 171.5 71.35 171.15 68.4 172.7 63.45
L 176.3 53.2
Q 176.85 51 176.75 48.55 176.85 42.55 173.9 35.2
L 173.1 33.25 172.9 32.7
Q 171.6 30.65 172.9 28.1
L 173.45 27.35 176.55 24.75 173.55 17.85 167 22.95 Z"/>

<path fill="#9C0404" stroke="none" d="
M 47.95 100.7
L 56.4 100.2
Q 59.75 76.8 67.3 59.75 73.3 45.85 82.15 36.1 53.7 56 47.95 100.7
M 40.7 103.5
L 40.7 103.55 42.15 103.4 40.7 103.5
M 96.3 39.95
Q 108 31.1 119.7 27.35 121.9 19.45 124.75 16.3 91.05 24.65 76.25 57.95
L 74.2 62.9 77.35 58.65
Q 85.8 48.05 96.3 39.95
M 101.8 20.9
Q 105.5 18.9 109.5 17.4 47.95 34.1 40.85 101.35
L 42.9 101.15
Q 50.25 40.6 101.8 20.9 Z"/>

<path fill="#C20101" stroke="none" d="
M 56.45 102.45
L 56.2 103.45 56.65 102.4 56.45 102.45
M 207.5 121.4
L 210 121.25
Q 238.95 120.15 247.8 114.6 251.5 112.2 251.6 110
L 251.5 103.1
Q 251.3 104.85 247.55 106.25
L 247 106.5
Q 239.5 110.2 224 111.5 220.2 115.65 209.7 117.55 195.45 119.95 168.75 118 153.95 116.9 141.45 114.5
L 134.25 113.05
Q 118.1 109.3 113.6 105.05 61.9 100.8 23.25 106.9 10.15 110.85 3.35 117.55 1.5 122.9 1.85 125.45 3.8 116.55 37.65 113.5 77.5 109.75 140.6 117.65
L 142.7 118
Q 176.75 122.25 207.5 121.4 Z"/>

<path fill="#F70909" stroke="none" d="
M 67.3 73.85
Q 69.8 64.25 73.3 56.25 71.35 57.25 68.35 59 67.7 59.3 67.3 59.75 59.75 76.8 56.4 100.2
L 62.65 100
Q 63.55 91.2 65.1 83.3
L 67.3 73.85
M 116.65 43.45
L 116.1 48.25 115.4 55.35
Q 113.9 74.9 114 103.85
L 114.8 104 119.3 104.4
Q 118.95 71.45 121.15 50.1
L 121.6 45.75
Q 119.5 44.45 116.65 43.45
M 149.8 10.5
Q 148.3 11.7 148.3 13.25 148.3 17.55 160 23.05
L 176.2 7.6 149.8 10.5
M 224 111.5
L 208.05 112.3
Q 194.7 112.4 177.85 111.4 182.85 111.85 185.75 113.15 189 114.95 183.65 115.8 176.3 117 164.6 114.65 152.75 112.3 162.7 110.1
L 142.7 108.05
Q 127.7 106.15 113.6 105.05 118.1 109.3 134.25 113.05
L 141.45 114.5
Q 153.95 116.9 168.75 118 195.45 119.95 209.7 117.55 220.2 115.65 224 111.5
M 169.75 95.85
Q 166.2 88.1 164.9 80
L 164.7 80
Q 161.45 80 159.35 81 160.65 87.1 163.15 93.25 166.35 100.7 171.5 107.9 172.55 109.05 174 109.55
L 181.25 110
Q 178.4 109.65 176.75 107.9 172.55 101.95 169.75 95.85
M 167.65 36.55
Q 166.65 34.7 165.25 33.15 162.15 29.4 159.55 29.4 158.7 29.4 158 29.85
L 158.45 30.4
Q 160 33.4 161 36.2 164.9 46.6 163.3 54.85 161.1 60.85 159.85 65.55 160.65 66.3 161.55 66.3 164.05 66.3 167 61.8
L 167.1 61.6
Q 168.1 58.4 169.5 54.85 171.35 46.85 167.65 36.55
M 177.6 9.15
L 179.45 7.65 179.35 7.65 177.6 9.15
M 228.4 34.25
Q 230.25 30.3 227.65 26.35
L 201.4 4.25
Q 198.1 2.4 195.25 2.6
L 194.7 2.7
Q 193.5 2.8 192.25 3.5
L 190.95 4.25 173.55 17.85 176.55 24.75 193.25 10.95
Q 196.9 8.1 201.4 10.95
L 222.15 29.4
Q 224.25 32.7 222.8 36 219.85 42.65 219.5 48.8 219.25 54.9 221.4 61.8
L 226.4 61.75
Q 224.7 55.3 224.8 49.65 224.9 41.9 228.4 34.25 Z"/>

<path fill="#A30000" stroke="none" d="
M 74.2 62.9
L 76.25 57.95 73.3 56.25
Q 69.8 64.25 67.3 73.85
L 65.1 83.3
Q 63.55 91.2 62.65 100
L 65.85 99.95
Q 67.4 85.3 70.9 73.1 72.3 67.75 74.2 62.9
M 123.65 46.85
L 121.6 45.75 121.15 50.1
Q 118.95 71.45 119.3 104.4
L 121.75 104.65
Q 121.25 72 123.2 51.35
L 123.65 46.85
M 187.6 61.5
Q 187.6 67.4 190.85 71.6 194.05 75.7 198.55 75.7 203.1 75.7 206.25 71.6 209.45 67.4 209.45 61.5 209.45 59.65 209.15 57.95 205.2 55.7 201.05 52.4
L 196 47.7
Q 193.1 48.55 190.85 51.45 187.6 55.55 187.6 61.5
M 178.5 36
L 173.9 35.2
Q 176.85 42.55 176.75 48.55 176.85 51 176.3 53.2
L 172.7 63.45
Q 171.15 68.4 171.5 71.35 171.8 76.15 172.9 81.2
L 177.4 82.7
Q 182.65 84.7 187.45 88.1
L 189 88.1 189 89.2 190.3 90.2 207.95 90.2 208.15 88.1 217.25 88.45 214.4 93.45 216.8 98.4 212.5 98.4 212.6 100.35 201.15 100.8
Q 202.45 102.4 203.65 104.1
L 213.4 103.45
Q 216.25 102.3 217.55 99.6
L 217.9 98.95 223.9 81.75
Q 224.8 78.1 224.15 72.35 223.6 66.45 221.85 63.25
L 221.4 61.8 218.35 61.4 219.1 63.15
Q 214.75 71.6 214.5 80.2
L 208.5 72.25 207.6 73.55 206.95 74.3 212.45 82.25
Q 205.2 83.3 198.75 88.35 192.7 83.05 184.3 81.9
L 189.55 74.55 188.9 73.55 188.25 72.8 181.95 80.1
Q 181.9 69.6 177.5 61.05 181.9 53.1 182.25 43
L 188.15 50.35 189.55 48.35 183.4 40.6 188.25 40.05 184.7 36.3 178.05 42.35 178.5 36
M 176.55 24.75
L 173.45 27.35 172.9 28.1
Q 171.6 30.65 172.9 32.7
L 173.1 33.25 178.4 28 176.55 24.75 Z"/>

<path fill="#800000" stroke="none" d="
M 82.15 36.1
Q 90.7 26.6 101.8 20.9 50.25 40.6 42.9 101.15
L 47.95 100.7
Q 53.7 56 82.15 36.1
M 124.75 16.3
Q 126.4 14.45 128.25 13.9 89.6 19.6 73.3 56.25
L 76.25 57.95
Q 91.05 24.65 124.75 16.3 Z"/>

<path fill="#B80000" stroke="none" d="
M 116.65 43.45
Q 117.85 33.8 119.7 27.35 108 31.1 96.3 39.95 85.8 48.05 77.35 58.65
L 74.2 62.9
Q 72.3 67.75 70.9 73.1 75.35 65.65 80.2 60.5 87.85 52.1 96.15 49 101.1 46.85 106.6 46.85 111.6 46.85 116.1 48.25
L 116.65 43.45
M 127.8 25.25
Q 125.1 33.15 123.65 46.85
L 123.2 51.35
Q 127.8 54.05 131.65 58.55 143.25 72.35 143.25 99.25 143.25 103 142.8 106.6
L 158 108.2
Q 154.2 98.15 152.2 88 151.35 81.75 154.8 74.95 157.9 70.5 159.55 65.1 161.2 59.65 161.55 53.4 160.85 44.1 159.2 39.05 156.7 31.8 150.9 28.55 140.95 23.05 127.8 25.25 Z"/>

<path fill="#640000" stroke="none" d="
M 121.6 45.75
L 123.65 46.85
Q 125.1 33.15 127.8 25.25 130 18.6 133.05 16.05 148.35 18.35 161 36.2 160 33.4 158.45 30.4
L 158 29.85
Q 156.7 27.25 158.8 24.2 146.95 14.1 131.95 13.55 128.25 17.15 125.65 25.7 123.2 33.6 121.6 45.75 Z"/>

<path fill="#FF4646" stroke="none" d="
M 159 23.95
L 158.8 24.2 159.25 23.75 159 23.95
M 208.05 112.3
L 224 111.5
Q 239.5 110.2 247 106.5 240.9 108.6 226.85 109.65
L 207.3 110.65 192.9 110.45 192.25 110.45
Q 190.1 110.35 187.8 110.35
L 181.25 110 174 109.55 158 108.2 142.8 106.6 121.75 104.65 119.3 104.4 114.8 104 115.2 104.1 114.15 104 114 104 82.15 102.15 71.35 102.05
Q 63.9 102.1 56.65 102.4
L 56.2 103.45 56.45 102.45 42.15 103.4 40.7 103.55 31.3 104.85 23.25 106.9
Q 61.9 100.8 113.6 105.05 127.7 106.15 142.7 108.05
L 162.7 110.1 177.85 111.4
Q 194.7 112.4 208.05 112.3
M 167.1 61.6
L 167 61.8
Q 164.05 66.3 161.55 66.3 160.65 66.3 159.85 65.55 158.25 72.35 158.7 76.5
L 159.35 81
Q 161.45 80 164.7 80
L 164.9 80 164.6 76.5
Q 164.05 71.15 167.1 61.6
M 167 22.95
Q 165.9 23.4 165 23.4 162.6 23.4 161.9 21.7
L 158.8 24.2
Q 156.7 27.25 158 29.85 158.7 29.4 159.55 29.4 162.15 29.4 165.25 33.15 166.65 34.7 167.65 36.55 166.75 33.7 165.35 30.85
L 165.25 30.4
Q 163.6 28 165 25.2
L 165.9 23.95 167 22.95 Z"/>

<path fill="#B10D0D" stroke="none" d="
M 148.3 13.25
Q 148.3 11.7 149.8 10.5
L 128.15 12.9
Q 118.3 14.2 109.75 17.4
L 109.5 17.4
Q 105.5 18.9 101.8 20.9 90.7 26.6 82.15 36.1 73.3 45.85 67.3 59.75 67.7 59.3 68.35 59 71.35 57.25 73.3 56.25 89.6 19.6 128.25 13.9 126.4 14.45 124.75 16.3 121.9 19.45 119.7 27.35 117.85 33.8 116.65 43.45 119.5 44.45 121.6 45.75 123.2 33.6 125.65 25.7 128.25 17.15 131.95 13.55 146.95 14.1 158.8 24.2
L 159 23.95 159.25 23.75 160 23.05
Q 148.3 17.55 148.3 13.25
M 180.1 7.2
L 179.9 7.25 179.35 7.65 179.45 7.65 180.1 7.2 Z"/>

<path fill="#8E0000" stroke="none" d="
M 174 109.55
Q 172.55 109.05 171.5 107.9 166.35 100.7 163.15 93.25 160.65 87.1 159.35 81
L 158.7 76.5
Q 158.25 72.35 159.85 65.55 161.1 60.85 163.3 54.85 164.9 46.6 161 36.2 148.35 18.35 133.05 16.05 130 18.6 127.8 25.25 140.95 23.05 150.9 28.55 156.7 31.8 159.2 39.05 160.85 44.1 161.55 53.4 161.2 59.65 159.55 65.1 157.9 70.5 154.8 74.95 151.35 81.75 152.2 88 154.2 98.15 158 108.2
L 174 109.55 Z"/>

<path fill="#FF8E8E" stroke="none" d="
M 183.65 115.8
Q 189 114.95 185.75 113.15 182.85 111.85 177.85 111.4
L 162.7 110.1
Q 152.75 112.3 164.6 114.65 176.3 117 183.65 115.8
M 188.15 2.6
Q 185.8 2.8 183.75 4.25
L 180.1 7.2 179.45 7.65 177.6 9.15 161.9 21.7
Q 162.6 23.4 165 23.4 165.9 23.4 167 22.95
L 173.55 17.85 190.95 4.25 192.25 3.5
Q 193.5 2.8 194.7 2.7
L 188.15 2.6 Z"/>

<path fill="#8A0000" stroke="none" d="
M 216.45 109.05
L 206.95 110 192.9 110.45 207.3 110.65 226.85 109.65
Q 240.9 108.6 247 106.5
L 247.55 106.25
Q 251.3 104.85 251.5 103.1 251.6 102.55 251.3 101.95 249.2 99.05 223.6 99.5
L 222.15 103.65
Q 220.65 107.25 216.45 109.05
M 189 90.2
L 190.3 90.2 189 89.2 189 90.2
M 181.95 93.65
L 178.5 88.1 187.45 88.1
Q 182.65 84.7 177.4 82.7
L 172.9 81.2 174.35 87.1
Q 177.05 96.65 181 102.65 181.95 103.65 183.1 104
L 184.5 104
Q 196.1 104.3 203.65 104.1 202.45 102.4 201.15 100.8
L 184.85 101.35 184.95 98.7 179.45 98.95 181.95 93.65 Z"/>

<path fill="#C6C6C6" stroke="none" d="
M 208.15 88.1
L 212.35 90.2 212.5 98.4 216.8 98.4 214.4 93.45 217.25 88.45 208.15 88.1
M 211.2 59
Q 211.45 60.2 211.45 61.4 211.45 67.5 208.5 72.25
L 214.5 80.2
Q 214.75 71.6 219.1 63.15
L 218.35 61.4
Q 214.85 60.6 211.2 59
M 187.45 88.1
L 188.15 88.5 189 88.1 187.45 88.1
M 189.55 74.55
L 184.3 81.9
Q 192.7 83.05 198.75 88.35 205.2 83.3 212.45 82.25
L 206.95 74.3
Q 203.25 78.55 198.2 78.55 193.15 78.55 189.55 74.55
M 188.25 72.8
Q 184.95 67.95 184.95 61.4 184.95 54.9 188.15 50.35
L 182.25 43
Q 181.9 53.1 177.5 61.05 181.9 69.6 181.95 80.1
L 188.25 72.8
M 188.25 40.05
L 183.4 40.6 189.55 48.35
Q 191.4 46.3 193.6 45.3
L 188.25 40.05
M 179.55 29.95
L 178.4 28 173.1 33.25 173.9 35.2 178.5 36 178.05 42.35 184.7 36.3 183 34.45 181.9 35.55 179.55 29.95 Z"/>

<path fill="#8C8C8C" stroke="none" d="
M 207.95 90.2
L 212.35 90.2 208.15 88.1 207.95 90.2
M 189 90.2
L 189 89.2 189 88.1 188.15 88.5 185.3 90.2 189 90.2 Z"/>

<path fill="#DEDEDE" stroke="none" d="
M 208.4 50.45
Q 210.8 54.15 211.2 59 214.85 60.6 218.35 61.4 214.75 52.55 214.85 43.35
L 208.4 50.45
M 190.3 90.2
Q 192.8 92.05 195.15 94.35 198.55 97.4 201.15 100.8
L 212.6 100.35 212.5 98.4 212.35 90.2 207.95 90.2 190.3 90.2
M 196 47.7
L 193.6 45.3
Q 191.4 46.3 189.55 48.35
L 188.15 50.35
Q 184.95 54.9 184.95 61.4 184.95 67.95 188.25 72.8
L 188.9 73.55 189.55 74.55
Q 193.15 78.55 198.2 78.55 203.25 78.55 206.95 74.3
L 207.6 73.55 208.5 72.25
Q 211.45 67.5 211.45 61.4 211.45 60.2 211.2 59
L 209.15 57.95
Q 209.45 59.65 209.45 61.5 209.45 67.4 206.25 71.6 203.1 75.7 198.55 75.7 194.05 75.7 190.85 71.6 187.6 67.4 187.6 61.5 187.6 55.55 190.85 51.45 193.1 48.55 196 47.7
M 179.8 30.2
L 179.55 29.95 181.9 35.55 183 34.45
Q 181.25 32.4 179.8 30.2
M 207.3 49
L 212.45 41.55
Q 205 39.75 198.3 35.2 193.7 38.85 188.25 40.05
L 193.6 45.3
Q 195.8 44.35 198.2 44.35 203.45 44.35 207.3 49
M 216.05 29.65
L 213.5 36.1 208.8 34.15 217.25 43.55 217.25 37.55 221.85 37.1 216.05 29.65 Z"/>

<path fill="#CCCCCC" stroke="none" d="
M 190.3 90.2
L 189 90.2 185.3 90.2 184.95 98.7 184.85 101.35 201.15 100.8
Q 198.55 97.4 195.15 94.35 192.8 92.05 190.3 90.2 Z"/>

<path fill="#AD0000" stroke="none" d="
M 164.9 80
Q 166.2 88.1 169.75 95.85 172.55 101.95 176.75 107.9 178.4 109.65 181.25 110
L 187.8 110.35
Q 190.1 110.35 192.25 110.45
L 192.9 110.45 206.95 110
Q 205.55 106.9 203.65 104.1 196.1 104.3 184.5 104
L 183.1 104
Q 181.95 103.65 181 102.65 177.05 96.65 174.35 87.1
L 172.9 81.2
Q 168.75 80.1 164.9 80 Z"/>

<path fill="#A6A6A6" stroke="none" d="
M 178.5 88.1
L 181.95 93.65 179.45 98.95 184.95 98.7 185.3 90.2 188.15 88.5 187.45 88.1 178.5 88.1
M 186.8 34.35
L 185.4 32.4 183 34.45 184.7 36.3 186.8 34.35
M 178.7 27.7
L 178.4 28 179.55 29.95 178.7 27.7 Z"/>

<path fill="#BD0000" stroke="none" d="
M 198.55 47.25
Q 197.2 47.25 196 47.7
L 201.05 52.4
Q 205.2 55.7 209.15 57.95 208.5 54.25 206.25 51.45 203.1 47.25 198.55 47.25
M 216.9 27.55
L 216.05 29.65 221.85 37.1 217.25 37.55 217.25 43.55 208.8 34.15 213.5 36.1
Q 211 33.15 207.3 31.25 203.1 29.1 197.85 28.75 191.75 28.55 186.8 31.55
L 185.4 32.4 186.8 34.35 184.7 36.3 188.25 40.05
Q 193.7 38.85 198.3 35.2 205 39.75 212.45 41.55
L 207.3 49 207.6 49.2
Q 207.95 49.9 208.4 50.45
L 214.85 43.35
Q 214.75 52.55 218.35 61.4
L 221.4 61.8
Q 219.25 54.9 219.5 48.8 219.85 42.65 222.8 36 224.25 32.7 222.15 29.4
L 201.4 10.95
Q 196.9 8.1 193.25 10.95
L 176.55 24.75 178.4 28 178.7 27.7 178.25 26.6
Q 187.9 17.75 197.95 18 208.05 18.3 216.9 27.55 Z"/>

<path fill="#F3F3F3" stroke="none" d="
M 207.6 49.2
L 207.3 49
Q 203.45 44.35 198.2 44.35 195.8 44.35 193.6 45.3
L 196 47.7
Q 197.2 47.25 198.55 47.25 203.1 47.25 206.25 51.45 208.5 54.25 209.15 57.95
L 211.2 59
Q 210.8 54.15 208.4 50.45 207.95 49.9 207.6 49.2
M 213.5 36.1
L 216.05 29.65 216.9 27.55
Q 208.05 18.3 197.95 18 187.9 17.75 178.25 26.6
L 178.7 27.7 179.55 29.95 179.8 30.2
Q 181.25 32.4 183 34.45
L 185.4 32.4 186.8 31.55
Q 191.75 28.55 197.85 28.75 203.1 29.1 207.3 31.25 211 33.15 213.5 36.1 Z"/>
</g>

<g id="_______235_0_Layer0_0_FILL">
<path fill="#660000" stroke="none" d="
M 229.5 24.3
L 229.4 24.3 203.25 2.15 203.1 2.15 202.9 1.95
Q 199.1 -0.2 195.65 0
L 195.45 0 194.7 0.1 188.35 0
Q 185.5 0.2 183 1.95
L 182.75 2.15 182.65 2.3 179.7 4.65 128.4 10.25 128.25 10.25
Q 118.3 11.55 109.65 14.75
L 109.3 14.85 109.4 14.85
Q 46.15 31.95 39.15 101.15
L 31.35 102.2 31.05 102.3 30.9 102.4
Q 26.8 103.3 23.05 104.4 9.4 108.6 2.25 115.55
L 1.7 116.35
Q -0.35 122.4 0.1 125.3 0.2 126.05 0.75 126.6 1.4 127.15 2.15 127.15 2.9 127.15 3.55 126.7 4.25 126.3 4.35 125.55 6.55 118.1 38.25 115.2 77.85 111.5 140.85 119.4
L 142.6 119.7 142.9 119.7
Q 177.05 124 207.95 123.15
L 210.55 123
Q 240.35 121.95 249.4 116 254.35 112.7 254.25 109.65
L 254.15 103.1
Q 254.35 101.75 253.6 100.55
L 253.6 100.45 253.45 100.35
Q 251.5 96.65 227.2 96.85
L 231.9 83.3
Q 232.05 83.05 231.9 82.95
L 231.9 82.85
Q 234.45 72.45 230.5 65.3 229.6 63 228.95 60.75 227.3 54.6 227.45 49.2 227.55 42.1 230.6 35
L 230.8 34.8
Q 233.2 29.75 229.95 24.75
L 229.85 24.75 229.5 24.3
M 227.65 26.35
Q 230.25 30.3 228.4 34.25 224.9 41.9 224.8 49.65 224.7 55.3 226.4 61.75 227.1 64.25 228.1 66.85 231.7 73.45 229.4 82.95
L 223.6 99.5
Q 249.2 99.05 251.3 101.95 251.6 102.55 251.5 103.1
L 251.6 110
Q 251.5 112.2 247.8 114.6 238.95 120.15 210 121.25
L 207.5 121.4
Q 176.75 122.25 142.7 118
L 140.6 117.65
Q 77.5 109.75 37.65 113.5 3.8 116.55 1.85 125.45 1.5 122.9 3.35 117.55 10.15 110.85 23.25 106.9
L 31.3 104.85 40.7 103.55 40.7 103.5 42.15 103.4 56.45 102.45 56.65 102.4
Q 63.9 102.1 71.35 102.05
L 82.15 102.15
Q 97.75 102.4 114 104
L 114.15 104 115.2 104.1 114.8 104 114 103.85
Q 89.7 99.75 65.85 99.95
L 62.65 100 56.4 100.2 47.95 100.7 42.9 101.15 40.85 101.35
Q 47.95 34.1 109.5 17.4
L 109.75 17.4
Q 118.3 14.2 128.15 12.9
L 149.8 10.5 176.2 7.6 160 23.05 159.25 23.75 158.8 24.2 161.9 21.7 177.6 9.15 179.35 7.65 179.9 7.25 180.1 7.2 183.75 4.25
Q 185.8 2.8 188.15 2.6
L 194.7 2.7 195.25 2.6
Q 198.1 2.4 201.4 4.25
L 227.65 26.35 Z"/>

<path fill="#DB0000" stroke="none" d="
M 114 104
Q 97.75 102.4 82.15 102.15
L 114 104
M 131.65 58.55
Q 127.8 54.05 123.2 51.35 121.25 72 121.75 104.65
L 142.8 106.6
Q 143.25 103 143.25 99.25 143.25 72.35 131.65 58.55
M 116.1 48.25
Q 111.6 46.85 106.6 46.85 101.1 46.85 96.15 49 87.85 52.1 80.2 60.5 75.35 65.65 70.9 73.1 67.4 85.3 65.85 99.95 89.7 99.75 114 103.85 113.9 74.9 115.4 55.35
L 116.1 48.25
M 228.1 66.85
Q 227.1 64.25 226.4 61.75
L 221.4 61.8 221.85 63.25
Q 223.6 66.45 224.15 72.35 224.8 78.1 223.9 81.75
L 217.9 98.95 217.55 99.6
Q 216.25 102.3 213.4 103.45
L 203.65 104.1
Q 205.55 106.9 206.95 110
L 216.45 109.05
Q 220.65 107.25 222.15 103.65
L 223.6 99.5 229.4 82.95
Q 231.7 73.45 228.1 66.85
M 167 22.95
L 165.9 23.95 165 25.2
Q 163.6 28 165.25 30.4
L 165.35 30.85
Q 166.75 33.7 167.65 36.55 171.35 46.85 169.5 54.85 168.1 58.4 167.1 61.6 164.05 71.15 164.6 76.5
L 164.9 80
Q 168.75 80.1 172.9 81.2 171.8 76.15 171.5 71.35 171.15 68.4 172.7 63.45
L 176.3 53.2
Q 176.85 51 176.75 48.55 176.85 42.55 173.9 35.2
L 173.1 33.25 172.9 32.7
Q 171.6 30.65 172.9 28.1
L 173.45 27.35 176.55 24.75 173.55 17.85 167 22.95 Z"/>

<path fill="#9C0404" stroke="none" d="
M 47.95 100.7
L 56.4 100.2
Q 59.75 76.8 67.3 59.75 73.3 45.85 82.15 36.1 53.7 56 47.95 100.7
M 40.7 103.55
L 42.15 103.4 40.7 103.5 40.7 103.55
M 96.3 39.95
Q 108 31.1 119.7 27.35 121.9 19.45 124.75 16.3 91.05 24.65 76.25 57.95
L 74.2 62.9 77.35 58.65
Q 85.8 48.05 96.3 39.95
M 101.8 20.9
Q 105.5 18.9 109.5 17.4 47.95 34.1 40.85 101.35
L 42.9 101.15
Q 50.25 40.6 101.8 20.9 Z"/>

<path fill="#C20101" stroke="none" d="
M 56.65 102.4
L 56.45 102.45 56.2 103.45 56.65 102.4
M 207.5 121.4
L 210 121.25
Q 238.95 120.15 247.8 114.6 251.5 112.2 251.6 110
L 251.5 103.1
Q 251.3 104.85 247.55 106.25
L 247 106.5
Q 239.5 110.2 224 111.5 220.2 115.65 209.7 117.55 195.45 119.95 168.75 118 153.95 116.9 141.45 114.5
L 134.25 113.05
Q 118.1 109.3 113.6 105.05 61.9 100.8 23.25 106.9 10.15 110.85 3.35 117.55 1.5 122.9 1.85 125.45 3.8 116.55 37.65 113.5 77.5 109.75 140.6 117.65
L 142.7 118
Q 176.75 122.25 207.5 121.4 Z"/>

<path fill="#F70909" stroke="none" d="
M 67.3 73.85
Q 69.8 64.25 73.3 56.25 71.35 57.25 68.35 59 67.7 59.3 67.3 59.75 59.75 76.8 56.4 100.2
L 62.65 100
Q 63.55 91.2 65.1 83.3
L 67.3 73.85
M 116.65 43.45
L 116.1 48.25 115.4 55.35
Q 113.9 74.9 114 103.85
L 114.8 104 119.3 104.4
Q 118.95 71.45 121.15 50.1
L 121.6 45.75
Q 119.5 44.45 116.65 43.45
M 149.8 10.5
Q 148.3 11.7 148.3 13.25 148.3 17.55 160 23.05
L 176.2 7.6 149.8 10.5
M 209.7 117.55
Q 220.2 115.65 224 111.5
L 208.05 112.3
Q 194.7 112.4 177.85 111.4 182.85 111.85 185.75 113.15 189 114.95 183.65 115.8 176.3 117 164.6 114.65 152.75 112.3 162.7 110.1
L 142.7 108.05
Q 127.7 106.15 113.6 105.05 118.1 109.3 134.25 113.05
L 141.45 114.5
Q 153.95 116.9 168.75 118 195.45 119.95 209.7 117.55
M 164.9 80
L 164.7 80
Q 161.45 80 159.35 81 160.65 87.1 163.15 93.25 166.35 100.7 171.5 107.9 172.55 109.05 174 109.55
L 181.25 110
Q 178.4 109.65 176.75 107.9 172.55 101.95 169.75 95.85 166.2 88.1 164.9 80
M 167.65 36.55
Q 166.65 34.7 165.25 33.15 162.15 29.4 159.55 29.4 158.7 29.4 158 29.85
L 158.45 30.4
Q 160 33.4 161 36.2 164.9 46.6 163.3 54.85 161.1 60.85 159.85 65.55 160.65 66.3 161.55 66.3 164.05 66.3 167 61.8
L 167.1 61.6
Q 168.1 58.4 169.5 54.85 171.35 46.85 167.65 36.55
M 177.6 9.15
L 179.45 7.65 179.35 7.65 177.6 9.15
M 228.4 34.25
Q 230.25 30.3 227.65 26.35
L 201.4 4.25
Q 198.1 2.4 195.25 2.6
L 194.7 2.7
Q 193.5 2.8 192.25 3.5
L 190.95 4.25 173.55 17.85 176.55 24.75 193.25 10.95
Q 196.9 8.1 201.4 10.95
L 222.15 29.4
Q 224.25 32.7 222.8 36 219.85 42.65 219.5 48.8 219.25 54.9 221.4 61.8
L 226.4 61.75
Q 224.7 55.3 224.8 49.65 224.9 41.9 228.4 34.25 Z"/>

<path fill="#A30000" stroke="none" d="
M 74.2 62.9
L 76.25 57.95 73.3 56.25
Q 69.8 64.25 67.3 73.85
L 65.1 83.3
Q 63.55 91.2 62.65 100
L 65.85 99.95
Q 67.4 85.3 70.9 73.1 72.3 67.75 74.2 62.9
M 123.65 46.85
L 121.6 45.75 121.15 50.1
Q 118.95 71.45 119.3 104.4
L 121.75 104.65
Q 121.25 72 123.2 51.35
L 123.65 46.85
M 187.6 61.5
Q 187.6 67.4 190.85 71.6 194.05 75.7 198.55 75.7 203.1 75.7 206.25 71.6 209.45 67.4 209.45 61.5 209.45 59.65 209.15 57.95 205.2 55.7 201.05 52.4
L 196 47.7
Q 193.1 48.55 190.85 51.45 187.6 55.55 187.6 61.5
M 178.5 36
L 173.9 35.2
Q 176.85 42.55 176.75 48.55 176.85 51 176.3 53.2
L 172.7 63.45
Q 171.15 68.4 171.5 71.35 171.8 76.15 172.9 81.2
L 177.4 82.7
Q 182.65 84.7 187.45 88.1
L 189 88.1 189 89.2 190.3 90.2 207.95 90.2 208.15 88.1 217.25 88.45 214.4 93.45 216.8 98.4 212.5 98.4 212.6 100.35 201.15 100.8
Q 202.45 102.4 203.65 104.1
L 213.4 103.45
Q 216.25 102.3 217.55 99.6
L 217.9 98.95 223.9 81.75
Q 224.8 78.1 224.15 72.35 223.6 66.45 221.85 63.25
L 221.4 61.8 218.35 61.4 219.1 63.15
Q 214.75 71.6 214.5 80.2
L 208.5 72.25 207.6 73.55 206.95 74.3 212.45 82.25
Q 205.2 83.3 198.75 88.35 192.7 83.05 184.3 81.9
L 189.55 74.55 188.9 73.55 188.25 72.8 181.95 80.1
Q 181.9 69.6 177.5 61.05 181.9 53.1 182.25 43
L 188.15 50.35 189.55 48.35 183.4 40.6 188.25 40.05 184.7 36.3 178.05 42.35 178.5 36
M 176.55 24.75
L 173.45 27.35 172.9 28.1
Q 171.6 30.65 172.9 32.7
L 173.1 33.25 178.4 28 176.55 24.75 Z"/>

<path fill="#800000" stroke="none" d="
M 82.15 36.1
Q 90.7 26.6 101.8 20.9 50.25 40.6 42.9 101.15
L 47.95 100.7
Q 53.7 56 82.15 36.1
M 124.75 16.3
Q 126.4 14.45 128.25 13.9 89.6 19.6 73.3 56.25
L 76.25 57.95
Q 91.05 24.65 124.75 16.3 Z"/>

<path fill="#B80000" stroke="none" d="
M 116.65 43.45
Q 117.85 33.8 119.7 27.35 108 31.1 96.3 39.95 85.8 48.05 77.35 58.65
L 74.2 62.9
Q 72.3 67.75 70.9 73.1 75.35 65.65 80.2 60.5 87.85 52.1 96.15 49 101.1 46.85 106.6 46.85 111.6 46.85 116.1 48.25
L 116.65 43.45
M 127.8 25.25
Q 125.1 33.15 123.65 46.85
L 123.2 51.35
Q 127.8 54.05 131.65 58.55 143.25 72.35 143.25 99.25 143.25 103 142.8 106.6
L 158 108.2
Q 154.2 98.15 152.2 88 151.35 81.75 154.8 74.95 157.9 70.5 159.55 65.1 161.2 59.65 161.55 53.4 160.85 44.1 159.2 39.05 156.7 31.8 150.9 28.55 140.95 23.05 127.8 25.25 Z"/>

<path fill="#640000" stroke="none" d="
M 125.65 25.7
Q 123.2 33.6 121.6 45.75
L 123.65 46.85
Q 125.1 33.15 127.8 25.25 130 18.6 133.05 16.05 148.35 18.35 161 36.2 160 33.4 158.45 30.4
L 158 29.85
Q 156.7 27.25 158.8 24.2 146.95 14.1 131.95 13.55 128.25 17.15 125.65 25.7 Z"/>

<path fill="#FF4646" stroke="none" d="
M 159 23.95
L 158.8 24.2 159.25 23.75 159 23.95
M 226.85 109.65
L 207.3 110.65 192.9 110.45 192.25 110.45
Q 190.1 110.35 187.8 110.35
L 181.25 110 174 109.55 158 108.2 142.8 106.6 121.75 104.65 119.3 104.4 114.8 104 115.2 104.1 114.15 104 114 104 82.15 102.15 71.35 102.05
Q 63.9 102.1 56.65 102.4
L 56.2 103.45 56.45 102.45 42.15 103.4 40.7 103.55 31.3 104.85 23.25 106.9
Q 61.9 100.8 113.6 105.05 127.7 106.15 142.7 108.05
L 162.7 110.1 177.85 111.4
Q 194.7 112.4 208.05 112.3
L 224 111.5
Q 239.5 110.2 247 106.5 240.9 108.6 226.85 109.65
M 167.1 61.6
L 167 61.8
Q 164.05 66.3 161.55 66.3 160.65 66.3 159.85 65.55 158.25 72.35 158.7 76.5
L 159.35 81
Q 161.45 80 164.7 80
L 164.9 80 164.6 76.5
Q 164.05 71.15 167.1 61.6
M 167 22.95
Q 165.9 23.4 165 23.4 162.6 23.4 161.9 21.7
L 158.8 24.2
Q 156.7 27.25 158 29.85 158.7 29.4 159.55 29.4 162.15 29.4 165.25 33.15 166.65 34.7 167.65 36.55 166.75 33.7 165.35 30.85
L 165.25 30.4
Q 163.6 28 165 25.2
L 165.9 23.95 167 22.95 Z"/>

<path fill="#B10D0D" stroke="none" d="
M 148.3 13.25
Q 148.3 11.7 149.8 10.5
L 128.15 12.9
Q 118.3 14.2 109.75 17.4
L 109.5 17.4
Q 105.5 18.9 101.8 20.9 90.7 26.6 82.15 36.1 73.3 45.85 67.3 59.75 67.7 59.3 68.35 59 71.35 57.25 73.3 56.25 89.6 19.6 128.25 13.9 126.4 14.45 124.75 16.3 121.9 19.45 119.7 27.35 117.85 33.8 116.65 43.45 119.5 44.45 121.6 45.75 123.2 33.6 125.65 25.7 128.25 17.15 131.95 13.55 146.95 14.1 158.8 24.2
L 159 23.95 159.25 23.75 160 23.05
Q 148.3 17.55 148.3 13.25
M 180.1 7.2
L 179.9 7.25 179.35 7.65 179.45 7.65 180.1 7.2 Z"/>

<path fill="#8E0000" stroke="none" d="
M 174 109.55
Q 172.55 109.05 171.5 107.9 166.35 100.7 163.15 93.25 160.65 87.1 159.35 81
L 158.7 76.5
Q 158.25 72.35 159.85 65.55 161.1 60.85 163.3 54.85 164.9 46.6 161 36.2 148.35 18.35 133.05 16.05 130 18.6 127.8 25.25 140.95 23.05 150.9 28.55 156.7 31.8 159.2 39.05 160.85 44.1 161.55 53.4 161.2 59.65 159.55 65.1 157.9 70.5 154.8 74.95 151.35 81.75 152.2 88 154.2 98.15 158 108.2
L 174 109.55 Z"/>

<path fill="#FF8E8E" stroke="none" d="
M 183.65 115.8
Q 189 114.95 185.75 113.15 182.85 111.85 177.85 111.4
L 162.7 110.1
Q 152.75 112.3 164.6 114.65 176.3 117 183.65 115.8
M 190.95 4.25
L 192.25 3.5
Q 193.5 2.8 194.7 2.7
L 188.15 2.6
Q 185.8 2.8 183.75 4.25
L 180.1 7.2 179.45 7.65 177.6 9.15 161.9 21.7
Q 162.6 23.4 165 23.4 165.9 23.4 167 22.95
L 173.55 17.85 190.95 4.25 Z"/>

<path fill="#8A0000" stroke="none" d="
M 216.45 109.05
L 206.95 110 192.9 110.45 207.3 110.65 226.85 109.65
Q 240.9 108.6 247 106.5
L 247.55 106.25
Q 251.3 104.85 251.5 103.1 251.6 102.55 251.3 101.95 249.2 99.05 223.6 99.5
L 222.15 103.65
Q 220.65 107.25 216.45 109.05
M 190.3 90.2
L 189 89.2 189 90.2 190.3 90.2
M 177.4 82.7
L 172.9 81.2 174.35 87.1
Q 177.05 96.65 181 102.65 181.95 103.65 183.1 104
L 184.5 104
Q 196.1 104.3 203.65 104.1 202.45 102.4 201.15 100.8
L 184.85 101.35 184.95 98.7 179.45 98.95 181.95 93.65 178.5 88.1 187.45 88.1
Q 182.65 84.7 177.4 82.7 Z"/>

<path fill="#C6C6C6" stroke="none" d="
M 208.15 88.1
L 212.35 90.2 212.5 98.4 216.8 98.4 214.4 93.45 217.25 88.45 208.15 88.1
M 211.2 59
Q 211.45 60.2 211.45 61.4 211.45 67.5 208.5 72.25
L 214.5 80.2
Q 214.75 71.6 219.1 63.15
L 218.35 61.4
Q 214.85 60.6 211.2 59
M 188.15 88.5
L 189 88.1 187.45 88.1 188.15 88.5
M 189.55 74.55
L 184.3 81.9
Q 192.7 83.05 198.75 88.35 205.2 83.3 212.45 82.25
L 206.95 74.3
Q 203.25 78.55 198.2 78.55 193.15 78.55 189.55 74.55
M 188.25 72.8
Q 184.95 67.95 184.95 61.4 184.95 54.9 188.15 50.35
L 182.25 43
Q 181.9 53.1 177.5 61.05 181.9 69.6 181.95 80.1
L 188.25 72.8
M 188.25 40.05
L 183.4 40.6 189.55 48.35
Q 191.4 46.3 193.6 45.3
L 188.25 40.05
M 179.55 29.95
L 178.4 28 173.1 33.25 173.9 35.2 178.5 36 178.05 42.35 184.7 36.3 183 34.45 181.9 35.55 179.55 29.95 Z"/>

<path fill="#8C8C8C" stroke="none" d="
M 207.95 90.2
L 212.35 90.2 208.15 88.1 207.95 90.2
M 189 89.2
L 189 88.1 188.15 88.5 185.3 90.2 189 90.2 189 89.2 Z"/>

<path fill="#DEDEDE" stroke="none" d="
M 208.4 50.45
Q 210.8 54.15 211.2 59 214.85 60.6 218.35 61.4 214.75 52.55 214.85 43.35
L 208.4 50.45
M 190.3 90.2
Q 192.8 92.05 195.15 94.35 198.55 97.4 201.15 100.8
L 212.6 100.35 212.5 98.4 212.35 90.2 207.95 90.2 190.3 90.2
M 196 47.7
L 193.6 45.3
Q 191.4 46.3 189.55 48.35
L 188.15 50.35
Q 184.95 54.9 184.95 61.4 184.95 67.95 188.25 72.8
L 188.9 73.55 189.55 74.55
Q 193.15 78.55 198.2 78.55 203.25 78.55 206.95 74.3
L 207.6 73.55 208.5 72.25
Q 211.45 67.5 211.45 61.4 211.45 60.2 211.2 59
L 209.15 57.95
Q 209.45 59.65 209.45 61.5 209.45 67.4 206.25 71.6 203.1 75.7 198.55 75.7 194.05 75.7 190.85 71.6 187.6 67.4 187.6 61.5 187.6 55.55 190.85 51.45 193.1 48.55 196 47.7
M 179.8 30.2
L 179.55 29.95 181.9 35.55 183 34.45
Q 181.25 32.4 179.8 30.2
M 207.3 49
L 212.45 41.55
Q 205 39.75 198.3 35.2 193.7 38.85 188.25 40.05
L 193.6 45.3
Q 195.8 44.35 198.2 44.35 203.45 44.35 207.3 49
M 216.05 29.65
L 213.5 36.1 208.8 34.15 217.25 43.55 217.25 37.55 221.85 37.1 216.05 29.65 Z"/>

<path fill="#CCCCCC" stroke="none" d="
M 190.3 90.2
L 189 90.2 185.3 90.2 184.95 98.7 184.85 101.35 201.15 100.8
Q 198.55 97.4 195.15 94.35 192.8 92.05 190.3 90.2 Z"/>

<path fill="#A6A6A6" stroke="none" d="
M 178.5 88.1
L 181.95 93.65 179.45 98.95 184.95 98.7 185.3 90.2 188.15 88.5 187.45 88.1 178.5 88.1
M 186.8 34.35
L 185.4 32.4 183 34.45 184.7 36.3 186.8 34.35
M 178.4 28
L 179.55 29.95 178.7 27.7 178.4 28 Z"/>

<path fill="#AD0000" stroke="none" d="
M 174.35 87.1
L 172.9 81.2
Q 168.75 80.1 164.9 80 166.2 88.1 169.75 95.85 172.55 101.95 176.75 107.9 178.4 109.65 181.25 110
L 187.8 110.35
Q 190.1 110.35 192.25 110.45
L 192.9 110.45 206.95 110
Q 205.55 106.9 203.65 104.1 196.1 104.3 184.5 104
L 183.1 104
Q 181.95 103.65 181 102.65 177.05 96.65 174.35 87.1 Z"/>

<path fill="#BD0000" stroke="none" d="
M 198.55 47.25
Q 197.2 47.25 196 47.7
L 201.05 52.4
Q 205.2 55.7 209.15 57.95 208.5 54.25 206.25 51.45 203.1 47.25 198.55 47.25
M 216.9 27.55
L 216.05 29.65 221.85 37.1 217.25 37.55 217.25 43.55 208.8 34.15 213.5 36.1
Q 211 33.15 207.3 31.25 203.1 29.1 197.85 28.75 191.75 28.55 186.8 31.55
L 185.4 32.4 186.8 34.35 184.7 36.3 188.25 40.05
Q 193.7 38.85 198.3 35.2 205 39.75 212.45 41.55
L 207.3 49 207.6 49.2
Q 207.95 49.9 208.4 50.45
L 214.85 43.35
Q 214.75 52.55 218.35 61.4
L 221.4 61.8
Q 219.25 54.9 219.5 48.8 219.85 42.65 222.8 36 224.25 32.7 222.15 29.4
L 201.4 10.95
Q 196.9 8.1 193.25 10.95
L 176.55 24.75 178.4 28 178.7 27.7 178.25 26.6
Q 187.9 17.75 197.95 18 208.05 18.3 216.9 27.55 Z"/>

<path fill="#F3F3F3" stroke="none" d="
M 207.6 49.2
L 207.3 49
Q 203.45 44.35 198.2 44.35 195.8 44.35 193.6 45.3
L 196 47.7
Q 197.2 47.25 198.55 47.25 203.1 47.25 206.25 51.45 208.5 54.25 209.15 57.95
L 211.2 59
Q 210.8 54.15 208.4 50.45 207.95 49.9 207.6 49.2
M 213.5 36.1
L 216.05 29.65 216.9 27.55
Q 208.05 18.3 197.95 18 187.9 17.75 178.25 26.6
L 178.7 27.7 179.55 29.95 179.8 30.2
Q 181.25 32.4 183 34.45
L 185.4 32.4 186.8 31.55
Q 191.75 28.55 197.85 28.75 203.1 29.1 207.3 31.25 211 33.15 213.5 36.1 Z"/>
</g>
</defs>

<g transform="matrix( 0.2981414794921875, 0, 0, 0.2981414794921875, 0,0) ">
<g transform="matrix( 1, 0, 0, 1, 0,0) ">
<use xlink:href="#_______235_0_Layer1_0_FILL"/>
</g>

<g transform="matrix( 1, 0, 0, 1, 0,0) ">
<use xlink:href="#_______235_0_Layer0_0_FILL"/>
</g>
</g>
</svg>
